<?xml version="1.0" encoding="UTF-8" standalone="no"?>
<svg xmlns="http://www.w3.org/2000/svg" xmlns:xlink="http://www.w3.org/1999/xlink" contentStyleType="text/css" height="3118px" preserveAspectRatio="none" style="width:1273px;height:3118px;background:#FFFFFF;" version="1.1" viewBox="0 0 1273 3118" width="1273px" zoomAndPan="magnify"><script xmlns=""/><defs/><g><rect fill="#F1F1F1" height="36.2969" rx="12.5" ry="12.5" style="stroke:#181818;stroke-width:1.5;" width="91" x="10" y="1540.0156"/><text fill="#000000" font-family="sans-serif" font-size="14" lengthAdjust="spacing" textLength="71" x="20" y="1563.0107">Processes</text><rect fill="#F1F1F1" height="36.2969" rx="12.5" ry="12.5" style="stroke:#181818;stroke-width:1.5;" width="95" x="151" y="20"/><text fill="#000000" font-family="sans-serif" font-size="14" lengthAdjust="spacing" textLength="75" x="161" y="42.9951">What is it?</text><rect fill="#F1F1F1" height="36.2969" rx="12.5" ry="12.5" style="stroke:#181818;stroke-width:1.5;" width="188" x="296" y="20"/><text fill="#000000" font-family="sans-serif" font-size="14" lengthAdjust="spacing" textLength="168" x="306" y="42.9951">A program in execution</text><path d="M246,38.1484 L256,38.1484 C271,38.1484 271,38.1484 286,38.1484 L296,38.1484 " fill="none" style="stroke:#181818;stroke-width:1.0;"/><path d="M101,1558.1641 L111,1558.1641 C126,1558.1641 126,38.1484 141,38.1484 L151,38.1484 " fill="none" style="stroke:#181818;stroke-width:1.0;"/><rect fill="#F1F1F1" height="36.2969" rx="12.5" ry="12.5" style="stroke:#181818;stroke-width:1.5;" width="336" x="151" y="76.2969"/><text fill="#000000" font-family="sans-serif" font-size="14" lengthAdjust="spacing" textLength="316" x="161" y="99.292">How can we develop cooperative programs?</text><rect fill="#F1F1F1" height="36.2969" rx="12.5" ry="12.5" style="stroke:#181818;stroke-width:1.5;" width="43" x="537" y="76.2969"/><text fill="#000000" font-family="sans-serif" font-size="14" lengthAdjust="spacing" textLength="23" x="547" y="99.292">IPC</text><path d="M487,94.4453 L497,94.4453 C512,94.4453 512,94.4453 527,94.4453 L537,94.4453 " fill="none" style="stroke:#181818;stroke-width:1.0;"/><path d="M101,1558.1641 L111,1558.1641 C126,1558.1641 126,94.4453 141,94.4453 L151,94.4453 " fill="none" style="stroke:#181818;stroke-width:1.0;"/><rect fill="#F1F1F1" height="36.2969" rx="12.5" ry="12.5" style="stroke:#181818;stroke-width:1.5;" width="268" x="151" y="132.5938"/><text fill="#000000" font-family="sans-serif" font-size="14" lengthAdjust="spacing" textLength="248" x="161" y="155.5889">Important advantage over threads</text><rect fill="#F1F1F1" height="36.2969" rx="12.5" ry="12.5" style="stroke:#181818;stroke-width:1.5;" width="287" x="469" y="132.5938"/><text fill="#000000" font-family="sans-serif" font-size="14" lengthAdjust="spacing" textLength="267" x="479" y="155.5889">Processes don't share the data space</text><path d="M419,150.7422 L429,150.7422 C444,150.7422 444,150.7422 459,150.7422 L469,150.7422 " fill="none" style="stroke:#181818;stroke-width:1.0;"/><path d="M101,1558.1641 L111,1558.1641 C126,1558.1641 126,150.7422 141,150.7422 L151,150.7422 " fill="none" style="stroke:#181818;stroke-width:1.0;"/><rect fill="#F1F1F1" height="36.2969" rx="12.5" ry="12.5" style="stroke:#181818;stroke-width:1.5;" width="77" x="151" y="357.7813"/><text fill="#000000" font-family="sans-serif" font-size="14" lengthAdjust="spacing" textLength="57" x="161" y="380.7764">Threads</text><rect fill="#F1F1F1" height="36.2969" rx="12.5" ry="12.5" style="stroke:#181818;stroke-width:1.5;" width="58" x="278" y="245.1875"/><text fill="#000000" font-family="sans-serif" font-size="14" lengthAdjust="spacing" textLength="38" x="288" y="268.1826">Why?</text><rect fill="#F1F1F1" height="36.2969" rx="12.5" ry="12.5" style="stroke:#181818;stroke-width:1.5;" width="294" x="386" y="188.8906"/><text fill="#000000" font-family="sans-serif" font-size="14" lengthAdjust="spacing" textLength="274" x="396" y="211.8857">We require hiding blocking operations</text><path d="M336,263.3359 L346,263.3359 C361,263.3359 361,207.0391 376,207.0391 L386,207.0391 " fill="none" style="stroke:#181818;stroke-width:1.0;"/><rect fill="#F1F1F1" height="36.2969" rx="12.5" ry="12.5" style="stroke:#181818;stroke-width:1.5;" width="279" x="386" y="245.1875"/><text fill="#000000" font-family="sans-serif" font-size="14" lengthAdjust="spacing" textLength="259" x="396" y="268.1826">We must exploit a multicore system</text><path d="M336,263.3359 L346,263.3359 C361,263.3359 361,263.3359 376,263.3359 L386,263.3359 " fill="none" style="stroke:#181818;stroke-width:1.0;"/><rect fill="#F1F1F1" height="36.2969" rx="12.5" ry="12.5" style="stroke:#181818;stroke-width:1.5;" width="606" x="386" y="301.4844"/><text fill="#000000" font-family="sans-serif" font-size="14" lengthAdjust="spacing" textLength="586" x="396" y="324.4795">Threads offer easier communication to each other and performance than process</text><path d="M336,263.3359 L346,263.3359 C361,263.3359 361,319.6328 376,319.6328 L386,319.6328 " fill="none" style="stroke:#181818;stroke-width:1.0;"/><path d="M228,375.9297 L238,375.9297 C253,375.9297 253,263.3359 268,263.3359 L278,263.3359 " fill="none" style="stroke:#181818;stroke-width:1.0;"/><rect fill="#F1F1F1" height="36.2969" rx="12.5" ry="12.5" style="stroke:#181818;stroke-width:1.5;" width="333" x="278" y="414.0781"/><text fill="#000000" font-family="sans-serif" font-size="14" lengthAdjust="spacing" textLength="313" x="288" y="437.0732">When the operating system execute them?</text><rect fill="#F1F1F1" height="36.2969" rx="12.5" ry="12.5" style="stroke:#181818;stroke-width:1.5;" width="153" x="661" y="357.7813"/><text fill="#000000" font-family="sans-serif" font-size="14" lengthAdjust="spacing" textLength="133" x="671" y="380.7764">Context Switching</text><path d="M611,432.2266 L621,432.2266 C636,432.2266 636,375.9297 651,375.9297 L661,375.9297 " fill="none" style="stroke:#181818;stroke-width:1.0;"/><rect fill="#F1F1F1" height="36.2969" rx="12.5" ry="12.5" style="stroke:#181818;stroke-width:1.5;" width="144" x="661" y="414.0781"/><text fill="#000000" font-family="sans-serif" font-size="14" lengthAdjust="spacing" textLength="124" x="671" y="437.0732">Thread Switching</text><path d="M611,432.2266 L621,432.2266 C636,432.2266 636,432.2266 651,432.2266 L661,432.2266 " fill="none" style="stroke:#181818;stroke-width:1.0;"/><rect fill="#F1F1F1" height="36.2969" rx="12.5" ry="12.5" style="stroke:#181818;stroke-width:1.5;" width="97" x="661" y="470.375"/><text fill="#000000" font-family="sans-serif" font-size="14" lengthAdjust="spacing" textLength="77" x="671" y="493.3701">User space</text><path d="M611,432.2266 L621,432.2266 C636,432.2266 636,488.5234 651,488.5234 L661,488.5234 " fill="none" style="stroke:#181818;stroke-width:1.0;"/><path d="M228,375.9297 L238,375.9297 C253,375.9297 253,432.2266 268,432.2266 L278,432.2266 " fill="none" style="stroke:#181818;stroke-width:1.0;"/><rect fill="#F1F1F1" height="36.2969" rx="12.5" ry="12.5" style="stroke:#181818;stroke-width:1.5;" width="63" x="278" y="526.6719"/><text fill="#000000" font-family="sans-serif" font-size="14" lengthAdjust="spacing" textLength="43" x="288" y="549.667">Model</text><rect fill="#F1F1F1" height="36.2969" rx="12.5" ry="12.5" style="stroke:#181818;stroke-width:1.5;" width="486" x="391" y="526.6719"/><text fill="#000000" font-family="sans-serif" font-size="14" lengthAdjust="spacing" textLength="466" x="401" y="549.667">1 process: N user-space threads: M kernel space threads: U cores</text><path d="M341,544.8203 L351,544.8203 C366,544.8203 366,544.8203 381,544.8203 L391,544.8203 " fill="none" style="stroke:#181818;stroke-width:1.0;"/><path d="M228,375.9297 L238,375.9297 C253,375.9297 253,544.8203 268,544.8203 L278,544.8203 " fill="none" style="stroke:#181818;stroke-width:1.0;"/><path d="M101,1558.1641 L111,1558.1641 C126,1558.1641 126,375.9297 141,375.9297 L151,375.9297 " fill="none" style="stroke:#181818;stroke-width:1.0;"/><rect fill="#F1F1F1" height="36.2969" rx="12.5" ry="12.5" style="stroke:#181818;stroke-width:1.5;" width="116" x="151" y="1117.7891"/><text fill="#000000" font-family="sans-serif" font-size="14" lengthAdjust="spacing" textLength="96" x="161" y="1140.7842">Virtualization</text><rect fill="#F1F1F1" height="36.2969" rx="12.5" ry="12.5" style="stroke:#181818;stroke-width:1.5;" width="65" x="317" y="667.4141"/><text fill="#000000" font-family="sans-serif" font-size="14" lengthAdjust="spacing" textLength="45" x="327" y="690.4092">What?</text><rect fill="#F1F1F1" height="36.2969" rx="12.5" ry="12.5" style="stroke:#181818;stroke-width:1.5;" width="467" x="432" y="667.4141"/><text fill="#000000" font-family="sans-serif" font-size="14" lengthAdjust="spacing" textLength="447" x="442" y="690.4092">A proxy that mimics the behavior of another system interface</text><rect fill="#F1F1F1" height="36.2969" rx="12.5" ry="12.5" style="stroke:#181818;stroke-width:1.5;" width="255" x="949" y="582.9688"/><text fill="#000000" font-family="sans-serif" font-size="14" lengthAdjust="spacing" textLength="235" x="959" y="605.9639">Instruction set architecture (ISA)</text><path d="M899,685.5625 L909,685.5625 C924,685.5625 924,601.1172 939,601.1172 L949,601.1172 " fill="none" style="stroke:#181818;stroke-width:1.0;"/><rect fill="#F1F1F1" height="36.2969" rx="12.5" ry="12.5" style="stroke:#181818;stroke-width:1.5;" width="109" x="949" y="639.2656"/><text fill="#000000" font-family="sans-serif" font-size="14" lengthAdjust="spacing" textLength="89" x="959" y="662.2607">System calls</text><path d="M899,685.5625 L909,685.5625 C924,685.5625 924,657.4141 939,657.4141 L949,657.4141 " fill="none" style="stroke:#181818;stroke-width:1.0;"/><rect fill="#F1F1F1" height="36.2969" rx="12.5" ry="12.5" style="stroke:#181818;stroke-width:1.5;" width="312" x="949" y="695.5625"/><text fill="#000000" font-family="sans-serif" font-size="14" lengthAdjust="spacing" textLength="292" x="959" y="718.5576">Application programming interface (API)</text><path d="M899,685.5625 L909,685.5625 C924,685.5625 924,713.7109 939,713.7109 L949,713.7109 " fill="none" style="stroke:#181818;stroke-width:1.0;"/><rect fill="#F1F1F1" height="36.2969" rx="12.5" ry="12.5" style="stroke:#181818;stroke-width:1.5;" width="211" x="949" y="751.8594"/><text fill="#000000" font-family="sans-serif" font-size="14" lengthAdjust="spacing" textLength="191" x="959" y="774.8545">The software environment</text><path d="M899,685.5625 L909,685.5625 C924,685.5625 924,770.0078 939,770.0078 L949,770.0078 " fill="none" style="stroke:#181818;stroke-width:1.0;"/><path d="M382,685.5625 L392,685.5625 C407,685.5625 407,685.5625 422,685.5625 L432,685.5625 " fill="none" style="stroke:#181818;stroke-width:1.0;"/><path d="M267,1135.9375 L277,1135.9375 C292,1135.9375 292,685.5625 307,685.5625 L317,685.5625 " fill="none" style="stroke:#181818;stroke-width:1.0;"/><rect fill="#F1F1F1" height="36.2969" rx="12.5" ry="12.5" style="stroke:#181818;stroke-width:1.5;" width="58" x="317" y="920.75"/><text fill="#000000" font-family="sans-serif" font-size="14" lengthAdjust="spacing" textLength="38" x="327" y="943.7451">Why?</text><rect fill="#F1F1F1" height="36.2969" rx="12.5" ry="12.5" style="stroke:#181818;stroke-width:1.5;" width="96" x="425" y="864.4531"/><text fill="#000000" font-family="sans-serif" font-size="14" lengthAdjust="spacing" textLength="76" x="435" y="887.4482">Portability</text><rect fill="#F1F1F1" height="36.2969" rx="12.5" ry="12.5" style="stroke:#181818;stroke-width:1.5;" width="81" x="571" y="808.1563"/><text fill="#000000" font-family="sans-serif" font-size="14" lengthAdjust="spacing" textLength="61" x="581" y="831.1514">Isolation</text><path d="M521,882.6016 L531,882.6016 C546,882.6016 546,826.3047 561,826.3047 L571,826.3047 " fill="none" style="stroke:#181818;stroke-width:1.0;"/><rect fill="#F1F1F1" height="36.2969" rx="12.5" ry="12.5" style="stroke:#181818;stroke-width:1.5;" width="315" x="571" y="864.4531"/><text fill="#000000" font-family="sans-serif" font-size="14" lengthAdjust="spacing" textLength="295" x="581" y="887.4482">You're decoupling hardware and software</text><path d="M521,882.6016 L531,882.6016 C546,882.6016 546,882.6016 561,882.6016 L571,882.6016 " fill="none" style="stroke:#181818;stroke-width:1.0;"/><rect fill="#F1F1F1" height="36.2969" rx="12.5" ry="12.5" style="stroke:#181818;stroke-width:1.5;" width="116" x="571" y="920.75"/><text fill="#000000" font-family="sans-serif" font-size="14" lengthAdjust="spacing" textLength="96" x="581" y="943.7451">Reproducible</text><path d="M521,882.6016 L531,882.6016 C546,882.6016 546,938.8984 561,938.8984 L571,938.8984 " fill="none" style="stroke:#181818;stroke-width:1.0;"/><path d="M375,938.8984 L385,938.8984 C400,938.8984 400,882.6016 415,882.6016 L425,882.6016 " fill="none" style="stroke:#181818;stroke-width:1.0;"/><rect fill="#F1F1F1" height="36.2969" rx="12.5" ry="12.5" style="stroke:#181818;stroke-width:1.5;" width="195" x="425" y="977.0469"/><text fill="#000000" font-family="sans-serif" font-size="14" lengthAdjust="spacing" textLength="175" x="435" y="1000.042">Maintain legacy projects</text><path d="M375,938.8984 L385,938.8984 C400,938.8984 400,995.1953 415,995.1953 L425,995.1953 " fill="none" style="stroke:#181818;stroke-width:1.0;"/><rect fill="#F1F1F1" height="36.2969" rx="12.5" ry="12.5" style="stroke:#181818;stroke-width:1.5;" width="308" x="425" y="1033.3438"/><text fill="#000000" font-family="sans-serif" font-size="14" lengthAdjust="spacing" textLength="288" x="435" y="1056.3389">Flexibility to change underlying systems</text><path d="M375,938.8984 L385,938.8984 C400,938.8984 400,1051.4922 415,1051.4922 L425,1051.4922 " fill="none" style="stroke:#181818;stroke-width:1.0;"/><path d="M267,1135.9375 L277,1135.9375 C292,1135.9375 292,938.8984 307,938.8984 L317,938.8984 " fill="none" style="stroke:#181818;stroke-width:1.0;"/><rect fill="#F1F1F1" height="36.2969" rx="12.5" ry="12.5" style="stroke:#181818;stroke-width:1.5;" width="120" x="317" y="1371.125"/><text fill="#000000" font-family="sans-serif" font-size="14" lengthAdjust="spacing" textLength="100" x="327" y="1394.1201">Whether it is?</text><rect fill="#F1F1F1" height="36.2969" rx="12.5" ry="12.5" style="stroke:#181818;stroke-width:1.5;" width="204" x="487" y="1117.7891"/><text fill="#000000" font-family="sans-serif" font-size="14" lengthAdjust="spacing" textLength="184" x="497" y="1140.7842">A process virtual machine</text><rect fill="#F1F1F1" height="36.2969" rx="12.5" ry="12.5" style="stroke:#181818;stroke-width:1.5;" width="137" x="741" y="1089.6406"/><text fill="#000000" font-family="sans-serif" font-size="14" lengthAdjust="spacing" textLength="117" x="751" y="1112.6357">Runtime system</text><rect fill="#F1F1F1" height="36.2969" rx="12.5" ry="12.5" style="stroke:#181818;stroke-width:1.5;" width="48" x="928" y="1089.6406"/><text fill="#000000" font-family="sans-serif" font-size="14" lengthAdjust="spacing" textLength="28" x="938" y="1112.6357">Java</text><path d="M878,1107.7891 L888,1107.7891 C903,1107.7891 903,1107.7891 918,1107.7891 L928,1107.7891 " fill="none" style="stroke:#181818;stroke-width:1.0;"/><path d="M691,1135.9375 L701,1135.9375 C716,1135.9375 716,1107.7891 731,1107.7891 L741,1107.7891 " fill="none" style="stroke:#181818;stroke-width:1.0;"/><rect fill="#F1F1F1" height="36.2969" rx="12.5" ry="12.5" style="stroke:#181818;stroke-width:1.5;" width="92" x="741" y="1145.9375"/><text fill="#000000" font-family="sans-serif" font-size="14" lengthAdjust="spacing" textLength="72" x="751" y="1168.9326">Emulation</text><rect fill="#F1F1F1" height="36.2969" rx="12.5" ry="12.5" style="stroke:#181818;stroke-width:1.5;" width="97" x="883" y="1145.9375"/><text fill="#000000" font-family="sans-serif" font-size="14" lengthAdjust="spacing" textLength="77" x="893" y="1168.9326">Wine Linux</text><path d="M833,1164.0859 L843,1164.0859 C858,1164.0859 858,1164.0859 873,1164.0859 L883,1164.0859 " fill="none" style="stroke:#181818;stroke-width:1.0;"/><path d="M691,1135.9375 L701,1135.9375 C716,1135.9375 716,1164.0859 731,1164.0859 L741,1164.0859 " fill="none" style="stroke:#181818;stroke-width:1.0;"/><path d="M437,1389.2734 L447,1389.2734 C462,1389.2734 462,1135.9375 477,1135.9375 L487,1135.9375 " fill="none" style="stroke:#181818;stroke-width:1.0;"/><rect fill="#F1F1F1" height="36.2969" rx="12.5" ry="12.5" style="stroke:#181818;stroke-width:1.5;" width="255" x="487" y="1202.2344"/><text fill="#000000" font-family="sans-serif" font-size="14" lengthAdjust="spacing" textLength="235" x="497" y="1225.2295">A native virtual machine monitor</text><path d="M437,1389.2734 L447,1389.2734 C462,1389.2734 462,1220.3828 477,1220.3828 L487,1220.3828 " fill="none" style="stroke:#181818;stroke-width:1.0;"/><rect fill="#F1F1F1" height="36.2969" rx="12.5" ry="12.5" style="stroke:#181818;stroke-width:1.5;" width="260" x="487" y="1258.5313"/><text fill="#000000" font-family="sans-serif" font-size="14" lengthAdjust="spacing" textLength="240" x="497" y="1281.5264">A hosted virtual machine monitor</text><path d="M437,1389.2734 L447,1389.2734 C462,1389.2734 462,1276.6797 477,1276.6797 L487,1276.6797 " fill="none" style="stroke:#181818;stroke-width:1.0;"/><rect fill="#F1F1F1" height="36.2969" rx="12.5" ry="12.5" style="stroke:#181818;stroke-width:1.5;" width="98" x="487" y="1483.7188"/><text fill="#000000" font-family="sans-serif" font-size="14" lengthAdjust="spacing" textLength="78" x="497" y="1506.7139">Containers</text><rect fill="#F1F1F1" height="36.2969" rx="12.5" ry="12.5" style="stroke:#181818;stroke-width:1.5;" width="143" x="635" y="1399.2734"/><text fill="#000000" font-family="sans-serif" font-size="14" lengthAdjust="spacing" textLength="123" x="645" y="1422.2686">Unix mechanisms</text><rect fill="#F1F1F1" height="36.2969" rx="12.5" ry="12.5" style="stroke:#181818;stroke-width:1.5;" width="68" x="828" y="1314.8281"/><text fill="#000000" font-family="sans-serif" font-size="14" lengthAdjust="spacing" textLength="48" x="838" y="1337.8232">chroot</text><path d="M778,1417.4219 L788,1417.4219 C803,1417.4219 803,1332.9766 818,1332.9766 L828,1332.9766 " fill="none" style="stroke:#181818;stroke-width:1.0;"/><rect fill="#F1F1F1" height="36.2969" rx="12.5" ry="12.5" style="stroke:#181818;stroke-width:1.5;" width="109" x="828" y="1371.125"/><text fill="#000000" font-family="sans-serif" font-size="14" lengthAdjust="spacing" textLength="89" x="838" y="1394.1201">namespaces</text><path d="M778,1417.4219 L788,1417.4219 C803,1417.4219 803,1389.2734 818,1389.2734 L828,1389.2734 " fill="none" style="stroke:#181818;stroke-width:1.0;"/><rect fill="#F1F1F1" height="36.2969" rx="12.5" ry="12.5" style="stroke:#181818;stroke-width:1.5;" width="142" x="828" y="1427.4219"/><text fill="#000000" font-family="sans-serif" font-size="14" lengthAdjust="spacing" textLength="122" x="838" y="1450.417">union file system</text><path d="M778,1417.4219 L788,1417.4219 C803,1417.4219 803,1445.5703 818,1445.5703 L828,1445.5703 " fill="none" style="stroke:#181818;stroke-width:1.0;"/><rect fill="#F1F1F1" height="36.2969" rx="12.5" ry="12.5" style="stroke:#181818;stroke-width:1.5;" width="125" x="828" y="1483.7188"/><text fill="#000000" font-family="sans-serif" font-size="14" lengthAdjust="spacing" textLength="105" x="838" y="1506.7139">control groups</text><path d="M778,1417.4219 L788,1417.4219 C803,1417.4219 803,1501.8672 818,1501.8672 L828,1501.8672 " fill="none" style="stroke:#181818;stroke-width:1.0;"/><path d="M585,1501.8672 L595,1501.8672 C610,1501.8672 610,1417.4219 625,1417.4219 L635,1417.4219 " fill="none" style="stroke:#181818;stroke-width:1.0;"/><rect fill="#F1F1F1" height="36.2969" rx="12.5" ry="12.5" style="stroke:#181818;stroke-width:1.5;" width="167" x="635" y="1540.0156"/><text fill="#000000" font-family="sans-serif" font-size="14" lengthAdjust="spacing" textLength="147" x="645" y="1563.0107">Docker+Kubernetes</text><path d="M585,1501.8672 L595,1501.8672 C610,1501.8672 610,1558.1641 625,1558.1641 L635,1558.1641 " fill="none" style="stroke:#181818;stroke-width:1.0;"/><rect fill="#F1F1F1" height="36.2969" rx="12.5" ry="12.5" style="stroke:#181818;stroke-width:1.5;" width="179" x="635" y="1596.3125"/><text fill="#000000" font-family="sans-serif" font-size="14" lengthAdjust="spacing" textLength="159" x="645" y="1619.3076">Linux containers (LXC)</text><path d="M585,1501.8672 L595,1501.8672 C610,1501.8672 610,1614.4609 625,1614.4609 L635,1614.4609 " fill="none" style="stroke:#181818;stroke-width:1.0;"/><rect fill="#F1F1F1" height="36.2969" rx="12.5" ry="12.5" style="stroke:#181818;stroke-width:1.5;" width="168" x="635" y="1652.6094"/><text fill="#000000" font-family="sans-serif" font-size="14" lengthAdjust="spacing" textLength="148" x="645" y="1675.6045">PlanetLab (Vservers)</text><path d="M585,1501.8672 L595,1501.8672 C610,1501.8672 610,1670.7578 625,1670.7578 L635,1670.7578 " fill="none" style="stroke:#181818;stroke-width:1.0;"/><path d="M437,1389.2734 L447,1389.2734 C462,1389.2734 462,1501.8672 477,1501.8672 L487,1501.8672 " fill="none" style="stroke:#181818;stroke-width:1.0;"/><rect fill="#F1F1F1" height="36.2969" rx="12.5" ry="12.5" style="stroke:#181818;stroke-width:1.5;" width="42" x="487" y="1540.0156"/><text fill="#000000" font-family="sans-serif" font-size="14" lengthAdjust="spacing" textLength="22" x="497" y="1563.0107">Nix</text><path d="M437,1389.2734 L447,1389.2734 C462,1389.2734 462,1558.1641 477,1558.1641 L487,1558.1641 " fill="none" style="stroke:#181818;stroke-width:1.0;"/><path d="M267,1135.9375 L277,1135.9375 C292,1135.9375 292,1389.2734 307,1389.2734 L317,1389.2734 " fill="none" style="stroke:#181818;stroke-width:1.0;"/><path d="M101,1558.1641 L111,1558.1641 C126,1558.1641 126,1135.9375 141,1135.9375 L151,1135.9375 " fill="none" style="stroke:#181818;stroke-width:1.0;"/><rect fill="#F1F1F1" height="36.2969" rx="12.5" ry="12.5" style="stroke:#181818;stroke-width:1.5;" width="156" x="151" y="1877.7969"/><text fill="#000000" font-family="sans-serif" font-size="14" lengthAdjust="spacing" textLength="136" x="161" y="1900.792">Client architecture</text><rect fill="#F1F1F1" height="36.2969" rx="12.5" ry="12.5" style="stroke:#181818;stroke-width:1.5;" width="210" x="357" y="1765.2031"/><text fill="#000000" font-family="sans-serif" font-size="14" lengthAdjust="spacing" textLength="190" x="367" y="1788.1982">Networked user interfaces</text><rect fill="#F1F1F1" height="36.2969" rx="12.5" ry="12.5" style="stroke:#181818;stroke-width:1.5;" width="269" x="617" y="1737.0547"/><text fill="#000000" font-family="sans-serif" font-size="14" lengthAdjust="spacing" textLength="249" x="627" y="1760.0498">Users interact with remote servers</text><rect fill="#F1F1F1" height="36.2969" rx="12.5" ry="12.5" style="stroke:#181818;stroke-width:1.5;" width="176" x="936" y="1708.9063"/><text fill="#000000" font-family="sans-serif" font-size="14" lengthAdjust="spacing" textLength="156" x="946" y="1731.9014">by a specific protocol</text><path d="M886,1755.2031 L896,1755.2031 C911,1755.2031 911,1727.0547 926,1727.0547 L936,1727.0547 " fill="none" style="stroke:#181818;stroke-width:1.0;"/><rect fill="#F1F1F1" height="36.2969" rx="12.5" ry="12.5" style="stroke:#181818;stroke-width:1.5;" width="222" x="936" y="1765.2031"/><text fill="#000000" font-family="sans-serif" font-size="14" lengthAdjust="spacing" textLength="202" x="946" y="1788.1982">by an independent protocol</text><path d="M886,1755.2031 L896,1755.2031 C911,1755.2031 911,1783.3516 926,1783.3516 L936,1783.3516 " fill="none" style="stroke:#181818;stroke-width:1.0;"/><path d="M567,1783.3516 L577,1783.3516 C592,1783.3516 592,1755.2031 607,1755.2031 L617,1755.2031 " fill="none" style="stroke:#181818;stroke-width:1.0;"/><rect fill="#F1F1F1" height="36.2969" rx="12.5" ry="12.5" style="stroke:#181818;stroke-width:1.5;" width="120" x="617" y="1821.5"/><text fill="#000000" font-family="sans-serif" font-size="14" lengthAdjust="spacing" textLength="100" x="627" y="1844.4951">Whether it is?</text><rect fill="#F1F1F1" height="36.2969" rx="12.5" ry="12.5" style="stroke:#181818;stroke-width:1.5;" width="148" x="787" y="1821.5"/><text fill="#000000" font-family="sans-serif" font-size="14" lengthAdjust="spacing" textLength="128" x="797" y="1844.4951">X Window System</text><path d="M737,1839.6484 L747,1839.6484 C762,1839.6484 762,1839.6484 777,1839.6484 L787,1839.6484 " fill="none" style="stroke:#181818;stroke-width:1.0;"/><path d="M567,1783.3516 L577,1783.3516 C592,1783.3516 592,1839.6484 607,1839.6484 L617,1839.6484 " fill="none" style="stroke:#181818;stroke-width:1.0;"/><path d="M307,1895.9453 L317,1895.9453 C332,1895.9453 332,1783.3516 347,1783.3516 L357,1783.3516 " fill="none" style="stroke:#181818;stroke-width:1.0;"/><rect fill="#F1F1F1" height="36.2969" rx="12.5" ry="12.5" style="stroke:#181818;stroke-width:1.5;" width="228" x="357" y="1934.0938"/><text fill="#000000" font-family="sans-serif" font-size="14" lengthAdjust="spacing" textLength="208" x="367" y="1957.0889">Virtual desktop environment</text><rect fill="#F1F1F1" height="36.2969" rx="12.5" ry="12.5" style="stroke:#181818;stroke-width:1.5;" width="486" x="635" y="1877.7969"/><text fill="#000000" font-family="sans-serif" font-size="14" lengthAdjust="spacing" textLength="466" x="645" y="1900.792">The user has software to access the virtual desktop environment</text><path d="M585,1952.2422 L595,1952.2422 C610,1952.2422 610,1895.9453 625,1895.9453 L635,1895.9453 " fill="none" style="stroke:#181818;stroke-width:1.0;"/><rect fill="#F1F1F1" height="36.2969" rx="12.5" ry="12.5" style="stroke:#181818;stroke-width:1.5;" width="120" x="635" y="1962.2422"/><text fill="#000000" font-family="sans-serif" font-size="14" lengthAdjust="spacing" textLength="100" x="645" y="1985.2373">Whether it is?</text><rect fill="#F1F1F1" height="36.2969" rx="12.5" ry="12.5" style="stroke:#181818;stroke-width:1.5;" width="101" x="805" y="1934.0938"/><text fill="#000000" font-family="sans-serif" font-size="14" lengthAdjust="spacing" textLength="81" x="815" y="1957.0889">Chrome OS</text><path d="M755,1980.3906 L765,1980.3906 C780,1980.3906 780,1952.2422 795,1952.2422 L805,1952.2422 " fill="none" style="stroke:#181818;stroke-width:1.0;"/><rect fill="#F1F1F1" height="36.2969" rx="12.5" ry="12.5" style="stroke:#181818;stroke-width:1.5;" width="115" x="805" y="1990.3906"/><text fill="#000000" font-family="sans-serif" font-size="14" lengthAdjust="spacing" textLength="95" x="815" y="2013.3857">Web Browser</text><path d="M755,1980.3906 L765,1980.3906 C780,1980.3906 780,2008.5391 795,2008.5391 L805,2008.5391 " fill="none" style="stroke:#181818;stroke-width:1.0;"/><path d="M585,1952.2422 L595,1952.2422 C610,1952.2422 610,1980.3906 625,1980.3906 L635,1980.3906 " fill="none" style="stroke:#181818;stroke-width:1.0;"/><path d="M307,1895.9453 L317,1895.9453 C332,1895.9453 332,1952.2422 347,1952.2422 L357,1952.2422 " fill="none" style="stroke:#181818;stroke-width:1.0;"/><rect fill="#F1F1F1" height="36.2969" rx="12.5" ry="12.5" style="stroke:#181818;stroke-width:1.5;" width="377" x="357" y="2046.6875"/><text fill="#000000" font-family="sans-serif" font-size="14" lengthAdjust="spacing" textLength="357" x="367" y="2069.6826">Client-side software for distribution transparency</text><path d="M307,1895.9453 L317,1895.9453 C332,1895.9453 332,2064.8359 347,2064.8359 L357,2064.8359 " fill="none" style="stroke:#181818;stroke-width:1.0;"/><path d="M101,1558.1641 L111,1558.1641 C126,1558.1641 126,1895.9453 141,1895.9453 L151,1895.9453 " fill="none" style="stroke:#181818;stroke-width:1.0;"/><rect fill="#F1F1F1" height="36.2969" rx="12.5" ry="12.5" style="stroke:#181818;stroke-width:1.5;" width="160" x="151" y="2384.4688"/><text fill="#000000" font-family="sans-serif" font-size="14" lengthAdjust="spacing" textLength="140" x="161" y="2407.4639">Server architecture</text><rect fill="#F1F1F1" height="36.2969" rx="12.5" ry="12.5" style="stroke:#181818;stroke-width:1.5;" width="409" x="361" y="2102.9844"/><text fill="#000000" font-family="sans-serif" font-size="14" lengthAdjust="spacing" textLength="389" x="371" y="2125.9795">It waits for incoming requests and takes care of them.</text><path d="M311,2402.6172 L321,2402.6172 C336,2402.6172 336,2121.1328 351,2121.1328 L361,2121.1328 " fill="none" style="stroke:#181818;stroke-width:1.0;"/><rect fill="#F1F1F1" height="36.2969" rx="12.5" ry="12.5" style="stroke:#181818;stroke-width:1.5;" width="173" x="361" y="2285.9492"/><text fill="#000000" font-family="sans-serif" font-size="14" lengthAdjust="spacing" textLength="153" x="371" y="2308.9443">General design issues</text><rect fill="#F1F1F1" height="36.2969" rx="12.5" ry="12.5" style="stroke:#181818;stroke-width:1.5;" width="136" x="584" y="2187.4297"/><text fill="#000000" font-family="sans-serif" font-size="14" lengthAdjust="spacing" textLength="116" x="594" y="2210.4248">Synchronization</text><rect fill="#F1F1F1" height="36.2969" rx="12.5" ry="12.5" style="stroke:#181818;stroke-width:1.5;" width="137" x="770" y="2159.2813"/><text fill="#000000" font-family="sans-serif" font-size="14" lengthAdjust="spacing" textLength="117" x="780" y="2182.2764">Iterative or sync</text><path d="M720,2205.5781 L730,2205.5781 C745,2205.5781 745,2177.4297 760,2177.4297 L770,2177.4297 " fill="none" style="stroke:#181818;stroke-width:1.0;"/><rect fill="#F1F1F1" height="36.2969" rx="12.5" ry="12.5" style="stroke:#181818;stroke-width:1.5;" width="164" x="770" y="2215.5781"/><text fill="#000000" font-family="sans-serif" font-size="14" lengthAdjust="spacing" textLength="144" x="780" y="2238.5732">Concurrent or async</text><path d="M720,2205.5781 L730,2205.5781 C745,2205.5781 745,2233.7266 760,2233.7266 L770,2233.7266 " fill="none" style="stroke:#181818;stroke-width:1.0;"/><path d="M534,2304.0977 L544,2304.0977 C559,2304.0977 559,2205.5781 574,2205.5781 L584,2205.5781 " fill="none" style="stroke:#181818;stroke-width:1.0;"/><rect fill="#F1F1F1" height="36.2969" rx="12.5" ry="12.5" style="stroke:#181818;stroke-width:1.5;" width="100" x="584" y="2243.7266"/><text fill="#000000" font-family="sans-serif" font-size="14" lengthAdjust="spacing" textLength="80" x="594" y="2266.7217">Contacting</text><path d="M534,2304.0977 L544,2304.0977 C559,2304.0977 559,2261.875 574,2261.875 L584,2261.875 " fill="none" style="stroke:#181818;stroke-width:1.0;"/><rect fill="#F1F1F1" height="36.2969" rx="12.5" ry="12.5" style="stroke:#181818;stroke-width:1.5;" width="108" x="584" y="2300.0234"/><text fill="#000000" font-family="sans-serif" font-size="14" lengthAdjust="spacing" textLength="88" x="594" y="2323.0186">Interrupting</text><path d="M534,2304.0977 L544,2304.0977 C559,2304.0977 559,2318.1719 574,2318.1719 L584,2318.1719 " fill="none" style="stroke:#181818;stroke-width:1.0;"/><rect fill="#F1F1F1" height="36.2969" rx="12.5" ry="12.5" style="stroke:#181818;stroke-width:1.5;" width="60" x="584" y="2384.4688"/><text fill="#000000" font-family="sans-serif" font-size="14" lengthAdjust="spacing" textLength="40" x="594" y="2407.4639">State</text><rect fill="#F1F1F1" height="36.2969" rx="12.5" ry="12.5" style="stroke:#181818;stroke-width:1.5;" width="87" x="694" y="2356.3203"/><text fill="#000000" font-family="sans-serif" font-size="14" lengthAdjust="spacing" textLength="67" x="704" y="2379.3154">Stateless</text><path d="M644,2402.6172 L654,2402.6172 C669,2402.6172 669,2374.4688 684,2374.4688 L694,2374.4688 " fill="none" style="stroke:#181818;stroke-width:1.0;"/><rect fill="#F1F1F1" height="36.2969" rx="12.5" ry="12.5" style="stroke:#181818;stroke-width:1.5;" width="78" x="694" y="2412.6172"/><text fill="#000000" font-family="sans-serif" font-size="14" lengthAdjust="spacing" textLength="58" x="704" y="2435.6123">Stateful</text><path d="M644,2402.6172 L654,2402.6172 C669,2402.6172 669,2430.7656 684,2430.7656 L694,2430.7656 " fill="none" style="stroke:#181818;stroke-width:1.0;"/><path d="M534,2304.0977 L544,2304.0977 C559,2304.0977 559,2402.6172 574,2402.6172 L584,2402.6172 " fill="none" style="stroke:#181818;stroke-width:1.0;"/><path d="M311,2402.6172 L321,2402.6172 C336,2402.6172 336,2304.0977 351,2304.0977 L361,2304.0977 " fill="none" style="stroke:#181818;stroke-width:1.0;"/><rect fill="#F1F1F1" height="36.2969" rx="12.5" ry="12.5" style="stroke:#181818;stroke-width:1.5;" width="125" x="361" y="2539.2852"/><text fill="#000000" font-family="sans-serif" font-size="14" lengthAdjust="spacing" textLength="105" x="371" y="2562.2803">Object servers</text><rect fill="#F1F1F1" height="36.2969" rx="12.5" ry="12.5" style="stroke:#181818;stroke-width:1.5;" width="420" x="536" y="2497.0625"/><text fill="#000000" font-family="sans-serif" font-size="14" lengthAdjust="spacing" textLength="400" x="546" y="2520.0576">The server provides an interface to invoke local objects</text><rect fill="#F1F1F1" height="36.2969" rx="12.5" ry="12.5" style="stroke:#181818;stroke-width:1.5;" width="153" x="1006" y="2468.9141"/><text fill="#000000" font-family="sans-serif" font-size="14" lengthAdjust="spacing" textLength="133" x="1016" y="2491.9092">Activation policies</text><path d="M956,2515.2109 L966,2515.2109 C981,2515.2109 981,2487.0625 996,2487.0625 L1006,2487.0625 " fill="none" style="stroke:#181818;stroke-width:1.0;"/><rect fill="#F1F1F1" height="36.2969" rx="12.5" ry="12.5" style="stroke:#181818;stroke-width:1.5;" width="218" x="1006" y="2525.2109"/><text fill="#000000" font-family="sans-serif" font-size="14" lengthAdjust="spacing" textLength="198" x="1016" y="2548.2061">Mechanism, Object adapter</text><path d="M956,2515.2109 L966,2515.2109 C981,2515.2109 981,2543.3594 996,2543.3594 L1006,2543.3594 " fill="none" style="stroke:#181818;stroke-width:1.0;"/><path d="M486,2557.4336 L496,2557.4336 C511,2557.4336 511,2515.2109 526,2515.2109 L536,2515.2109 " fill="none" style="stroke:#181818;stroke-width:1.0;"/><rect fill="#F1F1F1" height="36.2969" rx="12.5" ry="12.5" style="stroke:#181818;stroke-width:1.5;" width="120" x="536" y="2581.5078"/><text fill="#000000" font-family="sans-serif" font-size="14" lengthAdjust="spacing" textLength="100" x="546" y="2604.5029">Whether it is?</text><rect fill="#F1F1F1" height="36.2969" rx="12.5" ry="12.5" style="stroke:#181818;stroke-width:1.5;" width="193" x="706" y="2553.3594"/><text fill="#000000" font-family="sans-serif" font-size="14" lengthAdjust="spacing" textLength="173" x="716" y="2576.3545">The Ice Runtime system</text><path d="M656,2599.6563 L666,2599.6563 C681,2599.6563 681,2571.5078 696,2571.5078 L706,2571.5078 " fill="none" style="stroke:#181818;stroke-width:1.0;"/><rect fill="#F1F1F1" height="36.2969" rx="12.5" ry="12.5" style="stroke:#181818;stroke-width:1.5;" width="193" x="706" y="2609.6563"/><text fill="#000000" font-family="sans-serif" font-size="14" lengthAdjust="spacing" textLength="173" x="716" y="2632.6514">The Apache Web Server</text><path d="M656,2599.6563 L666,2599.6563 C681,2599.6563 681,2627.8047 696,2627.8047 L706,2627.8047 " fill="none" style="stroke:#181818;stroke-width:1.0;"/><path d="M486,2557.4336 L496,2557.4336 C511,2557.4336 511,2599.6563 526,2599.6563 L536,2599.6563 " fill="none" style="stroke:#181818;stroke-width:1.0;"/><path d="M311,2402.6172 L321,2402.6172 C336,2402.6172 336,2557.4336 351,2557.4336 L361,2557.4336 " fill="none" style="stroke:#181818;stroke-width:1.0;"/><rect fill="#F1F1F1" height="36.2969" rx="12.5" ry="12.5" style="stroke:#181818;stroke-width:1.5;" width="127" x="361" y="2665.9531"/><text fill="#000000" font-family="sans-serif" font-size="14" lengthAdjust="spacing" textLength="107" x="371" y="2688.9482">Server clusters</text><rect fill="#F1F1F1" height="36.2969" rx="12.5" ry="12.5" style="stroke:#181818;stroke-width:1.5;" width="366" x="538" y="2665.9531"/><text fill="#000000" font-family="sans-serif" font-size="14" lengthAdjust="spacing" textLength="346" x="548" y="2688.9482">A set of machines connected through a network</text><path d="M488,2684.1016 L498,2684.1016 C513,2684.1016 513,2684.1016 528,2684.1016 L538,2684.1016 " fill="none" style="stroke:#181818;stroke-width:1.0;"/><path d="M311,2402.6172 L321,2402.6172 C336,2402.6172 336,2684.1016 351,2684.1016 L361,2684.1016 " fill="none" style="stroke:#181818;stroke-width:1.0;"/><path d="M101,1558.1641 L111,1558.1641 C126,1558.1641 126,2402.6172 141,2402.6172 L151,2402.6172 " fill="none" style="stroke:#181818;stroke-width:1.0;"/><rect fill="#F1F1F1" height="36.2969" rx="12.5" ry="12.5" style="stroke:#181818;stroke-width:1.5;" width="131" x="151" y="2891.1406"/><text fill="#000000" font-family="sans-serif" font-size="14" lengthAdjust="spacing" textLength="111" x="161" y="2914.1357">Code migration</text><rect fill="#F1F1F1" height="36.2969" rx="12.5" ry="12.5" style="stroke:#181818;stroke-width:1.5;" width="363" x="332" y="2722.25"/><text fill="#000000" font-family="sans-serif" font-size="14" lengthAdjust="spacing" textLength="343" x="342" y="2745.2451">An process is moved from one node to another.</text><path d="M282,2909.2891 L292,2909.2891 C307,2909.2891 307,2740.3984 322,2740.3984 L332,2740.3984 " fill="none" style="stroke:#181818;stroke-width:1.0;"/><rect fill="#F1F1F1" height="36.2969" rx="12.5" ry="12.5" style="stroke:#181818;stroke-width:1.5;" width="79" x="332" y="2834.8438"/><text fill="#000000" font-family="sans-serif" font-size="14" lengthAdjust="spacing" textLength="59" x="342" y="2857.8389">Reasons</text><rect fill="#F1F1F1" height="36.2969" rx="12.5" ry="12.5" style="stroke:#181818;stroke-width:1.5;" width="113" x="461" y="2778.5469"/><text fill="#000000" font-family="sans-serif" font-size="14" lengthAdjust="spacing" textLength="93" x="471" y="2801.542">Performance</text><path d="M411,2852.9922 L421,2852.9922 C436,2852.9922 436,2796.6953 451,2796.6953 L461,2796.6953 " fill="none" style="stroke:#181818;stroke-width:1.0;"/><rect fill="#F1F1F1" height="36.2969" rx="12.5" ry="12.5" style="stroke:#181818;stroke-width:1.5;" width="162" x="461" y="2834.8438"/><text fill="#000000" font-family="sans-serif" font-size="14" lengthAdjust="spacing" textLength="142" x="471" y="2857.8389">Privacy and security</text><path d="M411,2852.9922 L421,2852.9922 C436,2852.9922 436,2852.9922 451,2852.9922 L461,2852.9922 " fill="none" style="stroke:#181818;stroke-width:1.0;"/><rect fill="#F1F1F1" height="36.2969" rx="12.5" ry="12.5" style="stroke:#181818;stroke-width:1.5;" width="90" x="461" y="2891.1406"/><text fill="#000000" font-family="sans-serif" font-size="14" lengthAdjust="spacing" textLength="70" x="471" y="2914.1357">Flexibility</text><path d="M411,2852.9922 L421,2852.9922 C436,2852.9922 436,2909.2891 451,2909.2891 L461,2909.2891 " fill="none" style="stroke:#181818;stroke-width:1.0;"/><path d="M282,2909.2891 L292,2909.2891 C307,2909.2891 307,2852.9922 322,2852.9922 L332,2852.9922 " fill="none" style="stroke:#181818;stroke-width:1.0;"/><rect fill="#F1F1F1" height="36.2969" rx="12.5" ry="12.5" style="stroke:#181818;stroke-width:1.5;" width="70" x="332" y="2975.5859"/><text fill="#000000" font-family="sans-serif" font-size="14" lengthAdjust="spacing" textLength="50" x="342" y="2998.5811">Models</text><rect fill="#F1F1F1" height="36.2969" rx="12.5" ry="12.5" style="stroke:#181818;stroke-width:1.5;" width="212" x="452" y="2947.4375"/><text fill="#000000" font-family="sans-serif" font-size="14" lengthAdjust="spacing" textLength="192" x="462" y="2970.4326">Sender-initiated migration</text><path d="M402,2993.7344 L412,2993.7344 C427,2993.7344 427,2965.5859 442,2965.5859 L452,2965.5859 " fill="none" style="stroke:#181818;stroke-width:1.0;"/><rect fill="#F1F1F1" height="36.2969" rx="12.5" ry="12.5" style="stroke:#181818;stroke-width:1.5;" width="224" x="452" y="3003.7344"/><text fill="#000000" font-family="sans-serif" font-size="14" lengthAdjust="spacing" textLength="204" x="462" y="3026.7295">Receiver-initiated migration</text><path d="M402,2993.7344 L412,2993.7344 C427,2993.7344 427,3021.8828 442,3021.8828 L452,3021.8828 " fill="none" style="stroke:#181818;stroke-width:1.0;"/><path d="M282,2909.2891 L292,2909.2891 C307,2909.2891 307,2993.7344 322,2993.7344 L332,2993.7344 " fill="none" style="stroke:#181818;stroke-width:1.0;"/><rect fill="#F1F1F1" height="36.2969" rx="12.5" ry="12.5" style="stroke:#181818;stroke-width:1.5;" width="281" x="332" y="3060.0313"/><text fill="#000000" font-family="sans-serif" font-size="14" lengthAdjust="spacing" textLength="261" x="342" y="3083.0264">Migration in heterogeneous systems</text><rect fill="#F1F1F1" height="36.2969" rx="12.5" ry="12.5" style="stroke:#181818;stroke-width:1.5;" width="189" x="663" y="3060.0313"/><text fill="#000000" font-family="sans-serif" font-size="14" lengthAdjust="spacing" textLength="169" x="673" y="3083.0264">Process virtual machine</text><path d="M613,3078.1797 L623,3078.1797 C638,3078.1797 638,3078.1797 653,3078.1797 L663,3078.1797 " fill="none" style="stroke:#181818;stroke-width:1.0;"/><path d="M282,2909.2891 L292,2909.2891 C307,2909.2891 307,3078.1797 322,3078.1797 L332,3078.1797 " fill="none" style="stroke:#181818;stroke-width:1.0;"/><path d="M101,1558.1641 L111,1558.1641 C126,1558.1641 126,2909.2891 141,2909.2891 L151,2909.2891 " fill="none" style="stroke:#181818;stroke-width:1.0;"/><!--SRC=[XLPTTnCt47tthvWtdBJX5ChfwSbBCU6ZfZ7uu2JGHraxjbNlIbj9QyVzzRqZhTPEeFG1ufL6cgzxx-XbYCh7njYgKUtedERUQGw1m-Zyd3vlL2GJoCJVy7bE4sgzMtlLaB74zwoxQ9mLoz_TdhIoj6UgUCUrQqaxrx9NqUou70lvckdyIivCczRvg6maLUtmHwsPt8uznOrdLOLaEyH3bRDF8eMDyWmB-55HKMYLPhdivkJCvyqXES8l9iz_TmP7DgOoTatBskcj_EY3SpOCfaqN8j9gQsSG4pxhQBJ3sN08aPjirpiYjreXL5R1u8zsJTDPezE551tMzOOSmlIaR4NmjNA-KLPBxAXJczFgmsMRCkf3Gd3POL_Yb6xJPtJbREJxI8kzYNe3szEe7g_U1lWl9JgdcQkupZlFIWINz84wc5qairBwIvhHbhtbcXwjtv9K9A7ZplZOgThyeteKPC3qWIQit1yatKYDQOmEASabRzJEE8y2eZIvH7sw1gdvLH-j0CI6w3kTQXeOBV78BRAE7NeodYucPxtX8f_Nggv3lpHfsxhqeqTV8vKTVD1uCf-M2suGM72hk1TmiTqPxsp3DZw2qrpmkZIrYOSIOd3ra3w-_tJT4oySqAv30708l5RfMi51yT5RVsA4LdNQBEkyH3E50F6FQbuhVP3G_qB2FKRVrdnlidy1cGQIm9dELkphmn4t0wnISOrG-BGfqdRQvUPHemGlGq2TZQPv07YilbSxrHky0IbEyeKN7APhOxlxui5coZzoG8sp9ZfVh3OE7ghlMmdMKGlsfQctrjnJmvAt2KqeCUYDTowMBwiQJg0Tzi5Ce61bwiU9QJZmhgQrHxUAazSG2FO__D4jXG2nN9EJJ4ToJ3I-_d9L03Il5MolrPB6Ts0JL2paBVfWf39qLHks3o6SklI1uzxvBKeXB3p2CnmP7FAgqf50xmqKhN4GXTvD7y3oGAA6hCtAQEboTDhL9viMjrJSClv370yClWMLS_eYlQsWwukXPeNom7VOHcZy8wfa8gL4DYeS6GMiAfrW9mgm-xzBlXdE5PeCP7vSzD-VUKcllDl3MGej5_WYcEg4oX1TgWnKn2oxBCrUMO33izL2OLga8dxTbYbghKmCwGPZeUz2Bvab7B0gN8vgYwcanGsaJ2JwQJhwZe6Ed9vPe-eXTAMRYuCLhDeJoSGgd9KvwKGBhIuR883kl9U6OKSDMvaPEWv2FnM0-AuzhYoYYeNLwNVTZvlolUfIy-dZKWJc0Pgo7ERA02Wxb3Ha01NjH4EDtRaj4yOfSdNBeqg1tOXirqklWmgRWKEpmjqVYrzLgJQo_qxZ9PWfV7vBczBc16J77m54RcVAg- -ihZ7KXyGcQOwWNRtU1E6pHHpW7qQSwzORqCXcJYRQOcHYUgtzSSPDXkajJwC6BvQALi0cEUYN5Nk1Uvvi6H6Vy4eOtXdpurEWN_0ebZxa-O1vxyjqEPNxu_mkK18Y-mi3kJHAmdyGfFZK34JzfmNDofUyvL1tnf04SbqNJgV8y03xQc2CNYA2ycuSYVx5szar2OZaqcTFd__q_EUdpvSSrOlnhTrQjxVoJcf5XgMHPwFnk_arkDfvTFUKfMSZcJYbuPTf_enlPcUqU3EWuCs9QBo_csKZF4FZedKn6V_ouk8LWDJZu6usUiqhXISTZcedRq4yPcxUNlmwkiOKxV3ul8GIZQuS7FW3zXR_0W00]--></g></svg>