<?xml version="1.0" encoding="UTF-8" standalone="no"?>
<svg xmlns="http://www.w3.org/2000/svg" xmlns:xlink="http://www.w3.org/1999/xlink" contentStyleType="text/css" height="552px" preserveAspectRatio="none" style="width:1349px;height:552px;background:#FFFFFF;" version="1.1" viewBox="0 0 1349 552" width="1349px" zoomAndPan="magnify"><defs/><g><!--MD5=[9d44916250b776386006c440668bcfbb]
class Agent--><g id="elem_Agent"><rect codeLine="2" fill="#F1F1F1" height="162.0781" id="Agent" rx="2.5" ry="2.5" style="stroke:#181818;stroke-width:0.5;" width="429" x="762.5" y="20.5"/><ellipse cx="950.75" cy="36.5" fill="#ADD1B2" rx="11" ry="11" style="stroke:#181818;stroke-width:1.0;"/><path d="M953.0938,32.1719 C952.1563,31.7344 951.5625,31.5938 950.6875,31.5938 C948.0625,31.5938 946.0625,33.6719 946.0625,36.3906 L946.0625,37.5156 C946.0625,40.0938 948.1719,41.9844 951.0625,41.9844 C952.2813,41.9844 953.4375,41.6875 954.1875,41.1406 C954.7656,40.7344 955.0938,40.2813 955.0938,39.8906 C955.0938,39.4375 954.7031,39.0469 954.2344,39.0469 C954.0156,39.0469 953.8125,39.125 953.625,39.3125 C953.1719,39.7969 953.1719,39.7969 952.9844,39.8906 C952.5625,40.1563 951.875,40.2813 951.1094,40.2813 C949.0625,40.2813 947.7656,39.1875 947.7656,37.4844 L947.7656,36.3906 C947.7656,34.6094 949.0156,33.2969 950.75,33.2969 C951.3281,33.2969 951.9375,33.4531 952.4063,33.7031 C952.8906,33.9844 953.0625,34.2031 953.1563,34.6094 C953.2188,35.0156 953.25,35.1406 953.3906,35.2656 C953.5313,35.4063 953.7656,35.5156 953.9844,35.5156 C954.25,35.5156 954.5156,35.375 954.6875,35.1563 C954.7969,35 954.8281,34.8125 954.8281,34.3906 L954.8281,32.9688 C954.8281,32.5313 954.8125,32.4063 954.7188,32.25 C954.5625,31.9844 954.2813,31.8438 953.9844,31.8438 C953.6875,31.8438 953.4844,31.9375 953.2656,32.25 L953.0938,32.1719 Z " fill="#000000"/><text fill="#000000" font-family="sans-serif" font-size="14" lengthAdjust="spacing" textLength="44" x="971.25" y="41.3467">Agent</text><line style="stroke:#181818;stroke-width:0.5;" x1="763.5" x2="1190.5" y1="52.5" y2="52.5"/><text fill="#000000" font-family="sans-serif" font-size="14" lengthAdjust="spacing" textLength="68" x="768.5" y="69.4951">actuators</text><text fill="#000000" font-family="sans-serif" font-size="14" lengthAdjust="spacing" textLength="54" x="768.5" y="85.792">sensors</text><text fill="#000000" font-family="sans-serif" font-size="14" lengthAdjust="spacing" textLength="34" x="768.5" y="102.0889">type</text><text fill="#000000" font-family="sans-serif" font-size="14" lengthAdjust="spacing" textLength="270" x="768.5" y="118.3857">process: 'competitive' | 'cooperative'</text><text fill="#000000" font-family="sans-serif" font-size="14" lengthAdjust="spacing" textLength="159" x="768.5" y="134.6826">performance measure</text><line style="stroke:#181818;stroke-width:0.5;" x1="763.5" x2="1190.5" y1="141.9844" y2="141.9844"/><text fill="#000000" font-family="sans-serif" font-size="14" lengthAdjust="spacing" textLength="169" x="768.5" y="158.9795">percepts(environment)</text><text fill="#000000" font-family="sans-serif" font-size="14" lengthAdjust="spacing" textLength="417" x="768.5" y="175.2764">choose the best action by performance measure(): Action</text></g><!--MD5=[2237694602f880bb40a7a77d579b761d]
class Rational Agent--><g id="elem_Rational Agent"><rect codeLine="25" fill="#F1F1F1" height="48" id="Rational Agent" rx="2.5" ry="2.5" style="stroke:#181818;stroke-width:0.5;" width="139" x="365.5" y="331"/><ellipse cx="380.5" cy="347" fill="#ADD1B2" rx="11" ry="11" style="stroke:#181818;stroke-width:1.0;"/><path d="M382.8438,342.6719 C381.9063,342.2344 381.3125,342.0938 380.4375,342.0938 C377.8125,342.0938 375.8125,344.1719 375.8125,346.8906 L375.8125,348.0156 C375.8125,350.5938 377.9219,352.4844 380.8125,352.4844 C382.0313,352.4844 383.1875,352.1875 383.9375,351.6406 C384.5156,351.2344 384.8438,350.7813 384.8438,350.3906 C384.8438,349.9375 384.4531,349.5469 383.9844,349.5469 C383.7656,349.5469 383.5625,349.625 383.375,349.8125 C382.9219,350.2969 382.9219,350.2969 382.7344,350.3906 C382.3125,350.6563 381.625,350.7813 380.8594,350.7813 C378.8125,350.7813 377.5156,349.6875 377.5156,347.9844 L377.5156,346.8906 C377.5156,345.1094 378.7656,343.7969 380.5,343.7969 C381.0781,343.7969 381.6875,343.9531 382.1563,344.2031 C382.6406,344.4844 382.8125,344.7031 382.9063,345.1094 C382.9688,345.5156 383,345.6406 383.1406,345.7656 C383.2813,345.9063 383.5156,346.0156 383.7344,346.0156 C384,346.0156 384.2656,345.875 384.4375,345.6563 C384.5469,345.5 384.5781,345.3125 384.5781,344.8906 L384.5781,343.4688 C384.5781,343.0313 384.5625,342.9063 384.4688,342.75 C384.3125,342.4844 384.0313,342.3438 383.7344,342.3438 C383.4375,342.3438 383.2344,342.4375 383.0156,342.75 L382.8438,342.6719 Z " fill="#000000"/><text fill="#000000" font-family="sans-serif" font-size="14" lengthAdjust="spacing" textLength="107" x="394.5" y="351.8467">Rational Agent</text><line style="stroke:#181818;stroke-width:0.5;" x1="366.5" x2="503.5" y1="363" y2="363"/><line style="stroke:#181818;stroke-width:0.5;" x1="366.5" x2="503.5" y1="371" y2="371"/></g><path d="M376.5,6 L376.5,31.1328 A0,0 0 0 0 376.5,31.1328 L619.5,31.1328 A0,0 0 0 0 619.5,31.1328 L619.5,24 L766.5,154.1328 L619.5,16 L619.5,16 L609.5,6 L376.5,6 A0,0 0 0 0 376.5,6 " fill="#FEFFDD" style="stroke:#181818;stroke-width:0.5;"/><path d="M609.5,6 L609.5,16 L619.5,16 L609.5,6 " fill="#FEFFDD" style="stroke:#181818;stroke-width:0.5;"/><text fill="#000000" font-family="sans-serif" font-size="13" lengthAdjust="spacing" textLength="222" x="382.5" y="23.0669">What is the environment like now?</text><path d="M376.5,41.1328 L376.5,187.3281 A0,0 0 0 0 376.5,187.3281 L727.5,187.3281 A0,0 0 0 0 727.5,187.3281 L727.5,118.2305 L766.5,170.4297 L727.5,110.2305 L727.5,51.1328 L717.5,41.1328 L376.5,41.1328 A0,0 0 0 0 376.5,41.1328 " fill="#FEFFDD" style="stroke:#181818;stroke-width:0.5;"/><path d="M717.5,41.1328 L717.5,51.1328 L727.5,51.1328 L717.5,41.1328 " fill="#FEFFDD" style="stroke:#181818;stroke-width:0.5;"/><text fill="#000000" font-family="sans-serif" font-size="13" lengthAdjust="spacing" textLength="200" x="382.5" y="58.1997">What action I should take now?</text><text fill="#000000" font-family="sans-serif" font-size="13" lengthAdjust="spacing" textLength="213" x="382.5" y="73.3325">It's called the agent program too.</text><text fill="#000000" font-family="sans-serif" font-size="13" lengthAdjust="spacing" textLength="280" x="382.5" y="88.4653">Building a small program is a key challenge.</text><text fill="#000000" font-family="sans-serif" font-size="13" lengthAdjust="spacing" textLength="230" x="382.5" y="103.5981">No brute force such as a vast table!</text><text fill="#000000" font-family="sans-serif" font-size="13" lengthAdjust="spacing" textLength="330" x="382.5" y="118.731">But remember, sometimes, memory = intelligence.</text><text fill="#000000" font-family="sans-serif" font-size="13" lengthAdjust="spacing" textLength="272" x="382.5" y="133.8638">In fact, if you know all the possible results,</text><text fill="#000000" font-family="sans-serif" font-size="13" lengthAdjust="spacing" textLength="149" x="382.5" y="148.9966">it's called Omniscience.</text><text fill="#000000" font-family="sans-serif" font-size="13" lengthAdjust="spacing" textLength="182" x="382.5" y="164.1294">Memory is called safe steps.</text><text fill="#000000" font-family="sans-serif" font-size="13" lengthAdjust="spacing" textLength="297" x="382.5" y="179.2622">Decreasing memory increases heuristic steps.</text><g id="elem_GMN1844236"><path d="M539.5,342.5 L539.5,351 L504.75,355 L539.5,359 L539.5,367.6328 A0,0 0 0 0 539.5,367.6328 L714.5,367.6328 A0,0 0 0 0 714.5,367.6328 L714.5,352.5 L704.5,342.5 L539.5,342.5 A0,0 0 0 0 539.5,342.5 " fill="#FEFFDD" style="stroke:#181818;stroke-width:0.5;"/><path d="M704.5,342.5 L704.5,352.5 L714.5,352.5 L704.5,342.5 " fill="#FEFFDD" style="stroke:#181818;stroke-width:0.5;"/><text fill="#000000" font-family="sans-serif" font-size="13" lengthAdjust="spacing" textLength="154" x="545.5" y="359.5669">Learning and Autonomy</text></g><!--MD5=[2306ff74c61e06d51c36cfec065a428e]
class Simple reflex agent--><g id="elem_Simple reflex agent"><rect fill="#F1F1F1" height="48" id="Simple reflex agent" rx="2.5" ry="2.5" style="stroke:#181818;stroke-width:0.5;" width="174" x="7" y="497"/><ellipse cx="22" cy="513" fill="#ADD1B2" rx="11" ry="11" style="stroke:#181818;stroke-width:1.0;"/><path d="M24.3438,508.6719 C23.4063,508.2344 22.8125,508.0938 21.9375,508.0938 C19.3125,508.0938 17.3125,510.1719 17.3125,512.8906 L17.3125,514.0156 C17.3125,516.5938 19.4219,518.4844 22.3125,518.4844 C23.5313,518.4844 24.6875,518.1875 25.4375,517.6406 C26.0156,517.2344 26.3438,516.7813 26.3438,516.3906 C26.3438,515.9375 25.9531,515.5469 25.4844,515.5469 C25.2656,515.5469 25.0625,515.625 24.875,515.8125 C24.4219,516.2969 24.4219,516.2969 24.2344,516.3906 C23.8125,516.6563 23.125,516.7813 22.3594,516.7813 C20.3125,516.7813 19.0156,515.6875 19.0156,513.9844 L19.0156,512.8906 C19.0156,511.1094 20.2656,509.7969 22,509.7969 C22.5781,509.7969 23.1875,509.9531 23.6563,510.2031 C24.1406,510.4844 24.3125,510.7031 24.4063,511.1094 C24.4688,511.5156 24.5,511.6406 24.6406,511.7656 C24.7813,511.9063 25.0156,512.0156 25.2344,512.0156 C25.5,512.0156 25.7656,511.875 25.9375,511.6563 C26.0469,511.5 26.0781,511.3125 26.0781,510.8906 L26.0781,509.4688 C26.0781,509.0313 26.0625,508.9063 25.9688,508.75 C25.8125,508.4844 25.5313,508.3438 25.2344,508.3438 C24.9375,508.3438 24.7344,508.4375 24.5156,508.75 L24.3438,508.6719 Z " fill="#000000"/><text fill="#000000" font-family="sans-serif" font-size="14" lengthAdjust="spacing" textLength="142" x="36" y="517.8467">Simple reflex agent</text><line style="stroke:#181818;stroke-width:0.5;" x1="8" x2="180" y1="529" y2="529"/><line style="stroke:#181818;stroke-width:0.5;" x1="8" x2="180" y1="537" y2="537"/></g><!--MD5=[3753c128094751267e92a3ceaa30c4df]
class Model-based reflex agent--><g id="elem_Model-based reflex agent"><rect fill="#F1F1F1" height="48" id="Model-based reflex agent" rx="2.5" ry="2.5" style="stroke:#181818;stroke-width:0.5;" width="216" x="216" y="497"/><ellipse cx="231" cy="513" fill="#ADD1B2" rx="11" ry="11" style="stroke:#181818;stroke-width:1.0;"/><path d="M233.3438,508.6719 C232.4063,508.2344 231.8125,508.0938 230.9375,508.0938 C228.3125,508.0938 226.3125,510.1719 226.3125,512.8906 L226.3125,514.0156 C226.3125,516.5938 228.4219,518.4844 231.3125,518.4844 C232.5313,518.4844 233.6875,518.1875 234.4375,517.6406 C235.0156,517.2344 235.3438,516.7813 235.3438,516.3906 C235.3438,515.9375 234.9531,515.5469 234.4844,515.5469 C234.2656,515.5469 234.0625,515.625 233.875,515.8125 C233.4219,516.2969 233.4219,516.2969 233.2344,516.3906 C232.8125,516.6563 232.125,516.7813 231.3594,516.7813 C229.3125,516.7813 228.0156,515.6875 228.0156,513.9844 L228.0156,512.8906 C228.0156,511.1094 229.2656,509.7969 231,509.7969 C231.5781,509.7969 232.1875,509.9531 232.6563,510.2031 C233.1406,510.4844 233.3125,510.7031 233.4063,511.1094 C233.4688,511.5156 233.5,511.6406 233.6406,511.7656 C233.7813,511.9063 234.0156,512.0156 234.2344,512.0156 C234.5,512.0156 234.7656,511.875 234.9375,511.6563 C235.0469,511.5 235.0781,511.3125 235.0781,510.8906 L235.0781,509.4688 C235.0781,509.0313 235.0625,508.9063 234.9688,508.75 C234.8125,508.4844 234.5313,508.3438 234.2344,508.3438 C233.9375,508.3438 233.7344,508.4375 233.5156,508.75 L233.3438,508.6719 Z " fill="#000000"/><text fill="#000000" font-family="sans-serif" font-size="14" lengthAdjust="spacing" textLength="184" x="245" y="517.8467">Model-based reflex agent</text><line style="stroke:#181818;stroke-width:0.5;" x1="217" x2="431" y1="529" y2="529"/><line style="stroke:#181818;stroke-width:0.5;" x1="217" x2="431" y1="537" y2="537"/></g><!--MD5=[780eaa03f1035c0a10dacf409a0bce98]
class Goal-based agent--><g id="elem_Goal-based agent"><rect fill="#F1F1F1" height="48" id="Goal-based agent" rx="2.5" ry="2.5" style="stroke:#181818;stroke-width:0.5;" width="159" x="467.5" y="497"/><ellipse cx="482.5" cy="513" fill="#ADD1B2" rx="11" ry="11" style="stroke:#181818;stroke-width:1.0;"/><path d="M484.8438,508.6719 C483.9063,508.2344 483.3125,508.0938 482.4375,508.0938 C479.8125,508.0938 477.8125,510.1719 477.8125,512.8906 L477.8125,514.0156 C477.8125,516.5938 479.9219,518.4844 482.8125,518.4844 C484.0313,518.4844 485.1875,518.1875 485.9375,517.6406 C486.5156,517.2344 486.8438,516.7813 486.8438,516.3906 C486.8438,515.9375 486.4531,515.5469 485.9844,515.5469 C485.7656,515.5469 485.5625,515.625 485.375,515.8125 C484.9219,516.2969 484.9219,516.2969 484.7344,516.3906 C484.3125,516.6563 483.625,516.7813 482.8594,516.7813 C480.8125,516.7813 479.5156,515.6875 479.5156,513.9844 L479.5156,512.8906 C479.5156,511.1094 480.7656,509.7969 482.5,509.7969 C483.0781,509.7969 483.6875,509.9531 484.1563,510.2031 C484.6406,510.4844 484.8125,510.7031 484.9063,511.1094 C484.9688,511.5156 485,511.6406 485.1406,511.7656 C485.2813,511.9063 485.5156,512.0156 485.7344,512.0156 C486,512.0156 486.2656,511.875 486.4375,511.6563 C486.5469,511.5 486.5781,511.3125 486.5781,510.8906 L486.5781,509.4688 C486.5781,509.0313 486.5625,508.9063 486.4688,508.75 C486.3125,508.4844 486.0313,508.3438 485.7344,508.3438 C485.4375,508.3438 485.2344,508.4375 485.0156,508.75 L484.8438,508.6719 Z " fill="#000000"/><text fill="#000000" font-family="sans-serif" font-size="14" lengthAdjust="spacing" textLength="127" x="496.5" y="517.8467">Goal-based agent</text><line style="stroke:#181818;stroke-width:0.5;" x1="468.5" x2="625.5" y1="529" y2="529"/><line style="stroke:#181818;stroke-width:0.5;" x1="468.5" x2="625.5" y1="537" y2="537"/></g><!--MD5=[c5418ec6d946ad6a8c878edbdc2d5bd6]
class Utility-based agent--><g id="elem_Utility-based agent"><rect fill="#F1F1F1" height="48" id="Utility-based agent" rx="2.5" ry="2.5" style="stroke:#181818;stroke-width:0.5;" width="170" x="662" y="497"/><ellipse cx="677" cy="513" fill="#ADD1B2" rx="11" ry="11" style="stroke:#181818;stroke-width:1.0;"/><path d="M679.3438,508.6719 C678.4063,508.2344 677.8125,508.0938 676.9375,508.0938 C674.3125,508.0938 672.3125,510.1719 672.3125,512.8906 L672.3125,514.0156 C672.3125,516.5938 674.4219,518.4844 677.3125,518.4844 C678.5313,518.4844 679.6875,518.1875 680.4375,517.6406 C681.0156,517.2344 681.3438,516.7813 681.3438,516.3906 C681.3438,515.9375 680.9531,515.5469 680.4844,515.5469 C680.2656,515.5469 680.0625,515.625 679.875,515.8125 C679.4219,516.2969 679.4219,516.2969 679.2344,516.3906 C678.8125,516.6563 678.125,516.7813 677.3594,516.7813 C675.3125,516.7813 674.0156,515.6875 674.0156,513.9844 L674.0156,512.8906 C674.0156,511.1094 675.2656,509.7969 677,509.7969 C677.5781,509.7969 678.1875,509.9531 678.6563,510.2031 C679.1406,510.4844 679.3125,510.7031 679.4063,511.1094 C679.4688,511.5156 679.5,511.6406 679.6406,511.7656 C679.7813,511.9063 680.0156,512.0156 680.2344,512.0156 C680.5,512.0156 680.7656,511.875 680.9375,511.6563 C681.0469,511.5 681.0781,511.3125 681.0781,510.8906 L681.0781,509.4688 C681.0781,509.0313 681.0625,508.9063 680.9688,508.75 C680.8125,508.4844 680.5313,508.3438 680.2344,508.3438 C679.9375,508.3438 679.7344,508.4375 679.5156,508.75 L679.3438,508.6719 Z " fill="#000000"/><text fill="#000000" font-family="sans-serif" font-size="14" lengthAdjust="spacing" textLength="138" x="691" y="517.8467">Utility-based agent</text><line style="stroke:#181818;stroke-width:0.5;" x1="663" x2="831" y1="529" y2="529"/><line style="stroke:#181818;stroke-width:0.5;" x1="663" x2="831" y1="537" y2="537"/></g><!--MD5=[5d0a77e8f66918aa15fe0099dd6d4ba9]
class Environment--><g id="elem_Environment"><rect codeLine="33" fill="#F1F1F1" height="162.0781" id="Environment" rx="2.5" ry="2.5" style="stroke:#181818;stroke-width:0.5;" width="455" x="749.5" y="274"/><ellipse cx="926.25" cy="290" fill="#ADD1B2" rx="11" ry="11" style="stroke:#181818;stroke-width:1.0;"/><path d="M928.5938,285.6719 C927.6563,285.2344 927.0625,285.0938 926.1875,285.0938 C923.5625,285.0938 921.5625,287.1719 921.5625,289.8906 L921.5625,291.0156 C921.5625,293.5938 923.6719,295.4844 926.5625,295.4844 C927.7813,295.4844 928.9375,295.1875 929.6875,294.6406 C930.2656,294.2344 930.5938,293.7813 930.5938,293.3906 C930.5938,292.9375 930.2031,292.5469 929.7344,292.5469 C929.5156,292.5469 929.3125,292.625 929.125,292.8125 C928.6719,293.2969 928.6719,293.2969 928.4844,293.3906 C928.0625,293.6563 927.375,293.7813 926.6094,293.7813 C924.5625,293.7813 923.2656,292.6875 923.2656,290.9844 L923.2656,289.8906 C923.2656,288.1094 924.5156,286.7969 926.25,286.7969 C926.8281,286.7969 927.4375,286.9531 927.9063,287.2031 C928.3906,287.4844 928.5625,287.7031 928.6563,288.1094 C928.7188,288.5156 928.75,288.6406 928.8906,288.7656 C929.0313,288.9063 929.2656,289.0156 929.4844,289.0156 C929.75,289.0156 930.0156,288.875 930.1875,288.6563 C930.2969,288.5 930.3281,288.3125 930.3281,287.8906 L930.3281,286.4688 C930.3281,286.0313 930.3125,285.9063 930.2188,285.75 C930.0625,285.4844 929.7813,285.3438 929.4844,285.3438 C929.1875,285.3438 928.9844,285.4375 928.7656,285.75 L928.5938,285.6719 Z " fill="#000000"/><text fill="#000000" font-family="sans-serif" font-size="14" lengthAdjust="spacing" textLength="93" x="946.75" y="294.8467">Environment</text><line style="stroke:#181818;stroke-width:0.5;" x1="750.5" x2="1203.5" y1="306" y2="306"/><text fill="#000000" font-family="sans-serif" font-size="14" lengthAdjust="spacing" textLength="208" x="755.5" y="322.9951">observable: 'Fully' | 'Partially'</text><text fill="#000000" font-family="sans-serif" font-size="14" lengthAdjust="spacing" textLength="268" x="755.5" y="339.292">agent: agents: Agent[] // Single, Multi</text><text fill="#000000" font-family="sans-serif" font-size="14" lengthAdjust="spacing" textLength="443" x="755.5" y="355.5889">deterministic: 'deterministic'| 'nondeterministic'| 'stochastic'</text><text fill="#000000" font-family="sans-serif" font-size="14" lengthAdjust="spacing" textLength="246" x="755.5" y="371.8857">sequential: 'episodic' | 'sequential'</text><text fill="#000000" font-family="sans-serif" font-size="14" lengthAdjust="spacing" textLength="301" x="755.5" y="388.1826">static: 'static' | 'dynamic' | 'semi-dynamic'</text><text fill="#000000" font-family="sans-serif" font-size="14" lengthAdjust="spacing" textLength="234" x="755.5" y="404.4795">discrete: 'discrete' | 'continuous'</text><text fill="#000000" font-family="sans-serif" font-size="14" lengthAdjust="spacing" textLength="198" x="755.5" y="420.7764">known: 'Known' | 'Unknown'</text><line style="stroke:#181818;stroke-width:0.5;" x1="750.5" x2="1203.5" y1="428.0781" y2="428.0781"/></g><!--MD5=[c72bb556a798552bde77c230113a825e]
class Actuators--><g id="elem_Actuators"><rect codeLine="42" fill="#F1F1F1" height="48" id="Actuators" rx="2.5" ry="2.5" style="stroke:#181818;stroke-width:0.5;" width="102" x="1240" y="331"/><ellipse cx="1255" cy="347" fill="#ADD1B2" rx="11" ry="11" style="stroke:#181818;stroke-width:1.0;"/><path d="M1257.3438,342.6719 C1256.4063,342.2344 1255.8125,342.0938 1254.9375,342.0938 C1252.3125,342.0938 1250.3125,344.1719 1250.3125,346.8906 L1250.3125,348.0156 C1250.3125,350.5938 1252.4219,352.4844 1255.3125,352.4844 C1256.5313,352.4844 1257.6875,352.1875 1258.4375,351.6406 C1259.0156,351.2344 1259.3438,350.7813 1259.3438,350.3906 C1259.3438,349.9375 1258.9531,349.5469 1258.4844,349.5469 C1258.2656,349.5469 1258.0625,349.625 1257.875,349.8125 C1257.4219,350.2969 1257.4219,350.2969 1257.2344,350.3906 C1256.8125,350.6563 1256.125,350.7813 1255.3594,350.7813 C1253.3125,350.7813 1252.0156,349.6875 1252.0156,347.9844 L1252.0156,346.8906 C1252.0156,345.1094 1253.2656,343.7969 1255,343.7969 C1255.5781,343.7969 1256.1875,343.9531 1256.6563,344.2031 C1257.1406,344.4844 1257.3125,344.7031 1257.4063,345.1094 C1257.4688,345.5156 1257.5,345.6406 1257.6406,345.7656 C1257.7813,345.9063 1258.0156,346.0156 1258.2344,346.0156 C1258.5,346.0156 1258.7656,345.875 1258.9375,345.6563 C1259.0469,345.5 1259.0781,345.3125 1259.0781,344.8906 L1259.0781,343.4688 C1259.0781,343.0313 1259.0625,342.9063 1258.9688,342.75 C1258.8125,342.4844 1258.5313,342.3438 1258.2344,342.3438 C1257.9375,342.3438 1257.7344,342.4375 1257.5156,342.75 L1257.3438,342.6719 Z " fill="#000000"/><text fill="#000000" font-family="sans-serif" font-size="14" lengthAdjust="spacing" textLength="70" x="1269" y="351.8467">Actuators</text><line style="stroke:#181818;stroke-width:0.5;" x1="1241" x2="1341" y1="363" y2="363"/><line style="stroke:#181818;stroke-width:0.5;" x1="1241" x2="1341" y1="371" y2="371"/></g><!--MD5=[388e500196f349725bdc7ad8a56d4eb5]
reverse link Agent to Rational Agent--><g id="link_Agent_Rational Agent"><path codeLine="1" d="M763.982,189.788 C757.592,192.239 751.253,194.649 745,197 C646.855,233.902 612.042,220.272 522,274 C496.274,289.351 471.594,313.213 455.135,330.885 " fill="none" id="Agent-backto-Rational Agent" style="stroke:#181818;stroke-width:1.0;"/><polygon fill="none" points="761.502,183.241,782.681,182.552,766.555,196.298,761.502,183.241" style="stroke:#181818;stroke-width:1.0;"/></g><!--MD5=[e2fb950fbe2c99dbf5f985d7a26f8d2c]
reverse link Rational Agent to Simple reflex agent--><g id="link_Rational Agent_Simple reflex agent"><path codeLine="27" d="M368.637,387.917 C302.028,419.951 201.052,468.5147 141.889,496.9684 " fill="none" id="Rational Agent-backto-Simple reflex agent" style="stroke:#181818;stroke-width:1.0;"/><polygon fill="none" points="365.808,381.509,386.866,379.149,371.876,394.126,365.808,381.509" style="stroke:#181818;stroke-width:1.0;"/></g><!--MD5=[87a6e331dbad43f93a88a3ab87e78b34]
reverse link Rational Agent to Model-based reflex agent--><g id="link_Rational Agent_Model-based reflex agent"><path codeLine="28" d="M408.046,395.824 C386.593,427.52 357.321,470.7691 339.588,496.9684 " fill="none" id="Rational Agent-backto-Model-based reflex agent" style="stroke:#181818;stroke-width:1.0;"/><polygon fill="none" points="402.325,391.789,419.332,379.149,413.919,399.636,402.325,391.789" style="stroke:#181818;stroke-width:1.0;"/></g><!--MD5=[a62cbcf24e0582ea9b0e8cd7cf8fe28e]
reverse link Rational Agent to Goal-based agent--><g id="link_Rational Agent_Goal-based agent"><path codeLine="29" d="M462.197,395.824 C483.843,427.52 513.379,470.7691 531.271,496.9684 " fill="none" id="Rational Agent-backto-Goal-based agent" style="stroke:#181818;stroke-width:1.0;"/><polygon fill="none" points="456.308,399.613,450.809,379.149,467.869,391.718,456.308,399.613" style="stroke:#181818;stroke-width:1.0;"/></g><!--MD5=[2aaa2e2367ce3062abd139eae774890c]
reverse link Rational Agent to Utility-based agent--><g id="link_Rational Agent_Utility-based agent"><path codeLine="30" d="M469.833,393.833 C484.808,408.474 503.179,424.45 522,436 C565.356,462.6063 618.489,482.9308 662.233,496.9184 " fill="none" id="Rational Agent-backto-Utility-based agent" style="stroke:#181818;stroke-width:1.0;"/><polygon fill="none" points="464.588,398.482,455.582,379.301,474.584,388.679,464.588,398.482" style="stroke:#181818;stroke-width:1.0;"/></g><!--MD5=[8b86e6371b0df2b48a8405d79757eed2]
link Agent to Environment--><g id="link_Agent_Environment"><path codeLine="31" d="M937.686,182.525 C931.945,202.393 929.108,223.79 933,244 C934.578,252.196 936.762,260.557 939.319,268.825 " fill="none" id="Agent-to-Environment" style="stroke:#181818;stroke-width:1.0;"/><polygon fill="#181818" points="940.957,273.959,942.0314,264.1689,939.4369,269.1957,934.4101,266.6012,940.957,273.959" style="stroke:#181818;stroke-width:1.0;"/><text fill="#000000" font-family="sans-serif" font-size="13" lengthAdjust="spacing" textLength="39" x="934" y="240.0669">action</text></g><!--MD5=[de09623705d025aee0f589a7df305fbe]
link Environment to Agent--><g id="link_Environment_Agent"><path codeLine="32" d="M977.814,273.797 C977.891,263.764 977.956,253.644 978,244 C978.083,225.811 978.034,206.308 977.923,187.771 " fill="none" id="Environment-to-Agent" style="stroke:#181818;stroke-width:1.0;"/><polygon fill="#181818" points="977.89,182.57,973.9466,191.595,977.9214,187.5699,981.9465,191.5447,977.89,182.57" style="stroke:#181818;stroke-width:1.0;"/><text fill="#000000" font-family="sans-serif" font-size="13" lengthAdjust="spacing" textLength="56" x="979" y="240.0669">percepts</text></g><!--MD5=[3492c305bc399ad127563eb870e6f05e]
reverse link Agent to Actuators--><g id="link_Agent_Actuators"><path codeLine="43" d="M1114.66,189.933 C1150.96,215.339 1189.13,244.295 1222,274 C1241.32,291.463 1260.44,314.168 1273.63,330.925 " fill="none" id="Agent-backto-Actuators" style="stroke:#181818;stroke-width:1.0;"/><polygon fill="none" points="1103.98,182.515,1106.6276,189.2225,1113.8375,189.3583,1111.1898,182.6508,1103.98,182.515" style="stroke:#181818;stroke-width:1.0;"/></g><!--MD5=[1ec761b818e57680ff1f390055014ec2]
@startuml
Agent <|- - "Rational Agent"
class Agent {
   actuators
   sensors
   type
   process: 'competitive' | 'cooperative'
   performance measure
   percepts(environment)
   choose the best action by performance measure(): Action
}
note left of Agent::percepts
   What is the environment like now?
end note
note left of Agent::"choose the best action by performance measure"
   What action I should take now?
   It's called the agent program too.
   Building a small program is a key challenge. 
   No brute force such as a vast table!
   But remember, sometimes, memory = intelligence.
   In fact, if you know all the possible results, 
   it's called Omniscience.
   Memory is called safe steps.
   Decreasing memory increases heuristic steps.
end note
class "Rational Agent" {}
note right: Learning and Autonomy
"Rational Agent" <|- - "Simple reflex agent"
"Rational Agent" <|- - "Model-based reflex agent"
"Rational Agent" <|- - "Goal-based agent"
"Rational Agent" <|- - "Utility-based agent"
Agent - -> Environment: action
Environment - -> Agent: percepts
class Environment {
   observable: 'Fully' | 'Partially'
   agent: agents: Agent[] // Single, Multi
   deterministic: 'deterministic'| 'nondeterministic'| 'stochastic'
   sequential: 'episodic' | 'sequential'
   static: 'static' | 'dynamic' | 'semi-dynamic'
   discrete: 'discrete' | 'continuous'
   known: 'Known' | 'Unknown'
}
class Actuators
Agent o- - Actuators
@enduml

PlantUML version 1.2022.8beta2(Unknown compile time)
(GPL source distribution)
Java Runtime: Java(TM) SE Runtime Environment
JVM: Java HotSpot(TM) 64-Bit Server VM
Default Encoding: UTF-8
Language: en
Country: US
--></g></svg>