<?xml version="1.0" encoding="UTF-8" standalone="no"?>
<svg xmlns="http://www.w3.org/2000/svg" xmlns:xlink="http://www.w3.org/1999/xlink" contentStyleType="text/css" height="714px" preserveAspectRatio="none" style="width:5436px;height:714px;background:#FFFFFF;" version="1.1" viewBox="0 0 5436 714" width="5436px" zoomAndPan="magnify"><defs/><g><!--MD5=[bf6b89df387bd8fdcba8893deb1a1a2c]
cluster Análisis. FronEnd.--><g id="cluster_Análisis. FronEnd."><polygon fill="none" points="615.5,16,625.5,6,3791.5,6,3791.5,280.5,3781.5,290.5,615.5,290.5,615.5,16" style="stroke:#181818;stroke-width:1.0;"/><line style="stroke:#181818;stroke-width:1.0;" x1="3781.5" x2="3791.5" y1="16" y2="6"/><line style="stroke:#181818;stroke-width:1.0;" x1="615.5" x2="3781.5" y1="16" y2="16"/><line style="stroke:#181818;stroke-width:1.0;" x1="3781.5" x2="3781.5" y1="16" y2="290.5"/><text fill="#000000" font-family="sans-serif" font-size="14" font-weight="bold" lengthAdjust="spacing" textLength="144" x="2127.5" y="31.9951">Análisis. FronEnd.</text></g><!--MD5=[3dae9dcaa8e7bd08dd6b76d9fe6d6edf]
cluster Síntesis. BackEnd.--><g id="cluster_Síntesis. BackEnd."><polygon fill="none" points="3964.5,164,3974.5,154,5189.5,154,5189.5,559.5,5179.5,569.5,3964.5,569.5,3964.5,164" style="stroke:#181818;stroke-width:1.0;"/><line style="stroke:#181818;stroke-width:1.0;" x1="5179.5" x2="5189.5" y1="164" y2="154"/><line style="stroke:#181818;stroke-width:1.0;" x1="3964.5" x2="5179.5" y1="164" y2="164"/><line style="stroke:#181818;stroke-width:1.0;" x1="5179.5" x2="5179.5" y1="164" y2="569.5"/><text fill="#000000" font-family="sans-serif" font-size="14" font-weight="bold" lengthAdjust="spacing" textLength="148" x="4499" y="179.9951">Síntesis. BackEnd.</text></g><!--MD5=[715c2fbd5c11f28ee7413be29b5df494]
class Analizador léxico--><g id="elem_Analizador léxico"><rect codeLine="34" fill="#F1F1F1" height="96.8906" id="Analizador léxico" rx="2.5" ry="2.5" style="stroke:#181818;stroke-width:0.5;" width="449" x="632" y="177.5"/><ellipse cx="791.75" cy="193.5" fill="#ADD1B2" rx="11" ry="11" style="stroke:#181818;stroke-width:1.0;"/><path d="M794.0938,189.1719 C793.1563,188.7344 792.5625,188.5938 791.6875,188.5938 C789.0625,188.5938 787.0625,190.6719 787.0625,193.3906 L787.0625,194.5156 C787.0625,197.0938 789.1719,198.9844 792.0625,198.9844 C793.2813,198.9844 794.4375,198.6875 795.1875,198.1406 C795.7656,197.7344 796.0938,197.2813 796.0938,196.8906 C796.0938,196.4375 795.7031,196.0469 795.2344,196.0469 C795.0156,196.0469 794.8125,196.125 794.625,196.3125 C794.1719,196.7969 794.1719,196.7969 793.9844,196.8906 C793.5625,197.1563 792.875,197.2813 792.1094,197.2813 C790.0625,197.2813 788.7656,196.1875 788.7656,194.4844 L788.7656,193.3906 C788.7656,191.6094 790.0156,190.2969 791.75,190.2969 C792.3281,190.2969 792.9375,190.4531 793.4063,190.7031 C793.8906,190.9844 794.0625,191.2031 794.1563,191.6094 C794.2188,192.0156 794.25,192.1406 794.3906,192.2656 C794.5313,192.4063 794.7656,192.5156 794.9844,192.5156 C795.25,192.5156 795.5156,192.375 795.6875,192.1563 C795.7969,192 795.8281,191.8125 795.8281,191.3906 L795.8281,189.9688 C795.8281,189.5313 795.8125,189.4063 795.7188,189.25 C795.5625,188.9844 795.2813,188.8438 794.9844,188.8438 C794.6875,188.8438 794.4844,188.9375 794.2656,189.25 L794.0938,189.1719 Z " fill="#000000"/><text fill="#000000" font-family="sans-serif" font-size="14" lengthAdjust="spacing" textLength="121" x="812.25" y="198.3467">Analizador léxico</text><line style="stroke:#181818;stroke-width:0.5;" x1="633" x2="1080" y1="209.5" y2="209.5"/><text fill="#000000" font-family="sans-serif" font-size="14" lengthAdjust="spacing" textLength="323" x="638" y="226.4951">reglas lexicas: {expresion regular: simbolo}[]</text><line style="stroke:#181818;stroke-width:0.5;" x1="633" x2="1080" y1="233.7969" y2="233.7969"/><text fill="#000000" font-family="sans-serif" font-size="14" lengthAdjust="spacing" textLength="437" x="638" y="250.792">escanea con expresiones regulares(codigo fuente): Simbolo[]</text><text fill="#000000" font-family="sans-serif" font-size="14" lengthAdjust="spacing" textLength="268" x="638" y="267.0889">guarda en tabla de simbolos(simbolo)</text></g><g id="elem_GMN185819"><path d="M684.5,46 L684.5,71.1328 A0,0 0 0 0 684.5,71.1328 L852.5,71.1328 L856.5,177.21 L860.5,71.1328 L1028.5,71.1328 A0,0 0 0 0 1028.5,71.1328 L1028.5,56 L1018.5,46 L684.5,46 A0,0 0 0 0 684.5,46 " fill="#FEFFDD" style="stroke:#181818;stroke-width:0.5;"/><path d="M1018.5,46 L1018.5,56 L1028.5,56 L1018.5,46 " fill="#FEFFDD" style="stroke:#181818;stroke-width:0.5;"/><text fill="#000000" font-family="sans-serif" font-size="13" lengthAdjust="spacing" textLength="323" x="690.5" y="63.0669">Algunas veces llamado «Lexer», otras «Scanning»</text></g><!--MD5=[cd8d160948962ecb577e01bcf1ffe279]
class Analizador sintáctico--><g id="elem_Analizador sintáctico"><rect codeLine="45" fill="#F1F1F1" height="80.5938" id="Analizador sintáctico" rx="2.5" ry="2.5" style="stroke:#181818;stroke-width:0.5;" width="436" x="1331.5" y="185.5"/><ellipse cx="1470.25" cy="201.5" fill="#ADD1B2" rx="11" ry="11" style="stroke:#181818;stroke-width:1.0;"/><path d="M1472.5938,197.1719 C1471.6563,196.7344 1471.0625,196.5938 1470.1875,196.5938 C1467.5625,196.5938 1465.5625,198.6719 1465.5625,201.3906 L1465.5625,202.5156 C1465.5625,205.0938 1467.6719,206.9844 1470.5625,206.9844 C1471.7813,206.9844 1472.9375,206.6875 1473.6875,206.1406 C1474.2656,205.7344 1474.5938,205.2813 1474.5938,204.8906 C1474.5938,204.4375 1474.2031,204.0469 1473.7344,204.0469 C1473.5156,204.0469 1473.3125,204.125 1473.125,204.3125 C1472.6719,204.7969 1472.6719,204.7969 1472.4844,204.8906 C1472.0625,205.1563 1471.375,205.2813 1470.6094,205.2813 C1468.5625,205.2813 1467.2656,204.1875 1467.2656,202.4844 L1467.2656,201.3906 C1467.2656,199.6094 1468.5156,198.2969 1470.25,198.2969 C1470.8281,198.2969 1471.4375,198.4531 1471.9063,198.7031 C1472.3906,198.9844 1472.5625,199.2031 1472.6563,199.6094 C1472.7188,200.0156 1472.75,200.1406 1472.8906,200.2656 C1473.0313,200.4063 1473.2656,200.5156 1473.4844,200.5156 C1473.75,200.5156 1474.0156,200.375 1474.1875,200.1563 C1474.2969,200 1474.3281,199.8125 1474.3281,199.3906 L1474.3281,197.9688 C1474.3281,197.5313 1474.3125,197.4063 1474.2188,197.25 C1474.0625,196.9844 1473.7813,196.8438 1473.4844,196.8438 C1473.1875,196.8438 1472.9844,196.9375 1472.7656,197.25 L1472.5938,197.1719 Z " fill="#000000"/><text fill="#000000" font-family="sans-serif" font-size="14" lengthAdjust="spacing" textLength="150" x="1490.75" y="206.3467">Analizador sintáctico</text><line style="stroke:#181818;stroke-width:0.5;" x1="1332.5" x2="1766.5" y1="217.5" y2="217.5"/><text fill="#000000" font-family="sans-serif" font-size="14" lengthAdjust="spacing" textLength="149" x="1337.5" y="234.4951">reglas de produccion</text><line style="stroke:#181818;stroke-width:0.5;" x1="1332.5" x2="1766.5" y1="241.7969" y2="241.7969"/><text fill="#000000" font-family="sans-serif" font-size="14" lengthAdjust="spacing" textLength="424" x="1337.5" y="258.792">crea un árbol basado en reglas gramaticales(símbolos): AST</text></g><g id="elem_GMN185824"><path d="M1431.5,46 L1431.5,71.1328 A0,0 0 0 0 1431.5,71.1328 L1545.5,71.1328 L1549.5,185.195 L1553.5,71.1328 L1667.5,71.1328 A0,0 0 0 0 1667.5,71.1328 L1667.5,56 L1657.5,46 L1431.5,46 A0,0 0 0 0 1431.5,46 " fill="#FEFFDD" style="stroke:#181818;stroke-width:0.5;"/><path d="M1657.5,46 L1657.5,56 L1667.5,56 L1657.5,46 " fill="#FEFFDD" style="stroke:#181818;stroke-width:0.5;"/><text fill="#000000" font-family="sans-serif" font-size="13" lengthAdjust="spacing" textLength="215" x="1437.5" y="63.0669">Algunas veces llamado «parsing»</text></g><!--MD5=[de1d6e01057afc5d868c012fc8053c51]
class Analizador semántico--><g id="elem_Analizador semántico"><rect codeLine="49" fill="#F1F1F1" height="80.5938" id="Analizador semántico" rx="2.5" ry="2.5" style="stroke:#181818;stroke-width:0.5;" width="424" x="1940.5" y="185.5"/><ellipse cx="2071.25" cy="201.5" fill="#ADD1B2" rx="11" ry="11" style="stroke:#181818;stroke-width:1.0;"/><path d="M2073.5938,197.1719 C2072.6563,196.7344 2072.0625,196.5938 2071.1875,196.5938 C2068.5625,196.5938 2066.5625,198.6719 2066.5625,201.3906 L2066.5625,202.5156 C2066.5625,205.0938 2068.6719,206.9844 2071.5625,206.9844 C2072.7813,206.9844 2073.9375,206.6875 2074.6875,206.1406 C2075.2656,205.7344 2075.5938,205.2813 2075.5938,204.8906 C2075.5938,204.4375 2075.2031,204.0469 2074.7344,204.0469 C2074.5156,204.0469 2074.3125,204.125 2074.125,204.3125 C2073.6719,204.7969 2073.6719,204.7969 2073.4844,204.8906 C2073.0625,205.1563 2072.375,205.2813 2071.6094,205.2813 C2069.5625,205.2813 2068.2656,204.1875 2068.2656,202.4844 L2068.2656,201.3906 C2068.2656,199.6094 2069.5156,198.2969 2071.25,198.2969 C2071.8281,198.2969 2072.4375,198.4531 2072.9063,198.7031 C2073.3906,198.9844 2073.5625,199.2031 2073.6563,199.6094 C2073.7188,200.0156 2073.75,200.1406 2073.8906,200.2656 C2074.0313,200.4063 2074.2656,200.5156 2074.4844,200.5156 C2074.75,200.5156 2075.0156,200.375 2075.1875,200.1563 C2075.2969,200 2075.3281,199.8125 2075.3281,199.3906 L2075.3281,197.9688 C2075.3281,197.5313 2075.3125,197.4063 2075.2188,197.25 C2075.0625,196.9844 2074.7813,196.8438 2074.4844,196.8438 C2074.1875,196.8438 2073.9844,196.9375 2073.7656,197.25 L2073.5938,197.1719 Z " fill="#000000"/><text fill="#000000" font-family="sans-serif" font-size="14" lengthAdjust="spacing" textLength="154" x="2091.75" y="206.3467">Analizador semántico</text><line style="stroke:#181818;stroke-width:0.5;" x1="1941.5" x2="2363.5" y1="217.5" y2="217.5"/><text fill="#000000" font-family="sans-serif" font-size="14" lengthAdjust="spacing" textLength="161" x="1946.5" y="234.4951">definición del lenguaje</text><line style="stroke:#181818;stroke-width:0.5;" x1="1941.5" x2="2363.5" y1="241.7969" y2="241.7969"/><text fill="#000000" font-family="sans-serif" font-size="14" lengthAdjust="spacing" textLength="412" x="1946.5" y="258.792">comprueba consistencia segun la definición del lenguaje()</text></g><!--MD5=[7eeb059adfde39dcff4887e9411ca7ac]
class Generador de código intermedio--><g id="elem_Generador de código intermedio"><rect codeLine="56" fill="#F1F1F1" height="80.5938" id="Generador de código intermedio" rx="2.5" ry="2.5" style="stroke:#181818;stroke-width:0.5;" width="459" x="2601" y="185.5"/><ellipse cx="2709.25" cy="201.5" fill="#ADD1B2" rx="11" ry="11" style="stroke:#181818;stroke-width:1.0;"/><path d="M2711.5938,197.1719 C2710.6563,196.7344 2710.0625,196.5938 2709.1875,196.5938 C2706.5625,196.5938 2704.5625,198.6719 2704.5625,201.3906 L2704.5625,202.5156 C2704.5625,205.0938 2706.6719,206.9844 2709.5625,206.9844 C2710.7813,206.9844 2711.9375,206.6875 2712.6875,206.1406 C2713.2656,205.7344 2713.5938,205.2813 2713.5938,204.8906 C2713.5938,204.4375 2713.2031,204.0469 2712.7344,204.0469 C2712.5156,204.0469 2712.3125,204.125 2712.125,204.3125 C2711.6719,204.7969 2711.6719,204.7969 2711.4844,204.8906 C2711.0625,205.1563 2710.375,205.2813 2709.6094,205.2813 C2707.5625,205.2813 2706.2656,204.1875 2706.2656,202.4844 L2706.2656,201.3906 C2706.2656,199.6094 2707.5156,198.2969 2709.25,198.2969 C2709.8281,198.2969 2710.4375,198.4531 2710.9063,198.7031 C2711.3906,198.9844 2711.5625,199.2031 2711.6563,199.6094 C2711.7188,200.0156 2711.75,200.1406 2711.8906,200.2656 C2712.0313,200.4063 2712.2656,200.5156 2712.4844,200.5156 C2712.75,200.5156 2713.0156,200.375 2713.1875,200.1563 C2713.2969,200 2713.3281,199.8125 2713.3281,199.3906 L2713.3281,197.9688 C2713.3281,197.5313 2713.3125,197.4063 2713.2188,197.25 C2713.0625,196.9844 2712.7813,196.8438 2712.4844,196.8438 C2712.1875,196.8438 2711.9844,196.9375 2711.7656,197.25 L2711.5938,197.1719 Z " fill="#000000"/><text fill="#000000" font-family="sans-serif" font-size="14" lengthAdjust="spacing" textLength="234" x="2729.75" y="206.3467">Generador de código intermedio</text><line style="stroke:#181818;stroke-width:0.5;" x1="2602" x2="3059" y1="217.5" y2="217.5"/><text fill="#000000" font-family="sans-serif" font-size="14" lengthAdjust="spacing" textLength="447" x="2607" y="234.4951">código independiente de máquina para facilitar la reutilización</text><line style="stroke:#181818;stroke-width:0.5;" x1="2602" x2="3059" y1="241.7969" y2="241.7969"/><text fill="#000000" font-family="sans-serif" font-size="14" lengthAdjust="spacing" textLength="354" x="2607" y="258.792">genera código intermedio(): IR three-adress code</text></g><!--MD5=[34a834c8d5bebd88ea1bb2cdc5206b23]
class Optimización independiente de la máquina--><g id="elem_Optimización independiente de la máquina"><rect codeLine="68" fill="#F1F1F1" height="64.2969" id="Optimización independiente de la máquina" rx="2.5" ry="2.5" style="stroke:#181818;stroke-width:0.5;" width="484" x="3291.5" y="194"/><ellipse cx="3375.25" cy="210" fill="#ADD1B2" rx="11" ry="11" style="stroke:#181818;stroke-width:1.0;"/><path d="M3377.5938,205.6719 C3376.6563,205.2344 3376.0625,205.0938 3375.1875,205.0938 C3372.5625,205.0938 3370.5625,207.1719 3370.5625,209.8906 L3370.5625,211.0156 C3370.5625,213.5938 3372.6719,215.4844 3375.5625,215.4844 C3376.7813,215.4844 3377.9375,215.1875 3378.6875,214.6406 C3379.2656,214.2344 3379.5938,213.7813 3379.5938,213.3906 C3379.5938,212.9375 3379.2031,212.5469 3378.7344,212.5469 C3378.5156,212.5469 3378.3125,212.625 3378.125,212.8125 C3377.6719,213.2969 3377.6719,213.2969 3377.4844,213.3906 C3377.0625,213.6563 3376.375,213.7813 3375.6094,213.7813 C3373.5625,213.7813 3372.2656,212.6875 3372.2656,210.9844 L3372.2656,209.8906 C3372.2656,208.1094 3373.5156,206.7969 3375.25,206.7969 C3375.8281,206.7969 3376.4375,206.9531 3376.9063,207.2031 C3377.3906,207.4844 3377.5625,207.7031 3377.6563,208.1094 C3377.7188,208.5156 3377.75,208.6406 3377.8906,208.7656 C3378.0313,208.9063 3378.2656,209.0156 3378.4844,209.0156 C3378.75,209.0156 3379.0156,208.875 3379.1875,208.6563 C3379.2969,208.5 3379.3281,208.3125 3379.3281,207.8906 L3379.3281,206.4688 C3379.3281,206.0313 3379.3125,205.9063 3379.2188,205.75 C3379.0625,205.4844 3378.7813,205.3438 3378.4844,205.3438 C3378.1875,205.3438 3377.9844,205.4375 3377.7656,205.75 L3377.5938,205.6719 Z " fill="#000000"/><text fill="#000000" font-family="sans-serif" font-size="14" lengthAdjust="spacing" textLength="308" x="3395.75" y="214.8467">Optimización independiente de la máquina</text><line style="stroke:#181818;stroke-width:0.5;" x1="3292.5" x2="3774.5" y1="226" y2="226"/><line style="stroke:#181818;stroke-width:0.5;" x1="3292.5" x2="3774.5" y1="234" y2="234"/><text fill="#000000" font-family="sans-serif" font-size="14" lengthAdjust="spacing" textLength="472" x="3297.5" y="250.9951">optimiza  para ser más rápido o eficiente en uso de energia(IR): IR</text></g><!--MD5=[7e4dac5b11ffd1b8d5bab00cda6c2047]
class Optmización de código dependiente de la máquina--><g id="elem_Optmización de código dependiente de la máquina"><rect codeLine="72" fill="#F1F1F1" height="64.2969" id="Optmización de código dependiente de la máquina" rx="2.5" ry="2.5" style="stroke:#181818;stroke-width:0.5;" width="425" x="3981" y="194"/><ellipse cx="4008.6" cy="210" fill="#ADD1B2" rx="11" ry="11" style="stroke:#181818;stroke-width:1.0;"/><path d="M4010.9438,205.6719 C4010.0063,205.2344 4009.4125,205.0938 4008.5375,205.0938 C4005.9125,205.0938 4003.9125,207.1719 4003.9125,209.8906 L4003.9125,211.0156 C4003.9125,213.5938 4006.0219,215.4844 4008.9125,215.4844 C4010.1313,215.4844 4011.2875,215.1875 4012.0375,214.6406 C4012.6156,214.2344 4012.9438,213.7813 4012.9438,213.3906 C4012.9438,212.9375 4012.5531,212.5469 4012.0844,212.5469 C4011.8656,212.5469 4011.6625,212.625 4011.475,212.8125 C4011.0219,213.2969 4011.0219,213.2969 4010.8344,213.3906 C4010.4125,213.6563 4009.725,213.7813 4008.9594,213.7813 C4006.9125,213.7813 4005.6156,212.6875 4005.6156,210.9844 L4005.6156,209.8906 C4005.6156,208.1094 4006.8656,206.7969 4008.6,206.7969 C4009.1781,206.7969 4009.7875,206.9531 4010.2563,207.2031 C4010.7406,207.4844 4010.9125,207.7031 4011.0063,208.1094 C4011.0688,208.5156 4011.1,208.6406 4011.2406,208.7656 C4011.3813,208.9063 4011.6156,209.0156 4011.8344,209.0156 C4012.1,209.0156 4012.3656,208.875 4012.5375,208.6563 C4012.6469,208.5 4012.6781,208.3125 4012.6781,207.8906 L4012.6781,206.4688 C4012.6781,206.0313 4012.6625,205.9063 4012.5688,205.75 C4012.4125,205.4844 4012.1313,205.3438 4011.8344,205.3438 C4011.5375,205.3438 4011.3344,205.4375 4011.1156,205.75 L4010.9438,205.6719 Z " fill="#000000"/><text fill="#000000" font-family="sans-serif" font-size="14" lengthAdjust="spacing" textLength="365" x="4025.4" y="214.8467">Optmización de código dependiente de la máquina</text><line style="stroke:#181818;stroke-width:0.5;" x1="3982" x2="4405" y1="226" y2="226"/><line style="stroke:#181818;stroke-width:0.5;" x1="3982" x2="4405" y1="234" y2="234"/><text fill="#000000" font-family="sans-serif" font-size="14" lengthAdjust="spacing" textLength="413" x="3987" y="250.9951">optimiza usando los mecanismos del lenguaje objetivo(IR)</text></g><!--MD5=[1145dbb839d597297f6de443c7eeb988]
class Generador de código--><g id="elem_Generador de código"><rect codeLine="75" fill="#F1F1F1" height="64.2969" id="Generador de código" rx="2.5" ry="2.5" style="stroke:#181818;stroke-width:0.5;" width="553" x="4620" y="194"/><ellipse cx="4817.25" cy="210" fill="#ADD1B2" rx="11" ry="11" style="stroke:#181818;stroke-width:1.0;"/><path d="M4819.5938,205.6719 C4818.6563,205.2344 4818.0625,205.0938 4817.1875,205.0938 C4814.5625,205.0938 4812.5625,207.1719 4812.5625,209.8906 L4812.5625,211.0156 C4812.5625,213.5938 4814.6719,215.4844 4817.5625,215.4844 C4818.7813,215.4844 4819.9375,215.1875 4820.6875,214.6406 C4821.2656,214.2344 4821.5938,213.7813 4821.5938,213.3906 C4821.5938,212.9375 4821.2031,212.5469 4820.7344,212.5469 C4820.5156,212.5469 4820.3125,212.625 4820.125,212.8125 C4819.6719,213.2969 4819.6719,213.2969 4819.4844,213.3906 C4819.0625,213.6563 4818.375,213.7813 4817.6094,213.7813 C4815.5625,213.7813 4814.2656,212.6875 4814.2656,210.9844 L4814.2656,209.8906 C4814.2656,208.1094 4815.5156,206.7969 4817.25,206.7969 C4817.8281,206.7969 4818.4375,206.9531 4818.9063,207.2031 C4819.3906,207.4844 4819.5625,207.7031 4819.6563,208.1094 C4819.7188,208.5156 4819.75,208.6406 4819.8906,208.7656 C4820.0313,208.9063 4820.2656,209.0156 4820.4844,209.0156 C4820.75,209.0156 4821.0156,208.875 4821.1875,208.6563 C4821.2969,208.5 4821.3281,208.3125 4821.3281,207.8906 L4821.3281,206.4688 C4821.3281,206.0313 4821.3125,205.9063 4821.2188,205.75 C4821.0625,205.4844 4820.7813,205.3438 4820.4844,205.3438 C4820.1875,205.3438 4819.9844,205.4375 4819.7656,205.75 L4819.5938,205.6719 Z " fill="#000000"/><text fill="#000000" font-family="sans-serif" font-size="14" lengthAdjust="spacing" textLength="150" x="4837.75" y="214.8467">Generador de código</text><line style="stroke:#181818;stroke-width:0.5;" x1="4621" x2="5172" y1="226" y2="226"/><line style="stroke:#181818;stroke-width:0.5;" x1="4621" x2="5172" y1="234" y2="234"/><text fill="#000000" font-family="sans-serif" font-size="14" lengthAdjust="spacing" textLength="541" x="4626" y="250.9951">traduce a lenguaje objetivo(): lenguaje objetivo usualmente código máquina</text></g><!--MD5=[ec3b9a084906e06f15e023956d63fb67]
class LLVM--><g id="elem_LLVM"><rect fill="#F1F1F1" height="48" id="LLVM" rx="2.5" ry="2.5" style="stroke:#181818;stroke-width:0.5;" width="70" x="4861.5" y="505.5"/><ellipse cx="4876.5" cy="521.5" fill="#ADD1B2" rx="11" ry="11" style="stroke:#181818;stroke-width:1.0;"/><path d="M4878.8438,517.1719 C4877.9063,516.7344 4877.3125,516.5938 4876.4375,516.5938 C4873.8125,516.5938 4871.8125,518.6719 4871.8125,521.3906 L4871.8125,522.5156 C4871.8125,525.0938 4873.9219,526.9844 4876.8125,526.9844 C4878.0313,526.9844 4879.1875,526.6875 4879.9375,526.1406 C4880.5156,525.7344 4880.8438,525.2813 4880.8438,524.8906 C4880.8438,524.4375 4880.4531,524.0469 4879.9844,524.0469 C4879.7656,524.0469 4879.5625,524.125 4879.375,524.3125 C4878.9219,524.7969 4878.9219,524.7969 4878.7344,524.8906 C4878.3125,525.1563 4877.625,525.2813 4876.8594,525.2813 C4874.8125,525.2813 4873.5156,524.1875 4873.5156,522.4844 L4873.5156,521.3906 C4873.5156,519.6094 4874.7656,518.2969 4876.5,518.2969 C4877.0781,518.2969 4877.6875,518.4531 4878.1563,518.7031 C4878.6406,518.9844 4878.8125,519.2031 4878.9063,519.6094 C4878.9688,520.0156 4879,520.1406 4879.1406,520.2656 C4879.2813,520.4063 4879.5156,520.5156 4879.7344,520.5156 C4880,520.5156 4880.2656,520.375 4880.4375,520.1563 C4880.5469,520 4880.5781,519.8125 4880.5781,519.3906 L4880.5781,517.9688 C4880.5781,517.5313 4880.5625,517.4063 4880.4688,517.25 C4880.3125,516.9844 4880.0313,516.8438 4879.7344,516.8438 C4879.4375,516.8438 4879.2344,516.9375 4879.0156,517.25 L4878.8438,517.1719 Z " fill="#000000"/><text fill="#000000" font-family="sans-serif" font-size="14" lengthAdjust="spacing" textLength="38" x="4890.5" y="526.3467">LLVM</text><line style="stroke:#181818;stroke-width:0.5;" x1="4862.5" x2="4930.5" y1="537.5" y2="537.5"/><line style="stroke:#181818;stroke-width:0.5;" x1="4862.5" x2="4930.5" y1="545.5" y2="545.5"/></g><g id="elem_CharacterStream"><rect fill="#F1F1F1" height="60.8906" style="stroke:#181818;stroke-width:0.5;" width="508" x="80.5" y="196"/><text fill="#000000" font-family="sans-serif" font-size="14" lengthAdjust="spacing" textLength="135" x="267" y="210.9951">Flujo de caracteres</text><line style="stroke:#181818;stroke-width:1.0;" x1="80.5" x2="588.5" y1="216.2969" y2="216.2969"/><text fill="#000000" font-family="sans-serif" font-size="14" lengthAdjust="spacing" textLength="100" x="85.5" y="231.292">codigo fuente</text><text fill="#000000" font-family="sans-serif" font-size="14" lengthAdjust="spacing" textLength="388" x="195.5" y="231.292">float calificacion = if (alumno=="Aho") then 10 else 6;</text><line style="stroke:#181818;stroke-width:1.0;" x1="190.5" x2="190.5" y1="216.2969" y2="236.5938"/><line style="stroke:#181818;stroke-width:1.0;" x1="80.5" x2="588.5" y1="236.5938" y2="236.5938"/><text fill="#000000" font-family="sans-serif" font-size="14" lengthAdjust="spacing" textLength="30" x="120.5" y="251.5889">tipo</text><text fill="#000000" font-family="sans-serif" font-size="14" lengthAdjust="spacing" textLength="64" x="195.5" y="251.5889">Archivo[]</text><line style="stroke:#181818;stroke-width:1.0;" x1="190.5" x2="190.5" y1="236.5938" y2="256.8906"/></g><g id="elem_TargetMachineCode"><rect fill="#F1F1F1" height="20.2969" style="stroke:#181818;stroke-width:0.5;" width="214" x="5216.5" y="216"/><text fill="#000000" font-family="sans-serif" font-size="14" lengthAdjust="spacing" textLength="200" x="5223.5" y="230.9951">Código de máquina objetivo</text></g><g id="elem_SymbolTable"><rect fill="#F1F1F1" height="349.7031" style="stroke:#181818;stroke-width:0.5;" width="227" x="511" y="357.5"/><text fill="#000000" font-family="sans-serif" font-size="14" lengthAdjust="spacing" textLength="129" x="560" y="372.4951">Tabla de símbolos</text><line style="stroke:#181818;stroke-width:1.0;" x1="511" x2="738" y1="377.7969" y2="377.7969"/><text fill="#000000" font-family="sans-serif" font-size="14" lengthAdjust="spacing" textLength="49" x="555" y="392.792">TOKEN</text><text fill="#000000" font-family="sans-serif" font-size="14" lengthAdjust="spacing" textLength="58" x="653" y="392.792">LEXEMA</text><line style="stroke:#181818;stroke-width:1.0;" x1="648" x2="648" y1="377.7969" y2="398.0938"/><line style="stroke:#181818;stroke-width:1.0;" x1="511" x2="738" y1="398.0938" y2="398.0938"/><text fill="#000000" font-family="sans-serif" font-size="14" lengthAdjust="spacing" textLength="108" x="525.5" y="413.0889">TIPO_DE_DATO</text><text fill="#000000" font-family="sans-serif" font-size="14" lengthAdjust="spacing" textLength="34" x="653" y="413.0889">float</text><line style="stroke:#181818;stroke-width:1.0;" x1="648" x2="648" y1="398.0938" y2="418.3906"/><line style="stroke:#181818;stroke-width:1.0;" x1="511" x2="738" y1="418.3906" y2="418.3906"/><text fill="#000000" font-family="sans-serif" font-size="14" lengthAdjust="spacing" textLength="127" x="516" y="433.3857">IDENTIFICADOR_1</text><text fill="#000000" font-family="sans-serif" font-size="14" lengthAdjust="spacing" textLength="80" x="653" y="433.3857">calificacion</text><line style="stroke:#181818;stroke-width:1.0;" x1="648" x2="648" y1="418.3906" y2="438.6875"/><line style="stroke:#181818;stroke-width:1.0;" x1="511" x2="738" y1="438.6875" y2="438.6875"/><text fill="#000000" font-family="sans-serif" font-size="14" lengthAdjust="spacing" textLength="89" x="535" y="453.6826">ASIGNACION</text><text fill="#000000" font-family="sans-serif" font-size="14" lengthAdjust="spacing" textLength="11" x="653" y="453.6826">=</text><line style="stroke:#181818;stroke-width:1.0;" x1="648" x2="648" y1="438.6875" y2="458.9844"/><line style="stroke:#181818;stroke-width:1.0;" x1="511" x2="738" y1="458.9844" y2="458.9844"/><text fill="#000000" font-family="sans-serif" font-size="14" lengthAdjust="spacing" textLength="12" x="573.5" y="473.9795">IF</text><text fill="#000000" font-family="sans-serif" font-size="14" lengthAdjust="spacing" textLength="10" x="653" y="473.9795">if</text><line style="stroke:#181818;stroke-width:1.0;" x1="648" x2="648" y1="458.9844" y2="479.2813"/><line style="stroke:#181818;stroke-width:1.0;" x1="511" x2="738" y1="479.2813" y2="479.2813"/><text fill="#000000" font-family="sans-serif" font-size="14" lengthAdjust="spacing" textLength="56" x="551.5" y="494.2764">LPAREN</text><text fill="#000000" font-family="sans-serif" font-size="14" lengthAdjust="spacing" textLength="5" x="653" y="494.2764">(</text><line style="stroke:#181818;stroke-width:1.0;" x1="648" x2="648" y1="479.2813" y2="499.5781"/><line style="stroke:#181818;stroke-width:1.0;" x1="511" x2="738" y1="499.5781" y2="499.5781"/><text fill="#000000" font-family="sans-serif" font-size="14" lengthAdjust="spacing" textLength="126" x="516.5" y="514.5732">IDENTIFICADOR_2</text><text fill="#000000" font-family="sans-serif" font-size="14" lengthAdjust="spacing" textLength="52" x="653" y="514.5732">alumno</text><line style="stroke:#181818;stroke-width:1.0;" x1="648" x2="648" y1="499.5781" y2="519.875"/><line style="stroke:#181818;stroke-width:1.0;" x1="511" x2="738" y1="519.875" y2="519.875"/><text fill="#000000" font-family="sans-serif" font-size="14" lengthAdjust="spacing" textLength="20" x="569.5" y="534.8701">EQ</text><text fill="#000000" font-family="sans-serif" font-size="18" font-weight="bold" lengthAdjust="spacing" textLength="15" x="653" y="538.583">=</text><line style="stroke:#181818;stroke-width:1.0;" x1="648" x2="648" y1="519.875" y2="544.8281"/><line style="stroke:#181818;stroke-width:1.0;" x1="511" x2="738" y1="544.8281" y2="544.8281"/><text fill="#000000" font-family="sans-serif" font-size="14" lengthAdjust="spacing" textLength="58" x="550.5" y="559.8232">LITERAL</text><text fill="#000000" font-family="sans-serif" font-size="14" lengthAdjust="spacing" textLength="42" x="653" y="559.8232">"Aho"</text><line style="stroke:#181818;stroke-width:1.0;" x1="648" x2="648" y1="544.8281" y2="565.125"/><line style="stroke:#181818;stroke-width:1.0;" x1="511" x2="738" y1="565.125" y2="565.125"/><text fill="#000000" font-family="sans-serif" font-size="14" lengthAdjust="spacing" textLength="58" x="550.5" y="580.1201">RPAREN</text><text fill="#000000" font-family="sans-serif" font-size="14" lengthAdjust="spacing" textLength="5" x="653" y="580.1201">)</text><line style="stroke:#181818;stroke-width:1.0;" x1="648" x2="648" y1="565.125" y2="585.4219"/><line style="stroke:#181818;stroke-width:1.0;" x1="511" x2="738" y1="585.4219" y2="585.4219"/><text fill="#000000" font-family="sans-serif" font-size="14" lengthAdjust="spacing" textLength="38" x="560.5" y="600.417">THEN</text><text fill="#000000" font-family="sans-serif" font-size="14" lengthAdjust="spacing" textLength="34" x="653" y="600.417">then</text><line style="stroke:#181818;stroke-width:1.0;" x1="648" x2="648" y1="585.4219" y2="605.7188"/><line style="stroke:#181818;stroke-width:1.0;" x1="511" x2="738" y1="605.7188" y2="605.7188"/><text fill="#000000" font-family="sans-serif" font-size="14" lengthAdjust="spacing" textLength="61" x="549" y="620.7139">NUMERO</text><text fill="#000000" font-family="sans-serif" font-size="14" lengthAdjust="spacing" textLength="18" x="653" y="620.7139">10</text><line style="stroke:#181818;stroke-width:1.0;" x1="648" x2="648" y1="605.7188" y2="626.0156"/><line style="stroke:#181818;stroke-width:1.0;" x1="511" x2="738" y1="626.0156" y2="626.0156"/><text fill="#000000" font-family="sans-serif" font-size="14" lengthAdjust="spacing" textLength="35" x="562" y="641.0107">ELSE</text><text fill="#000000" font-family="sans-serif" font-size="14" lengthAdjust="spacing" textLength="29" x="653" y="641.0107">else</text><line style="stroke:#181818;stroke-width:1.0;" x1="648" x2="648" y1="626.0156" y2="646.3125"/><line style="stroke:#181818;stroke-width:1.0;" x1="511" x2="738" y1="646.3125" y2="646.3125"/><text fill="#000000" font-family="sans-serif" font-size="14" lengthAdjust="spacing" textLength="84" x="537.5" y="661.3076">SEMICOLON</text><text fill="#000000" font-family="sans-serif" font-size="14" lengthAdjust="spacing" textLength="5" x="653" y="661.3076">;</text><line style="stroke:#181818;stroke-width:1.0;" x1="648" x2="648" y1="646.3125" y2="666.6094"/><line style="stroke:#181818;stroke-width:1.0;" x1="511" x2="738" y1="666.6094" y2="666.6094"/><text fill="#000000" font-family="sans-serif" font-size="14" lengthAdjust="spacing" textLength="11" x="574" y="681.6045">+</text><text fill="#000000" font-family="sans-serif" font-size="14" lengthAdjust="spacing" textLength="11" x="653" y="681.6045">+</text><line style="stroke:#181818;stroke-width:1.0;" x1="648" x2="648" y1="666.6094" y2="686.9063"/><line style="stroke:#181818;stroke-width:1.0;" x1="511" x2="738" y1="686.9063" y2="686.9063"/><text fill="#000000" font-family="sans-serif" font-size="14" lengthAdjust="spacing" textLength="15" x="572" y="701.9014">...</text><text fill="#000000" font-family="sans-serif" font-size="14" lengthAdjust="spacing" textLength="15" x="653" y="701.9014">...</text><line style="stroke:#181818;stroke-width:1.0;" x1="648" x2="648" y1="686.9063" y2="707.2031"/></g><!--MD5=[451a5f90ea33b0d86b03416e3d19ff99]
class Simbolo--><g id="elem_Simbolo"><rect codeLine="27" fill="#F1F1F1" height="96.8906" id="Simbolo" rx="2.5" ry="2.5" style="stroke:#181818;stroke-width:0.5;" width="271" x="7" y="10"/><ellipse cx="108.75" cy="26" fill="#ADD1B2" rx="11" ry="11" style="stroke:#181818;stroke-width:1.0;"/><path d="M111.0938,21.6719 C110.1563,21.2344 109.5625,21.0938 108.6875,21.0938 C106.0625,21.0938 104.0625,23.1719 104.0625,25.8906 L104.0625,27.0156 C104.0625,29.5938 106.1719,31.4844 109.0625,31.4844 C110.2813,31.4844 111.4375,31.1875 112.1875,30.6406 C112.7656,30.2344 113.0938,29.7813 113.0938,29.3906 C113.0938,28.9375 112.7031,28.5469 112.2344,28.5469 C112.0156,28.5469 111.8125,28.625 111.625,28.8125 C111.1719,29.2969 111.1719,29.2969 110.9844,29.3906 C110.5625,29.6563 109.875,29.7813 109.1094,29.7813 C107.0625,29.7813 105.7656,28.6875 105.7656,26.9844 L105.7656,25.8906 C105.7656,24.1094 107.0156,22.7969 108.75,22.7969 C109.3281,22.7969 109.9375,22.9531 110.4063,23.2031 C110.8906,23.4844 111.0625,23.7031 111.1563,24.1094 C111.2188,24.5156 111.25,24.6406 111.3906,24.7656 C111.5313,24.9063 111.7656,25.0156 111.9844,25.0156 C112.25,25.0156 112.5156,24.875 112.6875,24.6563 C112.7969,24.5 112.8281,24.3125 112.8281,23.8906 L112.8281,22.4688 C112.8281,22.0313 112.8125,21.9063 112.7188,21.75 C112.5625,21.4844 112.2813,21.3438 111.9844,21.3438 C111.6875,21.3438 111.4844,21.4375 111.2656,21.75 L111.0938,21.6719 Z " fill="#000000"/><text fill="#000000" font-family="sans-serif" font-size="14" lengthAdjust="spacing" textLength="59" x="129.25" y="30.8467">Simbolo</text><line style="stroke:#181818;stroke-width:0.5;" x1="8" x2="277" y1="42" y2="42"/><text fill="#000000" font-family="sans-serif" font-size="14" lengthAdjust="spacing" textLength="255" x="13" y="58.9951">token // ¿cómo creamos sequencias</text><text fill="#000000" font-family="sans-serif" font-size="14" lengthAdjust="spacing" textLength="255" x="17" y="75.292">significativas para ser manipuladas?</text><text fill="#000000" font-family="sans-serif" font-size="14" lengthAdjust="spacing" textLength="235" x="13" y="91.5889">lexema // ¿cuál es esa sequencia?</text><line style="stroke:#181818;stroke-width:0.5;" x1="8" x2="277" y1="98.8906" y2="98.8906"/></g><g id="elem_GMN185812"><path d="M313.5,31 L313.5,54.5 L278.035,58.5 L313.5,62.5 L313.5,86.3984 A0,0 0 0 0 313.5,86.3984 L599.5,86.3984 A0,0 0 0 0 599.5,86.3984 L599.5,41 L589.5,31 L313.5,31 A0,0 0 0 0 313.5,31 " fill="#FEFFDD" style="stroke:#181818;stroke-width:0.5;"/><path d="M589.5,31 L589.5,41 L599.5,41 L589.5,31 " fill="#FEFFDD" style="stroke:#181818;stroke-width:0.5;"/><text fill="#000000" font-family="sans-serif" font-size="13" lengthAdjust="spacing" textLength="261" x="319.5" y="48.0669">por convenencia, algunas veces el token</text><text fill="#000000" font-family="sans-serif" font-size="13" lengthAdjust="spacing" textLength="243" x="323.5" y="63.1997">será igual al lexema, por ejemplo +, y</text><text fill="#000000" font-family="sans-serif" font-size="13" lengthAdjust="spacing" textLength="229" x="323.5" y="78.3325">por tanto será el lexema es omitido</text></g><!--MD5=[48830a23250e3370ef27b78f8b508b12]
class Lex--><g id="elem_Lex"><rect fill="#F1F1F1" height="48" id="Lex" rx="2.5" ry="2.5" style="stroke:#181818;stroke-width:0.5;" width="57" x="781" y="505.5"/><ellipse cx="796" cy="521.5" fill="#ADD1B2" rx="11" ry="11" style="stroke:#181818;stroke-width:1.0;"/><path d="M798.3438,517.1719 C797.4063,516.7344 796.8125,516.5938 795.9375,516.5938 C793.3125,516.5938 791.3125,518.6719 791.3125,521.3906 L791.3125,522.5156 C791.3125,525.0938 793.4219,526.9844 796.3125,526.9844 C797.5313,526.9844 798.6875,526.6875 799.4375,526.1406 C800.0156,525.7344 800.3438,525.2813 800.3438,524.8906 C800.3438,524.4375 799.9531,524.0469 799.4844,524.0469 C799.2656,524.0469 799.0625,524.125 798.875,524.3125 C798.4219,524.7969 798.4219,524.7969 798.2344,524.8906 C797.8125,525.1563 797.125,525.2813 796.3594,525.2813 C794.3125,525.2813 793.0156,524.1875 793.0156,522.4844 L793.0156,521.3906 C793.0156,519.6094 794.2656,518.2969 796,518.2969 C796.5781,518.2969 797.1875,518.4531 797.6563,518.7031 C798.1406,518.9844 798.3125,519.2031 798.4063,519.6094 C798.4688,520.0156 798.5,520.1406 798.6406,520.2656 C798.7813,520.4063 799.0156,520.5156 799.2344,520.5156 C799.5,520.5156 799.7656,520.375 799.9375,520.1563 C800.0469,520 800.0781,519.8125 800.0781,519.3906 L800.0781,517.9688 C800.0781,517.5313 800.0625,517.4063 799.9688,517.25 C799.8125,516.9844 799.5313,516.8438 799.2344,516.8438 C798.9375,516.8438 798.7344,516.9375 798.5156,517.25 L798.3438,517.1719 Z " fill="#000000"/><text fill="#000000" font-family="sans-serif" font-size="14" lengthAdjust="spacing" textLength="25" x="810" y="526.3467">Lex</text><line style="stroke:#181818;stroke-width:0.5;" x1="782" x2="837" y1="537.5" y2="537.5"/><line style="stroke:#181818;stroke-width:0.5;" x1="782" x2="837" y1="545.5" y2="545.5"/></g><!--MD5=[c8c6ef3cf9431f0348ad094fdb5e3dcf]
class Flex--><g id="elem_Flex"><rect fill="#F1F1F1" height="48" id="Flex" rx="2.5" ry="2.5" style="stroke:#181818;stroke-width:0.5;" width="61" x="873" y="505.5"/><ellipse cx="888" cy="521.5" fill="#ADD1B2" rx="11" ry="11" style="stroke:#181818;stroke-width:1.0;"/><path d="M890.3438,517.1719 C889.4063,516.7344 888.8125,516.5938 887.9375,516.5938 C885.3125,516.5938 883.3125,518.6719 883.3125,521.3906 L883.3125,522.5156 C883.3125,525.0938 885.4219,526.9844 888.3125,526.9844 C889.5313,526.9844 890.6875,526.6875 891.4375,526.1406 C892.0156,525.7344 892.3438,525.2813 892.3438,524.8906 C892.3438,524.4375 891.9531,524.0469 891.4844,524.0469 C891.2656,524.0469 891.0625,524.125 890.875,524.3125 C890.4219,524.7969 890.4219,524.7969 890.2344,524.8906 C889.8125,525.1563 889.125,525.2813 888.3594,525.2813 C886.3125,525.2813 885.0156,524.1875 885.0156,522.4844 L885.0156,521.3906 C885.0156,519.6094 886.2656,518.2969 888,518.2969 C888.5781,518.2969 889.1875,518.4531 889.6563,518.7031 C890.1406,518.9844 890.3125,519.2031 890.4063,519.6094 C890.4688,520.0156 890.5,520.1406 890.6406,520.2656 C890.7813,520.4063 891.0156,520.5156 891.2344,520.5156 C891.5,520.5156 891.7656,520.375 891.9375,520.1563 C892.0469,520 892.0781,519.8125 892.0781,519.3906 L892.0781,517.9688 C892.0781,517.5313 892.0625,517.4063 891.9688,517.25 C891.8125,516.9844 891.5313,516.8438 891.2344,516.8438 C890.9375,516.8438 890.7344,516.9375 890.5156,517.25 L890.3438,517.1719 Z " fill="#000000"/><text fill="#000000" font-family="sans-serif" font-size="14" lengthAdjust="spacing" textLength="29" x="902" y="526.3467">Flex</text><line style="stroke:#181818;stroke-width:0.5;" x1="874" x2="933" y1="537.5" y2="537.5"/><line style="stroke:#181818;stroke-width:0.5;" x1="874" x2="933" y1="545.5" y2="545.5"/></g><!--MD5=[f019b98c4d56331bf34e18fa62d6ea01]
class JFlex--><g id="elem_JFlex"><rect fill="#F1F1F1" height="48" id="JFlex" rx="2.5" ry="2.5" style="stroke:#181818;stroke-width:0.5;" width="65" x="969" y="505.5"/><ellipse cx="984" cy="521.5" fill="#ADD1B2" rx="11" ry="11" style="stroke:#181818;stroke-width:1.0;"/><path d="M986.3438,517.1719 C985.4063,516.7344 984.8125,516.5938 983.9375,516.5938 C981.3125,516.5938 979.3125,518.6719 979.3125,521.3906 L979.3125,522.5156 C979.3125,525.0938 981.4219,526.9844 984.3125,526.9844 C985.5313,526.9844 986.6875,526.6875 987.4375,526.1406 C988.0156,525.7344 988.3438,525.2813 988.3438,524.8906 C988.3438,524.4375 987.9531,524.0469 987.4844,524.0469 C987.2656,524.0469 987.0625,524.125 986.875,524.3125 C986.4219,524.7969 986.4219,524.7969 986.2344,524.8906 C985.8125,525.1563 985.125,525.2813 984.3594,525.2813 C982.3125,525.2813 981.0156,524.1875 981.0156,522.4844 L981.0156,521.3906 C981.0156,519.6094 982.2656,518.2969 984,518.2969 C984.5781,518.2969 985.1875,518.4531 985.6563,518.7031 C986.1406,518.9844 986.3125,519.2031 986.4063,519.6094 C986.4688,520.0156 986.5,520.1406 986.6406,520.2656 C986.7813,520.4063 987.0156,520.5156 987.2344,520.5156 C987.5,520.5156 987.7656,520.375 987.9375,520.1563 C988.0469,520 988.0781,519.8125 988.0781,519.3906 L988.0781,517.9688 C988.0781,517.5313 988.0625,517.4063 987.9688,517.25 C987.8125,516.9844 987.5313,516.8438 987.2344,516.8438 C986.9375,516.8438 986.7344,516.9375 986.5156,517.25 L986.3438,517.1719 Z " fill="#000000"/><text fill="#000000" font-family="sans-serif" font-size="14" lengthAdjust="spacing" textLength="33" x="998" y="526.3467">JFlex</text><line style="stroke:#181818;stroke-width:0.5;" x1="970" x2="1033" y1="537.5" y2="537.5"/><line style="stroke:#181818;stroke-width:0.5;" x1="970" x2="1033" y1="545.5" y2="545.5"/></g><!--MD5=[94e8ce13947d018a20a9b6f700bfd499]
class Bison--><g id="elem_Bison"><rect fill="#F1F1F1" height="48" id="Bison" rx="2.5" ry="2.5" style="stroke:#181818;stroke-width:0.5;" width="71" x="1413" y="505.5"/><ellipse cx="1428" cy="521.5" fill="#ADD1B2" rx="11" ry="11" style="stroke:#181818;stroke-width:1.0;"/><path d="M1430.3438,517.1719 C1429.4063,516.7344 1428.8125,516.5938 1427.9375,516.5938 C1425.3125,516.5938 1423.3125,518.6719 1423.3125,521.3906 L1423.3125,522.5156 C1423.3125,525.0938 1425.4219,526.9844 1428.3125,526.9844 C1429.5313,526.9844 1430.6875,526.6875 1431.4375,526.1406 C1432.0156,525.7344 1432.3438,525.2813 1432.3438,524.8906 C1432.3438,524.4375 1431.9531,524.0469 1431.4844,524.0469 C1431.2656,524.0469 1431.0625,524.125 1430.875,524.3125 C1430.4219,524.7969 1430.4219,524.7969 1430.2344,524.8906 C1429.8125,525.1563 1429.125,525.2813 1428.3594,525.2813 C1426.3125,525.2813 1425.0156,524.1875 1425.0156,522.4844 L1425.0156,521.3906 C1425.0156,519.6094 1426.2656,518.2969 1428,518.2969 C1428.5781,518.2969 1429.1875,518.4531 1429.6563,518.7031 C1430.1406,518.9844 1430.3125,519.2031 1430.4063,519.6094 C1430.4688,520.0156 1430.5,520.1406 1430.6406,520.2656 C1430.7813,520.4063 1431.0156,520.5156 1431.2344,520.5156 C1431.5,520.5156 1431.7656,520.375 1431.9375,520.1563 C1432.0469,520 1432.0781,519.8125 1432.0781,519.3906 L1432.0781,517.9688 C1432.0781,517.5313 1432.0625,517.4063 1431.9688,517.25 C1431.8125,516.9844 1431.5313,516.8438 1431.2344,516.8438 C1430.9375,516.8438 1430.7344,516.9375 1430.5156,517.25 L1430.3438,517.1719 Z " fill="#000000"/><text fill="#000000" font-family="sans-serif" font-size="14" lengthAdjust="spacing" textLength="39" x="1442" y="526.3467">Bison</text><line style="stroke:#181818;stroke-width:0.5;" x1="1414" x2="1483" y1="537.5" y2="537.5"/><line style="stroke:#181818;stroke-width:0.5;" x1="1414" x2="1483" y1="545.5" y2="545.5"/></g><!--MD5=[b10c05c113ef53de34dc5ef0710f8af5]
class Cup--><g id="elem_Cup"><rect fill="#F1F1F1" height="48" id="Cup" rx="2.5" ry="2.5" style="stroke:#181818;stroke-width:0.5;" width="60" x="1519.5" y="505.5"/><ellipse cx="1534.5" cy="521.5" fill="#ADD1B2" rx="11" ry="11" style="stroke:#181818;stroke-width:1.0;"/><path d="M1536.8438,517.1719 C1535.9063,516.7344 1535.3125,516.5938 1534.4375,516.5938 C1531.8125,516.5938 1529.8125,518.6719 1529.8125,521.3906 L1529.8125,522.5156 C1529.8125,525.0938 1531.9219,526.9844 1534.8125,526.9844 C1536.0313,526.9844 1537.1875,526.6875 1537.9375,526.1406 C1538.5156,525.7344 1538.8438,525.2813 1538.8438,524.8906 C1538.8438,524.4375 1538.4531,524.0469 1537.9844,524.0469 C1537.7656,524.0469 1537.5625,524.125 1537.375,524.3125 C1536.9219,524.7969 1536.9219,524.7969 1536.7344,524.8906 C1536.3125,525.1563 1535.625,525.2813 1534.8594,525.2813 C1532.8125,525.2813 1531.5156,524.1875 1531.5156,522.4844 L1531.5156,521.3906 C1531.5156,519.6094 1532.7656,518.2969 1534.5,518.2969 C1535.0781,518.2969 1535.6875,518.4531 1536.1563,518.7031 C1536.6406,518.9844 1536.8125,519.2031 1536.9063,519.6094 C1536.9688,520.0156 1537,520.1406 1537.1406,520.2656 C1537.2813,520.4063 1537.5156,520.5156 1537.7344,520.5156 C1538,520.5156 1538.2656,520.375 1538.4375,520.1563 C1538.5469,520 1538.5781,519.8125 1538.5781,519.3906 L1538.5781,517.9688 C1538.5781,517.5313 1538.5625,517.4063 1538.4688,517.25 C1538.3125,516.9844 1538.0313,516.8438 1537.7344,516.8438 C1537.4375,516.8438 1537.2344,516.9375 1537.0156,517.25 L1536.8438,517.1719 Z " fill="#000000"/><text fill="#000000" font-family="sans-serif" font-size="14" lengthAdjust="spacing" textLength="28" x="1548.5" y="526.3467">Cup</text><line style="stroke:#181818;stroke-width:0.5;" x1="1520.5" x2="1578.5" y1="537.5" y2="537.5"/><line style="stroke:#181818;stroke-width:0.5;" x1="1520.5" x2="1578.5" y1="545.5" y2="545.5"/></g><!--MD5=[0a53b532d128e286c1053b8a020acc52]
class Yacc--><g id="elem_Yacc"><rect fill="#F1F1F1" height="48" id="Yacc" rx="2.5" ry="2.5" style="stroke:#181818;stroke-width:0.5;" width="65" x="1615" y="505.5"/><ellipse cx="1630" cy="521.5" fill="#ADD1B2" rx="11" ry="11" style="stroke:#181818;stroke-width:1.0;"/><path d="M1632.3438,517.1719 C1631.4063,516.7344 1630.8125,516.5938 1629.9375,516.5938 C1627.3125,516.5938 1625.3125,518.6719 1625.3125,521.3906 L1625.3125,522.5156 C1625.3125,525.0938 1627.4219,526.9844 1630.3125,526.9844 C1631.5313,526.9844 1632.6875,526.6875 1633.4375,526.1406 C1634.0156,525.7344 1634.3438,525.2813 1634.3438,524.8906 C1634.3438,524.4375 1633.9531,524.0469 1633.4844,524.0469 C1633.2656,524.0469 1633.0625,524.125 1632.875,524.3125 C1632.4219,524.7969 1632.4219,524.7969 1632.2344,524.8906 C1631.8125,525.1563 1631.125,525.2813 1630.3594,525.2813 C1628.3125,525.2813 1627.0156,524.1875 1627.0156,522.4844 L1627.0156,521.3906 C1627.0156,519.6094 1628.2656,518.2969 1630,518.2969 C1630.5781,518.2969 1631.1875,518.4531 1631.6563,518.7031 C1632.1406,518.9844 1632.3125,519.2031 1632.4063,519.6094 C1632.4688,520.0156 1632.5,520.1406 1632.6406,520.2656 C1632.7813,520.4063 1633.0156,520.5156 1633.2344,520.5156 C1633.5,520.5156 1633.7656,520.375 1633.9375,520.1563 C1634.0469,520 1634.0781,519.8125 1634.0781,519.3906 L1634.0781,517.9688 C1634.0781,517.5313 1634.0625,517.4063 1633.9688,517.25 C1633.8125,516.9844 1633.5313,516.8438 1633.2344,516.8438 C1632.9375,516.8438 1632.7344,516.9375 1632.5156,517.25 L1632.3438,517.1719 Z " fill="#000000"/><text fill="#000000" font-family="sans-serif" font-size="14" lengthAdjust="spacing" textLength="33" x="1644" y="526.3467">Yacc</text><line style="stroke:#181818;stroke-width:0.5;" x1="1616" x2="1679" y1="537.5" y2="537.5"/><line style="stroke:#181818;stroke-width:0.5;" x1="1616" x2="1679" y1="545.5" y2="545.5"/></g><!--MD5=[037c2420f1176adbfc5f6104b59783dd]
link Analizador léxico to SymbolTable--><g id="link_Analizador léxico_SymbolTable"><path codeLine="39" d="M814.587,274.886 C805.829,285.2 796.753,296.124 788.5,306.5 C775.645,322.662 762.47,339.675 749.447,356.793 " fill="none" id="Analizador léxico-to-SymbolTable" style="stroke:#181818;stroke-width:1.0;"/><polygon fill="#181818" points="746.14,361.147,754.7692,356.3997,749.1644,357.1654,748.3987,351.5606,746.14,361.147" style="stroke:#181818;stroke-width:1.0;"/><text fill="#000000" font-family="sans-serif" font-size="13" lengthAdjust="spacing" textLength="45" x="789.5" y="319.5669">guarda</text></g><!--MD5=[3ba42205441fe872ca320e648d0c4483]
link CharacterStream to Analizador léxico--><g id="link_CharacterStream_Analizador léxico"><path codeLine="40" d="M596.52,226 C606.537,226 616.554,226 626.571,226 " fill="none" id="CharacterStream-to-Analizador léxico" style="stroke:#181818;stroke-width:1.0;"/><polygon fill="#181818" points="631.81,226,622.81,222,626.81,226,622.81,230,631.81,226" style="stroke:#181818;stroke-width:1.0;"/></g><!--MD5=[e68e4f7f4efe2dcb0325982e5daa47f9]
link Analizador léxico to Analizador sintáctico--><g id="link_Analizador léxico_Analizador sintáctico"><path codeLine="42" d="M1081.02,226 C1159.55,226 1247.66,226 1326.1,226 " fill="none" id="Analizador léxico-to-Analizador sintáctico" style="stroke:#181818;stroke-width:1.0;"/><polygon fill="#181818" points="1331.25,226,1322.25,222,1326.25,226,1322.25,230,1331.25,226" style="stroke:#181818;stroke-width:1.0;"/><text fill="#000000" font-family="sans-serif" font-size="13" lengthAdjust="spacing" textLength="214" x="1099.25" y="219.0669">flujo de simbolos -no terminales-.</text></g><!--MD5=[3bd61319e15e3bdbd88a2bd71f967324]
link Analizador sintáctico to Analizador semántico--><g id="link_Analizador sintáctico_Analizador semántico"><path codeLine="44" d="M1767.62,226 C1822.18,226 1880.68,226 1935.19,226 " fill="none" id="Analizador sintáctico-to-Analizador semántico" style="stroke:#181818;stroke-width:1.0;"/><polygon fill="#181818" points="1940.46,226,1931.46,222,1935.46,226,1931.46,230,1940.46,226" style="stroke:#181818;stroke-width:1.0;"/><text fill="#000000" font-family="sans-serif" font-size="13" lengthAdjust="spacing" textLength="136" x="1786" y="219.0669">árbol sintáctico (AST)</text></g><!--MD5=[b6bc2b16a3d1b36361cfd1db85961e7d]
link Analizador semántico to Generador de código intermedio--><g id="link_Analizador semántico_Generador de código intermedio"><path codeLine="53" d="M2364.7,226 C2438.01,226 2520.56,226 2595.58,226 " fill="none" id="Analizador semántico-to-Generador de código intermedio" style="stroke:#181818;stroke-width:1.0;"/><polygon fill="#181818" points="2600.97,226,2591.97,222,2595.97,226,2591.97,230,2600.97,226" style="stroke:#181818;stroke-width:1.0;"/><text fill="#000000" font-family="sans-serif" font-size="13" lengthAdjust="spacing" textLength="200" x="2382.75" y="219.0669">árbol sintáctico (AST decorado)</text></g><!--MD5=[d207add69cbf18f346ccca1172338bbf]
link Generador de código intermedio to Optimización independiente de la máquina--><g id="link_Generador de código intermedio_Optimización independiente de la máquina"><path codeLine="54" d="M3060.2,226 C3132.47,226 3212.58,226 3286.03,226 " fill="none" id="Generador de código intermedio-to-Optimización independiente de la máquina" style="stroke:#181818;stroke-width:1.0;"/><polygon fill="#181818" points="3291.3,226,3282.3,222,3286.3,226,3282.3,230,3291.3,226" style="stroke:#181818;stroke-width:1.0;"/><text fill="#000000" font-family="sans-serif" font-size="13" lengthAdjust="spacing" textLength="195" x="3078.25" y="219.0669">representación intermedia (IR)</text></g><!--MD5=[412587ccd4f139f516cb723ecdfc3f38]
reverse link Analizador léxico to Lex--><g id="link_Analizador léxico_Lex"><path codeLine="60" d="M845.911,294.925 C835.442,362.085 820.015,461.048 813.092,505.455 " fill="none" id="Analizador léxico-backto-Lex" style="stroke:#181818;stroke-width:1.0;"/><polygon fill="none" points="839.056,293.457,849.053,274.774,852.889,295.613,839.056,293.457" style="stroke:#181818;stroke-width:1.0;"/></g><!--MD5=[3d46ccd6b54472d33fce81781792362c]
reverse link Analizador léxico to Flex--><g id="link_Analizador léxico_Flex"><path codeLine="61" d="M867.627,294.758 C868.265,298.73 868.893,302.667 869.5,306.5 C880.994,379.094 893.995,465.146 900.052,505.478 " fill="none" id="Analizador léxico-backto-Flex" style="stroke:#181818;stroke-width:1.0;"/><polygon fill="none" points="860.701,295.774,864.415,274.913,874.521,293.537,860.701,295.774" style="stroke:#181818;stroke-width:1.0;"/></g><!--MD5=[f13dc045334112b249cceedaf679630b]
reverse link Analizador léxico to JFlex--><g id="link_Analizador léxico_JFlex"><path codeLine="62" d="M911.338,290.566 C925.952,309.84 940.668,331.704 951.5,353.5 C976.953,404.716 991.408,470.991 997.694,505.428 " fill="none" id="Analizador léxico-backto-JFlex" style="stroke:#181818;stroke-width:1.0;"/><polygon fill="none" points="905.733,294.762,898.9,274.705,916.75,286.123,905.733,294.762" style="stroke:#181818;stroke-width:1.0;"/></g><!--MD5=[61b34af3bf66d1aa7b2a9268510381c7]
reverse link Analizador sintáctico to Bison--><g id="link_Analizador sintáctico_Bison"><path codeLine="63" d="M1526.32,285.556 C1518.16,306.835 1509.12,331.144 1501.5,353.5 C1483.12,407.437 1464.46,471.773 1454.95,505.408 " fill="none" id="Analizador sintáctico-backto-Bison" style="stroke:#181818;stroke-width:1.0;"/><polygon fill="none" points="1519.91,282.744,1533.66,266.628,1532.96,287.806,1519.91,282.744" style="stroke:#181818;stroke-width:1.0;"/></g><!--MD5=[8958581126343daf736b452abd5edb37]
reverse link Analizador sintáctico to Cup--><g id="link_Analizador sintáctico_Cup"><path codeLine="64" d="M1549.5,286.999 C1549.5,353.93 1549.5,458.878 1549.5,505.199 " fill="none" id="Analizador sintáctico-backto-Cup" style="stroke:#181818;stroke-width:1.0;"/><polygon fill="none" points="1542.5,286.726,1549.5,266.726,1556.5,286.726,1542.5,286.726" style="stroke:#181818;stroke-width:1.0;"/></g><!--MD5=[597380f9903938cbf1a72f631c833d21]
reverse link Analizador sintáctico to Yacc--><g id="link_Analizador sintáctico_Yacc"><path codeLine="65" d="M1572.26,285.548 C1580.26,306.826 1589.1,331.137 1596.5,353.5 C1614.35,407.427 1632.24,471.767 1641.34,505.405 " fill="none" id="Analizador sintáctico-backto-Yacc" style="stroke:#181818;stroke-width:1.0;"/><polygon fill="none" points="1565.62,287.803,1565.06,266.621,1578.71,282.827,1565.62,287.803" style="stroke:#181818;stroke-width:1.0;"/></g><!--MD5=[2e8a457039c7044779549b2bd8953dae]
link Optimización independiente de la máquina to Optmización de código dependiente de la máquina--><g id="link_Optimización independiente de la máquina_Optmización de código dependiente de la máquina"><path codeLine="67" d="M3775.51,226 C3841.13,226 3911.75,226 3975.93,226 " fill="none" id="Optimización independiente de la máquina-to-Optmización de código dependiente de la máquina" style="stroke:#181818;stroke-width:1.0;"/><polygon fill="#181818" points="3980.93,226,3971.93,222,3975.93,226,3971.93,230,3980.93,226" style="stroke:#181818;stroke-width:1.0;"/><text fill="#000000" font-family="sans-serif" font-size="13" lengthAdjust="spacing" textLength="169" x="3793.75" y="242.0669">representación intermedia</text></g><!--MD5=[654a473d0dddce9705b64e420f91fb67]
link Optmización de código dependiente de la máquina to Generador de código--><g id="link_Optmización de código dependiente de la máquina_Generador de código"><path codeLine="71" d="M4406.33,226 C4471.81,226 4544.94,226 4614.31,226 " fill="none" id="Optmización de código dependiente de la máquina-to-Generador de código" style="stroke:#181818;stroke-width:1.0;"/><polygon fill="#181818" points="4619.73,226,4610.7415,221.9743,4614.73,225.9857,4610.7186,229.9743,4619.73,226" style="stroke:#181818;stroke-width:1.0;"/><text fill="#000000" font-family="sans-serif" font-size="13" lengthAdjust="spacing" textLength="177" x="4424.5" y="219.0669">código de máquina objetivo</text></g><!--MD5=[70a2ba2b2f74bbf9903de0d2cd70e2ca]
link Generador de código to TargetMachineCode--><g id="link_Generador de código_TargetMachineCode"><path codeLine="78" d="M5173.38,226 C5183.29,226 5193.19,226 5203.09,226 " fill="none" id="Generador de código-to-TargetMachineCode" style="stroke:#181818;stroke-width:1.0;"/><polygon fill="#181818" points="5208.27,226,5199.27,222,5203.27,226,5199.27,230,5208.27,226" style="stroke:#181818;stroke-width:1.0;"/></g><!--MD5=[9269334aca5a8e06b2aa0cb21ddd4de0]
reverse link Generador de código to LLVM--><g id="link_Generador de código_LLVM"><path codeLine="79" d="M4896.5,278.245 C4896.5,344.414 4896.5,456.806 4896.5,505.2 " fill="none" id="Generador de código-backto-LLVM" style="stroke:#181818;stroke-width:1.0;"/><polygon fill="none" points="4889.5,278.13,4896.5,258.13,4903.5,278.13,4889.5,278.13" style="stroke:#181818;stroke-width:1.0;"/></g><!--MD5=[e0a1449d1a922143121f72b9e74db1b7]
@startuml
map "Flujo de caracteres" as CharacterStream {
  codigo fuente => float calificacion = if (alumno=="Aho") then 10 else 6;
  tipo => Archivo[]
}
map "Código de máquina objetivo" as TargetMachineCode {
}
map "Tabla de símbolos" as SymbolTable {
 TOKEN => LEXEMA
 TIPO_DE_DATO => float
 IDENTIFICADOR_1 => calificacion
 ASIGNACION => =
 IF => if
 LPAREN => (
 IDENTIFICADOR_2 => alumno
 EQ => ==
 LITERAL => "Aho"
 RPAREN => )
 THEN => then
 NUMERO => 10
 ELSE => else
 NUMERO => 10
 SEMICOLON => ;
 + => +
 ... => ...
}

class Simbolo {
  token // ¿cómo creamos sequencias \n significativas para ser manipuladas?
  lexema // ¿cuál es esa sequencia? 
}

note right: por convenencia, algunas veces el token \n será igual al lexema, por ejemplo +, y\n por tanto será el lexema es omitido
package "Análisis. FronEnd."  <<Node>> {
class "Analizador léxico" {
  reglas lexicas: {expresion regular: simbolo}[]
  escanea con expresiones regulares(codigo fuente): Simbolo[]
  guarda en tabla de simbolos(simbolo)
}
"Analizador léxico" -down->  SymbolTable: guarda
CharacterStream -right- -> "Analizador léxico"
note top: Algunas veces llamado «Lexer», otras «Scanning»
"Analizador léxico" -right- -> "Analizador sintáctico" : flujo de simbolos -no terminales-.
note top: Algunas veces llamado «parsing»
"Analizador sintáctico" -right- -> "Analizador semántico": árbol sintáctico (AST)
class "Analizador sintáctico" {
   reglas de produccion
   crea un árbol basado en reglas gramaticales(símbolos): AST
}
class "Analizador semántico"  {
  definición del lenguaje
  comprueba consistencia segun la definición del lenguaje() 
}
"Analizador semántico" -right- -> "Generador de código intermedio": árbol sintáctico (AST decorado)
"Generador de código intermedio" -right- -> "Optimización independiente de la máquina": representación intermedia (IR)
}
class "Generador de código intermedio" {
 código independiente de máquina para facilitar la reutilización
 genera código intermedio(): IR three-adress code
}
"Analizador léxico"  <|- - "Lex"
"Analizador léxico"  <|- - "Flex"
"Analizador léxico"  <|- - "JFlex"
"Analizador sintáctico" <|- - "Bison"
"Analizador sintáctico" <|- - "Cup"
"Analizador sintáctico" <|- - "Yacc"
package "Síntesis. BackEnd."  <<Node>> {
"Optimización independiente de la máquina" -right- -> "Optmización de código dependiente de la máquina":  representación intermedia
class "Optimización independiente de la máquina" {
 optimiza  para ser más rápido o eficiente en uso de energia(IR): IR
}
"Optmización de código dependiente de la máquina" -right- -> "Generador de código": código de máquina objetivo
class "Optmización de código dependiente de la máquina" {
  optimiza usando los mecanismos del lenguaje objetivo(IR)
}
class "Generador de código" {
   traduce a lenguaje objetivo(): lenguaje objetivo usualmente código máquina
}
"Generador de código" -right- -> TargetMachineCode
"Generador de código" <|- - LLVM
@enduml

PlantUML version 1.2022.8beta2(Unknown compile time)
(GPL source distribution)
Java Runtime: Java(TM) SE Runtime Environment
JVM: Java HotSpot(TM) 64-Bit Server VM
Default Encoding: UTF-8
Language: en
Country: US
--></g></svg>