<?xml version="1.0" encoding="windows-1252" standalone="no"?>
<svg xmlns="http://www.w3.org/2000/svg" xmlns:xlink="http://www.w3.org/1999/xlink" contentStyleType="text/css" height="2470px" preserveAspectRatio="none" style="width:1616px;height:2470px;background:#DDDDDD;" version="1.1" viewBox="0 0 1616 2470" width="1616px" zoomAndPan="magnify"><script xmlns=""/><defs/><g><rect fill="#DDDDDD" height="2470" style="stroke:none;stroke-width:1.0;" width="1616" x="0" y="0"/><!--cluster Sistema--><g id="cluster_Sistema"><rect fill="none" height="882" rx="3.5" ry="3.5" style="stroke:#454645;stroke-width:1.0;" width="891.5" x="658.5" y="1279"/><text fill="#000000" font-family="sans-serif" font-size="14" font-weight="bold" lengthAdjust="spacing" textLength="66" x="1071.25" y="1293.9951">Sistema</text></g><!--cluster Artefactos--><g id="cluster_Artefactos"><rect fill="none" height="245" rx="3.5" ry="3.5" style="stroke:#454645;stroke-width:1.0;" width="1469.5" x="76.5" y="2219"/><text fill="#000000" font-family="sans-serif" font-size="14" font-weight="bold" lengthAdjust="spacing" textLength="88" x="767.25" y="2233.9951">Artefactos</text></g><!--cluster Actividades--><g id="cluster_Actividades"><rect fill="none" height="1236" rx="3.5" ry="3.5" style="stroke:#454645;stroke-width:1.0;" width="327" x="7" y="7"/><text fill="#000000" font-family="sans-serif" font-size="14" font-weight="bold" lengthAdjust="spacing" textLength="95" x="123" y="21.9951">Actividades</text></g><g id="elem_Gestionar Usuarios"><ellipse cx="779.728" cy="1821.0456" fill="#F1F1F1" rx="85.728" ry="19.5456" style="stroke:#181818;stroke-width:0.5;"/><text fill="#000000" font-family="sans-serif" font-size="14" lengthAdjust="spacing" textLength="132" x="713.728" y="1823.8923">Gestionar Usuarios</text></g><g id="elem_Gestionar Roles"><ellipse cx="779.2532" cy="1747.9506" fill="#F1F1F1" rx="77.7532" ry="17.9506" style="stroke:#181818;stroke-width:0.5;"/><text fill="#000000" font-family="sans-serif" font-size="14" lengthAdjust="spacing" textLength="113" x="720.1994" y="1751.5809">Gestionar Roles</text></g><g id="elem_Analizar Requerimientos"><ellipse cx="779.4911" cy="1970.8982" fill="#F1F1F1" rx="104.9911" ry="23.3982" style="stroke:#181818;stroke-width:0.5;"/><text fill="#000000" font-family="sans-serif" font-size="14" lengthAdjust="spacing" textLength="175" x="691.9911" y="1973.7449">Analizar Requerimientos</text></g><g id="elem_Diseñar Sistema"><ellipse cx="779.4652" cy="1894.193" fill="#F1F1F1" rx="78.9652" ry="18.193" style="stroke:#181818;stroke-width:0.5;"/><text fill="#000000" font-family="sans-serif" font-size="14" lengthAdjust="spacing" textLength="116" x="719.4" y="1897.6886">Diseñar Sistema</text></g><g id="elem_Implementar Sistema"><ellipse cx="779.3591" cy="2051.1718" fill="#F1F1F1" rx="96.3591" ry="21.6718" style="stroke:#181818;stroke-width:0.5;"/><text fill="#000000" font-family="sans-serif" font-size="14" lengthAdjust="spacing" textLength="156" x="701.3591" y="2054.0185">Implementar Sistema</text></g><g id="elem_Realizar Pruebas"><ellipse cx="779.2839" cy="2125.8568" fill="#F1F1F1" rx="79.7839" ry="18.3568" style="stroke:#181818;stroke-width:0.5;"/><text fill="#000000" font-family="sans-serif" font-size="14" lengthAdjust="spacing" textLength="118" x="718.5356" y="2129.2613">Realizar Pruebas</text></g><g id="elem_Iniciar Sesión"><ellipse cx="779.4333" cy="1677.9867" fill="#F1F1F1" rx="70.4333" ry="16.4867" style="stroke:#181818;stroke-width:0.5;"/><text fill="#000000" font-family="sans-serif" font-size="14" lengthAdjust="spacing" textLength="94" x="729.4333" y="1681.7342">Iniciar Sesión</text></g><g id="elem_Consultar Perfil"><ellipse cx="779.5612" cy="1541.2122" fill="#F1F1F1" rx="76.5612" ry="17.7122" style="stroke:#181818;stroke-width:0.5;"/><text fill="#000000" font-family="sans-serif" font-size="14" lengthAdjust="spacing" textLength="110" x="721.5612" y="1544.9598">Consultar Perfil</text></g><g id="elem_Editar Perfil"><ellipse cx="779.6678" cy="1609.8336" fill="#F1F1F1" rx="67.1678" ry="15.8336" style="stroke:#181818;stroke-width:0.5;"/><text fill="#000000" font-family="sans-serif" font-size="14" lengthAdjust="spacing" textLength="85" x="734.1678" y="1613.5811">Editar Perfil</text></g><g id="elem_Realizar X característica"><ellipse cx="1425.0751" cy="1403.215" fill="#F1F1F1" rx="104.0751" ry="23.215" style="stroke:#181818;stroke-width:0.5;"/><text fill="#000000" font-family="sans-serif" font-size="14" lengthAdjust="spacing" textLength="173" x="1338.5751" y="1406.0617">Realizar X característica</text></g><g id="elem_Consultar"><ellipse cx="779.313" cy="1328.7771" fill="#F1F1F1" rx="60.813" ry="14.7771" style="stroke:#181818;stroke-width:0.5;"/><text fill="#000000" font-family="sans-serif" font-size="14" lengthAdjust="spacing" textLength="68" x="742.313" y="1332.5247">Consultar</text></g><g id="elem_Cerrar Sesión"><ellipse cx="779.6781" cy="1396.1356" fill="#F1F1F1" rx="71.1781" ry="16.6356" style="stroke:#181818;stroke-width:0.5;"/><text fill="#000000" font-family="sans-serif" font-size="14" lengthAdjust="spacing" textLength="96" x="728.6781" y="1399.8832">Cerrar Sesión</text></g><g id="elem_Consultar X característica"><ellipse cx="1425.1316" cy="1678.2263" fill="#F1F1F1" rx="109.1316" ry="24.2263" style="stroke:#181818;stroke-width:0.5;"/><text fill="#000000" font-family="sans-serif" font-size="14" lengthAdjust="spacing" textLength="184" x="1333.1316" y="1681.073">Consultar X característica</text></g><g id="elem_Consultar Productos"><ellipse cx="779.4996" cy="1468.0999" fill="#F1F1F1" rx="90.9996" ry="20.5999" style="stroke:#181818;stroke-width:0.5;"/><text fill="#000000" font-family="sans-serif" font-size="14" lengthAdjust="spacing" textLength="144" x="707.4996" y="1470.9466">Consultar Productos</text></g><g id="elem_Requerimientos"><ellipse cx="170.6551" cy="2427.031" fill="#F1F1F1" rx="78.1551" ry="18.031" style="stroke:#181818;stroke-width:0.5;"/><text fill="#000000" font-family="sans-serif" font-size="14" lengthAdjust="spacing" textLength="114" x="111.2659" y="2430.6166">Requerimientos</text></g><g id="elem_Diseño"><ellipse cx="170.6299" cy="2359.1562" fill="#F1F1F1" rx="46.6299" ry="14.6562" style="stroke:#181818;stroke-width:0.5;"/><text fill="#000000" font-family="sans-serif" font-size="14" lengthAdjust="spacing" textLength="49" x="143.1299" y="2362.9038">Diseño</text></g><g id="elem_Código"><ellipse cx="170.3761" cy="2295.1644" fill="#F1F1F1" rx="47.3761" ry="14.6644" style="stroke:#181818;stroke-width:0.5;"/><text fill="#000000" font-family="sans-serif" font-size="14" lengthAdjust="spacing" textLength="50" x="142.3761" y="2298.9119">Código</text></g><g id="elem_Pruebas"><ellipse cx="779.6007" cy="2427.215" fill="#F1F1F1" rx="52.6007" ry="14.715" style="stroke:#181818;stroke-width:0.5;"/><text fill="#000000" font-family="sans-serif" font-size="14" lengthAdjust="spacing" textLength="57" x="748.1007" y="2430.9626">Pruebas</text></g><g id="elem_Documentación"><ellipse cx="779.2532" cy="2358.9506" fill="#F1F1F1" rx="77.7532" ry="17.9506" style="stroke:#181818;stroke-width:0.5;"/><text fill="#000000" font-family="sans-serif" font-size="14" lengthAdjust="spacing" textLength="113" x="720.1994" y="2362.5809">Documentación</text></g><g id="elem_Plan de Proyecto"><ellipse cx="779.5271" cy="2287.1054" fill="#F1F1F1" rx="81.0271" ry="18.6054" style="stroke:#181818;stroke-width:0.5;"/><text fill="#000000" font-family="sans-serif" font-size="14" lengthAdjust="spacing" textLength="121" x="717.7415" y="2290.3718">Plan de Proyecto</text></g><g id="elem_Reporte de Progreso"><ellipse cx="1425.1693" cy="2427.1339" fill="#F1F1F1" rx="93.6693" ry="21.1339" style="stroke:#181818;stroke-width:0.5;"/><text fill="#000000" font-family="sans-serif" font-size="14" lengthAdjust="spacing" textLength="150" x="1350.1693" y="2429.9805">Reporte de Progreso</text></g><g id="elem_Calendario de Desarrollo"><ellipse cx="1424.9911" cy="2346.8982" fill="#F1F1F1" rx="104.9911" ry="23.3982" style="stroke:#181818;stroke-width:0.5;"/><text fill="#000000" font-family="sans-serif" font-size="14" lengthAdjust="spacing" textLength="175" x="1337.4911" y="2349.7449">Calendario de Desarrollo</text></g><g id="elem_Base de Datos"><ellipse cx="1424.9504" cy="2271.0901" fill="#F1F1F1" rx="73.4504" ry="17.0901" style="stroke:#181818;stroke-width:0.5;"/><text fill="#000000" font-family="sans-serif" font-size="14" lengthAdjust="spacing" textLength="102" x="1370.9504" y="2274.8376">Base de Datos</text></g><g id="elem_Recopilar Requerimientos"><ellipse cx="170.5557" cy="66.9111" fill="#F1F1F1" rx="110.0557" ry="24.4111" style="stroke:#181818;stroke-width:0.5;"/><text fill="#000000" font-family="sans-serif" font-size="14" lengthAdjust="spacing" textLength="186" x="77.5557" y="69.7578">Recopilar Requerimientos</text></g><g id="elem_Diseñar Interfaz de Usuario"><ellipse cx="170.3359" cy="151.9672" fill="#F1F1F1" rx="112.8359" ry="24.9672" style="stroke:#181818;stroke-width:0.5;"/><text fill="#000000" font-family="sans-serif" font-size="14" lengthAdjust="spacing" textLength="192" x="74.3359" y="154.8139">Diseñar Interfaz de Usuario</text></g><g id="elem_Diseñar Arquitectura del Sistema"><ellipse cx="170.5217" cy="241.1043" fill="#F1F1F1" rx="133.5217" ry="29.1043" style="stroke:#181818;stroke-width:0.5;"/><text fill="#000000" font-family="sans-serif" font-size="14" lengthAdjust="spacing" textLength="236" x="52.5217" y="243.951">Diseñar Arquitectura del Sistema</text></g><g id="elem_Implementar Código"><ellipse cx="170.2771" cy="325.9554" fill="#F1F1F1" rx="92.7771" ry="20.9554" style="stroke:#181818;stroke-width:0.5;"/><text fill="#000000" font-family="sans-serif" font-size="14" lengthAdjust="spacing" textLength="148" x="96.2771" y="328.8021">Implementar Código</text></g><g id="elem_Realizar Pruebas Unitarias"><ellipse cx="170.6316" cy="406.2263" fill="#F1F1F1" rx="109.1316" ry="24.2263" style="stroke:#181818;stroke-width:0.5;"/><text fill="#000000" font-family="sans-serif" font-size="14" lengthAdjust="spacing" textLength="184" x="78.6316" y="409.073">Realizar Pruebas Unitarias</text></g><g id="elem_Realizar Pruebas de Integración"><ellipse cx="170.2813" cy="493.1563" fill="#F1F1F1" rx="128.7813" ry="28.1563" style="stroke:#181818;stroke-width:0.5;"/><text fill="#000000" font-family="sans-serif" font-size="14" lengthAdjust="spacing" textLength="226" x="57.2813" y="496.0029">Realizar Pruebas de Integración</text></g><g id="elem_Realizar Pruebas de Sistema"><ellipse cx="170.4942" cy="581.8988" fill="#F1F1F1" rx="117.4942" ry="25.8988" style="stroke:#181818;stroke-width:0.5;"/><text fill="#000000" font-family="sans-serif" font-size="14" lengthAdjust="spacing" textLength="202" x="69.4942" y="584.7455">Realizar Pruebas de Sistema</text></g><g id="elem_Generar Documentación"><ellipse cx="170.4911" cy="666.8982" fill="#F1F1F1" rx="104.9911" ry="23.3982" style="stroke:#181818;stroke-width:0.5;"/><text fill="#000000" font-family="sans-serif" font-size="14" lengthAdjust="spacing" textLength="175" x="82.9911" y="669.7449">Generar Documentación</text></g><g id="elem_Generar Reporte de Progreso"><ellipse cx="170.6802" cy="752.836" fill="#F1F1F1" rx="122.1802" ry="26.836" style="stroke:#181818;stroke-width:0.5;"/><text fill="#000000" font-family="sans-serif" font-size="14" lengthAdjust="spacing" textLength="212" x="64.6802" y="755.6827">Generar Reporte de Progreso</text></g><g id="elem_Actualizar Calendario de Desarrollo"><ellipse cx="170.6894" cy="845.9379" fill="#F1F1F1" rx="140.1894" ry="30.4379" style="stroke:#181818;stroke-width:0.5;"/><text fill="#000000" font-family="sans-serif" font-size="14" lengthAdjust="spacing" textLength="250" x="45.6894" y="848.7846">Actualizar Calendario de Desarrollo</text></g><g id="elem_Configurar Base de Datos"><ellipse cx="170.7482" cy="935.9496" fill="#F1F1F1" rx="107.7482" ry="23.9496" style="stroke:#181818;stroke-width:0.5;"/><text fill="#000000" font-family="sans-serif" font-size="14" lengthAdjust="spacing" textLength="181" x="80.2482" y="938.7963">Configurar Base de Datos</text></g><g id="elem_Administrar Base de Datos"><ellipse cx="170.4079" cy="1019.7816" fill="#F1F1F1" rx="111.9079" ry="24.7816" style="stroke:#181818;stroke-width:0.5;"/><text fill="#000000" font-family="sans-serif" font-size="14" lengthAdjust="spacing" textLength="190" x="75.4079" y="1022.6283">Administrar Base de Datos</text></g><g id="elem_Mantener Base de Datos"><ellipse cx="170.4911" cy="1103.8982" fill="#F1F1F1" rx="104.9911" ry="23.3982" style="stroke:#181818;stroke-width:0.5;"/><text fill="#000000" font-family="sans-serif" font-size="14" lengthAdjust="spacing" textLength="175" x="82.9911" y="1106.7449">Mantener Base de Datos</text></g><g id="elem_Implementar Cambios en Producción"><ellipse cx="170.3682" cy="1194.8736" fill="#F1F1F1" rx="147.3682" ry="31.8736" style="stroke:#181818;stroke-width:0.5;"/><text fill="#000000" font-family="sans-serif" font-size="14" lengthAdjust="spacing" textLength="265" x="37.8682" y="1197.7203">Implementar Cambios en Producción</text></g><!--entity U--><g id="elem_U"><ellipse cx="170.5" cy="1449.5" fill="#454645" rx="4.5" ry="4.5" style="stroke:#454645;stroke-width:0.5;"/><path d="M158,1456 L158,1461 L167.5,1461 L167.5,1463.2574 L158,1472.7574 L162.2426,1477 L170.5,1468.7426 L178.7574,1477 L183,1472.7574 L173.5,1463.2574 L173.5,1461 L183,1461 L183,1456 L158,1456 " fill="#454645" style="stroke:#454645;stroke-width:0.5;"/><text fill="#454645" font-family="sans-serif" font-size="14" lengthAdjust="spacing" textLength="51" x="145" y="1490.4951">Usuario</text></g><!--entity A--><g id="elem_A"><ellipse cx="170.5" cy="1765.5" fill="#454645" rx="4.5" ry="4.5" style="stroke:#454645;stroke-width:0.5;"/><path d="M158,1772 L158,1777 L167.5,1777 L167.5,1779.2574 L158,1788.7574 L162.2426,1793 L170.5,1784.7426 L178.7574,1793 L183,1788.7574 L173.5,1779.2574 L173.5,1777 L183,1777 L183,1772 L158,1772 " fill="#454645" style="stroke:#454645;stroke-width:0.5;"/><text fill="#454645" font-family="sans-serif" font-size="14" lengthAdjust="spacing" textLength="102" x="119.5" y="1806.4951">Administrador</text></g><!--entity An--><g id="elem_An"><ellipse cx="170.5" cy="1912.5" fill="#454645" rx="4.5" ry="4.5" style="stroke:#454645;stroke-width:0.5;"/><path d="M158,1919 L158,1924 L167.5,1924 L167.5,1926.2574 L158,1935.7574 L162.2426,1940 L170.5,1931.7426 L178.7574,1940 L183,1935.7574 L173.5,1926.2574 L173.5,1924 L183,1924 L183,1919 L158,1919 " fill="#454645" style="stroke:#454645;stroke-width:0.5;"/><text fill="#454645" font-family="sans-serif" font-size="14" lengthAdjust="spacing" textLength="57" x="142" y="1953.4951">Analista</text></g><!--entity D--><g id="elem_D"><ellipse cx="170.5" cy="2027.5" fill="#454645" rx="4.5" ry="4.5" style="stroke:#454645;stroke-width:0.5;"/><path d="M158,2034 L158,2039 L167.5,2039 L167.5,2041.2574 L158,2050.7574 L162.2426,2055 L170.5,2046.7426 L178.7574,2055 L183,2050.7574 L173.5,2041.2574 L173.5,2039 L183,2039 L183,2034 L158,2034 " fill="#454645" style="stroke:#454645;stroke-width:0.5;"/><text fill="#454645" font-family="sans-serif" font-size="14" lengthAdjust="spacing" textLength="96" x="122.5" y="2068.4951">Desarrollador</text></g><!--entity T--><g id="elem_T"><ellipse cx="170.5" cy="2111.5" fill="#454645" rx="4.5" ry="4.5" style="stroke:#454645;stroke-width:0.5;"/><path d="M158,2118 L158,2123 L167.5,2123 L167.5,2125.2574 L158,2134.7574 L162.2426,2139 L170.5,2130.7426 L178.7574,2139 L183,2134.7574 L173.5,2125.2574 L173.5,2123 L183,2123 L183,2118 L158,2118 " fill="#454645" style="stroke:#454645;stroke-width:0.5;"/><text fill="#454645" font-family="sans-serif" font-size="14" lengthAdjust="spacing" textLength="47" x="147" y="2152.4951">Tester</text></g><g id="elem_GMN61"><path d="M587,58 L587,63 L280.72,67 L587,71 L587,76.1328 A3.5,3.5 0 0 0 590.5,79.6328 L968.5,79.6328 A3.5,3.5 0 0 0 972,76.1328 L972,64.5 L962,54.5 L590.5,54.5 A3.5,3.5 0 0 0 587,58 " fill="#90EE90" style="stroke:#454645;stroke-width:1.0;"/><path d="M962,54.5 L962,62.75 A1.75,1.75 0 0 0 963.75,64.5 L972,64.5 L962,54.5 " fill="#90EE90" style="stroke:#454645;stroke-width:1.0;"/><text fill="#454645" font-family="sans-serif" font-size="13" lengthAdjust="spacing" textLength="364" x="593" y="71.5669">Problema común: requisitos mal definidos o incompletos</text></g><g id="elem_GMN64"><path d="M1241,2181 L1241,2199.1328 A3.5,3.5 0 0 0 1244.5,2202.6328 L1605.5,2202.6328 A3.5,3.5 0 0 0 1609,2199.1328 L1609,2187.5 L1599,2177.5 L1244.5,2177.5 A3.5,3.5 0 0 0 1241,2181 " fill="#90EE90" style="stroke:#454645;stroke-width:1.0;"/><path d="M1599,2177.5 L1599,2185.75 A1.75,1.75 0 0 0 1600.75,2187.5 L1609,2187.5 L1599,2177.5 " fill="#90EE90" style="stroke:#454645;stroke-width:1.0;"/><text fill="#454645" font-family="sans-serif" font-size="13" lengthAdjust="spacing" textLength="347" x="1247" y="2194.5669">Problema común: falta de comunicación con el cliente</text></g><g id="elem_GMN67"><path d="M607,143 L607,148 L283.541,152 L607,156 L607,161.1328 A3.5,3.5 0 0 0 610.5,164.6328 L948.5,164.6328 A3.5,3.5 0 0 0 952,161.1328 L952,149.5 L942,139.5 L610.5,139.5 A3.5,3.5 0 0 0 607,143 " fill="#90EE90" style="stroke:#454645;stroke-width:1.0;"/><path d="M942,139.5 L942,147.75 A1.75,1.75 0 0 0 943.75,149.5 L952,149.5 L942,139.5 " fill="#90EE90" style="stroke:#454645;stroke-width:1.0;"/><text fill="#454645" font-family="sans-serif" font-size="13" lengthAdjust="spacing" textLength="324" x="613" y="156.5669">Problema común: interfaz poco intuitiva o confusa</text></g><g id="elem_GMN70"><path d="M586,317 L586,322 L263.69,326 L586,330 L586,335.1328 A3.5,3.5 0 0 0 589.5,338.6328 L969.5,338.6328 A3.5,3.5 0 0 0 973,335.1328 L973,323.5 L963,313.5 L589.5,313.5 A3.5,3.5 0 0 0 586,317 " fill="#90EE90" style="stroke:#454645;stroke-width:1.0;"/><path d="M963,313.5 L963,321.75 A1.75,1.75 0 0 0 964.75,323.5 L973,323.5 L963,313.5 " fill="#90EE90" style="stroke:#454645;stroke-width:1.0;"/><text fill="#454645" font-family="sans-serif" font-size="13" lengthAdjust="spacing" textLength="366" x="592" y="330.5669">Problema común: código poco legible o mal estructurado</text></g><g id="elem_GMN73"><path d="M614.5,397 L614.5,402 L279.67,406 L614.5,410 L614.5,415.1328 A3.5,3.5 0 0 0 618,418.6328 L941,418.6328 A3.5,3.5 0 0 0 944.5,415.1328 L944.5,403.5 L934.5,393.5 L618,393.5 A3.5,3.5 0 0 0 614.5,397 " fill="#90EE90" style="stroke:#454645;stroke-width:1.0;"/><path d="M934.5,393.5 L934.5,401.75 A1.75,1.75 0 0 0 936.25,403.5 L944.5,403.5 L934.5,393.5 " fill="#90EE90" style="stroke:#454645;stroke-width:1.0;"/><text fill="#454645" font-family="sans-serif" font-size="13" lengthAdjust="spacing" textLength="309" x="620.5" y="410.5669">Problema común: falta de cobertura de pruebas</text></g><g id="elem_GMN76"><path d="M573.5,484 L573.5,489 L299.858,493 L573.5,497 L573.5,502.1328 A3.5,3.5 0 0 0 577,505.6328 L982,505.6328 A3.5,3.5 0 0 0 985.5,502.1328 L985.5,490.5 L975.5,480.5 L577,480.5 A3.5,3.5 0 0 0 573.5,484 " fill="#90EE90" style="stroke:#454645;stroke-width:1.0;"/><path d="M975.5,480.5 L975.5,488.75 A1.75,1.75 0 0 0 977.25,490.5 L985.5,490.5 L975.5,480.5 " fill="#90EE90" style="stroke:#454645;stroke-width:1.0;"/><text fill="#454645" font-family="sans-serif" font-size="13" lengthAdjust="spacing" textLength="391" x="579.5" y="497.5669">Problema común: dificultad para integrar diferentes módulos</text></g><g id="elem_GMN79"><path d="M616.5,573 L616.5,578 L288.176,582 L616.5,586 L616.5,591.1328 A3.5,3.5 0 0 0 620,594.6328 L939,594.6328 A3.5,3.5 0 0 0 942.5,591.1328 L942.5,579.5 L932.5,569.5 L620,569.5 A3.5,3.5 0 0 0 616.5,573 " fill="#90EE90" style="stroke:#454645;stroke-width:1.0;"/><path d="M932.5,569.5 L932.5,577.75 A1.75,1.75 0 0 0 934.25,579.5 L942.5,579.5 L932.5,569.5 " fill="#90EE90" style="stroke:#454645;stroke-width:1.0;"/><text fill="#454645" font-family="sans-serif" font-size="13" lengthAdjust="spacing" textLength="305" x="622.5" y="586.5669">Problema común: falta de pruebas exhaustivas</text></g><g id="elem_GMN82"><path d="M567,658 L567,663 L275.502,667 L567,671 L567,676.1328 A3.5,3.5 0 0 0 570.5,679.6328 L988.5,679.6328 A3.5,3.5 0 0 0 992,676.1328 L992,664.5 L982,654.5 L570.5,654.5 A3.5,3.5 0 0 0 567,658 " fill="#90EE90" style="stroke:#454645;stroke-width:1.0;"/><path d="M982,654.5 L982,662.75 A1.75,1.75 0 0 0 983.75,664.5 L992,664.5 L982,654.5 " fill="#90EE90" style="stroke:#454645;stroke-width:1.0;"/><text fill="#454645" font-family="sans-serif" font-size="13" lengthAdjust="spacing" textLength="404" x="573" y="671.5669">Problema común: documentación incompleta o desactualizada</text></g><g id="elem_GMN85"><path d="M583,837 L583,842 L310.758,846 L583,850 L583,855.1328 A3.5,3.5 0 0 0 586.5,858.6328 L972.5,858.6328 A3.5,3.5 0 0 0 976,855.1328 L976,843.5 L966,833.5 L586.5,833.5 A3.5,3.5 0 0 0 583,837 " fill="#90EE90" style="stroke:#454645;stroke-width:1.0;"/><path d="M966,833.5 L966,841.75 A1.75,1.75 0 0 0 967.75,843.5 L976,843.5 L966,833.5 " fill="#90EE90" style="stroke:#454645;stroke-width:1.0;"/><text fill="#454645" font-family="sans-serif" font-size="13" lengthAdjust="spacing" textLength="372" x="589" y="850.5669">Problema común: retrasos en el cronograma del proyecto</text></g><g id="elem_GMN88"><path d="M505,927 L505,932 L278.274,936 L505,940 L505,945.1328 A3.5,3.5 0 0 0 508.5,948.6328 L1050.5,948.6328 A3.5,3.5 0 0 0 1054,945.1328 L1054,933.5 L1044,923.5 L508.5,923.5 A3.5,3.5 0 0 0 505,927 " fill="#90EE90" style="stroke:#454645;stroke-width:1.0;"/><path d="M1044,923.5 L1044,931.75 A1.75,1.75 0 0 0 1045.75,933.5 L1054,933.5 L1044,923.5 " fill="#90EE90" style="stroke:#454645;stroke-width:1.0;"/><text fill="#454645" font-family="sans-serif" font-size="13" lengthAdjust="spacing" textLength="528" x="511" y="940.5669">Problema común: problemas de seguridad en la configuración de la base de datos</text></g><g id="elem_GMN91"><path d="M494,1011 L494,1016 L282.833,1020 L494,1024 L494,1029.1328 A3.5,3.5 0 0 0 497.5,1032.6328 L1061.5,1032.6328 A3.5,3.5 0 0 0 1065,1029.1328 L1065,1017.5 L1055,1007.5 L497.5,1007.5 A3.5,3.5 0 0 0 494,1011 " fill="#90EE90" style="stroke:#454645;stroke-width:1.0;"/><path d="M1055,1007.5 L1055,1015.75 A1.75,1.75 0 0 0 1056.75,1017.5 L1065,1017.5 L1055,1007.5 " fill="#90EE90" style="stroke:#454645;stroke-width:1.0;"/><text fill="#454645" font-family="sans-serif" font-size="13" lengthAdjust="spacing" textLength="550" x="500" y="1024.5669">Problema común: problemas de rendimiento en la administración de la base de datos</text></g><g id="elem_GMN94"><path d="M557.5,1095 L557.5,1100 L275.502,1104 L557.5,1108 L557.5,1113.1328 A3.5,3.5 0 0 0 561,1116.6328 L998,1116.6328 A3.5,3.5 0 0 0 1001.5,1113.1328 L1001.5,1101.5 L991.5,1091.5 L561,1091.5 A3.5,3.5 0 0 0 557.5,1095 " fill="#90EE90" style="stroke:#454645;stroke-width:1.0;"/><path d="M991.5,1091.5 L991.5,1099.75 A1.75,1.75 0 0 0 993.25,1101.5 L1001.5,1101.5 L991.5,1091.5 " fill="#90EE90" style="stroke:#454645;stroke-width:1.0;"/><text fill="#454645" font-family="sans-serif" font-size="13" lengthAdjust="spacing" textLength="423" x="563.5" y="1108.5669">Problema común: falta de actualizaciones y parches de seguridad</text></g><g id="elem_GMN97"><path d="M378,1186 L378,1191 L318.051,1195 L378,1199 L378,1204.1328 A3.5,3.5 0 0 0 381.5,1207.6328 L1177.5,1207.6328 A3.5,3.5 0 0 0 1181,1204.1328 L1181,1192.5 L1171,1182.5 L381.5,1182.5 A3.5,3.5 0 0 0 378,1186 " fill="#90EE90" style="stroke:#454645;stroke-width:1.0;"/><path d="M1171,1182.5 L1171,1190.75 A1.75,1.75 0 0 0 1172.75,1192.5 L1181,1192.5 L1171,1182.5 " fill="#90EE90" style="stroke:#454645;stroke-width:1.0;"/><text fill="#454645" font-family="sans-serif" font-size="13" lengthAdjust="spacing" textLength="782" x="384" y="1199.5669">Problema común: errores o interrupciones en el servicio durante el proceso de implementación de cambios en producción</text></g><!--link A to Gestionar Usuarios--><g id="link_A_Gestionar Usuarios"><path d="M221.69,1787.977 C324.928,1794.1 562.19,1808.171 691.166,1815.82 " fill="none" id="A-to-Gestionar Usuarios" style="stroke:#454645;stroke-width:1.0;"/><polygon fill="#454645" points="696.467,1816.135,687.7193,1811.6097,691.4758,1815.8393,687.2462,1819.5957,696.467,1816.135" style="stroke:#454645;stroke-width:1.0;"/></g><!--link A to Gestionar Roles--><g id="link_A_Gestionar Roles"><path d="M221.69,1781.941 C326.959,1775.524 571.578,1760.613 698.651,1752.867 " fill="none" id="A-to-Gestionar Roles" style="stroke:#454645;stroke-width:1.0;"/><polygon fill="#454645" points="703.867,1752.549,694.6402,1749.1042,698.8763,1752.8533,695.1272,1757.0894,703.867,1752.549" style="stroke:#454645;stroke-width:1.0;"/></g><!--link An to Analizar Requerimientos--><g id="link_An_Analizar Requerimientos"><path d="M199.159,1933.777 C281.789,1939.086 529.944,1955.03 673.253,1964.238 " fill="none" id="An-to-Analizar Requerimientos" style="stroke:#454645;stroke-width:1.0;"/><polygon fill="#454645" points="678.306,1964.563,669.5817,1959.9927,673.3163,1964.2416,669.0675,1967.9762,678.306,1964.563" style="stroke:#454645;stroke-width:1.0;"/></g><!--link An to Dise?ar Sistema--><g id="link_An_Diseñar Sistema"><path d="M199.159,1930.268 C286.745,1924.785 560.307,1907.66 697.849,1899.049 " fill="none" id="An-to-Diseñar Sistema" style="stroke:#454645;stroke-width:1.0;"/><polygon fill="#454645" points="703.087,1898.721,693.8543,1895.292,698.0968,1899.0339,694.3549,1903.2763,703.087,1898.721" style="stroke:#454645;stroke-width:1.0;"/></g><!--link D to Implementar Sistema--><g id="link_D_Implementar Sistema"><path d="M218.625,2047.311 C316.805,2047.958 545.14,2049.462 677.901,2050.337 " fill="none" id="D-to-Implementar Sistema" style="stroke:#454645;stroke-width:1.0;"/><polygon fill="#454645" points="682.974,2050.371,674.0005,2046.3119,677.9741,2050.3381,673.9479,2054.3118,682.974,2050.371" style="stroke:#454645;stroke-width:1.0;"/></g><!--link T to Realizar Pruebas--><g id="link_T_Realizar Pruebas"><path d="M194.187,2130.813 C275.147,2130.146 552.543,2127.861 694.034,2126.696 " fill="none" id="T-to-Realizar Pruebas" style="stroke:#454645;stroke-width:1.0;"/><polygon fill="#454645" points="699.424,2126.651,690.3912,2122.7257,694.4242,2126.6924,690.4575,2130.7254,699.424,2126.651" style="stroke:#454645;stroke-width:1.0;"/></g><!--link U to Iniciar Sesi?n--><g id="link_U_Iniciar Sesión"><path d="M191.271,1493.574 C224.849,1533.275 297.285,1610.458 378,1644 C486.769,1689.201 626.219,1689.576 708.604,1684.587 " fill="none" id="U-to-Iniciar Sesión" style="stroke:#454645;stroke-width:1.0;"/><polygon fill="#454645" points="713.947,1684.251,704.7134,1680.8246,708.9569,1684.5653,705.2162,1688.8088,713.947,1684.251" style="stroke:#454645;stroke-width:1.0;"/></g><!--link U to Consultar Perfil--><g id="link_U_Consultar Perfil"><path d="M196.181,1474.17 C234.798,1482.081 311.93,1497.212 378,1506 C489.367,1520.813 619.025,1530.835 699.942,1536.235 " fill="none" id="U-to-Consultar Perfil" style="stroke:#454645;stroke-width:1.0;"/><polygon fill="#454645" points="705.201,1536.584,696.486,1531.9962,700.212,1536.2525,695.9556,1539.9786,705.201,1536.584" style="stroke:#454645;stroke-width:1.0;"/></g><!--link U to Editar Perfil--><g id="link_U_Editar Perfil"><path d="M196.209,1485.945 C233.634,1510.62 307.791,1555.706 378,1576 C490.007,1608.375 626.408,1612.973 707.651,1612.261 " fill="none" id="U-to-Editar Perfil" style="stroke:#454645;stroke-width:1.0;"/><polygon fill="#454645" points="712.921,1612.207,703.8792,1608.3024,707.9213,1612.2599,703.9638,1616.3019,712.921,1612.207" style="stroke:#454645;stroke-width:1.0;"/></g><!--link U to Realizar X caracter?stica--><g id="link_U_Realizar X característica"><path d="M190.804,1444.4 C223.976,1404.37 296.177,1326.61 378,1297 C545.793,1236.27 1006.32,1260.56 1181,1297 C1256.08,1312.66 1336.37,1352.84 1383.28,1378.99 " fill="none" id="U-to-Realizar X característica" style="stroke:#454645;stroke-width:1.0;"/><polygon fill="#454645" points="1387.71,1381.47,1381.8048,1373.5878,1383.3453,1379.0309,1377.9022,1380.5714,1387.71,1381.47" style="stroke:#454645;stroke-width:1.0;"/></g><!--link U to Consultar--><g id="link_U_Consultar"><path d="M196.202,1452.03 C233.619,1427.33 307.766,1382.21 378,1362 C492.976,1328.92 633.626,1325.35 713.963,1326.6 " fill="none" id="U-to-Consultar" style="stroke:#454645;stroke-width:1.0;"/><polygon fill="#454645" points="719.167,1326.69,710.2369,1322.5363,714.1677,1326.6043,710.0998,1330.5351,719.167,1326.69" style="stroke:#454645;stroke-width:1.0;"/></g><!--link U to Cerrar Sesi?n--><g id="link_U_Cerrar Sesión"><path d="M196.16,1463.5 C234.75,1455.08 311.847,1439.03 378,1430 C491.66,1414.48 624.495,1404.87 705.011,1399.98 " fill="none" id="U-to-Cerrar Sesión" style="stroke:#454645;stroke-width:1.0;"/><polygon fill="#454645" points="710.238,1399.67,701.0136,1396.2188,705.2471,1399.9709,701.495,1404.2043,710.238,1399.67" style="stroke:#454645;stroke-width:1.0;"/></g><!--link Iniciar Sesi?n to Consultar X caracter?stica--><g id="link_Iniciar Sesión_Consultar X característica"><path d="M850.284,1678 C960.95,1678 1177.77,1678 1310.86,1678 " fill="none" id="Iniciar Sesión-to-Consultar X característica" style="stroke:#454645;stroke-width:1.0;"/><polygon fill="#454645" points="1315.96,1678,1306.96,1674,1310.96,1678,1306.96,1682,1315.96,1678" style="stroke:#454645;stroke-width:1.0;"/></g><!--link Consultar Productos to Realizar X caracter?stica--><g id="link_Consultar Productos_Realizar X característica"><path d="M864.149,1460.46 C945.2,1453.06 1071.58,1441.27 1181,1430 C1229.18,1425.04 1282.68,1419.14 1327.2,1414.12 " fill="none" id="Consultar Productos-to-Realizar X característica" style="stroke:#454645;stroke-width:1.0;"/><polygon fill="#454645" points="1332.3,1413.54,1322.9105,1410.5672,1327.3311,1414.0969,1323.8015,1418.5175,1332.3,1413.54" style="stroke:#454645;stroke-width:1.0;"/></g><!--link Analizar Requerimientos to GMN64--><g id="link_Analizar Requerimientos_GMN64"><path d="M862.205,1956.477 C949.952,1945.658 1089.12,1942.876 1181,2012 C1238.05,2054.919 1185.16,2116.524 1241,2161 C1249.3,2167.613 1258.51,2173.003 1268.24,2177.376 " fill="none" id="Analizar Requerimientos-GMN64" style="stroke:#454645;stroke-width:1.0;stroke-dasharray:7.0,7.0;"/></g><!--SRC=[ZLQxRXin4Epr5Kpd5Fu15m6KA71S133y0DAko3s928yyatTEv22Vb29mbrO_bk6HEjz9bEnEuYntbZkpAxrhrropQDrc5hvhsv2dMf1idRzjDuR55sUC-o5cXgiMKSBhrReLIdkMhNPsreUA-z2HrqvG4FVvQAvgRNLeFIby0p3V0POCpga_soLOS23lmRMBNcJWZaFB_SdTR1P9oQvGrYqoS4tYrqo8kJW__o3EBX69YcYe9hmlWJVES49iWlfwdYB23nrxNMkshPk4B7JWxL-4PDg8BH9qLJS63RJj5BrBw0tdtDU-uoNrIU_pHQkbZfSuwEsp7I6Vd0sTYGclsLVQZA3FIXVF1vvlGa91YPPj_-35aafvnsVi_RI8WyBsYofIZ8lsJdKoTl3rsdwFDPtxbgkeUkXbFJlK8mlX4kFsMUbL-Zngxzd2oQuNH0vFkZPaXU9OsWPqwSuDDmwC-NpbEUIyPDYgtiw01cCcy2E5_iQ2-fAczMCY7hKYnSC3f6kqALhhbErU_7PbqQsAdY9bTlKqOEuVEjsYXCuJWipOWnDlZhkrxqfnRwEjT6xW0GpoMCZAZrfQ2XfpNxBbwAo26Zlec03eOvUJdzG2bglqgekfzcI9IORrKqA_4jw3AWhGf6bKBx571Dliwlm8o6uTAa_Bq5KdfBw8DvScxYhfwkq_Uo4y8dJGqUSr6R1Ng5JXcnFQ8WZymFOPZlcbG50H1Z6-2WSTfZdr7j-iW4EaYJTvF_z9pnL8z2wiSJ8MtiA7-f7m2F1KNQ1zWf8R2tbbWb9QmoiD64bZfx33VTTRNRb30Ovw-dI7bkppy8WcNNqrzVuy50YKhhIC-r29-9FQTsiLlGY0VUm_nCTBE-FUnBSRhLDloUKB_hccBaGn3b8VcShI0oOHByQC0cF1qMv6rO7ERndVubHWLaCQjkXIxons0jLfhJLvS- -J7Tq11OOc7_GD3OnRSLb7FaEzQVj4wRs8mE4ofrHK6iYZ6-OrRkYlylncTXfolPd-o0exPP11D8c_GZ3W9dfJhddQa9DpMrw81LByht3OwFrEmwBmNPD9axo1_IF-Pi0NQ3a2HD9OuZSW5gC7pg4VyeMwUQ7-3m00]--></g></svg>