<?xml version="1.0" encoding="windows-1252" standalone="no"?>
<svg xmlns="http://www.w3.org/2000/svg" xmlns:xlink="http://www.w3.org/1999/xlink" contentStyleType="text/css" height="2887.5px" preserveAspectRatio="none" style="width:1318px;height:2887px;" version="1.1" viewBox="0 0 1318 2887" width="1318.75px" zoomAndPan="magnify"><script xmlns=""/><defs><linearGradient id="g19f9jceddwkor0" x1="50%" x2="50%" y1="0%" y2="100%"><stop offset="0%" stop-color="#FFFFFF"/><stop offset="100%" stop-color="#FFFFFF"/></linearGradient><filter height="300%" id="f19f9jceddwkor" width="300%" x="-1" y="-1"><feGaussianBlur result="blurOut" stdDeviation="2.0833333333333335"/><feColorMatrix in="blurOut" result="blurOut2" type="matrix" values="0 0 0 0 0 0 0 0 0 0 0 0 0 0 0 0 0 0 .4 0"/><feOffset dx="4.166666666666667" dy="4.166666666666667" in="blurOut2" result="blurOut3"/><feBlend in="SourceGraphic" in2="blurOut3" mode="normal"/></filter></defs><g><rect fill="url(#g19f9jceddwkor0)" filter="url(#f19f9jceddwkor)" height="45.8008" rx="4.1667" ry="4.1667" style="stroke:#222222;stroke-width:1.0416666666666667;" width="126.0417" x="10.4167" y="1420.1497"/><text fill="#222222" font-family="Verdana" font-size="12.5" lengthAdjust="spacing" textLength="94.7917" x="26.0417" y="1447.3775">Communication</text><rect fill="url(#g19f9jceddwkor0)" filter="url(#f19f9jceddwkor)" height="45.8008" rx="4.1667" ry="4.1667" style="stroke:#222222;stroke-width:1.0416666666666667;" width="95.8333" x="188.5417" y="254.0527"/><text fill="#222222" font-family="Verdana" font-size="12.5" lengthAdjust="spacing" textLength="64.5833" x="204.1667" y="281.2805">OSI Model</text><rect fill="url(#g19f9jceddwkor0)" filter="url(#f19f9jceddwkor)" height="45.8008" rx="4.1667" ry="4.1667" style="stroke:#222222;stroke-width:1.0416666666666667;" width="94.7917" x="336.4583" y="154.1016"/><text fill="#222222" font-family="Verdana" font-size="12.5" lengthAdjust="spacing" textLength="63.5417" x="352.0833" y="181.3293">What is it?</text><rect fill="url(#g19f9jceddwkor0)" filter="url(#f19f9jceddwkor)" height="45.8008" rx="4.1667" ry="4.1667" style="stroke:#222222;stroke-width:1.0416666666666667;" width="190.625" x="483.3333" y="54.1504"/><text fill="#222222" font-family="Verdana" font-size="12.5" lengthAdjust="spacing" textLength="159.375" x="498.9583" y="81.3782">Communication protocols</text><rect fill="url(#g19f9jceddwkor0)" filter="url(#f19f9jceddwkor)" height="45.8008" rx="4.1667" ry="4.1667" style="stroke:#222222;stroke-width:1.0416666666666667;" width="491.6667" x="726.0417" y="20.8333"/><text fill="#222222" font-family="Verdana" font-size="12.5" lengthAdjust="spacing" textLength="460.4167" x="741.6667" y="48.0611">Application, Presentation, Session, Transport, Network, Data link, Physical</text><path d="M673.9583,77.0508 L684.375,77.0508 C700,77.0508 700,43.7337 715.625,43.7337 L726.0417,43.7337 " fill="none" style="stroke:#2196F3;stroke-width:3.125;"/><rect fill="url(#g19f9jceddwkor0)" filter="url(#f19f9jceddwkor)" height="45.8008" rx="4.1667" ry="4.1667" style="stroke:#222222;stroke-width:1.0416666666666667;" width="334.375" x="726.0417" y="87.4674"/><text fill="#222222" font-family="Verdana" font-size="12.5" lengthAdjust="spacing" textLength="303.125" x="741.6667" y="114.6952">Message = payload + header for each protocol</text><path d="M673.9583,77.0508 L684.375,77.0508 C700,77.0508 700,110.3678 715.625,110.3678 L726.0417,110.3678 " fill="none" style="stroke:#2196F3;stroke-width:3.125;"/><path d="M431.25,177.002 L441.6667,177.002 C457.2917,177.002 457.2917,77.0508 472.9167,77.0508 L483.3333,77.0508 " fill="none" style="stroke:#2196F3;stroke-width:3.125;"/><rect fill="url(#g19f9jceddwkor0)" filter="url(#f19f9jceddwkor)" height="45.8008" rx="4.1667" ry="4.1667" style="stroke:#222222;stroke-width:1.0416666666666667;" width="168.75" x="483.3333" y="220.7357"/><text fill="#222222" font-family="Verdana" font-size="12.5" lengthAdjust="spacing" textLength="137.5" x="498.9583" y="247.9635">Middleware protocols</text><rect fill="url(#g19f9jceddwkor0)" filter="url(#f19f9jceddwkor)" height="45.8008" rx="4.1667" ry="4.1667" style="stroke:#222222;stroke-width:1.0416666666666667;" width="94.7917" x="704.1667" y="154.1016"/><text fill="#222222" font-family="Verdana" font-size="12.5" lengthAdjust="spacing" textLength="63.5417" x="719.7917" y="181.3293">What is it?</text><rect fill="url(#g19f9jceddwkor0)" filter="url(#f19f9jceddwkor)" height="45.8008" rx="4.1667" ry="4.1667" style="stroke:#222222;stroke-width:1.0416666666666667;" width="379.1667" x="851.0417" y="154.1016"/><text fill="#222222" font-family="Verdana" font-size="12.5" lengthAdjust="spacing" textLength="347.9167" x="866.6667" y="181.3293">General-purpose protocols that warrant their own layer</text><path d="M798.9583,177.002 L809.375,177.002 C825,177.002 825,177.002 840.625,177.002 L851.0417,177.002 " fill="none" style="stroke:#2196F3;stroke-width:3.125;"/><path d="M652.0833,243.6361 L662.5,243.6361 C678.125,243.6361 678.125,177.002 693.75,177.002 L704.1667,177.002 " fill="none" style="stroke:#2196F3;stroke-width:3.125;"/><rect fill="url(#g19f9jceddwkor0)" filter="url(#f19f9jceddwkor)" height="45.8008" rx="4.1667" ry="4.1667" style="stroke:#222222;stroke-width:1.0416666666666667;" width="91.6667" x="704.1667" y="254.0527"/><text fill="#222222" font-family="Verdana" font-size="12.5" lengthAdjust="spacing" textLength="60.4167" x="719.7917" y="281.2805">Examples</text><rect fill="url(#g19f9jceddwkor0)" filter="url(#f19f9jceddwkor)" height="45.8008" rx="4.1667" ry="4.1667" style="stroke:#222222;stroke-width:1.0416666666666667;" width="57.2917" x="847.9167" y="220.7357"/><text fill="#222222" font-family="Verdana" font-size="12.5" lengthAdjust="spacing" textLength="26.0417" x="863.5417" y="247.9635">DNS</text><path d="M795.8333,276.9531 L806.25,276.9531 C821.875,276.9531 821.875,243.6361 837.5,243.6361 L847.9167,243.6361 " fill="none" style="stroke:#2196F3;stroke-width:3.125;"/><rect fill="url(#g19f9jceddwkor0)" filter="url(#f19f9jceddwkor)" height="45.8008" rx="4.1667" ry="4.1667" style="stroke:#222222;stroke-width:1.0416666666666667;" width="294.7917" x="847.9167" y="287.3698"/><text fill="#222222" font-family="Verdana" font-size="12.5" lengthAdjust="spacing" textLength="263.5417" x="863.5417" y="314.5976">Authentication and authorization protocols</text><path d="M795.8333,276.9531 L806.25,276.9531 C821.875,276.9531 821.875,310.2702 837.5,310.2702 L847.9167,310.2702 " fill="none" style="stroke:#2196F3;stroke-width:3.125;"/><path d="M652.0833,243.6361 L662.5,243.6361 C678.125,243.6361 678.125,276.9531 693.75,276.9531 L704.1667,276.9531 " fill="none" style="stroke:#2196F3;stroke-width:3.125;"/><path d="M431.25,177.002 L441.6667,177.002 C457.2917,177.002 457.2917,243.6361 472.9167,243.6361 L483.3333,243.6361 " fill="none" style="stroke:#2196F3;stroke-width:3.125;"/><path d="M284.375,276.9531 L294.7917,276.9531 C310.4167,276.9531 310.4167,177.002 326.0417,177.002 L336.4583,177.002 " fill="none" style="stroke:#2196F3;stroke-width:3.125;"/><rect fill="url(#g19f9jceddwkor0)" filter="url(#f19f9jceddwkor)" height="45.8008" rx="4.1667" ry="4.1667" style="stroke:#222222;stroke-width:1.0416666666666667;" width="64.5833" x="336.4583" y="354.0039"/><text fill="#222222" font-family="Verdana" font-size="12.5" lengthAdjust="spacing" textLength="33.3333" x="352.0833" y="381.2317">Why?</text><rect fill="url(#g19f9jceddwkor0)" filter="url(#f19f9jceddwkor)" height="45.8008" rx="4.1667" ry="4.1667" style="stroke:#222222;stroke-width:1.0416666666666667;" width="472.9167" x="453.125" y="354.0039"/><text fill="#222222" font-family="Verdana" font-size="12.5" lengthAdjust="spacing" textLength="441.6667" x="468.75" y="381.2317">It allows thinking about open systems to communicate with each other</text><path d="M401.0417,376.9043 L411.4583,376.9043 C427.0833,376.9043 427.0833,376.9043 442.7083,376.9043 L453.125,376.9043 " fill="none" style="stroke:#2196F3;stroke-width:3.125;"/><path d="M284.375,276.9531 L294.7917,276.9531 C310.4167,276.9531 310.4167,376.9043 326.0417,376.9043 L336.4583,376.9043 " fill="none" style="stroke:#2196F3;stroke-width:3.125;"/><rect fill="url(#g19f9jceddwkor0)" filter="url(#f19f9jceddwkor)" height="45.8008" rx="4.1667" ry="4.1667" style="stroke:#222222;stroke-width:1.0416666666666667;" width="91.6667" x="336.4583" y="453.9551"/><text fill="#222222" font-family="Verdana" font-size="12.5" lengthAdjust="spacing" textLength="60.4167" x="352.0833" y="481.1829">Examples</text><rect fill="url(#g19f9jceddwkor0)" filter="url(#f19f9jceddwkor)" height="45.8008" rx="4.1667" ry="4.1667" style="stroke:#222222;stroke-width:1.0416666666666667;" width="185.4167" x="480.2083" y="420.638"/><text fill="#222222" font-family="Verdana" font-size="12.5" lengthAdjust="spacing" textLength="154.1667" x="495.8333" y="447.8658">Connectionless services</text><rect fill="url(#g19f9jceddwkor0)" filter="url(#f19f9jceddwkor)" height="45.8008" rx="4.1667" ry="4.1667" style="stroke:#222222;stroke-width:1.0416666666666667;" width="63.5417" x="717.7083" y="420.638"/><text fill="#222222" font-family="Verdana" font-size="12.5" lengthAdjust="spacing" textLength="32.2917" x="733.3333" y="447.8658">Email</text><path d="M665.625,443.5384 L676.0417,443.5384 C691.6667,443.5384 691.6667,443.5384 707.2917,443.5384 L717.7083,443.5384 " fill="none" style="stroke:#2196F3;stroke-width:3.125;"/><path d="M428.125,476.8555 L438.5417,476.8555 C454.1667,476.8555 454.1667,443.5384 469.7917,443.5384 L480.2083,443.5384 " fill="none" style="stroke:#2196F3;stroke-width:3.125;"/><rect fill="url(#g19f9jceddwkor0)" filter="url(#f19f9jceddwkor)" height="45.8008" rx="4.1667" ry="4.1667" style="stroke:#222222;stroke-width:1.0416666666666667;" width="257.2917" x="480.2083" y="487.2721"/><text fill="#222222" font-family="Verdana" font-size="12.5" lengthAdjust="spacing" textLength="226.0417" x="495.8333" y="514.4999">Connection-oriented communication</text><rect fill="url(#g19f9jceddwkor0)" filter="url(#f19f9jceddwkor)" height="45.8008" rx="4.1667" ry="4.1667" style="stroke:#222222;stroke-width:1.0416666666666667;" width="97.9167" x="789.5833" y="487.2721"/><text fill="#222222" font-family="Verdana" font-size="12.5" lengthAdjust="spacing" textLength="66.6667" x="805.2083" y="514.4999">Telephone</text><path d="M737.5,510.1725 L747.9167,510.1725 C763.5417,510.1725 763.5417,510.1725 779.1667,510.1725 L789.5833,510.1725 " fill="none" style="stroke:#2196F3;stroke-width:3.125;"/><path d="M428.125,476.8555 L438.5417,476.8555 C454.1667,476.8555 454.1667,510.1725 469.7917,510.1725 L480.2083,510.1725 " fill="none" style="stroke:#2196F3;stroke-width:3.125;"/><path d="M284.375,276.9531 L294.7917,276.9531 C310.4167,276.9531 310.4167,476.8555 326.0417,476.8555 L336.4583,476.8555 " fill="none" style="stroke:#2196F3;stroke-width:3.125;"/><path d="M136.4583,1443.0501 L146.875,1443.0501 C162.5,1443.0501 162.5,276.9531 178.125,276.9531 L188.5417,276.9531 " fill="none" style="stroke:#2196F3;stroke-width:3.125;"/><rect fill="url(#g19f9jceddwkor0)" filter="url(#f19f9jceddwkor)" height="45.8008" rx="4.1667" ry="4.1667" style="stroke:#222222;stroke-width:1.0416666666666667;" width="175" x="188.5417" y="920.3939"/><text fill="#222222" font-family="Verdana" font-size="12.5" lengthAdjust="spacing" textLength="143.75" x="204.1667" y="947.6217">Remote procedure call</text><rect fill="url(#g19f9jceddwkor0)" filter="url(#f19f9jceddwkor)" height="45.8008" rx="4.1667" ry="4.1667" style="stroke:#222222;stroke-width:1.0416666666666667;" width="64.5833" x="415.625" y="553.9063"/><text fill="#222222" font-family="Verdana" font-size="12.5" lengthAdjust="spacing" textLength="33.3333" x="431.25" y="581.134">Why?</text><rect fill="url(#g19f9jceddwkor0)" filter="url(#f19f9jceddwkor)" height="45.8008" rx="4.1667" ry="4.1667" style="stroke:#222222;stroke-width:1.0416666666666667;" width="167.7083" x="532.2917" y="553.9063"/><text fill="#222222" font-family="Verdana" font-size="12.5" lengthAdjust="spacing" textLength="136.4583" x="547.9167" y="581.134">Achieve transparency</text><path d="M480.2083,576.8066 L490.625,576.8066 C506.25,576.8066 506.25,576.8066 521.875,576.8066 L532.2917,576.8066 " fill="none" style="stroke:#2196F3;stroke-width:3.125;"/><path d="M363.5417,943.2943 L373.9583,943.2943 C389.5833,943.2943 389.5833,576.8066 405.2083,576.8066 L415.625,576.8066 " fill="none" style="stroke:#2196F3;stroke-width:3.125;"/><rect fill="url(#g19f9jceddwkor0)" filter="url(#f19f9jceddwkor)" height="45.8008" rx="4.1667" ry="4.1667" style="stroke:#222222;stroke-width:1.0416666666666667;" width="94.7917" x="415.625" y="620.5404"/><text fill="#222222" font-family="Verdana" font-size="12.5" lengthAdjust="spacing" textLength="63.5417" x="431.25" y="647.7681">What is it?</text><rect fill="url(#g19f9jceddwkor0)" filter="url(#f19f9jceddwkor)" height="45.8008" rx="4.1667" ry="4.1667" style="stroke:#222222;stroke-width:1.0416666666666667;" width="463.5417" x="562.5" y="620.5404"/><text fill="#222222" font-family="Verdana" font-size="12.5" lengthAdjust="spacing" textLength="432.2917" x="578.125" y="647.7681">The real implementation is executed in another node over a network</text><path d="M510.4167,643.4408 L520.8333,643.4408 C536.4583,643.4408 536.4583,643.4408 552.0833,643.4408 L562.5,643.4408 " fill="none" style="stroke:#2196F3;stroke-width:3.125;"/><path d="M363.5417,943.2943 L373.9583,943.2943 C389.5833,943.2943 389.5833,643.4408 405.2083,643.4408 L415.625,643.4408 " fill="none" style="stroke:#2196F3;stroke-width:3.125;"/><rect fill="url(#g19f9jceddwkor0)" filter="url(#f19f9jceddwkor)" height="45.8008" rx="4.1667" ry="4.1667" style="stroke:#222222;stroke-width:1.0416666666666667;" width="91.6667" x="415.625" y="820.4427"/><text fill="#222222" font-family="Verdana" font-size="12.5" lengthAdjust="spacing" textLength="60.4167" x="431.25" y="847.6705">Examples</text><rect fill="url(#g19f9jceddwkor0)" filter="url(#f19f9jceddwkor)" height="45.8008" rx="4.1667" ry="4.1667" style="stroke:#222222;stroke-width:1.0416666666666667;" width="83.3333" x="559.375" y="687.1745"/><text fill="#222222" font-family="Verdana" font-size="12.5" lengthAdjust="spacing" textLength="52.0833" x="575" y="714.4023">API REST</text><path d="M507.2917,843.3431 L517.7083,843.3431 C533.3333,843.3431 533.3333,710.0749 548.9583,710.0749 L559.375,710.0749 " fill="none" style="stroke:#2196F3;stroke-width:3.125;"/><rect fill="url(#g19f9jceddwkor0)" filter="url(#f19f9jceddwkor)" height="45.8008" rx="4.1667" ry="4.1667" style="stroke:#222222;stroke-width:1.0416666666666667;" width="85.4167" x="559.375" y="753.8086"/><text fill="#222222" font-family="Verdana" font-size="12.5" lengthAdjust="spacing" textLength="54.1667" x="575" y="781.0364">GraphQL</text><path d="M507.2917,843.3431 L517.7083,843.3431 C533.3333,843.3431 533.3333,776.709 548.9583,776.709 L559.375,776.709 " fill="none" style="stroke:#2196F3;stroke-width:3.125;"/><rect fill="url(#g19f9jceddwkor0)" filter="url(#f19f9jceddwkor)" height="45.8008" rx="4.1667" ry="4.1667" style="stroke:#222222;stroke-width:1.0416666666666667;" width="61.4583" x="559.375" y="820.4427"/><text fill="#222222" font-family="Verdana" font-size="12.5" lengthAdjust="spacing" textLength="30.2083" x="575" y="847.6705">gRPC</text><path d="M507.2917,843.3431 L517.7083,843.3431 C533.3333,843.3431 533.3333,843.3431 548.9583,843.3431 L559.375,843.3431 " fill="none" style="stroke:#2196F3;stroke-width:3.125;"/><rect fill="url(#g19f9jceddwkor0)" filter="url(#f19f9jceddwkor)" height="45.8008" rx="4.1667" ry="4.1667" style="stroke:#222222;stroke-width:1.0416666666666667;" width="73.9583" x="559.375" y="887.0768"/><text fill="#222222" font-family="Verdana" font-size="12.5" lengthAdjust="spacing" textLength="42.7083" x="575" y="914.3046">CORBA</text><path d="M507.2917,843.3431 L517.7083,843.3431 C533.3333,843.3431 533.3333,909.9772 548.9583,909.9772 L559.375,909.9772 " fill="none" style="stroke:#2196F3;stroke-width:3.125;"/><rect fill="url(#g19f9jceddwkor0)" filter="url(#f19f9jceddwkor)" height="45.8008" rx="4.1667" ry="4.1667" style="stroke:#222222;stroke-width:1.0416666666666667;" width="136.4583" x="559.375" y="953.7109"/><text fill="#222222" font-family="Verdana" font-size="12.5" lengthAdjust="spacing" textLength="105.2083" x="575" y="980.9387">Ajax in browsers</text><path d="M507.2917,843.3431 L517.7083,843.3431 C533.3333,843.3431 533.3333,976.6113 548.9583,976.6113 L559.375,976.6113 " fill="none" style="stroke:#2196F3;stroke-width:3.125;"/><path d="M363.5417,943.2943 L373.9583,943.2943 C389.5833,943.2943 389.5833,843.3431 405.2083,843.3431 L415.625,843.3431 " fill="none" style="stroke:#2196F3;stroke-width:3.125;"/><rect fill="url(#g19f9jceddwkor0)" filter="url(#f19f9jceddwkor)" height="45.8008" rx="4.1667" ry="4.1667" style="stroke:#222222;stroke-width:1.0416666666666667;" width="65.625" x="415.625" y="1153.6133"/><text fill="#222222" font-family="Verdana" font-size="12.5" lengthAdjust="spacing" textLength="34.375" x="431.25" y="1180.8411">How?</text><rect fill="url(#g19f9jceddwkor0)" filter="url(#f19f9jceddwkor)" height="45.8008" rx="4.1667" ry="4.1667" style="stroke:#222222;stroke-width:1.0416666666666667;" width="433.3333" x="533.3333" y="1020.3451"/><text fill="#222222" font-family="Verdana" font-size="12.5" lengthAdjust="spacing" textLength="402.0833" x="548.9583" y="1047.5728">Local stub communicates with the server via passing messages</text><path d="M481.25,1176.5137 L491.6667,1176.5137 C507.2917,1176.5137 507.2917,1043.2454 522.9167,1043.2454 L533.3333,1043.2454 " fill="none" style="stroke:#2196F3;stroke-width:3.125;"/><rect fill="url(#g19f9jceddwkor0)" filter="url(#f19f9jceddwkor)" height="45.8008" rx="4.1667" ry="4.1667" style="stroke:#222222;stroke-width:1.0416666666666667;" width="186.4583" x="533.3333" y="1086.9792"/><text fill="#222222" font-family="Verdana" font-size="12.5" lengthAdjust="spacing" textLength="155.2083" x="548.9583" y="1114.2069">Transport Procedure Call</text><path d="M481.25,1176.5137 L491.6667,1176.5137 C507.2917,1176.5137 507.2917,1109.8796 522.9167,1109.8796 L533.3333,1109.8796 " fill="none" style="stroke:#2196F3;stroke-width:3.125;"/><rect fill="url(#g19f9jceddwkor0)" filter="url(#f19f9jceddwkor)" height="45.8008" rx="4.1667" ry="4.1667" style="stroke:#222222;stroke-width:1.0416666666666667;" width="138.5417" x="533.3333" y="1153.6133"/><text fill="#222222" font-family="Verdana" font-size="12.5" lengthAdjust="spacing" textLength="107.2917" x="548.9583" y="1180.8411">Transparent calls</text><path d="M481.25,1176.5137 L491.6667,1176.5137 C507.2917,1176.5137 507.2917,1176.5137 522.9167,1176.5137 L533.3333,1176.5137 " fill="none" style="stroke:#2196F3;stroke-width:3.125;"/><rect fill="url(#g19f9jceddwkor0)" filter="url(#f19f9jceddwkor)" height="45.8008" rx="4.1667" ry="4.1667" style="stroke:#222222;stroke-width:1.0416666666666667;" width="205.2083" x="533.3333" y="1220.2474"/><text fill="#222222" font-family="Verdana" font-size="12.5" lengthAdjust="spacing" textLength="173.9583" x="548.9583" y="1247.4752">Marshaling and Serialization</text><path d="M481.25,1176.5137 L491.6667,1176.5137 C507.2917,1176.5137 507.2917,1243.1478 522.9167,1243.1478 L533.3333,1243.1478 " fill="none" style="stroke:#2196F3;stroke-width:3.125;"/><rect fill="url(#g19f9jceddwkor0)" filter="url(#f19f9jceddwkor)" height="45.8008" rx="4.1667" ry="4.1667" style="stroke:#222222;stroke-width:1.0416666666666667;" width="246.875" x="533.3333" y="1286.8815"/><text fill="#222222" font-family="Verdana" font-size="12.5" lengthAdjust="spacing" textLength="215.625" x="548.9583" y="1314.1093">Interface Definition Language (IDL)</text><rect fill="url(#g19f9jceddwkor0)" filter="url(#f19f9jceddwkor)" height="45.8008" rx="4.1667" ry="4.1667" style="stroke:#222222;stroke-width:1.0416666666666667;" width="64.5833" x="832.2917" y="1286.8815"/><text fill="#222222" font-family="Verdana" font-size="12.5" lengthAdjust="spacing" textLength="33.3333" x="847.9167" y="1314.1093">Issue</text><rect fill="url(#g19f9jceddwkor0)" filter="url(#f19f9jceddwkor)" height="45.8008" rx="4.1667" ry="4.1667" style="stroke:#222222;stroke-width:1.0416666666666667;" width="228.125" x="948.9583" y="1286.8815"/><text fill="#222222" font-family="Verdana" font-size="12.5" lengthAdjust="spacing" textLength="196.875" x="964.5833" y="1314.1093">Code migration and references</text><path d="M896.875,1309.7819 L907.2917,1309.7819 C922.9167,1309.7819 922.9167,1309.7819 938.5417,1309.7819 L948.9583,1309.7819 " fill="none" style="stroke:#2196F3;stroke-width:3.125;"/><path d="M780.2083,1309.7819 L790.625,1309.7819 C806.25,1309.7819 806.25,1309.7819 821.875,1309.7819 L832.2917,1309.7819 " fill="none" style="stroke:#2196F3;stroke-width:3.125;"/><path d="M481.25,1176.5137 L491.6667,1176.5137 C507.2917,1176.5137 507.2917,1309.7819 522.9167,1309.7819 L533.3333,1309.7819 " fill="none" style="stroke:#2196F3;stroke-width:3.125;"/><path d="M363.5417,943.2943 L373.9583,943.2943 C389.5833,943.2943 389.5833,1176.5137 405.2083,1176.5137 L415.625,1176.5137 " fill="none" style="stroke:#2196F3;stroke-width:3.125;"/><path d="M136.4583,1443.0501 L146.875,1443.0501 C162.5,1443.0501 162.5,943.2943 178.125,943.2943 L188.5417,943.2943 " fill="none" style="stroke:#2196F3;stroke-width:3.125;"/><rect fill="url(#g19f9jceddwkor0)" filter="url(#f19f9jceddwkor)" height="45.8008" rx="4.1667" ry="4.1667" style="stroke:#222222;stroke-width:1.0416666666666667;" width="244.7917" x="188.5417" y="1819.9544"/><text fill="#222222" font-family="Verdana" font-size="12.5" lengthAdjust="spacing" textLength="213.5417" x="204.1667" y="1847.1822">Message-oriented communication</text><rect fill="url(#g19f9jceddwkor0)" filter="url(#f19f9jceddwkor)" height="45.8008" rx="4.1667" ry="4.1667" style="stroke:#222222;stroke-width:1.0416666666666667;" width="71.875" x="485.4167" y="1386.8327"/><text fill="#222222" font-family="Verdana" font-size="12.5" lengthAdjust="spacing" textLength="40.625" x="501.0417" y="1414.0605">Issues</text><rect fill="url(#g19f9jceddwkor0)" filter="url(#f19f9jceddwkor)" height="45.8008" rx="4.1667" ry="4.1667" style="stroke:#222222;stroke-width:1.0416666666666667;" width="240.625" x="609.375" y="1353.5156"/><text fill="#222222" font-family="Verdana" font-size="12.5" lengthAdjust="spacing" textLength="209.375" x="625" y="1380.7434">Does the communication persist?</text><path d="M557.2917,1409.7331 L567.7083,1409.7331 C583.3333,1409.7331 583.3333,1376.416 598.9583,1376.416 L609.375,1376.416 " fill="none" style="stroke:#2196F3;stroke-width:3.125;"/><rect fill="url(#g19f9jceddwkor0)" filter="url(#f19f9jceddwkor)" height="45.8008" rx="4.1667" ry="4.1667" style="stroke:#222222;stroke-width:1.0416666666666667;" width="254.1667" x="609.375" y="1420.1497"/><text fill="#222222" font-family="Verdana" font-size="12.5" lengthAdjust="spacing" textLength="222.9167" x="625" y="1447.3775">Is the communication synchronous?</text><path d="M557.2917,1409.7331 L567.7083,1409.7331 C583.3333,1409.7331 583.3333,1443.0501 598.9583,1443.0501 L609.375,1443.0501 " fill="none" style="stroke:#2196F3;stroke-width:3.125;"/><path d="M433.3333,1842.8548 L443.75,1842.8548 C459.375,1842.8548 459.375,1409.7331 475,1409.7331 L485.4167,1409.7331 " fill="none" style="stroke:#2196F3;stroke-width:3.125;"/><rect fill="url(#g19f9jceddwkor0)" filter="url(#f19f9jceddwkor)" height="45.8008" rx="4.1667" ry="4.1667" style="stroke:#222222;stroke-width:1.0416666666666667;" width="65.625" x="485.4167" y="1586.735"/><text fill="#222222" font-family="Verdana" font-size="12.5" lengthAdjust="spacing" textLength="34.375" x="501.0417" y="1613.9628">How?</text><rect fill="url(#g19f9jceddwkor0)" filter="url(#f19f9jceddwkor)" height="45.8008" rx="4.1667" ry="4.1667" style="stroke:#222222;stroke-width:1.0416666666666667;" width="166.6667" x="603.125" y="1486.7839"/><text fill="#222222" font-family="Verdana" font-size="12.5" lengthAdjust="spacing" textLength="135.4167" x="618.75" y="1514.0116">Async communication</text><path d="M551.0417,1609.6354 L561.4583,1609.6354 C577.0833,1609.6354 577.0833,1509.6842 592.7083,1509.6842 L603.125,1509.6842 " fill="none" style="stroke:#2196F3;stroke-width:3.125;"/><rect fill="url(#g19f9jceddwkor0)" filter="url(#f19f9jceddwkor)" height="45.8008" rx="4.1667" ry="4.1667" style="stroke:#222222;stroke-width:1.0416666666666667;" width="159.375" x="603.125" y="1553.418"/><text fill="#222222" font-family="Verdana" font-size="12.5" lengthAdjust="spacing" textLength="128.125" x="618.75" y="1580.6458">Sync communication</text><path d="M551.0417,1609.6354 L561.4583,1609.6354 C577.0833,1609.6354 577.0833,1576.3184 592.7083,1576.3184 L603.125,1576.3184 " fill="none" style="stroke:#2196F3;stroke-width:3.125;"/><rect fill="url(#g19f9jceddwkor0)" filter="url(#f19f9jceddwkor)" height="45.8008" rx="4.1667" ry="4.1667" style="stroke:#222222;stroke-width:1.0416666666666667;" width="115.625" x="603.125" y="1653.3691"/><text fill="#222222" font-family="Verdana" font-size="12.5" lengthAdjust="spacing" textLength="84.375" x="618.75" y="1680.5969">Technologies</text><rect fill="url(#g19f9jceddwkor0)" filter="url(#f19f9jceddwkor)" height="45.8008" rx="4.1667" ry="4.1667" style="stroke:#222222;stroke-width:1.0416666666666667;" width="141.6667" x="770.8333" y="1620.0521"/><text fill="#222222" font-family="Verdana" font-size="12.5" lengthAdjust="spacing" textLength="110.4167" x="786.4583" y="1647.2799">Socket interfaces</text><path d="M718.75,1676.2695 L729.1667,1676.2695 C744.7917,1676.2695 744.7917,1642.9525 760.4167,1642.9525 L770.8333,1642.9525 " fill="none" style="stroke:#2196F3;stroke-width:3.125;"/><rect fill="url(#g19f9jceddwkor0)" filter="url(#f19f9jceddwkor)" height="45.8008" rx="4.1667" ry="4.1667" style="stroke:#222222;stroke-width:1.0416666666666667;" width="116.6667" x="770.8333" y="1686.6862"/><text fill="#222222" font-family="Verdana" font-size="12.5" lengthAdjust="spacing" textLength="85.4167" x="786.4583" y="1713.914">Blocking calls</text><path d="M718.75,1676.2695 L729.1667,1676.2695 C744.7917,1676.2695 744.7917,1709.5866 760.4167,1709.5866 L770.8333,1709.5866 " fill="none" style="stroke:#2196F3;stroke-width:3.125;"/><path d="M551.0417,1609.6354 L561.4583,1609.6354 C577.0833,1609.6354 577.0833,1676.2695 592.7083,1676.2695 L603.125,1676.2695 " fill="none" style="stroke:#2196F3;stroke-width:3.125;"/><path d="M433.3333,1842.8548 L443.75,1842.8548 C459.375,1842.8548 459.375,1609.6354 475,1609.6354 L485.4167,1609.6354 " fill="none" style="stroke:#2196F3;stroke-width:3.125;"/><rect fill="url(#g19f9jceddwkor0)" filter="url(#f19f9jceddwkor)" height="45.8008" rx="4.1667" ry="4.1667" style="stroke:#222222;stroke-width:1.0416666666666667;" width="81.25" x="485.4167" y="2019.8568"/><text fill="#222222" font-family="Verdana" font-size="12.5" lengthAdjust="spacing" textLength="50" x="501.0417" y="2047.0846">Solution</text><rect fill="url(#g19f9jceddwkor0)" filter="url(#f19f9jceddwkor)" height="45.8008" rx="4.1667" ry="4.1667" style="stroke:#222222;stroke-width:1.0416666666666667;" width="129.1667" x="618.75" y="1886.5885"/><text fill="#222222" font-family="Verdana" font-size="12.5" lengthAdjust="spacing" textLength="97.9167" x="634.375" y="1913.8163">Design Patterns</text><rect fill="url(#g19f9jceddwkor0)" filter="url(#f19f9jceddwkor)" height="45.8008" rx="4.1667" ry="4.1667" style="stroke:#222222;stroke-width:1.0416666666666667;" width="128.125" x="800" y="1753.3203"/><text fill="#222222" font-family="Verdana" font-size="12.5" lengthAdjust="spacing" textLength="96.875" x="815.625" y="1780.5481">Pipeline pattern</text><path d="M747.9167,1909.4889 L758.3333,1909.4889 C773.9583,1909.4889 773.9583,1776.2207 789.5833,1776.2207 L800,1776.2207 " fill="none" style="stroke:#2196F3;stroke-width:3.125;"/><rect fill="url(#g19f9jceddwkor0)" filter="url(#f19f9jceddwkor)" height="45.8008" rx="4.1667" ry="4.1667" style="stroke:#222222;stroke-width:1.0416666666666667;" width="190.625" x="800" y="1819.9544"/><text fill="#222222" font-family="Verdana" font-size="12.5" lengthAdjust="spacing" textLength="159.375" x="815.625" y="1847.1822">Publish-subscribe pattern</text><path d="M747.9167,1909.4889 L758.3333,1909.4889 C773.9583,1909.4889 773.9583,1842.8548 789.5833,1842.8548 L800,1842.8548 " fill="none" style="stroke:#2196F3;stroke-width:3.125;"/><rect fill="url(#g19f9jceddwkor0)" filter="url(#f19f9jceddwkor)" height="45.8008" rx="4.1667" ry="4.1667" style="stroke:#222222;stroke-width:1.0416666666666667;" width="168.75" x="800" y="1886.5885"/><text fill="#222222" font-family="Verdana" font-size="12.5" lengthAdjust="spacing" textLength="137.5" x="815.625" y="1913.8163">Request-reply pattern</text><path d="M747.9167,1909.4889 L758.3333,1909.4889 C773.9583,1909.4889 773.9583,1909.4889 789.5833,1909.4889 L800,1909.4889 " fill="none" style="stroke:#2196F3;stroke-width:3.125;"/><rect fill="url(#g19f9jceddwkor0)" filter="url(#f19f9jceddwkor)" height="45.8008" rx="4.1667" ry="4.1667" style="stroke:#222222;stroke-width:1.0416666666666667;" width="201.0417" x="800" y="1953.2227"/><text fill="#222222" font-family="Verdana" font-size="12.5" lengthAdjust="spacing" textLength="169.7917" x="815.625" y="1980.4504">Message-queuing systems</text><path d="M747.9167,1909.4889 L758.3333,1909.4889 C773.9583,1909.4889 773.9583,1976.123 789.5833,1976.123 L800,1976.123 " fill="none" style="stroke:#2196F3;stroke-width:3.125;"/><rect fill="url(#g19f9jceddwkor0)" filter="url(#f19f9jceddwkor)" height="45.8008" rx="4.1667" ry="4.1667" style="stroke:#222222;stroke-width:1.0416666666666667;" width="142.7083" x="800" y="2019.8568"/><text fill="#222222" font-family="Verdana" font-size="12.5" lengthAdjust="spacing" textLength="111.4583" x="815.625" y="2047.0846">Message brokers</text><path d="M747.9167,1909.4889 L758.3333,1909.4889 C773.9583,1909.4889 773.9583,2042.7572 789.5833,2042.7572 L800,2042.7572 " fill="none" style="stroke:#2196F3;stroke-width:3.125;"/><path d="M566.6667,2042.7572 L577.0833,2042.7572 C592.7083,2042.7572 592.7083,1909.4889 608.3333,1909.4889 L618.75,1909.4889 " fill="none" style="stroke:#2196F3;stroke-width:3.125;"/><rect fill="url(#g19f9jceddwkor0)" filter="url(#f19f9jceddwkor)" height="45.8008" rx="4.1667" ry="4.1667" style="stroke:#222222;stroke-width:1.0416666666666667;" width="225" x="618.75" y="2186.4421"/><text fill="#222222" font-family="Verdana" font-size="12.5" lengthAdjust="spacing" textLength="193.75" x="634.375" y="2213.6698">Message-oriented middleware</text><rect fill="url(#g19f9jceddwkor0)" filter="url(#f19f9jceddwkor)" height="45.8008" rx="4.1667" ry="4.1667" style="stroke:#222222;stroke-width:1.0416666666666667;" width="72.9167" x="895.8333" y="2086.4909"/><text fill="#222222" font-family="Verdana" font-size="12.5" lengthAdjust="spacing" textLength="41.6667" x="911.4583" y="2113.7187">When?</text><rect fill="url(#g19f9jceddwkor0)" filter="url(#f19f9jceddwkor)" height="45.8008" rx="4.1667" ry="4.1667" style="stroke:#222222;stroke-width:1.0416666666666667;" width="254.1667" x="1020.8333" y="2086.4909"/><text fill="#222222" font-family="Verdana" font-size="12.5" lengthAdjust="spacing" textLength="222.9167" x="1036.4583" y="2113.7187">When the RPCs are not appropriate.</text><path d="M968.75,2109.3913 L979.1667,2109.3913 C994.7917,2109.3913 994.7917,2109.3913 1010.4167,2109.3913 L1020.8333,2109.3913 " fill="none" style="stroke:#2196F3;stroke-width:3.125;"/><path d="M843.75,2209.3424 L854.1667,2209.3424 C869.7917,2209.3424 869.7917,2109.3913 885.4167,2109.3913 L895.8333,2109.3913 " fill="none" style="stroke:#2196F3;stroke-width:3.125;"/><rect fill="url(#g19f9jceddwkor0)" filter="url(#f19f9jceddwkor)" height="45.8008" rx="4.1667" ry="4.1667" style="stroke:#222222;stroke-width:1.0416666666666667;" width="91.6667" x="895.8333" y="2219.7591"/><text fill="#222222" font-family="Verdana" font-size="12.5" lengthAdjust="spacing" textLength="60.4167" x="911.4583" y="2246.9869">Examples</text><rect fill="url(#g19f9jceddwkor0)" filter="url(#f19f9jceddwkor)" height="45.8008" rx="4.1667" ry="4.1667" style="stroke:#222222;stroke-width:1.0416666666666667;" width="66.6667" x="1039.5833" y="2153.125"/><text fill="#222222" font-family="Verdana" font-size="12.5" lengthAdjust="spacing" textLength="35.4167" x="1055.2083" y="2180.3528">MQTT</text><path d="M987.5,2242.6595 L997.9167,2242.6595 C1013.5417,2242.6595 1013.5417,2176.0254 1029.1667,2176.0254 L1039.5833,2176.0254 " fill="none" style="stroke:#2196F3;stroke-width:3.125;"/><rect fill="url(#g19f9jceddwkor0)" filter="url(#f19f9jceddwkor)" height="45.8008" rx="4.1667" ry="4.1667" style="stroke:#222222;stroke-width:1.0416666666666667;" width="83.3333" x="1039.5833" y="2219.7591"/><text fill="#222222" font-family="Verdana" font-size="12.5" lengthAdjust="spacing" textLength="52.0833" x="1055.2083" y="2246.9869">ZeroMQ</text><path d="M987.5,2242.6595 L997.9167,2242.6595 C1013.5417,2242.6595 1013.5417,2242.6595 1029.1667,2242.6595 L1039.5833,2242.6595 " fill="none" style="stroke:#2196F3;stroke-width:3.125;"/><rect fill="url(#g19f9jceddwkor0)" filter="url(#f19f9jceddwkor)" height="45.8008" rx="4.1667" ry="4.1667" style="stroke:#222222;stroke-width:1.0416666666666667;" width="261.4583" x="1039.5833" y="2286.3932"/><text fill="#222222" font-family="Verdana" font-size="12.5" lengthAdjust="spacing" textLength="230.2083" x="1055.2083" y="2313.621">The Message-Passing Interface (MPI)</text><path d="M987.5,2242.6595 L997.9167,2242.6595 C1013.5417,2242.6595 1013.5417,2309.2936 1029.1667,2309.2936 L1039.5833,2309.2936 " fill="none" style="stroke:#2196F3;stroke-width:3.125;"/><path d="M843.75,2209.3424 L854.1667,2209.3424 C869.7917,2209.3424 869.7917,2242.6595 885.4167,2242.6595 L895.8333,2242.6595 " fill="none" style="stroke:#2196F3;stroke-width:3.125;"/><path d="M566.6667,2042.7572 L577.0833,2042.7572 C592.7083,2042.7572 592.7083,2209.3424 608.3333,2209.3424 L618.75,2209.3424 " fill="none" style="stroke:#2196F3;stroke-width:3.125;"/><path d="M433.3333,1842.8548 L443.75,1842.8548 C459.375,1842.8548 459.375,2042.7572 475,2042.7572 L485.4167,2042.7572 " fill="none" style="stroke:#2196F3;stroke-width:3.125;"/><path d="M136.4583,1443.0501 L146.875,1443.0501 C162.5,1443.0501 162.5,1842.8548 178.125,1842.8548 L188.5417,1842.8548 " fill="none" style="stroke:#2196F3;stroke-width:3.125;"/><rect fill="url(#g19f9jceddwkor0)" filter="url(#f19f9jceddwkor)" height="45.8008" rx="4.1667" ry="4.1667" style="stroke:#222222;stroke-width:1.0416666666666667;" width="171.875" x="188.5417" y="2586.2467"/><text fill="#222222" font-family="Verdana" font-size="12.5" lengthAdjust="spacing" textLength="140.625" x="204.1667" y="2613.4745">Multicast comunication</text><rect fill="url(#g19f9jceddwkor0)" filter="url(#f19f9jceddwkor)" height="45.8008" rx="4.1667" ry="4.1667" style="stroke:#222222;stroke-width:1.0416666666666667;" width="94.7917" x="412.5" y="2386.3444"/><text fill="#222222" font-family="Verdana" font-size="12.5" lengthAdjust="spacing" textLength="63.5417" x="428.125" y="2413.5722">What is it?</text><rect fill="url(#g19f9jceddwkor0)" filter="url(#f19f9jceddwkor)" height="45.8008" rx="4.1667" ry="4.1667" style="stroke:#222222;stroke-width:1.0416666666666667;" width="364.5833" x="559.375" y="2353.0273"/><text fill="#222222" font-family="Verdana" font-size="12.5" lengthAdjust="spacing" textLength="333.3333" x="575" y="2380.2551">Disseminate information across multiple subscribers.</text><path d="M507.2917,2409.2448 L517.7083,2409.2448 C533.3333,2409.2448 533.3333,2375.9277 548.9583,2375.9277 L559.375,2375.9277 " fill="none" style="stroke:#2196F3;stroke-width:3.125;"/><rect fill="url(#g19f9jceddwkor0)" filter="url(#f19f9jceddwkor)" height="45.8008" rx="4.1667" ry="4.1667" style="stroke:#222222;stroke-width:1.0416666666666667;" width="91.6667" x="559.375" y="2419.6615"/><text fill="#222222" font-family="Verdana" font-size="12.5" lengthAdjust="spacing" textLength="60.4167" x="575" y="2446.8892">Examples</text><rect fill="url(#g19f9jceddwkor0)" filter="url(#f19f9jceddwkor)" height="45.8008" rx="4.1667" ry="4.1667" style="stroke:#222222;stroke-width:1.0416666666666667;" width="56.25" x="703.125" y="2419.6615"/><text fill="#222222" font-family="Verdana" font-size="12.5" lengthAdjust="spacing" textLength="25" x="718.75" y="2446.8892">IPFS</text><path d="M651.0417,2442.5618 L661.4583,2442.5618 C677.0833,2442.5618 677.0833,2442.5618 692.7083,2442.5618 L703.125,2442.5618 " fill="none" style="stroke:#2196F3;stroke-width:3.125;"/><path d="M507.2917,2409.2448 L517.7083,2409.2448 C533.3333,2409.2448 533.3333,2442.5618 548.9583,2442.5618 L559.375,2442.5618 " fill="none" style="stroke:#2196F3;stroke-width:3.125;"/><path d="M360.4167,2609.1471 L370.8333,2609.1471 C386.4583,2609.1471 386.4583,2409.2448 402.0833,2409.2448 L412.5,2409.2448 " fill="none" style="stroke:#2196F3;stroke-width:3.125;"/><rect fill="url(#g19f9jceddwkor0)" filter="url(#f19f9jceddwkor)" height="45.8008" rx="4.1667" ry="4.1667" style="stroke:#222222;stroke-width:1.0416666666666667;" width="65.625" x="412.5" y="2652.8809"/><text fill="#222222" font-family="Verdana" font-size="12.5" lengthAdjust="spacing" textLength="34.375" x="428.125" y="2680.1086">How?</text><rect fill="url(#g19f9jceddwkor0)" filter="url(#f19f9jceddwkor)" height="45.8008" rx="4.1667" ry="4.1667" style="stroke:#222222;stroke-width:1.0416666666666667;" width="162.5" x="530.2083" y="2552.9297"/><text fill="#222222" font-family="Verdana" font-size="12.5" lengthAdjust="spacing" textLength="131.25" x="545.8333" y="2580.1575">Peer-to-peer system</text><rect fill="url(#g19f9jceddwkor0)" filter="url(#f19f9jceddwkor)" height="45.8008" rx="4.1667" ry="4.1667" style="stroke:#222222;stroke-width:1.0416666666666667;" width="203.125" x="744.7917" y="2486.2956"/><text fill="#222222" font-family="Verdana" font-size="12.5" lengthAdjust="spacing" textLength="171.875" x="760.4167" y="2513.5234">Structured overlay network</text><path d="M692.7083,2575.8301 L703.125,2575.8301 C718.75,2575.8301 718.75,2509.196 734.375,2509.196 L744.7917,2509.196 " fill="none" style="stroke:#2196F3;stroke-width:3.125;"/><rect fill="url(#g19f9jceddwkor0)" filter="url(#f19f9jceddwkor)" height="45.8008" rx="4.1667" ry="4.1667" style="stroke:#222222;stroke-width:1.0416666666666667;" width="193.75" x="744.7917" y="2552.9297"/><text fill="#222222" font-family="Verdana" font-size="12.5" lengthAdjust="spacing" textLength="162.5" x="760.4167" y="2580.1575">Every peer sets up a tree</text><path d="M692.7083,2575.8301 L703.125,2575.8301 C718.75,2575.8301 718.75,2575.8301 734.375,2575.8301 L744.7917,2575.8301 " fill="none" style="stroke:#2196F3;stroke-width:3.125;"/><rect fill="url(#g19f9jceddwkor0)" filter="url(#f19f9jceddwkor)" height="45.8008" rx="4.1667" ry="4.1667" style="stroke:#222222;stroke-width:1.0416666666666667;" width="317.7083" x="744.7917" y="2619.5638"/><text fill="#222222" font-family="Verdana" font-size="12.5" lengthAdjust="spacing" textLength="286.4583" x="760.4167" y="2646.7916">Distributed hash table (DHT), Distributed data</text><path d="M692.7083,2575.8301 L703.125,2575.8301 C718.75,2575.8301 718.75,2642.4642 734.375,2642.4642 L744.7917,2642.4642 " fill="none" style="stroke:#2196F3;stroke-width:3.125;"/><path d="M478.125,2675.7813 L488.5417,2675.7813 C504.1667,2675.7813 504.1667,2575.8301 519.7917,2575.8301 L530.2083,2575.8301 " fill="none" style="stroke:#2196F3;stroke-width:3.125;"/><rect fill="url(#g19f9jceddwkor0)" filter="url(#f19f9jceddwkor)" height="45.8008" rx="4.1667" ry="4.1667" style="stroke:#222222;stroke-width:1.0416666666666667;" width="281.25" x="530.2083" y="2686.1979"/><text fill="#222222" font-family="Verdana" font-size="12.5" lengthAdjust="spacing" textLength="250" x="545.8333" y="2713.4257">Flooding messages across the network</text><path d="M478.125,2675.7813 L488.5417,2675.7813 C504.1667,2675.7813 504.1667,2709.0983 519.7917,2709.0983 L530.2083,2709.0983 " fill="none" style="stroke:#2196F3;stroke-width:3.125;"/><rect fill="url(#g19f9jceddwkor0)" filter="url(#f19f9jceddwkor)" height="45.8008" rx="4.1667" ry="4.1667" style="stroke:#222222;stroke-width:1.0416666666666667;" width="153.125" x="530.2083" y="2786.1491"/><text fill="#222222" font-family="Verdana" font-size="12.5" lengthAdjust="spacing" textLength="121.875" x="545.8333" y="2813.3769">Epidemic protocols</text><rect fill="url(#g19f9jceddwkor0)" filter="url(#f19f9jceddwkor)" height="45.8008" rx="4.1667" ry="4.1667" style="stroke:#222222;stroke-width:1.0416666666666667;" width="73.9583" x="735.4167" y="2752.832"/><text fill="#222222" font-family="Verdana" font-size="12.5" lengthAdjust="spacing" textLength="42.7083" x="751.0417" y="2780.0598">Simple</text><path d="M683.3333,2809.0495 L693.75,2809.0495 C709.375,2809.0495 709.375,2775.7324 725,2775.7324 L735.4167,2775.7324 " fill="none" style="stroke:#2196F3;stroke-width:3.125;"/><rect fill="url(#g19f9jceddwkor0)" filter="url(#f19f9jceddwkor)" height="45.8008" rx="4.1667" ry="4.1667" style="stroke:#222222;stroke-width:1.0416666666666667;" width="73.9583" x="735.4167" y="2819.4661"/><text fill="#222222" font-family="Verdana" font-size="12.5" lengthAdjust="spacing" textLength="42.7083" x="751.0417" y="2846.6939">Robust</text><path d="M683.3333,2809.0495 L693.75,2809.0495 C709.375,2809.0495 709.375,2842.3665 725,2842.3665 L735.4167,2842.3665 " fill="none" style="stroke:#2196F3;stroke-width:3.125;"/><path d="M478.125,2675.7813 L488.5417,2675.7813 C504.1667,2675.7813 504.1667,2809.0495 519.7917,2809.0495 L530.2083,2809.0495 " fill="none" style="stroke:#2196F3;stroke-width:3.125;"/><path d="M360.4167,2609.1471 L370.8333,2609.1471 C386.4583,2609.1471 386.4583,2675.7813 402.0833,2675.7813 L412.5,2675.7813 " fill="none" style="stroke:#2196F3;stroke-width:3.125;"/><path d="M136.4583,1443.0501 L146.875,1443.0501 C162.5,1443.0501 162.5,2609.1471 178.125,2609.1471 L188.5417,2609.1471 " fill="none" style="stroke:#2196F3;stroke-width:3.125;"/><!--SRC=[xHhRSjkuzLdw2dJT1zkDKak-9hDjeujbUsjb5Kj9P_hIWKX8mfeak01eMxlZV-y1250a22d9Hir3nvp9XC2vujn1wvsGcCkO9c6Cq-QVv9B41CLO4avnyn3rMHnd2Gsmf2nf7XwYdoStQCH24i7Y4FrhYIMY0b7v3xLsy57AcMG1YuG67g9kcaO6zWgDEH4aaMOr8KBebod7YKWPbw_GUo8V6Rz_XGPOOXJH15x7ovK05f7XE08ol23eRoZ5guZX4Fq5BGaE2KTpnX71mRBG8jTmHCCm8e-OavfwxcbWwueaXEEebMOyPQ94WgH21ZQWheG5eHonnmH5U4MuuNVvXECq8i8o6xoVsDTk1YI9j8R2IOWmR35EV_EO3ZHR6GFVI8IZY3qg1S0WD5aWF6EPH2mb2H8h8KaCC8Q2mXC4FLAvp6t1GAnMhweS-2r9IA0amvP0Wl076bZDqMMCQUGYja1PE089IwBo855uKnAHTCaIeeBcZiHCQkC59Cp0yk30o3bODrXIya2GrFu7zoJ1oXzZqoL1dE08KNM0sCQGmY5F9CYKIbJPL1yM9H2jY3t06qP97b4U0tJ7D-ZkSZBDLrSSfyiFj_bYSJVkcyF_VDVh6lnVy9EICkFW2y9pDrspHwFZBOCZ8Y6pMTaH8lS4gAKj32ezK0oH2w4FVeppM3OA5Na0YMBDrZTcir1b9QcDQOX6c8ibZdHKG4XDL1P79gHC_837-1m710t8d2PKM-uM9ujCfT7-pU3sm7ZmHeYCs7ZjAoF6TC7NySh9d2WlQOLj8cu9YfoXKNJ0YD1s2Ae50on9XNNqZGz5h99WoLd2Cg7HKCdgNGNqX2EQRDYVac2Pi8WjQ17h4nRS4mWuQoUxtui0e0nRc1jGespD2mmgw291Ooo1DB5qOveIS0X4VxvljxDPHCMo9RAP23YTkV0xyYiOIxOuIQEL0xEs1enCQMIotYc949dt9Z0zxecBCbWKFv8KPK-ljF4XzWLInHAo2U4KKZY5c9BazOOQD_emdThtVnFEHX_iIgMjLMDiGduTZVkZySs13gGiKcLHIEMlQW3LAi602a6WTwaQHnCe-B49pu0pg6AnOWNAeSB8NEHwEsgZc_5mucJmc13UagoLml_6mZP29Cy22VaOwh825RzSLnHps0MVQK8Y1SfIA3sI4sjgK5k2DhfGBR60We1deEN-u7fwyAe23Q7nvUeC8yR2SfMmXrHEAej7boaDmIX1hRrDTBsqySLccP3DTmGQlsd-pNULMG0U0G4FHGR7Q8Q3-mLdMHBs8LrugKhB4bOcI8z8F94hECuSHu8qy-T7eRR-taI8CuYZt-45eTuMdWe-P8dC8Nl3uL1lNQ-WGjn2tpFxy_2Sj4yq27Q9sMtZyukWK-nEbpIuJrHRQ-izA98BgDpj8xqQur3RzKol9aiSiaUrFdgjuC_mJpSGhRB5RP-gbLOzO1mc1DJHpDmJxNNQRyw6nwsrHefVW5CTfRzxDBGovs0cOBiDHGbAh_DPns_GlVbyxbhoJRzptZigTdDNpLWK6gxBCaE_uABmRnM-nPkTJcUp0eAeM99iuw7Ar9j5rVXAAYFbneQ6qj-8ybcZnpWSuIvdhprPUYuiV6s3HW5i0z1HJHkyfQtUA1zN1u7bLN6D3g_7aEB50Fwf5085JJQhrqR3IO8gauApQwEJ4C_cfos3eDG5NgKCiOGD9pyWvYiYJTmsdfiDCx3iJ2dD5CPdzgXvUeGswYcjQ7JSQnebuSgDzpBPdszlhgwd_nbqx_vPEsj7dzNKWbDujSbzggIO58FPNfOy8x6utwK5l2vPbwUrJcVwv8aQeXrZQUbbFkU3zl1YuBEEIVtScUiagr3d5lGPjhKNwASgNYMZOXXJQAOIndrNFojqdNRjCxlIAKebJAZ1btYpK03aIHhdKvMDWqMTqgDc4C4bBlGJzVldtQCZZtNpQFZnhwQ7hTjTIEOOHWo5_nx3jJb_VlX4U8WJ_8CVKzl0b91E6IMbgFwqGQCrZYYwK_c1SOIKaCfjgLpBrXXZwF8qe2b4jmqmU4xAadhigGIoJmN50zSAbr2wAhrDRLm_UsTdP-L3GQCZJ49dDnM_lx6FzIjfPi910ReralEZsVpys03BLCU3Y_v9tW1lQbIzy_PPks-0PQgP0kIoBZtguV3us03BL2Qa5E1zZMfsTDe9BB1CPJBukMIZIlFIQ8rQgFZwZ0VB9f6DHOsonjjzKwn8BnhaStcwZCW2vb1rFdyg-zpkfdU5eNYaSOJpyb0XjkN8FGAKXwcoyRQMhX7gVVsvCYZZGD87AbVUElt7kaGFMvAJVdTu2jfFr9pkdEYoLkUXSSKi2MlyGPMMIQa2nsTW0wlRkNJST5rATdZYKe6gEwfcRzF5TYDwwscBSMMj3v0u8hPo4EfQ3wDpBJ0jzOOWQsmRholnO0akdKk8alUqARsUAhge-gmstGOw873NTJTlwPoe7kqDeIgmacu5oAkI6WJIkb9wszNWQdqHyWmU0qX7W6pB0eGiaYkm1YiVeGHqLRgpLwIjRbjZrGvQW3PotdZWIT5FdOpmPAwvX_f3yIkZiCe-O56KVoSMkyjELqGYEOk-L_Ahp_KxhUjRfSqK8URVJHvUaBo4rzWmyF62k7rKFnMUn_fnsDehYvizda7134GjfqSxqRqrfbL8pw4ZUCzH97oZdcubhchjnbcSmircbnskAg3urkpJknXAAvBG7Zbj1vtFjXjeZkfRi7-oKbEhCicR2psakXyezFPsWvjFOzwnpMTiNSAsQWmtjCm_2Guxm_xmihL7zECmpe6VuQs-fiwm8Dyhfu88YnrMlqPUyZ_taT7V0BJbFLdObUPZSmbN-wq2o2_kRUTyRFOB2NOvztspvXht2pJF10bs6mYU2ST_6by1u616ABBE5M-BT3Uz_g3S5FYQyh2pkyfNQ5fLPiwY_6joO-kDvND5ocvzLXnNdso-Ifgd1ss-Jxg56ClTXvlpSVJBheNVaZVgBuxaVpRFOUwl_Dy-6Cnfz5LzoZSKr3qQtE_I52y_jddviStBZsrUVcppycERbn_RlFpOvl_-npRZ27hPnz4jUb1f27Pil-uSTOvV7y-8nAVx7vFxHBKuzV513I_g3vu7pVshyIqIBEFWnD2g3iG7pP_m0qPtMQBmtYArsf-E3j3aqcwYo-I1GYgh4jxywTCeHm8Vo4dAf4O-Esdrg5I5J5NBJwFc8F-p9P06sXvlqSVfi7NHj2NiBI99imz3ZUGhW4t-2m00]--></g></svg>