<?xml version="1.0" encoding="windows-1252" standalone="no"?>
<svg xmlns="http://www.w3.org/2000/svg" xmlns:xlink="http://www.w3.org/1999/xlink" contentStyleType="text/css" height="1549px" preserveAspectRatio="none" style="width:1847px;height:1549px;background:#FFFFFF;" version="1.1" viewBox="0 0 1847 1549" width="1847px" zoomAndPan="magnify"><script xmlns=""/><defs/><g><line style="stroke:#181818;stroke-width:1.5;" x1="114" x2="114" y1="63.9688" y2="83.9688"/><rect fill="#F1F1F1" height="33.9688" style="stroke:#181818;stroke-width:1.5;" width="208" x="10" y="83.9688"/><text fill="#000000" font-family="sans-serif" font-size="12" lengthAdjust="spacing" textLength="188" x="20" y="105.1074">User-Centered Design Process</text><line style="stroke:#181818;stroke-width:1.5;" x1="114" x2="124" y1="149.9219" y2="149.9219"/><rect fill="#F1F1F1" height="33.9688" style="stroke:#181818;stroke-width:1.5;" width="42" x="124" y="132.9375"/><text fill="#000000" font-family="sans-serif" font-size="12" lengthAdjust="spacing" textLength="22" x="134" y="154.0762">RUP</text><line style="stroke:#181818;stroke-width:1.5;" x1="114" x2="124" y1="198.8906" y2="198.8906"/><rect fill="#F1F1F1" height="33.9688" style="stroke:#181818;stroke-width:1.5;" width="85" x="124" y="181.9063"/><text fill="#000000" font-family="sans-serif" font-size="12" lengthAdjust="spacing" textLength="65" x="134" y="203.0449">Prototypes</text><line style="stroke:#181818;stroke-width:1.5;" x1="114" x2="114" y1="117.9375" y2="198.8906"/><line style="stroke:#181818;stroke-width:1.5;" x1="268" x2="268" y1="63.9688" y2="83.9688"/><rect fill="#F1F1F1" height="33.9688" style="stroke:#181818;stroke-width:1.5;" width="60" x="238" y="83.9688"/><text fill="#000000" font-family="sans-serif" font-size="12" lengthAdjust="spacing" textLength="40" x="248" y="105.1074">Teams</text><line style="stroke:#181818;stroke-width:1.5;" x1="268" x2="278" y1="149.9219" y2="149.9219"/><rect fill="#F1F1F1" height="33.9688" style="stroke:#181818;stroke-width:1.5;" width="61" x="278" y="132.9375"/><text fill="#000000" font-family="sans-serif" font-size="12" lengthAdjust="spacing" textLength="41" x="288" y="154.0762">CICESE</text><line style="stroke:#181818;stroke-width:1.5;" x1="268" x2="278" y1="198.8906" y2="198.8906"/><rect fill="#F1F1F1" height="33.9688" style="stroke:#181818;stroke-width:1.5;" width="259" x="278" y="181.9063"/><text fill="#000000" font-family="sans-serif" font-size="12" lengthAdjust="spacing" textLength="239" x="288" y="203.0449">Universidade Federal Fluminense (UFF)</text><line style="stroke:#181818;stroke-width:1.5;" x1="268" x2="278" y1="247.8594" y2="247.8594"/><rect fill="#F1F1F1" height="33.9688" style="stroke:#181818;stroke-width:1.5;" width="289" x="278" y="230.875"/><text fill="#000000" font-family="sans-serif" font-size="12" lengthAdjust="spacing" textLength="269" x="288" y="252.0137">Universidad de Castilla-La Mancha (mamilab)</text><line style="stroke:#181818;stroke-width:1.5;" x1="268" x2="278" y1="296.8281" y2="296.8281"/><rect fill="#F1F1F1" height="33.9688" style="stroke:#181818;stroke-width:1.5;" width="54" x="278" y="279.8438"/><text fill="#000000" font-family="sans-serif" font-size="12" lengthAdjust="spacing" textLength="34" x="288" y="300.9824">USCD</text><line style="stroke:#181818;stroke-width:1.5;" x1="268" x2="268" y1="117.9375" y2="296.8281"/><line style="stroke:#181818;stroke-width:1.5;" x1="637" x2="637" y1="63.9688" y2="83.9688"/><rect fill="#F1F1F1" height="33.9688" style="stroke:#181818;stroke-width:1.5;" width="100" x="587" y="83.9688"/><text fill="#000000" font-family="sans-serif" font-size="12" lengthAdjust="spacing" textLength="80" x="597" y="105.1074">EvaNotebook</text><line style="stroke:#181818;stroke-width:1.5;" x1="637" x2="647" y1="149.9219" y2="149.9219"/><rect fill="#F1F1F1" height="33.9688" style="stroke:#181818;stroke-width:1.5;" width="330" x="647" y="132.9375"/><text fill="#000000" font-family="sans-serif" font-size="12" lengthAdjust="spacing" textLength="310" x="657" y="154.0762">No servers. Please don't confuse it with serverless.</text><line style="stroke:#181818;stroke-width:1.5;" x1="637" x2="647" y1="198.8906" y2="198.8906"/><rect fill="#F1F1F1" height="33.9688" style="stroke:#181818;stroke-width:1.5;" width="65" x="647" y="181.9063"/><text fill="#000000" font-family="sans-serif" font-size="12" lengthAdjust="spacing" textLength="45" x="657" y="203.0449">Angular</text><line style="stroke:#181818;stroke-width:1.5;" x1="637" x2="647" y1="247.8594" y2="247.8594"/><rect fill="#F1F1F1" height="33.9688" style="stroke:#181818;stroke-width:1.5;" width="67" x="647" y="230.875"/><text fill="#000000" font-family="sans-serif" font-size="12" lengthAdjust="spacing" textLength="47" x="657" y="252.0137">EditorJS</text><line style="stroke:#181818;stroke-width:1.5;" x1="637" x2="647" y1="296.8281" y2="296.8281"/><rect fill="#F1F1F1" height="33.9688" style="stroke:#181818;stroke-width:1.5;" width="89" x="647" y="279.8438"/><text fill="#000000" font-family="sans-serif" font-size="12" lengthAdjust="spacing" textLength="69" x="657" y="300.9824">Capabilities</text><line style="stroke:#181818;stroke-width:1.5;" x1="691.5" x2="701.5" y1="345.7969" y2="345.7969"/><rect fill="#F1F1F1" height="33.9688" style="stroke:#181818;stroke-width:1.5;" width="94" x="701.5" y="328.8125"/><text fill="#000000" font-family="sans-serif" font-size="12" lengthAdjust="spacing" textLength="74" x="711.5" y="349.9512">Send emails</text><line style="stroke:#181818;stroke-width:1.5;" x1="691.5" x2="701.5" y1="394.7656" y2="394.7656"/><rect fill="#F1F1F1" height="33.9688" style="stroke:#181818;stroke-width:1.5;" width="81" x="701.5" y="377.7813"/><text fill="#000000" font-family="sans-serif" font-size="12" lengthAdjust="spacing" textLength="61" x="711.5" y="398.9199">Send SMS</text><line style="stroke:#181818;stroke-width:1.5;" x1="691.5" x2="701.5" y1="443.7344" y2="443.7344"/><rect fill="#F1F1F1" height="33.9688" style="stroke:#181818;stroke-width:1.5;" width="88" x="701.5" y="426.75"/><text fill="#000000" font-family="sans-serif" font-size="12" lengthAdjust="spacing" textLength="68" x="711.5" y="447.8887">Call people</text><line style="stroke:#181818;stroke-width:1.5;" x1="691.5" x2="701.5" y1="492.7031" y2="492.7031"/><rect fill="#F1F1F1" height="33.9688" style="stroke:#181818;stroke-width:1.5;" width="195" x="701.5" y="475.7188"/><text fill="#000000" font-family="sans-serif" font-size="12" lengthAdjust="spacing" textLength="175" x="711.5" y="496.8574">Control EVA and environment</text><line style="stroke:#181818;stroke-width:1.5;" x1="691.5" x2="701.5" y1="541.6719" y2="541.6719"/><rect fill="#F1F1F1" height="33.9688" style="stroke:#181818;stroke-width:1.5;" width="137" x="701.5" y="524.6875"/><text fill="#000000" font-family="sans-serif" font-size="12" lengthAdjust="spacing" textLength="117" x="711.5" y="545.8262">Connect to ChatGPT</text><line style="stroke:#181818;stroke-width:1.5;" x1="691.5" x2="701.5" y1="590.6406" y2="590.6406"/><rect fill="#F1F1F1" height="33.9688" style="stroke:#181818;stroke-width:1.5;" width="113" x="701.5" y="573.6563"/><text fill="#000000" font-family="sans-serif" font-size="12" lengthAdjust="spacing" textLength="93" x="711.5" y="594.7949">Connect to APIs</text><line style="stroke:#181818;stroke-width:1.5;" x1="691.5" x2="701.5" y1="639.6094" y2="639.6094"/><rect fill="#F1F1F1" height="33.9688" style="stroke:#181818;stroke-width:1.5;" width="104" x="701.5" y="622.625"/><text fill="#000000" font-family="sans-serif" font-size="12" lengthAdjust="spacing" textLength="84" x="711.5" y="643.7637">Web Workers</text><line style="stroke:#181818;stroke-width:1.5;" x1="691.5" x2="701.5" y1="688.5781" y2="688.5781"/><rect fill="#F1F1F1" height="33.9688" style="stroke:#181818;stroke-width:1.5;" width="161" x="701.5" y="671.5938"/><text fill="#000000" font-family="sans-serif" font-size="12" lengthAdjust="spacing" textLength="141" x="711.5" y="692.7324">Collaborative notebook</text><line style="stroke:#181818;stroke-width:1.5;" x1="691.5" x2="701.5" y1="737.5469" y2="737.5469"/><rect fill="#F1F1F1" height="33.9688" style="stroke:#181818;stroke-width:1.5;" width="107" x="701.5" y="720.5625"/><text fill="#000000" font-family="sans-serif" font-size="12" lengthAdjust="spacing" textLength="87" x="711.5" y="741.7012">WebAssembly</text><line style="stroke:#181818;stroke-width:1.5;" x1="691.5" x2="701.5" y1="786.5156" y2="786.5156"/><rect fill="#F1F1F1" height="33.9688" style="stroke:#181818;stroke-width:1.5;" width="90" x="701.5" y="769.5313"/><text fill="#000000" font-family="sans-serif" font-size="12" lengthAdjust="spacing" textLength="70" x="711.5" y="790.6699">Blockchain?</text><line style="stroke:#181818;stroke-width:1.5;" x1="691.5" x2="701.5" y1="835.4844" y2="835.4844"/><rect fill="#F1F1F1" height="33.9688" style="stroke:#181818;stroke-width:1.5;" width="164" x="701.5" y="818.5"/><text fill="#000000" font-family="sans-serif" font-size="12" lengthAdjust="spacing" textLength="144" x="711.5" y="839.6387">Decentralized database</text><line style="stroke:#181818;stroke-width:1.5;" x1="691.5" x2="701.5" y1="884.4531" y2="884.4531"/><rect fill="#F1F1F1" height="33.9688" style="stroke:#181818;stroke-width:1.5;" width="116" x="701.5" y="867.4688"/><text fill="#000000" font-family="sans-serif" font-size="12" lengthAdjust="spacing" textLength="96" x="711.5" y="888.6074">Observable Plot</text><line style="stroke:#181818;stroke-width:1.5;" x1="691.5" x2="691.5" y1="313.8125" y2="884.4531"/><line style="stroke:#181818;stroke-width:1.5;" x1="637" x2="647" y1="933.4219" y2="933.4219"/><rect fill="#F1F1F1" height="33.9688" style="stroke:#181818;stroke-width:1.5;" width="76" x="647" y="916.4375"/><text fill="#000000" font-family="sans-serif" font-size="12" lengthAdjust="spacing" textLength="56" x="657" y="937.5762">Protocols</text><line style="stroke:#181818;stroke-width:1.5;" x1="685" x2="695" y1="982.3906" y2="982.3906"/><rect fill="#F1F1F1" height="33.9688" style="stroke:#181818;stroke-width:1.5;" width="54" x="695" y="965.4063"/><text fill="#000000" font-family="sans-serif" font-size="12" lengthAdjust="spacing" textLength="34" x="705" y="986.5449">MQTT</text><line style="stroke:#181818;stroke-width:1.5;" x1="685" x2="695" y1="1031.3594" y2="1031.3594"/><rect fill="#F1F1F1" height="33.9688" style="stroke:#181818;stroke-width:1.5;" width="97" x="695" y="1014.375"/><text fill="#000000" font-family="sans-serif" font-size="12" lengthAdjust="spacing" textLength="77" x="705" y="1035.5137">WebSockets</text><line style="stroke:#181818;stroke-width:1.5;" x1="685" x2="695" y1="1080.3281" y2="1080.3281"/><rect fill="#F1F1F1" height="33.9688" style="stroke:#181818;stroke-width:1.5;" width="49" x="695" y="1063.3438"/><text fill="#000000" font-family="sans-serif" font-size="12" lengthAdjust="spacing" textLength="29" x="705" y="1084.4824">HTTP</text><line style="stroke:#181818;stroke-width:1.5;" x1="685" x2="695" y1="1129.2969" y2="1129.2969"/><rect fill="#F1F1F1" height="33.9688" style="stroke:#181818;stroke-width:1.5;" width="70" x="695" y="1112.3125"/><text fill="#000000" font-family="sans-serif" font-size="12" lengthAdjust="spacing" textLength="50" x="705" y="1133.4512">WebRTC</text><line style="stroke:#181818;stroke-width:1.5;" x1="685" x2="685" y1="950.4063" y2="1129.2969"/><line style="stroke:#181818;stroke-width:1.5;" x1="637" x2="637" y1="117.9375" y2="933.4219"/><line style="stroke:#181818;stroke-width:1.5;" x1="1028.5" x2="1028.5" y1="63.9688" y2="83.9688"/><rect fill="#F1F1F1" height="33.9688" style="stroke:#181818;stroke-width:1.5;" width="63" x="997" y="83.9688"/><text fill="#000000" font-family="sans-serif" font-size="12" lengthAdjust="spacing" textLength="43" x="1007" y="105.1074">EvaSim</text><line style="stroke:#181818;stroke-width:1.5;" x1="1028.5" x2="1038.5" y1="149.9219" y2="149.9219"/><rect fill="#F1F1F1" height="33.9688" style="stroke:#181818;stroke-width:1.5;" width="50" x="1038.5" y="132.9375"/><text fill="#000000" font-family="sans-serif" font-size="12" lengthAdjust="spacing" textLength="30" x="1048.5" y="154.0762">Unity</text><line style="stroke:#181818;stroke-width:1.5;" x1="1028.5" x2="1038.5" y1="198.8906" y2="198.8906"/><rect fill="#F1F1F1" height="33.9688" style="stroke:#181818;stroke-width:1.5;" width="37" x="1038.5" y="181.9063"/><text fill="#000000" font-family="sans-serif" font-size="12" lengthAdjust="spacing" textLength="17" x="1048.5" y="203.0449">3D</text><line style="stroke:#181818;stroke-width:1.5;" x1="1028.5" x2="1038.5" y1="247.8594" y2="247.8594"/><rect fill="#F1F1F1" height="33.9688" style="stroke:#181818;stroke-width:1.5;" width="70" x="1038.5" y="230.875"/><text fill="#000000" font-family="sans-serif" font-size="12" lengthAdjust="spacing" textLength="50" x="1048.5" y="252.0137">WebRTC</text><line style="stroke:#181818;stroke-width:1.5;" x1="1028.5" x2="1028.5" y1="117.9375" y2="247.8594"/><line style="stroke:#181818;stroke-width:1.5;" x1="1178" x2="1178" y1="63.9688" y2="83.9688"/><rect fill="#F1F1F1" height="33.9688" style="stroke:#181818;stroke-width:1.5;" width="99" x="1128.5" y="83.9688"/><text fill="#000000" font-family="sans-serif" font-size="12" lengthAdjust="spacing" textLength="79" x="1138.5" y="105.1074">EvaLanguage</text><line style="stroke:#181818;stroke-width:1.5;" x1="1178" x2="1188" y1="149.9219" y2="149.9219"/><rect fill="#F1F1F1" height="33.9688" style="stroke:#181818;stroke-width:1.5;" width="200" x="1188" y="132.9375"/><text fill="#000000" font-family="sans-serif" font-size="12" lengthAdjust="spacing" textLength="180" x="1198" y="154.0762">Visual Programming Language</text><line style="stroke:#181818;stroke-width:1.5;" x1="1178" x2="1188" y1="198.8906" y2="198.8906"/><rect fill="#F1F1F1" height="33.9688" style="stroke:#181818;stroke-width:1.5;" width="111" x="1188" y="181.9063"/><text fill="#000000" font-family="sans-serif" font-size="12" lengthAdjust="spacing" textLength="91" x="1198" y="203.0449">Google Blockly</text><line style="stroke:#181818;stroke-width:1.5;" x1="1178" x2="1188" y1="247.8594" y2="247.8594"/><rect fill="#F1F1F1" height="33.9688" style="stroke:#181818;stroke-width:1.5;" width="214" x="1188" y="230.875"/><text fill="#000000" font-family="sans-serif" font-size="12" lengthAdjust="spacing" textLength="194" x="1198" y="252.0137">JSON Domain-Specific Language</text><line style="stroke:#181818;stroke-width:1.5;" x1="1178" x2="1178" y1="117.9375" y2="247.8594"/><line style="stroke:#181818;stroke-width:1.5;" x1="1452.5" x2="1452.5" y1="63.9688" y2="83.9688"/><rect fill="#F1F1F1" height="33.9688" style="stroke:#181818;stroke-width:1.5;" width="61" x="1422" y="83.9688"/><text fill="#000000" font-family="sans-serif" font-size="12" lengthAdjust="spacing" textLength="41" x="1432" y="105.1074">Evabot</text><line style="stroke:#181818;stroke-width:1.5;" x1="1452.5" x2="1462.5" y1="149.9219" y2="149.9219"/><rect fill="#F1F1F1" height="33.9688" style="stroke:#181818;stroke-width:1.5;" width="108" x="1462.5" y="132.9375"/><text fill="#000000" font-family="sans-serif" font-size="12" lengthAdjust="spacing" textLength="88" x="1472.5" y="154.0762">3D impression</text><line style="stroke:#181818;stroke-width:1.5;" x1="1516.5" x2="1526.5" y1="198.8906" y2="198.8906"/><rect fill="#F1F1F1" height="33.9688" style="stroke:#181818;stroke-width:1.5;" width="67" x="1526.5" y="181.9063"/><text fill="#000000" font-family="sans-serif" font-size="12" lengthAdjust="spacing" textLength="47" x="1536.5" y="203.0449">Blender</text><line style="stroke:#181818;stroke-width:1.5;" x1="1516.5" x2="1516.5" y1="166.9063" y2="198.8906"/><line style="stroke:#181818;stroke-width:1.5;" x1="1452.5" x2="1462.5" y1="247.8594" y2="247.8594"/><rect fill="#F1F1F1" height="33.9688" style="stroke:#181818;stroke-width:1.5;" width="153" x="1462.5" y="230.875"/><text fill="#000000" font-family="sans-serif" font-size="12" lengthAdjust="spacing" textLength="133" x="1472.5" y="252.0137">Software components</text><line style="stroke:#181818;stroke-width:1.5;" x1="1539" x2="1549" y1="296.8281" y2="296.8281"/><rect fill="#F1F1F1" height="33.9688" style="stroke:#181818;stroke-width:1.5;" width="99" x="1549" y="279.8438"/><text fill="#000000" font-family="sans-serif" font-size="12" lengthAdjust="spacing" textLength="79" x="1559" y="300.9824">New  version</text><line style="stroke:#181818;stroke-width:1.5;" x1="1598.5" x2="1608.5" y1="345.7969" y2="345.7969"/><rect fill="#F1F1F1" height="33.9688" style="stroke:#181818;stroke-width:1.5;" width="54" x="1608.5" y="328.8125"/><text fill="#000000" font-family="sans-serif" font-size="12" lengthAdjust="spacing" textLength="34" x="1618.5" y="349.9512">MQTT</text><line style="stroke:#181818;stroke-width:1.5;" x1="1598.5" x2="1608.5" y1="394.7656" y2="394.7656"/><rect fill="#F1F1F1" height="33.9688" style="stroke:#181818;stroke-width:1.5;" width="70" x="1608.5" y="377.7813"/><text fill="#000000" font-family="sans-serif" font-size="12" lengthAdjust="spacing" textLength="50" x="1618.5" y="398.9199">Rhasspy</text><line style="stroke:#181818;stroke-width:1.5;" x1="1598.5" x2="1598.5" y1="313.8125" y2="394.7656"/><line style="stroke:#181818;stroke-width:1.5;" x1="1539" x2="1549" y1="443.7344" y2="443.7344"/><rect fill="#F1F1F1" height="33.9688" style="stroke:#181818;stroke-width:1.5;" width="92" x="1549" y="426.75"/><text fill="#000000" font-family="sans-serif" font-size="12" lengthAdjust="spacing" textLength="72" x="1559" y="447.8887">MEAN stack.</text><line style="stroke:#181818;stroke-width:1.5;" x1="1595" x2="1605" y1="492.7031" y2="492.7031"/><rect fill="#F1F1F1" height="33.9688" style="stroke:#181818;stroke-width:1.5;" width="78" x="1605" y="475.7188"/><text fill="#000000" font-family="sans-serif" font-size="12" lengthAdjust="spacing" textLength="58" x="1615" y="496.8574">MongoDB</text><line style="stroke:#181818;stroke-width:1.5;" x1="1595" x2="1605" y1="541.6719" y2="541.6719"/><rect fill="#F1F1F1" height="33.9688" style="stroke:#181818;stroke-width:1.5;" width="69" x="1605" y="524.6875"/><text fill="#000000" font-family="sans-serif" font-size="12" lengthAdjust="spacing" textLength="49" x="1615" y="545.8262">Express</text><line style="stroke:#181818;stroke-width:1.5;" x1="1595" x2="1605" y1="590.6406" y2="590.6406"/><rect fill="#F1F1F1" height="33.9688" style="stroke:#181818;stroke-width:1.5;" width="77" x="1605" y="573.6563"/><text fill="#000000" font-family="sans-serif" font-size="12" lengthAdjust="spacing" textLength="57" x="1615" y="594.7949">AngularJS</text><line style="stroke:#181818;stroke-width:1.5;" x1="1595" x2="1605" y1="639.6094" y2="639.6094"/><rect fill="#F1F1F1" height="33.9688" style="stroke:#181818;stroke-width:1.5;" width="64" x="1605" y="622.625"/><text fill="#000000" font-family="sans-serif" font-size="12" lengthAdjust="spacing" textLength="44" x="1615" y="643.7637">NodeJS</text><line style="stroke:#181818;stroke-width:1.5;" x1="1595" x2="1605" y1="688.5781" y2="688.5781"/><rect fill="#F1F1F1" height="33.9688" style="stroke:#181818;stroke-width:1.5;" width="184" x="1605" y="671.5938"/><text fill="#000000" font-family="sans-serif" font-size="12" lengthAdjust="spacing" textLength="164" x="1615" y="692.7324">PM2 (i.e. Process manager)</text><line style="stroke:#181818;stroke-width:1.5;" x1="1595" x2="1605" y1="737.5469" y2="737.5469"/><rect fill="#F1F1F1" height="33.9688" style="stroke:#181818;stroke-width:1.5;" width="133" x="1605" y="720.5625"/><text fill="#000000" font-family="sans-serif" font-size="12" lengthAdjust="spacing" textLength="113" x="1615" y="741.7012">Interactions by VPL</text><line style="stroke:#181818;stroke-width:1.5;" x1="1595" x2="1595" y1="460.7188" y2="737.5469"/><line style="stroke:#181818;stroke-width:1.5;" x1="1539" x2="1549" y1="786.5156" y2="786.5156"/><rect fill="#F1F1F1" height="33.9688" style="stroke:#181818;stroke-width:1.5;" width="118" x="1549" y="769.5313"/><text fill="#000000" font-family="sans-serif" font-size="12" lengthAdjust="spacing" textLength="98" x="1559" y="790.6699">Computer vision</text><line style="stroke:#181818;stroke-width:1.5;" x1="1608" x2="1618" y1="835.4844" y2="835.4844"/><rect fill="#F1F1F1" height="33.9688" style="stroke:#181818;stroke-width:1.5;" width="83" x="1618" y="818.5"/><text fill="#000000" font-family="sans-serif" font-size="12" lengthAdjust="spacing" textLength="63" x="1628" y="839.6387">Mediapipe</text><line style="stroke:#181818;stroke-width:1.5;" x1="1608" x2="1608" y1="803.5" y2="835.4844"/><line style="stroke:#181818;stroke-width:1.5;" x1="1539" x2="1549" y1="884.4531" y2="884.4531"/><rect fill="#F1F1F1" height="33.9688" style="stroke:#181818;stroke-width:1.5;" width="255" x="1549" y="867.4688"/><text fill="#000000" font-family="sans-serif" font-size="12" lengthAdjust="spacing" textLength="235" x="1559" y="888.6074">Voice and natural language processing</text><line style="stroke:#181818;stroke-width:1.5;" x1="1676.5" x2="1686.5" y1="933.4219" y2="933.4219"/><rect fill="#F1F1F1" height="33.9688" style="stroke:#181818;stroke-width:1.5;" width="90" x="1686.5" y="916.4375"/><text fill="#000000" font-family="sans-serif" font-size="12" lengthAdjust="spacing" textLength="70" x="1696.5" y="937.5762">IBM Watson</text><line style="stroke:#181818;stroke-width:1.5;" x1="1676.5" x2="1686.5" y1="982.3906" y2="982.3906"/><rect fill="#F1F1F1" height="33.9688" style="stroke:#181818;stroke-width:1.5;" width="150" x="1686.5" y="965.4063"/><text fill="#000000" font-family="sans-serif" font-size="12" lengthAdjust="spacing" textLength="130" x="1696.5" y="986.5449">Dialogflow by Google</text><line style="stroke:#181818;stroke-width:1.5;" x1="1676.5" x2="1686.5" y1="1031.3594" y2="1031.3594"/><rect fill="#F1F1F1" height="33.9688" style="stroke:#181818;stroke-width:1.5;" width="98" x="1686.5" y="1014.375"/><text fill="#000000" font-family="sans-serif" font-size="12" lengthAdjust="spacing" textLength="78" x="1696.5" y="1035.5137">Telegram API</text><line style="stroke:#181818;stroke-width:1.5;" x1="1676.5" x2="1686.5" y1="1080.3281" y2="1080.3281"/><rect fill="#F1F1F1" height="33.9688" style="stroke:#181818;stroke-width:1.5;" width="125" x="1686.5" y="1063.3438"/><text fill="#000000" font-family="sans-serif" font-size="12" lengthAdjust="spacing" textLength="105" x="1696.5" y="1084.4824">The Wizard of Oz</text><line style="stroke:#181818;stroke-width:1.5;" x1="1676.5" x2="1676.5" y1="901.4375" y2="1080.3281"/><line style="stroke:#181818;stroke-width:1.5;" x1="1539" x2="1539" y1="264.8438" y2="884.4531"/><line style="stroke:#181818;stroke-width:1.5;" x1="1452.5" x2="1462.5" y1="1129.2969" y2="1129.2969"/><rect fill="#F1F1F1" height="33.9688" style="stroke:#181818;stroke-width:1.5;" width="158" x="1462.5" y="1112.3125"/><text fill="#000000" font-family="sans-serif" font-size="12" lengthAdjust="spacing" textLength="138" x="1472.5" y="1133.4512">Hardware components</text><line style="stroke:#181818;stroke-width:1.5;" x1="1541.5" x2="1551.5" y1="1178.2656" y2="1178.2656"/><rect fill="#F1F1F1" height="33.9688" style="stroke:#181818;stroke-width:1.5;" width="154" x="1551.5" y="1161.2813"/><text fill="#000000" font-family="sans-serif" font-size="12" lengthAdjust="spacing" textLength="134" x="1561.5" y="1182.4199">Amoled Touch Display</text><line style="stroke:#181818;stroke-width:1.5;" x1="1541.5" x2="1551.5" y1="1227.2344" y2="1227.2344"/><rect fill="#F1F1F1" height="33.9688" style="stroke:#181818;stroke-width:1.5;" width="107" x="1551.5" y="1210.25"/><text fill="#000000" font-family="sans-serif" font-size="12" lengthAdjust="spacing" textLength="87" x="1561.5" y="1231.3887">Raspberry PI 4</text><line style="stroke:#181818;stroke-width:1.5;" x1="1541.5" x2="1551.5" y1="1276.2031" y2="1276.2031"/><rect fill="#F1F1F1" height="33.9688" style="stroke:#181818;stroke-width:1.5;" width="79" x="1551.5" y="1259.2188"/><text fill="#000000" font-family="sans-serif" font-size="12" lengthAdjust="spacing" textLength="59" x="1561.5" y="1280.3574">ArbotiX-M</text><line style="stroke:#181818;stroke-width:1.5;" x1="1541.5" x2="1551.5" y1="1325.1719" y2="1325.1719"/><rect fill="#F1F1F1" height="33.9688" style="stroke:#181818;stroke-width:1.5;" width="127" x="1551.5" y="1308.1875"/><text fill="#000000" font-family="sans-serif" font-size="12" lengthAdjust="spacing" textLength="107" x="1561.5" y="1329.3262">Two servomotors</text><line style="stroke:#181818;stroke-width:1.5;" x1="1541.5" x2="1551.5" y1="1374.1406" y2="1374.1406"/><rect fill="#F1F1F1" height="33.9688" style="stroke:#181818;stroke-width:1.5;" width="131" x="1551.5" y="1357.1563"/><text fill="#000000" font-family="sans-serif" font-size="12" lengthAdjust="spacing" textLength="111" x="1561.5" y="1378.2949">Bluetooth speaker</text><line style="stroke:#181818;stroke-width:1.5;" x1="1541.5" x2="1551.5" y1="1423.1094" y2="1423.1094"/><rect fill="#F1F1F1" height="33.9688" style="stroke:#181818;stroke-width:1.5;" width="93" x="1551.5" y="1406.125"/><text fill="#000000" font-family="sans-serif" font-size="12" lengthAdjust="spacing" textLength="73" x="1561.5" y="1427.2637">Matrix voice</text><line style="stroke:#181818;stroke-width:1.5;" x1="1541.5" x2="1551.5" y1="1472.0781" y2="1472.0781"/><rect fill="#F1F1F1" height="33.9688" style="stroke:#181818;stroke-width:1.5;" width="73" x="1551.5" y="1455.0938"/><text fill="#000000" font-family="sans-serif" font-size="12" lengthAdjust="spacing" textLength="53" x="1561.5" y="1476.2324">Webcam</text><line style="stroke:#181818;stroke-width:1.5;" x1="1541.5" x2="1551.5" y1="1521.0469" y2="1521.0469"/><rect fill="#F1F1F1" height="33.9688" style="stroke:#181818;stroke-width:1.5;" width="85" x="1551.5" y="1504.0625"/><text fill="#000000" font-family="sans-serif" font-size="12" lengthAdjust="spacing" textLength="65" x="1561.5" y="1525.2012">Smart Bulb</text><line style="stroke:#181818;stroke-width:1.5;" x1="1541.5" x2="1541.5" y1="1146.2813" y2="1521.0469"/><line style="stroke:#181818;stroke-width:1.5;" x1="1452.5" x2="1452.5" y1="117.9375" y2="1129.2969"/><line style="stroke:#181818;stroke-width:1.5;" x1="114" x2="1452.5" y1="63.9688" y2="63.9688"/><rect fill="#F1F1F1" height="33.9688" style="stroke:#181818;stroke-width:1.5;" width="93" x="736.75" y="10"/><text fill="#000000" font-family="sans-serif" font-size="12" lengthAdjust="spacing" textLength="73" x="746.75" y="31.1387">Eva Platform</text><line style="stroke:#181818;stroke-width:1.5;" x1="783.25" x2="783.25" y1="43.9688" y2="63.9688"/><!--SRC=[RLJRak9637ttL-WjC5LGoSmcbPgNNQvpASmuOyFaLRO5TD5kkRhRiCpNHxuHDfidqAKjwPmZVNCUhJ-dBhY3nGaXqkXtR8lWxWusZkneHiQJfHpcvDJUG6Gv8oVfal2-YPfVyNdsbv9gDoI4HHkVlSmMyQBvkp7gHDQf77E29ULaKSDILuKoP1p1OBDS3l-R2P8xG-ULrZXQ8OHeiWF2eC12QKox_7WshyjAzslsb38V6_-QGVglFpMMgGYbICxc5myPcrqbbl9mLlxGPMaPQjmyd9XzfT4s_nUvycnVutOSB35LMddL32gUc4mELA3IjuuuZ5jhXbf3ILngwXnil6KDY-q4i7vgJigoAGJZQuAXp8Ddc1tGFqN9J_v9zD8L-w0KFjWUPSG-Iu1AsQ8N2C7SeD4aJvoZ8jMNrZ7Ld1q5JcM-jeuvPTA7yA8-XUuSFQO2MXjxIskKCDKaMBB_b_MC-z73lvBaMYgMRvFl8iz94bqZxyciOojMHK-uRtg2XtdmKzOAXGxSDtt0LhbAT2ELznOBqSuUVeW_CU-bnMQqTavuZT_MC6VXo8pYaZArKzdjexf6satqC0TLb5QKeDZqA0cZr8eXvfq_eoLHK56owBOVS4rdW4QqtRCRD6HB3kXSsQ4UBYPha9tBZkC-aysUvzFEMdnlwdTM9yLMVuscSxeQKNWF0pMcSR-JKA2HeUomItYfDnSpBrqvI2-mZLQzJegoaXYSr6tBb2iiLTbHlcMLKQDIWxwgrrLtg47PrXFu-qhJ43xGk-ktvWerxtUQptNXbfOkb92cchrQoBthGF2XFj7cm3ju-spGVXRpVz6U5An5e0bNsK4AkL9Z1-uxkZ8bQoyGlS2NrWSJA_IglqTXQoVdzYvm8Uhj5sUgA_BCzJ4e2Oyjtu88Ugk-mwb6uYhW38jkrmkvd32jT1fy4v7KDpIGysdy9bprQe3VnlU_tZ-CVq_9uyDWOuw6pwOPIObGlIfe60oUeXKuhgpWdIidDTEg9cqOlAASvFVAr7cFK5k391n2lEYTiBYv8A_Ri4s2P_PnoRv9_kFBQ2gdBcwk76p3O4uxhBINfnddmk4ZR9BbwC-WNuf7EKl1ZAM0lKWi_WS0]--></g></svg>