<?xml version="1.0" encoding="windows-1252" standalone="no"?>
<svg xmlns="http://www.w3.org/2000/svg" xmlns:xlink="http://www.w3.org/1999/xlink" contentStyleType="text/css" height="364px" preserveAspectRatio="none" style="width:868px;height:364px;background:#FFFFFF;" version="1.1" viewBox="0 0 868 364" width="868px" zoomAndPan="magnify"><script xmlns="" id="dashlane_tiresias"/><script xmlns="" id="dashlane_webauthn"/><defs/><g><ellipse cx="104" cy="20" fill="#222222" rx="10" ry="10" style="stroke:#222222;stroke-width:1.0;"/><path d="M214.5,54.418 L214.5,62.9844 L194.5,66.9844 L214.5,70.9844 L214.5,79.5508 A0,0 0 0 0 214.5,79.5508 L856.5,79.5508 A0,0 0 0 0 856.5,79.5508 L856.5,64.418 L846.5,54.418 L214.5,54.418 A0,0 0 0 0 214.5,54.418 " fill="#FEFFDD" style="stroke:#181818;stroke-width:0.5;"/><path d="M846.5,54.418 L846.5,64.418 L856.5,64.418 L846.5,54.418 " fill="#FEFFDD" style="stroke:#181818;stroke-width:0.5;"/><text fill="#000000" font-family="sans-serif" font-size="13" lengthAdjust="spacing" textLength="621" x="220.5" y="71.4849">Analizar las interpretaciones con el objetivo de entender las notas médicas y clasificarlas con CIE</text><rect fill="#F1F1F1" height="33.9688" rx="12.5" ry="12.5" style="stroke:#181818;stroke-width:0.5;" width="181" x="13.5" y="50"/><text fill="#000000" font-family="sans-serif" font-size="12" lengthAdjust="spacing" textLength="161" x="23.5" y="71.1387">Entendimiento del Dominio</text><path d="M217,108.3867 L217,116.9531 L197,120.9531 L217,124.9531 L217,133.5195 A0,0 0 0 0 217,133.5195 L693,133.5195 A0,0 0 0 0 693,133.5195 L693,118.3867 L683,108.3867 L217,108.3867 A0,0 0 0 0 217,108.3867 " fill="#FEFFDD" style="stroke:#181818;stroke-width:0.5;"/><path d="M683,108.3867 L683,118.3867 L693,118.3867 L683,108.3867 " fill="#FEFFDD" style="stroke:#181818;stroke-width:0.5;"/><text fill="#000000" font-family="sans-serif" font-size="13" lengthAdjust="spacing" textLength="455" x="223" y="125.4536">Visualización de datos, inferencia estadística, estadísticas descriptivas.</text><rect fill="#F1F1F1" height="33.9688" rx="12.5" ry="12.5" style="stroke:#181818;stroke-width:0.5;" width="186" x="11" y="103.9688"/><text fill="#000000" font-family="sans-serif" font-size="12" lengthAdjust="spacing" textLength="166" x="21" y="125.1074">Entendimiento de los Datos</text><path d="M210,162.3555 L210,170.9219 L190,174.9219 L210,178.9219 L210,187.4883 A0,0 0 0 0 210,187.4883 L553,187.4883 A0,0 0 0 0 553,187.4883 L553,172.3555 L543,162.3555 L210,162.3555 A0,0 0 0 0 210,162.3555 " fill="#FEFFDD" style="stroke:#181818;stroke-width:0.5;"/><path d="M543,162.3555 L543,172.3555 L553,172.3555 L543,162.3555 " fill="#FEFFDD" style="stroke:#181818;stroke-width:0.5;"/><text fill="#000000" font-family="sans-serif" font-size="13" lengthAdjust="spacing" textLength="322" x="216" y="179.4224">Selección de instancias. Muestreo. Remover ruido.</text><rect fill="#F1F1F1" height="33.9688" rx="12.5" ry="12.5" style="stroke:#181818;stroke-width:0.5;" width="172" x="18" y="157.9375"/><text fill="#000000" font-family="sans-serif" font-size="12" lengthAdjust="spacing" textLength="152" x="28" y="179.0762">Preparación de los Datos</text><path d="M177,216.3242 L177,224.8906 L157,228.8906 L177,232.8906 L177,241.457 A0,0 0 0 0 177,241.457 L356,241.457 A0,0 0 0 0 356,241.457 L356,226.3242 L346,216.3242 L177,216.3242 A0,0 0 0 0 177,216.3242 " fill="#FEFFDD" style="stroke:#181818;stroke-width:0.5;"/><path d="M346,216.3242 L346,226.3242 L356,226.3242 L346,216.3242 " fill="#FEFFDD" style="stroke:#181818;stroke-width:0.5;"/><text fill="#000000" font-family="sans-serif" font-size="13" lengthAdjust="spacing" textLength="158" x="183" y="233.3911">Embeddings, Tensorflow</text><rect fill="#F1F1F1" height="33.9688" rx="12.5" ry="12.5" style="stroke:#181818;stroke-width:0.5;" width="106" x="51" y="211.9063"/><text fill="#000000" font-family="sans-serif" font-size="12" lengthAdjust="spacing" textLength="86" x="61" y="233.0449">Entrenamiento</text><path d="M205.5,270.293 L205.5,278.8594 L185.5,282.8594 L205.5,286.8594 L205.5,295.4258 A0,0 0 0 0 205.5,295.4258 L555.5,295.4258 A0,0 0 0 0 555.5,295.4258 L555.5,280.293 L545.5,270.293 L205.5,270.293 A0,0 0 0 0 205.5,270.293 " fill="#FEFFDD" style="stroke:#181818;stroke-width:0.5;"/><path d="M545.5,270.293 L545.5,280.293 L555.5,280.293 L545.5,270.293 " fill="#FEFFDD" style="stroke:#181818;stroke-width:0.5;"/><text fill="#000000" font-family="sans-serif" font-size="13" lengthAdjust="spacing" textLength="329" x="211.5" y="287.3599">Métricas del modelo. Matriz de confusión, precisión.</text><rect fill="#F1F1F1" height="33.9688" rx="12.5" ry="12.5" style="stroke:#181818;stroke-width:0.5;" width="163" x="22.5" y="265.875"/><text fill="#000000" font-family="sans-serif" font-size="12" lengthAdjust="spacing" textLength="143" x="32.5" y="287.0137">Evaluación (Resultados)</text><path d="M168.5,324.2617 L168.5,332.8281 L148.5,336.8281 L168.5,340.8281 L168.5,349.3945 A0,0 0 0 0 168.5,349.3945 L418.5,349.3945 A0,0 0 0 0 418.5,349.3945 L418.5,334.2617 L408.5,324.2617 L168.5,324.2617 A0,0 0 0 0 168.5,324.2617 " fill="#FEFFDD" style="stroke:#181818;stroke-width:0.5;"/><path d="M408.5,324.2617 L408.5,334.2617 L418.5,334.2617 L408.5,324.2617 " fill="#FEFFDD" style="stroke:#181818;stroke-width:0.5;"/><text fill="#000000" font-family="sans-serif" font-size="13" lengthAdjust="spacing" textLength="229" x="174.5" y="341.3286">Consumir modelo con una API REST</text><rect fill="#F1F1F1" height="33.9688" rx="12.5" ry="12.5" style="stroke:#181818;stroke-width:0.5;" width="89" x="59.5" y="319.8438"/><text fill="#000000" font-family="sans-serif" font-size="12" lengthAdjust="spacing" textLength="69" x="69.5" y="340.9824">Despliegue</text><line style="stroke:#181818;stroke-width:1.0;" x1="104" x2="104" y1="30" y2="50"/><polygon fill="#181818" points="100,40,104,50,108,40,104,44" style="stroke:#181818;stroke-width:1.0;"/><line style="stroke:#181818;stroke-width:1.0;" x1="104" x2="104" y1="83.9688" y2="103.9688"/><polygon fill="#181818" points="100,93.9688,104,103.9688,108,93.9688,104,97.9688" style="stroke:#181818;stroke-width:1.0;"/><line style="stroke:#181818;stroke-width:1.0;" x1="104" x2="104" y1="137.9375" y2="157.9375"/><polygon fill="#181818" points="100,147.9375,104,157.9375,108,147.9375,104,151.9375" style="stroke:#181818;stroke-width:1.0;"/><line style="stroke:#181818;stroke-width:1.0;" x1="104" x2="104" y1="191.9063" y2="211.9063"/><polygon fill="#181818" points="100,201.9063,104,211.9063,108,201.9063,104,205.9063" style="stroke:#181818;stroke-width:1.0;"/><line style="stroke:#181818;stroke-width:1.0;" x1="104" x2="104" y1="245.875" y2="265.875"/><polygon fill="#181818" points="100,255.875,104,265.875,108,255.875,104,259.875" style="stroke:#181818;stroke-width:1.0;"/><line style="stroke:#181818;stroke-width:1.0;" x1="104" x2="104" y1="299.8438" y2="319.8438"/><polygon fill="#181818" points="100,309.8438,104,319.8438,108,309.8438,104,313.8438" style="stroke:#181818;stroke-width:1.0;"/><!--SRC=[TP6nRW8n38Ptdi9ZAw5x03eXk841gGBKFIG-wYg9Jt52LTw8eLCVuLwipe5QdQekKPBp__dpHR99URPeOyReA136pE3Gmve3HUAdMUICaEZqcXUmZCRJnIJmHe0qa_g4sLZYY0AM8sYIZs-OwLmnW2CNRm4bwHg6goEhcm-mUakT7bBzNEEhJVjN1ZmBh4rccTgya9JHnzBm5MkXgqLpDUimORHa02KRDtnArYxpoKaq83PHhwv6cjdYEM5lqY_idwvxz6X_YYWgidQI1hP5-GcvWHq6FklKgP3ZPfn8VSnjeYck3KTqZk99lGyOXLFd-HqqSpQ-t6qUTYZ5gplBupI-7QuvtQVn45XNxRyrUdcfVlfJko8LCWTzAqlZNfNMABqdF1MS0bSSfGHATzRuAYKQM3vlODVk3zy0]--></g></svg>