<svg version="1.1" viewBox="0.0 0.0 610.0 377.0" fill="none" stroke="none" stroke-linecap="square" stroke-miterlimit="10" width="610" height="377" xmlns:xlink="http://www.w3.org/1999/xlink" xmlns="http://www.w3.org/2000/svg"><path fill="#ffffff" d="M0 0L610.0 0L610.0 377.0L0 377.0L0 0Z" fill-rule="nonzero"/><path stroke="#333333" stroke-width="1.0" stroke-linecap="butt" d="M59.5 306.5L591.5 306.5" fill-rule="nonzero"/><path stroke="#cccccc" stroke-width="1.0" stroke-linecap="butt" d="M59.5 245.5L591.5 245.5" fill-rule="nonzero"/><path stroke="#cccccc" stroke-width="1.0" stroke-linecap="butt" d="M59.5 184.5L591.5 184.5" fill-rule="nonzero"/><path stroke="#cccccc" stroke-width="1.0" stroke-linecap="butt" d="M59.5 123.5L591.5 123.5" fill-rule="nonzero"/><path stroke="#cccccc" stroke-width="1.0" stroke-linecap="butt" d="M59.5 62.5L591.5 62.5" fill-rule="nonzero"/><clipPath id="id_0"><path d="M59.85 62.416668L591.15 62.416668L591.15 306.15L59.85 306.15L59.85 62.416668Z" clip-rule="nonzero"/></clipPath><path stroke="#000000" stroke-width="2.0" stroke-linecap="butt" stroke-opacity="0.0" clip-path="url(#id_0)" d="M143.0 306.0L89.0 306.0L89.0 286.0C89.0 284.89542 89.89543 284.0 91.0 284.0L141.0 284.0C142.10457 284.0 143.0 284.89542 143.0 286.0Z" fill-rule="nonzero"/><path fill="#4472c4" clip-path="url(#id_0)" d="M143.0 306.0L89.0 306.0L89.0 286.0C89.0 284.89542 89.89543 284.0 91.0 284.0L141.0 284.0C142.10457 284.0 143.0 284.89542 143.0 286.0Z" fill-rule="nonzero"/><path stroke="#000000" stroke-width="2.0" stroke-linecap="butt" stroke-opacity="0.0" clip-path="url(#id_0)" d="M227.0 306.0L173.0 306.0L173.0 125.0C173.0 123.89543 173.89543 123.0 175.0 123.0L225.0 123.0C226.10457 123.0 227.0 123.89543 227.0 125.0Z" fill-rule="nonzero"/><path fill="#4472c4" clip-path="url(#id_0)" d="M227.0 306.0L173.0 306.0L173.0 125.0C173.0 123.89543 173.89543 123.0 175.0 123.0L225.0 123.0C226.10457 123.0 227.0 123.89543 227.0 125.0Z" fill-rule="nonzero"/><path stroke="#000000" stroke-width="2.0" stroke-linecap="butt" stroke-opacity="0.0" clip-path="url(#id_0)" d="M311.0 306.0L257.0 306.0L257.0 304.5C257.0 303.67157 257.67157 303.0 258.5 303.0L309.5 303.0C310.32843 303.0 311.0 303.67157 311.0 304.5Z" fill-rule="nonzero"/><path fill="#4472c4" clip-path="url(#id_0)" d="M311.0 306.0L257.0 306.0L257.0 304.5C257.0 303.67157 257.67157 303.0 258.5 303.0L309.5 303.0C310.32843 303.0 311.0 303.67157 311.0 304.5Z" fill-rule="nonzero"/><path stroke="#000000" stroke-width="2.0" stroke-linecap="butt" stroke-opacity="0.0" clip-path="url(#id_0)" d="M394.0 306.0L340.0 306.0L340.0 194.0C340.0 192.89543 340.89542 192.0 342.0 192.0L392.0 192.0C393.10458 192.0 394.0 192.89543 394.0 194.0Z" fill-rule="nonzero"/><path fill="#4472c4" clip-path="url(#id_0)" d="M394.0 306.0L340.0 306.0L340.0 194.0C340.0 192.89543 340.89542 192.0 342.0 192.0L392.0 192.0C393.10458 192.0 394.0 192.89543 394.0 194.0Z" fill-rule="nonzero"/><path stroke="#000000" stroke-width="2.0" stroke-linecap="butt" stroke-opacity="0.0" clip-path="url(#id_0)" d="M478.0 306.0L424.0 306.0L424.0 292.0C424.0 290.89542 424.89542 290.0 426.0 290.0L476.0 290.0C477.10458 290.0 478.0 290.89542 478.0 292.0Z" fill-rule="nonzero"/><path fill="#4472c4" clip-path="url(#id_0)" d="M478.0 306.0L424.0 306.0L424.0 292.0C424.0 290.89542 424.89542 290.0 426.0 290.0L476.0 290.0C477.10458 290.0 478.0 290.89542 478.0 292.0Z" fill-rule="nonzero"/><path stroke="#000000" stroke-width="2.0" stroke-linecap="butt" stroke-opacity="0.0" clip-path="url(#id_0)" d="M562.0 306.0L508.0 306.0L508.0 305.5C508.0 305.22385 508.22385 305.0 508.5 305.0L561.5 305.0C561.7761 305.0 562.0 305.22385 562.0 305.5Z" fill-rule="nonzero"/><path fill="#4472c4" clip-path="url(#id_0)" d="M562.0 306.0L508.0 306.0L508.0 305.5C508.0 305.22385 508.22385 305.0 508.5 305.0L561.5 305.0C561.7761 305.0 562.0 305.22385 562.0 305.5Z" fill-rule="nonzero"/><path fill="#000000" d="M304.375 355.15L304.375 346.55624L307.60938 346.55624Q308.59375 346.55624 309.1875 346.82187Q309.78125 347.0875 310.10938 347.63437Q310.45312 348.16562 310.45312 348.75937Q310.45312 349.30624 310.15625 349.79062Q309.85938 350.275 309.25 350.57187Q310.03125 350.80624 310.4375 351.36874Q310.85938 351.91562 310.85938 352.66562Q310.85938 353.25937 310.60938 353.79062Q310.35938 354.30624 309.98438 354.5875Q309.60938 354.86874 309.03125 355.00937Q308.46875 355.15 307.65625 355.15L304.375 355.15ZM305.51562 350.16562L307.375 350.16562Q308.125 350.16562 308.45312 350.07187Q308.89062 349.94687 309.10938 349.65Q309.32812 349.3375 309.32812 348.88437Q309.32812 348.4625 309.125 348.13437Q308.92188 347.80624 308.53125 347.69687Q308.15625 347.57187 307.23438 347.57187L305.51562 347.57187L305.51562 350.16562ZM305.51562 354.13437L307.65625 354.13437Q308.20312 354.13437 308.42188 354.0875Q308.82812 354.025 309.07812 353.86874Q309.34375 353.69687 309.51562 353.38437Q309.6875 353.07187 309.6875 352.66562Q309.6875 352.18124 309.4375 351.82187Q309.20312 351.4625 308.76562 351.32187Q308.32812 351.18124 307.5 351.18124L305.51562 351.18124L305.51562 354.13437ZM312.625 355.15L312.625 346.55624L313.75 346.55624L313.75 355.15L312.625 355.15ZM315.4375 355.15L315.4375 346.55624L319.25 346.55624Q320.40625 346.55624 321.0 346.79062Q321.59375 347.025 321.95312 347.61874Q322.3125 348.19687 322.3125 348.9Q322.3125 349.82187 321.71875 350.44687Q321.125 351.07187 319.89062 351.24374Q320.34375 351.4625 320.57812 351.66562Q321.07812 352.11874 321.51562 352.80624L323.01562 355.15L321.57812 355.15L320.45312 353.36874Q319.95312 352.5875 319.625 352.18124Q319.3125 351.775 319.04688 351.61874Q318.79688 351.44687 318.53125 351.36874Q318.34375 351.3375 317.90625 351.3375L316.57812 351.3375L316.57812 355.15L315.4375 355.15ZM316.57812 350.35312L319.03125 350.35312Q319.79688 350.35312 320.23438 350.19687Q320.6875 350.025 320.90625 349.68124Q321.14062 349.32187 321.14062 348.9Q321.14062 348.29062 320.6875 347.9Q320.25 347.50937 319.29688 347.50937L316.57812 347.50937L316.57812 350.35312ZM323.48438 355.15L326.78125 346.55624L328.0 346.55624L331.51562 355.15L330.23438 355.15L329.21875 352.54062L325.64062 352.54062L324.6875 355.15L323.48438 355.15ZM325.96875 351.61874L328.875 351.61874L327.98438 349.24374Q327.5625 348.16562 327.375 347.4625Q327.20312 348.29062 326.90625 349.10312L325.96875 351.61874ZM331.42188 355.15L331.42188 346.55624L334.39062 346.55624Q335.39062 346.55624 335.92188 346.68124Q336.65625 346.85312 337.17188 347.29062Q337.85938 347.86874 338.1875 348.775Q338.53125 349.66562 338.53125 350.80624Q338.53125 351.79062 338.29688 352.54062Q338.07812 353.29062 337.71875 353.79062Q337.35938 354.29062 336.92188 354.57187Q336.5 354.85312 335.90625 355.00937Q335.3125 355.15 334.53125 355.15L331.42188 355.15ZM332.5625 354.13437L334.39062 354.13437Q335.25 354.13437 335.73438 353.97812Q336.21875 353.82187 336.5 353.525Q336.90625 353.13437 337.125 352.44687Q337.35938 351.75937 337.35938 350.79062Q337.35938 349.44687 336.90625 348.72812Q336.46875 347.99374 335.84375 347.74374Q335.375 347.57187 334.375 347.57187L332.5625 347.57187L332.5625 354.13437ZM340.04688 352.38437L341.10938 352.29062Q341.1875 352.94687 341.46875 353.35312Q341.75 353.75937 342.32812 354.025Q342.92188 354.275 343.65625 354.275Q344.29688 354.275 344.79688 354.0875Q345.29688 353.88437 345.53125 353.55624Q345.78125 353.2125 345.78125 352.82187Q345.78125 352.41562 345.54688 352.11874Q345.3125 351.80624 344.78125 351.60312Q344.42188 351.4625 343.23438 351.18124Q342.0625 350.9 341.59375 350.65Q340.96875 350.32187 340.67188 349.85312Q340.375 349.36874 340.375 348.775Q340.375 348.13437 340.73438 347.57187Q341.10938 346.99374 341.8125 346.7125Q342.53125 346.41562 343.39062 346.41562Q344.34375 346.41562 345.07812 346.72812Q345.8125 347.025 346.20312 347.63437Q346.59375 348.22812 346.625 348.97812L345.53125 349.05624Q345.4375 348.24374 344.92188 347.8375Q344.42188 347.41562 343.4375 347.41562Q342.40625 347.41562 341.9375 347.79062Q341.46875 348.16562 341.46875 348.69687Q341.46875 349.16562 341.79688 349.4625Q342.125 349.75937 343.5 350.07187Q344.89062 350.38437 345.40625 350.61874Q346.15625 350.97812 346.51562 351.50937Q346.875 352.025 346.875 352.72812Q346.875 353.41562 346.48438 354.025Q346.09375 354.61874 345.35938 354.9625Q344.625 355.29062 343.70312 355.29062Q342.53125 355.29062 341.73438 354.9625Q340.95312 354.61874 340.5 353.93124Q340.0625 353.24374 340.04688 352.38437Z" fill-rule="nonzero"/><path fill="#000000" d="M47.35 305.91562Q47.35 304.38437 47.6625 303.4625Q47.975 302.525 48.584373 302.025Q49.209373 301.525 50.146873 301.525Q50.834373 301.525 51.35 301.80624Q51.88125 302.0875 52.225 302.61874Q52.56875 303.13437 52.75625 303.88437Q52.94375 304.63437 52.94375 305.91562Q52.94375 307.43124 52.63125 308.35312Q52.334373 309.275 51.709373 309.79062Q51.1 310.29062 50.146873 310.29062Q48.9125 310.29062 48.19375 309.4Q47.35 308.3375 47.35 305.91562ZM48.428123 305.91562Q48.428123 308.025 48.928123 308.72812Q49.428123 309.43124 50.146873 309.43124Q50.88125 309.43124 51.365623 308.72812Q51.865623 308.025 51.865623 305.91562Q51.865623 303.79062 51.365623 303.10312Q50.88125 302.4 50.13125 302.4Q49.4125 302.4 48.975 303.00937Q48.428123 303.79062 48.428123 305.91562Z" fill-rule="nonzero"/><path fill="#000000" d="M26.35 246.96666L27.459375 246.87291Q27.584375 247.68541 28.021875 248.09166Q28.475 248.49791 29.115625 248.49791Q29.865625 248.49791 30.396875 247.91978Q30.928125 247.34166 30.928125 246.40416Q30.928125 245.49791 30.4125 244.98228Q29.9125 244.45103 29.084375 244.45103Q28.584375 244.45103 28.1625 244.68541Q27.75625 244.91978 27.521875 245.27916L26.5375 245.15416L27.365625 240.74791L31.646875 240.74791L31.646875 241.74791L28.209375 241.74791L27.75625 244.06041Q28.521875 243.51353 29.365625 243.51353Q30.490625 243.51353 31.25625 244.29478Q32.0375 245.07603 32.0375 246.31041Q32.0375 247.46666 31.365625 248.32603Q30.5375 249.35728 29.115625 249.35728Q27.94375 249.35728 27.19375 248.70103Q26.459375 248.04478 26.35 246.96666ZM33.35 244.98228Q33.35 243.45103 33.6625 242.52916Q33.975 241.59166 34.584373 241.09166Q35.209373 240.59166 36.146873 240.59166Q36.834373 240.59166 37.35 240.87291Q37.88125 241.15416 38.225 241.68541Q38.56875 242.20103 38.75625 242.95103Q38.94375 243.70103 38.94375 244.98228Q38.94375 246.49791 38.63125 247.41978Q38.334373 248.34166 37.709373 248.85728Q37.1 249.35728 36.146873 249.35728Q34.9125 249.35728 34.19375 248.46666Q33.35 247.40416 33.35 244.98228ZM34.428123 244.98228Q34.428123 247.09166 34.928123 247.79478Q35.428123 248.49791 36.146873 248.49791Q36.88125 248.49791 37.365623 247.79478Q37.865623 247.09166 37.865623 244.98228Q37.865623 242.85728 37.365623 242.16978Q36.88125 241.46666 36.13125 241.46666Q35.4125 241.46666 34.975 242.07603Q34.428123 242.85728 34.428123 244.98228ZM40.35 244.98228Q40.35 243.45103 40.6625 242.52916Q40.975 241.59166 41.584373 241.09166Q42.209373 240.59166 43.146873 240.59166Q43.834373 240.59166 44.35 240.87291Q44.88125 241.15416 45.225 241.68541Q45.56875 242.20103 45.75625 242.95103Q45.94375 243.70103 45.94375 244.98228Q45.94375 246.49791 45.63125 247.41978Q45.334373 248.34166 44.709373 248.85728Q44.1 249.35728 43.146873 249.35728Q41.9125 249.35728 41.19375 248.46666Q40.35 247.40416 40.35 244.98228ZM41.428123 244.98228Q41.428123 247.09166 41.928123 247.79478Q42.428123 248.49791 43.146873 248.49791Q43.88125 248.49791 44.365623 247.79478Q44.865623 247.09166 44.865623 244.98228Q44.865623 242.85728 44.365623 242.16978Q43.88125 241.46666 43.13125 241.46666Q42.4125 241.46666 41.975 242.07603Q41.428123 242.85728 41.428123 244.98228ZM47.35 244.98228Q47.35 243.45103 47.6625 242.52916Q47.975 241.59166 48.584373 241.09166Q49.209373 240.59166 50.146873 240.59166Q50.834373 240.59166 51.35 240.87291Q51.88125 241.15416 52.225 241.68541Q52.56875 242.20103 52.75625 242.95103Q52.94375 243.70103 52.94375 244.98228Q52.94375 246.49791 52.63125 247.41978Q52.334373 248.34166 51.709373 248.85728Q51.1 249.35728 50.146873 249.35728Q48.9125 249.35728 48.19375 248.46666Q47.35 247.40416 47.35 244.98228ZM48.428123 244.98228Q48.428123 247.09166 48.928123 247.79478Q49.428123 248.49791 50.146873 248.49791Q50.88125 248.49791 51.365623 247.79478Q51.865623 247.09166 51.865623 244.98228Q51.865623 242.85728 51.365623 242.16978Q50.88125 241.46666 50.13125 241.46666Q49.4125 241.46666 48.975 242.07603Q48.428123 242.85728 48.428123 244.98228Z" fill-rule="nonzero"/><path fill="#000000" d="M23.31875 188.28334L22.271875 188.28334L22.271875 181.56459Q21.88125 181.92397 21.25625 182.29897Q20.646875 182.65834 20.1625 182.83022L20.1625 181.81459Q21.0375 181.39272 21.69375 180.81459Q22.365625 180.22084 22.646875 179.65834L23.31875 179.65834L23.31875 188.28334ZM26.35 184.04897Q26.35 182.51772 26.6625 181.59584Q26.975 180.65834 27.584375 180.15834Q28.209375 179.65834 29.146875 179.65834Q29.834375 179.65834 30.35 179.93959Q30.88125 180.22084 31.225 180.75209Q31.56875 181.26772 31.75625 182.01772Q31.94375 182.76772 31.94375 184.04897Q31.94375 185.56459 31.63125 186.48647Q31.334375 187.40834 30.709375 187.92397Q30.1 188.42397 29.146875 188.42397Q27.9125 188.42397 27.19375 187.53334Q26.35 186.47084 26.35 184.04897ZM27.428125 184.04897Q27.428125 186.15834 27.928125 186.86147Q28.428125 187.56459 29.146875 187.56459Q29.88125 187.56459 30.365625 186.86147Q30.865625 186.15834 30.865625 184.04897Q30.865625 181.92397 30.365625 181.23647Q29.88125 180.53334 29.13125 180.53334Q28.4125 180.53334 27.975 181.14272Q27.428125 181.92397 27.428125 184.04897ZM33.35 184.04897Q33.35 182.51772 33.6625 181.59584Q33.975 180.65834 34.584373 180.15834Q35.209373 179.65834 36.146873 179.65834Q36.834373 179.65834 37.35 179.93959Q37.88125 180.22084 38.225 180.75209Q38.56875 181.26772 38.75625 182.01772Q38.94375 182.76772 38.94375 184.04897Q38.94375 185.56459 38.63125 186.48647Q38.334373 187.40834 37.709373 187.92397Q37.1 188.42397 36.146873 188.42397Q34.9125 188.42397 34.19375 187.53334Q33.35 186.47084 33.35 184.04897ZM34.428123 184.04897Q34.428123 186.15834 34.928123 186.86147Q35.428123 187.56459 36.146873 187.56459Q36.88125 187.56459 37.365623 186.86147Q37.865623 186.15834 37.865623 184.04897Q37.865623 181.92397 37.365623 181.23647Q36.88125 180.53334 36.13125 180.53334Q35.4125 180.53334 34.975 181.14272Q34.428123 181.92397 34.428123 184.04897ZM40.35 184.04897Q40.35 182.51772 40.6625 181.59584Q40.975 180.65834 41.584373 180.15834Q42.209373 179.65834 43.146873 179.65834Q43.834373 179.65834 44.35 179.93959Q44.88125 180.22084 45.225 180.75209Q45.56875 181.26772 45.75625 182.01772Q45.94375 182.76772 45.94375 184.04897Q45.94375 185.56459 45.63125 186.48647Q45.334373 187.40834 44.709373 187.92397Q44.1 188.42397 43.146873 188.42397Q41.9125 188.42397 41.19375 187.53334Q40.35 186.47084 40.35 184.04897ZM41.428123 184.04897Q41.428123 186.15834 41.928123 186.86147Q42.428123 187.56459 43.146873 187.56459Q43.88125 187.56459 44.365623 186.86147Q44.865623 186.15834 44.865623 184.04897Q44.865623 181.92397 44.365623 181.23647Q43.88125 180.53334 43.13125 180.53334Q42.4125 180.53334 41.975 181.14272Q41.428123 181.92397 41.428123 184.04897ZM47.35 184.04897Q47.35 182.51772 47.6625 181.59584Q47.975 180.65834 48.584373 180.15834Q49.209373 179.65834 50.146873 179.65834Q50.834373 179.65834 51.35 179.93959Q51.88125 180.22084 52.225 180.75209Q52.56875 181.26772 52.75625 182.01772Q52.94375 182.76772 52.94375 184.04897Q52.94375 185.56459 52.63125 186.48647Q52.334373 187.40834 51.709373 187.92397Q51.1 188.42397 50.146873 188.42397Q48.9125 188.42397 48.19375 187.53334Q47.35 186.47084 47.35 184.04897ZM48.428123 184.04897Q48.428123 186.15834 48.928123 186.86147Q49.428123 187.56459 50.146873 187.56459Q50.88125 187.56459 51.365623 186.86147Q51.865623 186.15834 51.865623 184.04897Q51.865623 181.92397 51.365623 181.23647Q50.88125 180.53334 50.13125 180.53334Q49.4125 180.53334 48.975 181.14272Q48.428123 181.92397 48.428123 184.04897Z" fill-rule="nonzero"/><path fill="#000000" d="M23.31875 127.35L22.271875 127.35L22.271875 120.63125Q21.88125 120.99062 21.25625 121.36562Q20.646875 121.725 20.1625 121.89687L20.1625 120.88125Q21.0375 120.45937 21.69375 119.88125Q22.365625 119.2875 22.646875 118.725L23.31875 118.725L23.31875 127.35ZM26.35 125.1L27.459375 125.00625Q27.584375 125.81875 28.021875 126.225Q28.475 126.63125 29.115625 126.63125Q29.865625 126.63125 30.396875 126.05312Q30.928125 125.475 30.928125 124.5375Q30.928125 123.63125 30.4125 123.11562Q29.9125 122.58437 29.084375 122.58437Q28.584375 122.58437 28.1625 122.81875Q27.75625 123.05312 27.521875 123.4125L26.5375 123.2875L27.365625 118.88125L31.646875 118.88125L31.646875 119.88125L28.209375 119.88125L27.75625 122.19375Q28.521875 121.64687 29.365625 121.64687Q30.490625 121.64687 31.25625 122.42812Q32.0375 123.20937 32.0375 124.44375Q32.0375 125.6 31.365625 126.45937Q30.5375 127.49062 29.115625 127.49062Q27.94375 127.49062 27.19375 126.83437Q26.459375 126.17812 26.35 125.1ZM33.35 123.11562Q33.35 121.58437 33.6625 120.6625Q33.975 119.725 34.584373 119.225Q35.209373 118.725 36.146873 118.725Q36.834373 118.725 37.35 119.00625Q37.88125 119.2875 38.225 119.81875Q38.56875 120.33437 38.75625 121.08437Q38.94375 121.83437 38.94375 123.11562Q38.94375 124.63125 38.63125 125.55312Q38.334373 126.475 37.709373 126.99062Q37.1 127.49062 36.146873 127.49062Q34.9125 127.49062 34.19375 126.6Q33.35 125.5375 33.35 123.11562ZM34.428123 123.11562Q34.428123 125.225 34.928123 125.92812Q35.428123 126.63125 36.146873 126.63125Q36.88125 126.63125 37.365623 125.92812Q37.865623 125.225 37.865623 123.11562Q37.865623 120.99062 37.365623 120.30312Q36.88125 119.6 36.13125 119.6Q35.4125 119.6 34.975 120.20937Q34.428123 120.99062 34.428123 123.11562ZM40.35 123.11562Q40.35 121.58437 40.6625 120.6625Q40.975 119.725 41.584373 119.225Q42.209373 118.725 43.146873 118.725Q43.834373 118.725 44.35 119.00625Q44.88125 119.2875 45.225 119.81875Q45.56875 120.33437 45.75625 121.08437Q45.94375 121.83437 45.94375 123.11562Q45.94375 124.63125 45.63125 125.55312Q45.334373 126.475 44.709373 126.99062Q44.1 127.49062 43.146873 127.49062Q41.9125 127.49062 41.19375 126.6Q40.35 125.5375 40.35 123.11562ZM41.428123 123.11562Q41.428123 125.225 41.928123 125.92812Q42.428123 126.63125 43.146873 126.63125Q43.88125 126.63125 44.365623 125.92812Q44.865623 125.225 44.865623 123.11562Q44.865623 120.99062 44.365623 120.30312Q43.88125 119.6 43.13125 119.6Q42.4125 119.6 41.975 120.20937Q41.428123 120.99062 41.428123 123.11562ZM47.35 123.11562Q47.35 121.58437 47.6625 120.6625Q47.975 119.725 48.584373 119.225Q49.209373 118.725 50.146873 118.725Q50.834373 118.725 51.35 119.00625Q51.88125 119.2875 52.225 119.81875Q52.56875 120.33437 52.75625 121.08437Q52.94375 121.83437 52.94375 123.11562Q52.94375 124.63125 52.63125 125.55312Q52.334373 126.475 51.709373 126.99062Q51.1 127.49062 50.146873 127.49062Q48.9125 127.49062 48.19375 126.6Q47.35 125.5375 47.35 123.11562ZM48.428123 123.11562Q48.428123 125.225 48.928123 125.92812Q49.428123 126.63125 50.146873 126.63125Q50.88125 126.63125 51.365623 125.92812Q51.865623 125.225 51.865623 123.11562Q51.865623 120.99062 51.365623 120.30312Q50.88125 119.6 50.13125 119.6Q49.4125 119.6 48.975 120.20937Q48.428123 120.99062 48.428123 123.11562Z" fill-rule="nonzero"/><path fill="#000000" d="M24.896875 65.40104L24.896875 66.416664L19.209375 66.416664Q19.209375 66.041664 19.334375 65.68229Q19.553125 65.104164 20.021875 64.541664Q20.50625 63.979164 21.4125 63.24479Q22.81875 62.08854 23.303125 61.416664Q23.803125 60.74479 23.803125 60.15104Q23.803125 59.52604 23.35 59.104164Q22.896875 58.666664 22.178125 58.666664Q21.4125 58.666664 20.959375 59.11979Q20.50625 59.572914 20.490625 60.385414L19.4125 60.27604Q19.521875 59.05729 20.240625 58.43229Q20.975 57.791664 22.209375 57.791664Q23.44375 57.791664 24.1625 58.479164Q24.88125 59.166664 24.88125 60.18229Q24.88125 60.697914 24.6625 61.197914Q24.459375 61.68229 23.959375 62.24479Q23.475 62.791664 22.35 63.74479Q21.396875 64.541664 21.115625 64.83854Q20.85 65.11979 20.678125 65.40104L24.896875 65.40104ZM26.35 62.18229Q26.35 60.65104 26.6625 59.729164Q26.975 58.791664 27.584375 58.291664Q28.209375 57.791664 29.146875 57.791664Q29.834375 57.791664 30.35 58.072914Q30.88125 58.354164 31.225 58.885414Q31.56875 59.40104 31.75625 60.15104Q31.94375 60.90104 31.94375 62.18229Q31.94375 63.697914 31.63125 64.61979Q31.334375 65.541664 30.709375 66.05729Q30.1 66.55729 29.146875 66.55729Q27.9125 66.55729 27.19375 65.666664Q26.35 64.604164 26.35 62.18229ZM27.428125 62.18229Q27.428125 64.291664 27.928125 64.99479Q28.428125 65.697914 29.146875 65.697914Q29.88125 65.697914 30.365625 64.99479Q30.865625 64.291664 30.865625 62.18229Q30.865625 60.05729 30.365625 59.36979Q29.88125 58.666664 29.13125 58.666664Q28.4125 58.666664 27.975 59.27604Q27.428125 60.05729 27.428125 62.18229ZM33.35 62.18229Q33.35 60.65104 33.6625 59.729164Q33.975 58.791664 34.584373 58.291664Q35.209373 57.791664 36.146873 57.791664Q36.834373 57.791664 37.35 58.072914Q37.88125 58.354164 38.225 58.885414Q38.56875 59.40104 38.75625 60.15104Q38.94375 60.90104 38.94375 62.18229Q38.94375 63.697914 38.63125 64.61979Q38.334373 65.541664 37.709373 66.05729Q37.1 66.55729 36.146873 66.55729Q34.9125 66.55729 34.19375 65.666664Q33.35 64.604164 33.35 62.18229ZM34.428123 62.18229Q34.428123 64.291664 34.928123 64.99479Q35.428123 65.697914 36.146873 65.697914Q36.88125 65.697914 37.365623 64.99479Q37.865623 64.291664 37.865623 62.18229Q37.865623 60.05729 37.365623 59.36979Q36.88125 58.666664 36.13125 58.666664Q35.4125 58.666664 34.975 59.27604Q34.428123 60.05729 34.428123 62.18229ZM40.35 62.18229Q40.35 60.65104 40.6625 59.729164Q40.975 58.791664 41.584373 58.291664Q42.209373 57.791664 43.146873 57.791664Q43.834373 57.791664 44.35 58.072914Q44.88125 58.354164 45.225 58.885414Q45.56875 59.40104 45.75625 60.15104Q45.94375 60.90104 45.94375 62.18229Q45.94375 63.697914 45.63125 64.61979Q45.334373 65.541664 44.709373 66.05729Q44.1 66.55729 43.146873 66.55729Q41.9125 66.55729 41.19375 65.666664Q40.35 64.604164 40.35 62.18229ZM41.428123 62.18229Q41.428123 64.291664 41.928123 64.99479Q42.428123 65.697914 43.146873 65.697914Q43.88125 65.697914 44.365623 64.99479Q44.865623 64.291664 44.865623 62.18229Q44.865623 60.05729 44.365623 59.36979Q43.88125 58.666664 43.13125 58.666664Q42.4125 58.666664 41.975 59.27604Q41.428123 60.05729 41.428123 62.18229ZM47.35 62.18229Q47.35 60.65104 47.6625 59.729164Q47.975 58.791664 48.584373 58.291664Q49.209373 57.791664 50.146873 57.791664Q50.834373 57.791664 51.35 58.072914Q51.88125 58.354164 52.225 58.885414Q52.56875 59.40104 52.75625 60.15104Q52.94375 60.90104 52.94375 62.18229Q52.94375 63.697914 52.63125 64.61979Q52.334373 65.541664 51.709373 66.05729Q51.1 66.55729 50.146873 66.55729Q48.9125 66.55729 48.19375 65.666664Q47.35 64.604164 47.35 62.18229ZM48.428123 62.18229Q48.428123 64.291664 48.928123 64.99479Q49.428123 65.697914 50.146873 65.697914Q50.88125 65.697914 51.365623 64.99479Q51.865623 64.291664 51.865623 62.18229Q51.865623 60.05729 51.365623 59.36979Q50.88125 58.666664 50.13125 58.666664Q49.4125 58.666664 48.975 59.27604Q48.428123 60.05729 48.428123 62.18229Z" fill-rule="nonzero"/><path fill="#000000" d="M113.326775 318.91562Q113.326775 317.38437 113.639275 316.4625Q113.951775 315.525 114.56115 315.025Q115.18615 314.525 116.12365 314.525Q116.81115 314.525 117.326775 314.80624Q117.858025 315.0875 118.201775 315.61874Q118.545525 316.13437 118.733025 316.88437Q118.920525 317.63437 118.920525 318.91562Q118.920525 320.43124 118.608025 321.35312Q118.31115 322.275 117.68615 322.79062Q117.076775 323.29062 116.12365 323.29062Q114.889275 323.29062 114.170525 322.4Q113.326775 321.3375 113.326775 318.91562ZM114.4049 318.91562Q114.4049 321.025 114.9049 321.72812Q115.4049 322.43124 116.12365 322.43124Q116.858025 322.43124 117.3424 321.72812Q117.8424 321.025 117.8424 318.91562Q117.8424 316.79062 117.3424 316.10312Q116.858025 315.4 116.108025 315.4Q115.389275 315.4 114.951775 316.00937Q114.4049 316.79062 114.4049 318.91562Z" fill-rule="nonzero"/><path fill="#000000" d="M202.54294 322.13437L202.54294 323.15L196.85544 323.15Q196.85544 322.775 196.98044 322.41562Q197.19919 321.8375 197.66794 321.275Q198.15231 320.7125 199.05856 319.97812Q200.46481 318.82187 200.94919 318.15Q201.44919 317.47812 201.44919 316.88437Q201.44919 316.25937 200.99606 315.8375Q200.54294 315.4 199.82419 315.4Q199.05856 315.4 198.60544 315.85312Q198.15231 316.30624 198.13669 317.11874L197.05856 317.00937Q197.16794 315.79062 197.88669 315.16562Q198.62106 314.525 199.85544 314.525Q201.08981 314.525 201.80856 315.2125Q202.52731 315.9 202.52731 316.91562Q202.52731 317.43124 202.30856 317.93124Q202.10544 318.41562 201.60544 318.97812Q201.12106 319.525 199.99606 320.47812Q199.04294 321.275 198.76169 321.57187Q198.49606 321.85312 198.32419 322.13437L202.54294 322.13437Z" fill-rule="nonzero"/><path fill="#000000" d="M284.04034 323.15L284.04034 321.0875L280.3216 321.0875L280.3216 320.11874L284.24347 314.55624L285.10284 314.55624L285.10284 320.11874L286.2591 320.11874L286.2591 321.0875L285.10284 321.0875L285.10284 323.15L284.04034 323.15ZM284.04034 320.11874L284.04034 316.25937L281.35284 320.11874L284.04034 320.11874Z" fill-rule="nonzero"/><path fill="#000000" d="M368.3034 323.15L367.25653 323.15L367.25653 316.43124Q366.8659 316.79062 366.2409 317.16562Q365.63153 317.525 365.14716 317.69687L365.14716 316.68124Q366.02216 316.25937 366.6784 315.68124Q367.35028 315.0875 367.63153 314.525L368.3034 314.525L368.3034 323.15Z" fill-rule="nonzero"/><path fill="#000000" d="M448.00394 320.88437L449.06644 320.74374Q449.2383 321.63437 449.6758 322.04062Q450.1133 322.43124 450.7383 322.43124Q451.4883 322.43124 452.00394 321.91562Q452.51956 321.4 452.51956 320.63437Q452.51956 319.91562 452.0352 319.44687Q451.56644 318.9625 450.83206 318.9625Q450.5352 318.9625 450.08206 319.0875L450.20706 318.15Q450.31644 318.16562 450.37894 318.16562Q451.0508 318.16562 451.58206 317.82187Q452.12894 317.4625 452.12894 316.72812Q452.12894 316.15 451.7383 315.775Q451.3477 315.38437 450.7227 315.38437Q450.1133 315.38437 449.69144 315.775Q449.2852 316.16562 449.1758 316.93124L448.1133 316.74374Q448.3008 315.69687 448.9883 315.11874Q449.6758 314.525 450.69144 314.525Q451.39456 314.525 451.9883 314.8375Q452.58206 315.13437 452.89456 315.65Q453.20706 316.16562 453.20706 316.75937Q453.20706 317.30624 452.9102 317.775Q452.6133 318.22812 452.0352 318.49374Q452.7852 318.66562 453.20706 319.22812Q453.62894 319.775 453.62894 320.61874Q453.62894 321.74374 452.8008 322.525Q451.9883 323.30624 450.7383 323.30624Q449.6133 323.30624 448.8633 322.63437Q448.1133 321.94687 448.00394 320.88437Z" fill-rule="nonzero"/><path fill="#000000" d="M531.6732 320.9L532.7826 320.80624Q532.9076 321.61874 533.3451 322.025Q533.7982 322.43124 534.43884 322.43124Q535.18884 322.43124 535.7201 321.85312Q536.25134 321.275 536.25134 320.3375Q536.25134 319.43124 535.7357 318.91562Q535.2357 318.38437 534.4076 318.38437Q533.9076 318.38437 533.4857 318.61874Q533.07947 318.85312 532.8451 319.2125L531.8607 319.0875L532.68884 314.68124L536.9701 314.68124L536.9701 315.68124L533.5326 315.68124L533.07947 317.99374Q533.8451 317.44687 534.68884 317.44687Q535.81384 317.44687 536.57947 318.22812Q537.3607 319.00937 537.3607 320.24374Q537.3607 321.4 536.68884 322.25937Q535.8607 323.29062 534.43884 323.29062Q533.26697 323.29062 532.51697 322.63437Q531.7826 321.97812 531.6732 320.9Z" fill-rule="nonzero"/><path fill="#757575" d="M20.459375 37.85L20.459375 23.537498L22.35 23.537498L22.35 29.412498L29.7875 29.412498L29.7875 23.537498L31.678125 23.537498L31.678125 37.85L29.7875 37.85L29.7875 31.099998L22.35 31.099998L22.35 37.85L20.459375 37.85ZM33.178123 25.553123L33.178123 23.537498L34.94375 23.537498L34.94375 25.553123L33.178123 25.553123ZM33.178123 37.85L33.178123 27.474998L34.94375 27.474998L34.94375 37.85L33.178123 37.85ZM36.459373 34.75625L38.209373 34.475Q38.35 35.521873 39.021873 36.084373Q39.69375 36.63125 40.896873 36.63125Q42.1 36.63125 42.678123 36.146873Q43.271873 35.646873 43.271873 34.990623Q43.271873 34.396873 42.75625 34.053123Q42.396873 33.81875 40.959373 33.459373Q39.021873 32.959373 38.271873 32.615623Q37.5375 32.25625 37.146873 31.631248Q36.75625 30.990623 36.75625 30.224998Q36.75625 29.537498 37.06875 28.943748Q37.396873 28.349998 37.94375 27.959373Q38.35 27.662498 39.053123 27.459373Q39.771873 27.240623 40.584373 27.240623Q41.803123 27.240623 42.725 27.599998Q43.646873 27.943748 44.084373 28.553123Q44.521873 29.146873 44.69375 30.146873L42.975 30.381248Q42.85 29.584373 42.2875 29.146873Q41.725 28.693748 40.709373 28.693748Q39.490623 28.693748 38.975 29.099998Q38.459373 29.490623 38.459373 30.021873Q38.459373 30.365623 38.678123 30.646873Q38.88125 30.928123 39.35 31.115623Q39.615623 31.209373 40.896873 31.553123Q42.771873 32.053123 43.50625 32.38125Q44.240623 32.69375 44.6625 33.303123Q45.084373 33.896873 45.084373 34.803123Q45.084373 35.678123 44.56875 36.459373Q44.053123 37.240623 43.084373 37.6625Q42.115623 38.084373 40.896873 38.084373Q38.88125 38.084373 37.81875 37.240623Q36.75625 36.396873 36.459373 34.75625ZM51.00625 36.271873L51.25625 37.834373Q50.521873 37.990623 49.928123 37.990623Q48.975 37.990623 48.44375 37.69375Q47.928123 37.38125 47.709373 36.896873Q47.490623 36.396873 47.490623 34.81875L47.490623 28.849998L46.209373 28.849998L46.209373 27.474998L47.490623 27.474998L47.490623 24.912498L49.240623 23.849998L49.240623 27.474998L51.00625 27.474998L51.00625 28.849998L49.240623 28.849998L49.240623 34.9125Q49.240623 35.6625 49.334373 35.88125Q49.428123 36.084373 49.63125 36.225Q49.85 36.35 50.240623 36.35Q50.521873 36.35 51.00625 36.271873ZM52.521873 32.6625Q52.521873 29.787498 54.115623 28.396873Q55.459373 27.240623 57.38125 27.240623Q59.521873 27.240623 60.865623 28.646873Q62.225 30.053123 62.225 32.521873Q62.225 34.521873 61.63125 35.678123Q61.0375 36.81875 59.88125 37.459373Q58.740623 38.084373 57.38125 38.084373Q55.19375 38.084373 53.85 36.69375Q52.521873 35.2875 52.521873 32.6625ZM54.31875 32.6625Q54.31875 34.6625 55.178123 35.646873Q56.053123 36.63125 57.38125 36.63125Q58.69375 36.63125 59.553123 35.646873Q60.428123 34.646873 60.428123 32.6Q60.428123 30.678123 59.553123 29.693748Q58.678123 28.693748 57.38125 28.693748Q56.053123 28.693748 55.178123 29.693748Q54.31875 30.678123 54.31875 32.6625ZM63.85 38.709373L65.55312 38.959373Q65.6625 39.75625 66.14687 40.115623Q66.80312 40.6 67.94375 40.6Q69.1625 40.6 69.81875 40.115623Q70.49062 39.63125 70.725 38.75625Q70.86562 38.209373 70.85 36.490623Q69.69375 37.85 67.975 37.85Q65.83437 37.85 64.6625 36.303123Q63.490623 34.75625 63.490623 32.6Q63.490623 31.115623 64.02187 29.865623Q64.56875 28.615623 65.58437 27.928123Q66.61562 27.240623 67.99062 27.240623Q69.81875 27.240623 71.02187 28.724998L71.02187 27.474998L72.63125 27.474998L72.63125 36.44375Q72.63125 38.865623 72.13125 39.865623Q71.64687 40.88125 70.56875 41.459373Q69.50625 42.053123 67.94375 42.053123Q66.1 42.053123 64.94375 41.225Q63.803123 40.396873 63.85 38.709373ZM65.30312 32.475Q65.30312 34.521873 66.11562 35.459373Q66.92812 36.396873 68.14687 36.396873Q69.35 36.396873 70.1625 35.459373Q70.99062 34.521873 70.99062 32.5375Q70.99062 30.631248 70.14687 29.662498Q69.30312 28.693748 68.11562 28.693748Q66.94375 28.693748 66.11562 29.646873Q65.30312 30.599998 65.30312 32.475ZM75.14687 37.85L75.14687 27.474998L76.725 27.474998L76.725 29.053123Q77.33437 27.943748 77.85 27.599998Q78.36562 27.240623 78.975 27.240623Q79.86562 27.240623 80.7875 27.803123L80.17812 29.443748Q79.5375 29.053123 78.89687 29.053123Q78.31875 29.053123 77.85 29.412498Q77.39687 29.756248 77.19375 30.365623Q76.9125 31.303123 76.9125 32.4125L76.9125 37.85L75.14687 37.85ZM88.94375 36.56875Q87.95937 37.396873 87.05312 37.740623Q86.14687 38.084373 85.11562 38.084373Q83.4125 38.084373 82.49062 37.25625Q81.56875 36.4125 81.56875 35.115623Q81.56875 34.35 81.9125 33.725Q82.27187 33.1 82.83437 32.725Q83.39687 32.334373 84.1 32.13125Q84.61562 32.00625 85.6625 31.865623Q87.7875 31.615623 88.7875 31.271873Q88.80312 30.912498 88.80312 30.803123Q88.80312 29.740623 88.30312 29.287498Q87.63125 28.693748 86.30312 28.693748Q85.05312 28.693748 84.45937 29.131248Q83.88125 29.568748 83.6 30.678123L81.88125 30.443748Q82.11562 29.334373 82.64687 28.662498Q83.17812 27.974998 84.19375 27.615623Q85.20937 27.240623 86.55312 27.240623Q87.88125 27.240623 88.70937 27.553123Q89.5375 27.865623 89.92812 28.349998Q90.31875 28.818748 90.475 29.537498Q90.56875 29.990623 90.56875 31.162498L90.56875 33.50625Q90.56875 35.959373 90.67812 36.615623Q90.7875 37.25625 91.13125 37.85L89.2875 37.85Q89.02187 37.303123 88.94375 36.56875ZM88.7875 32.646873Q87.83437 33.0375 85.9125 33.303123Q84.83437 33.459373 84.38125 33.6625Q83.94375 33.85 83.69375 34.225Q83.44375 34.6 83.44375 35.06875Q83.44375 35.771873 83.975 36.240623Q84.50625 36.709373 85.5375 36.709373Q86.55312 36.709373 87.33437 36.271873Q88.13125 35.81875 88.50625 35.053123Q88.7875 34.44375 88.7875 33.2875L88.7875 32.646873ZM93.1625 37.85L93.1625 27.474998L94.74062 27.474998L94.74062 28.928123Q95.225 28.178123 96.0375 27.709373Q96.85 27.240623 97.88125 27.240623Q99.0375 27.240623 99.77187 27.724998Q100.50625 28.193748 100.81875 29.053123Q102.05312 27.240623 104.02187 27.240623Q105.56875 27.240623 106.39687 28.099998Q107.225 28.959373 107.225 30.724998L107.225 37.85L105.475 37.85L105.475 31.318748Q105.475 30.256248 105.30312 29.803123Q105.13125 29.334373 104.67812 29.053123Q104.24062 28.771873 103.63125 28.771873Q102.5375 28.771873 101.80312 29.506248Q101.08437 30.224998 101.08437 31.818748L101.08437 37.85L99.33437 37.85L99.33437 31.115623Q99.33437 29.943748 98.89687 29.365623Q98.475 28.771873 97.49062 28.771873Q96.75625 28.771873 96.11562 29.162498Q95.49062 29.553123 95.20937 30.303123Q94.92812 31.053123 94.92812 32.475L94.92812 37.85L93.1625 37.85ZM114.52187 32.6625Q114.52187 29.787498 116.11562 28.396873Q117.45937 27.240623 119.38125 27.240623Q121.52187 27.240623 122.86562 28.646873Q124.225 30.053123 124.225 32.521873Q124.225 34.521873 123.63125 35.678123Q123.0375 36.81875 121.88125 37.459373Q120.74062 38.084373 119.38125 38.084373Q117.19375 38.084373 115.85 36.69375Q114.52187 35.2875 114.52187 32.6625ZM116.31875 32.6625Q116.31875 34.6625 117.17812 35.646873Q118.05312 36.63125 119.38125 36.63125Q120.69375 36.63125 121.55312 35.646873Q122.42812 34.646873 122.42812 32.6Q122.42812 30.678123 121.55312 29.693748Q120.67812 28.693748 119.38125 28.693748Q118.05312 28.693748 117.17812 29.693748Q116.31875 30.678123 116.31875 32.6625ZM126.58437 37.85L126.58437 28.849998L125.0375 28.849998L125.0375 27.474998L126.58437 27.474998L126.58437 26.381248Q126.58437 25.334373 126.77187 24.818748Q127.02187 24.131248 127.6625 23.709373Q128.30313 23.287498 129.45938 23.287498Q130.20938 23.287498 131.1 23.459373L130.83438 24.990623Q130.2875 24.896873 129.80313 24.896873Q129.00626 24.896873 128.6625 25.240623Q128.33438 25.584373 128.33438 26.521873L128.33438 27.474998L130.36563 27.474998L130.36563 28.849998L128.33438 28.849998L128.33438 37.85L126.58437 37.85ZM148.61563 32.834373L150.50626 33.303123Q149.9125 35.646873 148.36563 36.88125Q146.81876 38.1 144.56876 38.1Q142.25626 38.1 140.80313 37.1625Q139.36563 36.209373 138.6 34.428123Q137.85 32.63125 137.85 30.584373Q137.85 28.349998 138.69376 26.693748Q139.55313 25.021873 141.13126 24.162498Q142.70938 23.287498 144.6 23.287498Q146.75626 23.287498 148.20938 24.381248Q149.67813 25.474998 150.25626 27.459373L148.39688 27.896873Q147.89688 26.334373 146.94376 25.631248Q146.00626 24.912498 144.56876 24.912498Q142.9125 24.912498 141.80313 25.709373Q140.69376 26.490623 140.24063 27.834373Q139.80313 29.162498 139.80313 30.568748Q139.80313 32.396873 140.33438 33.771873Q140.86563 35.13125 141.99063 35.803123Q143.11563 36.475 144.4125 36.475Q146.00626 36.475 147.11563 35.553123Q148.225 34.63125 148.61563 32.834373ZM158.94376 36.56875Q157.95938 37.396873 157.05313 37.740623Q156.14688 38.084373 155.11563 38.084373Q153.4125 38.084373 152.49063 37.25625Q151.56876 36.4125 151.56876 35.115623Q151.56876 34.35 151.9125 33.725Q152.27188 33.1 152.83438 32.725Q153.39688 32.334373 154.1 32.13125Q154.61563 32.00625 155.6625 31.865623Q157.7875 31.615623 158.7875 31.271873Q158.80313 30.912498 158.80313 30.803123Q158.80313 29.740623 158.30313 29.287498Q157.63126 28.693748 156.30313 28.693748Q155.05313 28.693748 154.45938 29.131248Q153.88126 29.568748 153.6 30.678123L151.88126 30.443748Q152.11563 29.334373 152.64688 28.662498Q153.17813 27.974998 154.19376 27.615623Q155.20938 27.240623 156.55313 27.240623Q157.88126 27.240623 158.70938 27.553123Q159.5375 27.865623 159.92813 28.349998Q160.31876 28.818748 160.475 29.537498Q160.56876 29.990623 160.56876 31.162498L160.56876 33.50625Q160.56876 35.959373 160.67813 36.615623Q160.7875 37.25625 161.13126 37.85L159.2875 37.85Q159.02188 37.303123 158.94376 36.56875ZM158.7875 32.646873Q157.83438 33.0375 155.9125 33.303123Q154.83438 33.459373 154.38126 33.6625Q153.94376 33.85 153.69376 34.225Q153.44376 34.6 153.44376 35.06875Q153.44376 35.771873 153.975 36.240623Q154.50626 36.709373 155.5375 36.709373Q156.55313 36.709373 157.33438 36.271873Q158.13126 35.81875 158.50626 35.053123Q158.7875 34.44375 158.7875 33.2875L158.7875 32.646873ZM162.45938 34.75625L164.20938 34.475Q164.35 35.521873 165.02188 36.084373Q165.69376 36.63125 166.89688 36.63125Q168.1 36.63125 168.67813 36.146873Q169.27188 35.646873 169.27188 34.990623Q169.27188 34.396873 168.75626 34.053123Q168.39688 33.81875 166.95938 33.459373Q165.02188 32.959373 164.27188 32.615623Q163.5375 32.25625 163.14688 31.631248Q162.75626 30.990623 162.75626 30.224998Q162.75626 29.537498 163.06876 28.943748Q163.39688 28.349998 163.94376 27.959373Q164.35 27.662498 165.05313 27.459373Q165.77188 27.240623 166.58438 27.240623Q167.80313 27.240623 168.725 27.599998Q169.64688 27.943748 170.08438 28.553123Q170.52188 29.146873 170.69376 30.146873L168.975 30.381248Q168.85 29.584373 168.2875 29.146873Q167.725 28.693748 166.70938 28.693748Q165.49063 28.693748 164.975 29.099998Q164.45938 29.490623 164.45938 30.021873Q164.45938 30.365623 164.67813 30.646873Q164.88126 30.928123 165.35 31.115623Q165.61563 31.209373 166.89688 31.553123Q168.77188 32.053123 169.50626 32.38125Q170.24063 32.69375 170.6625 33.303123Q171.08438 33.896873 171.08438 34.803123Q171.08438 35.678123 170.56876 36.459373Q170.05313 37.240623 169.08438 37.6625Q168.11563 38.084373 166.89688 38.084373Q164.88126 38.084373 163.81876 37.240623Q162.75626 36.396873 162.45938 34.75625ZM180.27188 34.50625L182.08438 34.740623Q181.6625 36.31875 180.49063 37.209373Q179.33438 38.084373 177.52188 38.084373Q175.25626 38.084373 173.9125 36.69375Q172.58438 35.2875 172.58438 32.75625Q172.58438 30.131248 173.92813 28.693748Q175.27188 27.240623 177.42813 27.240623Q179.50626 27.240623 180.81876 28.662498Q182.14688 30.068748 182.14688 32.646873Q182.14688 32.803123 182.13126 33.115623L174.39688 33.115623Q174.49063 34.81875 175.36563 35.725Q176.24063 36.63125 177.5375 36.63125Q178.50626 36.63125 179.17813 36.13125Q179.86563 35.615623 180.27188 34.50625ZM174.49063 31.662498L180.2875 31.662498Q180.17813 30.365623 179.63126 29.709373Q178.7875 28.693748 177.44376 28.693748Q176.24063 28.693748 175.4125 29.506248Q174.58438 30.303123 174.49063 31.662498ZM183.45938 34.75625L185.20938 34.475Q185.35 35.521873 186.02188 36.084373Q186.69376 36.63125 187.89688 36.63125Q189.1 36.63125 189.67813 36.146873Q190.27188 35.646873 190.27188 34.990623Q190.27188 34.396873 189.75626 34.053123Q189.39688 33.81875 187.95938 33.459373Q186.02188 32.959373 185.27188 32.615623Q184.5375 32.25625 184.14688 31.631248Q183.75626 30.990623 183.75626 30.224998Q183.75626 29.537498 184.06876 28.943748Q184.39688 28.349998 184.94376 27.959373Q185.35 27.662498 186.05313 27.459373Q186.77188 27.240623 187.58438 27.240623Q188.80313 27.240623 189.725 27.599998Q190.64688 27.943748 191.08438 28.553123Q191.52188 29.146873 191.69376 30.146873L189.975 30.381248Q189.85 29.584373 189.2875 29.146873Q188.725 28.693748 187.70938 28.693748Q186.49063 28.693748 185.975 29.099998Q185.45938 29.490623 185.45938 30.021873Q185.45938 30.365623 185.67813 30.646873Q185.88126 30.928123 186.35 31.115623Q186.61563 31.209373 187.89688 31.553123Q189.77188 32.053123 190.50626 32.38125Q191.24063 32.69375 191.6625 33.303123Q192.08438 33.896873 192.08438 34.803123Q192.08438 35.678123 191.56876 36.459373Q191.05313 37.240623 190.08438 37.6625Q189.11563 38.084373 187.89688 38.084373Q185.88126 38.084373 184.81876 37.240623Q183.75626 36.396873 183.45938 34.75625Z" fill-rule="nonzero"/></svg>