<?xml version="1.0" encoding="windows-1252" standalone="no"?>
<svg xmlns="http://www.w3.org/2000/svg" xmlns:xlink="http://www.w3.org/1999/xlink" contentStyleType="text/css" height="1204px" preserveAspectRatio="none" style="width:752px;height:1204px;background:#FFFFFF;" version="1.1" viewBox="0 0 752 1204" width="752px" zoomAndPan="magnify"><script xmlns=""/><defs/><g><rect fill="#F1F1F1" height="36.2969" rx="7.5" ry="7.5" style="stroke:#181818;stroke-width:1.5;" width="135" x="10" y="582.9688"/><text fill="#000000" font-family="sans-serif" font-size="14" lengthAdjust="spacing" textLength="115" x="20" y="605.9639">Selected Topics</text><rect fill="#F1F1F1" height="36.2969" rx="7.5" ry="7.5" style="stroke:#181818;stroke-width:1.5;" width="211" x="195" y="76.2969"/><text fill="#000000" font-family="sans-serif" font-size="14" lengthAdjust="spacing" textLength="191" x="205" y="99.292">Approximation Algorithms</text><rect fill="#F1F1F1" height="36.2969" rx="7.5" ry="7.5" style="stroke:#181818;stroke-width:1.5;" width="115" x="456" y="20"/><text fill="#000000" font-family="sans-serif" font-size="14" lengthAdjust="spacing" textLength="95" x="466" y="42.9951">Vertex Cover</text><path d="M406,94.4453 L416,94.4453 C431,94.4453 431,38.1484 446,38.1484 L456,38.1484 " fill="none" style="stroke:#181818;stroke-width:1.0;"/><rect fill="#F1F1F1" height="36.2969" rx="7.5" ry="7.5" style="stroke:#181818;stroke-width:1.5;" width="223" x="456" y="76.2969"/><text fill="#000000" font-family="sans-serif" font-size="14" lengthAdjust="spacing" textLength="203" x="466" y="99.292">Traveling Salesman Problem</text><path d="M406,94.4453 L416,94.4453 C431,94.4453 431,94.4453 446,94.4453 L456,94.4453 " fill="none" style="stroke:#181818;stroke-width:1.0;"/><rect fill="#F1F1F1" height="36.2969" rx="7.5" ry="7.5" style="stroke:#181818;stroke-width:1.5;" width="154" x="456" y="132.5938"/><text fill="#000000" font-family="sans-serif" font-size="14" lengthAdjust="spacing" textLength="134" x="466" y="155.5889">Knapsack Problem</text><path d="M406,94.4453 L416,94.4453 C431,94.4453 431,150.7422 446,150.7422 L456,150.7422 " fill="none" style="stroke:#181818;stroke-width:1.0;"/><path d="M145,601.1172 L155,601.1172 C170,601.1172 170,94.4453 185,94.4453 L195,94.4453 " fill="none" style="stroke:#181818;stroke-width:1.0;"/><rect fill="#F1F1F1" height="36.2969" rx="7.5" ry="7.5" style="stroke:#181818;stroke-width:1.5;" width="165" x="195" y="245.1875"/><text fill="#000000" font-family="sans-serif" font-size="14" lengthAdjust="spacing" textLength="145" x="205" y="268.1826">Linear Programming</text><rect fill="#F1F1F1" height="36.2969" rx="7.5" ry="7.5" style="stroke:#181818;stroke-width:1.5;" width="154" x="410" y="188.8906"/><text fill="#000000" font-family="sans-serif" font-size="14" lengthAdjust="spacing" textLength="134" x="420" y="211.8857">Simplex Algorithm</text><path d="M360,263.3359 L370,263.3359 C385,263.3359 385,207.0391 400,207.0391 L410,207.0391 " fill="none" style="stroke:#181818;stroke-width:1.0;"/><rect fill="#F1F1F1" height="36.2969" rx="7.5" ry="7.5" style="stroke:#181818;stroke-width:1.5;" width="241" x="410" y="245.1875"/><text fill="#000000" font-family="sans-serif" font-size="14" lengthAdjust="spacing" textLength="221" x="420" y="268.1826">Duality and Sensitivity Analysis</text><path d="M360,263.3359 L370,263.3359 C385,263.3359 385,263.3359 400,263.3359 L410,263.3359 " fill="none" style="stroke:#181818;stroke-width:1.0;"/><rect fill="#F1F1F1" height="36.2969" rx="7.5" ry="7.5" style="stroke:#181818;stroke-width:1.5;" width="214" x="410" y="301.4844"/><text fill="#000000" font-family="sans-serif" font-size="14" lengthAdjust="spacing" textLength="194" x="420" y="324.4795">Network Flow Formulations</text><path d="M360,263.3359 L370,263.3359 C385,263.3359 385,319.6328 400,319.6328 L410,319.6328 " fill="none" style="stroke:#181818;stroke-width:1.0;"/><path d="M145,601.1172 L155,601.1172 C170,601.1172 170,263.3359 185,263.3359 L195,263.3359 " fill="none" style="stroke:#181818;stroke-width:1.0;"/><rect fill="#F1F1F1" height="36.2969" rx="7.5" ry="7.5" style="stroke:#181818;stroke-width:1.5;" width="236" x="195" y="414.0781"/><text fill="#000000" font-family="sans-serif" font-size="14" lengthAdjust="spacing" textLength="216" x="205" y="437.0732">Number-Theoretic Algorithms</text><rect fill="#F1F1F1" height="36.2969" rx="7.5" ry="7.5" style="stroke:#181818;stroke-width:1.5;" width="206" x="481" y="357.7813"/><text fill="#000000" font-family="sans-serif" font-size="14" lengthAdjust="spacing" textLength="186" x="491" y="380.7764">Greatest Common Divisor</text><path d="M431,432.2266 L441,432.2266 C456,432.2266 456,375.9297 471,375.9297 L481,375.9297 " fill="none" style="stroke:#181818;stroke-width:1.0;"/><rect fill="#F1F1F1" height="36.2969" rx="7.5" ry="7.5" style="stroke:#181818;stroke-width:1.5;" width="158" x="481" y="414.0781"/><text fill="#000000" font-family="sans-serif" font-size="14" lengthAdjust="spacing" textLength="138" x="491" y="437.0732">Modular Arithmetic</text><path d="M431,432.2266 L441,432.2266 C456,432.2266 456,432.2266 471,432.2266 L481,432.2266 " fill="none" style="stroke:#181818;stroke-width:1.0;"/><rect fill="#F1F1F1" height="36.2969" rx="7.5" ry="7.5" style="stroke:#181818;stroke-width:1.5;" width="259" x="481" y="470.375"/><text fill="#000000" font-family="sans-serif" font-size="14" lengthAdjust="spacing" textLength="239" x="491" y="493.3701">The Chinese Remainder Theorem</text><path d="M431,432.2266 L441,432.2266 C456,432.2266 456,488.5234 471,488.5234 L481,488.5234 " fill="none" style="stroke:#181818;stroke-width:1.0;"/><path d="M145,601.1172 L155,601.1172 C170,601.1172 170,432.2266 185,432.2266 L195,432.2266 " fill="none" style="stroke:#181818;stroke-width:1.0;"/><rect fill="#F1F1F1" height="36.2969" rx="7.5" ry="7.5" style="stroke:#181818;stroke-width:1.5;" width="134" x="195" y="582.9688"/><text fill="#000000" font-family="sans-serif" font-size="14" lengthAdjust="spacing" textLength="114" x="205" y="605.9639">String Matching</text><rect fill="#F1F1F1" height="36.2969" rx="7.5" ry="7.5" style="stroke:#181818;stroke-width:1.5;" width="166" x="379" y="526.6719"/><text fill="#000000" font-family="sans-serif" font-size="14" lengthAdjust="spacing" textLength="146" x="389" y="549.667">The Naive Algorithm</text><path d="M329,601.1172 L339,601.1172 C354,601.1172 354,544.8203 369,544.8203 L379,544.8203 " fill="none" style="stroke:#181818;stroke-width:1.0;"/><rect fill="#F1F1F1" height="36.2969" rx="7.5" ry="7.5" style="stroke:#181818;stroke-width:1.5;" width="208" x="379" y="582.9688"/><text fill="#000000" font-family="sans-serif" font-size="14" lengthAdjust="spacing" textLength="188" x="389" y="605.9639">The Rabin-Karp Algorithm</text><path d="M329,601.1172 L339,601.1172 C354,601.1172 354,601.1172 369,601.1172 L379,601.1172 " fill="none" style="stroke:#181818;stroke-width:1.0;"/><rect fill="#F1F1F1" height="36.2969" rx="7.5" ry="7.5" style="stroke:#181818;stroke-width:1.5;" width="263" x="379" y="639.2656"/><text fill="#000000" font-family="sans-serif" font-size="14" lengthAdjust="spacing" textLength="243" x="389" y="662.2607">The Knuth-Morris-Pratt Algorithm</text><path d="M329,601.1172 L339,601.1172 C354,601.1172 354,657.4141 369,657.4141 L379,657.4141 " fill="none" style="stroke:#181818;stroke-width:1.0;"/><path d="M145,601.1172 L155,601.1172 C170,601.1172 170,601.1172 185,601.1172 L195,601.1172 " fill="none" style="stroke:#181818;stroke-width:1.0;"/><rect fill="#F1F1F1" height="36.2969" rx="7.5" ry="7.5" style="stroke:#181818;stroke-width:1.5;" width="120" x="195" y="751.8594"/><text fill="#000000" font-family="sans-serif" font-size="14" lengthAdjust="spacing" textLength="100" x="205" y="774.8545">Cryptography</text><rect fill="#F1F1F1" height="36.2969" rx="7.5" ry="7.5" style="stroke:#181818;stroke-width:1.5;" width="200" x="365" y="695.5625"/><text fill="#000000" font-family="sans-serif" font-size="14" lengthAdjust="spacing" textLength="180" x="375" y="718.5576">Public-Key Cryptography</text><path d="M315,770.0078 L325,770.0078 C340,770.0078 340,713.7109 355,713.7109 L365,713.7109 " fill="none" style="stroke:#181818;stroke-width:1.0;"/><rect fill="#F1F1F1" height="36.2969" rx="7.5" ry="7.5" style="stroke:#181818;stroke-width:1.5;" width="125" x="365" y="751.8594"/><text fill="#000000" font-family="sans-serif" font-size="14" lengthAdjust="spacing" textLength="105" x="375" y="774.8545">RSA Algorithm</text><path d="M315,770.0078 L325,770.0078 C340,770.0078 340,770.0078 355,770.0078 L365,770.0078 " fill="none" style="stroke:#181818;stroke-width:1.0;"/><rect fill="#F1F1F1" height="36.2969" rx="7.5" ry="7.5" style="stroke:#181818;stroke-width:1.5;" width="235" x="365" y="808.1563"/><text fill="#000000" font-family="sans-serif" font-size="14" lengthAdjust="spacing" textLength="215" x="375" y="831.1514">Cryptographic Hash Functions</text><path d="M315,770.0078 L325,770.0078 C340,770.0078 340,826.3047 355,826.3047 L365,826.3047 " fill="none" style="stroke:#181818;stroke-width:1.0;"/><path d="M145,601.1172 L155,601.1172 C170,601.1172 170,770.0078 185,770.0078 L195,770.0078 " fill="none" style="stroke:#181818;stroke-width:1.0;"/><rect fill="#F1F1F1" height="36.2969" rx="7.5" ry="7.5" style="stroke:#181818;stroke-width:1.5;" width="155" x="195" y="920.75"/><text fill="#000000" font-family="sans-serif" font-size="14" lengthAdjust="spacing" textLength="135" x="205" y="943.7451">Parallel Algorithms</text><rect fill="#F1F1F1" height="36.2969" rx="7.5" ry="7.5" style="stroke:#181818;stroke-width:1.5;" width="108" x="400" y="864.4531"/><text fill="#000000" font-family="sans-serif" font-size="14" lengthAdjust="spacing" textLength="88" x="410" y="887.4482">PRAM Model</text><path d="M350,938.8984 L360,938.8984 C375,938.8984 375,882.6016 390,882.6016 L400,882.6016 " fill="none" style="stroke:#181818;stroke-width:1.0;"/><rect fill="#F1F1F1" height="36.2969" rx="7.5" ry="7.5" style="stroke:#181818;stroke-width:1.5;" width="153" x="400" y="920.75"/><text fill="#000000" font-family="sans-serif" font-size="14" lengthAdjust="spacing" textLength="133" x="410" y="943.7451">Parallel Prefix Sum</text><path d="M350,938.8984 L360,938.8984 C375,938.8984 375,938.8984 390,938.8984 L400,938.8984 " fill="none" style="stroke:#181818;stroke-width:1.0;"/><rect fill="#F1F1F1" height="36.2969" rx="7.5" ry="7.5" style="stroke:#181818;stroke-width:1.5;" width="167" x="400" y="977.0469"/><text fill="#000000" font-family="sans-serif" font-size="14" lengthAdjust="spacing" textLength="147" x="410" y="1000.042">Matrix Multiplication</text><path d="M350,938.8984 L360,938.8984 C375,938.8984 375,995.1953 390,995.1953 L400,995.1953 " fill="none" style="stroke:#181818;stroke-width:1.0;"/><path d="M145,601.1172 L155,601.1172 C170,601.1172 170,938.8984 185,938.8984 L195,938.8984 " fill="none" style="stroke:#181818;stroke-width:1.0;"/><rect fill="#F1F1F1" height="36.2969" rx="7.5" ry="7.5" style="stroke:#181818;stroke-width:1.5;" width="214" x="195" y="1089.6406"/><text fill="#000000" font-family="sans-serif" font-size="14" lengthAdjust="spacing" textLength="194" x="205" y="1112.6357">Computational Complexity</text><rect fill="#F1F1F1" height="36.2969" rx="7.5" ry="7.5" style="stroke:#181818;stroke-width:1.5;" width="221" x="459" y="1033.3438"/><text fill="#000000" font-family="sans-serif" font-size="14" lengthAdjust="spacing" textLength="201" x="469" y="1056.3389">Time and Space Complexity</text><path d="M409,1107.7891 L419,1107.7891 C434,1107.7891 434,1051.4922 449,1051.4922 L459,1051.4922 " fill="none" style="stroke:#181818;stroke-width:1.0;"/><rect fill="#F1F1F1" height="36.2969" rx="7.5" ry="7.5" style="stroke:#181818;stroke-width:1.5;" width="153" x="459" y="1089.6406"/><text fill="#000000" font-family="sans-serif" font-size="14" lengthAdjust="spacing" textLength="133" x="469" y="1112.6357">The Class P and NP</text><path d="M409,1107.7891 L419,1107.7891 C434,1107.7891 434,1107.7891 449,1107.7891 L459,1107.7891 " fill="none" style="stroke:#181818;stroke-width:1.0;"/><rect fill="#F1F1F1" height="36.2969" rx="7.5" ry="7.5" style="stroke:#181818;stroke-width:1.5;" width="189" x="459" y="1145.9375"/><text fill="#000000" font-family="sans-serif" font-size="14" lengthAdjust="spacing" textLength="169" x="469" y="1168.9326">NP-Complete Problems</text><path d="M409,1107.7891 L419,1107.7891 C434,1107.7891 434,1164.0859 449,1164.0859 L459,1164.0859 " fill="none" style="stroke:#181818;stroke-width:1.0;"/><path d="M145,601.1172 L155,601.1172 C170,601.1172 170,1107.7891 185,1107.7891 L195,1107.7891 " fill="none" style="stroke:#181818;stroke-width:1.0;"/><!--SRC=[RLDDJ-D03BtdL_W8bO8MM5OhJdGB1T6cYfh2tKrCC-fyH1wdfVz-dKH5tR97sy_Zzvuz3r6GnHbVEMoI96wDRv3HGQon2dlZD_21Dj99XKFhgpAm9uRhkvE2DPxaq104bZeaoGWAibGALR0AZIbZCXh1k6auV1g7OeA7iTq4DbAxhZQ2TsAXJvY47N6VM37ko7Oi2hGK7Nh8EQmjkRuyyzX4BBSdIPWh2-Gkir5IgcpJGmlZ6gjlVqtiiuyjMYC7G5yfMH-Dc5qNZptQGpG3gmN9Fl0MfZRiOHhOjRPdt-jPj6vDdAvg2anYodD9pqme54L5EQUA7tL038EwB5Jw5CEuntVTW-YQO5AhZ4Ym98Uw7BLwcD1BB8GxIpAKiZxgwveMQ7Pqfh3BBt5jV3f3RlvJdFbMwZGBp2QcEQF8Fo2OyA6HpikcFlHDURksfandTFXUMnRZin4d43Nd1MCDqzQNN_xbUZhMaZttBL-EiyuWiaDuXELC7-OJYdPuNZrW3RFMYccKLh-OddPmJIjzYBQFTFkwsa6tSJJilC6IlbKx_ot627aFMkJ36UJf01GwtbjCaWVIhtFyFhb5Bs_P7FH-OtVVrrStFsvkhsxN97XtyUQtFkmzbFgCiGIYD2wJY-Ty3Z6qh4mg4rNFkkreNoQlk4DOjhx3tKCNNQooIoYUZabuyZl3mJloaho-PmC8Ne8KJP0U_Ejd-iU87ZSh9tZFaaVwG7LBMyjGwVNSmzjgclvEvkWtBMvq4FbaedzS-A2ruYy0]--></g></svg>