<?xml version="1.0" encoding="windows-1252" standalone="no"?>
<svg xmlns="http://www.w3.org/2000/svg" xmlns:xlink="http://www.w3.org/1999/xlink" contentStyleType="text/css" height="922px" preserveAspectRatio="none" style="width:1090px;height:922px;background:#FFFFFF;" version="1.1" viewBox="0 0 1090 922" width="1090px" zoomAndPan="magnify"><script xmlns=""/><defs/><g><rect fill="#F1F1F1" height="36.2969" rx="12.5" ry="12.5" style="stroke:#181818;stroke-width:1.5;" width="212" x="10" y="442.2266"/><text fill="#000000" font-family="sans-serif" font-size="14" lengthAdjust="spacing" textLength="192" x="20" y="465.2217">Introduction to Algorithms</text><rect fill="#F1F1F1" height="36.2969" rx="12.5" ry="12.5" style="stroke:#181818;stroke-width:1.5;" width="504" x="272" y="20"/><text fill="#000000" font-family="sans-serif" font-size="14" lengthAdjust="spacing" textLength="484" x="282" y="42.9951">Objective: Study the fundamentals of algorithms and their analyses</text><path d="M222,460.375 L232,460.375 C247,460.375 247,38.1484 262,38.1484 L272,38.1484 " fill="none" style="stroke:#181818;stroke-width:1.0;"/><rect fill="#F1F1F1" height="36.2969" rx="12.5" ry="12.5" style="stroke:#181818;stroke-width:1.5;" width="87" x="272" y="470.375"/><text fill="#000000" font-family="sans-serif" font-size="14" lengthAdjust="spacing" textLength="67" x="282" y="493.3701">Contents</text><rect fill="#F1F1F1" height="36.2969" rx="12.5" ry="12.5" style="stroke:#181818;stroke-width:1.5;" width="99" x="409" y="104.4453"/><text fill="#000000" font-family="sans-serif" font-size="14" lengthAdjust="spacing" textLength="79" x="419" y="127.4404">Algorithms</text><rect fill="#F1F1F1" height="36.2969" rx="12.5" ry="12.5" style="stroke:#181818;stroke-width:1.5;" width="96" x="558" y="76.2969"/><text fill="#000000" font-family="sans-serif" font-size="14" lengthAdjust="spacing" textLength="76" x="568" y="99.292">Properties</text><path d="M508,122.5938 L518,122.5938 C533,122.5938 533,94.4453 548,94.4453 L558,94.4453 " fill="none" style="stroke:#181818;stroke-width:1.0;"/><rect fill="#F1F1F1" height="36.2969" rx="12.5" ry="12.5" style="stroke:#181818;stroke-width:1.5;" width="91" x="558" y="132.5938"/><text fill="#000000" font-family="sans-serif" font-size="14" lengthAdjust="spacing" textLength="71" x="568" y="155.5889">Efficiency</text><path d="M508,122.5938 L518,122.5938 C533,122.5938 533,150.7422 548,150.7422 L558,150.7422 " fill="none" style="stroke:#181818;stroke-width:1.0;"/><path d="M359,488.5234 L369,488.5234 C384,488.5234 384,122.5938 399,122.5938 L409,122.5938 " fill="none" style="stroke:#181818;stroke-width:1.0;"/><rect fill="#F1F1F1" height="36.2969" rx="12.5" ry="12.5" style="stroke:#181818;stroke-width:1.5;" width="154" x="409" y="273.3359"/><text fill="#000000" font-family="sans-serif" font-size="14" lengthAdjust="spacing" textLength="134" x="419" y="296.3311">Sorting algorithms</text><rect fill="#F1F1F1" height="36.2969" rx="12.5" ry="12.5" style="stroke:#181818;stroke-width:1.5;" width="104" x="613" y="188.8906"/><text fill="#000000" font-family="sans-serif" font-size="14" lengthAdjust="spacing" textLength="84" x="623" y="211.8857">Bubble sort</text><path d="M563,291.4844 L573,291.4844 C588,291.4844 588,207.0391 603,207.0391 L613,207.0391 " fill="none" style="stroke:#181818;stroke-width:1.0;"/><rect fill="#F1F1F1" height="36.2969" rx="12.5" ry="12.5" style="stroke:#181818;stroke-width:1.5;" width="117" x="613" y="245.1875"/><text fill="#000000" font-family="sans-serif" font-size="14" lengthAdjust="spacing" textLength="97" x="623" y="268.1826">Insertion sort</text><path d="M563,291.4844 L573,291.4844 C588,291.4844 588,263.3359 603,263.3359 L613,263.3359 " fill="none" style="stroke:#181818;stroke-width:1.0;"/><rect fill="#F1F1F1" height="36.2969" rx="12.5" ry="12.5" style="stroke:#181818;stroke-width:1.5;" width="98" x="613" y="301.4844"/><text fill="#000000" font-family="sans-serif" font-size="14" lengthAdjust="spacing" textLength="78" x="623" y="324.4795">Merge sort</text><path d="M563,291.4844 L573,291.4844 C588,291.4844 588,319.6328 603,319.6328 L613,319.6328 " fill="none" style="stroke:#181818;stroke-width:1.0;"/><rect fill="#F1F1F1" height="36.2969" rx="12.5" ry="12.5" style="stroke:#181818;stroke-width:1.5;" width="93" x="613" y="357.7813"/><text fill="#000000" font-family="sans-serif" font-size="14" lengthAdjust="spacing" textLength="73" x="623" y="380.7764">Quick sort</text><path d="M563,291.4844 L573,291.4844 C588,291.4844 588,375.9297 603,375.9297 L613,375.9297 " fill="none" style="stroke:#181818;stroke-width:1.0;"/><path d="M359,488.5234 L369,488.5234 C384,488.5234 384,291.4844 399,291.4844 L409,291.4844 " fill="none" style="stroke:#181818;stroke-width:1.0;"/><rect fill="#F1F1F1" height="36.2969" rx="12.5" ry="12.5" style="stroke:#181818;stroke-width:1.5;" width="170" x="409" y="470.375"/><text fill="#000000" font-family="sans-serif" font-size="14" lengthAdjust="spacing" textLength="150" x="419" y="493.3701">Asymptotic notation</text><rect fill="#F1F1F1" height="36.2969" rx="12.5" ry="12.5" style="stroke:#181818;stroke-width:1.5;" width="135" x="629" y="414.0781"/><text fill="#000000" font-family="sans-serif" font-size="14" lengthAdjust="spacing" textLength="115" x="639" y="437.0732">Big-Oh notation</text><path d="M579,488.5234 L589,488.5234 C604,488.5234 604,432.2266 619,432.2266 L629,432.2266 " fill="none" style="stroke:#181818;stroke-width:1.0;"/><rect fill="#F1F1F1" height="36.2969" rx="12.5" ry="12.5" style="stroke:#181818;stroke-width:1.5;" width="137" x="629" y="470.375"/><text fill="#000000" font-family="sans-serif" font-size="14" lengthAdjust="spacing" textLength="117" x="639" y="493.3701">Omega notation</text><path d="M579,488.5234 L589,488.5234 C604,488.5234 604,488.5234 619,488.5234 L629,488.5234 " fill="none" style="stroke:#181818;stroke-width:1.0;"/><rect fill="#F1F1F1" height="36.2969" rx="12.5" ry="12.5" style="stroke:#181818;stroke-width:1.5;" width="128" x="629" y="526.6719"/><text fill="#000000" font-family="sans-serif" font-size="14" lengthAdjust="spacing" textLength="108" x="639" y="549.667">Theta notation</text><path d="M579,488.5234 L589,488.5234 C604,488.5234 604,544.8203 619,544.8203 L629,544.8203 " fill="none" style="stroke:#181818;stroke-width:1.0;"/><path d="M359,488.5234 L369,488.5234 C384,488.5234 384,488.5234 399,488.5234 L409,488.5234 " fill="none" style="stroke:#181818;stroke-width:1.0;"/><rect fill="#F1F1F1" height="36.2969" rx="12.5" ry="12.5" style="stroke:#181818;stroke-width:1.5;" width="109" x="409" y="639.2656"/><text fill="#000000" font-family="sans-serif" font-size="14" lengthAdjust="spacing" textLength="89" x="419" y="662.2607">Recurrences</text><rect fill="#F1F1F1" height="36.2969" rx="12.5" ry="12.5" style="stroke:#181818;stroke-width:1.5;" width="170" x="568" y="582.9688"/><text fill="#000000" font-family="sans-serif" font-size="14" lengthAdjust="spacing" textLength="150" x="578" y="605.9639">Substitution method</text><path d="M518,657.4141 L528,657.4141 C543,657.4141 543,601.1172 558,601.1172 L568,601.1172 " fill="none" style="stroke:#181818;stroke-width:1.0;"/><rect fill="#F1F1F1" height="36.2969" rx="12.5" ry="12.5" style="stroke:#181818;stroke-width:1.5;" width="188" x="568" y="639.2656"/><text fill="#000000" font-family="sans-serif" font-size="14" lengthAdjust="spacing" textLength="168" x="578" y="662.2607">Recursion-tree method</text><path d="M518,657.4141 L528,657.4141 C543,657.4141 543,657.4141 558,657.4141 L568,657.4141 " fill="none" style="stroke:#181818;stroke-width:1.0;"/><rect fill="#F1F1F1" height="36.2969" rx="12.5" ry="12.5" style="stroke:#181818;stroke-width:1.5;" width="130" x="568" y="695.5625"/><text fill="#000000" font-family="sans-serif" font-size="14" lengthAdjust="spacing" textLength="110" x="578" y="718.5576">Master method</text><path d="M518,657.4141 L528,657.4141 C543,657.4141 543,713.7109 558,713.7109 L568,713.7109 " fill="none" style="stroke:#181818;stroke-width:1.0;"/><path d="M359,488.5234 L369,488.5234 C384,488.5234 384,657.4141 399,657.4141 L409,657.4141 " fill="none" style="stroke:#181818;stroke-width:1.0;"/><rect fill="#F1F1F1" height="36.2969" rx="12.5" ry="12.5" style="stroke:#181818;stroke-width:1.5;" width="87" x="409" y="808.1563"/><text fill="#000000" font-family="sans-serif" font-size="14" lengthAdjust="spacing" textLength="67" x="419" y="831.1514">Summary</text><rect fill="#F1F1F1" height="36.2969" rx="12.5" ry="12.5" style="stroke:#181818;stroke-width:1.5;" width="322" x="546" y="751.8594"/><text fill="#000000" font-family="sans-serif" font-size="14" lengthAdjust="spacing" textLength="302" x="556" y="774.8545">Algorithms solve computational problems</text><path d="M496,826.3047 L506,826.3047 C521,826.3047 521,770.0078 536,770.0078 L546,770.0078 " fill="none" style="stroke:#181818;stroke-width:1.0;"/><rect fill="#F1F1F1" height="36.2969" rx="12.5" ry="12.5" style="stroke:#181818;stroke-width:1.5;" width="523" x="546" y="808.1563"/><text fill="#000000" font-family="sans-serif" font-size="14" lengthAdjust="spacing" textLength="503" x="556" y="831.1514">Analyzing algorithms helps understand their properties and efficiency</text><path d="M496,826.3047 L506,826.3047 C521,826.3047 521,826.3047 536,826.3047 L546,826.3047 " fill="none" style="stroke:#181818;stroke-width:1.0;"/><rect fill="#F1F1F1" height="36.2969" rx="12.5" ry="12.5" style="stroke:#181818;stroke-width:1.5;" width="532" x="546" y="864.4531"/><text fill="#000000" font-family="sans-serif" font-size="14" lengthAdjust="spacing" textLength="512" x="556" y="887.4482">Key concepts: algorithms, efficiency, asymptotic notation, recurrences</text><path d="M496,826.3047 L506,826.3047 C521,826.3047 521,882.6016 536,882.6016 L546,882.6016 " fill="none" style="stroke:#181818;stroke-width:1.0;"/><path d="M359,488.5234 L369,488.5234 C384,488.5234 384,826.3047 399,826.3047 L409,826.3047 " fill="none" style="stroke:#181818;stroke-width:1.0;"/><path d="M222,460.375 L232,460.375 C247,460.375 247,488.5234 262,488.5234 L272,488.5234 " fill="none" style="stroke:#181818;stroke-width:1.0;"/><!--SRC=[PL9DSvim4BtpA_PeCtQcJTfEnwSugTicDMCtsBaBM40DaXXfHOV- -YnWEv3UjEyzxSVRlNKaB2cfCoNg88G7JTPaFYLfD921TLKOAwbKBWX3s2L_aAa6Ln2JprgW4Y7tEXCADOdAWSb1NBw0q5adaPPVeceTzbdkZIQMT-zmMe3ZlJKrMf9uYZTvBbE9EcrxUMoOqyMeo22xyqbI8JYc1-11kouDJ_66HMYBiUQtb-dB9OQrQrLDXcGAsf3eFf-IosAvAz-1EuM5U8STIgGf1a-OUckv__D0iKySIV9zRmgfDDb0z4h7w98iueIAX2Eq8uYpA2LiEz1l7l8mLOEG6bNxeGbHGMqDUtDsQjrjuj_KGoYngXtm8j7oGLosLb-MqQyI9xi8uHUsN8f7gycjHkaM8-K2nF-sBi2ERBb5lhxJ1GRxIcWwHbjei3S3FbvTVxY-kRf9sDhFiwD-qUQlxYUKl72I2kV1xCT-owDxco9aqf6LIU_lF7WKZO0dhplT2hfeTeZc46_E86nq8wtHtG47Zy_H88AVXkBQK2_-ycbv9mbYjDmJF4V1Dyo5huY_fYPZ9rTmF7nVVWssGXTU55m8TN1lk81jcOjV0G00]--></g></svg>