<?xml version="1.0" encoding="windows-1252" standalone="no"?>
<svg xmlns="http://www.w3.org/2000/svg" xmlns:xlink="http://www.w3.org/1999/xlink" contentStyleType="text/css" height="1147px" preserveAspectRatio="none" style="width:1194px;height:1147px;background:#FFFFFF;" version="1.1" viewBox="0 0 1194 1147" width="1194px" zoomAndPan="magnify"><script xmlns=""/><defs/><g><rect fill="#F1F1F1" height="36.2969" rx="12.5" ry="12.5" style="stroke:#181818;stroke-width:1.5;" width="220" x="10" y="554.8203"/><text fill="#000000" font-family="sans-serif" font-size="14" lengthAdjust="spacing" textLength="200" x="20" y="577.8154">Sorting and Order Statistics</text><rect fill="#F1F1F1" height="36.2969" rx="12.5" ry="12.5" style="stroke:#181818;stroke-width:1.5;" width="691" x="280" y="20"/><text fill="#000000" font-family="sans-serif" font-size="14" lengthAdjust="spacing" textLength="671" x="290" y="42.9951">Objectives: Learn different sorting algorithms and their properties, and study order statistics</text><path d="M230,572.9688 L240,572.9688 C255,572.9688 255,38.1484 270,38.1484 L280,38.1484 " fill="none" style="stroke:#181818;stroke-width:1.0;"/><rect fill="#F1F1F1" height="36.2969" rx="12.5" ry="12.5" style="stroke:#181818;stroke-width:1.5;" width="87" x="280" y="582.9688"/><text fill="#000000" font-family="sans-serif" font-size="14" lengthAdjust="spacing" textLength="67" x="290" y="605.9639">Contents</text><rect fill="#F1F1F1" height="36.2969" rx="12.5" ry="12.5" style="stroke:#181818;stroke-width:1.5;" width="86" x="417" y="160.7422"/><text fill="#000000" font-family="sans-serif" font-size="14" lengthAdjust="spacing" textLength="66" x="427" y="183.7373">Heapsort</text><rect fill="#F1F1F1" height="36.2969" rx="12.5" ry="12.5" style="stroke:#181818;stroke-width:1.5;" width="163" x="553" y="76.2969"/><text fill="#000000" font-family="sans-serif" font-size="14" lengthAdjust="spacing" textLength="143" x="563" y="99.292">Heap data structure</text><path d="M503,178.8906 L513,178.8906 C528,178.8906 528,94.4453 543,94.4453 L553,94.4453 " fill="none" style="stroke:#181818;stroke-width:1.0;"/><rect fill="#F1F1F1" height="36.2969" rx="12.5" ry="12.5" style="stroke:#181818;stroke-width:1.5;" width="129" x="553" y="132.5938"/><text fill="#000000" font-family="sans-serif" font-size="14" lengthAdjust="spacing" textLength="109" x="563" y="155.5889">Building a heap</text><path d="M503,178.8906 L513,178.8906 C528,178.8906 528,150.7422 543,150.7422 L553,150.7422 " fill="none" style="stroke:#181818;stroke-width:1.0;"/><rect fill="#F1F1F1" height="36.2969" rx="12.5" ry="12.5" style="stroke:#181818;stroke-width:1.5;" width="160" x="553" y="188.8906"/><text fill="#000000" font-family="sans-serif" font-size="14" lengthAdjust="spacing" textLength="140" x="563" y="211.8857">Heapsort algorithm</text><path d="M503,178.8906 L513,178.8906 C528,178.8906 528,207.0391 543,207.0391 L553,207.0391 " fill="none" style="stroke:#181818;stroke-width:1.0;"/><rect fill="#F1F1F1" height="36.2969" rx="12.5" ry="12.5" style="stroke:#181818;stroke-width:1.5;" width="182" x="553" y="245.1875"/><text fill="#000000" font-family="sans-serif" font-size="14" lengthAdjust="spacing" textLength="162" x="563" y="268.1826">Analysis and efficiency</text><path d="M503,178.8906 L513,178.8906 C528,178.8906 528,263.3359 543,263.3359 L553,263.3359 " fill="none" style="stroke:#181818;stroke-width:1.0;"/><path d="M367,601.1172 L377,601.1172 C392,601.1172 392,178.8906 407,178.8906 L417,178.8906 " fill="none" style="stroke:#181818;stroke-width:1.0;"/><rect fill="#F1F1F1" height="36.2969" rx="12.5" ry="12.5" style="stroke:#181818;stroke-width:1.5;" width="89" x="417" y="385.9297"/><text fill="#000000" font-family="sans-serif" font-size="14" lengthAdjust="spacing" textLength="69" x="427" y="408.9248">Quicksort</text><rect fill="#F1F1F1" height="36.2969" rx="12.5" ry="12.5" style="stroke:#181818;stroke-width:1.5;" width="105" x="556" y="301.4844"/><text fill="#000000" font-family="sans-serif" font-size="14" lengthAdjust="spacing" textLength="85" x="566" y="324.4795">Partitioning</text><path d="M506,404.0781 L516,404.0781 C531,404.0781 531,319.6328 546,319.6328 L556,319.6328 " fill="none" style="stroke:#181818;stroke-width:1.0;"/><rect fill="#F1F1F1" height="36.2969" rx="12.5" ry="12.5" style="stroke:#181818;stroke-width:1.5;" width="163" x="556" y="357.7813"/><text fill="#000000" font-family="sans-serif" font-size="14" lengthAdjust="spacing" textLength="143" x="566" y="380.7764">Quicksort algorithm</text><path d="M506,404.0781 L516,404.0781 C531,404.0781 531,375.9297 546,375.9297 L556,375.9297 " fill="none" style="stroke:#181818;stroke-width:1.0;"/><rect fill="#F1F1F1" height="36.2969" rx="12.5" ry="12.5" style="stroke:#181818;stroke-width:1.5;" width="182" x="556" y="414.0781"/><text fill="#000000" font-family="sans-serif" font-size="14" lengthAdjust="spacing" textLength="162" x="566" y="437.0732">Analysis and efficiency</text><path d="M506,404.0781 L516,404.0781 C531,404.0781 531,432.2266 546,432.2266 L556,432.2266 " fill="none" style="stroke:#181818;stroke-width:1.0;"/><rect fill="#F1F1F1" height="36.2969" rx="12.5" ry="12.5" style="stroke:#181818;stroke-width:1.5;" width="180" x="556" y="470.375"/><text fill="#000000" font-family="sans-serif" font-size="14" lengthAdjust="spacing" textLength="160" x="566" y="493.3701">Randomized quicksort</text><path d="M506,404.0781 L516,404.0781 C531,404.0781 531,488.5234 546,488.5234 L556,488.5234 " fill="none" style="stroke:#181818;stroke-width:1.0;"/><path d="M367,601.1172 L377,601.1172 C392,601.1172 392,404.0781 407,404.0781 L417,404.0781 " fill="none" style="stroke:#181818;stroke-width:1.0;"/><rect fill="#F1F1F1" height="36.2969" rx="12.5" ry="12.5" style="stroke:#181818;stroke-width:1.5;" width="172" x="417" y="582.9688"/><text fill="#000000" font-family="sans-serif" font-size="14" lengthAdjust="spacing" textLength="152" x="427" y="605.9639">Sorting in linear time</text><rect fill="#F1F1F1" height="36.2969" rx="12.5" ry="12.5" style="stroke:#181818;stroke-width:1.5;" width="118" x="639" y="526.6719"/><text fill="#000000" font-family="sans-serif" font-size="14" lengthAdjust="spacing" textLength="98" x="649" y="549.667">Counting sort</text><path d="M589,601.1172 L599,601.1172 C614,601.1172 614,544.8203 629,544.8203 L639,544.8203 " fill="none" style="stroke:#181818;stroke-width:1.0;"/><rect fill="#F1F1F1" height="36.2969" rx="12.5" ry="12.5" style="stroke:#181818;stroke-width:1.5;" width="92" x="639" y="582.9688"/><text fill="#000000" font-family="sans-serif" font-size="14" lengthAdjust="spacing" textLength="72" x="649" y="605.9639">Radix sort</text><path d="M589,601.1172 L599,601.1172 C614,601.1172 614,601.1172 629,601.1172 L639,601.1172 " fill="none" style="stroke:#181818;stroke-width:1.0;"/><rect fill="#F1F1F1" height="36.2969" rx="12.5" ry="12.5" style="stroke:#181818;stroke-width:1.5;" width="104" x="639" y="639.2656"/><text fill="#000000" font-family="sans-serif" font-size="14" lengthAdjust="spacing" textLength="84" x="649" y="662.2607">Bucket sort</text><path d="M589,601.1172 L599,601.1172 C614,601.1172 614,657.4141 629,657.4141 L639,657.4141 " fill="none" style="stroke:#181818;stroke-width:1.0;"/><path d="M367,601.1172 L377,601.1172 C392,601.1172 392,601.1172 407,601.1172 L417,601.1172 " fill="none" style="stroke:#181818;stroke-width:1.0;"/><rect fill="#F1F1F1" height="36.2969" rx="12.5" ry="12.5" style="stroke:#181818;stroke-width:1.5;" width="221" x="417" y="780.0078"/><text fill="#000000" font-family="sans-serif" font-size="14" lengthAdjust="spacing" textLength="201" x="427" y="803.0029">Medians and order statistics</text><rect fill="#F1F1F1" height="36.2969" rx="12.5" ry="12.5" style="stroke:#181818;stroke-width:1.5;" width="154" x="688" y="695.5625"/><text fill="#000000" font-family="sans-serif" font-size="14" lengthAdjust="spacing" textLength="134" x="698" y="718.5576">Selection problem</text><path d="M638,798.1563 L648,798.1563 C663,798.1563 663,713.7109 678,713.7109 L688,713.7109 " fill="none" style="stroke:#181818;stroke-width:1.0;"/><rect fill="#F1F1F1" height="36.2969" rx="12.5" ry="12.5" style="stroke:#181818;stroke-width:1.5;" width="331" x="688" y="751.8594"/><text fill="#000000" font-family="sans-serif" font-size="14" lengthAdjust="spacing" textLength="311" x="698" y="774.8545">Lower-bound for comparison-based sorting</text><path d="M638,798.1563 L648,798.1563 C663,798.1563 663,770.0078 678,770.0078 L688,770.0078 " fill="none" style="stroke:#181818;stroke-width:1.0;"/><rect fill="#F1F1F1" height="36.2969" rx="12.5" ry="12.5" style="stroke:#181818;stroke-width:1.5;" width="253" x="688" y="808.1563"/><text fill="#000000" font-family="sans-serif" font-size="14" lengthAdjust="spacing" textLength="233" x="698" y="831.1514">Randomized selection algorithm</text><path d="M638,798.1563 L648,798.1563 C663,798.1563 663,826.3047 678,826.3047 L688,826.3047 " fill="none" style="stroke:#181818;stroke-width:1.0;"/><rect fill="#F1F1F1" height="36.2969" rx="12.5" ry="12.5" style="stroke:#181818;stroke-width:1.5;" width="166" x="688" y="864.4531"/><text fill="#000000" font-family="sans-serif" font-size="14" lengthAdjust="spacing" textLength="146" x="698" y="887.4482">Order statistics tree</text><path d="M638,798.1563 L648,798.1563 C663,798.1563 663,882.6016 678,882.6016 L688,882.6016 " fill="none" style="stroke:#181818;stroke-width:1.0;"/><path d="M367,601.1172 L377,601.1172 C392,601.1172 392,798.1563 407,798.1563 L417,798.1563 " fill="none" style="stroke:#181818;stroke-width:1.0;"/><rect fill="#F1F1F1" height="36.2969" rx="12.5" ry="12.5" style="stroke:#181818;stroke-width:1.5;" width="87" x="417" y="1005.1953"/><text fill="#000000" font-family="sans-serif" font-size="14" lengthAdjust="spacing" textLength="67" x="427" y="1028.1904">Summary</text><rect fill="#F1F1F1" height="36.2969" rx="12.5" ry="12.5" style="stroke:#181818;stroke-width:1.5;" width="411" x="554" y="920.75"/><text fill="#000000" font-family="sans-serif" font-size="14" lengthAdjust="spacing" textLength="391" x="564" y="943.7451">Sorting is a fundamental problem in computer science</text><path d="M504,1023.3438 L514,1023.3438 C529,1023.3438 529,938.8984 544,938.8984 L554,938.8984 " fill="none" style="stroke:#181818;stroke-width:1.0;"/><rect fill="#F1F1F1" height="36.2969" rx="12.5" ry="12.5" style="stroke:#181818;stroke-width:1.5;" width="528" x="554" y="977.0469"/><text fill="#000000" font-family="sans-serif" font-size="14" lengthAdjust="spacing" textLength="508" x="564" y="1000.042">Different sorting algorithms have different properties and efficiencies</text><path d="M504,1023.3438 L514,1023.3438 C529,1023.3438 529,995.1953 544,995.1953 L554,995.1953 " fill="none" style="stroke:#181818;stroke-width:1.0;"/><rect fill="#F1F1F1" height="36.2969" rx="12.5" ry="12.5" style="stroke:#181818;stroke-width:1.5;" width="497" x="554" y="1033.3438"/><text fill="#000000" font-family="sans-serif" font-size="14" lengthAdjust="spacing" textLength="477" x="564" y="1056.3389">Order statistics deal with finding the kth smallest element in a set</text><path d="M504,1023.3438 L514,1023.3438 C529,1023.3438 529,1051.4922 544,1051.4922 L554,1051.4922 " fill="none" style="stroke:#181818;stroke-width:1.0;"/><rect fill="#F1F1F1" height="36.2969" rx="12.5" ry="12.5" style="stroke:#181818;stroke-width:1.5;" width="628" x="554" y="1089.6406"/><text fill="#000000" font-family="sans-serif" font-size="14" lengthAdjust="spacing" textLength="608" x="564" y="1112.6357">Key concepts: heapsort, quicksort, counting sort, selection problem, order statistics</text><path d="M504,1023.3438 L514,1023.3438 C529,1023.3438 529,1107.7891 544,1107.7891 L554,1107.7891 " fill="none" style="stroke:#181818;stroke-width:1.0;"/><path d="M367,601.1172 L377,601.1172 C392,601.1172 392,1023.3438 407,1023.3438 L417,1023.3438 " fill="none" style="stroke:#181818;stroke-width:1.0;"/><path d="M230,572.9688 L240,572.9688 C255,572.9688 255,601.1172 270,601.1172 L280,601.1172 " fill="none" style="stroke:#181818;stroke-width:1.0;"/><!--SRC=[bLF1SjD03BtxAtHCCaa7Mc2OdahQGgSaaz8qlIksd8ZOksPNcn2-7gtj9cuBp71RIIkzfoVfmWiwATba9LR90ERM2PiLeCbWvZ9oC1SKziAfJmO3c2s_Kogy9NyE4q9d8ECy9qT6m3_b5YlhMDQbhyl8cjX1vMn56YS_hBrUGhO7MqFuPn2NreYMY-y1t11MiMuq6Wio5DGK5r89Zfh0E72HrTYmfjX8D_T8gF5_CbZiFJViACyvPJBfliRx5ZZT707lL1mMjaPhDvx3X_-eEe1xTTgIVr46Fxe81xtPGC561GNXictgqWPJ1uzyxZ7Zdnrx7D8DoS41KyeOJSFX3zf6G2hY0As94raMrBAVs1svqL8HCyYjWzIM5JhsreoMw9LsEznNxVX3lHTwp5x0WpYYfkTGbkXQPGu2A6d85HvB7JuMJ_IYCf5Ca5YjrhILv-fVYxV6BNLMyxXzpyUZZh-mpKWvxBGOv7eSiRhkCMpKzYKM1Na1xJnoZGnr8QaToLVQAs5bMOdUoBhTmU5nxaCDTmOxx4ZOzZnyFRiBqWjjhpIvAz38OZg1BJaVyzwUdBuvFJivMvBW-zx2R8pTDR9nGVL6zPFUbxk90WQNHc7qVdWP8cW_kSKjmdsaLD8vHAltCEt3_Fh92TTcoywQs6ro-pXjFi6DbNbbfVxyuTrepABRvPGJF4wJAyen5AAfgOtodSFYuVFeOp91imguKY0oIRtXRg-n-My0]--></g></svg>