<?xml version="1.0" encoding="windows-1252" standalone="no"?>
<svg xmlns="http://www.w3.org/2000/svg" xmlns:xlink="http://www.w3.org/1999/xlink" contentStyleType="text/css" height="3878px" preserveAspectRatio="none" style="width:1198px;height:3878px;background:#FFFFFF;" version="1.1" viewBox="0 0 1198 3878" width="1198px" zoomAndPan="magnify"><script xmlns=""/><defs/><g><rect fill="#F1F1F1" height="36.2969" rx="12.5" ry="12.5" style="stroke:#181818;stroke-width:1.5;" width="133" x="10" y="1920.0195"/><text fill="#000000" font-family="sans-serif" font-size="14" lengthAdjust="spacing" textLength="113" x="20" y="1943.0146">Data Structures</text><rect fill="#F1F1F1" height="36.2969" rx="12.5" ry="12.5" style="stroke:#181818;stroke-width:1.5;" width="924" x="193" y="20"/><text fill="#000000" font-family="sans-serif" font-size="14" lengthAdjust="spacing" textLength="904" x="203" y="42.9951">Objectives: Understand the basic data structures and their properties, and analyze their efficiency in terms of space and time</text><path d="M143,1938.168 L153,1938.168 C168,1938.168 168,38.1484 183,38.1484 L193,38.1484 " fill="none" style="stroke:#181818;stroke-width:1.0;"/><rect fill="#F1F1F1" height="36.2969" rx="12.5" ry="12.5" style="stroke:#181818;stroke-width:1.5;" width="87" x="193" y="1948.168"/><text fill="#000000" font-family="sans-serif" font-size="14" lengthAdjust="spacing" textLength="67" x="203" y="1971.1631">Contents</text><rect fill="#F1F1F1" height="36.2969" rx="12.5" ry="12.5" style="stroke:#181818;stroke-width:1.5;" width="216" x="330" y="498.5234"/><text fill="#000000" font-family="sans-serif" font-size="14" lengthAdjust="spacing" textLength="196" x="340" y="521.5186">Elementary data structures</text><rect fill="#F1F1F1" height="36.2969" rx="12.5" ry="12.5" style="stroke:#181818;stroke-width:1.5;" width="65" x="596" y="160.7422"/><text fill="#000000" font-family="sans-serif" font-size="14" lengthAdjust="spacing" textLength="45" x="606" y="183.7373">Arrays</text><rect fill="#F1F1F1" height="36.2969" rx="12.5" ry="12.5" style="stroke:#181818;stroke-width:1.5;" width="92" x="711" y="76.2969"/><text fill="#000000" font-family="sans-serif" font-size="14" lengthAdjust="spacing" textLength="72" x="721" y="99.292">Definition</text><path d="M661,178.8906 L671,178.8906 C686,178.8906 686,94.4453 701,94.4453 L711,94.4453 " fill="none" style="stroke:#181818;stroke-width:1.0;"/><rect fill="#F1F1F1" height="36.2969" rx="12.5" ry="12.5" style="stroke:#181818;stroke-width:1.5;" width="100" x="711" y="132.5938"/><text fill="#000000" font-family="sans-serif" font-size="14" lengthAdjust="spacing" textLength="80" x="721" y="155.5889">Operations</text><path d="M661,178.8906 L671,178.8906 C686,178.8906 686,150.7422 701,150.7422 L711,150.7422 " fill="none" style="stroke:#181818;stroke-width:1.0;"/><rect fill="#F1F1F1" height="36.2969" rx="12.5" ry="12.5" style="stroke:#181818;stroke-width:1.5;" width="149" x="711" y="188.8906"/><text fill="#000000" font-family="sans-serif" font-size="14" lengthAdjust="spacing" textLength="129" x="721" y="211.8857">Space complexity</text><path d="M661,178.8906 L671,178.8906 C686,178.8906 686,207.0391 701,207.0391 L711,207.0391 " fill="none" style="stroke:#181818;stroke-width:1.0;"/><rect fill="#F1F1F1" height="36.2969" rx="12.5" ry="12.5" style="stroke:#181818;stroke-width:1.5;" width="141" x="711" y="245.1875"/><text fill="#000000" font-family="sans-serif" font-size="14" lengthAdjust="spacing" textLength="121" x="721" y="268.1826">Time complexity</text><path d="M661,178.8906 L671,178.8906 C686,178.8906 686,263.3359 701,263.3359 L711,263.3359 " fill="none" style="stroke:#181818;stroke-width:1.0;"/><path d="M546,516.6719 L556,516.6719 C571,516.6719 571,178.8906 586,178.8906 L596,178.8906 " fill="none" style="stroke:#181818;stroke-width:1.0;"/><rect fill="#F1F1F1" height="36.2969" rx="12.5" ry="12.5" style="stroke:#181818;stroke-width:1.5;" width="101" x="596" y="385.9297"/><text fill="#000000" font-family="sans-serif" font-size="14" lengthAdjust="spacing" textLength="81" x="606" y="408.9248">Linked lists</text><rect fill="#F1F1F1" height="36.2969" rx="12.5" ry="12.5" style="stroke:#181818;stroke-width:1.5;" width="92" x="747" y="301.4844"/><text fill="#000000" font-family="sans-serif" font-size="14" lengthAdjust="spacing" textLength="72" x="757" y="324.4795">Definition</text><path d="M697,404.0781 L707,404.0781 C722,404.0781 722,319.6328 737,319.6328 L747,319.6328 " fill="none" style="stroke:#181818;stroke-width:1.0;"/><rect fill="#F1F1F1" height="36.2969" rx="12.5" ry="12.5" style="stroke:#181818;stroke-width:1.5;" width="100" x="747" y="357.7813"/><text fill="#000000" font-family="sans-serif" font-size="14" lengthAdjust="spacing" textLength="80" x="757" y="380.7764">Operations</text><path d="M697,404.0781 L707,404.0781 C722,404.0781 722,375.9297 737,375.9297 L747,375.9297 " fill="none" style="stroke:#181818;stroke-width:1.0;"/><rect fill="#F1F1F1" height="36.2969" rx="12.5" ry="12.5" style="stroke:#181818;stroke-width:1.5;" width="149" x="747" y="414.0781"/><text fill="#000000" font-family="sans-serif" font-size="14" lengthAdjust="spacing" textLength="129" x="757" y="437.0732">Space complexity</text><path d="M697,404.0781 L707,404.0781 C722,404.0781 722,432.2266 737,432.2266 L747,432.2266 " fill="none" style="stroke:#181818;stroke-width:1.0;"/><rect fill="#F1F1F1" height="36.2969" rx="12.5" ry="12.5" style="stroke:#181818;stroke-width:1.5;" width="141" x="747" y="470.375"/><text fill="#000000" font-family="sans-serif" font-size="14" lengthAdjust="spacing" textLength="121" x="757" y="493.3701">Time complexity</text><path d="M697,404.0781 L707,404.0781 C722,404.0781 722,488.5234 737,488.5234 L747,488.5234 " fill="none" style="stroke:#181818;stroke-width:1.0;"/><path d="M546,516.6719 L556,516.6719 C571,516.6719 571,404.0781 586,404.0781 L596,404.0781 " fill="none" style="stroke:#181818;stroke-width:1.0;"/><rect fill="#F1F1F1" height="36.2969" rx="12.5" ry="12.5" style="stroke:#181818;stroke-width:1.5;" width="68" x="596" y="611.1172"/><text fill="#000000" font-family="sans-serif" font-size="14" lengthAdjust="spacing" textLength="48" x="606" y="634.1123">Stacks</text><rect fill="#F1F1F1" height="36.2969" rx="12.5" ry="12.5" style="stroke:#181818;stroke-width:1.5;" width="92" x="714" y="526.6719"/><text fill="#000000" font-family="sans-serif" font-size="14" lengthAdjust="spacing" textLength="72" x="724" y="549.667">Definition</text><path d="M664,629.2656 L674,629.2656 C689,629.2656 689,544.8203 704,544.8203 L714,544.8203 " fill="none" style="stroke:#181818;stroke-width:1.0;"/><rect fill="#F1F1F1" height="36.2969" rx="12.5" ry="12.5" style="stroke:#181818;stroke-width:1.5;" width="100" x="714" y="582.9688"/><text fill="#000000" font-family="sans-serif" font-size="14" lengthAdjust="spacing" textLength="80" x="724" y="605.9639">Operations</text><path d="M664,629.2656 L674,629.2656 C689,629.2656 689,601.1172 704,601.1172 L714,601.1172 " fill="none" style="stroke:#181818;stroke-width:1.0;"/><rect fill="#F1F1F1" height="36.2969" rx="12.5" ry="12.5" style="stroke:#181818;stroke-width:1.5;" width="149" x="714" y="639.2656"/><text fill="#000000" font-family="sans-serif" font-size="14" lengthAdjust="spacing" textLength="129" x="724" y="662.2607">Space complexity</text><path d="M664,629.2656 L674,629.2656 C689,629.2656 689,657.4141 704,657.4141 L714,657.4141 " fill="none" style="stroke:#181818;stroke-width:1.0;"/><rect fill="#F1F1F1" height="36.2969" rx="12.5" ry="12.5" style="stroke:#181818;stroke-width:1.5;" width="141" x="714" y="695.5625"/><text fill="#000000" font-family="sans-serif" font-size="14" lengthAdjust="spacing" textLength="121" x="724" y="718.5576">Time complexity</text><path d="M664,629.2656 L674,629.2656 C689,629.2656 689,713.7109 704,713.7109 L714,713.7109 " fill="none" style="stroke:#181818;stroke-width:1.0;"/><path d="M546,516.6719 L556,516.6719 C571,516.6719 571,629.2656 586,629.2656 L596,629.2656 " fill="none" style="stroke:#181818;stroke-width:1.0;"/><rect fill="#F1F1F1" height="36.2969" rx="12.5" ry="12.5" style="stroke:#181818;stroke-width:1.5;" width="72" x="596" y="836.3047"/><text fill="#000000" font-family="sans-serif" font-size="14" lengthAdjust="spacing" textLength="52" x="606" y="859.2998">Queues</text><rect fill="#F1F1F1" height="36.2969" rx="12.5" ry="12.5" style="stroke:#181818;stroke-width:1.5;" width="92" x="718" y="751.8594"/><text fill="#000000" font-family="sans-serif" font-size="14" lengthAdjust="spacing" textLength="72" x="728" y="774.8545">Definition</text><path d="M668,854.4531 L678,854.4531 C693,854.4531 693,770.0078 708,770.0078 L718,770.0078 " fill="none" style="stroke:#181818;stroke-width:1.0;"/><rect fill="#F1F1F1" height="36.2969" rx="12.5" ry="12.5" style="stroke:#181818;stroke-width:1.5;" width="100" x="718" y="808.1563"/><text fill="#000000" font-family="sans-serif" font-size="14" lengthAdjust="spacing" textLength="80" x="728" y="831.1514">Operations</text><path d="M668,854.4531 L678,854.4531 C693,854.4531 693,826.3047 708,826.3047 L718,826.3047 " fill="none" style="stroke:#181818;stroke-width:1.0;"/><rect fill="#F1F1F1" height="36.2969" rx="12.5" ry="12.5" style="stroke:#181818;stroke-width:1.5;" width="149" x="718" y="864.4531"/><text fill="#000000" font-family="sans-serif" font-size="14" lengthAdjust="spacing" textLength="129" x="728" y="887.4482">Space complexity</text><path d="M668,854.4531 L678,854.4531 C693,854.4531 693,882.6016 708,882.6016 L718,882.6016 " fill="none" style="stroke:#181818;stroke-width:1.0;"/><rect fill="#F1F1F1" height="36.2969" rx="12.5" ry="12.5" style="stroke:#181818;stroke-width:1.5;" width="141" x="718" y="920.75"/><text fill="#000000" font-family="sans-serif" font-size="14" lengthAdjust="spacing" textLength="121" x="728" y="943.7451">Time complexity</text><path d="M668,854.4531 L678,854.4531 C693,854.4531 693,938.8984 708,938.8984 L718,938.8984 " fill="none" style="stroke:#181818;stroke-width:1.0;"/><path d="M546,516.6719 L556,516.6719 C571,516.6719 571,854.4531 586,854.4531 L596,854.4531 " fill="none" style="stroke:#181818;stroke-width:1.0;"/><rect fill="#F1F1F1" height="36.2969" rx="12.5" ry="12.5" style="stroke:#181818;stroke-width:1.5;" width="75" x="596" y="892.6016"/><text fill="#000000" font-family="sans-serif" font-size="14" lengthAdjust="spacing" textLength="55" x="606" y="915.5967">Dequee</text><path d="M546,516.6719 L556,516.6719 C571,516.6719 571,910.75 586,910.75 L596,910.75 " fill="none" style="stroke:#181818;stroke-width:1.0;"/><path d="M280,1966.3164 L290,1966.3164 C305,1966.3164 305,516.6719 320,516.6719 L330,516.6719 " fill="none" style="stroke:#181818;stroke-width:1.0;"/><rect fill="#F1F1F1" height="36.2969" rx="12.5" ry="12.5" style="stroke:#181818;stroke-width:1.5;" width="103" x="330" y="1342.9766"/><text fill="#000000" font-family="sans-serif" font-size="14" lengthAdjust="spacing" textLength="83" x="340" y="1365.9717">Hash tables</text><rect fill="#F1F1F1" height="36.2969" rx="12.5" ry="12.5" style="stroke:#181818;stroke-width:1.5;" width="175" x="483" y="1061.4922"/><text fill="#000000" font-family="sans-serif" font-size="14" lengthAdjust="spacing" textLength="155" x="493" y="1084.4873">Direct-address tables</text><rect fill="#F1F1F1" height="36.2969" rx="12.5" ry="12.5" style="stroke:#181818;stroke-width:1.5;" width="92" x="708" y="977.0469"/><text fill="#000000" font-family="sans-serif" font-size="14" lengthAdjust="spacing" textLength="72" x="718" y="1000.042">Definition</text><path d="M658,1079.6406 L668,1079.6406 C683,1079.6406 683,995.1953 698,995.1953 L708,995.1953 " fill="none" style="stroke:#181818;stroke-width:1.0;"/><rect fill="#F1F1F1" height="36.2969" rx="12.5" ry="12.5" style="stroke:#181818;stroke-width:1.5;" width="100" x="708" y="1033.3438"/><text fill="#000000" font-family="sans-serif" font-size="14" lengthAdjust="spacing" textLength="80" x="718" y="1056.3389">Operations</text><path d="M658,1079.6406 L668,1079.6406 C683,1079.6406 683,1051.4922 698,1051.4922 L708,1051.4922 " fill="none" style="stroke:#181818;stroke-width:1.0;"/><rect fill="#F1F1F1" height="36.2969" rx="12.5" ry="12.5" style="stroke:#181818;stroke-width:1.5;" width="149" x="708" y="1089.6406"/><text fill="#000000" font-family="sans-serif" font-size="14" lengthAdjust="spacing" textLength="129" x="718" y="1112.6357">Space complexity</text><path d="M658,1079.6406 L668,1079.6406 C683,1079.6406 683,1107.7891 698,1107.7891 L708,1107.7891 " fill="none" style="stroke:#181818;stroke-width:1.0;"/><rect fill="#F1F1F1" height="36.2969" rx="12.5" ry="12.5" style="stroke:#181818;stroke-width:1.5;" width="141" x="708" y="1145.9375"/><text fill="#000000" font-family="sans-serif" font-size="14" lengthAdjust="spacing" textLength="121" x="718" y="1168.9326">Time complexity</text><path d="M658,1079.6406 L668,1079.6406 C683,1079.6406 683,1164.0859 698,1164.0859 L708,1164.0859 " fill="none" style="stroke:#181818;stroke-width:1.0;"/><path d="M433,1361.125 L443,1361.125 C458,1361.125 458,1079.6406 473,1079.6406 L483,1079.6406 " fill="none" style="stroke:#181818;stroke-width:1.0;"/><rect fill="#F1F1F1" height="36.2969" rx="12.5" ry="12.5" style="stroke:#181818;stroke-width:1.5;" width="202" x="483" y="1286.6797"/><text fill="#000000" font-family="sans-serif" font-size="14" lengthAdjust="spacing" textLength="182" x="493" y="1309.6748">Hash tables with chaining</text><rect fill="#F1F1F1" height="36.2969" rx="12.5" ry="12.5" style="stroke:#181818;stroke-width:1.5;" width="92" x="735" y="1202.2344"/><text fill="#000000" font-family="sans-serif" font-size="14" lengthAdjust="spacing" textLength="72" x="745" y="1225.2295">Definition</text><path d="M685,1304.8281 L695,1304.8281 C710,1304.8281 710,1220.3828 725,1220.3828 L735,1220.3828 " fill="none" style="stroke:#181818;stroke-width:1.0;"/><rect fill="#F1F1F1" height="36.2969" rx="12.5" ry="12.5" style="stroke:#181818;stroke-width:1.5;" width="100" x="735" y="1258.5313"/><text fill="#000000" font-family="sans-serif" font-size="14" lengthAdjust="spacing" textLength="80" x="745" y="1281.5264">Operations</text><path d="M685,1304.8281 L695,1304.8281 C710,1304.8281 710,1276.6797 725,1276.6797 L735,1276.6797 " fill="none" style="stroke:#181818;stroke-width:1.0;"/><rect fill="#F1F1F1" height="36.2969" rx="12.5" ry="12.5" style="stroke:#181818;stroke-width:1.5;" width="149" x="735" y="1314.8281"/><text fill="#000000" font-family="sans-serif" font-size="14" lengthAdjust="spacing" textLength="129" x="745" y="1337.8232">Space complexity</text><path d="M685,1304.8281 L695,1304.8281 C710,1304.8281 710,1332.9766 725,1332.9766 L735,1332.9766 " fill="none" style="stroke:#181818;stroke-width:1.0;"/><rect fill="#F1F1F1" height="36.2969" rx="12.5" ry="12.5" style="stroke:#181818;stroke-width:1.5;" width="141" x="735" y="1371.125"/><text fill="#000000" font-family="sans-serif" font-size="14" lengthAdjust="spacing" textLength="121" x="745" y="1394.1201">Time complexity</text><path d="M685,1304.8281 L695,1304.8281 C710,1304.8281 710,1389.2734 725,1389.2734 L735,1389.2734 " fill="none" style="stroke:#181818;stroke-width:1.0;"/><path d="M433,1361.125 L443,1361.125 C458,1361.125 458,1304.8281 473,1304.8281 L483,1304.8281 " fill="none" style="stroke:#181818;stroke-width:1.0;"/><rect fill="#F1F1F1" height="36.2969" rx="12.5" ry="12.5" style="stroke:#181818;stroke-width:1.5;" width="125" x="483" y="1511.8672"/><text fill="#000000" font-family="sans-serif" font-size="14" lengthAdjust="spacing" textLength="105" x="493" y="1534.8623">Hash functions</text><rect fill="#F1F1F1" height="36.2969" rx="12.5" ry="12.5" style="stroke:#181818;stroke-width:1.5;" width="92" x="658" y="1427.4219"/><text fill="#000000" font-family="sans-serif" font-size="14" lengthAdjust="spacing" textLength="72" x="668" y="1450.417">Definition</text><path d="M608,1530.0156 L618,1530.0156 C633,1530.0156 633,1445.5703 648,1445.5703 L658,1445.5703 " fill="none" style="stroke:#181818;stroke-width:1.0;"/><rect fill="#F1F1F1" height="36.2969" rx="12.5" ry="12.5" style="stroke:#181818;stroke-width:1.5;" width="100" x="658" y="1483.7188"/><text fill="#000000" font-family="sans-serif" font-size="14" lengthAdjust="spacing" textLength="80" x="668" y="1506.7139">Operations</text><path d="M608,1530.0156 L618,1530.0156 C633,1530.0156 633,1501.8672 648,1501.8672 L658,1501.8672 " fill="none" style="stroke:#181818;stroke-width:1.0;"/><rect fill="#F1F1F1" height="36.2969" rx="12.5" ry="12.5" style="stroke:#181818;stroke-width:1.5;" width="149" x="658" y="1540.0156"/><text fill="#000000" font-family="sans-serif" font-size="14" lengthAdjust="spacing" textLength="129" x="668" y="1563.0107">Space complexity</text><path d="M608,1530.0156 L618,1530.0156 C633,1530.0156 633,1558.1641 648,1558.1641 L658,1558.1641 " fill="none" style="stroke:#181818;stroke-width:1.0;"/><rect fill="#F1F1F1" height="36.2969" rx="12.5" ry="12.5" style="stroke:#181818;stroke-width:1.5;" width="141" x="658" y="1596.3125"/><text fill="#000000" font-family="sans-serif" font-size="14" lengthAdjust="spacing" textLength="121" x="668" y="1619.3076">Time complexity</text><path d="M608,1530.0156 L618,1530.0156 C633,1530.0156 633,1614.4609 648,1614.4609 L658,1614.4609 " fill="none" style="stroke:#181818;stroke-width:1.0;"/><path d="M433,1361.125 L443,1361.125 C458,1361.125 458,1530.0156 473,1530.0156 L483,1530.0156 " fill="none" style="stroke:#181818;stroke-width:1.0;"/><rect fill="#F1F1F1" height="36.2969" rx="12.5" ry="12.5" style="stroke:#181818;stroke-width:1.5;" width="182" x="483" y="1680.7578"/><text fill="#000000" font-family="sans-serif" font-size="14" lengthAdjust="spacing" textLength="162" x="493" y="1703.7529">Analysis and efficiency</text><rect fill="#F1F1F1" height="36.2969" rx="12.5" ry="12.5" style="stroke:#181818;stroke-width:1.5;" width="149" x="715" y="1652.6094"/><text fill="#000000" font-family="sans-serif" font-size="14" lengthAdjust="spacing" textLength="129" x="725" y="1675.6045">Space complexity</text><path d="M665,1698.9063 L675,1698.9063 C690,1698.9063 690,1670.7578 705,1670.7578 L715,1670.7578 " fill="none" style="stroke:#181818;stroke-width:1.0;"/><rect fill="#F1F1F1" height="36.2969" rx="12.5" ry="12.5" style="stroke:#181818;stroke-width:1.5;" width="141" x="715" y="1708.9063"/><text fill="#000000" font-family="sans-serif" font-size="14" lengthAdjust="spacing" textLength="121" x="725" y="1731.9014">Time complexity</text><path d="M665,1698.9063 L675,1698.9063 C690,1698.9063 690,1727.0547 705,1727.0547 L715,1727.0547 " fill="none" style="stroke:#181818;stroke-width:1.0;"/><path d="M433,1361.125 L443,1361.125 C458,1361.125 458,1698.9063 473,1698.9063 L483,1698.9063 " fill="none" style="stroke:#181818;stroke-width:1.0;"/><path d="M280,1966.3164 L290,1966.3164 C305,1966.3164 305,1361.125 320,1361.125 L330,1361.125 " fill="none" style="stroke:#181818;stroke-width:1.0;"/><rect fill="#F1F1F1" height="36.2969" rx="12.5" ry="12.5" style="stroke:#181818;stroke-width:1.5;" width="158" x="330" y="2314.0977"/><text fill="#000000" font-family="sans-serif" font-size="14" lengthAdjust="spacing" textLength="138" x="340" y="2337.0928">Binary search trees</text><rect fill="#F1F1F1" height="36.2969" rx="12.5" ry="12.5" style="stroke:#181818;stroke-width:1.5;" width="336" x="538" y="1849.6484"/><text fill="#000000" font-family="sans-serif" font-size="14" lengthAdjust="spacing" textLength="316" x="548" y="1872.6436">Binary Tree (AKA Binary Search Tree or BST)</text><rect fill="#F1F1F1" height="36.2969" rx="12.5" ry="12.5" style="stroke:#181818;stroke-width:1.5;" width="92" x="924" y="1765.2031"/><text fill="#000000" font-family="sans-serif" font-size="14" lengthAdjust="spacing" textLength="72" x="934" y="1788.1982">Definition</text><path d="M874,1867.7969 L884,1867.7969 C899,1867.7969 899,1783.3516 914,1783.3516 L924,1783.3516 " fill="none" style="stroke:#181818;stroke-width:1.0;"/><rect fill="#F1F1F1" height="36.2969" rx="12.5" ry="12.5" style="stroke:#181818;stroke-width:1.5;" width="100" x="924" y="1821.5"/><text fill="#000000" font-family="sans-serif" font-size="14" lengthAdjust="spacing" textLength="80" x="934" y="1844.4951">Operations</text><path d="M874,1867.7969 L884,1867.7969 C899,1867.7969 899,1839.6484 914,1839.6484 L924,1839.6484 " fill="none" style="stroke:#181818;stroke-width:1.0;"/><rect fill="#F1F1F1" height="36.2969" rx="12.5" ry="12.5" style="stroke:#181818;stroke-width:1.5;" width="149" x="924" y="1877.7969"/><text fill="#000000" font-family="sans-serif" font-size="14" lengthAdjust="spacing" textLength="129" x="934" y="1900.792">Space complexity</text><path d="M874,1867.7969 L884,1867.7969 C899,1867.7969 899,1895.9453 914,1895.9453 L924,1895.9453 " fill="none" style="stroke:#181818;stroke-width:1.0;"/><rect fill="#F1F1F1" height="36.2969" rx="12.5" ry="12.5" style="stroke:#181818;stroke-width:1.5;" width="141" x="924" y="1934.0938"/><text fill="#000000" font-family="sans-serif" font-size="14" lengthAdjust="spacing" textLength="121" x="934" y="1957.0889">Time complexity</text><path d="M874,1867.7969 L884,1867.7969 C899,1867.7969 899,1952.2422 914,1952.2422 L924,1952.2422 " fill="none" style="stroke:#181818;stroke-width:1.0;"/><path d="M488,2332.2461 L498,2332.2461 C513,2332.2461 513,1867.7969 528,1867.7969 L538,1867.7969 " fill="none" style="stroke:#181818;stroke-width:1.0;"/><rect fill="#F1F1F1" height="36.2969" rx="12.5" ry="12.5" style="stroke:#181818;stroke-width:1.5;" width="127" x="538" y="1990.3906"/><text fill="#000000" font-family="sans-serif" font-size="14" lengthAdjust="spacing" textLength="107" x="548" y="2013.3857">Tree traversals</text><rect fill="#F1F1F1" height="36.2969" rx="12.5" ry="12.5" style="stroke:#181818;stroke-width:1.5;" width="92" x="715" y="1905.9453"/><text fill="#000000" font-family="sans-serif" font-size="14" lengthAdjust="spacing" textLength="72" x="725" y="1928.9404">Definition</text><path d="M665,2008.5391 L675,2008.5391 C690,2008.5391 690,1924.0938 705,1924.0938 L715,1924.0938 " fill="none" style="stroke:#181818;stroke-width:1.0;"/><rect fill="#F1F1F1" height="36.2969" rx="12.5" ry="12.5" style="stroke:#181818;stroke-width:1.5;" width="100" x="715" y="1962.2422"/><text fill="#000000" font-family="sans-serif" font-size="14" lengthAdjust="spacing" textLength="80" x="725" y="1985.2373">Operations</text><path d="M665,2008.5391 L675,2008.5391 C690,2008.5391 690,1980.3906 705,1980.3906 L715,1980.3906 " fill="none" style="stroke:#181818;stroke-width:1.0;"/><rect fill="#F1F1F1" height="36.2969" rx="12.5" ry="12.5" style="stroke:#181818;stroke-width:1.5;" width="149" x="715" y="2018.5391"/><text fill="#000000" font-family="sans-serif" font-size="14" lengthAdjust="spacing" textLength="129" x="725" y="2041.5342">Space complexity</text><path d="M665,2008.5391 L675,2008.5391 C690,2008.5391 690,2036.6875 705,2036.6875 L715,2036.6875 " fill="none" style="stroke:#181818;stroke-width:1.0;"/><rect fill="#F1F1F1" height="36.2969" rx="12.5" ry="12.5" style="stroke:#181818;stroke-width:1.5;" width="141" x="715" y="2074.8359"/><text fill="#000000" font-family="sans-serif" font-size="14" lengthAdjust="spacing" textLength="121" x="725" y="2097.8311">Time complexity</text><path d="M665,2008.5391 L675,2008.5391 C690,2008.5391 690,2092.9844 705,2092.9844 L715,2092.9844 " fill="none" style="stroke:#181818;stroke-width:1.0;"/><path d="M488,2332.2461 L498,2332.2461 C513,2332.2461 513,2008.5391 528,2008.5391 L538,2008.5391 " fill="none" style="stroke:#181818;stroke-width:1.0;"/><rect fill="#F1F1F1" height="36.2969" rx="12.5" ry="12.5" style="stroke:#181818;stroke-width:1.5;" width="220" x="538" y="2215.5781"/><text fill="#000000" font-family="sans-serif" font-size="14" lengthAdjust="spacing" textLength="200" x="548" y="2238.5732">Binary search tree property</text><rect fill="#F1F1F1" height="36.2969" rx="12.5" ry="12.5" style="stroke:#181818;stroke-width:1.5;" width="92" x="808" y="2131.1328"/><text fill="#000000" font-family="sans-serif" font-size="14" lengthAdjust="spacing" textLength="72" x="818" y="2154.1279">Definition</text><path d="M758,2233.7266 L768,2233.7266 C783,2233.7266 783,2149.2813 798,2149.2813 L808,2149.2813 " fill="none" style="stroke:#181818;stroke-width:1.0;"/><rect fill="#F1F1F1" height="36.2969" rx="12.5" ry="12.5" style="stroke:#181818;stroke-width:1.5;" width="100" x="808" y="2187.4297"/><text fill="#000000" font-family="sans-serif" font-size="14" lengthAdjust="spacing" textLength="80" x="818" y="2210.4248">Operations</text><path d="M758,2233.7266 L768,2233.7266 C783,2233.7266 783,2205.5781 798,2205.5781 L808,2205.5781 " fill="none" style="stroke:#181818;stroke-width:1.0;"/><rect fill="#F1F1F1" height="36.2969" rx="12.5" ry="12.5" style="stroke:#181818;stroke-width:1.5;" width="149" x="808" y="2243.7266"/><text fill="#000000" font-family="sans-serif" font-size="14" lengthAdjust="spacing" textLength="129" x="818" y="2266.7217">Space complexity</text><path d="M758,2233.7266 L768,2233.7266 C783,2233.7266 783,2261.875 798,2261.875 L808,2261.875 " fill="none" style="stroke:#181818;stroke-width:1.0;"/><rect fill="#F1F1F1" height="36.2969" rx="12.5" ry="12.5" style="stroke:#181818;stroke-width:1.5;" width="141" x="808" y="2300.0234"/><text fill="#000000" font-family="sans-serif" font-size="14" lengthAdjust="spacing" textLength="121" x="818" y="2323.0186">Time complexity</text><path d="M758,2233.7266 L768,2233.7266 C783,2233.7266 783,2318.1719 798,2318.1719 L808,2318.1719 " fill="none" style="stroke:#181818;stroke-width:1.0;"/><path d="M488,2332.2461 L498,2332.2461 C513,2332.2461 513,2233.7266 528,2233.7266 L538,2233.7266 " fill="none" style="stroke:#181818;stroke-width:1.0;"/><rect fill="#F1F1F1" height="36.2969" rx="12.5" ry="12.5" style="stroke:#181818;stroke-width:1.5;" width="264" x="538" y="2440.7656"/><text fill="#000000" font-family="sans-serif" font-size="14" lengthAdjust="spacing" textLength="244" x="548" y="2463.7607">Operations on binary search trees</text><rect fill="#F1F1F1" height="36.2969" rx="12.5" ry="12.5" style="stroke:#181818;stroke-width:1.5;" width="92" x="852" y="2356.3203"/><text fill="#000000" font-family="sans-serif" font-size="14" lengthAdjust="spacing" textLength="72" x="862" y="2379.3154">Definition</text><path d="M802,2458.9141 L812,2458.9141 C827,2458.9141 827,2374.4688 842,2374.4688 L852,2374.4688 " fill="none" style="stroke:#181818;stroke-width:1.0;"/><rect fill="#F1F1F1" height="36.2969" rx="12.5" ry="12.5" style="stroke:#181818;stroke-width:1.5;" width="100" x="852" y="2412.6172"/><text fill="#000000" font-family="sans-serif" font-size="14" lengthAdjust="spacing" textLength="80" x="862" y="2435.6123">Operations</text><path d="M802,2458.9141 L812,2458.9141 C827,2458.9141 827,2430.7656 842,2430.7656 L852,2430.7656 " fill="none" style="stroke:#181818;stroke-width:1.0;"/><rect fill="#F1F1F1" height="36.2969" rx="12.5" ry="12.5" style="stroke:#181818;stroke-width:1.5;" width="149" x="852" y="2468.9141"/><text fill="#000000" font-family="sans-serif" font-size="14" lengthAdjust="spacing" textLength="129" x="862" y="2491.9092">Space complexity</text><path d="M802,2458.9141 L812,2458.9141 C827,2458.9141 827,2487.0625 842,2487.0625 L852,2487.0625 " fill="none" style="stroke:#181818;stroke-width:1.0;"/><rect fill="#F1F1F1" height="36.2969" rx="12.5" ry="12.5" style="stroke:#181818;stroke-width:1.5;" width="141" x="852" y="2525.2109"/><text fill="#000000" font-family="sans-serif" font-size="14" lengthAdjust="spacing" textLength="121" x="862" y="2548.2061">Time complexity</text><path d="M802,2458.9141 L812,2458.9141 C827,2458.9141 827,2543.3594 842,2543.3594 L852,2543.3594 " fill="none" style="stroke:#181818;stroke-width:1.0;"/><path d="M488,2332.2461 L498,2332.2461 C513,2332.2461 513,2458.9141 528,2458.9141 L538,2458.9141 " fill="none" style="stroke:#181818;stroke-width:1.0;"/><rect fill="#F1F1F1" height="36.2969" rx="12.5" ry="12.5" style="stroke:#181818;stroke-width:1.5;" width="227" x="538" y="2665.9531"/><text fill="#000000" font-family="sans-serif" font-size="14" lengthAdjust="spacing" textLength="207" x="548" y="2688.9482">Balanced binary search trees</text><rect fill="#F1F1F1" height="36.2969" rx="12.5" ry="12.5" style="stroke:#181818;stroke-width:1.5;" width="92" x="815" y="2581.5078"/><text fill="#000000" font-family="sans-serif" font-size="14" lengthAdjust="spacing" textLength="72" x="825" y="2604.5029">Definition</text><path d="M765,2684.1016 L775,2684.1016 C790,2684.1016 790,2599.6563 805,2599.6563 L815,2599.6563 " fill="none" style="stroke:#181818;stroke-width:1.0;"/><rect fill="#F1F1F1" height="36.2969" rx="12.5" ry="12.5" style="stroke:#181818;stroke-width:1.5;" width="100" x="815" y="2637.8047"/><text fill="#000000" font-family="sans-serif" font-size="14" lengthAdjust="spacing" textLength="80" x="825" y="2660.7998">Operations</text><path d="M765,2684.1016 L775,2684.1016 C790,2684.1016 790,2655.9531 805,2655.9531 L815,2655.9531 " fill="none" style="stroke:#181818;stroke-width:1.0;"/><rect fill="#F1F1F1" height="36.2969" rx="12.5" ry="12.5" style="stroke:#181818;stroke-width:1.5;" width="149" x="815" y="2694.1016"/><text fill="#000000" font-family="sans-serif" font-size="14" lengthAdjust="spacing" textLength="129" x="825" y="2717.0967">Space complexity</text><path d="M765,2684.1016 L775,2684.1016 C790,2684.1016 790,2712.25 805,2712.25 L815,2712.25 " fill="none" style="stroke:#181818;stroke-width:1.0;"/><rect fill="#F1F1F1" height="36.2969" rx="12.5" ry="12.5" style="stroke:#181818;stroke-width:1.5;" width="141" x="815" y="2750.3984"/><text fill="#000000" font-family="sans-serif" font-size="14" lengthAdjust="spacing" textLength="121" x="825" y="2773.3936">Time complexity</text><path d="M765,2684.1016 L775,2684.1016 C790,2684.1016 790,2768.5469 805,2768.5469 L815,2768.5469 " fill="none" style="stroke:#181818;stroke-width:1.0;"/><path d="M488,2332.2461 L498,2332.2461 C513,2332.2461 513,2684.1016 528,2684.1016 L538,2684.1016 " fill="none" style="stroke:#181818;stroke-width:1.0;"/><rect fill="#F1F1F1" height="36.2969" rx="12.5" ry="12.5" style="stroke:#181818;stroke-width:1.5;" width="182" x="538" y="2834.8438"/><text fill="#000000" font-family="sans-serif" font-size="14" lengthAdjust="spacing" textLength="162" x="548" y="2857.8389">Analysis and efficiency</text><rect fill="#F1F1F1" height="36.2969" rx="12.5" ry="12.5" style="stroke:#181818;stroke-width:1.5;" width="149" x="770" y="2806.6953"/><text fill="#000000" font-family="sans-serif" font-size="14" lengthAdjust="spacing" textLength="129" x="780" y="2829.6904">Space complexity</text><path d="M720,2852.9922 L730,2852.9922 C745,2852.9922 745,2824.8438 760,2824.8438 L770,2824.8438 " fill="none" style="stroke:#181818;stroke-width:1.0;"/><rect fill="#F1F1F1" height="36.2969" rx="12.5" ry="12.5" style="stroke:#181818;stroke-width:1.5;" width="141" x="770" y="2862.9922"/><text fill="#000000" font-family="sans-serif" font-size="14" lengthAdjust="spacing" textLength="121" x="780" y="2885.9873">Time complexity</text><path d="M720,2852.9922 L730,2852.9922 C745,2852.9922 745,2881.1406 760,2881.1406 L770,2881.1406 " fill="none" style="stroke:#181818;stroke-width:1.0;"/><path d="M488,2332.2461 L498,2332.2461 C513,2332.2461 513,2852.9922 528,2852.9922 L538,2852.9922 " fill="none" style="stroke:#181818;stroke-width:1.0;"/><path d="M280,1966.3164 L290,1966.3164 C305,1966.3164 305,2332.2461 320,2332.2461 L330,2332.2461 " fill="none" style="stroke:#181818;stroke-width:1.0;"/><rect fill="#F1F1F1" height="36.2969" rx="12.5" ry="12.5" style="stroke:#181818;stroke-width:1.5;" width="127" x="330" y="3285.2188"/><text fill="#000000" font-family="sans-serif" font-size="14" lengthAdjust="spacing" textLength="107" x="340" y="3308.2139">Priority queues</text><rect fill="#F1F1F1" height="36.2969" rx="12.5" ry="12.5" style="stroke:#181818;stroke-width:1.5;" width="64" x="507" y="3003.7344"/><text fill="#000000" font-family="sans-serif" font-size="14" lengthAdjust="spacing" textLength="44" x="517" y="3026.7295">Heaps</text><rect fill="#F1F1F1" height="36.2969" rx="12.5" ry="12.5" style="stroke:#181818;stroke-width:1.5;" width="92" x="621" y="2919.2891"/><text fill="#000000" font-family="sans-serif" font-size="14" lengthAdjust="spacing" textLength="72" x="631" y="2942.2842">Definition</text><path d="M571,3021.8828 L581,3021.8828 C596,3021.8828 596,2937.4375 611,2937.4375 L621,2937.4375 " fill="none" style="stroke:#181818;stroke-width:1.0;"/><rect fill="#F1F1F1" height="36.2969" rx="12.5" ry="12.5" style="stroke:#181818;stroke-width:1.5;" width="100" x="621" y="2975.5859"/><text fill="#000000" font-family="sans-serif" font-size="14" lengthAdjust="spacing" textLength="80" x="631" y="2998.5811">Operations</text><path d="M571,3021.8828 L581,3021.8828 C596,3021.8828 596,2993.7344 611,2993.7344 L621,2993.7344 " fill="none" style="stroke:#181818;stroke-width:1.0;"/><rect fill="#F1F1F1" height="36.2969" rx="12.5" ry="12.5" style="stroke:#181818;stroke-width:1.5;" width="149" x="621" y="3031.8828"/><text fill="#000000" font-family="sans-serif" font-size="14" lengthAdjust="spacing" textLength="129" x="631" y="3054.8779">Space complexity</text><path d="M571,3021.8828 L581,3021.8828 C596,3021.8828 596,3050.0313 611,3050.0313 L621,3050.0313 " fill="none" style="stroke:#181818;stroke-width:1.0;"/><rect fill="#F1F1F1" height="36.2969" rx="12.5" ry="12.5" style="stroke:#181818;stroke-width:1.5;" width="141" x="621" y="3088.1797"/><text fill="#000000" font-family="sans-serif" font-size="14" lengthAdjust="spacing" textLength="121" x="631" y="3111.1748">Time complexity</text><path d="M571,3021.8828 L581,3021.8828 C596,3021.8828 596,3106.3281 611,3106.3281 L621,3106.3281 " fill="none" style="stroke:#181818;stroke-width:1.0;"/><path d="M457,3303.3672 L467,3303.3672 C482,3303.3672 482,3021.8828 497,3021.8828 L507,3021.8828 " fill="none" style="stroke:#181818;stroke-width:1.0;"/><rect fill="#F1F1F1" height="36.2969" rx="12.5" ry="12.5" style="stroke:#181818;stroke-width:1.5;" width="202" x="507" y="3228.9219"/><text fill="#000000" font-family="sans-serif" font-size="14" lengthAdjust="spacing" textLength="182" x="517" y="3251.917">Priority queue operations</text><rect fill="#F1F1F1" height="36.2969" rx="12.5" ry="12.5" style="stroke:#181818;stroke-width:1.5;" width="92" x="759" y="3144.4766"/><text fill="#000000" font-family="sans-serif" font-size="14" lengthAdjust="spacing" textLength="72" x="769" y="3167.4717">Definition</text><path d="M709,3247.0703 L719,3247.0703 C734,3247.0703 734,3162.625 749,3162.625 L759,3162.625 " fill="none" style="stroke:#181818;stroke-width:1.0;"/><rect fill="#F1F1F1" height="36.2969" rx="12.5" ry="12.5" style="stroke:#181818;stroke-width:1.5;" width="100" x="759" y="3200.7734"/><text fill="#000000" font-family="sans-serif" font-size="14" lengthAdjust="spacing" textLength="80" x="769" y="3223.7686">Operations</text><path d="M709,3247.0703 L719,3247.0703 C734,3247.0703 734,3218.9219 749,3218.9219 L759,3218.9219 " fill="none" style="stroke:#181818;stroke-width:1.0;"/><rect fill="#F1F1F1" height="36.2969" rx="12.5" ry="12.5" style="stroke:#181818;stroke-width:1.5;" width="149" x="759" y="3257.0703"/><text fill="#000000" font-family="sans-serif" font-size="14" lengthAdjust="spacing" textLength="129" x="769" y="3280.0654">Space complexity</text><path d="M709,3247.0703 L719,3247.0703 C734,3247.0703 734,3275.2188 749,3275.2188 L759,3275.2188 " fill="none" style="stroke:#181818;stroke-width:1.0;"/><rect fill="#F1F1F1" height="36.2969" rx="12.5" ry="12.5" style="stroke:#181818;stroke-width:1.5;" width="141" x="759" y="3313.3672"/><text fill="#000000" font-family="sans-serif" font-size="14" lengthAdjust="spacing" textLength="121" x="769" y="3336.3623">Time complexity</text><path d="M709,3247.0703 L719,3247.0703 C734,3247.0703 734,3331.5156 749,3331.5156 L759,3331.5156 " fill="none" style="stroke:#181818;stroke-width:1.0;"/><path d="M457,3303.3672 L467,3303.3672 C482,3303.3672 482,3247.0703 497,3247.0703 L507,3247.0703 " fill="none" style="stroke:#181818;stroke-width:1.0;"/><rect fill="#F1F1F1" height="36.2969" rx="12.5" ry="12.5" style="stroke:#181818;stroke-width:1.5;" width="144" x="507" y="3454.1094"/><text fill="#000000" font-family="sans-serif" font-size="14" lengthAdjust="spacing" textLength="124" x="517" y="3477.1045">Implementations</text><rect fill="#F1F1F1" height="36.2969" rx="12.5" ry="12.5" style="stroke:#181818;stroke-width:1.5;" width="92" x="701" y="3369.6641"/><text fill="#000000" font-family="sans-serif" font-size="14" lengthAdjust="spacing" textLength="72" x="711" y="3392.6592">Definition</text><path d="M651,3472.2578 L661,3472.2578 C676,3472.2578 676,3387.8125 691,3387.8125 L701,3387.8125 " fill="none" style="stroke:#181818;stroke-width:1.0;"/><rect fill="#F1F1F1" height="36.2969" rx="12.5" ry="12.5" style="stroke:#181818;stroke-width:1.5;" width="100" x="701" y="3425.9609"/><text fill="#000000" font-family="sans-serif" font-size="14" lengthAdjust="spacing" textLength="80" x="711" y="3448.9561">Operations</text><path d="M651,3472.2578 L661,3472.2578 C676,3472.2578 676,3444.1094 691,3444.1094 L701,3444.1094 " fill="none" style="stroke:#181818;stroke-width:1.0;"/><rect fill="#F1F1F1" height="36.2969" rx="12.5" ry="12.5" style="stroke:#181818;stroke-width:1.5;" width="149" x="701" y="3482.2578"/><text fill="#000000" font-family="sans-serif" font-size="14" lengthAdjust="spacing" textLength="129" x="711" y="3505.2529">Space complexity</text><path d="M651,3472.2578 L661,3472.2578 C676,3472.2578 676,3500.4063 691,3500.4063 L701,3500.4063 " fill="none" style="stroke:#181818;stroke-width:1.0;"/><rect fill="#F1F1F1" height="36.2969" rx="12.5" ry="12.5" style="stroke:#181818;stroke-width:1.5;" width="141" x="701" y="3538.5547"/><text fill="#000000" font-family="sans-serif" font-size="14" lengthAdjust="spacing" textLength="121" x="711" y="3561.5498">Time complexity</text><path d="M651,3472.2578 L661,3472.2578 C676,3472.2578 676,3556.7031 691,3556.7031 L701,3556.7031 " fill="none" style="stroke:#181818;stroke-width:1.0;"/><path d="M457,3303.3672 L467,3303.3672 C482,3303.3672 482,3472.2578 497,3472.2578 L507,3472.2578 " fill="none" style="stroke:#181818;stroke-width:1.0;"/><rect fill="#F1F1F1" height="36.2969" rx="12.5" ry="12.5" style="stroke:#181818;stroke-width:1.5;" width="182" x="507" y="3623"/><text fill="#000000" font-family="sans-serif" font-size="14" lengthAdjust="spacing" textLength="162" x="517" y="3645.9951">Analysis and efficiency</text><rect fill="#F1F1F1" height="36.2969" rx="12.5" ry="12.5" style="stroke:#181818;stroke-width:1.5;" width="149" x="739" y="3594.8516"/><text fill="#000000" font-family="sans-serif" font-size="14" lengthAdjust="spacing" textLength="129" x="749" y="3617.8467">Space complexity</text><path d="M689,3641.1484 L699,3641.1484 C714,3641.1484 714,3613 729,3613 L739,3613 " fill="none" style="stroke:#181818;stroke-width:1.0;"/><rect fill="#F1F1F1" height="36.2969" rx="12.5" ry="12.5" style="stroke:#181818;stroke-width:1.5;" width="141" x="739" y="3651.1484"/><text fill="#000000" font-family="sans-serif" font-size="14" lengthAdjust="spacing" textLength="121" x="749" y="3674.1436">Time complexity</text><path d="M689,3641.1484 L699,3641.1484 C714,3641.1484 714,3669.2969 729,3669.2969 L739,3669.2969 " fill="none" style="stroke:#181818;stroke-width:1.0;"/><path d="M457,3303.3672 L467,3303.3672 C482,3303.3672 482,3641.1484 497,3641.1484 L507,3641.1484 " fill="none" style="stroke:#181818;stroke-width:1.0;"/><path d="M280,1966.3164 L290,1966.3164 C305,1966.3164 305,3303.3672 320,3303.3672 L330,3303.3672 " fill="none" style="stroke:#181818;stroke-width:1.0;"/><rect fill="#F1F1F1" height="36.2969" rx="12.5" ry="12.5" style="stroke:#181818;stroke-width:1.5;" width="87" x="330" y="3763.7422"/><text fill="#000000" font-family="sans-serif" font-size="14" lengthAdjust="spacing" textLength="67" x="340" y="3786.7373">Summary</text><rect fill="#F1F1F1" height="36.2969" rx="12.5" ry="12.5" style="stroke:#181818;stroke-width:1.5;" width="572" x="467" y="3707.4453"/><text fill="#000000" font-family="sans-serif" font-size="14" lengthAdjust="spacing" textLength="552" x="477" y="3730.4404">Data structures organize and store data for efficient access and modification</text><path d="M417,3781.8906 L427,3781.8906 C442,3781.8906 442,3725.5938 457,3725.5938 L467,3725.5938 " fill="none" style="stroke:#181818;stroke-width:1.0;"/><rect fill="#F1F1F1" height="36.2969" rx="12.5" ry="12.5" style="stroke:#181818;stroke-width:1.5;" width="685" x="467" y="3763.7422"/><text fill="#000000" font-family="sans-serif" font-size="14" lengthAdjust="spacing" textLength="665" x="477" y="3786.7373">Efficiency in terms of space and time is important in designing and analyzing data structures</text><path d="M417,3781.8906 L427,3781.8906 C442,3781.8906 442,3781.8906 457,3781.8906 L467,3781.8906 " fill="none" style="stroke:#181818;stroke-width:1.0;"/><rect fill="#F1F1F1" height="36.2969" rx="12.5" ry="12.5" style="stroke:#181818;stroke-width:1.5;" width="719" x="467" y="3820.0391"/><text fill="#000000" font-family="sans-serif" font-size="14" lengthAdjust="spacing" textLength="699" x="477" y="3843.0342">Key concepts: arrays, linked lists, stacks, queues, hash tables, binary search trees, priority queues</text><path d="M417,3781.8906 L427,3781.8906 C442,3781.8906 442,3838.1875 457,3838.1875 L467,3838.1875 " fill="none" style="stroke:#181818;stroke-width:1.0;"/><path d="M280,1966.3164 L290,1966.3164 C305,1966.3164 305,3781.8906 320,3781.8906 L330,3781.8906 " fill="none" style="stroke:#181818;stroke-width:1.0;"/><path d="M143,1938.168 L153,1938.168 C168,1938.168 168,1966.3164 183,1966.3164 L193,1966.3164 " fill="none" style="stroke:#181818;stroke-width:1.0;"/><!--SRC=[rLRTJzim47_FNt6FRLNG1jiqyKI1RWnQqIs5zwjpRJqIEzYNil3Nxvoaj7HCsgHcqjvy7xxVdNrVfvxHSQPDac4UzU026I5cLoWk7FceruERsNTIh5VaJ-3M9EJaYac0bmGpz5f14kxuvplGIBM3tDcS76lo_OgB1jFoYHefpUTQQJAg16s0oMKUx1nyZefg8pgZuC6vDKo6WpSz6AQK2O6kt0KEuXuCdCEoFaiuDDT6ixQcOTo8FnZejKPSeIcRvIdzq5msxAb0xt9XfCqz9P1gp-q0n8pglXtJNmigg1tJ5_HG45MVSub-2OopTFqR5zf9yXnWaiW7-MtHlhtOWeP7pKjGInJpPj4UshmmQjl0VY46eLYyhkjfKoj_RGdEj0dLuWcTaYTojFwSHZ0L3dG6ruCr8wurAxvrS1PFkwr4M06mmvNq54pRUSLVWrztfR8LlCrbi0PcltdwlKU9AHeblUbV0UujEITEMoS4F6mQ55mIvktu_H8ExAwj_Q9z2MGrhVw3DX4NMIQvq_JjdPbktGADVghdicVhg9w-SxkPumoeLEZoGIUpYHOsFeS9mpyPzo21w2otJdOC3de9URq8RNnhWGZKgxF_cag9IWeXPrbMiDe4-ZAlDsExBtV2ZEqt-TQ7vMPkz5yhdxxqYvSfUagoBJKRKpIHmkFRyGX24vDOuUtXqPkZuyFZ6J6-xzoQUsCVJVNMEgKgncxK-JmPWRU5ayWJSSlfMH4UgXjTuGhXMs62tWa4gZCTTo4UhfamD2ljh0bP5LtTZMibkBGSvvOhvG_l3iuqInTtuXFSZID9E2nIbgjAViKiP8-RVZhu68tGB0fS212PwDmAW2j55ly4]--></g></svg>