<?xml version="1.0" encoding="windows-1252" standalone="no"?>
<svg xmlns="http://www.w3.org/2000/svg" xmlns:xlink="http://www.w3.org/1999/xlink" contentStyleType="text/css" height="2048px" preserveAspectRatio="none" style="width:949px;height:2048px;background:#FFFFFF;" version="1.1" viewBox="0 0 949 2048" width="949px" zoomAndPan="magnify"><script xmlns=""/><defs/><g><rect fill="#F1F1F1" height="36.2969" rx="7.5" ry="7.5" style="stroke:#181818;stroke-width:1.5;" width="207" x="10" y="1005.1953"/><text fill="#000000" font-family="sans-serif" font-size="14" lengthAdjust="spacing" textLength="187" x="20" y="1028.1904">Advanced Data Structures</text><rect fill="#F1F1F1" height="36.2969" rx="7.5" ry="7.5" style="stroke:#181818;stroke-width:1.5;" width="108" x="267" y="20"/><text fill="#000000" font-family="sans-serif" font-size="14" lengthAdjust="spacing" textLength="88" x="277" y="42.9951">Bloom Filter</text><path d="M217,1023.3438 L227,1023.3438 C242,1023.3438 242,38.1484 257,38.1484 L267,38.1484 " fill="none" style="stroke:#181818;stroke-width:1.0;"/><rect fill="#F1F1F1" height="36.2969" rx="7.5" ry="7.5" style="stroke:#181818;stroke-width:1.5;" width="95" x="267" y="76.2969"/><text fill="#000000" font-family="sans-serif" font-size="14" lengthAdjust="spacing" textLength="75" x="277" y="99.292">LRU Cache</text><path d="M217,1023.3438 L227,1023.3438 C242,1023.3438 242,94.4453 257,94.4453 L267,94.4453 " fill="none" style="stroke:#181818;stroke-width:1.0;"/><rect fill="#F1F1F1" height="36.2969" rx="7.5" ry="7.5" style="stroke:#181818;stroke-width:1.5;" width="48" x="267" y="132.5938"/><text fill="#000000" font-family="sans-serif" font-size="14" lengthAdjust="spacing" textLength="28" x="277" y="155.5889">Trie</text><path d="M217,1023.3438 L227,1023.3438 C242,1023.3438 242,150.7422 257,150.7422 L267,150.7422 " fill="none" style="stroke:#181818;stroke-width:1.0;"/><rect fill="#F1F1F1" height="36.2969" rx="7.5" ry="7.5" style="stroke:#181818;stroke-width:1.5;" width="130" x="267" y="188.8906"/><text fill="#000000" font-family="sans-serif" font-size="14" lengthAdjust="spacing" textLength="110" x="277" y="211.8857">Red-Black Tree</text><path d="M217,1023.3438 L227,1023.3438 C242,1023.3438 242,207.0391 257,207.0391 L267,207.0391 " fill="none" style="stroke:#181818;stroke-width:1.0;"/><rect fill="#F1F1F1" height="36.2969" rx="7.5" ry="7.5" style="stroke:#181818;stroke-width:1.5;" width="76" x="267" y="301.4844"/><text fill="#000000" font-family="sans-serif" font-size="14" lengthAdjust="spacing" textLength="56" x="277" y="324.4795">B-Trees</text><rect fill="#F1F1F1" height="36.2969" rx="7.5" ry="7.5" style="stroke:#181818;stroke-width:1.5;" width="202" x="393" y="245.1875"/><text fill="#000000" font-family="sans-serif" font-size="14" lengthAdjust="spacing" textLength="182" x="403" y="268.1826">Definition and Properties</text><path d="M343,319.6328 L353,319.6328 C368,319.6328 368,263.3359 383,263.3359 L393,263.3359 " fill="none" style="stroke:#181818;stroke-width:1.0;"/><rect fill="#F1F1F1" height="36.2969" rx="7.5" ry="7.5" style="stroke:#181818;stroke-width:1.5;" width="180" x="393" y="301.4844"/><text fill="#000000" font-family="sans-serif" font-size="14" lengthAdjust="spacing" textLength="160" x="403" y="324.4795">Insertion and Deletion</text><path d="M343,319.6328 L353,319.6328 C368,319.6328 368,319.6328 383,319.6328 L393,319.6328 " fill="none" style="stroke:#181818;stroke-width:1.0;"/><rect fill="#F1F1F1" height="36.2969" rx="7.5" ry="7.5" style="stroke:#181818;stroke-width:1.5;" width="91" x="393" y="357.7813"/><text fill="#000000" font-family="sans-serif" font-size="14" lengthAdjust="spacing" textLength="71" x="403" y="380.7764">Searching</text><path d="M343,319.6328 L353,319.6328 C368,319.6328 368,375.9297 383,375.9297 L393,375.9297 " fill="none" style="stroke:#181818;stroke-width:1.0;"/><path d="M217,1023.3438 L227,1023.3438 C242,1023.3438 242,319.6328 257,319.6328 L267,319.6328 " fill="none" style="stroke:#181818;stroke-width:1.0;"/><rect fill="#F1F1F1" height="36.2969" rx="7.5" ry="7.5" style="stroke:#181818;stroke-width:1.5;" width="225" x="267" y="554.8203"/><text fill="#000000" font-family="sans-serif" font-size="14" lengthAdjust="spacing" textLength="205" x="277" y="577.8154">Augmenting Data Structures</text><rect fill="#F1F1F1" height="36.2969" rx="7.5" ry="7.5" style="stroke:#181818;stroke-width:1.5;" width="119" x="542" y="414.0781"/><text fill="#000000" font-family="sans-serif" font-size="14" lengthAdjust="spacing" textLength="99" x="552" y="437.0732">Interval Trees</text><path d="M492,572.9688 L502,572.9688 C517,572.9688 517,432.2266 532,432.2266 L542,432.2266 " fill="none" style="stroke:#181818;stroke-width:1.0;"/><rect fill="#F1F1F1" height="36.2969" rx="7.5" ry="7.5" style="stroke:#181818;stroke-width:1.5;" width="177" x="542" y="470.375"/><text fill="#000000" font-family="sans-serif" font-size="14" lengthAdjust="spacing" textLength="157" x="552" y="493.3701">Order Statistics Trees</text><path d="M492,572.9688 L502,572.9688 C517,572.9688 517,488.5234 532,488.5234 L542,488.5234 " fill="none" style="stroke:#181818;stroke-width:1.0;"/><rect fill="#F1F1F1" height="36.2969" rx="7.5" ry="7.5" style="stroke:#181818;stroke-width:1.5;" width="174" x="542" y="526.6719"/><text fill="#000000" font-family="sans-serif" font-size="14" lengthAdjust="spacing" textLength="154" x="552" y="549.667">Van Emde Boas Trees</text><path d="M492,572.9688 L502,572.9688 C517,572.9688 517,544.8203 532,544.8203 L542,544.8203 " fill="none" style="stroke:#181818;stroke-width:1.0;"/><rect fill="#F1F1F1" height="36.2969" rx="7.5" ry="7.5" style="stroke:#181818;stroke-width:1.5;" width="136" x="542" y="582.9688"/><text fill="#000000" font-family="sans-serif" font-size="14" lengthAdjust="spacing" textLength="116" x="552" y="605.9639">Fibonacci Heaps</text><path d="M492,572.9688 L502,572.9688 C517,572.9688 517,601.1172 532,601.1172 L542,601.1172 " fill="none" style="stroke:#181818;stroke-width:1.0;"/><rect fill="#F1F1F1" height="36.2969" rx="7.5" ry="7.5" style="stroke:#181818;stroke-width:1.5;" width="133" x="542" y="639.2656"/><text fill="#000000" font-family="sans-serif" font-size="14" lengthAdjust="spacing" textLength="113" x="552" y="662.2607">Dynamic Tables</text><path d="M492,572.9688 L502,572.9688 C517,572.9688 517,657.4141 532,657.4141 L542,657.4141 " fill="none" style="stroke:#181818;stroke-width:1.0;"/><rect fill="#F1F1F1" height="36.2969" rx="7.5" ry="7.5" style="stroke:#181818;stroke-width:1.5;" width="148" x="542" y="695.5625"/><text fill="#000000" font-family="sans-serif" font-size="14" lengthAdjust="spacing" textLength="128" x="552" y="718.5576">Disjoint Set Union</text><path d="M492,572.9688 L502,572.9688 C517,572.9688 517,713.7109 532,713.7109 L542,713.7109 " fill="none" style="stroke:#181818;stroke-width:1.0;"/><path d="M217,1023.3438 L227,1023.3438 C242,1023.3438 242,572.9688 257,572.9688 L267,572.9688 " fill="none" style="stroke:#181818;stroke-width:1.0;"/><rect fill="#F1F1F1" height="36.2969" rx="7.5" ry="7.5" style="stroke:#181818;stroke-width:1.5;" width="253" x="267" y="836.3047"/><text fill="#000000" font-family="sans-serif" font-size="14" lengthAdjust="spacing" textLength="233" x="277" y="859.2998">Data Structures for Disjoint Sets</text><rect fill="#F1F1F1" height="36.2969" rx="7.5" ry="7.5" style="stroke:#181818;stroke-width:1.5;" width="188" x="570" y="751.8594"/><text fill="#000000" font-family="sans-serif" font-size="14" lengthAdjust="spacing" textLength="168" x="580" y="774.8545">Disjoint Set Operations</text><path d="M520,854.4531 L530,854.4531 C545,854.4531 545,770.0078 560,770.0078 L570,770.0078 " fill="none" style="stroke:#181818;stroke-width:1.0;"/><rect fill="#F1F1F1" height="36.2969" rx="7.5" ry="7.5" style="stroke:#181818;stroke-width:1.5;" width="217" x="570" y="808.1563"/><text fill="#000000" font-family="sans-serif" font-size="14" lengthAdjust="spacing" textLength="197" x="580" y="831.1514">Linked-List Representation</text><path d="M520,854.4531 L530,854.4531 C545,854.4531 545,826.3047 560,826.3047 L570,826.3047 " fill="none" style="stroke:#181818;stroke-width:1.0;"/><rect fill="#F1F1F1" height="36.2969" rx="7.5" ry="7.5" style="stroke:#181818;stroke-width:1.5;" width="287" x="570" y="864.4531"/><text fill="#000000" font-family="sans-serif" font-size="14" lengthAdjust="spacing" textLength="267" x="580" y="887.4482">Union by Rank and Path Compression</text><path d="M520,854.4531 L530,854.4531 C545,854.4531 545,882.6016 560,882.6016 L570,882.6016 " fill="none" style="stroke:#181818;stroke-width:1.0;"/><rect fill="#F1F1F1" height="36.2969" rx="7.5" ry="7.5" style="stroke:#181818;stroke-width:1.5;" width="367" x="570" y="920.75"/><text fill="#000000" font-family="sans-serif" font-size="14" lengthAdjust="spacing" textLength="347" x="580" y="943.7451">Analysis of Union by Rank and Path Compression</text><path d="M520,854.4531 L530,854.4531 C545,854.4531 545,938.8984 560,938.8984 L570,938.8984 " fill="none" style="stroke:#181818;stroke-width:1.0;"/><path d="M217,1023.3438 L227,1023.3438 C242,1023.3438 242,854.4531 257,854.4531 L267,854.4531 " fill="none" style="stroke:#181818;stroke-width:1.0;"/><rect fill="#F1F1F1" height="36.2969" rx="7.5" ry="7.5" style="stroke:#181818;stroke-width:1.5;" width="103" x="267" y="1033.3438"/><text fill="#000000" font-family="sans-serif" font-size="14" lengthAdjust="spacing" textLength="83" x="277" y="1056.3389">Splay Trees</text><rect fill="#F1F1F1" height="36.2969" rx="7.5" ry="7.5" style="stroke:#181818;stroke-width:1.5;" width="202" x="420" y="977.0469"/><text fill="#000000" font-family="sans-serif" font-size="14" lengthAdjust="spacing" textLength="182" x="430" y="1000.042">Definition and Properties</text><path d="M370,1051.4922 L380,1051.4922 C395,1051.4922 395,995.1953 410,995.1953 L420,995.1953 " fill="none" style="stroke:#181818;stroke-width:1.0;"/><rect fill="#F1F1F1" height="36.2969" rx="7.5" ry="7.5" style="stroke:#181818;stroke-width:1.5;" width="90" x="420" y="1033.3438"/><text fill="#000000" font-family="sans-serif" font-size="14" lengthAdjust="spacing" textLength="70" x="430" y="1056.3389">Rotations</text><path d="M370,1051.4922 L380,1051.4922 C395,1051.4922 395,1051.4922 410,1051.4922 L420,1051.4922 " fill="none" style="stroke:#181818;stroke-width:1.0;"/><rect fill="#F1F1F1" height="36.2969" rx="7.5" ry="7.5" style="stroke:#181818;stroke-width:1.5;" width="100" x="420" y="1089.6406"/><text fill="#000000" font-family="sans-serif" font-size="14" lengthAdjust="spacing" textLength="80" x="430" y="1112.6357">Operations</text><path d="M370,1051.4922 L380,1051.4922 C395,1051.4922 395,1107.7891 410,1107.7891 L420,1107.7891 " fill="none" style="stroke:#181818;stroke-width:1.0;"/><path d="M217,1023.3438 L227,1023.3438 C242,1023.3438 242,1051.4922 257,1051.4922 L267,1051.4922 " fill="none" style="stroke:#181818;stroke-width:1.0;"/><rect fill="#F1F1F1" height="36.2969" rx="7.5" ry="7.5" style="stroke:#181818;stroke-width:1.5;" width="89" x="267" y="1202.2344"/><text fill="#000000" font-family="sans-serif" font-size="14" lengthAdjust="spacing" textLength="69" x="277" y="1225.2295">Skip Lists</text><rect fill="#F1F1F1" height="36.2969" rx="7.5" ry="7.5" style="stroke:#181818;stroke-width:1.5;" width="202" x="406" y="1145.9375"/><text fill="#000000" font-family="sans-serif" font-size="14" lengthAdjust="spacing" textLength="182" x="416" y="1168.9326">Definition and Properties</text><path d="M356,1220.3828 L366,1220.3828 C381,1220.3828 381,1164.0859 396,1164.0859 L406,1164.0859 " fill="none" style="stroke:#181818;stroke-width:1.0;"/><rect fill="#F1F1F1" height="36.2969" rx="7.5" ry="7.5" style="stroke:#181818;stroke-width:1.5;" width="91" x="406" y="1202.2344"/><text fill="#000000" font-family="sans-serif" font-size="14" lengthAdjust="spacing" textLength="71" x="416" y="1225.2295">Searching</text><path d="M356,1220.3828 L366,1220.3828 C381,1220.3828 381,1220.3828 396,1220.3828 L406,1220.3828 " fill="none" style="stroke:#181818;stroke-width:1.0;"/><rect fill="#F1F1F1" height="36.2969" rx="7.5" ry="7.5" style="stroke:#181818;stroke-width:1.5;" width="180" x="406" y="1258.5313"/><text fill="#000000" font-family="sans-serif" font-size="14" lengthAdjust="spacing" textLength="160" x="416" y="1281.5264">Insertion and Deletion</text><path d="M356,1220.3828 L366,1220.3828 C381,1220.3828 381,1276.6797 396,1276.6797 L406,1276.6797 " fill="none" style="stroke:#181818;stroke-width:1.0;"/><path d="M217,1023.3438 L227,1023.3438 C242,1023.3438 242,1220.3828 257,1220.3828 L267,1220.3828 " fill="none" style="stroke:#181818;stroke-width:1.0;"/><rect fill="#F1F1F1" height="36.2969" rx="7.5" ry="7.5" style="stroke:#181818;stroke-width:1.5;" width="105" x="267" y="1399.2734"/><text fill="#000000" font-family="sans-serif" font-size="14" lengthAdjust="spacing" textLength="85" x="277" y="1422.2686">Hash Tables</text><rect fill="#F1F1F1" height="36.2969" rx="7.5" ry="7.5" style="stroke:#181818;stroke-width:1.5;" width="177" x="422" y="1314.8281"/><text fill="#000000" font-family="sans-serif" font-size="14" lengthAdjust="spacing" textLength="157" x="432" y="1337.8232">Direct Address Tables</text><path d="M372,1417.4219 L382,1417.4219 C397,1417.4219 397,1332.9766 412,1332.9766 L422,1332.9766 " fill="none" style="stroke:#181818;stroke-width:1.0;"/><rect fill="#F1F1F1" height="36.2969" rx="7.5" ry="7.5" style="stroke:#181818;stroke-width:1.5;" width="127" x="422" y="1371.125"/><text fill="#000000" font-family="sans-serif" font-size="14" lengthAdjust="spacing" textLength="107" x="432" y="1394.1201">Hash Functions</text><path d="M372,1417.4219 L382,1417.4219 C397,1417.4219 397,1389.2734 412,1389.2734 L422,1389.2734 " fill="none" style="stroke:#181818;stroke-width:1.0;"/><rect fill="#F1F1F1" height="36.2969" rx="7.5" ry="7.5" style="stroke:#181818;stroke-width:1.5;" width="160" x="422" y="1427.4219"/><text fill="#000000" font-family="sans-serif" font-size="14" lengthAdjust="spacing" textLength="140" x="432" y="1450.417">Collision Resolution</text><path d="M372,1417.4219 L382,1417.4219 C397,1417.4219 397,1445.5703 412,1445.5703 L422,1445.5703 " fill="none" style="stroke:#181818;stroke-width:1.0;"/><rect fill="#F1F1F1" height="36.2969" rx="7.5" ry="7.5" style="stroke:#181818;stroke-width:1.5;" width="134" x="422" y="1483.7188"/><text fill="#000000" font-family="sans-serif" font-size="14" lengthAdjust="spacing" textLength="114" x="432" y="1506.7139">Perfect Hashing</text><path d="M372,1417.4219 L382,1417.4219 C397,1417.4219 397,1501.8672 412,1501.8672 L422,1501.8672 " fill="none" style="stroke:#181818;stroke-width:1.0;"/><path d="M217,1023.3438 L227,1023.3438 C242,1023.3438 242,1417.4219 257,1417.4219 L267,1417.4219 " fill="none" style="stroke:#181818;stroke-width:1.0;"/><rect fill="#F1F1F1" height="36.2969" rx="7.5" ry="7.5" style="stroke:#181818;stroke-width:1.5;" width="113" x="267" y="1596.3125"/><text fill="#000000" font-family="sans-serif" font-size="14" lengthAdjust="spacing" textLength="93" x="277" y="1619.3076">Binary Heaps</text><rect fill="#F1F1F1" height="36.2969" rx="7.5" ry="7.5" style="stroke:#181818;stroke-width:1.5;" width="202" x="430" y="1540.0156"/><text fill="#000000" font-family="sans-serif" font-size="14" lengthAdjust="spacing" textLength="182" x="440" y="1563.0107">Definition and Properties</text><path d="M380,1614.4609 L390,1614.4609 C405,1614.4609 405,1558.1641 420,1558.1641 L430,1558.1641 " fill="none" style="stroke:#181818;stroke-width:1.0;"/><rect fill="#F1F1F1" height="36.2969" rx="7.5" ry="7.5" style="stroke:#181818;stroke-width:1.5;" width="180" x="430" y="1596.3125"/><text fill="#000000" font-family="sans-serif" font-size="14" lengthAdjust="spacing" textLength="160" x="440" y="1619.3076">Insertion and Deletion</text><path d="M380,1614.4609 L390,1614.4609 C405,1614.4609 405,1614.4609 420,1614.4609 L430,1614.4609 " fill="none" style="stroke:#181818;stroke-width:1.0;"/><rect fill="#F1F1F1" height="36.2969" rx="7.5" ry="7.5" style="stroke:#181818;stroke-width:1.5;" width="141" x="430" y="1652.6094"/><text fill="#000000" font-family="sans-serif" font-size="14" lengthAdjust="spacing" textLength="121" x="440" y="1675.6045">Heap Operations</text><path d="M380,1614.4609 L390,1614.4609 C405,1614.4609 405,1670.7578 420,1670.7578 L430,1670.7578 " fill="none" style="stroke:#181818;stroke-width:1.0;"/><path d="M217,1023.3438 L227,1023.3438 C242,1023.3438 242,1614.4609 257,1614.4609 L267,1614.4609 " fill="none" style="stroke:#181818;stroke-width:1.0;"/><rect fill="#F1F1F1" height="36.2969" rx="7.5" ry="7.5" style="stroke:#181818;stroke-width:1.5;" width="69" x="267" y="1765.2031"/><text fill="#000000" font-family="sans-serif" font-size="14" lengthAdjust="spacing" textLength="49" x="277" y="1788.1982">Treaps</text><rect fill="#F1F1F1" height="36.2969" rx="7.5" ry="7.5" style="stroke:#181818;stroke-width:1.5;" width="202" x="386" y="1708.9063"/><text fill="#000000" font-family="sans-serif" font-size="14" lengthAdjust="spacing" textLength="182" x="396" y="1731.9014">Definition and Properties</text><path d="M336,1783.3516 L346,1783.3516 C361,1783.3516 361,1727.0547 376,1727.0547 L386,1727.0547 " fill="none" style="stroke:#181818;stroke-width:1.0;"/><rect fill="#F1F1F1" height="36.2969" rx="7.5" ry="7.5" style="stroke:#181818;stroke-width:1.5;" width="206" x="386" y="1765.2031"/><text fill="#000000" font-family="sans-serif" font-size="14" lengthAdjust="spacing" textLength="186" x="396" y="1788.1982">Randomized Search Trees</text><path d="M336,1783.3516 L346,1783.3516 C361,1783.3516 361,1783.3516 376,1783.3516 L386,1783.3516 " fill="none" style="stroke:#181818;stroke-width:1.0;"/><rect fill="#F1F1F1" height="36.2969" rx="7.5" ry="7.5" style="stroke:#181818;stroke-width:1.5;" width="180" x="386" y="1821.5"/><text fill="#000000" font-family="sans-serif" font-size="14" lengthAdjust="spacing" textLength="160" x="396" y="1844.4951">Insertion and Deletion</text><path d="M336,1783.3516 L346,1783.3516 C361,1783.3516 361,1839.6484 376,1839.6484 L386,1839.6484 " fill="none" style="stroke:#181818;stroke-width:1.0;"/><path d="M217,1023.3438 L227,1023.3438 C242,1023.3438 242,1783.3516 257,1783.3516 L267,1783.3516 " fill="none" style="stroke:#181818;stroke-width:1.0;"/><rect fill="#F1F1F1" height="36.2969" rx="7.5" ry="7.5" style="stroke:#181818;stroke-width:1.5;" width="117" x="267" y="1934.0938"/><text fill="#000000" font-family="sans-serif" font-size="14" lengthAdjust="spacing" textLength="97" x="277" y="1957.0889">Pairing Heaps</text><rect fill="#F1F1F1" height="36.2969" rx="7.5" ry="7.5" style="stroke:#181818;stroke-width:1.5;" width="202" x="434" y="1877.7969"/><text fill="#000000" font-family="sans-serif" font-size="14" lengthAdjust="spacing" textLength="182" x="444" y="1900.792">Definition and Properties</text><path d="M384,1952.2422 L394,1952.2422 C409,1952.2422 409,1895.9453 424,1895.9453 L434,1895.9453 " fill="none" style="stroke:#181818;stroke-width:1.0;"/><rect fill="#F1F1F1" height="36.2969" rx="7.5" ry="7.5" style="stroke:#181818;stroke-width:1.5;" width="225" x="434" y="1934.0938"/><text fill="#000000" font-family="sans-serif" font-size="14" lengthAdjust="spacing" textLength="205" x="444" y="1957.0889">Merge and Insert Operations</text><path d="M384,1952.2422 L394,1952.2422 C409,1952.2422 409,1952.2422 424,1952.2422 L434,1952.2422 " fill="none" style="stroke:#181818;stroke-width:1.0;"/><rect fill="#F1F1F1" height="36.2969" rx="7.5" ry="7.5" style="stroke:#181818;stroke-width:1.5;" width="177" x="434" y="1990.3906"/><text fill="#000000" font-family="sans-serif" font-size="14" lengthAdjust="spacing" textLength="157" x="444" y="2013.3857">Delete-Min Operation</text><path d="M384,1952.2422 L394,1952.2422 C409,1952.2422 409,2008.5391 424,2008.5391 L434,2008.5391 " fill="none" style="stroke:#181818;stroke-width:1.0;"/><path d="M217,1023.3438 L227,1023.3438 C242,1023.3438 242,1952.2422 257,1952.2422 L267,1952.2422 " fill="none" style="stroke:#181818;stroke-width:1.0;"/><!--SRC=[dLHDRnen4BtxLymnGI9gagQgSWgGq3G21R70VV0ECCKxNjbUekslhxr0iaa_X7hQ7R_nyvitOz_vW2uKB7c1fL9-orAYmmBy1dFxmhA65HfFBSJPId9jdP23oviMO5Wer2M1TM5ZbUf0Bz-XQChX7WD25bobG-N8gqu7-iRQ0ePi0haKZwPp6A3UK0fcZfllbF9ktw3UnXLgLlhTz9SOEd1FAnOER0LGSfWuMv8BV42_Yq_H0RmdGobee8pGwKqiBZ7sgdL14bAflyjCD57W3WsydVliybXx5Z2m3wnz2rgWm4EH4_GjjjU7lBI2MZCy4fO7-RLWmHfck3J7YjZ_i2mXAWmmbxtUZx9WPTsxp3_iVOvEOAftZurOjj7AKTGRFIqZIQmON_reJe9b3LEKxTvB31iOs2Ab-cDQJz3KdZtOrMbR82iDrd1gnwOsj3I_Am6oBPUGz9z2rExlFmO17j5ltjllI8SujdcgeOqqcSDAz9k-WJM6Kw7HKMzDzUhcXDmgqQGzXndhiw2hsxt_tz5D51-iYVQUHXjRbTk2VyOBkNUerPc_cpH1Tkbod2f-J6vD3R3d_3YB3JTrnonlY59t59-WupCqCIXXFXx1ZbpZyEN5rQUhwulh9GMyEPlBLkoBW8x3neOWS47dwkpRP0JULauJv75G72-Rdfoh9zmXJ2j9URUGehFP-1ooX-CYFCYEdPNq3gYdnNYV18ysPAKDJVANpzq-fxlbeYPOZ5Kq0IiJubPjy-ZFBSndm-vNDK9PLxYE1v6eGNmhWwiZblq2]--></g></svg>