<?xml version="1.0" encoding="windows-1252" standalone="no"?>
<svg xmlns="http://www.w3.org/2000/svg" xmlns:xlink="http://www.w3.org/1999/xlink" contentStyleType="text/css" height="1260px" preserveAspectRatio="none" style="width:768px;height:1260px;background:#FFFFFF;" version="1.1" viewBox="0 0 768 1260" width="768px" zoomAndPan="magnify"><script xmlns=""/><defs/><g><rect fill="#F1F1F1" height="36.2969" rx="7.5" ry="7.5" style="stroke:#181818;stroke-width:1.5;" width="147" x="10" y="611.1172"/><text fill="#000000" font-family="sans-serif" font-size="14" lengthAdjust="spacing" textLength="127" x="20" y="634.1123">Graph Algorithms</text><rect fill="#F1F1F1" height="36.2969" rx="7.5" ry="7.5" style="stroke:#181818;stroke-width:1.5;" width="188" x="207" y="132.5938"/><text fill="#000000" font-family="sans-serif" font-size="14" lengthAdjust="spacing" textLength="168" x="217" y="155.5889">Basic Graph Algorithms</text><rect fill="#F1F1F1" height="36.2969" rx="7.5" ry="7.5" style="stroke:#181818;stroke-width:1.5;" width="210" x="445" y="20"/><text fill="#000000" font-family="sans-serif" font-size="14" lengthAdjust="spacing" textLength="190" x="455" y="42.9951">Breadth-First Search (BFS)</text><path d="M395,150.7422 L405,150.7422 C420,150.7422 420,38.1484 435,38.1484 L445,38.1484 " fill="none" style="stroke:#181818;stroke-width:1.0;"/><rect fill="#F1F1F1" height="36.2969" rx="7.5" ry="7.5" style="stroke:#181818;stroke-width:1.5;" width="199" x="445" y="76.2969"/><text fill="#000000" font-family="sans-serif" font-size="14" lengthAdjust="spacing" textLength="179" x="455" y="99.292">Depth-First Search (DFS)</text><path d="M395,150.7422 L405,150.7422 C420,150.7422 420,94.4453 435,94.4453 L445,94.4453 " fill="none" style="stroke:#181818;stroke-width:1.0;"/><rect fill="#F1F1F1" height="36.2969" rx="7.5" ry="7.5" style="stroke:#181818;stroke-width:1.5;" width="138" x="445" y="132.5938"/><text fill="#000000" font-family="sans-serif" font-size="14" lengthAdjust="spacing" textLength="118" x="455" y="155.5889">Topological Sort</text><path d="M395,150.7422 L405,150.7422 C420,150.7422 420,150.7422 435,150.7422 L445,150.7422 " fill="none" style="stroke:#181818;stroke-width:1.0;"/><rect fill="#F1F1F1" height="36.2969" rx="7.5" ry="7.5" style="stroke:#181818;stroke-width:1.5;" width="196" x="445" y="188.8906"/><text fill="#000000" font-family="sans-serif" font-size="14" lengthAdjust="spacing" textLength="176" x="455" y="211.8857">Connected Components</text><path d="M395,150.7422 L405,150.7422 C420,150.7422 420,207.0391 435,207.0391 L445,207.0391 " fill="none" style="stroke:#181818;stroke-width:1.0;"/><rect fill="#F1F1F1" height="36.2969" rx="7.5" ry="7.5" style="stroke:#181818;stroke-width:1.5;" width="304" x="445" y="245.1875"/><text fill="#000000" font-family="sans-serif" font-size="14" lengthAdjust="spacing" textLength="284" x="455" y="268.1826">Strongly Connected Components (SCC)</text><path d="M395,150.7422 L405,150.7422 C420,150.7422 420,263.3359 435,263.3359 L445,263.3359 " fill="none" style="stroke:#181818;stroke-width:1.0;"/><path d="M157,629.2656 L167,629.2656 C182,629.2656 182,150.7422 197,150.7422 L207,150.7422 " fill="none" style="stroke:#181818;stroke-width:1.0;"/><rect fill="#F1F1F1" height="36.2969" rx="7.5" ry="7.5" style="stroke:#181818;stroke-width:1.5;" width="200" x="207" y="357.7813"/><text fill="#000000" font-family="sans-serif" font-size="14" lengthAdjust="spacing" textLength="180" x="217" y="380.7764">Minimum Spanning Trees</text><rect fill="#F1F1F1" height="36.2969" rx="7.5" ry="7.5" style="stroke:#181818;stroke-width:1.5;" width="159" x="457" y="301.4844"/><text fill="#000000" font-family="sans-serif" font-size="14" lengthAdjust="spacing" textLength="139" x="467" y="324.4795">Kruskal's Algorithm</text><path d="M407,375.9297 L417,375.9297 C432,375.9297 432,319.6328 447,319.6328 L457,319.6328 " fill="none" style="stroke:#181818;stroke-width:1.0;"/><rect fill="#F1F1F1" height="36.2969" rx="7.5" ry="7.5" style="stroke:#181818;stroke-width:1.5;" width="140" x="457" y="357.7813"/><text fill="#000000" font-family="sans-serif" font-size="14" lengthAdjust="spacing" textLength="120" x="467" y="380.7764">Prim's Algorithm</text><path d="M407,375.9297 L417,375.9297 C432,375.9297 432,375.9297 447,375.9297 L457,375.9297 " fill="none" style="stroke:#181818;stroke-width:1.0;"/><rect fill="#F1F1F1" height="36.2969" rx="7.5" ry="7.5" style="stroke:#181818;stroke-width:1.5;" width="209" x="457" y="414.0781"/><text fill="#000000" font-family="sans-serif" font-size="14" lengthAdjust="spacing" textLength="189" x="467" y="437.0732">Reverse-Delete Algorithm</text><path d="M407,375.9297 L417,375.9297 C432,375.9297 432,432.2266 447,432.2266 L457,432.2266 " fill="none" style="stroke:#181818;stroke-width:1.0;"/><path d="M157,629.2656 L167,629.2656 C182,629.2656 182,375.9297 197,375.9297 L207,375.9297 " fill="none" style="stroke:#181818;stroke-width:1.0;"/><rect fill="#F1F1F1" height="36.2969" rx="7.5" ry="7.5" style="stroke:#181818;stroke-width:1.5;" width="230" x="207" y="554.8203"/><text fill="#000000" font-family="sans-serif" font-size="14" lengthAdjust="spacing" textLength="210" x="217" y="577.8154">Single-Source Shortest Paths</text><rect fill="#F1F1F1" height="36.2969" rx="7.5" ry="7.5" style="stroke:#181818;stroke-width:1.5;" width="163" x="487" y="470.375"/><text fill="#000000" font-family="sans-serif" font-size="14" lengthAdjust="spacing" textLength="143" x="497" y="493.3701">Dijkstra's Algorithm</text><path d="M437,572.9688 L447,572.9688 C462,572.9688 462,488.5234 477,488.5234 L487,488.5234 " fill="none" style="stroke:#181818;stroke-width:1.0;"/><rect fill="#F1F1F1" height="36.2969" rx="7.5" ry="7.5" style="stroke:#181818;stroke-width:1.5;" width="192" x="487" y="526.6719"/><text fill="#000000" font-family="sans-serif" font-size="14" lengthAdjust="spacing" textLength="172" x="497" y="549.667">Bellman-Ford Algorithm</text><path d="M437,572.9688 L447,572.9688 C462,572.9688 462,544.8203 477,544.8203 L487,544.8203 " fill="none" style="stroke:#181818;stroke-width:1.0;"/><rect fill="#F1F1F1" height="36.2969" rx="7.5" ry="7.5" style="stroke:#181818;stroke-width:1.5;" width="163" x="487" y="582.9688"/><text fill="#000000" font-family="sans-serif" font-size="14" lengthAdjust="spacing" textLength="143" x="497" y="605.9639">DAG Shortest Paths</text><path d="M437,572.9688 L447,572.9688 C462,572.9688 462,601.1172 477,601.1172 L487,601.1172 " fill="none" style="stroke:#181818;stroke-width:1.0;"/><rect fill="#F1F1F1" height="36.2969" rx="7.5" ry="7.5" style="stroke:#181818;stroke-width:1.5;" width="163" x="487" y="639.2656"/><text fill="#000000" font-family="sans-serif" font-size="14" lengthAdjust="spacing" textLength="143" x="497" y="662.2607">Johnson's Algorithm</text><path d="M437,572.9688 L447,572.9688 C462,572.9688 462,657.4141 477,657.4141 L487,657.4141 " fill="none" style="stroke:#181818;stroke-width:1.0;"/><path d="M157,629.2656 L167,629.2656 C182,629.2656 182,572.9688 197,572.9688 L207,572.9688 " fill="none" style="stroke:#181818;stroke-width:1.0;"/><rect fill="#F1F1F1" height="36.2969" rx="7.5" ry="7.5" style="stroke:#181818;stroke-width:1.5;" width="189" x="207" y="723.7109"/><text fill="#000000" font-family="sans-serif" font-size="14" lengthAdjust="spacing" textLength="169" x="217" y="746.7061">All-Pairs Shortest Paths</text><rect fill="#F1F1F1" height="36.2969" rx="7.5" ry="7.5" style="stroke:#181818;stroke-width:1.5;" width="200" x="446" y="695.5625"/><text fill="#000000" font-family="sans-serif" font-size="14" lengthAdjust="spacing" textLength="180" x="456" y="718.5576">Floyd-Warshall Algorithm</text><path d="M396,741.8594 L406,741.8594 C421,741.8594 421,713.7109 436,713.7109 L446,713.7109 " fill="none" style="stroke:#181818;stroke-width:1.0;"/><rect fill="#F1F1F1" height="36.2969" rx="7.5" ry="7.5" style="stroke:#181818;stroke-width:1.5;" width="163" x="446" y="751.8594"/><text fill="#000000" font-family="sans-serif" font-size="14" lengthAdjust="spacing" textLength="143" x="456" y="774.8545">Johnson's Algorithm</text><path d="M396,741.8594 L406,741.8594 C421,741.8594 421,770.0078 436,770.0078 L446,770.0078 " fill="none" style="stroke:#181818;stroke-width:1.0;"/><path d="M157,629.2656 L167,629.2656 C182,629.2656 182,741.8594 197,741.8594 L207,741.8594 " fill="none" style="stroke:#181818;stroke-width:1.0;"/><rect fill="#F1F1F1" height="36.2969" rx="7.5" ry="7.5" style="stroke:#181818;stroke-width:1.5;" width="124" x="207" y="864.4531"/><text fill="#000000" font-family="sans-serif" font-size="14" lengthAdjust="spacing" textLength="104" x="217" y="887.4482">Maximum Flow</text><rect fill="#F1F1F1" height="36.2969" rx="7.5" ry="7.5" style="stroke:#181818;stroke-width:1.5;" width="203" x="381" y="808.1563"/><text fill="#000000" font-family="sans-serif" font-size="14" lengthAdjust="spacing" textLength="183" x="391" y="831.1514">Ford-Fulkerson Algorithm</text><path d="M331,882.6016 L341,882.6016 C356,882.6016 356,826.3047 371,826.3047 L381,826.3047 " fill="none" style="stroke:#181818;stroke-width:1.0;"/><rect fill="#F1F1F1" height="36.2969" rx="7.5" ry="7.5" style="stroke:#181818;stroke-width:1.5;" width="202" x="381" y="864.4531"/><text fill="#000000" font-family="sans-serif" font-size="14" lengthAdjust="spacing" textLength="182" x="391" y="887.4482">Edmonds-Karp Algorithm</text><path d="M331,882.6016 L341,882.6016 C356,882.6016 356,882.6016 371,882.6016 L381,882.6016 " fill="none" style="stroke:#181818;stroke-width:1.0;"/><rect fill="#F1F1F1" height="36.2969" rx="7.5" ry="7.5" style="stroke:#181818;stroke-width:1.5;" width="143" x="381" y="920.75"/><text fill="#000000" font-family="sans-serif" font-size="14" lengthAdjust="spacing" textLength="123" x="391" y="943.7451">Dinic's Algorithm</text><path d="M331,882.6016 L341,882.6016 C356,882.6016 356,938.8984 371,938.8984 L381,938.8984 " fill="none" style="stroke:#181818;stroke-width:1.0;"/><path d="M157,629.2656 L167,629.2656 C182,629.2656 182,882.6016 197,882.6016 L207,882.6016 " fill="none" style="stroke:#181818;stroke-width:1.0;"/><rect fill="#F1F1F1" height="36.2969" rx="7.5" ry="7.5" style="stroke:#181818;stroke-width:1.5;" width="287" x="207" y="1033.3438"/><text fill="#000000" font-family="sans-serif" font-size="14" lengthAdjust="spacing" textLength="267" x="217" y="1056.3389">Computational Geometry Algorithms</text><rect fill="#F1F1F1" height="36.2969" rx="7.5" ry="7.5" style="stroke:#181818;stroke-width:1.5;" width="110" x="544" y="977.0469"/><text fill="#000000" font-family="sans-serif" font-size="14" lengthAdjust="spacing" textLength="90" x="554" y="1000.042">Convex Hulls</text><path d="M494,1051.4922 L504,1051.4922 C519,1051.4922 519,995.1953 534,995.1953 L544,995.1953 " fill="none" style="stroke:#181818;stroke-width:1.0;"/><rect fill="#F1F1F1" height="36.2969" rx="7.5" ry="7.5" style="stroke:#181818;stroke-width:1.5;" width="212" x="544" y="1033.3438"/><text fill="#000000" font-family="sans-serif" font-size="14" lengthAdjust="spacing" textLength="192" x="554" y="1056.3389">Line Segment Intersection</text><path d="M494,1051.4922 L504,1051.4922 C519,1051.4922 519,1051.4922 534,1051.4922 L544,1051.4922 " fill="none" style="stroke:#181818;stroke-width:1.0;"/><rect fill="#F1F1F1" height="36.2969" rx="7.5" ry="7.5" style="stroke:#181818;stroke-width:1.5;" width="104" x="544" y="1089.6406"/><text fill="#000000" font-family="sans-serif" font-size="14" lengthAdjust="spacing" textLength="84" x="554" y="1112.6357">Closest Pair</text><path d="M494,1051.4922 L504,1051.4922 C519,1051.4922 519,1107.7891 534,1107.7891 L544,1107.7891 " fill="none" style="stroke:#181818;stroke-width:1.0;"/><path d="M157,629.2656 L167,629.2656 C182,629.2656 182,1051.4922 197,1051.4922 L207,1051.4922 " fill="none" style="stroke:#181818;stroke-width:1.0;"/><rect fill="#F1F1F1" height="36.2969" rx="7.5" ry="7.5" style="stroke:#181818;stroke-width:1.5;" width="192" x="207" y="1174.0859"/><text fill="#000000" font-family="sans-serif" font-size="14" lengthAdjust="spacing" textLength="172" x="217" y="1197.0811">Randomized Algorithms</text><rect fill="#F1F1F1" height="36.2969" rx="7.5" ry="7.5" style="stroke:#181818;stroke-width:1.5;" width="207" x="449" y="1145.9375"/><text fill="#000000" font-family="sans-serif" font-size="14" lengthAdjust="spacing" textLength="187" x="459" y="1168.9326">Randomized Minimum Cut</text><path d="M399,1192.2344 L409,1192.2344 C424,1192.2344 424,1164.0859 439,1164.0859 L449,1164.0859 " fill="none" style="stroke:#181818;stroke-width:1.0;"/><rect fill="#F1F1F1" height="36.2969" rx="7.5" ry="7.5" style="stroke:#181818;stroke-width:1.5;" width="164" x="449" y="1202.2344"/><text fill="#000000" font-family="sans-serif" font-size="14" lengthAdjust="spacing" textLength="144" x="459" y="1225.2295">Global Minimum Cut</text><path d="M399,1192.2344 L409,1192.2344 C424,1192.2344 424,1220.3828 439,1220.3828 L449,1220.3828 " fill="none" style="stroke:#181818;stroke-width:1.0;"/><path d="M157,629.2656 L167,629.2656 C182,629.2656 182,1192.2344 197,1192.2344 L207,1192.2344 " fill="none" style="stroke:#181818;stroke-width:1.0;"/><!--SRC=[TLHDJzj04BtxLyoj2P9HWL9Ld2092OL4Yd2Wvy4Ux6rsPwpTTI3zzOnZHKrDUlFEctdpzSRN8QAFpd3Xi4wIi3PSeqS7eS92tWoNy8esq07YfU4Y5y_auUpo0B26AMvh0l6naYGvWPd7ke8RMuetiN8XEJc14GQJ7qCKyeH5hDAfyI52HkZp2WQZQJRSmHEgFu6JFRYIMgoK9aSBcHQmCuw5cV98XNwvMfWuTfcow8LBkptg0ODiF6vPOM7OkCP1LYDpEukL9-eO7dmJrcY_XBzDxEnBRzmduoDjo0TA9sGfqZyWPCfhASsayJb1Lcdjf0qkCLPTfedvlGxHuoVM4LdhaDEf-A87JMvcnwZkfU8Wt6FIXqsNg7Cz5ZEriYtIN-XL4TRsylo7S87lkxbfx5j7eYMcqyQkTGp2FPBRmWaN8Nr0N_Vxq0NaVVPsKqt4Q8HrsJCIHz5l-sBIpMxe7UuQQpl3NEMfkYcTxXX-ScmtahSadRkLq3LkV9la4RaGP_vGqIS-GFRw63UTtcPMNhIaG_CrwMdjpsjfaUFJOWwj73Gpd9sUVps_EBrueOYNWoTUixmnvDgWiGJHE1ecWzbo3g6JHs5K2UQbQSiU9lUuGNXikFMxWlOrM2s6aDtkZN3B6wDARrjExfyNdHFSISngYJldxz_IaMdloMjDyBn89lIAZOqQcakXsho2fzKq_P7CaSi6Iqr4d8pr7w0pLopx0000]--></g></svg>