<?xml version="1.0" encoding="UTF-8" standalone="no"?>
<svg xmlns="http://www.w3.org/2000/svg" xmlns:xlink="http://www.w3.org/1999/xlink" contentStyleType="text/css" height="1378px" preserveAspectRatio="none" style="width:1241px;height:1378px;background:#FFFFFF;" version="1.1" viewBox="0 0 1241 1378" width="1241px" zoomAndPan="magnify"><defs/><g><rect fill="none" height="42.5938" id="_title" style="stroke:none;stroke-width:1.0;" width="412" x="413" y="10"/><text fill="#000000" font-family="sans-serif" font-size="14" font-weight="bold" lengthAdjust="spacing" textLength="402" x="418" y="27.9951">How do we carry out KDDM projects successfully?</text><text fill="#000000" font-family="sans-serif" font-size="14" font-weight="bold" lengthAdjust="spacing" textLength="380" x="429" y="44.292">Knowledge Discovery and Data Mining Process.</text><rect fill="none" height="1013.3828" style="stroke:#000000;stroke-width:1.5;" width="1041.5" x="9" y="267.5547"/><rect fill="none" height="457.9922" style="stroke:#000000;stroke-width:1.5;" width="1021.5" x="19" y="449.4844"/><rect fill="none" height="81.3984" style="stroke:#000000;stroke-width:1.5;" width="760" x="29" y="473.6172"/><rect fill="none" height="75.3984" style="stroke:#000000;stroke-width:1.5;" width="487" x="302" y="753.8125"/><rect fill="none" height="52.2656" style="stroke:#000000;stroke-width:1.5;" width="606.5" x="434" y="956.6094"/><rect fill="none" height="52.2656" style="stroke:#000000;stroke-width:1.5;" width="601.5" x="439" y="1022.875"/><rect fill="none" height="52.2656" style="stroke:#000000;stroke-width:1.5;" width="606.5" x="434" y="1089.1406"/><rect fill="none" height="52.2656" style="stroke:#000000;stroke-width:1.5;" width="601.5" x="439" y="1155.4063"/><rect fill="none" height="52.2656" style="stroke:#000000;stroke-width:1.5;" width="606.5" x="434" y="1221.6719"/><line style="stroke:#181818;stroke-width:0.5;stroke-dasharray:5.0,5.0;" x1="394" x2="394" y1="134.8906" y2="1297.9375"/><line style="stroke:#181818;stroke-width:0.5;stroke-dasharray:5.0,5.0;" x1="633" x2="633" y1="134.8906" y2="1297.9375"/><line style="stroke:#181818;stroke-width:0.5;stroke-dasharray:5.0,5.0;" x1="936.5" x2="936.5" y1="134.8906" y2="1297.9375"/><line style="stroke:#181818;stroke-width:0.5;stroke-dasharray:5.0,5.0;" x1="1010.5" x2="1010.5" y1="134.8906" y2="1297.9375"/><text fill="#000000" font-family="sans-serif" font-size="14" lengthAdjust="spacing" textLength="159" x="312" y="131.5889">Business and Scientist</text><ellipse cx="394.5" cy="67.0938" fill="#E2E2F0" rx="8" ry="8" style="stroke:#181818;stroke-width:0.5;"/><path d="M394.5,75.0938 L394.5,102.0938 M381.5,83.0938 L407.5,83.0938 M394.5,102.0938 L381.5,117.0938 M394.5,102.0938 L407.5,117.0938 " fill="none" style="stroke:#181818;stroke-width:0.5;"/><text fill="#000000" font-family="sans-serif" font-size="14" lengthAdjust="spacing" textLength="159" x="312" y="1309.9326">Business and Scientist</text><ellipse cx="394.5" cy="1321.7344" fill="#E2E2F0" rx="8" ry="8" style="stroke:#181818;stroke-width:0.5;"/><path d="M394.5,1329.7344 L394.5,1356.7344 M381.5,1337.7344 L407.5,1337.7344 M394.5,1356.7344 L381.5,1371.7344 M394.5,1356.7344 L407.5,1371.7344 " fill="none" style="stroke:#181818;stroke-width:0.5;"/><text fill="#000000" font-family="sans-serif" font-size="14" lengthAdjust="spacing" textLength="286" x="487" y="131.5889">Researchers and industrial data analysts</text><ellipse cx="633" cy="67.0938" fill="#E2E2F0" rx="8" ry="8" style="stroke:#181818;stroke-width:0.5;"/><path d="M633,75.0938 L633,102.0938 M620,83.0938 L646,83.0938 M633,102.0938 L620,117.0938 M633,102.0938 L646,117.0938 " fill="none" style="stroke:#181818;stroke-width:0.5;"/><text fill="#000000" font-family="sans-serif" font-size="14" lengthAdjust="spacing" textLength="286" x="487" y="1309.9326">Researchers and industrial data analysts</text><ellipse cx="633" cy="1321.7344" fill="#E2E2F0" rx="8" ry="8" style="stroke:#181818;stroke-width:0.5;"/><path d="M633,1329.7344 L633,1356.7344 M620,1337.7344 L646,1337.7344 M633,1356.7344 L620,1371.7344 M633,1356.7344 L646,1371.7344 " fill="none" style="stroke:#181818;stroke-width:0.5;"/><rect fill="#E2E2F0" height="30.2969" style="stroke:#181818;stroke-width:0.5;" width="83" x="897.5" y="99.5938"/><rect fill="#E2E2F0" height="30.2969" style="stroke:#181818;stroke-width:0.5;" width="83" x="893.5" y="103.5938"/><text fill="#000000" font-family="sans-serif" font-size="14" lengthAdjust="spacing" textLength="69" x="900.5" y="123.5889">XML/JSON</text><rect fill="#E2E2F0" height="30.2969" style="stroke:#181818;stroke-width:0.5;" width="83" x="897.5" y="1296.9375"/><rect fill="#E2E2F0" height="30.2969" style="stroke:#181818;stroke-width:0.5;" width="83" x="893.5" y="1300.9375"/><text fill="#000000" font-family="sans-serif" font-size="14" lengthAdjust="spacing" textLength="69" x="900.5" y="1320.9326">XML/JSON</text><text fill="#000000" font-family="sans-serif" font-size="14" lengthAdjust="spacing" textLength="34" x="990.5" y="131.5889">Data</text><ellipse cx="1010.5" cy="67.0938" fill="#E2E2F0" rx="8" ry="8" style="stroke:#181818;stroke-width:0.5;"/><path d="M1010.5,75.0938 L1010.5,102.0938 M997.5,83.0938 L1023.5,83.0938 M1010.5,102.0938 L997.5,117.0938 M1010.5,102.0938 L1023.5,117.0938 " fill="none" style="stroke:#181818;stroke-width:0.5;"/><text fill="#000000" font-family="sans-serif" font-size="14" lengthAdjust="spacing" textLength="34" x="990.5" y="1309.9326">Data</text><ellipse cx="1010.5" cy="1321.7344" fill="#E2E2F0" rx="8" ry="8" style="stroke:#181818;stroke-width:0.5;"/><path d="M1010.5,1329.7344 L1010.5,1356.7344 M997.5,1337.7344 L1023.5,1337.7344 M1010.5,1356.7344 L997.5,1371.7344 M1010.5,1356.7344 L1023.5,1371.7344 " fill="none" style="stroke:#181818;stroke-width:0.5;"/><path d="M851,149.8906 L851,219.8906 L1023,219.8906 L1023,159.8906 L1013,149.8906 L851,149.8906 " fill="#FEFFDD" style="stroke:#181818;stroke-width:0.5;"/><path d="M1013,149.8906 L1013,159.8906 L1023,159.8906 L1013,149.8906 " fill="#FEFFDD" style="stroke:#181818;stroke-width:0.5;"/><text fill="#000000" font-family="sans-serif" font-size="13" lengthAdjust="spacing" textLength="118" x="857" y="166.9575">Process requires a</text><text fill="#000000" font-family="sans-serif" font-size="13" lengthAdjust="spacing" textLength="122" x="857" y="182.0903">standard plain-text</text><text fill="#000000" font-family="sans-serif" font-size="13" lengthAdjust="spacing" textLength="142" x="857" y="197.2231">format for storing and</text><text fill="#000000" font-family="sans-serif" font-size="13" lengthAdjust="spacing" textLength="151" x="857" y="212.356">exchanging knowledge.</text><path d="M787,230.4219 L787,255.4219 L1234,255.4219 L1234,240.4219 L1224,230.4219 L787,230.4219 " fill="#FEFFDD" style="stroke:#181818;stroke-width:0.5;"/><path d="M1224,230.4219 L1224,240.4219 L1234,240.4219 L1224,230.4219 " fill="#FEFFDD" style="stroke:#181818;stroke-width:0.5;"/><text fill="#000000" font-family="sans-serif" font-size="13" lengthAdjust="spacing" textLength="426" x="793" y="247.4888">Data sources such as relational databases, the internet, and so on</text><path d="M9,267.5547 L413,267.5547 L413,274.6875 L403,284.6875 L9,284.6875 L9,267.5547 " fill="#EEEEEE" style="stroke:#000000;stroke-width:1.5;"/><rect fill="none" height="1013.3828" style="stroke:#000000;stroke-width:1.5;" width="1041.5" x="9" y="267.5547"/><text fill="#000000" font-family="sans-serif" font-size="13" font-weight="bold" lengthAdjust="spacing" textLength="359" x="24" y="280.6216">Knowledge Discovery and Data Mining projects.</text><polygon fill="#181818" points="621,312.3867,631,316.3867,621,320.3867,625,316.3867" style="stroke:#181818;stroke-width:1.0;"/><line style="stroke:#181818;stroke-width:1.0;" x1="394.5" x2="627" y1="316.3867" y2="316.3867"/><text fill="#000000" font-family="sans-serif" font-size="13" lengthAdjust="spacing" textLength="127" x="401.5" y="311.3208">discover knowledge</text><path d="M205,289.6875 L205,329.6875 L389,329.6875 L389,299.6875 L379,289.6875 L205,289.6875 " fill="#FEFFDD" style="stroke:#181818;stroke-width:0.5;"/><path d="M379,289.6875 L379,299.6875 L389,299.6875 L379,289.6875 " fill="#FEFFDD" style="stroke:#181818;stroke-width:0.5;"/><text fill="#000000" font-family="sans-serif" font-size="13" lengthAdjust="spacing" textLength="129" x="211" y="306.7544">Since storing data is</text><text fill="#000000" font-family="sans-serif" font-size="13" lengthAdjust="spacing" textLength="163" x="211" y="321.8872">not enough, they want to</text><line style="stroke:#181818;stroke-width:1.0;" x1="633" x2="675" y1="386.3516" y2="386.3516"/><line style="stroke:#181818;stroke-width:1.0;" x1="675" x2="675" y1="386.3516" y2="399.3516"/><line style="stroke:#181818;stroke-width:1.0;" x1="634" x2="675" y1="399.3516" y2="399.3516"/><polygon fill="#181818" points="644,395.3516,634,399.3516,644,403.3516,640,399.3516" style="stroke:#181818;stroke-width:1.0;"/><text fill="#000000" font-family="sans-serif" font-size="13" lengthAdjust="spacing" textLength="118" x="640" y="351.02">decide to focus on</text><text fill="#000000" font-family="sans-serif" font-size="13" lengthAdjust="spacing" textLength="110" x="640" y="366.1528">human-centric or</text><text fill="#000000" font-family="sans-serif" font-size="13" lengthAdjust="spacing" textLength="81" x="640" y="381.2856">data-centric.</text><path d="M566,412.3516 L566,437.3516 L699,437.3516 L699,422.3516 L689,412.3516 L566,412.3516 " fill="#FEFFDD" style="stroke:#181818;stroke-width:0.5;"/><path d="M689,412.3516 L689,422.3516 L699,422.3516 L689,412.3516 " fill="#FEFFDD" style="stroke:#181818;stroke-width:0.5;"/><text fill="#000000" font-family="sans-serif" font-size="13" lengthAdjust="spacing" textLength="112" x="572" y="429.4185">choose a process</text><path d="M19,449.4844 L121,449.4844 L121,456.6172 L111,466.6172 L19,466.6172 L19,449.4844 " fill="#EEEEEE" style="stroke:#000000;stroke-width:1.5;"/><rect fill="none" height="457.9922" style="stroke:#000000;stroke-width:1.5;" width="1021.5" x="19" y="449.4844"/><text fill="#000000" font-family="sans-serif" font-size="13" font-weight="bold" lengthAdjust="spacing" textLength="57" x="34" y="462.5513">Generic</text><path d="M29,473.6172 L107,473.6172 L107,480.75 L97,490.75 L29,490.75 L29,473.6172 " fill="#EEEEEE" style="stroke:#000000;stroke-width:1.5;"/><rect fill="none" height="81.3984" style="stroke:#000000;stroke-width:1.5;" width="760" x="29" y="473.6172"/><text fill="#000000" font-family="sans-serif" font-size="13" font-weight="bold" lengthAdjust="spacing" textLength="33" x="44" y="486.6841">loop</text><text fill="#000000" font-family="sans-serif" font-size="11" font-weight="bold" lengthAdjust="spacing" textLength="60" x="122" y="485.8276">[n times]</text><polygon fill="#181818" points="405.5,507.8828,395.5,511.8828,405.5,515.8828,401.5,511.8828" style="stroke:#181818;stroke-width:1.0;"/><line style="stroke:#181818;stroke-width:1.0;" x1="399.5" x2="632" y1="511.8828" y2="511.8828"/><text fill="#000000" font-family="sans-serif" font-size="13" lengthAdjust="spacing" textLength="144" x="411.5" y="506.8169">domain understanding</text><polygon fill="#181818" points="621,540.0156,631,544.0156,621,548.0156,625,544.0156" style="stroke:#181818;stroke-width:1.0;"/><line style="stroke:#181818;stroke-width:1.0;" x1="394.5" x2="627" y1="544.0156" y2="544.0156"/><text fill="#000000" font-family="sans-serif" font-size="13" lengthAdjust="spacing" textLength="144" x="401.5" y="538.9497">domain understanding</text><path d="M39,524.8828 L39,549.8828 L389,549.8828 L389,534.8828 L379,524.8828 L39,524.8828 " fill="#FEFFDD" style="stroke:#181818;stroke-width:0.5;"/><path d="M379,524.8828 L379,534.8828 L389,534.8828 L379,524.8828 " fill="#FEFFDD" style="stroke:#181818;stroke-width:0.5;"/><text fill="#000000" font-family="sans-serif" font-size="13" lengthAdjust="spacing" textLength="329" x="45" y="541.9497">identity project goals, key people, and terminology.</text><polygon fill="#181818" points="998.5,582.1484,1008.5,586.1484,998.5,590.1484,1002.5,586.1484" style="stroke:#181818;stroke-width:1.0;"/><line style="stroke:#181818;stroke-width:1.0;" x1="633" x2="1004.5" y1="586.1484" y2="586.1484"/><text fill="#000000" font-family="sans-serif" font-size="13" lengthAdjust="spacing" textLength="73" x="640" y="581.0825">understand</text><path d="M447,567.0156 L447,592.0156 L628,592.0156 L628,577.0156 L618,567.0156 L447,567.0156 " fill="#FEFFDD" style="stroke:#181818;stroke-width:0.5;"/><path d="M618,567.0156 L618,577.0156 L628,577.0156 L618,567.0156 " fill="#FEFFDD" style="stroke:#181818;stroke-width:0.5;"/><text fill="#000000" font-family="sans-serif" font-size="13" lengthAdjust="spacing" textLength="160" x="453" y="584.0825">identify data constraints.</text><polygon fill="#181818" points="998.5,617.2813,1008.5,621.2813,998.5,625.2813,1002.5,621.2813" style="stroke:#181818;stroke-width:1.0;"/><line style="stroke:#181818;stroke-width:1.0;" x1="633" x2="1004.5" y1="621.2813" y2="621.2813"/><text fill="#000000" font-family="sans-serif" font-size="13" lengthAdjust="spacing" textLength="50" x="640" y="616.2153">prepare</text><path d="M536,602.1484 L536,627.1484 L628,627.1484 L628,612.1484 L618,602.1484 L536,602.1484 " fill="#FEFFDD" style="stroke:#181818;stroke-width:0.5;"/><path d="M618,602.1484 L618,612.1484 L628,612.1484 L618,602.1484 " fill="#FEFFDD" style="stroke:#181818;stroke-width:0.5;"/><text fill="#000000" font-family="sans-serif" font-size="13" lengthAdjust="spacing" textLength="71" x="542" y="619.2153">clean data.</text><line style="stroke:#181818;stroke-width:1.0;" x1="633" x2="675" y1="653.4141" y2="653.4141"/><line style="stroke:#181818;stroke-width:1.0;" x1="675" x2="675" y1="653.4141" y2="666.4141"/><line style="stroke:#181818;stroke-width:1.0;" x1="634" x2="675" y1="666.4141" y2="666.4141"/><polygon fill="#181818" points="644,662.4141,634,666.4141,644,670.4141,640,666.4141" style="stroke:#181818;stroke-width:1.0;"/><text fill="#000000" font-family="sans-serif" font-size="13" lengthAdjust="spacing" textLength="215" x="640" y="648.3481">identify Data mining technologies</text><line style="stroke:#181818;stroke-width:1.0;" x1="633" x2="675" y1="725.8125" y2="725.8125"/><line style="stroke:#181818;stroke-width:1.0;" x1="675" x2="675" y1="725.8125" y2="738.8125"/><line style="stroke:#181818;stroke-width:1.0;" x1="634" x2="675" y1="738.8125" y2="738.8125"/><polygon fill="#181818" points="644,734.8125,634,738.8125,644,742.8125,640,738.8125" style="stroke:#181818;stroke-width:1.0;"/><text fill="#000000" font-family="sans-serif" font-size="13" lengthAdjust="spacing" textLength="115" x="640" y="690.481">apply data mining</text><text fill="#000000" font-family="sans-serif" font-size="13" lengthAdjust="spacing" textLength="123" x="644" y="705.6138">techniques such as</text><text fill="#000000" font-family="sans-serif" font-size="13" lengthAdjust="spacing" textLength="286" x="644" y="720.7466">regression, bayesian networks, and so forth.</text><path d="M302,753.8125 L380,753.8125 L380,760.9453 L370,770.9453 L302,770.9453 L302,753.8125 " fill="#EEEEEE" style="stroke:#000000;stroke-width:1.5;"/><rect fill="none" height="75.3984" style="stroke:#000000;stroke-width:1.5;" width="487" x="302" y="753.8125"/><text fill="#000000" font-family="sans-serif" font-size="13" font-weight="bold" lengthAdjust="spacing" textLength="33" x="317" y="766.8794">loop</text><text fill="#000000" font-family="sans-serif" font-size="11" font-weight="bold" lengthAdjust="spacing" textLength="60" x="395" y="766.0229">[n times]</text><polygon fill="#181818" points="405.5,788.0781,395.5,792.0781,405.5,796.0781,401.5,792.0781" style="stroke:#181818;stroke-width:1.0;"/><line style="stroke:#181818;stroke-width:1.0;" x1="399.5" x2="632" y1="792.0781" y2="792.0781"/><text fill="#000000" font-family="sans-serif" font-size="13" lengthAdjust="spacing" textLength="67" x="411.5" y="787.0122">evaluation</text><polygon fill="#181818" points="621,817.2109,631,821.2109,621,825.2109,625,821.2109" style="stroke:#181818;stroke-width:1.0;"/><line style="stroke:#181818;stroke-width:1.0;" x1="394.5" x2="627" y1="821.2109" y2="821.2109"/><text fill="#000000" font-family="sans-serif" font-size="13" lengthAdjust="spacing" textLength="67" x="401.5" y="816.145">evaluation</text><line style="stroke:#181818;stroke-width:1.0;" x1="633" x2="675" y1="857.3438" y2="857.3438"/><line style="stroke:#181818;stroke-width:1.0;" x1="675" x2="675" y1="857.3438" y2="870.3438"/><line style="stroke:#181818;stroke-width:1.0;" x1="634" x2="675" y1="870.3438" y2="870.3438"/><polygon fill="#181818" points="644,866.3438,634,870.3438,644,874.3438,640,870.3438" style="stroke:#181818;stroke-width:1.0;"/><text fill="#000000" font-family="sans-serif" font-size="13" lengthAdjust="spacing" textLength="157" x="640" y="852.2778">knowledge consolidation</text><polygon fill="#181818" points="405.5,895.4766,395.5,899.4766,405.5,903.4766,401.5,899.4766" style="stroke:#181818;stroke-width:1.0;"/><line style="stroke:#181818;stroke-width:1.0;" x1="399.5" x2="632" y1="899.4766" y2="899.4766"/><text fill="#000000" font-family="sans-serif" font-size="13" lengthAdjust="spacing" textLength="77" x="411.5" y="894.4106">deployment</text><path d="M569,919.4766 L569,944.4766 L697,944.4766 L697,929.4766 L687,919.4766 L569,919.4766 " fill="#FEFFDD" style="stroke:#181818;stroke-width:0.5;"/><path d="M687,919.4766 L687,929.4766 L697,929.4766 L687,919.4766 " fill="#FEFFDD" style="stroke:#181818;stroke-width:0.5;"/><text fill="#000000" font-family="sans-serif" font-size="13" lengthAdjust="spacing" textLength="107" x="575" y="936.5435">others process...</text><path d="M434,956.6094 L571,956.6094 L571,963.7422 L561,973.7422 L434,973.7422 L434,956.6094 " fill="#EEEEEE" style="stroke:#000000;stroke-width:1.5;"/><rect fill="none" height="52.2656" style="stroke:#000000;stroke-width:1.5;" width="606.5" x="434" y="956.6094"/><text fill="#000000" font-family="sans-serif" font-size="13" font-weight="bold" lengthAdjust="spacing" textLength="92" x="449" y="969.6763">Fayyad et al</text><polygon fill="#181818" points="998.5,986.3086,1008.5,990.3086,998.5,994.3086,1002.5,990.3086" style="stroke:#181818;stroke-width:1.0;"/><line style="stroke:#181818;stroke-width:1.0;" x1="633" x2="1004.5" y1="990.3086" y2="990.3086"/><path d="M444,978.7422 L444,1003.7422 L628,1003.7422 L628,988.7422 L618,978.7422 L444,978.7422 " fill="#FEFFDD" style="stroke:#181818;stroke-width:0.5;"/><path d="M618,978.7422 L618,988.7422 L628,988.7422 L618,978.7422 " fill="#FEFFDD" style="stroke:#181818;stroke-width:0.5;"/><text fill="#000000" font-family="sans-serif" font-size="13" lengthAdjust="spacing" textLength="163" x="450" y="995.8091">It's an Academic Process.</text><path d="M439,1022.875 L584,1022.875 L584,1030.0078 L574,1040.0078 L439,1040.0078 L439,1022.875 " fill="#EEEEEE" style="stroke:#000000;stroke-width:1.5;"/><rect fill="none" height="52.2656" style="stroke:#000000;stroke-width:1.5;" width="601.5" x="439" y="1022.875"/><text fill="#000000" font-family="sans-serif" font-size="13" font-weight="bold" lengthAdjust="spacing" textLength="100" x="454" y="1035.9419">Cabena et al.</text><polygon fill="#181818" points="998.5,1052.5742,1008.5,1056.5742,998.5,1060.5742,1002.5,1056.5742" style="stroke:#181818;stroke-width:1.0;"/><line style="stroke:#181818;stroke-width:1.0;" x1="633" x2="1004.5" y1="1056.5742" y2="1056.5742"/><path d="M449,1045.0078 L449,1070.0078 L628,1070.0078 L628,1055.0078 L618,1045.0078 L449,1045.0078 " fill="#FEFFDD" style="stroke:#181818;stroke-width:0.5;"/><path d="M618,1045.0078 L618,1055.0078 L628,1055.0078 L618,1045.0078 " fill="#FEFFDD" style="stroke:#181818;stroke-width:0.5;"/><text fill="#000000" font-family="sans-serif" font-size="13" lengthAdjust="spacing" textLength="158" x="455" y="1062.0747">It's an Industrial Process.</text><path d="M434,1089.1406 L607,1089.1406 L607,1096.2734 L597,1106.2734 L434,1106.2734 L434,1089.1406 " fill="#EEEEEE" style="stroke:#000000;stroke-width:1.5;"/><rect fill="none" height="52.2656" style="stroke:#000000;stroke-width:1.5;" width="606.5" x="434" y="1089.1406"/><text fill="#000000" font-family="sans-serif" font-size="13" font-weight="bold" lengthAdjust="spacing" textLength="128" x="449" y="1102.2075">Anand &amp; Buchner</text><polygon fill="#181818" points="998.5,1118.8398,1008.5,1122.8398,998.5,1126.8398,1002.5,1122.8398" style="stroke:#181818;stroke-width:1.0;"/><line style="stroke:#181818;stroke-width:1.0;" x1="633" x2="1004.5" y1="1122.8398" y2="1122.8398"/><path d="M444,1111.2734 L444,1136.2734 L628,1136.2734 L628,1121.2734 L618,1111.2734 L444,1111.2734 " fill="#FEFFDD" style="stroke:#181818;stroke-width:0.5;"/><path d="M618,1111.2734 L618,1121.2734 L628,1121.2734 L618,1111.2734 " fill="#FEFFDD" style="stroke:#181818;stroke-width:0.5;"/><text fill="#000000" font-family="sans-serif" font-size="13" lengthAdjust="spacing" textLength="163" x="450" y="1128.3403">It's an Academic Process.</text><path d="M439,1155.4063 L558,1155.4063 L558,1162.5391 L548,1172.5391 L439,1172.5391 L439,1155.4063 " fill="#EEEEEE" style="stroke:#000000;stroke-width:1.5;"/><rect fill="none" height="52.2656" style="stroke:#000000;stroke-width:1.5;" width="601.5" x="439" y="1155.4063"/><text fill="#000000" font-family="sans-serif" font-size="13" font-weight="bold" lengthAdjust="spacing" textLength="74" x="454" y="1168.4731">CRISP-DM</text><polygon fill="#181818" points="998.5,1185.1055,1008.5,1189.1055,998.5,1193.1055,1002.5,1189.1055" style="stroke:#181818;stroke-width:1.0;"/><line style="stroke:#181818;stroke-width:1.0;" x1="633" x2="1004.5" y1="1189.1055" y2="1189.1055"/><path d="M449,1177.5391 L449,1202.5391 L628,1202.5391 L628,1187.5391 L618,1177.5391 L449,1177.5391 " fill="#FEFFDD" style="stroke:#181818;stroke-width:0.5;"/><path d="M618,1177.5391 L618,1187.5391 L628,1187.5391 L618,1177.5391 " fill="#FEFFDD" style="stroke:#181818;stroke-width:0.5;"/><text fill="#000000" font-family="sans-serif" font-size="13" lengthAdjust="spacing" textLength="158" x="455" y="1194.606">It's an Industrial Process.</text><path d="M434,1221.6719 L551,1221.6719 L551,1228.8047 L541,1238.8047 L434,1238.8047 L434,1221.6719 " fill="#EEEEEE" style="stroke:#000000;stroke-width:1.5;"/><rect fill="none" height="52.2656" style="stroke:#000000;stroke-width:1.5;" width="606.5" x="434" y="1221.6719"/><text fill="#000000" font-family="sans-serif" font-size="13" font-weight="bold" lengthAdjust="spacing" textLength="72" x="449" y="1234.7388">Cios et al</text><polygon fill="#181818" points="998.5,1251.3711,1008.5,1255.3711,998.5,1259.3711,1002.5,1255.3711" style="stroke:#181818;stroke-width:1.0;"/><line style="stroke:#181818;stroke-width:1.0;" x1="633" x2="1004.5" y1="1255.3711" y2="1255.3711"/><path d="M444,1243.8047 L444,1268.8047 L628,1268.8047 L628,1253.8047 L618,1243.8047 L444,1243.8047 " fill="#FEFFDD" style="stroke:#181818;stroke-width:0.5;"/><path d="M618,1243.8047 L618,1253.8047 L628,1253.8047 L618,1243.8047 " fill="#FEFFDD" style="stroke:#181818;stroke-width:0.5;"/><text fill="#000000" font-family="sans-serif" font-size="13" lengthAdjust="spacing" textLength="163" x="450" y="1260.8716">It's an Academic Process.</text><!--MD5=[1fe12fc80eba43d0ac1ff8e4a9d61ff3]
@startuml
title
 How do we carry out KDDM projects successfully?
 Knowledge Discovery and Data Mining Process.
end title
actor "Business and Scientist"
actor "Researchers and industrial data analysts"
collections "XML/JSON"
note over "XML/JSON": Process requires a \nstandard plain-text \nformat for storing and\nexchanging knowledge.
actor "Data"
note over "Data": Data sources such as relational databases, the internet, and so on
group Knowledge Discovery and Data Mining projects.
    "Business and Scientist" -> "Researchers and industrial data analysts": discover knowledge
    note left: Since storing data is \nnot enough, they want to 
    "Researchers and industrial data analysts" -> "Researchers and industrial data analysts": decide to focus on \nhuman-centric or \ndata-centric.
note over "Researchers and industrial data analysts": choose a process
group Generic
 loop n times
            "Researchers and industrial data analysts" -> "Business and Scientist": domain understanding
            "Business and Scientist" -> "Researchers and industrial data analysts": domain understanding
 note left: identity project goals, key people, and terminology.
 end
 "Researchers and industrial data analysts" -> "Data": understand
 note left: identify data constraints.
 "Researchers and industrial data analysts" -> "Data": prepare
 note left: clean data.
 "Researchers and industrial data analysts" -> "Researchers and industrial data analysts": identify Data mining technologies
"Researchers and industrial data analysts" -> "Researchers and industrial data analysts": apply data mining \n techniques such as \n regression, bayesian networks, and so forth.
 loop n times
            "Researchers and industrial data analysts" -> "Business and Scientist": evaluation
            "Business and Scientist" -> "Researchers and industrial data analysts": evaluation
 end

"Researchers and industrial data analysts" -> "Researchers and industrial data analysts": knowledge consolidation
"Researchers and industrial data analysts" -> "Business and Scientist": deployment
end
note over "Researchers and industrial data analysts": others process...
group Fayyad et al
 "Researchers and industrial data analysts" -> "Data"
 note left: It's an Academic Process.
end
group Cabena et al.
 "Researchers and industrial data analysts" -> "Data"
 note left: It's an Industrial Process.
end
group Anand & Buchner 
 "Researchers and industrial data analysts" -> "Data"
 note left: It's an Academic Process.
end
group CRISP-DM
 "Researchers and industrial data analysts" -> "Data"
 note left: It's an Industrial Process.
end
group Cios et al
 "Researchers and industrial data analysts" -> "Data"
 note left: It's an Academic Process.
end
end
@enduml

PlantUML version 1.2022.8beta2(Unknown compile time)
(GPL source distribution)
Java Runtime: Java(TM) SE Runtime Environment
JVM: Java HotSpot(TM) 64-Bit Server VM
Default Encoding: UTF-8
Language: en
Country: US
--></g></svg>