<?xml version="1.0" encoding="UTF-8" standalone="no"?>
<svg xmlns="http://www.w3.org/2000/svg" xmlns:xlink="http://www.w3.org/1999/xlink" contentStyleType="text/css" height="486px" preserveAspectRatio="none" style="width:2114px;height:486px;background:#F9F9F9;" version="1.1" viewBox="0 0 2114 486" width="2114px" zoomAndPan="magnify"><defs/><g><!--MD5=[ba6e4ba4ecb400741bdc3cf8257a3021]
class Language Processor--><g id="elem_Language Processor"><rect codeLine="3" fill="#F1F1F1" height="48" id="Language Processor" rx="3.5" ry="3.5" style="stroke:#181818;stroke-width:0.5;" width="174" x="1428.5" y="7"/><ellipse cx="1443.5" cy="23" fill="#ADD1B2" rx="11" ry="11" style="stroke:#181818;stroke-width:1.0;"/><path d="M1445.8438,18.6719 C1444.9063,18.2344 1444.3125,18.0938 1443.4375,18.0938 C1440.8125,18.0938 1438.8125,20.1719 1438.8125,22.8906 L1438.8125,24.0156 C1438.8125,26.5938 1440.9219,28.4844 1443.8125,28.4844 C1445.0313,28.4844 1446.1875,28.1875 1446.9375,27.6406 C1447.5156,27.2344 1447.8438,26.7813 1447.8438,26.3906 C1447.8438,25.9375 1447.4531,25.5469 1446.9844,25.5469 C1446.7656,25.5469 1446.5625,25.625 1446.375,25.8125 C1445.9219,26.2969 1445.9219,26.2969 1445.7344,26.3906 C1445.3125,26.6563 1444.625,26.7813 1443.8594,26.7813 C1441.8125,26.7813 1440.5156,25.6875 1440.5156,23.9844 L1440.5156,22.8906 C1440.5156,21.1094 1441.7656,19.7969 1443.5,19.7969 C1444.0781,19.7969 1444.6875,19.9531 1445.1563,20.2031 C1445.6406,20.4844 1445.8125,20.7031 1445.9063,21.1094 C1445.9688,21.5156 1446,21.6406 1446.1406,21.7656 C1446.2813,21.9063 1446.5156,22.0156 1446.7344,22.0156 C1447,22.0156 1447.2656,21.875 1447.4375,21.6563 C1447.5469,21.5 1447.5781,21.3125 1447.5781,20.8906 L1447.5781,19.4688 C1447.5781,19.0313 1447.5625,18.9063 1447.4688,18.75 C1447.3125,18.4844 1447.0313,18.3438 1446.7344,18.3438 C1446.4375,18.3438 1446.2344,18.4375 1446.0156,18.75 L1445.8438,18.6719 Z " fill="#000000"/><text fill="#000000" font-family="sans-serif" font-size="14" lengthAdjust="spacing" textLength="142" x="1457.5" y="27.8467">Language Processor</text><line style="stroke:#181818;stroke-width:0.5;" x1="1429.5" x2="1601.5" y1="39" y2="39"/><line style="stroke:#181818;stroke-width:0.5;" x1="1429.5" x2="1601.5" y1="47" y2="47"/></g><polygon fill="none" points="1515.5,55,1522.5,75,1508.5,75" style="stroke:#191919;stroke-width:1.0;"/><line style="stroke:#191919;stroke-width:1.0;" x1="1515.5" x2="1515.5" y1="75" y2="76"/><!--MD5=[31e1ad37a7825b14efd09fefd9c35098]
class Artificial Language Processor--><g id="elem_Artificial Language Processor"><rect codeLine="4" fill="#F1F1F1" height="48" id="Artificial Language Processor" rx="3.5" ry="3.5" style="stroke:#181818;stroke-width:0.5;" width="239" x="1252" y="155"/><ellipse cx="1267" cy="171" fill="#ADD1B2" rx="11" ry="11" style="stroke:#181818;stroke-width:1.0;"/><path d="M1269.3438,166.6719 C1268.4063,166.2344 1267.8125,166.0938 1266.9375,166.0938 C1264.3125,166.0938 1262.3125,168.1719 1262.3125,170.8906 L1262.3125,172.0156 C1262.3125,174.5938 1264.4219,176.4844 1267.3125,176.4844 C1268.5313,176.4844 1269.6875,176.1875 1270.4375,175.6406 C1271.0156,175.2344 1271.3438,174.7813 1271.3438,174.3906 C1271.3438,173.9375 1270.9531,173.5469 1270.4844,173.5469 C1270.2656,173.5469 1270.0625,173.625 1269.875,173.8125 C1269.4219,174.2969 1269.4219,174.2969 1269.2344,174.3906 C1268.8125,174.6563 1268.125,174.7813 1267.3594,174.7813 C1265.3125,174.7813 1264.0156,173.6875 1264.0156,171.9844 L1264.0156,170.8906 C1264.0156,169.1094 1265.2656,167.7969 1267,167.7969 C1267.5781,167.7969 1268.1875,167.9531 1268.6563,168.2031 C1269.1406,168.4844 1269.3125,168.7031 1269.4063,169.1094 C1269.4688,169.5156 1269.5,169.6406 1269.6406,169.7656 C1269.7813,169.9063 1270.0156,170.0156 1270.2344,170.0156 C1270.5,170.0156 1270.7656,169.875 1270.9375,169.6563 C1271.0469,169.5 1271.0781,169.3125 1271.0781,168.8906 L1271.0781,167.4688 C1271.0781,167.0313 1271.0625,166.9063 1270.9688,166.75 C1270.8125,166.4844 1270.5313,166.3438 1270.2344,166.3438 C1269.9375,166.3438 1269.7344,166.4375 1269.5156,166.75 L1269.3438,166.6719 Z " fill="#000000"/><text fill="#000000" font-family="sans-serif" font-size="14" lengthAdjust="spacing" textLength="207" x="1281" y="175.8467">Artificial Language Processor</text><line style="stroke:#181818;stroke-width:0.5;" x1="1253" x2="1490" y1="187" y2="187"/><line style="stroke:#181818;stroke-width:0.5;" x1="1253" x2="1490" y1="195" y2="195"/></g><polygon fill="none" points="1370.9667,203,1377.5206,223.1506,1363.5241,222.8395" style="stroke:#191919;stroke-width:1.0;"/><line style="stroke:#191919;stroke-width:1.0;" x1="1370.5223" x2="1370.5" y1="222.9951" y2="224"/><line style="stroke:#191919;stroke-width:1.0;" x1="1252" x2="1231.89" y1="179" y2="179"/><line style="stroke:#191919;stroke-width:1.0;" x1="1404.6175" x2="1432.57" y1="155" y2="134.743"/><g id="elem_GMN1135006"><path d="M808.5,170 L808.5,188.1328 A3.5,3.5 0 0 0 812,191.6328 L1193,191.6328 A3.5,3.5 0 0 0 1196.5,188.1328 L1196.5,184.5 L1231.89,179 L1196.5,176.5 L1196.5,176.5 L1186.5,166.5 L812,166.5 A3.5,3.5 0 0 0 808.5,170 " fill="#E5E5E5" style="stroke:#181818;stroke-width:1.5;"/><path d="M1186.5,166.5 L1186.5,174.75 A1.75,1.75 0 0 0 1188.25,176.5 L1196.5,176.5 L1186.5,166.5 " fill="#E5E5E5" style="stroke:#181818;stroke-width:1.5;"/><text fill="#191919" font-family="sans-serif" font-size="13" lengthAdjust="spacing" textLength="367" x="814.5" y="183.5669">It's called translator or computer language processor too.</text></g><!--MD5=[e0a44b975f9db273115d016b3a1ec42a]
class Natural Language Processor--><g id="elem_Natural Language Processor"><rect codeLine="6" fill="#F1F1F1" height="48" id="Natural Language Processor" rx="3.5" ry="3.5" style="stroke:#181818;stroke-width:0.5;" width="229" x="1546" y="155"/><ellipse cx="1561" cy="171" fill="#ADD1B2" rx="11" ry="11" style="stroke:#181818;stroke-width:1.0;"/><path d="M1563.3438,166.6719 C1562.4063,166.2344 1561.8125,166.0938 1560.9375,166.0938 C1558.3125,166.0938 1556.3125,168.1719 1556.3125,170.8906 L1556.3125,172.0156 C1556.3125,174.5938 1558.4219,176.4844 1561.3125,176.4844 C1562.5313,176.4844 1563.6875,176.1875 1564.4375,175.6406 C1565.0156,175.2344 1565.3438,174.7813 1565.3438,174.3906 C1565.3438,173.9375 1564.9531,173.5469 1564.4844,173.5469 C1564.2656,173.5469 1564.0625,173.625 1563.875,173.8125 C1563.4219,174.2969 1563.4219,174.2969 1563.2344,174.3906 C1562.8125,174.6563 1562.125,174.7813 1561.3594,174.7813 C1559.3125,174.7813 1558.0156,173.6875 1558.0156,171.9844 L1558.0156,170.8906 C1558.0156,169.1094 1559.2656,167.7969 1561,167.7969 C1561.5781,167.7969 1562.1875,167.9531 1562.6563,168.2031 C1563.1406,168.4844 1563.3125,168.7031 1563.4063,169.1094 C1563.4688,169.5156 1563.5,169.6406 1563.6406,169.7656 C1563.7813,169.9063 1564.0156,170.0156 1564.2344,170.0156 C1564.5,170.0156 1564.7656,169.875 1564.9375,169.6563 C1565.0469,169.5 1565.0781,169.3125 1565.0781,168.8906 L1565.0781,167.4688 C1565.0781,167.0313 1565.0625,166.9063 1564.9688,166.75 C1564.8125,166.4844 1564.5313,166.3438 1564.2344,166.3438 C1563.9375,166.3438 1563.7344,166.4375 1563.5156,166.75 L1563.3438,166.6719 Z " fill="#000000"/><text fill="#000000" font-family="sans-serif" font-size="14" lengthAdjust="spacing" textLength="197" x="1575" y="175.8467">Natural Language Processor</text><line style="stroke:#181818;stroke-width:0.5;" x1="1547" x2="1774" y1="187" y2="187"/><line style="stroke:#181818;stroke-width:0.5;" x1="1547" x2="1774" y1="195" y2="195"/></g><!--MD5=[b8546d46fdb882f82c355bb5b471656c]
class Compiler--><g id="elem_Compiler"><rect codeLine="7" fill="#F1F1F1" height="48" id="Compiler" rx="3.5" ry="3.5" style="stroke:#181818;stroke-width:0.5;" width="98" x="887.5" y="303"/><ellipse cx="902.5" cy="319" fill="#ADD1B2" rx="11" ry="11" style="stroke:#181818;stroke-width:1.0;"/><path d="M904.8438,314.6719 C903.9063,314.2344 903.3125,314.0938 902.4375,314.0938 C899.8125,314.0938 897.8125,316.1719 897.8125,318.8906 L897.8125,320.0156 C897.8125,322.5938 899.9219,324.4844 902.8125,324.4844 C904.0313,324.4844 905.1875,324.1875 905.9375,323.6406 C906.5156,323.2344 906.8438,322.7813 906.8438,322.3906 C906.8438,321.9375 906.4531,321.5469 905.9844,321.5469 C905.7656,321.5469 905.5625,321.625 905.375,321.8125 C904.9219,322.2969 904.9219,322.2969 904.7344,322.3906 C904.3125,322.6563 903.625,322.7813 902.8594,322.7813 C900.8125,322.7813 899.5156,321.6875 899.5156,319.9844 L899.5156,318.8906 C899.5156,317.1094 900.7656,315.7969 902.5,315.7969 C903.0781,315.7969 903.6875,315.9531 904.1563,316.2031 C904.6406,316.4844 904.8125,316.7031 904.9063,317.1094 C904.9688,317.5156 905,317.6406 905.1406,317.7656 C905.2813,317.9063 905.5156,318.0156 905.7344,318.0156 C906,318.0156 906.2656,317.875 906.4375,317.6563 C906.5469,317.5 906.5781,317.3125 906.5781,316.8906 L906.5781,315.4688 C906.5781,315.0313 906.5625,314.9063 906.4688,314.75 C906.3125,314.4844 906.0313,314.3438 905.7344,314.3438 C905.4375,314.3438 905.2344,314.4375 905.0156,314.75 L904.8438,314.6719 Z " fill="#000000"/><text fill="#000000" font-family="sans-serif" font-size="14" lengthAdjust="spacing" textLength="66" x="916.5" y="323.8467">Compiler</text><line style="stroke:#181818;stroke-width:0.5;" x1="888.5" x2="984.5" y1="335" y2="335"/><line style="stroke:#181818;stroke-width:0.5;" x1="888.5" x2="984.5" y1="343" y2="343"/></g><polygon fill="none" points="937.0333,351,944.4759,370.8395,930.4794,371.1506" style="stroke:#191919;stroke-width:1.0;"/><line style="stroke:#191919;stroke-width:1.0;" x1="937.4777" x2="937.5" y1="370.9951" y2="372"/><line style="stroke:#191919;stroke-width:1.0;" x1="980.4924" x2="1005.7" y1="303" y2="289.248"/><!--MD5=[0ce663c225e1303a6dfdbfba7f0d022a]
class Interpreter--><g id="elem_Interpreter"><rect codeLine="8" fill="#F1F1F1" height="48" id="Interpreter" rx="3.5" ry="3.5" style="stroke:#181818;stroke-width:0.5;" width="114" x="1040.5" y="303"/><ellipse cx="1055.5" cy="319" fill="#ADD1B2" rx="11" ry="11" style="stroke:#181818;stroke-width:1.0;"/><path d="M1057.8438,314.6719 C1056.9063,314.2344 1056.3125,314.0938 1055.4375,314.0938 C1052.8125,314.0938 1050.8125,316.1719 1050.8125,318.8906 L1050.8125,320.0156 C1050.8125,322.5938 1052.9219,324.4844 1055.8125,324.4844 C1057.0313,324.4844 1058.1875,324.1875 1058.9375,323.6406 C1059.5156,323.2344 1059.8438,322.7813 1059.8438,322.3906 C1059.8438,321.9375 1059.4531,321.5469 1058.9844,321.5469 C1058.7656,321.5469 1058.5625,321.625 1058.375,321.8125 C1057.9219,322.2969 1057.9219,322.2969 1057.7344,322.3906 C1057.3125,322.6563 1056.625,322.7813 1055.8594,322.7813 C1053.8125,322.7813 1052.5156,321.6875 1052.5156,319.9844 L1052.5156,318.8906 C1052.5156,317.1094 1053.7656,315.7969 1055.5,315.7969 C1056.0781,315.7969 1056.6875,315.9531 1057.1563,316.2031 C1057.6406,316.4844 1057.8125,316.7031 1057.9063,317.1094 C1057.9688,317.5156 1058,317.6406 1058.1406,317.7656 C1058.2813,317.9063 1058.5156,318.0156 1058.7344,318.0156 C1059,318.0156 1059.2656,317.875 1059.4375,317.6563 C1059.5469,317.5 1059.5781,317.3125 1059.5781,316.8906 L1059.5781,315.4688 C1059.5781,315.0313 1059.5625,314.9063 1059.4688,314.75 C1059.3125,314.4844 1059.0313,314.3438 1058.7344,314.3438 C1058.4375,314.3438 1058.2344,314.4375 1058.0156,314.75 L1057.8438,314.6719 Z " fill="#000000"/><text fill="#000000" font-family="sans-serif" font-size="14" lengthAdjust="spacing" textLength="82" x="1069.5" y="323.8467">Interpreter</text><line style="stroke:#181818;stroke-width:0.5;" x1="1041.5" x2="1153.5" y1="335" y2="335"/><line style="stroke:#181818;stroke-width:0.5;" x1="1041.5" x2="1153.5" y1="343" y2="343"/></g><!--MD5=[15f4514c82b1a02a6b1a99f0fdc50e01]
class Assembler--><g id="elem_Assembler"><rect fill="#F1F1F1" height="48" id="Assembler" rx="3.5" ry="3.5" style="stroke:#181818;stroke-width:0.5;" width="108" x="1189.5" y="303"/><ellipse cx="1204.5" cy="319" fill="#ADD1B2" rx="11" ry="11" style="stroke:#181818;stroke-width:1.0;"/><path d="M1206.8438,314.6719 C1205.9063,314.2344 1205.3125,314.0938 1204.4375,314.0938 C1201.8125,314.0938 1199.8125,316.1719 1199.8125,318.8906 L1199.8125,320.0156 C1199.8125,322.5938 1201.9219,324.4844 1204.8125,324.4844 C1206.0313,324.4844 1207.1875,324.1875 1207.9375,323.6406 C1208.5156,323.2344 1208.8438,322.7813 1208.8438,322.3906 C1208.8438,321.9375 1208.4531,321.5469 1207.9844,321.5469 C1207.7656,321.5469 1207.5625,321.625 1207.375,321.8125 C1206.9219,322.2969 1206.9219,322.2969 1206.7344,322.3906 C1206.3125,322.6563 1205.625,322.7813 1204.8594,322.7813 C1202.8125,322.7813 1201.5156,321.6875 1201.5156,319.9844 L1201.5156,318.8906 C1201.5156,317.1094 1202.7656,315.7969 1204.5,315.7969 C1205.0781,315.7969 1205.6875,315.9531 1206.1563,316.2031 C1206.6406,316.4844 1206.8125,316.7031 1206.9063,317.1094 C1206.9688,317.5156 1207,317.6406 1207.1406,317.7656 C1207.2813,317.9063 1207.5156,318.0156 1207.7344,318.0156 C1208,318.0156 1208.2656,317.875 1208.4375,317.6563 C1208.5469,317.5 1208.5781,317.3125 1208.5781,316.8906 L1208.5781,315.4688 C1208.5781,315.0313 1208.5625,314.9063 1208.4688,314.75 C1208.3125,314.4844 1208.0313,314.3438 1207.7344,314.3438 C1207.4375,314.3438 1207.2344,314.4375 1207.0156,314.75 L1206.8438,314.6719 Z " fill="#000000"/><text fill="#000000" font-family="sans-serif" font-size="14" lengthAdjust="spacing" textLength="76" x="1218.5" y="323.8467">Assembler</text><line style="stroke:#181818;stroke-width:0.5;" x1="1190.5" x2="1296.5" y1="335" y2="335"/><line style="stroke:#181818;stroke-width:0.5;" x1="1190.5" x2="1296.5" y1="343" y2="343"/></g><!--MD5=[0d158f6832756db173c8b0d82eb04ab3]
class Linker--><g id="elem_Linker"><rect fill="#F1F1F1" height="48" id="Linker" rx="3.5" ry="3.5" style="stroke:#181818;stroke-width:0.5;" width="77" x="1333" y="303"/><ellipse cx="1348" cy="319" fill="#ADD1B2" rx="11" ry="11" style="stroke:#181818;stroke-width:1.0;"/><path d="M1350.3438,314.6719 C1349.4063,314.2344 1348.8125,314.0938 1347.9375,314.0938 C1345.3125,314.0938 1343.3125,316.1719 1343.3125,318.8906 L1343.3125,320.0156 C1343.3125,322.5938 1345.4219,324.4844 1348.3125,324.4844 C1349.5313,324.4844 1350.6875,324.1875 1351.4375,323.6406 C1352.0156,323.2344 1352.3438,322.7813 1352.3438,322.3906 C1352.3438,321.9375 1351.9531,321.5469 1351.4844,321.5469 C1351.2656,321.5469 1351.0625,321.625 1350.875,321.8125 C1350.4219,322.2969 1350.4219,322.2969 1350.2344,322.3906 C1349.8125,322.6563 1349.125,322.7813 1348.3594,322.7813 C1346.3125,322.7813 1345.0156,321.6875 1345.0156,319.9844 L1345.0156,318.8906 C1345.0156,317.1094 1346.2656,315.7969 1348,315.7969 C1348.5781,315.7969 1349.1875,315.9531 1349.6563,316.2031 C1350.1406,316.4844 1350.3125,316.7031 1350.4063,317.1094 C1350.4688,317.5156 1350.5,317.6406 1350.6406,317.7656 C1350.7813,317.9063 1351.0156,318.0156 1351.2344,318.0156 C1351.5,318.0156 1351.7656,317.875 1351.9375,317.6563 C1352.0469,317.5 1352.0781,317.3125 1352.0781,316.8906 L1352.0781,315.4688 C1352.0781,315.0313 1352.0625,314.9063 1351.9688,314.75 C1351.8125,314.4844 1351.5313,314.3438 1351.2344,314.3438 C1350.9375,314.3438 1350.7344,314.4375 1350.5156,314.75 L1350.3438,314.6719 Z " fill="#000000"/><text fill="#000000" font-family="sans-serif" font-size="14" lengthAdjust="spacing" textLength="45" x="1362" y="323.8467">Linker</text><line style="stroke:#181818;stroke-width:0.5;" x1="1334" x2="1409" y1="335" y2="335"/><line style="stroke:#181818;stroke-width:0.5;" x1="1334" x2="1409" y1="343" y2="343"/></g><!--MD5=[8d729038c48ea67d1bfca0b0b8d717df]
class Loader--><g id="elem_Loader"><rect fill="#F1F1F1" height="48" id="Loader" rx="3.5" ry="3.5" style="stroke:#181818;stroke-width:0.5;" width="81" x="1445" y="303"/><ellipse cx="1460" cy="319" fill="#ADD1B2" rx="11" ry="11" style="stroke:#181818;stroke-width:1.0;"/><path d="M1462.3438,314.6719 C1461.4063,314.2344 1460.8125,314.0938 1459.9375,314.0938 C1457.3125,314.0938 1455.3125,316.1719 1455.3125,318.8906 L1455.3125,320.0156 C1455.3125,322.5938 1457.4219,324.4844 1460.3125,324.4844 C1461.5313,324.4844 1462.6875,324.1875 1463.4375,323.6406 C1464.0156,323.2344 1464.3438,322.7813 1464.3438,322.3906 C1464.3438,321.9375 1463.9531,321.5469 1463.4844,321.5469 C1463.2656,321.5469 1463.0625,321.625 1462.875,321.8125 C1462.4219,322.2969 1462.4219,322.2969 1462.2344,322.3906 C1461.8125,322.6563 1461.125,322.7813 1460.3594,322.7813 C1458.3125,322.7813 1457.0156,321.6875 1457.0156,319.9844 L1457.0156,318.8906 C1457.0156,317.1094 1458.2656,315.7969 1460,315.7969 C1460.5781,315.7969 1461.1875,315.9531 1461.6563,316.2031 C1462.1406,316.4844 1462.3125,316.7031 1462.4063,317.1094 C1462.4688,317.5156 1462.5,317.6406 1462.6406,317.7656 C1462.7813,317.9063 1463.0156,318.0156 1463.2344,318.0156 C1463.5,318.0156 1463.7656,317.875 1463.9375,317.6563 C1464.0469,317.5 1464.0781,317.3125 1464.0781,316.8906 L1464.0781,315.4688 C1464.0781,315.0313 1464.0625,314.9063 1463.9688,314.75 C1463.8125,314.4844 1463.5313,314.3438 1463.2344,314.3438 C1462.9375,314.3438 1462.7344,314.4375 1462.5156,314.75 L1462.3438,314.6719 Z " fill="#000000"/><text fill="#000000" font-family="sans-serif" font-size="14" lengthAdjust="spacing" textLength="49" x="1474" y="323.8467">Loader</text><line style="stroke:#181818;stroke-width:0.5;" x1="1446" x2="1525" y1="335" y2="335"/><line style="stroke:#181818;stroke-width:0.5;" x1="1446" x2="1525" y1="343" y2="343"/></g><!--MD5=[1f7b1c53b52d60d9d0e855d091174bb3]
class Debugger--><g id="elem_Debugger"><rect fill="#F1F1F1" height="48" id="Debugger" rx="3.5" ry="3.5" style="stroke:#181818;stroke-width:0.5;" width="103" x="1561" y="303"/><ellipse cx="1576" cy="319" fill="#ADD1B2" rx="11" ry="11" style="stroke:#181818;stroke-width:1.0;"/><path d="M1578.3438,314.6719 C1577.4063,314.2344 1576.8125,314.0938 1575.9375,314.0938 C1573.3125,314.0938 1571.3125,316.1719 1571.3125,318.8906 L1571.3125,320.0156 C1571.3125,322.5938 1573.4219,324.4844 1576.3125,324.4844 C1577.5313,324.4844 1578.6875,324.1875 1579.4375,323.6406 C1580.0156,323.2344 1580.3438,322.7813 1580.3438,322.3906 C1580.3438,321.9375 1579.9531,321.5469 1579.4844,321.5469 C1579.2656,321.5469 1579.0625,321.625 1578.875,321.8125 C1578.4219,322.2969 1578.4219,322.2969 1578.2344,322.3906 C1577.8125,322.6563 1577.125,322.7813 1576.3594,322.7813 C1574.3125,322.7813 1573.0156,321.6875 1573.0156,319.9844 L1573.0156,318.8906 C1573.0156,317.1094 1574.2656,315.7969 1576,315.7969 C1576.5781,315.7969 1577.1875,315.9531 1577.6563,316.2031 C1578.1406,316.4844 1578.3125,316.7031 1578.4063,317.1094 C1578.4688,317.5156 1578.5,317.6406 1578.6406,317.7656 C1578.7813,317.9063 1579.0156,318.0156 1579.2344,318.0156 C1579.5,318.0156 1579.7656,317.875 1579.9375,317.6563 C1580.0469,317.5 1580.0781,317.3125 1580.0781,316.8906 L1580.0781,315.4688 C1580.0781,315.0313 1580.0625,314.9063 1579.9688,314.75 C1579.8125,314.4844 1579.5313,314.3438 1579.2344,314.3438 C1578.9375,314.3438 1578.7344,314.4375 1578.5156,314.75 L1578.3438,314.6719 Z " fill="#000000"/><text fill="#000000" font-family="sans-serif" font-size="14" lengthAdjust="spacing" textLength="71" x="1590" y="323.8467">Debugger</text><line style="stroke:#181818;stroke-width:0.5;" x1="1562" x2="1663" y1="335" y2="335"/><line style="stroke:#181818;stroke-width:0.5;" x1="1562" x2="1663" y1="343" y2="343"/></g><!--MD5=[4c4eecc01cf869d9c41ba50286e04ce4]
class Profiler--><g id="elem_Profiler"><rect fill="#F1F1F1" height="48" id="Profiler" rx="3.5" ry="3.5" style="stroke:#181818;stroke-width:0.5;" width="85" x="1699" y="303"/><ellipse cx="1714" cy="319" fill="#ADD1B2" rx="11" ry="11" style="stroke:#181818;stroke-width:1.0;"/><path d="M1716.3438,314.6719 C1715.4063,314.2344 1714.8125,314.0938 1713.9375,314.0938 C1711.3125,314.0938 1709.3125,316.1719 1709.3125,318.8906 L1709.3125,320.0156 C1709.3125,322.5938 1711.4219,324.4844 1714.3125,324.4844 C1715.5313,324.4844 1716.6875,324.1875 1717.4375,323.6406 C1718.0156,323.2344 1718.3438,322.7813 1718.3438,322.3906 C1718.3438,321.9375 1717.9531,321.5469 1717.4844,321.5469 C1717.2656,321.5469 1717.0625,321.625 1716.875,321.8125 C1716.4219,322.2969 1716.4219,322.2969 1716.2344,322.3906 C1715.8125,322.6563 1715.125,322.7813 1714.3594,322.7813 C1712.3125,322.7813 1711.0156,321.6875 1711.0156,319.9844 L1711.0156,318.8906 C1711.0156,317.1094 1712.2656,315.7969 1714,315.7969 C1714.5781,315.7969 1715.1875,315.9531 1715.6563,316.2031 C1716.1406,316.4844 1716.3125,316.7031 1716.4063,317.1094 C1716.4688,317.5156 1716.5,317.6406 1716.6406,317.7656 C1716.7813,317.9063 1717.0156,318.0156 1717.2344,318.0156 C1717.5,318.0156 1717.7656,317.875 1717.9375,317.6563 C1718.0469,317.5 1718.0781,317.3125 1718.0781,316.8906 L1718.0781,315.4688 C1718.0781,315.0313 1718.0625,314.9063 1717.9688,314.75 C1717.8125,314.4844 1717.5313,314.3438 1717.2344,314.3438 C1716.9375,314.3438 1716.7344,314.4375 1716.5156,314.75 L1716.3438,314.6719 Z " fill="#000000"/><text fill="#000000" font-family="sans-serif" font-size="14" lengthAdjust="spacing" textLength="53" x="1728" y="323.8467">Profiler</text><line style="stroke:#181818;stroke-width:0.5;" x1="1700" x2="1783" y1="335" y2="335"/><line style="stroke:#181818;stroke-width:0.5;" x1="1700" x2="1783" y1="343" y2="343"/></g><g id="elem_GMN1135026"><path d="M1810,170 L1810,175 L1775.16,179 L1810,183 L1810,188.1328 A3.5,3.5 0 0 0 1813.5,191.6328 L2103.5,191.6328 A3.5,3.5 0 0 0 2107,188.1328 L2107,176.5 L2097,166.5 L1813.5,166.5 A3.5,3.5 0 0 0 1810,170 " fill="#E5E5E5" style="stroke:#181818;stroke-width:1.5;"/><path d="M2097,166.5 L2097,174.75 A1.75,1.75 0 0 0 2098.75,176.5 L2107,176.5 L2097,166.5 " fill="#E5E5E5" style="stroke:#181818;stroke-width:1.5;"/><text fill="#191919" font-family="sans-serif" font-size="13" lengthAdjust="spacing" textLength="276" x="1816" y="183.5669">Sometimes called computational linguistics</text></g><!--MD5=[af3ec70b8cec5ea0a44b364d2d3f506c]
class High-level Programming Language--><g id="elem_High-level Programming Language"><rect fill="#F1F1F1" height="48" id="High-level Programming Language" rx="3.5" ry="3.5" style="stroke:#181818;stroke-width:0.5;" width="277" x="342" y="431"/><ellipse cx="357" cy="447" fill="#ADD1B2" rx="11" ry="11" style="stroke:#181818;stroke-width:1.0;"/><path d="M359.3438,442.6719 C358.4063,442.2344 357.8125,442.0938 356.9375,442.0938 C354.3125,442.0938 352.3125,444.1719 352.3125,446.8906 L352.3125,448.0156 C352.3125,450.5938 354.4219,452.4844 357.3125,452.4844 C358.5313,452.4844 359.6875,452.1875 360.4375,451.6406 C361.0156,451.2344 361.3438,450.7813 361.3438,450.3906 C361.3438,449.9375 360.9531,449.5469 360.4844,449.5469 C360.2656,449.5469 360.0625,449.625 359.875,449.8125 C359.4219,450.2969 359.4219,450.2969 359.2344,450.3906 C358.8125,450.6563 358.125,450.7813 357.3594,450.7813 C355.3125,450.7813 354.0156,449.6875 354.0156,447.9844 L354.0156,446.8906 C354.0156,445.1094 355.2656,443.7969 357,443.7969 C357.5781,443.7969 358.1875,443.9531 358.6563,444.2031 C359.1406,444.4844 359.3125,444.7031 359.4063,445.1094 C359.4688,445.5156 359.5,445.6406 359.6406,445.7656 C359.7813,445.9063 360.0156,446.0156 360.2344,446.0156 C360.5,446.0156 360.7656,445.875 360.9375,445.6563 C361.0469,445.5 361.0781,445.3125 361.0781,444.8906 L361.0781,443.4688 C361.0781,443.0313 361.0625,442.9063 360.9688,442.75 C360.8125,442.4844 360.5313,442.3438 360.2344,442.3438 C359.9375,442.3438 359.7344,442.4375 359.5156,442.75 L359.3438,442.6719 Z " fill="#000000"/><text fill="#000000" font-family="sans-serif" font-size="14" lengthAdjust="spacing" textLength="245" x="371" y="451.8467">High-level Programming Language</text><line style="stroke:#181818;stroke-width:0.5;" x1="343" x2="618" y1="463" y2="463"/><line style="stroke:#181818;stroke-width:0.5;" x1="343" x2="618" y1="471" y2="471"/></g><g id="elem_GMN1135031"><path d="M6,446 L6,464.1328 A3.5,3.5 0 0 0 9.5,467.6328 L303.5,467.6328 A3.5,3.5 0 0 0 307,464.1328 L307,460.5 L341.991,455 L307,452.5 L307,452.5 L297,442.5 L9.5,442.5 A3.5,3.5 0 0 0 6,446 " fill="#E5E5E5" style="stroke:#181818;stroke-width:1.5;"/><path d="M297,442.5 L297,450.75 A1.75,1.75 0 0 0 298.75,452.5 L307,452.5 L297,442.5 " fill="#E5E5E5" style="stroke:#181818;stroke-width:1.5;"/><text fill="#191919" font-family="sans-serif" font-size="13" lengthAdjust="spacing" textLength="280" x="12" y="459.5669">You think by default in this kind of compiler.</text></g><!--MD5=[47ca4e0acca39022cfe284cef664739c]
class Binary Translation--><g id="elem_Binary Translation"><rect fill="#F1F1F1" height="48" id="Binary Translation" rx="3.5" ry="3.5" style="stroke:#181818;stroke-width:0.5;" width="161" x="654" y="431"/><ellipse cx="669" cy="447" fill="#ADD1B2" rx="11" ry="11" style="stroke:#181818;stroke-width:1.0;"/><path d="M671.3438,442.6719 C670.4063,442.2344 669.8125,442.0938 668.9375,442.0938 C666.3125,442.0938 664.3125,444.1719 664.3125,446.8906 L664.3125,448.0156 C664.3125,450.5938 666.4219,452.4844 669.3125,452.4844 C670.5313,452.4844 671.6875,452.1875 672.4375,451.6406 C673.0156,451.2344 673.3438,450.7813 673.3438,450.3906 C673.3438,449.9375 672.9531,449.5469 672.4844,449.5469 C672.2656,449.5469 672.0625,449.625 671.875,449.8125 C671.4219,450.2969 671.4219,450.2969 671.2344,450.3906 C670.8125,450.6563 670.125,450.7813 669.3594,450.7813 C667.3125,450.7813 666.0156,449.6875 666.0156,447.9844 L666.0156,446.8906 C666.0156,445.1094 667.2656,443.7969 669,443.7969 C669.5781,443.7969 670.1875,443.9531 670.6563,444.2031 C671.1406,444.4844 671.3125,444.7031 671.4063,445.1094 C671.4688,445.5156 671.5,445.6406 671.6406,445.7656 C671.7813,445.9063 672.0156,446.0156 672.2344,446.0156 C672.5,446.0156 672.7656,445.875 672.9375,445.6563 C673.0469,445.5 673.0781,445.3125 673.0781,444.8906 L673.0781,443.4688 C673.0781,443.0313 673.0625,442.9063 672.9688,442.75 C672.8125,442.4844 672.5313,442.3438 672.2344,442.3438 C671.9375,442.3438 671.7344,442.4375 671.5156,442.75 L671.3438,442.6719 Z " fill="#000000"/><text fill="#000000" font-family="sans-serif" font-size="14" lengthAdjust="spacing" textLength="129" x="683" y="451.8467">Binary Translation</text><line style="stroke:#181818;stroke-width:0.5;" x1="655" x2="814" y1="463" y2="463"/><line style="stroke:#181818;stroke-width:0.5;" x1="655" x2="814" y1="471" y2="471"/></g><!--MD5=[5eff47a435e83e061280fb77e2ba2938]
class Hardware Synthesis--><g id="elem_Hardware Synthesis"><rect fill="#F1F1F1" height="48" id="Hardware Synthesis" rx="3.5" ry="3.5" style="stroke:#181818;stroke-width:0.5;" width="172" x="850.5" y="431"/><ellipse cx="865.5" cy="447" fill="#ADD1B2" rx="11" ry="11" style="stroke:#181818;stroke-width:1.0;"/><path d="M867.8438,442.6719 C866.9063,442.2344 866.3125,442.0938 865.4375,442.0938 C862.8125,442.0938 860.8125,444.1719 860.8125,446.8906 L860.8125,448.0156 C860.8125,450.5938 862.9219,452.4844 865.8125,452.4844 C867.0313,452.4844 868.1875,452.1875 868.9375,451.6406 C869.5156,451.2344 869.8438,450.7813 869.8438,450.3906 C869.8438,449.9375 869.4531,449.5469 868.9844,449.5469 C868.7656,449.5469 868.5625,449.625 868.375,449.8125 C867.9219,450.2969 867.9219,450.2969 867.7344,450.3906 C867.3125,450.6563 866.625,450.7813 865.8594,450.7813 C863.8125,450.7813 862.5156,449.6875 862.5156,447.9844 L862.5156,446.8906 C862.5156,445.1094 863.7656,443.7969 865.5,443.7969 C866.0781,443.7969 866.6875,443.9531 867.1563,444.2031 C867.6406,444.4844 867.8125,444.7031 867.9063,445.1094 C867.9688,445.5156 868,445.6406 868.1406,445.7656 C868.2813,445.9063 868.5156,446.0156 868.7344,446.0156 C869,446.0156 869.2656,445.875 869.4375,445.6563 C869.5469,445.5 869.5781,445.3125 869.5781,444.8906 L869.5781,443.4688 C869.5781,443.0313 869.5625,442.9063 869.4688,442.75 C869.3125,442.4844 869.0313,442.3438 868.7344,442.3438 C868.4375,442.3438 868.2344,442.4375 868.0156,442.75 L867.8438,442.6719 Z " fill="#000000"/><text fill="#000000" font-family="sans-serif" font-size="14" lengthAdjust="spacing" textLength="140" x="879.5" y="451.8467">Hardware Synthesis</text><line style="stroke:#181818;stroke-width:0.5;" x1="851.5" x2="1021.5" y1="463" y2="463"/><line style="stroke:#181818;stroke-width:0.5;" x1="851.5" x2="1021.5" y1="471" y2="471"/></g><!--MD5=[7be6657c7d7ecbbcd60530a0ae950533]
class Database Query Compiler?--><g id="elem_Database Query Compiler?"><rect fill="#F1F1F1" height="48" id="Database Query Compiler?" rx="3.5" ry="3.5" style="stroke:#181818;stroke-width:0.5;" width="223" x="1058" y="431"/><ellipse cx="1073" cy="447" fill="#ADD1B2" rx="11" ry="11" style="stroke:#181818;stroke-width:1.0;"/><path d="M1075.3438,442.6719 C1074.4063,442.2344 1073.8125,442.0938 1072.9375,442.0938 C1070.3125,442.0938 1068.3125,444.1719 1068.3125,446.8906 L1068.3125,448.0156 C1068.3125,450.5938 1070.4219,452.4844 1073.3125,452.4844 C1074.5313,452.4844 1075.6875,452.1875 1076.4375,451.6406 C1077.0156,451.2344 1077.3438,450.7813 1077.3438,450.3906 C1077.3438,449.9375 1076.9531,449.5469 1076.4844,449.5469 C1076.2656,449.5469 1076.0625,449.625 1075.875,449.8125 C1075.4219,450.2969 1075.4219,450.2969 1075.2344,450.3906 C1074.8125,450.6563 1074.125,450.7813 1073.3594,450.7813 C1071.3125,450.7813 1070.0156,449.6875 1070.0156,447.9844 L1070.0156,446.8906 C1070.0156,445.1094 1071.2656,443.7969 1073,443.7969 C1073.5781,443.7969 1074.1875,443.9531 1074.6563,444.2031 C1075.1406,444.4844 1075.3125,444.7031 1075.4063,445.1094 C1075.4688,445.5156 1075.5,445.6406 1075.6406,445.7656 C1075.7813,445.9063 1076.0156,446.0156 1076.2344,446.0156 C1076.5,446.0156 1076.7656,445.875 1076.9375,445.6563 C1077.0469,445.5 1077.0781,445.3125 1077.0781,444.8906 L1077.0781,443.4688 C1077.0781,443.0313 1077.0625,442.9063 1076.9688,442.75 C1076.8125,442.4844 1076.5313,442.3438 1076.2344,442.3438 C1075.9375,442.3438 1075.7344,442.4375 1075.5156,442.75 L1075.3438,442.6719 Z " fill="#000000"/><text fill="#000000" font-family="sans-serif" font-size="14" lengthAdjust="spacing" textLength="191" x="1087" y="451.8467">Database Query Compiler?</text><line style="stroke:#181818;stroke-width:0.5;" x1="1059" x2="1280" y1="463" y2="463"/><line style="stroke:#181818;stroke-width:0.5;" x1="1059" x2="1280" y1="471" y2="471"/></g><!--MD5=[a9e4f5ce4e3f93ffaf2602f84a2ae17b]
class Compiled Simulation--><g id="elem_Compiled Simulation"><rect fill="#F1F1F1" height="48" id="Compiled Simulation" rx="3.5" ry="3.5" style="stroke:#181818;stroke-width:0.5;" width="181" x="1316" y="431"/><ellipse cx="1331" cy="447" fill="#ADD1B2" rx="11" ry="11" style="stroke:#181818;stroke-width:1.0;"/><path d="M1333.3438,442.6719 C1332.4063,442.2344 1331.8125,442.0938 1330.9375,442.0938 C1328.3125,442.0938 1326.3125,444.1719 1326.3125,446.8906 L1326.3125,448.0156 C1326.3125,450.5938 1328.4219,452.4844 1331.3125,452.4844 C1332.5313,452.4844 1333.6875,452.1875 1334.4375,451.6406 C1335.0156,451.2344 1335.3438,450.7813 1335.3438,450.3906 C1335.3438,449.9375 1334.9531,449.5469 1334.4844,449.5469 C1334.2656,449.5469 1334.0625,449.625 1333.875,449.8125 C1333.4219,450.2969 1333.4219,450.2969 1333.2344,450.3906 C1332.8125,450.6563 1332.125,450.7813 1331.3594,450.7813 C1329.3125,450.7813 1328.0156,449.6875 1328.0156,447.9844 L1328.0156,446.8906 C1328.0156,445.1094 1329.2656,443.7969 1331,443.7969 C1331.5781,443.7969 1332.1875,443.9531 1332.6563,444.2031 C1333.1406,444.4844 1333.3125,444.7031 1333.4063,445.1094 C1333.4688,445.5156 1333.5,445.6406 1333.6406,445.7656 C1333.7813,445.9063 1334.0156,446.0156 1334.2344,446.0156 C1334.5,446.0156 1334.7656,445.875 1334.9375,445.6563 C1335.0469,445.5 1335.0781,445.3125 1335.0781,444.8906 L1335.0781,443.4688 C1335.0781,443.0313 1335.0625,442.9063 1334.9688,442.75 C1334.8125,442.4844 1334.5313,442.3438 1334.2344,442.3438 C1333.9375,442.3438 1333.7344,442.4375 1333.5156,442.75 L1333.3438,442.6719 Z " fill="#000000"/><text fill="#000000" font-family="sans-serif" font-size="14" lengthAdjust="spacing" textLength="149" x="1345" y="451.8467">Compiled Simulation</text><line style="stroke:#181818;stroke-width:0.5;" x1="1317" x2="1496" y1="463" y2="463"/><line style="stroke:#181818;stroke-width:0.5;" x1="1317" x2="1496" y1="471" y2="471"/></g><!--MD5=[9f7164d972f285892e2f0ec31664d638]
reverse link Artificial Language Processor to Compiler--><g id="link_Artificial Language Processor_Compiler"><path codeLine="9" d="M1370.5,224 C1370.5,224 1171.62,234.279 1022.5,283 C1016.95,284.815 1011.3,286.937 1005.7,289.248 " fill="none" id="Artificial Language Processor-backto-Compiler" style="stroke:#191919;stroke-width:1.0;"/></g><!--MD5=[b0accfe3fb647b694d64e1aa9f5999b1]
reverse link Artificial Language Processor to Interpreter--><g id="link_Artificial Language Processor_Interpreter"><path codeLine="10" d="M1370.5,224 C1370.5,224 1256.2,246.456 1171.5,283 C1158.68,288.533 1145.29,295.8 1133.49,302.782 " fill="none" id="Artificial Language Processor-backto-Interpreter" style="stroke:#191919;stroke-width:1.0;"/></g><!--MD5=[22b622deacc4c785211af013106499e7]
reverse link Artificial Language Processor to Assembler--><g id="link_Artificial Language Processor_Assembler"><path codeLine="11" d="M1370.5,224 C1370.5,224 1309.79,272.76 1272.32,302.855 " fill="none" id="Artificial Language Processor-backto-Assembler" style="stroke:#191919;stroke-width:1.0;"/></g><!--MD5=[a1bc46ba903150d6064c4a7d0f9a78f0]
reverse link Artificial Language Processor to Linker--><g id="link_Artificial Language Processor_Linker"><path codeLine="12" d="M1370.5,224 C1370.5,224 1370.98,272.76 1371.27,302.855 " fill="none" id="Artificial Language Processor-backto-Linker" style="stroke:#191919;stroke-width:1.0;"/></g><!--MD5=[478850478602502960ea3f1c4dd72c31]
reverse link Artificial Language Processor to Loader--><g id="link_Artificial Language Processor_Loader"><path codeLine="13" d="M1370.5,224 C1370.5,224 1425.47,272.76 1459.4,302.855 " fill="none" id="Artificial Language Processor-backto-Loader" style="stroke:#191919;stroke-width:1.0;"/></g><!--MD5=[763ab94b6011ba656e9ac239ef1ac104]
reverse link Artificial Language Processor to Debugger--><g id="link_Artificial Language Processor_Debugger"><path codeLine="14" d="M1370.5,224 C1370.5,224 1470.1,248.179 1543.5,283 C1555.49,288.687 1567.97,295.995 1578.98,302.967 " fill="none" id="Artificial Language Processor-backto-Debugger" style="stroke:#191919;stroke-width:1.0;"/></g><!--MD5=[ca4d7242b506b507291eb40f233c144f]
reverse link Artificial Language Processor to Profiler--><g id="link_Artificial Language Processor_Profiler"><path codeLine="15" d="M1370.5,224 C1370.5,224 1552.17,227.611 1681.5,283 C1693.16,287.995 1704.78,295.557 1714.64,302.954 " fill="none" id="Artificial Language Processor-backto-Profiler" style="stroke:#191919;stroke-width:1.0;"/></g><!--MD5=[5fe49dd6171c949bf1395bd5007ac5cd]
reverse link Language Processor to Artificial Language Processor--><g id="link_Language Processor_Artificial Language Processor"><path codeLine="16" d="M1515.5,76 C1515.5,76 1471.82,106.943 1432.57,134.743 " fill="none" id="Language Processor-backto-Artificial Language Processor" style="stroke:#191919;stroke-width:1.0;"/></g><!--MD5=[cd4147692e32f17d3652354ab7cf5981]
reverse link Language Processor to Natural Language Processor--><g id="link_Language Processor_Natural Language Processor"><path codeLine="17" d="M1515.5,76 C1515.5,76 1584.82,124.76 1627.6,154.855 " fill="none" id="Language Processor-backto-Natural Language Processor" style="stroke:#191919;stroke-width:1.0;"/></g><!--MD5=[14a314714691afa9f2898e832e941a1a]
reverse link Compiler to High-level Programming Language--><g id="link_Compiler_High-level Programming Language"><path codeLine="19" d="M937.5,372 C937.5,372 743.895,406.7388 608.712,430.9948 " fill="none" id="Compiler-backto-High-level Programming Language" style="stroke:#191919;stroke-width:1.0;"/></g><!--MD5=[6fed08d62005b77bd35ce3f6ac912f16]
reverse link Compiler to Binary Translation--><g id="link_Compiler_Binary Translation"><path codeLine="21" d="M937.5,372 C937.5,372 851.629,406.6867 791.587,430.9402 " fill="none" id="Compiler-backto-Binary Translation" style="stroke:#191919;stroke-width:1.0;"/></g><!--MD5=[6729a73f929b3b69b25daca4c31bcf92]
reverse link Compiler to Hardware Synthesis--><g id="link_Compiler_Hardware Synthesis"><path codeLine="22" d="M937.5,372 C937.5,372 937.08,406.4786 936.784,430.7214 " fill="none" id="Compiler-backto-Hardware Synthesis" style="stroke:#191919;stroke-width:1.0;"/></g><!--MD5=[51d7383d150c9d21ea3015c543a06009]
reverse link Compiler to Database Query Compiler?--><g id="link_Compiler_Database Query Compiler?"><path codeLine="23" d="M937.5,372 C937.5,372 1035.64,406.6867 1104.26,430.9402 " fill="none" id="Compiler-backto-Database Query Compiler?" style="stroke:#191919;stroke-width:1.0;"/></g><!--MD5=[8899c5bc871abd5712f81d800cb74d48]
reverse link Compiler to Compiled Simulation--><g id="link_Compiler_Compiled Simulation"><path codeLine="24" d="M937.5,372 C937.5,372 1138.73,400.949 1298.5,431 C1304.15,432.0631 1309.96,433.1929 1315.82,434.3591 " fill="none" id="Compiler-backto-Compiled Simulation" style="stroke:#191919;stroke-width:1.0;"/></g><!--MD5=[7813775e7a7a0cdbc993701fb10d6d05]
@startuml
!theme mars
skinparam groupInheritance 2
class "Language Processor"
class "Artificial Language Processor"
note left: It's called translator or computer language processor too.
class "Natural Language Processor"
class Compiler
class Interpreter
"Artificial Language Processor" <|- - Compiler
"Artificial Language Processor" <|- - Interpreter
"Artificial Language Processor" <|- - Assembler
"Artificial Language Processor" <|- - Linker
"Artificial Language Processor" <|- - Loader
"Artificial Language Processor" <|- - Debugger
"Artificial Language Processor" <|- - Profiler
"Language Processor" <|- - "Artificial Language Processor"
"Language Processor" <|- - "Natural Language Processor"
note right: Sometimes called computational linguistics
Compiler <|- - "High-level Programming Language"
note left: You think by default in this kind of compiler.
Compiler <|- - "Binary Translation"
Compiler <|- - "Hardware Synthesis"
Compiler <|- - "Database Query Compiler?"
Compiler <|- - "Compiled Simulation"
@enduml

@startuml
skinparam BackgroundColor F9F9F9
skinparam shadowing false
skinparam RoundCorner 7
skinparam ArrowColor 191919
skinparam FontColor 191919
skinparam SequenceLifeLineBorderColor 393939
skinparam SequenceGroupHeaderFontColor 191919
skinparam SequenceGroupFontColor 393939
skinparam SequenceGroupBorderColor 393939
skinparam SequenceGroupBorderThickness 1

skinparam sequenceDivider {
    BorderColor 191919
    BorderThickness 1
    FontColor 191919
}

skinparam participant {
    BackgroundColor E55756
    BorderColor 191919
    FontColor F9F9F9
    BorderThickness 1.5
}

skinparam database {
    BackgroundColor A4DBD8
    BorderColor 191919
    FontColor 191919
}

skinparam entity {
    BackgroundColor EFBABC
    BorderColor 191919
    FontColor 191919
}

skinparam note {
    BackgroundColor e5e5e5
    BorderColor 191919
    FontColor 191919
    BorderThickness 1.5
}

skinparam actor {
    BackgroundColor 191919
    BorderColor 191919
    FontColor 191919
}

skinparam boundary {
    BackgroundColor EFBABC
    BorderColor 191919
    FontColor 191919
}

skinparam control {
    BackgroundColor EFBABC
    BorderColor 191919
    FontColor 191919
}

skinparam collections {
    BackgroundColor E55756
    BorderColor 191919
    FontColor 191919
    BorderThickness 1.5
}

skinparam queue {
    BackgroundColor E55756
    BorderColor 191919
    FontColor FFF
    BorderThickness 1.5
}
skinparam groupInheritance 2
class "Language Processor"
class "Artificial Language Processor"
note left: It's called translator or computer language processor too.
class "Natural Language Processor"
class Compiler
class Interpreter
"Artificial Language Processor" <|- - Compiler
"Artificial Language Processor" <|- - Interpreter
"Artificial Language Processor" <|- - Assembler
"Artificial Language Processor" <|- - Linker
"Artificial Language Processor" <|- - Loader
"Artificial Language Processor" <|- - Debugger
"Artificial Language Processor" <|- - Profiler
"Language Processor" <|- - "Artificial Language Processor"
"Language Processor" <|- - "Natural Language Processor"
note right: Sometimes called computational linguistics
Compiler <|- - "High-level Programming Language"
note left: You think by default in this kind of compiler.
Compiler <|- - "Binary Translation"
Compiler <|- - "Hardware Synthesis"
Compiler <|- - "Database Query Compiler?"
Compiler <|- - "Compiled Simulation"
@enduml

PlantUML version 1.2022.8beta2(Unknown compile time)
(GPL source distribution)
Java Runtime: Java(TM) SE Runtime Environment
JVM: Java HotSpot(TM) 64-Bit Server VM
Default Encoding: UTF-8
Language: en
Country: US
--></g></svg>