<?xml version="1.0" encoding="UTF-8" standalone="no"?>
<svg xmlns="http://www.w3.org/2000/svg" xmlns:xlink="http://www.w3.org/1999/xlink" contentStyleType="text/css" height="1616.6667px" preserveAspectRatio="none" style="width:1628px;height:1616px;background:#00000000;" version="1.1" viewBox="0 0 1628 1616" width="1628.125px" zoomAndPan="magnify"><defs><linearGradient id="gtdebd8xk6c1a0" x1="50%" x2="50%" y1="0%" y2="100%"><stop offset="0%" stop-color="#D3F198"/><stop offset="100%" stop-color="#B5E853"/></linearGradient></defs><g><!--MD5=[09c4d209b07612e18b512840160e8db5]
class Grammar--><g id="elem_Grammar"><rect codeLine="4" fill="url(#gtdebd8xk6c1a0)" height="525.9359" id="Grammar" rx="20.8333" ry="20.8333" style="stroke:#000000;stroke-width:1.0416666666666667;" width="247.9167" x="623.9583" y="155.2083"/><rect fill="url(#gtdebd8xk6c1a0)" height="34.1715" rx="20.8333" ry="20.8333" style="stroke:url(#gtdebd8xk6c1a0);stroke-width:1.0416666666666667;" width="247.9167" x="623.9583" y="155.2083"/><rect fill="url(#gtdebd8xk6c1a0)" height="20.8333" style="stroke:url(#gtdebd8xk6c1a0);stroke-width:1.0416666666666667;" width="247.9167" x="623.9583" y="168.5465"/><rect codeLine="4" fill="none" height="525.9359" id="Grammar" rx="20.8333" ry="20.8333" style="stroke:#000000;stroke-width:1.0416666666666667;" width="247.9167" x="623.9583" y="155.2083"/><ellipse cx="710.9375" cy="172.2941" rx="10.4167" ry="10.4167" style="stroke:#6D8B32;stroke-width:1.0416666666666667;fill:none;"/><path d="M712.8743,168.9087 C712.1908,168.5832 711.7513,168.4855 711.1003,168.4855 C709.1797,168.4855 707.6986,169.9992 707.6986,172.0011 L707.6986,172.8312 C707.6986,174.7355 709.2611,176.119 711.377,176.119 C712.2721,176.119 713.1348,175.8911 713.6719,175.4842 C714.1113,175.1912 714.3392,174.8657 714.3392,174.5728 C714.3392,174.2472 714.0462,173.9543 713.7207,173.9543 C713.5579,173.9543 713.4115,174.0194 713.265,174.1496 C712.9232,174.5076 712.9232,174.5076 712.793,174.5728 C712.4837,174.7681 711.9792,174.8657 711.4095,174.8657 C709.9121,174.8657 708.9518,174.0519 708.9518,172.7987 L708.9518,172.0011 C708.9518,170.6828 709.8796,169.7225 711.1491,169.7225 C711.5723,169.7225 712.028,169.8364 712.3698,170.0317 C712.7279,170.2271 712.8581,170.3898 712.9232,170.6828 C712.972,170.992 712.9883,171.0734 713.0859,171.1711 C713.1836,171.285 713.3626,171.3501 713.5254,171.3501 C713.737,171.3501 713.916,171.2524 714.0462,171.0897 C714.1276,170.9757 714.1602,170.8455 714.1602,170.52 L714.1602,169.4784 C714.1602,169.1691 714.1439,169.0715 714.0625,168.9575 C713.9486,168.7622 713.7533,168.6483 713.5254,168.6483 C713.3138,168.6483 713.1673,168.7297 713.0046,168.9575 L712.8743,168.9087 Z " fill="#151515"/><text fill="#151515" font-family="&quot;Verdana&quot;" font-size="11.4583" lengthAdjust="spacing" textLength="55.2083" x="735.9375" y="176.2609">Grammar</text><line style="stroke:#000000;stroke-width:1.0416666666666667;" x1="625" x2="870.8333" y1="189.3799" y2="189.3799"/><text fill="#151515" font-family="&quot;Verdana&quot;" font-size="11.4583" lengthAdjust="spacing" textLength="4.1667" x="635.4167" y="209.3908"> </text><text fill="#151515" font-family="&quot;Verdana&quot;" font-size="11.4583" lengthAdjust="spacing" textLength="135.4167" x="635.4167" y="233.1457">variables : set&lt;string&gt;</text><text fill="#151515" font-family="&quot;Verdana&quot;" font-size="11.4583" lengthAdjust="spacing" textLength="4.1667" x="635.4167" y="256.9005"> </text><text fill="#151515" font-family="&quot;Verdana&quot;" font-size="11.4583" lengthAdjust="spacing" textLength="177.0833" x="635.4167" y="280.6554">terminalSymbols: set&lt;string&gt;</text><text fill="#151515" font-family="&quot;Verdana&quot;" font-size="11.4583" lengthAdjust="spacing" textLength="4.1667" x="635.4167" y="304.4103"> </text><text fill="#151515" font-family="&quot;Verdana&quot;" font-size="11.4583" lengthAdjust="spacing" textLength="114.5833" x="635.4167" y="328.1652">startVariable: string</text><text fill="#151515" font-family="&quot;Verdana&quot;" font-size="11.4583" lengthAdjust="spacing" textLength="4.1667" x="635.4167" y="351.9201"> </text><text fill="#151515" font-family="&quot;Verdana&quot;" font-size="11.4583" lengthAdjust="spacing" textLength="225" x="635.4167" y="375.6749">productionRules: set&lt;ProductionRule&gt;</text><text fill="#151515" font-family="&quot;Verdana&quot;" font-size="11.4583" lengthAdjust="spacing" textLength="4.1667" x="635.4167" y="399.4298"> </text><line style="stroke:#000000;stroke-width:1.0416666666666667;" x1="625" x2="870.8333" y1="411.5072" y2="411.5072"/><text fill="#151515" font-family="&quot;Verdana&quot;" font-size="11.4583" lengthAdjust="spacing" textLength="187.5" x="635.4167" y="431.518">generateLanguage(): Language</text><text fill="#151515" font-family="&quot;Verdana&quot;" font-size="11.4583" lengthAdjust="spacing" textLength="4.1667" x="635.4167" y="455.2729"> </text><text fill="#151515" font-family="&quot;Verdana&quot;" font-size="11.4583" lengthAdjust="spacing" textLength="166.6667" x="635.4167" y="479.0278">derivate(string): ParseTree[]</text><text fill="#151515" font-family="&quot;Verdana&quot;" font-size="11.4583" lengthAdjust="spacing" textLength="4.1667" x="635.4167" y="502.7827"> </text><text fill="#151515" font-family="&quot;Verdana&quot;" font-size="11.4583" lengthAdjust="spacing" textLength="156.25" x="635.4167" y="526.5376">toAutomaton(): Automaton</text><text fill="#151515" font-family="&quot;Verdana&quot;" font-size="11.4583" lengthAdjust="spacing" textLength="4.1667" x="635.4167" y="550.2925"> </text><text fill="#151515" font-family="&quot;Verdana&quot;" font-size="11.4583" lengthAdjust="spacing" textLength="73.9583" x="635.4167" y="574.0473">parse(string)</text><text fill="#151515" font-family="&quot;Verdana&quot;" font-size="11.4583" lengthAdjust="spacing" textLength="4.1667" x="635.4167" y="597.8022"> </text><text fill="#151515" font-family="&quot;Verdana&quot;" font-size="11.4583" lengthAdjust="spacing" textLength="114.5833" x="635.4167" y="621.5571">removeAmbiguity()</text><text fill="#151515" font-family="&quot;Verdana&quot;" font-size="11.4583" lengthAdjust="spacing" textLength="4.1667" x="635.4167" y="645.312"> </text><text fill="#151515" font-family="&quot;Verdana&quot;" font-size="11.4583" lengthAdjust="spacing" textLength="101.0417" x="635.4167" y="669.0669">determineType()</text></g><!--MD5=[207490e87a464fe7fdda4d66c652855e]
class TuringMachine--><g id="elem_TuringMachine"><rect codeLine="28" fill="url(#gtdebd8xk6c1a0)" height="50.8382" id="TuringMachine" rx="20.8333" ry="20.8333" style="stroke:#D3F198;stroke-width:1.0416666666666667;" width="127.0833" x="397.9167" y="1082.2917"/><rect fill="url(#gtdebd8xk6c1a0)" height="34.1715" rx="20.8333" ry="20.8333" style="stroke:url(#gtdebd8xk6c1a0);stroke-width:1.0416666666666667;" width="127.0833" x="397.9167" y="1082.2917"/><rect fill="url(#gtdebd8xk6c1a0)" height="20.8333" style="stroke:url(#gtdebd8xk6c1a0);stroke-width:1.0416666666666667;" width="127.0833" x="397.9167" y="1095.6299"/><rect codeLine="28" fill="none" height="50.8382" id="TuringMachine" rx="20.8333" ry="20.8333" style="stroke:#D3F198;stroke-width:1.0416666666666667;" width="127.0833" x="397.9167" y="1082.2917"/><ellipse cx="412.5" cy="1099.3774" rx="10.4167" ry="10.4167" style="stroke:#6D8B32;stroke-width:1.0416666666666667;fill:none;"/><path d="M414.4368,1095.992 C413.7533,1095.6665 413.3138,1095.5688 412.6628,1095.5688 C410.7422,1095.5688 409.2611,1097.0825 409.2611,1099.0845 L409.2611,1099.9146 C409.2611,1101.8188 410.8236,1103.2023 412.9395,1103.2023 C413.8346,1103.2023 414.6973,1102.9744 415.2344,1102.5675 C415.6738,1102.2746 415.9017,1101.9491 415.9017,1101.6561 C415.9017,1101.3306 415.6087,1101.0376 415.2832,1101.0376 C415.1204,1101.0376 414.974,1101.1027 414.8275,1101.2329 C414.4857,1101.591 414.4857,1101.591 414.3555,1101.6561 C414.0462,1101.8514 413.5417,1101.9491 412.972,1101.9491 C411.4746,1101.9491 410.5143,1101.1353 410.5143,1099.882 L410.5143,1099.0845 C410.5143,1097.7661 411.4421,1096.8058 412.7116,1096.8058 C413.1348,1096.8058 413.5905,1096.9198 413.9323,1097.1151 C414.2904,1097.3104 414.4206,1097.4731 414.4857,1097.7661 C414.5345,1098.0754 414.5508,1098.1567 414.6484,1098.2544 C414.7461,1098.3683 414.9251,1098.4334 415.0879,1098.4334 C415.2995,1098.4334 415.4785,1098.3358 415.6087,1098.173 C415.6901,1098.0591 415.7227,1097.9289 415.7227,1097.6034 L415.7227,1096.5617 C415.7227,1096.2524 415.7064,1096.1548 415.625,1096.0409 C415.5111,1095.8455 415.3158,1095.7316 415.0879,1095.7316 C414.8763,1095.7316 414.7298,1095.813 414.5671,1096.0409 L414.4368,1095.992 Z " fill="#151515"/><text fill="#151515" font-family="&quot;Verdana&quot;" font-size="11.4583" lengthAdjust="spacing" textLength="85.4167" x="431.25" y="1103.3442">TuringMachine</text><line style="stroke:#D3F198;stroke-width:1.0416666666666667;" x1="398.9583" x2="523.9583" y1="1116.4632" y2="1116.4632"/><line style="stroke:#D3F198;stroke-width:1.0416666666666667;" x1="398.9583" x2="523.9583" y1="1124.7965" y2="1124.7965"/></g><!--MD5=[9ab39d9fa1a740b5813c0ce62de49814]
class PushDownAutomaton--><g id="elem_PushDownAutomaton"><rect codeLine="29" fill="url(#gtdebd8xk6c1a0)" height="50.8382" id="PushDownAutomaton" rx="20.8333" ry="20.8333" style="stroke:#D3F198;stroke-width:1.0416666666666667;" width="166.6667" x="642.7083" y="1082.2917"/><rect fill="url(#gtdebd8xk6c1a0)" height="34.1715" rx="20.8333" ry="20.8333" style="stroke:url(#gtdebd8xk6c1a0);stroke-width:1.0416666666666667;" width="166.6667" x="642.7083" y="1082.2917"/><rect fill="url(#gtdebd8xk6c1a0)" height="20.8333" style="stroke:url(#gtdebd8xk6c1a0);stroke-width:1.0416666666666667;" width="166.6667" x="642.7083" y="1095.6299"/><rect codeLine="29" fill="none" height="50.8382" id="PushDownAutomaton" rx="20.8333" ry="20.8333" style="stroke:#D3F198;stroke-width:1.0416666666666667;" width="166.6667" x="642.7083" y="1082.2917"/><ellipse cx="657.2917" cy="1099.3774" rx="10.4167" ry="10.4167" style="stroke:#6D8B32;stroke-width:1.0416666666666667;fill:none;"/><path d="M659.2285,1095.992 C658.5449,1095.6665 658.1055,1095.5688 657.4544,1095.5688 C655.5339,1095.5688 654.0527,1097.0825 654.0527,1099.0845 L654.0527,1099.9146 C654.0527,1101.8188 655.6152,1103.2023 657.7311,1103.2023 C658.6263,1103.2023 659.4889,1102.9744 660.026,1102.5675 C660.4655,1102.2746 660.6934,1101.9491 660.6934,1101.6561 C660.6934,1101.3306 660.4004,1101.0376 660.0749,1101.0376 C659.9121,1101.0376 659.7656,1101.1027 659.6191,1101.2329 C659.2773,1101.591 659.2773,1101.591 659.1471,1101.6561 C658.8379,1101.8514 658.3333,1101.9491 657.7637,1101.9491 C656.2663,1101.9491 655.306,1101.1353 655.306,1099.882 L655.306,1099.0845 C655.306,1097.7661 656.2337,1096.8058 657.5033,1096.8058 C657.9264,1096.8058 658.3822,1096.9198 658.724,1097.1151 C659.082,1097.3104 659.2122,1097.4731 659.2773,1097.7661 C659.3262,1098.0754 659.3424,1098.1567 659.4401,1098.2544 C659.5378,1098.3683 659.7168,1098.4334 659.8796,1098.4334 C660.0911,1098.4334 660.2702,1098.3358 660.4004,1098.173 C660.4818,1098.0591 660.5143,1097.9289 660.5143,1097.6034 L660.5143,1096.5617 C660.5143,1096.2524 660.498,1096.1548 660.4167,1096.0409 C660.3027,1095.8455 660.1074,1095.7316 659.8796,1095.7316 C659.668,1095.7316 659.5215,1095.813 659.3587,1096.0409 L659.2285,1095.992 Z " fill="#151515"/><text fill="#151515" font-family="&quot;Verdana&quot;" font-size="11.4583" lengthAdjust="spacing" textLength="125" x="676.0417" y="1103.3442">PushDownAutomaton</text><line style="stroke:#D3F198;stroke-width:1.0416666666666667;" x1="643.75" x2="808.3333" y1="1116.4632" y2="1116.4632"/><line style="stroke:#D3F198;stroke-width:1.0416666666666667;" x1="643.75" x2="808.3333" y1="1124.7965" y2="1124.7965"/></g><!--MD5=[152be47d7fdfaf396e99b43e8b85dcd9]
class BoundLinearAutomaton--><g id="elem_BoundLinearAutomaton"><rect codeLine="30" fill="url(#gtdebd8xk6c1a0)" height="50.8382" id="BoundLinearAutomaton" rx="20.8333" ry="20.8333" style="stroke:#D3F198;stroke-width:1.0416666666666667;" width="180.2083" x="1016.1458" y="1082.2917"/><rect fill="url(#gtdebd8xk6c1a0)" height="34.1715" rx="20.8333" ry="20.8333" style="stroke:url(#gtdebd8xk6c1a0);stroke-width:1.0416666666666667;" width="180.2083" x="1016.1458" y="1082.2917"/><rect fill="url(#gtdebd8xk6c1a0)" height="20.8333" style="stroke:url(#gtdebd8xk6c1a0);stroke-width:1.0416666666666667;" width="180.2083" x="1016.1458" y="1095.6299"/><rect codeLine="30" fill="none" height="50.8382" id="BoundLinearAutomaton" rx="20.8333" ry="20.8333" style="stroke:#D3F198;stroke-width:1.0416666666666667;" width="180.2083" x="1016.1458" y="1082.2917"/><ellipse cx="1030.7292" cy="1099.3774" rx="10.4167" ry="10.4167" style="stroke:#6D8B32;stroke-width:1.0416666666666667;fill:none;"/><path d="M1032.666,1095.992 C1031.9824,1095.6665 1031.543,1095.5688 1030.8919,1095.5688 C1028.9714,1095.5688 1027.4902,1097.0825 1027.4902,1099.0845 L1027.4902,1099.9146 C1027.4902,1101.8188 1029.0527,1103.2023 1031.1686,1103.2023 C1032.0638,1103.2023 1032.9264,1102.9744 1033.4635,1102.5675 C1033.903,1102.2746 1034.1309,1101.9491 1034.1309,1101.6561 C1034.1309,1101.3306 1033.8379,1101.0376 1033.5124,1101.0376 C1033.3496,1101.0376 1033.2031,1101.1027 1033.0566,1101.2329 C1032.7148,1101.591 1032.7148,1101.591 1032.5846,1101.6561 C1032.2754,1101.8514 1031.7708,1101.9491 1031.2012,1101.9491 C1029.7038,1101.9491 1028.7435,1101.1353 1028.7435,1099.882 L1028.7435,1099.0845 C1028.7435,1097.7661 1029.6712,1096.8058 1030.9408,1096.8058 C1031.3639,1096.8058 1031.8197,1096.9198 1032.1615,1097.1151 C1032.5195,1097.3104 1032.6497,1097.4731 1032.7148,1097.7661 C1032.7637,1098.0754 1032.7799,1098.1567 1032.8776,1098.2544 C1032.9753,1098.3683 1033.1543,1098.4334 1033.3171,1098.4334 C1033.5286,1098.4334 1033.7077,1098.3358 1033.8379,1098.173 C1033.9193,1098.0591 1033.9518,1097.9289 1033.9518,1097.6034 L1033.9518,1096.5617 C1033.9518,1096.2524 1033.9355,1096.1548 1033.8542,1096.0409 C1033.7402,1095.8455 1033.5449,1095.7316 1033.3171,1095.7316 C1033.1055,1095.7316 1032.959,1095.813 1032.7962,1096.0409 L1032.666,1095.992 Z " fill="#151515"/><text fill="#151515" font-family="&quot;Verdana&quot;" font-size="11.4583" lengthAdjust="spacing" textLength="138.5417" x="1049.4792" y="1103.3442">BoundLinearAutomaton</text><line style="stroke:#D3F198;stroke-width:1.0416666666666667;" x1="1017.1875" x2="1195.3125" y1="1116.4632" y2="1116.4632"/><line style="stroke:#D3F198;stroke-width:1.0416666666666667;" x1="1017.1875" x2="1195.3125" y1="1124.7965" y2="1124.7965"/></g><!--MD5=[d8117d105ba75be3294ecff542397f50]
class FiniteAutomaton--><g id="elem_FiniteAutomaton"><rect codeLine="88" fill="url(#gtdebd8xk6c1a0)" height="169.6126" id="FiniteAutomaton" rx="20.8333" ry="20.8333" style="stroke:#D3F198;stroke-width:1.0416666666666667;" width="137.5" x="1340.625" y="1022.9167"/><rect fill="url(#gtdebd8xk6c1a0)" height="34.1715" rx="20.8333" ry="20.8333" style="stroke:url(#gtdebd8xk6c1a0);stroke-width:1.0416666666666667;" width="137.5" x="1340.625" y="1022.9167"/><rect fill="url(#gtdebd8xk6c1a0)" height="20.8333" style="stroke:url(#gtdebd8xk6c1a0);stroke-width:1.0416666666666667;" width="137.5" x="1340.625" y="1036.2549"/><rect codeLine="88" fill="none" height="169.6126" id="FiniteAutomaton" rx="20.8333" ry="20.8333" style="stroke:#D3F198;stroke-width:1.0416666666666667;" width="137.5" x="1340.625" y="1022.9167"/><ellipse cx="1355.2083" cy="1040.0024" rx="10.4167" ry="10.4167" style="stroke:#6D8B32;stroke-width:1.0416666666666667;fill:none;"/><path d="M1356.7546,1041.158 L1357.0475,1041.8742 L1356.7546,1041.8742 C1356.4453,1041.8742 1356.3477,1041.8905 1356.2337,1041.9718 C1356.0547,1042.0695 1355.9408,1042.2974 1355.9408,1042.509 C1355.9408,1042.7043 1356.0384,1042.8833 1356.2012,1042.9972 C1356.3151,1043.0949 1356.4616,1043.1274 1356.7546,1043.1274 L1358.4961,1043.1274 C1358.7565,1043.1274 1358.9193,1043.0949 1359.0169,1043.0461 C1359.2122,1042.9321 1359.3262,1042.7205 1359.3262,1042.509 C1359.3262,1042.2974 1359.2285,1042.1183 1359.0658,1042.0044 C1358.9355,1041.9067 1358.8216,1041.8742 1358.4798,1041.8742 L1355.9896,1035.8358 L1353.2878,1035.8358 C1352.946,1035.8358 1352.8646,1035.8521 1352.7507,1035.9334 C1352.5553,1036.0474 1352.4577,1036.259 1352.4577,1036.4705 C1352.4577,1036.6659 1352.5553,1036.8449 1352.7181,1036.9751 C1352.832,1037.0728 1352.9622,1037.089 1353.2878,1037.089 L1354.069,1037.089 L1352.1322,1041.8742 C1351.8229,1041.8742 1351.709,1041.8905 1351.5951,1041.9718 C1351.416,1042.0695 1351.3021,1042.2974 1351.3021,1042.509 C1351.3021,1042.9159 1351.5788,1043.1274 1352.1322,1043.1274 L1353.7923,1043.1274 C1354.0527,1043.1274 1354.2155,1043.0949 1354.3132,1043.0461 C1354.4922,1042.9321 1354.6061,1042.7205 1354.6061,1042.509 C1354.6061,1042.2974 1354.5085,1042.1183 1354.3457,1041.9881 C1354.2318,1041.9067 1354.1178,1041.8742 1353.7923,1041.8742 L1353.4993,1041.8742 L1353.7923,1041.158 L1356.7546,1041.158 Z M1356.25,1039.9048 L1354.2806,1039.9048 L1355.2734,1037.4959 L1356.25,1039.9048 Z " fill="#151515"/><text fill="#151515" font-family="&quot;Verdana&quot;" font-size="11.4583" font-style="italic" lengthAdjust="spacing" textLength="95.8333" x="1373.9583" y="1043.9692">FiniteAutomaton</text><line style="stroke:#D3F198;stroke-width:1.0416666666666667;" x1="1341.6667" x2="1477.0833" y1="1057.0882" y2="1057.0882"/><text fill="#151515" font-family="&quot;Verdana&quot;" font-size="11.4583" lengthAdjust="spacing" textLength="30.2083" x="1352.0833" y="1077.0991">delta</text><text fill="#151515" font-family="&quot;Verdana&quot;" font-size="11.4583" lengthAdjust="spacing" textLength="52.0833" x="1352.0833" y="1100.854">alphabet</text><text fill="#151515" font-family="&quot;Verdana&quot;" font-size="11.4583" lengthAdjust="spacing" textLength="36.4583" x="1352.0833" y="1124.6089">states</text><text fill="#151515" font-family="&quot;Verdana&quot;" font-size="11.4583" lengthAdjust="spacing" textLength="58.3333" x="1352.0833" y="1148.3637">startState</text><text fill="#151515" font-family="&quot;Verdana&quot;" font-size="11.4583" lengthAdjust="spacing" textLength="67.7083" x="1352.0833" y="1172.1186">actualState</text><line style="stroke:#D3F198;stroke-width:1.0416666666666667;" x1="1341.6667" x2="1477.0833" y1="1184.196" y2="1184.196"/></g><!--MD5=[5da8f06d7557285175f081f10e04cd48]
class ParseTree--><g id="elem_ParseTree"><rect codeLine="33" fill="url(#gtdebd8xk6c1a0)" height="50.8382" id="ParseTree" rx="20.8333" ry="20.8333" style="stroke:#D3F198;stroke-width:1.0416666666666667;" width="102.0833" x="17.7083" y="826.5625"/><rect fill="url(#gtdebd8xk6c1a0)" height="34.1715" rx="20.8333" ry="20.8333" style="stroke:url(#gtdebd8xk6c1a0);stroke-width:1.0416666666666667;" width="102.0833" x="17.7083" y="826.5625"/><rect fill="url(#gtdebd8xk6c1a0)" height="20.8333" style="stroke:url(#gtdebd8xk6c1a0);stroke-width:1.0416666666666667;" width="102.0833" x="17.7083" y="839.9007"/><rect codeLine="33" fill="none" height="50.8382" id="ParseTree" rx="20.8333" ry="20.8333" style="stroke:#D3F198;stroke-width:1.0416666666666667;" width="102.0833" x="17.7083" y="826.5625"/><ellipse cx="32.2917" cy="843.6483" rx="10.4167" ry="10.4167" style="stroke:#6D8B32;stroke-width:1.0416666666666667;fill:none;"/><path d="M34.2285,840.2629 C33.5449,839.9373 33.1055,839.8397 32.4544,839.8397 C30.5339,839.8397 29.0527,841.3534 29.0527,843.3553 L29.0527,844.1854 C29.0527,846.0897 30.6152,847.4731 32.7311,847.4731 C33.6263,847.4731 34.4889,847.2453 35.026,846.8384 C35.4655,846.5454 35.6934,846.2199 35.6934,845.9269 C35.6934,845.6014 35.4004,845.3084 35.0749,845.3084 C34.9121,845.3084 34.7656,845.3735 34.6191,845.5037 C34.2773,845.8618 34.2773,845.8618 34.1471,845.9269 C33.8379,846.1222 33.3333,846.2199 32.7637,846.2199 C31.2663,846.2199 30.306,845.4061 30.306,844.1528 L30.306,843.3553 C30.306,842.0369 31.2337,841.0767 32.5033,841.0767 C32.9264,841.0767 33.3822,841.1906 33.724,841.3859 C34.082,841.5812 34.2122,841.744 34.2773,842.0369 C34.3262,842.3462 34.3424,842.4276 34.4401,842.5252 C34.5378,842.6392 34.7168,842.7043 34.8796,842.7043 C35.0911,842.7043 35.2702,842.6066 35.4004,842.4438 C35.4818,842.3299 35.5143,842.1997 35.5143,841.8742 L35.5143,840.8325 C35.5143,840.5233 35.498,840.4256 35.4167,840.3117 C35.3027,840.1164 35.1074,840.0024 34.8796,840.0024 C34.668,840.0024 34.5215,840.0838 34.3587,840.3117 L34.2285,840.2629 Z " fill="#151515"/><text fill="#151515" font-family="&quot;Verdana&quot;" font-size="11.4583" lengthAdjust="spacing" textLength="60.4167" x="51.0417" y="847.6151">ParseTree</text><line style="stroke:#D3F198;stroke-width:1.0416666666666667;" x1="18.75" x2="118.75" y1="860.734" y2="860.734"/><line style="stroke:#D3F198;stroke-width:1.0416666666666667;" x1="18.75" x2="118.75" y1="869.0674" y2="869.0674"/></g><!--MD5=[604575fdb45ee3504bf55618cb71a1d3]
class Language--><g id="elem_Language"><rect codeLine="35" fill="url(#gtdebd8xk6c1a0)" height="217.1224" id="Language" rx="20.8333" ry="20.8333" style="stroke:#000000;stroke-width:1.0416666666666667;" width="176.0417" x="156.7708" y="743.75"/><rect fill="url(#gtdebd8xk6c1a0)" height="34.1715" rx="20.8333" ry="20.8333" style="stroke:url(#gtdebd8xk6c1a0);stroke-width:1.0416666666666667;" width="176.0417" x="156.7708" y="743.75"/><rect fill="url(#gtdebd8xk6c1a0)" height="20.8333" style="stroke:url(#gtdebd8xk6c1a0);stroke-width:1.0416666666666667;" width="176.0417" x="156.7708" y="757.0882"/><rect codeLine="35" fill="none" height="217.1224" id="Language" rx="20.8333" ry="20.8333" style="stroke:#000000;stroke-width:1.0416666666666667;" width="176.0417" x="156.7708" y="743.75"/><ellipse cx="206.25" cy="760.8358" rx="10.4167" ry="10.4167" style="stroke:#6D8B32;stroke-width:1.0416666666666667;fill:none;"/><path d="M208.1868,757.4504 C207.5033,757.1248 207.0638,757.0272 206.4128,757.0272 C204.4922,757.0272 203.0111,758.5409 203.0111,760.5428 L203.0111,761.3729 C203.0111,763.2772 204.5736,764.6606 206.6895,764.6606 C207.5846,764.6606 208.4473,764.4328 208.9844,764.0259 C209.4238,763.7329 209.6517,763.4074 209.6517,763.1144 C209.6517,762.7889 209.3587,762.4959 209.0332,762.4959 C208.8704,762.4959 208.724,762.561 208.5775,762.6912 C208.2357,763.0493 208.2357,763.0493 208.1055,763.1144 C207.7962,763.3097 207.2917,763.4074 206.722,763.4074 C205.2246,763.4074 204.2643,762.5936 204.2643,761.3403 L204.2643,760.5428 C204.2643,759.2244 205.1921,758.2642 206.4616,758.2642 C206.8848,758.2642 207.3405,758.3781 207.6823,758.5734 C208.0404,758.7687 208.1706,758.9315 208.2357,759.2244 C208.2845,759.5337 208.3008,759.6151 208.3984,759.7127 C208.4961,759.8267 208.6751,759.8918 208.8379,759.8918 C209.0495,759.8918 209.2285,759.7941 209.3587,759.6313 C209.4401,759.5174 209.4727,759.3872 209.4727,759.0617 L209.4727,758.02 C209.4727,757.7108 209.4564,757.6131 209.375,757.4992 C209.2611,757.3039 209.0658,757.1899 208.8379,757.1899 C208.6263,757.1899 208.4798,757.2713 208.3171,757.4992 L208.1868,757.4504 Z " fill="#151515"/><text fill="#151515" font-family="&quot;Verdana&quot;" font-size="11.4583" lengthAdjust="spacing" textLength="58.3333" x="231.25" y="764.8026">Language</text><line style="stroke:#000000;stroke-width:1.0416666666666667;" x1="157.8125" x2="331.7708" y1="777.9215" y2="777.9215"/><line style="stroke:#000000;stroke-width:1.0416666666666667;" x1="157.8125" x2="331.7708" y1="786.2549" y2="786.2549"/><text fill="#151515" font-family="&quot;Verdana&quot;" font-size="11.4583" lengthAdjust="spacing" textLength="129.1667" x="168.2292" y="806.2658">generate(): Language</text><text fill="#151515" font-family="&quot;Verdana&quot;" font-size="11.4583" lengthAdjust="spacing" textLength="4.1667" x="168.2292" y="830.0207"> </text><text fill="#151515" font-family="&quot;Verdana&quot;" font-size="11.4583" lengthAdjust="spacing" textLength="147.9167" x="168.2292" y="853.7755">concatenate(): Language</text><text fill="#151515" font-family="&quot;Verdana&quot;" font-size="11.4583" lengthAdjust="spacing" textLength="4.1667" x="168.2292" y="877.5304"> </text><text fill="#151515" font-family="&quot;Verdana&quot;" font-size="11.4583" lengthAdjust="spacing" textLength="93.75" x="168.2292" y="901.2853">toString(): string</text><text fill="#151515" font-family="&quot;Verdana&quot;" font-size="11.4583" lengthAdjust="spacing" textLength="4.1667" x="168.2292" y="925.0402"> </text><text fill="#151515" font-family="&quot;Verdana&quot;" font-size="11.4583" lengthAdjust="spacing" textLength="153.125" x="168.2292" y="948.7951">join(Language): Language</text></g><!--MD5=[2702df23be809809ee0ab00b7dc67a06]
class ProductionRule--><g id="elem_ProductionRule"><rect codeLine="47" fill="url(#gtdebd8xk6c1a0)" height="217.1224" id="ProductionRule" rx="20.8333" ry="20.8333" style="stroke:#000000;stroke-width:1.0416666666666667;" width="128.125" x="777.6042" y="743.75"/><rect fill="url(#gtdebd8xk6c1a0)" height="34.1715" rx="20.8333" ry="20.8333" style="stroke:url(#gtdebd8xk6c1a0);stroke-width:1.0416666666666667;" width="128.125" x="777.6042" y="743.75"/><rect fill="url(#gtdebd8xk6c1a0)" height="20.8333" style="stroke:url(#gtdebd8xk6c1a0);stroke-width:1.0416666666666667;" width="128.125" x="777.6042" y="757.0882"/><rect codeLine="47" fill="none" height="217.1224" id="ProductionRule" rx="20.8333" ry="20.8333" style="stroke:#000000;stroke-width:1.0416666666666667;" width="128.125" x="777.6042" y="743.75"/><ellipse cx="792.1875" cy="760.8358" rx="10.4167" ry="10.4167" style="stroke:#6D8B32;stroke-width:1.0416666666666667;fill:none;"/><path d="M794.1243,757.4504 C793.4408,757.1248 793.0013,757.0272 792.3503,757.0272 C790.4297,757.0272 788.9486,758.5409 788.9486,760.5428 L788.9486,761.3729 C788.9486,763.2772 790.5111,764.6606 792.627,764.6606 C793.5221,764.6606 794.3848,764.4328 794.9219,764.0259 C795.3613,763.7329 795.5892,763.4074 795.5892,763.1144 C795.5892,762.7889 795.2962,762.4959 794.9707,762.4959 C794.8079,762.4959 794.6615,762.561 794.515,762.6912 C794.1732,763.0493 794.1732,763.0493 794.043,763.1144 C793.7337,763.3097 793.2292,763.4074 792.6595,763.4074 C791.1621,763.4074 790.2018,762.5936 790.2018,761.3403 L790.2018,760.5428 C790.2018,759.2244 791.1296,758.2642 792.3991,758.2642 C792.8223,758.2642 793.278,758.3781 793.6198,758.5734 C793.9779,758.7687 794.1081,758.9315 794.1732,759.2244 C794.222,759.5337 794.2383,759.6151 794.3359,759.7127 C794.4336,759.8267 794.6126,759.8918 794.7754,759.8918 C794.987,759.8918 795.166,759.7941 795.2962,759.6313 C795.3776,759.5174 795.4102,759.3872 795.4102,759.0617 L795.4102,758.02 C795.4102,757.7108 795.3939,757.6131 795.3125,757.4992 C795.1986,757.3039 795.0033,757.1899 794.7754,757.1899 C794.5638,757.1899 794.4173,757.2713 794.2546,757.4992 L794.1243,757.4504 Z " fill="#151515"/><text fill="#151515" font-family="&quot;Verdana&quot;" font-size="11.4583" lengthAdjust="spacing" textLength="86.4583" x="810.9375" y="764.8026">ProductionRule</text><line style="stroke:#000000;stroke-width:1.0416666666666667;" x1="778.6458" x2="904.6875" y1="777.9215" y2="777.9215"/><text fill="#151515" font-family="&quot;Verdana&quot;" font-size="11.4583" lengthAdjust="spacing" textLength="4.1667" x="789.0625" y="797.9324"> </text><text fill="#151515" font-family="&quot;Verdana&quot;" font-size="11.4583" lengthAdjust="spacing" textLength="103.125" x="789.0625" y="821.6873">application: string</text><text fill="#151515" font-family="&quot;Verdana&quot;" font-size="11.4583" lengthAdjust="spacing" textLength="4.1667" x="789.0625" y="845.4422"> </text><text fill="#151515" font-family="&quot;Verdana&quot;" font-size="11.4583" lengthAdjust="spacing" textLength="72.9167" x="789.0625" y="869.1971">result: string</text><text fill="#151515" font-family="&quot;Verdana&quot;" font-size="11.4583" lengthAdjust="spacing" textLength="4.1667" x="789.0625" y="892.952"> </text><line style="stroke:#000000;stroke-width:1.0416666666666667;" x1="778.6458" x2="904.6875" y1="905.0293" y2="905.0293"/><text fill="#151515" font-family="&quot;Verdana&quot;" font-size="11.4583" lengthAdjust="spacing" textLength="40.625" x="789.0625" y="925.0402">apply()</text><text fill="#151515" font-family="&quot;Verdana&quot;" font-size="11.4583" lengthAdjust="spacing" textLength="4.1667" x="789.0625" y="948.7951"> </text></g><!--MD5=[54c812b83313d5d87f3e1287e0931ad7]
class Automaton--><g id="elem_Automaton"><rect codeLine="59" fill="url(#gtdebd8xk6c1a0)" height="169.6126" id="Automaton" rx="20.8333" ry="20.8333" style="stroke:#000000;stroke-width:1.0416666666666667;" width="130.2083" x="942.1875" y="767.1875"/><rect fill="url(#gtdebd8xk6c1a0)" height="34.1715" rx="20.8333" ry="20.8333" style="stroke:url(#gtdebd8xk6c1a0);stroke-width:1.0416666666666667;" width="130.2083" x="942.1875" y="767.1875"/><rect fill="url(#gtdebd8xk6c1a0)" height="20.8333" style="stroke:url(#gtdebd8xk6c1a0);stroke-width:1.0416666666666667;" width="130.2083" x="942.1875" y="780.5257"/><rect codeLine="59" fill="none" height="169.6126" id="Automaton" rx="20.8333" ry="20.8333" style="stroke:#000000;stroke-width:1.0416666666666667;" width="130.2083" x="942.1875" y="767.1875"/><ellipse cx="967.5521" cy="784.2733" rx="10.4167" ry="10.4167" style="stroke:#6D8B32;stroke-width:1.0416666666666667;fill:none;"/><path d="M969.4889,780.8879 C968.8053,780.5623 968.3659,780.4647 967.7148,780.4647 C965.7943,780.4647 964.3132,781.9784 964.3132,783.9803 L964.3132,784.8104 C964.3132,786.7147 965.8757,788.0981 967.9915,788.0981 C968.8867,788.0981 969.7493,787.8703 970.2865,787.4634 C970.7259,787.1704 970.9538,786.8449 970.9538,786.5519 C970.9538,786.2264 970.6608,785.9334 970.3353,785.9334 C970.1725,785.9334 970.026,785.9985 969.8796,786.1287 C969.5378,786.4868 969.5378,786.4868 969.4076,786.5519 C969.0983,786.7472 968.5938,786.8449 968.0241,786.8449 C966.5267,786.8449 965.5664,786.0311 965.5664,784.7778 L965.5664,783.9803 C965.5664,782.6619 966.4941,781.7017 967.7637,781.7017 C968.1868,781.7017 968.6426,781.8156 968.9844,782.0109 C969.3424,782.2062 969.4727,782.369 969.5378,782.6619 C969.5866,782.9712 969.6029,783.0526 969.7005,783.1502 C969.7982,783.2642 969.9772,783.3293 970.14,783.3293 C970.3516,783.3293 970.5306,783.2316 970.6608,783.0688 C970.7422,782.9549 970.7747,782.8247 970.7747,782.4992 L970.7747,781.4575 C970.7747,781.1483 970.7585,781.0506 970.6771,780.9367 C970.5632,780.7414 970.3678,780.6274 970.14,780.6274 C969.9284,780.6274 969.7819,780.7088 969.6191,780.9367 L969.4889,780.8879 Z " fill="#151515"/><text fill="#151515" font-family="&quot;Verdana&quot;" font-size="11.4583" lengthAdjust="spacing" textLength="64.5833" x="988.6979" y="788.2401">Automaton</text><line style="stroke:#000000;stroke-width:1.0416666666666667;" x1="943.2292" x2="1071.3542" y1="801.359" y2="801.359"/><line style="stroke:#000000;stroke-width:1.0416666666666667;" x1="943.2292" x2="1071.3542" y1="809.6924" y2="809.6924"/><text fill="#151515" font-family="&quot;Verdana&quot;" font-size="11.4583" lengthAdjust="spacing" textLength="107.2917" x="953.6458" y="829.7033">verify(string): bool</text><text fill="#151515" font-family="&quot;Verdana&quot;" font-size="11.4583" lengthAdjust="spacing" textLength="64.5833" x="953.6458" y="853.4582">transform()</text><text fill="#151515" font-family="&quot;Verdana&quot;" font-size="11.4583" lengthAdjust="spacing" textLength="95.8333" x="953.6458" y="877.213">transite(symbol)</text><text fill="#151515" font-family="&quot;Verdana&quot;" font-size="11.4583" lengthAdjust="spacing" textLength="54.1667" x="953.6458" y="900.9679">accepts()</text><text fill="#151515" font-family="&quot;Verdana&quot;" font-size="11.4583" lengthAdjust="spacing" textLength="39.5833" x="953.6458" y="924.7228">reset()</text></g><!--MD5=[24a8b5b4e8952765b53ffa208b08c714]
class RegularExpression--><g id="elem_RegularExpression"><rect codeLine="67" fill="url(#gtdebd8xk6c1a0)" height="74.5931" id="RegularExpression" rx="20.8333" ry="20.8333" style="stroke:#D3F198;stroke-width:1.0416666666666667;" width="151.0417" x="1066.1458" y="17.7083"/><rect fill="url(#gtdebd8xk6c1a0)" height="34.1715" rx="20.8333" ry="20.8333" style="stroke:url(#gtdebd8xk6c1a0);stroke-width:1.0416666666666667;" width="151.0417" x="1066.1458" y="17.7083"/><rect fill="url(#gtdebd8xk6c1a0)" height="20.8333" style="stroke:url(#gtdebd8xk6c1a0);stroke-width:1.0416666666666667;" width="151.0417" x="1066.1458" y="31.0465"/><rect codeLine="67" fill="none" height="74.5931" id="RegularExpression" rx="20.8333" ry="20.8333" style="stroke:#D3F198;stroke-width:1.0416666666666667;" width="151.0417" x="1066.1458" y="17.7083"/><ellipse cx="1080.7292" cy="34.7941" rx="10.4167" ry="10.4167" style="stroke:#6D8B32;stroke-width:1.0416666666666667;fill:none;"/><path d="M1082.666,31.4087 C1081.9824,31.0832 1081.543,30.9855 1080.8919,30.9855 C1078.9714,30.9855 1077.4902,32.4992 1077.4902,34.5011 L1077.4902,35.3312 C1077.4902,37.2355 1079.0527,38.619 1081.1686,38.619 C1082.0638,38.619 1082.9264,38.3911 1083.4635,37.9842 C1083.903,37.6912 1084.1309,37.3657 1084.1309,37.0728 C1084.1309,36.7472 1083.8379,36.4543 1083.5124,36.4543 C1083.3496,36.4543 1083.2031,36.5194 1083.0566,36.6496 C1082.7148,37.0076 1082.7148,37.0076 1082.5846,37.0728 C1082.2754,37.2681 1081.7708,37.3657 1081.2012,37.3657 C1079.7038,37.3657 1078.7435,36.5519 1078.7435,35.2987 L1078.7435,34.5011 C1078.7435,33.1828 1079.6712,32.2225 1080.9408,32.2225 C1081.3639,32.2225 1081.8197,32.3364 1082.1615,32.5317 C1082.5195,32.7271 1082.6497,32.8898 1082.7148,33.1828 C1082.7637,33.492 1082.7799,33.5734 1082.8776,33.6711 C1082.9753,33.785 1083.1543,33.8501 1083.3171,33.8501 C1083.5286,33.8501 1083.7077,33.7524 1083.8379,33.5897 C1083.9193,33.4757 1083.9518,33.3455 1083.9518,33.02 L1083.9518,31.9784 C1083.9518,31.6691 1083.9355,31.5715 1083.8542,31.4575 C1083.7402,31.2622 1083.5449,31.1483 1083.3171,31.1483 C1083.1055,31.1483 1082.959,31.2297 1082.7962,31.4575 L1082.666,31.4087 Z " fill="#151515"/><text fill="#151515" font-family="&quot;Verdana&quot;" font-size="11.4583" lengthAdjust="spacing" textLength="109.375" x="1099.4792" y="38.7609">RegularExpression</text><line style="stroke:#D3F198;stroke-width:1.0416666666666667;" x1="1067.1875" x2="1216.1458" y1="51.8799" y2="51.8799"/><line style="stroke:#D3F198;stroke-width:1.0416666666666667;" x1="1067.1875" x2="1216.1458" y1="60.2132" y2="60.2132"/><text fill="#151515" font-family="&quot;Verdana&quot;" font-size="11.4583" lengthAdjust="spacing" textLength="44.7917" x="1077.6042" y="80.2241">match()</text></g><!--MD5=[16aae7176fe05d4e9ca74315e9ddfaf5]
class UnristrictedGrammar--><g id="elem_UnristrictedGrammar"><rect fill="url(#gtdebd8xk6c1a0)" height="50.8382" id="UnristrictedGrammar" rx="20.8333" ry="20.8333" style="stroke:#D3F198;stroke-width:1.0416666666666667;" width="163.5417" x="369.2708" y="826.5625"/><rect fill="url(#gtdebd8xk6c1a0)" height="34.1715" rx="20.8333" ry="20.8333" style="stroke:url(#gtdebd8xk6c1a0);stroke-width:1.0416666666666667;" width="163.5417" x="369.2708" y="826.5625"/><rect fill="url(#gtdebd8xk6c1a0)" height="20.8333" style="stroke:url(#gtdebd8xk6c1a0);stroke-width:1.0416666666666667;" width="163.5417" x="369.2708" y="839.9007"/><rect fill="none" height="50.8382" id="UnristrictedGrammar" rx="20.8333" ry="20.8333" style="stroke:#D3F198;stroke-width:1.0416666666666667;" width="163.5417" x="369.2708" y="826.5625"/><ellipse cx="383.8542" cy="843.6483" rx="10.4167" ry="10.4167" style="stroke:#6D8B32;stroke-width:1.0416666666666667;fill:none;"/><path d="M385.791,840.2629 C385.1074,839.9373 384.668,839.8397 384.0169,839.8397 C382.0964,839.8397 380.6152,841.3534 380.6152,843.3553 L380.6152,844.1854 C380.6152,846.0897 382.1777,847.4731 384.2936,847.4731 C385.1888,847.4731 386.0514,847.2453 386.5885,846.8384 C387.028,846.5454 387.2559,846.2199 387.2559,845.9269 C387.2559,845.6014 386.9629,845.3084 386.6374,845.3084 C386.4746,845.3084 386.3281,845.3735 386.1816,845.5037 C385.8398,845.8618 385.8398,845.8618 385.7096,845.9269 C385.4004,846.1222 384.8958,846.2199 384.3262,846.2199 C382.8288,846.2199 381.8685,845.4061 381.8685,844.1528 L381.8685,843.3553 C381.8685,842.0369 382.7962,841.0767 384.0658,841.0767 C384.4889,841.0767 384.9447,841.1906 385.2865,841.3859 C385.6445,841.5812 385.7747,841.744 385.8398,842.0369 C385.8887,842.3462 385.9049,842.4276 386.0026,842.5252 C386.1003,842.6392 386.2793,842.7043 386.4421,842.7043 C386.6536,842.7043 386.8327,842.6066 386.9629,842.4438 C387.0443,842.3299 387.0768,842.1997 387.0768,841.8742 L387.0768,840.8325 C387.0768,840.5233 387.0605,840.4256 386.9792,840.3117 C386.8652,840.1164 386.6699,840.0024 386.4421,840.0024 C386.2305,840.0024 386.084,840.0838 385.9212,840.3117 L385.791,840.2629 Z " fill="#151515"/><text fill="#151515" font-family="&quot;Verdana&quot;" font-size="11.4583" lengthAdjust="spacing" textLength="121.875" x="402.6042" y="847.6151">UnristrictedGrammar</text><line style="stroke:#D3F198;stroke-width:1.0416666666666667;" x1="370.3125" x2="531.7708" y1="860.734" y2="860.734"/><line style="stroke:#D3F198;stroke-width:1.0416666666666667;" x1="370.3125" x2="531.7708" y1="869.0674" y2="869.0674"/></g><!--MD5=[24461791a5114b7474799b6c832acc14]
class ContextSesitiveGrammar--><g id="elem_ContextSesitiveGrammar"><rect fill="url(#gtdebd8xk6c1a0)" height="50.8382" id="ContextSesitiveGrammar" rx="20.8333" ry="20.8333" style="stroke:#D3F198;stroke-width:1.0416666666666667;" width="192.7083" x="1108.8542" y="826.5625"/><rect fill="url(#gtdebd8xk6c1a0)" height="34.1715" rx="20.8333" ry="20.8333" style="stroke:url(#gtdebd8xk6c1a0);stroke-width:1.0416666666666667;" width="192.7083" x="1108.8542" y="826.5625"/><rect fill="url(#gtdebd8xk6c1a0)" height="20.8333" style="stroke:url(#gtdebd8xk6c1a0);stroke-width:1.0416666666666667;" width="192.7083" x="1108.8542" y="839.9007"/><rect fill="none" height="50.8382" id="ContextSesitiveGrammar" rx="20.8333" ry="20.8333" style="stroke:#D3F198;stroke-width:1.0416666666666667;" width="192.7083" x="1108.8542" y="826.5625"/><ellipse cx="1123.4375" cy="843.6483" rx="10.4167" ry="10.4167" style="stroke:#6D8B32;stroke-width:1.0416666666666667;fill:none;"/><path d="M1125.3743,840.2629 C1124.6908,839.9373 1124.2513,839.8397 1123.6003,839.8397 C1121.6797,839.8397 1120.1986,841.3534 1120.1986,843.3553 L1120.1986,844.1854 C1120.1986,846.0897 1121.7611,847.4731 1123.877,847.4731 C1124.7721,847.4731 1125.6348,847.2453 1126.1719,846.8384 C1126.6113,846.5454 1126.8392,846.2199 1126.8392,845.9269 C1126.8392,845.6014 1126.5462,845.3084 1126.2207,845.3084 C1126.0579,845.3084 1125.9115,845.3735 1125.765,845.5037 C1125.4232,845.8618 1125.4232,845.8618 1125.293,845.9269 C1124.9837,846.1222 1124.4792,846.2199 1123.9095,846.2199 C1122.4121,846.2199 1121.4518,845.4061 1121.4518,844.1528 L1121.4518,843.3553 C1121.4518,842.0369 1122.3796,841.0767 1123.6491,841.0767 C1124.0723,841.0767 1124.528,841.1906 1124.8698,841.3859 C1125.2279,841.5812 1125.3581,841.744 1125.4232,842.0369 C1125.472,842.3462 1125.4883,842.4276 1125.5859,842.5252 C1125.6836,842.6392 1125.8626,842.7043 1126.0254,842.7043 C1126.237,842.7043 1126.416,842.6066 1126.5462,842.4438 C1126.6276,842.3299 1126.6602,842.1997 1126.6602,841.8742 L1126.6602,840.8325 C1126.6602,840.5233 1126.6439,840.4256 1126.5625,840.3117 C1126.4486,840.1164 1126.2533,840.0024 1126.0254,840.0024 C1125.8138,840.0024 1125.6673,840.0838 1125.5046,840.3117 L1125.3743,840.2629 Z " fill="#151515"/><text fill="#151515" font-family="&quot;Verdana&quot;" font-size="11.4583" lengthAdjust="spacing" textLength="151.0417" x="1142.1875" y="847.6151">ContextSesitiveGrammar</text><line style="stroke:#D3F198;stroke-width:1.0416666666666667;" x1="1109.8958" x2="1300.5208" y1="860.734" y2="860.734"/><line style="stroke:#D3F198;stroke-width:1.0416666666666667;" x1="1109.8958" x2="1300.5208" y1="869.0674" y2="869.0674"/></g><!--MD5=[9fdfad0d3e4f2203b17322f63ac2260b]
class ContextFreeGrammar--><g id="elem_ContextFreeGrammar"><rect fill="url(#gtdebd8xk6c1a0)" height="50.8382" id="ContextFreeGrammar" rx="20.8333" ry="20.8333" style="stroke:#D3F198;stroke-width:1.0416666666666667;" width="170.8333" x="569.7917" y="826.5625"/><rect fill="url(#gtdebd8xk6c1a0)" height="34.1715" rx="20.8333" ry="20.8333" style="stroke:url(#gtdebd8xk6c1a0);stroke-width:1.0416666666666667;" width="170.8333" x="569.7917" y="826.5625"/><rect fill="url(#gtdebd8xk6c1a0)" height="20.8333" style="stroke:url(#gtdebd8xk6c1a0);stroke-width:1.0416666666666667;" width="170.8333" x="569.7917" y="839.9007"/><rect fill="none" height="50.8382" id="ContextFreeGrammar" rx="20.8333" ry="20.8333" style="stroke:#D3F198;stroke-width:1.0416666666666667;" width="170.8333" x="569.7917" y="826.5625"/><ellipse cx="584.375" cy="843.6483" rx="10.4167" ry="10.4167" style="stroke:#6D8B32;stroke-width:1.0416666666666667;fill:none;"/><path d="M586.3118,840.2629 C585.6283,839.9373 585.1888,839.8397 584.5378,839.8397 C582.6172,839.8397 581.1361,841.3534 581.1361,843.3553 L581.1361,844.1854 C581.1361,846.0897 582.6986,847.4731 584.8145,847.4731 C585.7096,847.4731 586.5723,847.2453 587.1094,846.8384 C587.5488,846.5454 587.7767,846.2199 587.7767,845.9269 C587.7767,845.6014 587.4837,845.3084 587.1582,845.3084 C586.9954,845.3084 586.849,845.3735 586.7025,845.5037 C586.3607,845.8618 586.3607,845.8618 586.2305,845.9269 C585.9212,846.1222 585.4167,846.2199 584.847,846.2199 C583.3496,846.2199 582.3893,845.4061 582.3893,844.1528 L582.3893,843.3553 C582.3893,842.0369 583.3171,841.0767 584.5866,841.0767 C585.0098,841.0767 585.4655,841.1906 585.8073,841.3859 C586.1654,841.5812 586.2956,841.744 586.3607,842.0369 C586.4095,842.3462 586.4258,842.4276 586.5234,842.5252 C586.6211,842.6392 586.8001,842.7043 586.9629,842.7043 C587.1745,842.7043 587.3535,842.6066 587.4837,842.4438 C587.5651,842.3299 587.5977,842.1997 587.5977,841.8742 L587.5977,840.8325 C587.5977,840.5233 587.5814,840.4256 587.5,840.3117 C587.3861,840.1164 587.1908,840.0024 586.9629,840.0024 C586.7513,840.0024 586.6048,840.0838 586.4421,840.3117 L586.3118,840.2629 Z " fill="#151515"/><text fill="#151515" font-family="&quot;Verdana&quot;" font-size="11.4583" lengthAdjust="spacing" textLength="129.1667" x="603.125" y="847.6151">ContextFreeGrammar</text><line style="stroke:#D3F198;stroke-width:1.0416666666666667;" x1="570.8333" x2="739.5833" y1="860.734" y2="860.734"/><line style="stroke:#D3F198;stroke-width:1.0416666666666667;" x1="570.8333" x2="739.5833" y1="869.0674" y2="869.0674"/></g><!--MD5=[993778a05f2f67729c357eb694dcb174]
class RegularGrammar--><g id="elem_RegularGrammar"><rect fill="url(#gtdebd8xk6c1a0)" height="50.8382" id="RegularGrammar" rx="20.8333" ry="20.8333" style="stroke:#D3F198;stroke-width:1.0416666666666667;" width="141.6667" x="1338.5417" y="826.5625"/><rect fill="url(#gtdebd8xk6c1a0)" height="34.1715" rx="20.8333" ry="20.8333" style="stroke:url(#gtdebd8xk6c1a0);stroke-width:1.0416666666666667;" width="141.6667" x="1338.5417" y="826.5625"/><rect fill="url(#gtdebd8xk6c1a0)" height="20.8333" style="stroke:url(#gtdebd8xk6c1a0);stroke-width:1.0416666666666667;" width="141.6667" x="1338.5417" y="839.9007"/><rect fill="none" height="50.8382" id="RegularGrammar" rx="20.8333" ry="20.8333" style="stroke:#D3F198;stroke-width:1.0416666666666667;" width="141.6667" x="1338.5417" y="826.5625"/><ellipse cx="1353.125" cy="843.6483" rx="10.4167" ry="10.4167" style="stroke:#6D8B32;stroke-width:1.0416666666666667;fill:none;"/><path d="M1355.0618,840.2629 C1354.3783,839.9373 1353.9388,839.8397 1353.2878,839.8397 C1351.3672,839.8397 1349.8861,841.3534 1349.8861,843.3553 L1349.8861,844.1854 C1349.8861,846.0897 1351.4486,847.4731 1353.5645,847.4731 C1354.4596,847.4731 1355.3223,847.2453 1355.8594,846.8384 C1356.2988,846.5454 1356.5267,846.2199 1356.5267,845.9269 C1356.5267,845.6014 1356.2337,845.3084 1355.9082,845.3084 C1355.7454,845.3084 1355.599,845.3735 1355.4525,845.5037 C1355.1107,845.8618 1355.1107,845.8618 1354.9805,845.9269 C1354.6712,846.1222 1354.1667,846.2199 1353.597,846.2199 C1352.0996,846.2199 1351.1393,845.4061 1351.1393,844.1528 L1351.1393,843.3553 C1351.1393,842.0369 1352.0671,841.0767 1353.3366,841.0767 C1353.7598,841.0767 1354.2155,841.1906 1354.5573,841.3859 C1354.9154,841.5812 1355.0456,841.744 1355.1107,842.0369 C1355.1595,842.3462 1355.1758,842.4276 1355.2734,842.5252 C1355.3711,842.6392 1355.5501,842.7043 1355.7129,842.7043 C1355.9245,842.7043 1356.1035,842.6066 1356.2337,842.4438 C1356.3151,842.3299 1356.3477,842.1997 1356.3477,841.8742 L1356.3477,840.8325 C1356.3477,840.5233 1356.3314,840.4256 1356.25,840.3117 C1356.1361,840.1164 1355.9408,840.0024 1355.7129,840.0024 C1355.5013,840.0024 1355.3548,840.0838 1355.1921,840.3117 L1355.0618,840.2629 Z " fill="#151515"/><text fill="#151515" font-family="&quot;Verdana&quot;" font-size="11.4583" lengthAdjust="spacing" textLength="100" x="1371.875" y="847.6151">RegularGrammar</text><line style="stroke:#D3F198;stroke-width:1.0416666666666667;" x1="1339.5833" x2="1479.1667" y1="860.734" y2="860.734"/><line style="stroke:#D3F198;stroke-width:1.0416666666666667;" x1="1339.5833" x2="1479.1667" y1="869.0674" y2="869.0674"/></g><!--MD5=[089e7f1ab3eb477d7b0b413b2d534c92]
class NondeterministicFiniteAutomaton--><g id="elem_NondeterministicFiniteAutomaton"><rect codeLine="95" fill="url(#gtdebd8xk6c1a0)" height="74.5931" id="NondeterministicFiniteAutomaton" rx="20.8333" ry="20.8333" style="stroke:#D3F198;stroke-width:1.0416666666666667;" width="238.5417" x="1377.6042" y="1255.2083"/><rect fill="url(#gtdebd8xk6c1a0)" height="34.1715" rx="20.8333" ry="20.8333" style="stroke:url(#gtdebd8xk6c1a0);stroke-width:1.0416666666666667;" width="238.5417" x="1377.6042" y="1255.2083"/><rect fill="url(#gtdebd8xk6c1a0)" height="20.8333" style="stroke:url(#gtdebd8xk6c1a0);stroke-width:1.0416666666666667;" width="238.5417" x="1377.6042" y="1268.5465"/><rect codeLine="95" fill="none" height="74.5931" id="NondeterministicFiniteAutomaton" rx="20.8333" ry="20.8333" style="stroke:#D3F198;stroke-width:1.0416666666666667;" width="238.5417" x="1377.6042" y="1255.2083"/><ellipse cx="1392.1875" cy="1272.2941" rx="10.4167" ry="10.4167" style="stroke:#6D8B32;stroke-width:1.0416666666666667;fill:none;"/><path d="M1394.1243,1268.9087 C1393.4408,1268.5832 1393.0013,1268.4855 1392.3503,1268.4855 C1390.4297,1268.4855 1388.9486,1269.9992 1388.9486,1272.0011 L1388.9486,1272.8312 C1388.9486,1274.7355 1390.5111,1276.119 1392.627,1276.119 C1393.5221,1276.119 1394.3848,1275.8911 1394.9219,1275.4842 C1395.3613,1275.1912 1395.5892,1274.8657 1395.5892,1274.5728 C1395.5892,1274.2472 1395.2962,1273.9543 1394.9707,1273.9543 C1394.8079,1273.9543 1394.6615,1274.0194 1394.515,1274.1496 C1394.1732,1274.5076 1394.1732,1274.5076 1394.043,1274.5728 C1393.7337,1274.7681 1393.2292,1274.8657 1392.6595,1274.8657 C1391.1621,1274.8657 1390.2018,1274.0519 1390.2018,1272.7987 L1390.2018,1272.0011 C1390.2018,1270.6828 1391.1296,1269.7225 1392.3991,1269.7225 C1392.8223,1269.7225 1393.278,1269.8364 1393.6198,1270.0317 C1393.9779,1270.2271 1394.1081,1270.3898 1394.1732,1270.6828 C1394.222,1270.992 1394.2383,1271.0734 1394.3359,1271.1711 C1394.4336,1271.285 1394.6126,1271.3501 1394.7754,1271.3501 C1394.987,1271.3501 1395.166,1271.2524 1395.2962,1271.0897 C1395.3776,1270.9757 1395.4102,1270.8455 1395.4102,1270.52 L1395.4102,1269.4784 C1395.4102,1269.1691 1395.3939,1269.0715 1395.3125,1268.9575 C1395.1986,1268.7622 1395.0033,1268.6483 1394.7754,1268.6483 C1394.5638,1268.6483 1394.4173,1268.7297 1394.2546,1268.9575 L1394.1243,1268.9087 Z " fill="#151515"/><text fill="#151515" font-family="&quot;Verdana&quot;" font-size="11.4583" lengthAdjust="spacing" textLength="196.875" x="1410.9375" y="1276.2609">NondeterministicFiniteAutomaton</text><line style="stroke:#D3F198;stroke-width:1.0416666666666667;" x1="1378.6458" x2="1615.1042" y1="1289.3799" y2="1289.3799"/><line style="stroke:#D3F198;stroke-width:1.0416666666666667;" x1="1378.6458" x2="1615.1042" y1="1297.7132" y2="1297.7132"/><text fill="#151515" font-family="&quot;Verdana&quot;" font-size="11.4583" lengthAdjust="spacing" textLength="195.8333" x="1389.0625" y="1317.7241">toDeterministicFiniteAutomaton()</text></g><!--MD5=[900b7c15f5c275a13ca7784f368d6857]
class DeterministicFiniteAutomaton--><g id="elem_DeterministicFiniteAutomaton"><rect codeLine="98" fill="url(#gtdebd8xk6c1a0)" height="74.5931" id="DeterministicFiniteAutomaton" rx="20.8333" ry="20.8333" style="stroke:#D3F198;stroke-width:1.0416666666666667;" width="217.7083" x="1300.5208" y="1392.7083"/><rect fill="url(#gtdebd8xk6c1a0)" height="34.1715" rx="20.8333" ry="20.8333" style="stroke:url(#gtdebd8xk6c1a0);stroke-width:1.0416666666666667;" width="217.7083" x="1300.5208" y="1392.7083"/><rect fill="url(#gtdebd8xk6c1a0)" height="20.8333" style="stroke:url(#gtdebd8xk6c1a0);stroke-width:1.0416666666666667;" width="217.7083" x="1300.5208" y="1406.0465"/><rect codeLine="98" fill="none" height="74.5931" id="DeterministicFiniteAutomaton" rx="20.8333" ry="20.8333" style="stroke:#D3F198;stroke-width:1.0416666666666667;" width="217.7083" x="1300.5208" y="1392.7083"/><ellipse cx="1315.1042" cy="1409.7941" rx="10.4167" ry="10.4167" style="stroke:#6D8B32;stroke-width:1.0416666666666667;fill:none;"/><path d="M1317.041,1406.4087 C1316.3574,1406.0832 1315.918,1405.9855 1315.2669,1405.9855 C1313.3464,1405.9855 1311.8652,1407.4992 1311.8652,1409.5011 L1311.8652,1410.3312 C1311.8652,1412.2355 1313.4277,1413.619 1315.5436,1413.619 C1316.4388,1413.619 1317.3014,1413.3911 1317.8385,1412.9842 C1318.278,1412.6912 1318.5059,1412.3657 1318.5059,1412.0728 C1318.5059,1411.7472 1318.2129,1411.4543 1317.8874,1411.4543 C1317.7246,1411.4543 1317.5781,1411.5194 1317.4316,1411.6496 C1317.0898,1412.0076 1317.0898,1412.0076 1316.9596,1412.0728 C1316.6504,1412.2681 1316.1458,1412.3657 1315.5762,1412.3657 C1314.0788,1412.3657 1313.1185,1411.5519 1313.1185,1410.2987 L1313.1185,1409.5011 C1313.1185,1408.1828 1314.0462,1407.2225 1315.3158,1407.2225 C1315.7389,1407.2225 1316.1947,1407.3364 1316.5365,1407.5317 C1316.8945,1407.7271 1317.0247,1407.8898 1317.0898,1408.1828 C1317.1387,1408.492 1317.1549,1408.5734 1317.2526,1408.6711 C1317.3503,1408.785 1317.5293,1408.8501 1317.6921,1408.8501 C1317.9036,1408.8501 1318.0827,1408.7524 1318.2129,1408.5897 C1318.2943,1408.4757 1318.3268,1408.3455 1318.3268,1408.02 L1318.3268,1406.9784 C1318.3268,1406.6691 1318.3105,1406.5715 1318.2292,1406.4575 C1318.1152,1406.2622 1317.9199,1406.1483 1317.6921,1406.1483 C1317.4805,1406.1483 1317.334,1406.2297 1317.1712,1406.4575 L1317.041,1406.4087 Z " fill="#151515"/><text fill="#151515" font-family="&quot;Verdana&quot;" font-size="11.4583" lengthAdjust="spacing" textLength="176.0417" x="1333.8542" y="1413.7609">DeterministicFiniteAutomaton</text><line style="stroke:#D3F198;stroke-width:1.0416666666666667;" x1="1301.5625" x2="1517.1875" y1="1426.8799" y2="1426.8799"/><line style="stroke:#D3F198;stroke-width:1.0416666666666667;" x1="1301.5625" x2="1517.1875" y1="1435.2132" y2="1435.2132"/><text fill="#151515" font-family="&quot;Verdana&quot;" font-size="11.4583" lengthAdjust="spacing" textLength="63.5417" x="1311.9792" y="1455.2241">minimize()</text></g><!--MD5=[78b74044e13f3407e12f4d1a269eee17]
class FiniteAutomatonMinimization--><g id="elem_FiniteAutomatonMinimization"><rect codeLine="105" fill="url(#gtdebd8xk6c1a0)" height="74.5931" id="FiniteAutomatonMinimization" rx="20.8333" ry="20.8333" style="stroke:#D3F198;stroke-width:1.0416666666666667;" width="212.5" x="1303.125" y="1530.2083"/><rect fill="url(#gtdebd8xk6c1a0)" height="34.1715" rx="20.8333" ry="20.8333" style="stroke:url(#gtdebd8xk6c1a0);stroke-width:1.0416666666666667;" width="212.5" x="1303.125" y="1530.2083"/><rect fill="url(#gtdebd8xk6c1a0)" height="20.8333" style="stroke:url(#gtdebd8xk6c1a0);stroke-width:1.0416666666666667;" width="212.5" x="1303.125" y="1543.5465"/><rect codeLine="105" fill="none" height="74.5931" id="FiniteAutomatonMinimization" rx="20.8333" ry="20.8333" style="stroke:#D3F198;stroke-width:1.0416666666666667;" width="212.5" x="1303.125" y="1530.2083"/><ellipse cx="1317.7083" cy="1547.2941" rx="10.4167" ry="10.4167" style="stroke:#6D8B32;stroke-width:1.0416666666666667;fill:none;"/><path d="M1319.6452,1543.9087 C1318.9616,1543.5832 1318.5221,1543.4855 1317.8711,1543.4855 C1315.9505,1543.4855 1314.4694,1544.9992 1314.4694,1547.0011 L1314.4694,1547.8312 C1314.4694,1549.7355 1316.0319,1551.119 1318.1478,1551.119 C1319.043,1551.119 1319.9056,1550.8911 1320.4427,1550.4842 C1320.8822,1550.1912 1321.11,1549.8657 1321.11,1549.5728 C1321.11,1549.2472 1320.8171,1548.9543 1320.4915,1548.9543 C1320.3288,1548.9543 1320.1823,1549.0194 1320.0358,1549.1496 C1319.694,1549.5076 1319.694,1549.5076 1319.5638,1549.5728 C1319.2546,1549.7681 1318.75,1549.8657 1318.1803,1549.8657 C1316.6829,1549.8657 1315.7227,1549.0519 1315.7227,1547.7987 L1315.7227,1547.0011 C1315.7227,1545.6828 1316.6504,1544.7225 1317.9199,1544.7225 C1318.3431,1544.7225 1318.7988,1544.8364 1319.1406,1545.0317 C1319.4987,1545.2271 1319.6289,1545.3898 1319.694,1545.6828 C1319.7428,1545.992 1319.7591,1546.0734 1319.8568,1546.1711 C1319.9544,1546.285 1320.1335,1546.3501 1320.2962,1546.3501 C1320.5078,1546.3501 1320.6868,1546.2524 1320.8171,1546.0897 C1320.8984,1545.9757 1320.931,1545.8455 1320.931,1545.52 L1320.931,1544.4784 C1320.931,1544.1691 1320.9147,1544.0715 1320.8333,1543.9575 C1320.7194,1543.7622 1320.5241,1543.6483 1320.2962,1543.6483 C1320.0846,1543.6483 1319.9382,1543.7297 1319.7754,1543.9575 L1319.6452,1543.9087 Z " fill="#151515"/><text fill="#151515" font-family="&quot;Verdana&quot;" font-size="11.4583" lengthAdjust="spacing" textLength="170.8333" x="1336.4583" y="1551.2609">FiniteAutomatonMinimization</text><line style="stroke:#D3F198;stroke-width:1.0416666666666667;" x1="1304.1667" x2="1514.5833" y1="1564.3799" y2="1564.3799"/><line style="stroke:#D3F198;stroke-width:1.0416666666666667;" x1="1304.1667" x2="1514.5833" y1="1572.7132" y2="1572.7132"/><text fill="#151515" font-family="&quot;Verdana&quot;" font-size="11.4583" lengthAdjust="spacing" textLength="63.5417" x="1314.5833" y="1592.7241">minimize()</text></g><!--MD5=[778f8aeb37c5d820b43feb82743b6f21]
link Grammar to Language--><g id="link_Grammar_Language"><path codeLine="71" d="M623.5458,515.4479 C543.8875,578.3844 439.2854,663.5271 351.0417,743.75 C346.4198,747.9521 341.7375,752.301 337.0469,756.7344 " fill="none" id="Grammar-to-Language" style="stroke:#000000;stroke-width:3.125;"/><polygon fill="#000000" points="333.1052,760.476,342.7727,757.042,336.8821,756.8897,337.0344,750.9991,333.1052,760.476" style="stroke:#000000;stroke-width:3.125;"/></g><!--MD5=[022d647782fbc0109cf41de5292a39bc]
link Grammar to ParseTree--><g id="link_Grammar_ParseTree"><path codeLine="72" d="M623.9323,463.6562 C492.1635,515.4375 283.2552,611.1656 138.5417,743.75 C114.3735,765.8927 94.8854,798.1396 82.708,821.4958 " fill="none" id="Grammar-to-ParseTree" style="stroke:#000000;stroke-width:3.125;"/><polygon fill="#000000" points="80.2215,826.3375,88.2108,819.9015,82.6009,821.7044,80.7979,816.0945,80.2215,826.3375" style="stroke:#000000;stroke-width:3.125;"/></g><!--MD5=[bbca70a2842da3131b92849cfa3ec2ad]
link RegularExpression to Grammar--><g id="link_RegularExpression_Grammar"><path codeLine="73" d="M1101.75,92.8438 C1049.2125,141 954.3708,227.9375 876.0948,299.6875 " fill="none" id="RegularExpression-to-Grammar" style="stroke:#000000;stroke-width:3.125;"/><polygon fill="#000000" points="871.9094,303.5313,881.6357,300.2678,875.7487,300.0119,876.0047,294.1249,871.9094,303.5313" style="stroke:#000000;stroke-width:3.125;"/></g><!--MD5=[79a4f283e35dcc82c66e316d8a529faa]
link RegularExpression to FiniteAutomaton--><g id="link_RegularExpression_FiniteAutomaton"><path codeLine="74" d="M1168.9167,92.8021 C1240.5208,191.3854 1432.9479,473.5938 1498.9583,743.75 C1521.8125,837.2948 1525.0729,867.7292 1498.9583,960.4167 C1493.4063,980.1104 1484.3854,999.7708 1474.1667,1017.9979 " fill="none" id="RegularExpression-to-FiniteAutomaton" style="stroke:#000000;stroke-width:3.125;"/><polygon fill="#000000" points="1471.5417,1022.601,1479.8059,1016.5221,1474.1222,1018.0769,1472.5673,1012.3932,1471.5417,1022.601" style="stroke:#000000;stroke-width:3.125;"/></g><!--MD5=[6e009f98dc0c1023e7c4e4e91dc0efe6]
reverse link Grammar to ProductionRule--><g id="link_Grammar_ProductionRule"><path codeLine="75" d="M807.7833,694.9917 C811.4563,711.9042 815.0125,728.2833 818.3531,743.6698 " fill="none" id="Grammar-backto-ProductionRule" style="stroke:#000000;stroke-width:3.125;"/><polygon fill="#000000" points="804.8156,681.324,802.0693,688.3155,807.4667,693.5396,810.213,686.5481,804.8156,681.324" style="stroke:#000000;stroke-width:3.125;"/></g><!--MD5=[ed01000df127d0653f304dc8c316ba39]
link UnristrictedGrammar to TuringMachine--><g id="link_UnristrictedGrammar_TuringMachine"><path codeLine="76" d="M452.0594,877.9073 C453.9854,924.8146 458.1573,1026.3906 460.2333,1076.9438 " fill="none" id="UnristrictedGrammar-to-TuringMachine" style="stroke:#000000;stroke-width:3.125;"/><polygon fill="#000000" points="460.4521,1082.2615,464.2295,1072.723,460.2378,1077.0575,455.9032,1073.0658,460.4521,1082.2615" style="stroke:#000000;stroke-width:3.125;"/></g><!--MD5=[ae02ffc05397939f62b47065f72da904]
link ContextSesitiveGrammar to BoundLinearAutomaton--><g id="link_ContextSesitiveGrammar_BoundLinearAutomaton"><path codeLine="77" d="M1195.5417,877.9073 C1177.1979,924.9094 1137.4479,1026.8021 1117.7708,1077.25 " fill="none" id="ContextSesitiveGrammar-to-BoundLinearAutomaton" style="stroke:#000000;stroke-width:3.125;"/><polygon fill="#000000" points="1115.8125,1082.2615,1123.1019,1075.0423,1117.7057,1077.4094,1115.3386,1072.0132,1115.8125,1082.2615" style="stroke:#000000;stroke-width:3.125;"/></g><!--MD5=[9302b472da17fa2d4764ca5d36b6573e]
link ContextFreeGrammar to PushDownAutomaton--><g id="link_ContextFreeGrammar_PushDownAutomaton"><path codeLine="78" d="M662.1292,877.9073 C675.2281,924.8146 703.5948,1026.3906 717.7125,1076.9438 " fill="none" id="ContextFreeGrammar-to-PushDownAutomaton" style="stroke:#000000;stroke-width:3.125;"/><polygon fill="#000000" points="719.1969,1082.2615,720.6867,1072.111,717.7951,1077.2453,712.6608,1074.3537,719.1969,1082.2615" style="stroke:#000000;stroke-width:3.125;"/></g><!--MD5=[707e5a7a380f530a7653e1faf50a4f7a]
link RegularGrammar to FiniteAutomaton--><g id="link_RegularGrammar_FiniteAutomaton"><path codeLine="79" d="M1409.375,877.9073 C1409.375,910.0802 1409.375,967.974 1409.375,1017.4802 " fill="none" id="RegularGrammar-to-FiniteAutomaton" style="stroke:#000000;stroke-width:3.125;"/><polygon fill="#000000" points="1409.375,1022.8573,1413.5417,1013.4823,1409.375,1017.649,1405.2083,1013.4823,1409.375,1022.8573" style="stroke:#000000;stroke-width:3.125;"/></g><!--MD5=[464f049767c4314e230d2af556934ae5]
reverse link Automaton to TuringMachine--><g id="link_Automaton_TuringMachine"><path codeLine="80" d="M936.4604,951.5083 C932.4333,954.7375 928.2635,957.7302 923.9583,960.4167 C808.4146,1032.5208 752.3177,977.3823 623.9583,1022.9167 C580.275,1038.4125 533.5646,1063.5073 501.4875,1082.2125 " fill="none" id="Automaton-backto-TuringMachine" style="stroke:#000000;stroke-width:3.125;"/><polygon fill="none" points="931.9083,945.7896,952.1938,937.0875,941.7625,956.5406,931.9083,945.7896" style="stroke:#000000;stroke-width:3.125;"/></g><!--MD5=[3bdad36912110a91a0e8c4aeb1e1c257]
reverse link Automaton to PushDownAutomaton--><g id="link_Automaton_PushDownAutomaton"><path codeLine="81" d="M931.575,952.7177 C929.0521,955.3521 926.5104,957.924 923.9583,960.4167 C874.124,1009.0865 807.5135,1055.1115 765.6927,1082.1292 " fill="none" id="Automaton-backto-PushDownAutomaton" style="stroke:#000000;stroke-width:3.125;"/><polygon fill="none" points="926.3698,947.6031,945.7719,937.0802,937.1667,957.4063,926.3698,947.6031" style="stroke:#000000;stroke-width:3.125;"/></g><!--MD5=[82c09902957a77481632b58b1d760de7]
reverse link Automaton to BoundLinearAutomaton--><g id="link_Automaton_BoundLinearAutomaton"><path codeLine="82" d="M1047.7906,956.9302 C1065.7083,1002.8667 1085.2604,1052.9708 1096.6042,1082.0365 " fill="none" id="Automaton-backto-BoundLinearAutomaton" style="stroke:#000000;stroke-width:3.125;"/><polygon fill="none" points="1040.8854,959.2917,1040.1063,937.2333,1054.4708,953.9917,1040.8854,959.2917" style="stroke:#000000;stroke-width:3.125;"/></g><!--MD5=[844bb1cbef74a85aeb4cab4bfa8ec949]
reverse link Automaton to FiniteAutomaton--><g id="link_Automaton_FiniteAutomaton"><path codeLine="83" d="M1080.625,951.8854 C1083.8958,954.8698 1087.2292,957.726 1090.625,960.4167 C1111.5313,976.9927 1253.1875,1039.4604 1340.4792,1077.2198 " fill="none" id="Automaton-backto-FiniteAutomaton" style="stroke:#000000;stroke-width:3.125;"/><polygon fill="none" points="1075.4375,957.0083,1065.8646,937.1229,1085.75,946.6948,1075.4375,957.0083" style="stroke:#000000;stroke-width:3.125;"/></g><!--MD5=[d7c810f8a20ac125d1d0abd5de7599ad]
reverse link Grammar to UnristrictedGrammar--><g id="link_Grammar_UnristrictedGrammar"><path codeLine="84" d="M611.9156,617.0688 C555.2927,699.4198 496.2396,785.3073 468.0229,826.3438 " fill="none" id="Grammar-backto-UnristrictedGrammar" style="stroke:#000000;stroke-width:3.125;"/><polygon fill="none" points="606.1375,612.6021,623.95,599.5667,618.1552,620.8646,606.1375,612.6021" style="stroke:#000000;stroke-width:3.125;"/></g><!--MD5=[124438efbe5177ba20efee4cc987395c]
reverse link Grammar to ContextSesitiveGrammar--><g id="link_Grammar_ContextSesitiveGrammar"><path codeLine="85" d="M887.3646,550.9375 C991.0323,648.8188 1123.7083,774.0938 1179.0938,826.3885 " fill="none" id="Grammar-backto-ContextSesitiveGrammar" style="stroke:#000000;stroke-width:3.125;"/><polygon fill="none" points="882.1104,556,871.9677,536.3958,892.1219,545.3958,882.1104,556" style="stroke:#000000;stroke-width:3.125;"/></g><!--MD5=[4c6c578e5e9f87504c5a4bb19bffe83a]
reverse link Grammar to ContextFreeGrammar--><g id="link_Grammar_ContextFreeGrammar"><path codeLine="86" d="M687.249,701.8198 C676.1281,753.6125 666.226,799.7302 660.4698,826.5385 " fill="none" id="Grammar-backto-ContextFreeGrammar" style="stroke:#000000;stroke-width:3.125;"/><polygon fill="none" points="680.1469,700.1625,691.65,681.324,694.4052,703.224,680.1469,700.1625" style="stroke:#000000;stroke-width:3.125;"/></g><!--MD5=[acc1a4b539ae81008e994c19b7b5c7de]
reverse link Grammar to RegularGrammar--><g id="link_Grammar_RegularGrammar"><path codeLine="87" d="M891.0125,482.5938 C1012.4531,540.3333 1187.5313,633.3417 1319.7917,743.75 C1349.0417,768.1646 1376.1042,802.9875 1392.6667,826.2688 " fill="none" id="Grammar-backto-RegularGrammar" style="stroke:#000000;stroke-width:3.125;"/><polygon fill="none" points="887.7333,489.1042,871.9969,473.625,893.951,475.9167,887.7333,489.1042" style="stroke:#000000;stroke-width:3.125;"/></g><!--MD5=[97d3490cf3894114aba589af826eba69]
link NondeterministicFiniteAutomaton to DeterministicFiniteAutomaton--><g id="link_NondeterministicFiniteAutomaton_DeterministicFiniteAutomaton"><path codeLine="101" d="M1473.1979,1330.3958 C1461.7188,1348.1594 1447.8854,1369.5646 1436.0417,1387.9 " fill="none" id="NondeterministicFiniteAutomaton-to-DeterministicFiniteAutomaton" style="stroke:#000000;stroke-width:3.125;"/><polygon fill="#000000" points="1433.0729,1392.4917,1441.6596,1386.8773,1435.8988,1388.1166,1434.6595,1382.3559,1433.0729,1392.4917" style="stroke:#000000;stroke-width:3.125;"/></g><!--MD5=[850e76561f9bae878a1a3c4f2e8a956c]
reverse link FiniteAutomaton to NondeterministicFiniteAutomaton--><g id="link_FiniteAutomaton_NondeterministicFiniteAutomaton"><path codeLine="102" d="M1458.5938,1211.6771 C1465.9688,1227.0969 1473.1354,1242.076 1479.2396,1254.8229 " fill="none" id="FiniteAutomaton-backto-NondeterministicFiniteAutomaton" style="stroke:#000000;stroke-width:3.125;"/><polygon fill="none" points="1451.9583,1214.7094,1449.5417,1192.7698,1465.1146,1208.4135,1451.9583,1214.7094" style="stroke:#000000;stroke-width:3.125;"/></g><!--MD5=[f6a79b796a87e6872458acd1f861985a]
reverse link FiniteAutomaton to DeterministicFiniteAutomaton--><g id="link_FiniteAutomaton_DeterministicFiniteAutomaton"><path codeLine="103" d="M1366.0625,1212.826 C1355.8542,1249.9156 1350.2604,1291.9708 1359.375,1330.2083 C1364.5938,1352.1156 1375.4896,1374.6688 1385.7813,1392.701 " fill="none" id="FiniteAutomaton-backto-DeterministicFiniteAutomaton" style="stroke:#000000;stroke-width:3.125;"/><polygon fill="none" points="1359.1146,1210.6042,1372.1458,1192.7885,1373.0729,1214.8417,1359.1146,1210.6042" style="stroke:#000000;stroke-width:3.125;"/></g><!--MD5=[cd9c54eae4259420b58050d18349c284]
link DeterministicFiniteAutomaton to FiniteAutomatonMinimization--><g id="link_DeterministicFiniteAutomaton_FiniteAutomatonMinimization"><path codeLine="104" d="M1409.375,1467.8958 C1409.375,1485.3583 1409.375,1506.3398 1409.375,1524.4653 " fill="none" id="DeterministicFiniteAutomaton-to-FiniteAutomatonMinimization" style="stroke:#000000;stroke-width:3.125;"/><polygon fill="#000000" points="1409.375,1529.9917,1413.5417,1520.6167,1409.375,1524.7833,1405.2083,1520.6167,1409.375,1529.9917" style="stroke:#000000;stroke-width:3.125;"/></g><!--MD5=[d2b58fde5691e983f0649a258c8c66a7]
@startuml
!theme hacker


class Grammar #line:black{

variables : set<string>

terminalSymbols: set<string>

startVariable: string

productionRules: set<ProductionRule>

- -
generateLanguage(): Language

derivate(string): ParseTree[]

toAutomaton(): Automaton

parse(string)

removeAmbiguity()

determineType()
}

class TuringMachine
class PushDownAutomaton
class BoundLinearAutomaton
class FiniteAutomaton

class ParseTree 

class Language #line:black{

generate(): Language

concatenate(): Language

toString(): string

join(Language): Language

}

class ProductionRule #line:black{

application: string

result: string

- -
apply()

}


class Automaton #line:black{
verify(string): bool
transform()
transite(symbol)
accepts()
reset()
}

class RegularExpression {
 match()
}

Grammar - -> Language #line:black
Grammar - -> ParseTree #line:black
RegularExpression - -> Grammar #line:black
RegularExpression - -> FiniteAutomaton #line:black
Grammar *- - ProductionRule #line:black
UnristrictedGrammar - -> TuringMachine #line:black
ContextSesitiveGrammar - -> BoundLinearAutomaton #line:black
ContextFreeGrammar - -> PushDownAutomaton #line:black
RegularGrammar - -> FiniteAutomaton #line:black
Automaton <|- - TuringMachine #line:black
Automaton <|- - PushDownAutomaton #line:black
Automaton <|- - BoundLinearAutomaton #line:black
Automaton <|- - FiniteAutomaton #line:black
Grammar <|- - UnristrictedGrammar #line:black
Grammar <|- - ContextSesitiveGrammar #line:black
Grammar <|- - ContextFreeGrammar #line:black
Grammar <|- - RegularGrammar #line:black
abstract class FiniteAutomaton {
   delta
   alphabet
   states
   startState
   actualState
}
class NondeterministicFiniteAutomaton {
  toDeterministicFiniteAutomaton()
}
class DeterministicFiniteAutomaton {
  minimize()
}
NondeterministicFiniteAutomaton - -> DeterministicFiniteAutomaton #line:black
FiniteAutomaton <|- - NondeterministicFiniteAutomaton #line:black
FiniteAutomaton <|- - DeterministicFiniteAutomaton #line:black
DeterministicFiniteAutomaton - -> FiniteAutomatonMinimization #line:black
class FiniteAutomatonMinimization {
minimize()
}
@enduml

@startuml



skinparam BackgroundColor transparent
skinparam useBetaStyle false






<style>
  root {
    BackgroundColor transparent
    FontColor #151515
    HyperLinkColor $ORANGE
    LineColor #6d8b32
    LineThickness 1
    Margin 10
    Padding 6
    Shadowing 0.0
  }
  node {
   Padding 15
   roundcorner 20
   BackgroundColor #b5e853-#6d8b32
  }
  caption {
    LineThickness 0
  }
  footer {
    LineThickness 0
  }
  groupHeader {
    BackgroundColor #6a9fb5
    FontColor #aa759f
    FontStyle bold
  }
  header {
    LineThickness 0
  }
  referenceHeader {
    BackgroundColor transparent
    FontColor #eaeaea
    FontStyle bold
  }
  separator {
    BackgroundColor $FGCOLOR
    FontColor transparent
    FontStyle bold
  }
  title {
	FontSize 20
	BorderRoundCorner            8
	BorderThickness 	         1
	BackgroundColor  #88b2c4-#6a9fb5
	FontColor #b5e853
	BorderColor #6a9fb5
  }
  nwdiagDiagram {
	network {
			FontColor #151515
	BorderColor #d3f198
	BackgroundColor #d3f198-#b5e853    
		LineColor #b5e853
		LineThickness 1.0
		FontColor #d3f198
	}
	server {
			FontColor #151515
	BorderColor #d3f198
	BackgroundColor #d3f198-#b5e853
	}
	arrow {
		FontColor #d3f198
		LineColor #d3f198
	}
	group {
		BackGroundColor #151515
		LineColor $LIGHT_DARK
		LineThickness 2.0
		Margin 5
		Padding 5
	}
  }
  ganttDiagram {
	task {
			FontColor #151515
	BorderColor #d3f198
	BackgroundColor #d3f198-#b5e853
		LineColor #b5e853
		Margin 10
		Padding 6
	}
	note {
		FontColor $INFO_TEXT
		LineColor #885E7F
		BackGroundColor #aa759f
	}
	separator {
		LineColor #6a9fb5
		BackGroundColor #6a9fb5-#557f91
		FontColor #fefefe
	}
	milestone {
		FontColor #aa759f
		FontSize 16
		FontStyle italic
		BackGroundColor #6a9fb5
		LineColor #557f91
	}
	timeline {
		BackgroundColor #6a9fb5
		FontColor #fefefe
	}
	closed {
		BackgroundColor $WARNING_DARK
		FontColor #151515
	}
  }
</style>
skinparam defaultFontName       "Verdana"
skinparam defaultFontSize       12
skinparam dpi                   100
skinparam shadowing             false
skinparam roundcorner           40
skinparam ParticipantPadding    40
skinparam BoxPadding            40
skinparam Padding               5
skinparam ArrowColor            #eaeaea
skinparam stereotype {
    CBackgroundColor #557f91
    CBorderColor #88b2c4
    ABackgroundColor #a6ba7a
    ABorderColor $SUCCESS_DARK
    IBackgroundColor #bd6768
    IBorderColor $DANGER_DARK
    EBackgroundColor #f6cc91
    EBorderColor $WARNING_DARK
    NBackgroundColor #bb91b2
    NBorderColor #885E7F
}
skinparam title {
	FontColor	                 #b5e853
	BorderColor	                 #b5e853
	FontSize	    	         20
	BorderRoundCorner            8
	BorderThickness 	         1
	BackgroundColor              #151515-black
}


skinparam legend {
	BackgroundColor #6a9fb5
	BorderColor #557f91
	FontColor #eaeaea
}

skinparam swimlane {
	BorderColor #aa759f
	BorderThickness 2
	TitleBackgroundColor  #88b2c4-#6a9fb5
	TitleFontColor #b5e853
}


skinparam activity {
		FontColor #151515
	BorderColor #d3f198
	BackgroundColor #d3f198-#b5e853
	BarColor #90a959
	StartColor #aa759f
	EndColor #aa759f
	DiamondBackgroundColor #88b2c4-#6a9fb5
  	DiamondBorderColor #88b2c4
  	DiamondFontColor #fefefe
}


skinparam participant {
		FontColor #151515
	BorderColor #d3f198
	BackgroundColor #d3f198-#b5e853
	BorderThickness 2
}


skinparam actor {
		FontColor #151515
	BorderColor #d3f198
	BackgroundColor #d3f198-#b5e853
	FontColor #eaeaea
}


skinparam arrow {
	Thickness 3
	Color #b5e853
	FontColor $FGCOLOR
}


skinparam sequence {
	BorderColor #b5e853
	TitleFontColor #b5e853
	BackgroundColor transparent
	StartColor #b5e853
	EndColor #b5e853
	BoxBackgroundColor transparent
	BoxBorderColor #eaeaea
	BoxFontColor #eaeaea
	DelayFontColor #eaeaea
	LifeLineBorderColor #6a9fb5
	LifeLineBorderThickness 2
	LifeLineBackgroundColor #557f91
	GroupBackgroundColor #151515
	GroupBorderColor #eaeaea
	GroupFontColor #eaeaea
	GroupHeaderFontColor #aa759f
	GroupHeaderBackgroundColor transparent
	DividerBackgroundColor #eaeaea
    DividerBorderColor #eaeaea
    DividerBorderThickness 2
    DividerFontColor #151515
	ReferenceBackgroundColor transparent
	ReferenceBorderColor #eaeaea
	ReferenceFontColor #eaeaea
	ReferenceHeaderBackgroundColor #151515
	StereotypeFontColor #151515
}


skinparam partition {
	BorderColor #b5e853
	FontColor #b5e853
	BackgroundColor #151515-black
}


skinparam collections {
		FontColor #151515
	BorderColor #d3f198
	BackgroundColor #d3f198-#b5e853
}


skinparam control {
		FontColor #151515
	BorderColor #d3f198
	BackgroundColor #d3f198-#b5e853
	FontColor #eaeaea
}


skinparam entity {
		FontColor #151515
	BorderColor #d3f198
	BackgroundColor #d3f198-#b5e853
	FontColor #eaeaea
}


skinparam boundary {
		FontColor #151515
	BorderColor #d3f198
	BackgroundColor #d3f198-#b5e853
	FontColor #eaeaea
}


skinparam agent {
	BackgroundColor #f6cc91-#f4bf75
	BorderColor #f6cc91
	FontColor #eaeaea
}


skinparam note {
	BorderThickness 1
	BackgroundColor #bb91b2-#885E7F
	BorderColor #885E7F
	FontColor $WHITE
}


skinparam artifact {
	BackgroundColor #eaeaea
	BorderColor white
	FontColor #151515
}


skinparam component {
		FontColor #151515
	BorderColor #d3f198
	BackgroundColor #d3f198-#b5e853
}


skinparam interface {
	BackgroundColor  #bd6768-#ac4142
	BorderColor  #bd6768
	FontColor #eaeaea
}


skinparam storage {
	BackgroundColor #f6cc91-#f4bf75
  	BorderColor #f6cc91
	FontColor #151515
}


skinparam node {
	BackgroundColor  #151515-black
	BorderColor #d3f198
	FontColor #eaeaea
}


skinparam cloud {
	BackgroundColor transparent
	BorderColor #eaeaea
	FontColor #eaeaea
}


skinparam database {
	BackgroundColor  #151515-black
	BorderColor #d3f198
	FontColor #eaeaea
}


skinparam class {
		FontColor #151515
	BorderColor #d3f198
	BackgroundColor #d3f198-#b5e853
	HeaderBackgroundColor #d3f198-#b5e853
	StereotypeFontColor #eaeaea
	BorderThickness 1
	AttributeFontColor #151515
	AttributeFontSize 11
}


skinparam object {
		FontColor #151515
	BorderColor #d3f198
	BackgroundColor #d3f198-#b5e853
	StereotypeFontColor #eaeaea
	BorderThickness 1
	AttributeFontColor #151515
	AttributeFontSize 11
}


skinparam usecase {
		FontColor #151515
	BorderColor #d3f198
	BackgroundColor #d3f198-#b5e853
	BorderThickness 2
	StereotypeFontColor #b5e853
}


skinparam rectangle {
	BackgroundColor transparent
	BorderColor #b5e853
	BorderThickness 2
	FontColor #6d8b32
	StereotypeFontColor #b5e853
}


skinparam package {
	BackgroundColor #151515
  	BorderColor #b5e853
	FontColor #b5e853
	BorderThickness 2
}


skinparam folder {
	BackgroundColor #151515-black
  	BorderColor #f4bf75
	FontColor #f4bf75
	BorderThickness 2
}


skinparam frame {
	BackgroundColor #151515-black
  	BorderColor #aa759f
	FontColor #aa759f
	BorderThickness 2
}


skinparam state {
		FontColor #151515
	BorderColor #d3f198
	BackgroundColor #d3f198-#b5e853
	StartColor #aa759f
	EndColor #aa759f
	AttributeFontColor #fefefe
	AttributeFontSize 11
}


skinparam queue {
		FontColor #151515
	BorderColor #d3f198
	BackgroundColor #d3f198-#b5e853
}


skinparam card {
	BackgroundColor #bb91b2-#aa759f
	BorderColor #bb91b2
	FontColor $INFO_TEXT
}


skinparam file {
	BackgroundColor #88b2c4-#6a9fb5
	BorderColor #88b2c4
	FontColor #eaeaea
}


skinparam stack {
		FontColor #151515
	BorderColor #d3f198
	BackgroundColor #d3f198-#b5e853
}

<style>
mindmapDiagram, wbsDiagram {
    element {
	    	FontColor #151515
	BorderColor #d3f198
	BackgroundColor #d3f198-#b5e853
	}
	:depth(0) {
        fontSize 16
        fontStyle bold
        fontColor #6a9fb5
    }
    :depth(1) {
        fontSize 14
        padding 5
        fontStyle bold
    }
    :depth(2) {
        fontSize 12
        padding 4
    }
    :depth(3) {
        fontSize 11
        padding 3
        fontColor #aa759f
    }

}
</style>




class Grammar #line:black{

variables : set<string>

terminalSymbols: set<string>

startVariable: string

productionRules: set<ProductionRule>

- -
generateLanguage(): Language

derivate(string): ParseTree[]

toAutomaton(): Automaton

parse(string)

removeAmbiguity()

determineType()
}

class TuringMachine
class PushDownAutomaton
class BoundLinearAutomaton
class FiniteAutomaton

class ParseTree 

class Language #line:black{

generate(): Language

concatenate(): Language

toString(): string

join(Language): Language

}

class ProductionRule #line:black{

application: string

result: string

- -
apply()

}


class Automaton #line:black{
verify(string): bool
transform()
transite(symbol)
accepts()
reset()
}

class RegularExpression {
 match()
}

Grammar - -> Language #line:black
Grammar - -> ParseTree #line:black
RegularExpression - -> Grammar #line:black
RegularExpression - -> FiniteAutomaton #line:black
Grammar *- - ProductionRule #line:black
UnristrictedGrammar - -> TuringMachine #line:black
ContextSesitiveGrammar - -> BoundLinearAutomaton #line:black
ContextFreeGrammar - -> PushDownAutomaton #line:black
RegularGrammar - -> FiniteAutomaton #line:black
Automaton <|- - TuringMachine #line:black
Automaton <|- - PushDownAutomaton #line:black
Automaton <|- - BoundLinearAutomaton #line:black
Automaton <|- - FiniteAutomaton #line:black
Grammar <|- - UnristrictedGrammar #line:black
Grammar <|- - ContextSesitiveGrammar #line:black
Grammar <|- - ContextFreeGrammar #line:black
Grammar <|- - RegularGrammar #line:black
abstract class FiniteAutomaton {
   delta
   alphabet
   states
   startState
   actualState
}
class NondeterministicFiniteAutomaton {
  toDeterministicFiniteAutomaton()
}
class DeterministicFiniteAutomaton {
  minimize()
}
NondeterministicFiniteAutomaton - -> DeterministicFiniteAutomaton #line:black
FiniteAutomaton <|- - NondeterministicFiniteAutomaton #line:black
FiniteAutomaton <|- - DeterministicFiniteAutomaton #line:black
DeterministicFiniteAutomaton - -> FiniteAutomatonMinimization #line:black
class FiniteAutomatonMinimization {
minimize()
}
@enduml

PlantUML version 1.2022.6beta5(Unknown compile time)
(GPL source distribution)
Java Runtime: Java(TM) SE Runtime Environment
JVM: Java HotSpot(TM) 64-Bit Server VM
Default Encoding: UTF-8
Language: en
Country: US
--></g></svg>