<?xml version="1.0" encoding="UTF-8" standalone="no"?>
<svg xmlns="http://www.w3.org/2000/svg" xmlns:xlink="http://www.w3.org/1999/xlink" contentStyleType="text/css" height="679px" preserveAspectRatio="none" style="width:1350px;height:679px;background:#FFFFFF;" version="1.1" viewBox="0 0 1350 679" width="1350px" zoomAndPan="magnify"><script xmlns=""/><script xmlns=""/><defs/><g><!--cluster Service1--><g id="cluster_Service1"><rect fill="none" height="223" rx="2.5" ry="2.5" style="stroke:#181818;stroke-width:1.0;" width="551" x="7" y="203"/><rect fill="none" height="10" style="stroke:#181818;stroke-width:1.0;" width="15" x="538" y="208"/><rect fill="none" height="2" style="stroke:#181818;stroke-width:1.0;" width="4" x="536" y="210"/><rect fill="none" height="2" style="stroke:#181818;stroke-width:1.0;" width="4" x="536" y="214"/><text fill="#000000" font-family="sans-serif" font-size="14" font-weight="bold" lengthAdjust="spacing" textLength="68" x="248.5" y="228.9951">Service1</text></g><!--cluster Service2--><g id="cluster_Service2"><rect fill="none" height="223" rx="2.5" ry="2.5" style="stroke:#181818;stroke-width:1.0;" width="551" x="718" y="203"/><rect fill="none" height="10" style="stroke:#181818;stroke-width:1.0;" width="15" x="1249" y="208"/><rect fill="none" height="2" style="stroke:#181818;stroke-width:1.0;" width="4" x="1247" y="210"/><rect fill="none" height="2" style="stroke:#181818;stroke-width:1.0;" width="4" x="1247" y="214"/><text fill="#000000" font-family="sans-serif" font-size="14" font-weight="bold" lengthAdjust="spacing" textLength="68" x="959.5" y="228.9951">Service2</text></g><!--cluster Service3--><g id="cluster_Service3"><rect fill="none" height="223" rx="2.5" ry="2.5" style="stroke:#181818;stroke-width:1.0;" width="551" x="511" y="450"/><rect fill="none" height="10" style="stroke:#181818;stroke-width:1.0;" width="15" x="1042" y="455"/><rect fill="none" height="2" style="stroke:#181818;stroke-width:1.0;" width="4" x="1040" y="457"/><rect fill="none" height="2" style="stroke:#181818;stroke-width:1.0;" width="4" x="1040" y="461"/><text fill="#000000" font-family="sans-serif" font-size="14" font-weight="bold" lengthAdjust="spacing" textLength="68" x="752.5" y="475.9951">Service3</text></g><!--cluster SomeFrontOffice<<Mashup>>--><g id="cluster_SomeFrontOffice&lt;&lt;Mashup&gt;&gt;"><rect fill="none" height="69" rx="2.5" ry="2.5" style="stroke:#181818;stroke-width:1.0;" width="234" x="432" y="110"/><rect fill="none" height="10" style="stroke:#181818;stroke-width:1.0;" width="15" x="646" y="115"/><rect fill="none" height="2" style="stroke:#181818;stroke-width:1.0;" width="4" x="644" y="117"/><rect fill="none" height="2" style="stroke:#181818;stroke-width:1.0;" width="4" x="644" y="121"/><text fill="#000000" font-family="sans-serif" font-size="14" font-weight="bold" lengthAdjust="spacing" textLength="218" x="440" y="135.9951">SomeFrontOffice«Mashup»</text></g><!--cluster AnotherFrontEnd--><g id="cluster_AnotherFrontEnd"><rect fill="none" height="69" rx="2.5" ry="2.5" style="stroke:#181818;stroke-width:1.0;" width="154" x="254" y="110"/><rect fill="none" height="10" style="stroke:#181818;stroke-width:1.0;" width="15" x="388" y="115"/><rect fill="none" height="2" style="stroke:#181818;stroke-width:1.0;" width="4" x="386" y="117"/><rect fill="none" height="2" style="stroke:#181818;stroke-width:1.0;" width="4" x="386" y="121"/><text fill="#000000" font-family="sans-serif" font-size="14" font-weight="bold" lengthAdjust="spacing" textLength="138" x="262" y="135.9951">AnotherFrontEnd</text></g><!--entity Machine1--><g id="elem_Machine1"><polygon fill="#F1F1F1" points="148,254,158,244,256,244,256,280.2969,246,290.2969,148,290.2969,148,254" style="stroke:#181818;stroke-width:0.5;"/><line style="stroke:#181818;stroke-width:0.5;" x1="246" x2="256" y1="254" y2="244"/><line style="stroke:#181818;stroke-width:0.5;" x1="148" x2="246" y1="254" y2="254"/><line style="stroke:#181818;stroke-width:0.5;" x1="246" x2="246" y1="254" y2="290.2969"/><text fill="#000000" font-family="sans-serif" font-size="14" lengthAdjust="spacing" textLength="68" x="163" y="276.9951">Machine1</text></g><!--entity Machine2--><g id="elem_Machine2"><polygon fill="#F1F1F1" points="291.5,254,301.5,244,398.5,244,398.5,280.2969,388.5,290.2969,291.5,290.2969,291.5,254" style="stroke:#181818;stroke-width:0.5;"/><line style="stroke:#181818;stroke-width:0.5;" x1="388.5" x2="398.5" y1="254" y2="244"/><line style="stroke:#181818;stroke-width:0.5;" x1="291.5" x2="388.5" y1="254" y2="254"/><line style="stroke:#181818;stroke-width:0.5;" x1="388.5" x2="388.5" y1="254" y2="290.2969"/><text fill="#000000" font-family="sans-serif" font-size="14" lengthAdjust="spacing" textLength="67" x="306.5" y="276.9951">Machine2</text></g><!--entity Machine3--><g id="elem_Machine3"><polygon fill="#F1F1F1" points="434,254,444,244,542,244,542,280.2969,532,290.2969,434,290.2969,434,254" style="stroke:#181818;stroke-width:0.5;"/><line style="stroke:#181818;stroke-width:0.5;" x1="532" x2="542" y1="254" y2="244"/><line style="stroke:#181818;stroke-width:0.5;" x1="434" x2="532" y1="254" y2="254"/><line style="stroke:#181818;stroke-width:0.5;" x1="532" x2="532" y1="254" y2="290.2969"/><text fill="#000000" font-family="sans-serif" font-size="14" lengthAdjust="spacing" textLength="68" x="449" y="276.9951">Machine3</text></g><!--entity interface1--><g id="elem_interface1"><ellipse cx="68" cy="267" fill="#F1F1F1" rx="8" ry="8" style="stroke:#181818;stroke-width:0.5;"/><text fill="#000000" font-family="sans-serif" font-size="14" lengthAdjust="spacing" textLength="75" x="30.5" y="296.9951">interface1</text></g><!--entity code1--><g id="elem_code1"><path d="M253.5,356 L294.5,356 A3.75,3.75 0 0 1 297,358.5 L304,377 L322.5,377 A2.5,2.5 0 0 1 325,379.5 L325,407.7969 A2.5,2.5 0 0 1 322.5,410.2969 L253.5,410.2969 A2.5,2.5 0 0 1 251,407.7969 L251,358.5 A2.5,2.5 0 0 1 253.5,356 " fill="#F1F1F1" style="stroke:#181818;stroke-width:0.5;"/><line style="stroke:#181818;stroke-width:0.5;" x1="251" x2="304" y1="377" y2="377"/><text fill="#000000" font-family="sans-serif" font-size="14" lengthAdjust="spacing" textLength="44" x="261" y="396.9951">code1</text></g><!--entity database1--><g id="elem_database1"><path d="M360.5,370.5 C360.5,360.5 408,360.5 408,360.5 C408,360.5 455.5,360.5 455.5,370.5 L455.5,395.7969 C455.5,405.7969 408,405.7969 408,405.7969 C408,405.7969 360.5,405.7969 360.5,395.7969 L360.5,370.5 " fill="#F1F1F1" style="stroke:#181818;stroke-width:0.5;"/><path d="M360.5,370.5 C360.5,380.5 408,380.5 408,380.5 C408,380.5 455.5,380.5 455.5,370.5 " fill="none" style="stroke:#181818;stroke-width:0.5;"/><text fill="#000000" font-family="sans-serif" font-size="14" lengthAdjust="spacing" textLength="75" x="370.5" y="397.4951">database1</text></g><!--entity Machine4--><g id="elem_Machine4"><polygon fill="#F1F1F1" points="859.5,254,869.5,244,966.5,244,966.5,280.2969,956.5,290.2969,859.5,290.2969,859.5,254" style="stroke:#181818;stroke-width:0.5;"/><line style="stroke:#181818;stroke-width:0.5;" x1="956.5" x2="966.5" y1="254" y2="244"/><line style="stroke:#181818;stroke-width:0.5;" x1="859.5" x2="956.5" y1="254" y2="254"/><line style="stroke:#181818;stroke-width:0.5;" x1="956.5" x2="956.5" y1="254" y2="290.2969"/><text fill="#000000" font-family="sans-serif" font-size="14" lengthAdjust="spacing" textLength="67" x="874.5" y="276.9951">Machine4</text></g><!--entity Machine5--><g id="elem_Machine5"><polygon fill="#F1F1F1" points="1002,254,1012,244,1110,244,1110,280.2969,1100,290.2969,1002,290.2969,1002,254" style="stroke:#181818;stroke-width:0.5;"/><line style="stroke:#181818;stroke-width:0.5;" x1="1100" x2="1110" y1="254" y2="244"/><line style="stroke:#181818;stroke-width:0.5;" x1="1002" x2="1100" y1="254" y2="254"/><line style="stroke:#181818;stroke-width:0.5;" x1="1100" x2="1100" y1="254" y2="290.2969"/><text fill="#000000" font-family="sans-serif" font-size="14" lengthAdjust="spacing" textLength="68" x="1017" y="276.9951">Machine5</text></g><!--entity Machine6--><g id="elem_Machine6"><polygon fill="#F1F1F1" points="1145,254,1155,244,1253,244,1253,280.2969,1243,290.2969,1145,290.2969,1145,254" style="stroke:#181818;stroke-width:0.5;"/><line style="stroke:#181818;stroke-width:0.5;" x1="1243" x2="1253" y1="254" y2="244"/><line style="stroke:#181818;stroke-width:0.5;" x1="1145" x2="1243" y1="254" y2="254"/><line style="stroke:#181818;stroke-width:0.5;" x1="1243" x2="1243" y1="254" y2="290.2969"/><text fill="#000000" font-family="sans-serif" font-size="14" lengthAdjust="spacing" textLength="68" x="1160" y="276.9951">Machine6</text></g><!--entity code2--><g id="elem_code2"><path d="M879,356 L920,356 A3.75,3.75 0 0 1 922.5,358.5 L929.5,377 L947,377 A2.5,2.5 0 0 1 949.5,379.5 L949.5,407.7969 A2.5,2.5 0 0 1 947,410.2969 L879,410.2969 A2.5,2.5 0 0 1 876.5,407.7969 L876.5,358.5 A2.5,2.5 0 0 1 879,356 " fill="#F1F1F1" style="stroke:#181818;stroke-width:0.5;"/><line style="stroke:#181818;stroke-width:0.5;" x1="876.5" x2="929.5" y1="377" y2="377"/><text fill="#000000" font-family="sans-serif" font-size="14" lengthAdjust="spacing" textLength="43" x="886.5" y="396.9951">code2</text></g><!--entity interface2--><g id="elem_interface2"><ellipse cx="779" cy="267" fill="#F1F1F1" rx="8" ry="8" style="stroke:#181818;stroke-width:0.5;"/><text fill="#000000" font-family="sans-serif" font-size="14" lengthAdjust="spacing" textLength="74" x="742" y="296.9951">interface2</text></g><!--entity database2--><g id="elem_database2"><path d="M985,370.5 C985,360.5 1032,360.5 1032,360.5 C1032,360.5 1079,360.5 1079,370.5 L1079,395.7969 C1079,405.7969 1032,405.7969 1032,405.7969 C1032,405.7969 985,405.7969 985,395.7969 L985,370.5 " fill="#F1F1F1" style="stroke:#181818;stroke-width:0.5;"/><path d="M985,370.5 C985,380.5 1032,380.5 1032,380.5 C1032,380.5 1079,380.5 1079,370.5 " fill="none" style="stroke:#181818;stroke-width:0.5;"/><text fill="#000000" font-family="sans-serif" font-size="14" lengthAdjust="spacing" textLength="74" x="995" y="397.4951">database2</text></g><!--entity Machine7--><g id="elem_Machine7"><polygon fill="#F1F1F1" points="527,501,537,491,635,491,635,527.2969,625,537.2969,527,537.2969,527,501" style="stroke:#181818;stroke-width:0.5;"/><line style="stroke:#181818;stroke-width:0.5;" x1="625" x2="635" y1="501" y2="491"/><line style="stroke:#181818;stroke-width:0.5;" x1="527" x2="625" y1="501" y2="501"/><line style="stroke:#181818;stroke-width:0.5;" x1="625" x2="625" y1="501" y2="537.2969"/><text fill="#000000" font-family="sans-serif" font-size="14" lengthAdjust="spacing" textLength="68" x="542" y="523.9951">Machine7</text></g><!--entity Machine8--><g id="elem_Machine8"><polygon fill="#F1F1F1" points="670.5,501,680.5,491,777.5,491,777.5,527.2969,767.5,537.2969,670.5,537.2969,670.5,501" style="stroke:#181818;stroke-width:0.5;"/><line style="stroke:#181818;stroke-width:0.5;" x1="767.5" x2="777.5" y1="501" y2="491"/><line style="stroke:#181818;stroke-width:0.5;" x1="670.5" x2="767.5" y1="501" y2="501"/><line style="stroke:#181818;stroke-width:0.5;" x1="767.5" x2="767.5" y1="501" y2="537.2969"/><text fill="#000000" font-family="sans-serif" font-size="14" lengthAdjust="spacing" textLength="67" x="685.5" y="523.9951">Machine8</text></g><!--entity Machine9--><g id="elem_Machine9"><polygon fill="#F1F1F1" points="813,501,823,491,921,491,921,527.2969,911,537.2969,813,537.2969,813,501" style="stroke:#181818;stroke-width:0.5;"/><line style="stroke:#181818;stroke-width:0.5;" x1="911" x2="921" y1="501" y2="491"/><line style="stroke:#181818;stroke-width:0.5;" x1="813" x2="911" y1="501" y2="501"/><line style="stroke:#181818;stroke-width:0.5;" x1="911" x2="911" y1="501" y2="537.2969"/><text fill="#000000" font-family="sans-serif" font-size="14" lengthAdjust="spacing" textLength="68" x="828" y="523.9951">Machine9</text></g><!--entity code3--><g id="elem_code3"><path d="M546.5,603 L587.5,603 A3.75,3.75 0 0 1 590,605.5 L597,624 L615.5,624 A2.5,2.5 0 0 1 618,626.5 L618,654.7969 A2.5,2.5 0 0 1 615.5,657.2969 L546.5,657.2969 A2.5,2.5 0 0 1 544,654.7969 L544,605.5 A2.5,2.5 0 0 1 546.5,603 " fill="#F1F1F1" style="stroke:#181818;stroke-width:0.5;"/><line style="stroke:#181818;stroke-width:0.5;" x1="544" x2="597" y1="624" y2="624"/><text fill="#000000" font-family="sans-serif" font-size="14" lengthAdjust="spacing" textLength="44" x="554" y="643.9951">code3</text></g><!--entity interface3--><g id="elem_interface3"><ellipse cx="1001" cy="514" fill="#F1F1F1" rx="8" ry="8" style="stroke:#181818;stroke-width:0.5;"/><text fill="#000000" font-family="sans-serif" font-size="14" lengthAdjust="spacing" textLength="75" x="963.5" y="543.9951">interface3</text></g><!--entity database3--><g id="elem_database3"><path d="M653.5,617.5 C653.5,607.5 701,607.5 701,607.5 C701,607.5 748.5,607.5 748.5,617.5 L748.5,642.7969 C748.5,652.7969 701,652.7969 701,652.7969 C701,652.7969 653.5,652.7969 653.5,642.7969 L653.5,617.5 " fill="#F1F1F1" style="stroke:#181818;stroke-width:0.5;"/><path d="M653.5,617.5 C653.5,627.5 701,627.5 701,627.5 C701,627.5 748.5,627.5 748.5,617.5 " fill="none" style="stroke:#181818;stroke-width:0.5;"/><text fill="#000000" font-family="sans-serif" font-size="14" lengthAdjust="spacing" textLength="75" x="663.5" y="644.4951">database3</text></g><!--entity UserInterface--><g id="elem_UserInterface"><ellipse cx="638" cy="154" fill="#F1F1F1" rx="8" ry="8" style="stroke:#181818;stroke-width:0.5;"/><text fill="#000000" font-family="sans-serif" font-size="14" lengthAdjust="spacing" textLength="97" x="589.5" y="183.9951">UserInterface</text></g><!--entity UserInterface2--><g id="elem_UserInterface2"><ellipse cx="383" cy="154" fill="#F1F1F1" rx="8" ry="8" style="stroke:#181818;stroke-width:0.5;"/><text fill="#000000" font-family="sans-serif" font-size="14" lengthAdjust="spacing" textLength="105" x="330.5" y="183.9951">UserInterface2</text></g><g id="elem_GMN25"><path d="M682,141.5 L682,150 L647.092,154 L682,158 L682,166.6328 A0,0 0 0 0 682,166.6328 L860,166.6328 A0,0 0 0 0 860,166.6328 L860,151.5 L850,141.5 L682,141.5 A0,0 0 0 0 682,141.5 " fill="#FEFFDD" style="stroke:#181818;stroke-width:0.5;"/><path d="M850,141.5 L850,151.5 L860,151.5 L850,141.5 " fill="#FEFFDD" style="stroke:#181818;stroke-width:0.5;"/><text fill="#000000" font-family="sans-serif" font-size="13" lengthAdjust="spacing" textLength="157" x="688" y="158.5669">For example, a Web app</text></g><g id="elem_GMN30"><path d="M895.5,141.5 L895.5,166.6328 L1158.5,166.6328 L1158.5,151.5 L1148.5,141.5 L895.5,141.5 " fill="#FEFFDD" style="stroke:#181818;stroke-width:0.5;"/><path d="M1148.5,141.5 L1148.5,151.5 L1158.5,151.5 L1148.5,141.5 " fill="#FEFFDD" style="stroke:#181818;stroke-width:1.0;"/><text fill="#000000" font-family="sans-serif" font-size="13" lengthAdjust="spacing" textLength="242" x="901.5" y="158.5669">For example, a Mobile app or Desktop</text></g><!--entity CloudVendor--><g id="elem_CloudVendor"><path d="M586.6647,253.7214 C590.6181,247.0438 594.4438,246.7902 599.3758,252.736 C601.5868,246.371 607.444,244.7982 611.6143,250.7964 C615.759,244.2215 620.8595,244.9561 625.2365,250.5361 C629.1667,242.8108 634.5252,243.2655 639.9209,248.9288 C644.9529,244.0163 648.61,244.1838 651.7436,250.8648 C656.9832,244.9133 662.9896,244.5955 666.6988,252.5148 C669.5189,247.2015 675.2196,246.8707 678.3528,252.171 C682.6807,245.2812 689.324,246.8552 692.3284,253.5343 C700.5053,256.529 700.1272,261.8141 694.7158,267.1852 C701.2262,272.2348 700.2195,279.855 692.1183,282.4123 C689.7043,291.0956 684.0704,291.7834 677.88,286.1743 C674.9274,291.113 669.5348,291.2253 666.6823,286.0633 C663.9413,294.5239 658.0201,294.9826 652.1115,289.3347 C648.8956,296.5023 643.7114,296.1919 639.2346,290.6079 C635.0798,295.7404 628.9246,295.0691 625.9228,289.2113 C620.6575,293.968 616.4704,294.4117 612.6716,287.5402 C606.9265,293.7933 602.148,291.9409 598.3603,285.3578 C593.8122,289.818 588.8402,288.9102 586.1309,283.1562 C577.9309,279.7923 576.2456,275.5272 582.822,268.7657 C577.1296,263.111 578.2634,255.7761 586.6647,253.7214 " fill="#F1F1F1" style="stroke:#181818;stroke-width:0.5;"/><text fill="#000000" font-family="sans-serif" font-size="14" lengthAdjust="spacing" textLength="92" x="592" y="271.9951">CloudVendor</text></g><!--entity User--><g id="elem_User"><ellipse cx="510" cy="14" fill="#F1F1F1" rx="8" ry="8" style="stroke:#181818;stroke-width:0.5;"/><path d="M510,22 L510,49 M497,30 L523,30 M510,49 L497,64 M510,49 L523,64 " fill="none" style="stroke:#181818;stroke-width:0.5;"/><text fill="#000000" font-family="sans-serif" font-size="14" lengthAdjust="spacing" textLength="31" x="494.5" y="78.4951">User</text></g><!--link UserInterface2 to GMN30--><g id="link_UserInterface2_GMN30"><path d="M392.283,150.777 C424.621,139.742 535.522,103.511 630.5,91.75 C681.003,85.496 809.414,82.744 859.5,91.75 C912.17,101.221 969.912,126.192 1001.98,141.475 " fill="none" id="UserInterface2-GMN30" style="stroke:#181818;stroke-width:1.0;stroke-dasharray:7.0,7.0;"/></g><!--link UserInterface to interface1--><g id="link_UserInterface_interface1"><path d="M628.838,156.643 C597.895,162.113 494.376,179.77 408,187 C377.206,189.577 157.947,181.814 130,195 C103.756,207.383 84.121,236.678 74.5315,253.514 " fill="none" id="UserInterface-to-interface1" style="stroke:#181818;stroke-width:1.0;"/><polygon fill="#181818" points="72.0961,257.908,79.9581,251.976,74.5203,253.535,72.9613,248.0972,72.0961,257.908" style="stroke:#181818;stroke-width:1.0;"/></g><!--link UserInterface to interface2--><g id="link_UserInterface_interface2"><path d="M642.2,163.005 C646.584,170.504 654.188,181.375 664,187 C684.286,198.63 695.466,183.813 716,195 C741.397,208.836 761.581,237.07 771.763,253.458 " fill="none" id="UserInterface-to-interface2" style="stroke:#181818;stroke-width:1.0;"/><polygon fill="#181818" points="774.366,257.744,773.1133,247.9751,771.7707,253.4703,766.2755,252.1277,774.366,257.744" style="stroke:#181818;stroke-width:1.0;"/></g><!--link UserInterface to interface3--><g id="link_UserInterface_interface3"><path d="M641.878,163.02 C646.112,170.757 653.691,182.01 664,187 C679.128,194.323 1257.19,183.037 1269,195 C1343.61,270.605 1332.61,348.931 1269,434 C1237.4,476.261 1065.93,503.75 1015.17,511.051 " fill="none" id="UserInterface-to-interface3" style="stroke:#181818;stroke-width:1.0;"/><polygon fill="#181818" points="1010.11,511.768,1019.5814,514.4684,1015.0607,511.0679,1018.4613,506.5472,1010.11,511.768" style="stroke:#181818;stroke-width:1.0;"/></g><!--link UserInterface to CloudVendor--><g id="link_UserInterface_CloudVendor"><path d="M638,163.343 C638,179.159 638,214.129 638,238.846 " fill="none" id="UserInterface-to-CloudVendor" style="stroke:#181818;stroke-width:1.0;"/><polygon fill="#181818" points="638,243.954,642,234.954,638,238.954,634,234.954,638,243.954" style="stroke:#181818;stroke-width:1.0;"/></g><!--link User to UserInterface--><g id="link_User_UserInterface"><path d="M525.695,57.804 C551.19,79.415 601.136,121.752 624.871,141.871 " fill="none" id="User-to-UserInterface" style="stroke:#181818;stroke-width:1.0;"/><polygon fill="#181818" points="628.717,145.131,624.4376,136.2605,624.9027,141.8982,619.265,142.3633,628.717,145.131" style="stroke:#181818;stroke-width:1.0;"/></g><!--link User to UserInterface2--><g id="link_User_UserInterface2"><path d="M494.427,57.804 C469.131,79.415 419.576,121.752 396.027,141.871 " fill="none" id="User-to-UserInterface2" style="stroke:#181818;stroke-width:1.0;"/><polygon fill="#181818" points="392.21,145.131,401.6507,142.3249,396.0111,141.8827,396.4534,136.2432,392.21,145.131" style="stroke:#181818;stroke-width:1.0;"/></g><!--link UserInterface2 to interface1--><g id="link_UserInterface2_interface1"><path d="M373.905,155.608 C333.883,158.408 173.494,170.963 130,195 C105.078,208.773 85.3921,236.624 75.3376,253.052 " fill="none" id="UserInterface2-to-interface1" style="stroke:#181818;stroke-width:1.0;"/><polygon fill="#181818" points="72.5313,257.756,80.5787,252.078,75.0939,253.4626,73.7092,247.9778,72.5313,257.756" style="stroke:#181818;stroke-width:1.0;"/></g><!--SRC=[VPBDIiGm58NtUOhBh9r5K_yP2g8Ek1XSYBfEarjRR7DBcX51V7UJZZhJ9DCiId9ESix7fPAwdZHg2qzeFXg96NmnS4kJGjW8MJSQiqZXaPAFIgCjcaf8tEzsZojg5HgGxiLEKCAAKWpulydODsConE49dDD8EOkKyx2L7-FZQHoUnCaJE1UHSXafLo7EqN7bQPmymA4EruQqVQmgXxLQRSHGR_kYy7pxrES1pSFVoILeiWYcUQljDQp907wAhc_n10IyOWcYxmzBRjpr6itOSw_LJFGuh9dm3PLDYpuVd767mxibNzNILi6j_xwWLcGO4zAw6xzhuKiMZ4swOBai3l-k6PFFcNd2dA1uUrIdKqpBGHKFA7y0]--></g></svg>