<?xml version="1.0" encoding="windows-1252" standalone="no"?>
<svg xmlns="http://www.w3.org/2000/svg" xmlns:xlink="http://www.w3.org/1999/xlink" contentStyleType="text/css" height="310px" preserveAspectRatio="none" style="width:1483px;height:310px;background:#FFFFFF;" version="1.1" viewBox="0 0 1483 310" width="1483px" zoomAndPan="magnify"><script xmlns="" id="dashlane_tiresias"/><script xmlns="" id="dashlane_webauthn"/><defs/><g><ellipse cx="264.5" cy="20" fill="#222222" rx="10" ry="10" style="stroke:#222222;stroke-width:1.0;"/><path d="M372.5,54.418 L372.5,62.9844 L352.5,66.9844 L372.5,70.9844 L372.5,79.5508 A0,0 0 0 0 372.5,79.5508 L983.5,79.5508 A0,0 0 0 0 983.5,79.5508 L983.5,64.418 L973.5,54.418 L372.5,54.418 A0,0 0 0 0 372.5,54.418 " fill="#FEFFDD" style="stroke:#181818;stroke-width:0.5;"/><path d="M973.5,54.418 L973.5,64.418 L983.5,64.418 L973.5,54.418 " fill="#FEFFDD" style="stroke:#181818;stroke-width:0.5;"/><text fill="#000000" font-family="sans-serif" font-size="13" lengthAdjust="spacing" textLength="590" x="378.5" y="71.4849">Entender el Proceso actual, el Lenguaje técnico, Trabajos relacionados y Proceso propuesto.</text><rect fill="#F1F1F1" height="33.9688" rx="12.5" ry="12.5" style="stroke:#181818;stroke-width:0.5;" width="176" x="176.5" y="50"/><text fill="#000000" font-family="sans-serif" font-size="12" lengthAdjust="spacing" textLength="156" x="186.5" y="71.1387">Comprensión del Dominio</text><path d="M432,108.3867 L432,116.9531 L412,120.9531 L432,124.9531 L432,133.5195 A0,0 0 0 0 432,133.5195 L973,133.5195 A0,0 0 0 0 973,133.5195 L973,118.3867 L963,108.3867 L432,108.3867 A0,0 0 0 0 432,108.3867 " fill="#FEFFDD" style="stroke:#181818;stroke-width:0.5;"/><path d="M963,108.3867 L963,118.3867 L973,118.3867 L963,108.3867 " fill="#FEFFDD" style="stroke:#181818;stroke-width:0.5;"/><text fill="#000000" font-family="sans-serif" font-size="13" lengthAdjust="spacing" textLength="520" x="438" y="125.4536">Frecuencia de palabras, Longitudes del texto, Histograma de Variable objetivo, ...</text><rect fill="#F1F1F1" height="33.9688" rx="12.5" ry="12.5" style="stroke:#181818;stroke-width:0.5;" width="295" x="117" y="103.9688"/><text fill="#000000" font-family="sans-serif" font-size="12" lengthAdjust="spacing" textLength="275" x="127" y="125.1074">Comprensión de los Datos (Features y Label)</text><path d="M370.5,162.3555 L370.5,170.9219 L350.5,174.9219 L370.5,178.9219 L370.5,187.4883 A0,0 0 0 0 370.5,187.4883 L923.5,187.4883 A0,0 0 0 0 923.5,187.4883 L923.5,172.3555 L913.5,162.3555 L370.5,162.3555 A0,0 0 0 0 370.5,162.3555 " fill="#FEFFDD" style="stroke:#181818;stroke-width:0.5;"/><path d="M913.5,162.3555 L913.5,172.3555 L923.5,172.3555 L913.5,162.3555 " fill="#FEFFDD" style="stroke:#181818;stroke-width:0.5;"/><text fill="#000000" font-family="sans-serif" font-size="13" lengthAdjust="spacing" textLength="532" x="376.5" y="179.4224">Remover ruido con la limpieza de texto, eliminación de stopwords y normalización.</text><rect fill="#F1F1F1" height="33.9688" rx="12.5" ry="12.5" style="stroke:#181818;stroke-width:0.5;" width="172" x="178.5" y="157.9375"/><text fill="#000000" font-family="sans-serif" font-size="12" lengthAdjust="spacing" textLength="152" x="188.5" y="179.0762">Preparación de los Datos</text><path d="M538,216.3242 L538,224.8906 L518,228.8906 L538,232.8906 L538,241.457 A0,0 0 0 0 538,241.457 L1471,241.457 A0,0 0 0 0 1471,241.457 L1471,226.3242 L1461,216.3242 L538,216.3242 A0,0 0 0 0 538,216.3242 " fill="#FEFFDD" style="stroke:#181818;stroke-width:0.5;"/><path d="M1461,216.3242 L1461,226.3242 L1471,226.3242 L1461,216.3242 " fill="#FEFFDD" style="stroke:#181818;stroke-width:0.5;"/><text fill="#000000" font-family="sans-serif" font-size="13" lengthAdjust="spacing" textLength="912" x="544" y="233.3911">Búsqueda del algoritmo de aprendizaje (y sus hiperparámetros) con mejores resultados (accuracy, precision, recall, F-score, confusion matrix)</text><rect fill="#F1F1F1" height="33.9688" rx="12.5" ry="12.5" style="stroke:#181818;stroke-width:0.5;" width="507" x="11" y="211.9063"/><text fill="#000000" font-family="sans-serif" font-size="12" lengthAdjust="spacing" textLength="487" x="21" y="233.0449">Modelado y Evaluación. Entrenamiento o Uso de los Modelos (Machine Learning)</text><path d="M329,270.293 L329,278.8594 L309,282.8594 L329,286.8594 L329,295.4258 A0,0 0 0 0 329,295.4258 L542,295.4258 A0,0 0 0 0 542,295.4258 L542,280.293 L532,270.293 L329,270.293 A0,0 0 0 0 329,270.293 " fill="#FEFFDD" style="stroke:#181818;stroke-width:0.5;"/><path d="M532,270.293 L532,280.293 L542,280.293 L532,270.293 " fill="#FEFFDD" style="stroke:#181818;stroke-width:0.5;"/><text fill="#000000" font-family="sans-serif" font-size="13" lengthAdjust="spacing" textLength="192" x="335" y="287.3599">Llevar el modelo a producción</text><rect fill="#F1F1F1" height="33.9688" rx="12.5" ry="12.5" style="stroke:#181818;stroke-width:0.5;" width="89" x="220" y="265.875"/><text fill="#000000" font-family="sans-serif" font-size="12" lengthAdjust="spacing" textLength="69" x="230" y="287.0137">Despliegue</text><line style="stroke:#181818;stroke-width:1.0;" x1="264.5" x2="264.5" y1="30" y2="50"/><polygon fill="#181818" points="260.5,40,264.5,50,268.5,40,264.5,44" style="stroke:#181818;stroke-width:1.0;"/><line style="stroke:#181818;stroke-width:1.0;" x1="264.5" x2="264.5" y1="83.9688" y2="103.9688"/><polygon fill="#181818" points="260.5,93.9688,264.5,103.9688,268.5,93.9688,264.5,97.9688" style="stroke:#181818;stroke-width:1.0;"/><line style="stroke:#181818;stroke-width:1.0;" x1="264.5" x2="264.5" y1="137.9375" y2="157.9375"/><polygon fill="#181818" points="260.5,147.9375,264.5,157.9375,268.5,147.9375,264.5,151.9375" style="stroke:#181818;stroke-width:1.0;"/><line style="stroke:#181818;stroke-width:1.0;" x1="264.5" x2="264.5" y1="191.9063" y2="211.9063"/><polygon fill="#181818" points="260.5,201.9063,264.5,211.9063,268.5,201.9063,264.5,205.9063" style="stroke:#181818;stroke-width:1.0;"/><line style="stroke:#181818;stroke-width:1.0;" x1="264.5" x2="264.5" y1="245.875" y2="265.875"/><polygon fill="#181818" points="260.5,255.875,264.5,265.875,268.5,255.875,264.5,259.875" style="stroke:#181818;stroke-width:1.0;"/><!--SRC=[PPAnRXin38PtFmL76xZw0TojTOmE3X0KINUUZZtJa4I5ajmuRzEnSxUkVh5Igj72wN02JkHF_loeN53BOlDHGbAAcIy_8qpaOIk18ylxHPH2e3mVoWRkOg4uaO8bFAWuoWBeIaK_jAiznRdYaQ1SVhZ8JWPuL1pnA1cKF3gMY9FzdF-gaqggb8ki__C0tZAtMEnSxWXBLMhAFOxaLxU-TagkKdICJPVGuwYO1zXBdBdKoOHjfa8lnJnzOkitAuQU_GMLSVG4CXwfyCaIrcjpyw2KKCtpMpUthJzJa9CHqSgJW9C87i5pI4ollVwrATaTnt_bp4Bw9ZgraQ9eGC-lVwBM-rxChf6osDq9VRq66dy3X84f5W619oDujTOb3TKzkWD7icMWHexp6rGVBh_oSwK9En7qioYNqCjWep-P3TlWyWovPZXm8ZKCb- -1YafUzGa37QKjmxxgIz_e4fshHkiys4h9SRPL3vRWqDlRsBtBpXH3Kt-jBGO1Y_BBQh7PKawUQQvqQtJlwOJzfOK-6c1xB5DrdSLl]--></g></svg>