<?xml version="1.0" encoding="windows-1252" standalone="no"?>
<svg xmlns="http://www.w3.org/2000/svg" xmlns:xlink="http://www.w3.org/1999/xlink" contentStyleType="text/css" height="660px" preserveAspectRatio="none" style="width:1549px;height:660px;background:#FFFFFF;" version="1.1" viewBox="0 0 1549 660" width="1549px" zoomAndPan="magnify"><script xmlns="" id="dashlane_tiresias"/><script xmlns="" id="dashlane_webauthn"/><script xmlns=""/><defs/><g><line style="stroke:#181818;stroke-width:0.5;stroke-dasharray:5.0,5.0;" x1="34" x2="34" y1="81.2969" y2="579.4219"/><line style="stroke:#181818;stroke-width:0.5;stroke-dasharray:5.0,5.0;" x1="222" x2="222" y1="81.2969" y2="579.4219"/><line style="stroke:#181818;stroke-width:0.5;stroke-dasharray:5.0,5.0;" x1="357" x2="357" y1="81.2969" y2="579.4219"/><line style="stroke:#181818;stroke-width:0.5;stroke-dasharray:5.0,5.0;" x1="495" x2="495" y1="81.2969" y2="579.4219"/><line style="stroke:#181818;stroke-width:0.5;stroke-dasharray:5.0,5.0;" x1="562" x2="562" y1="81.2969" y2="579.4219"/><line style="stroke:#181818;stroke-width:0.5;stroke-dasharray:5.0,5.0;" x1="614" x2="614" y1="81.2969" y2="579.4219"/><line style="stroke:#181818;stroke-width:0.5;stroke-dasharray:5.0,5.0;" x1="675" x2="675" y1="81.2969" y2="579.4219"/><line style="stroke:#181818;stroke-width:0.5;stroke-dasharray:5.0,5.0;" x1="1064.5" x2="1064.5" y1="81.2969" y2="579.4219"/><line style="stroke:#181818;stroke-width:0.5;stroke-dasharray:5.0,5.0;" x1="1137.5" x2="1137.5" y1="81.2969" y2="579.4219"/><line style="stroke:#181818;stroke-width:0.5;stroke-dasharray:5.0,5.0;" x1="1388.5" x2="1388.5" y1="81.2969" y2="579.4219"/><line style="stroke:#181818;stroke-width:0.5;stroke-dasharray:5.0,5.0;" x1="1489.5" x2="1489.5" y1="81.2969" y2="579.4219"/><text fill="#000000" font-family="sans-serif" font-size="14" lengthAdjust="spacing" textLength="53" x="5" y="77.9951">Patient</text><ellipse cx="34.5" cy="13.5" fill="#E2E2F0" rx="8" ry="8" style="stroke:#181818;stroke-width:0.5;"/><path d="M34.5,21.5 L34.5,48.5 M21.5,29.5 L47.5,29.5 M34.5,48.5 L21.5,63.5 M34.5,48.5 L47.5,63.5 " fill="none" style="stroke:#181818;stroke-width:0.5;"/><text fill="#000000" font-family="sans-serif" font-size="14" lengthAdjust="spacing" textLength="53" x="5" y="591.417">Patient</text><ellipse cx="34.5" cy="603.2188" fill="#E2E2F0" rx="8" ry="8" style="stroke:#181818;stroke-width:0.5;"/><path d="M34.5,611.2188 L34.5,638.2188 M21.5,619.2188 L47.5,619.2188 M34.5,638.2188 L21.5,653.2188 M34.5,638.2188 L47.5,653.2188 " fill="none" style="stroke:#181818;stroke-width:0.5;"/><text fill="#000000" font-family="sans-serif" font-size="14" lengthAdjust="spacing" textLength="75" x="182" y="77.9951">Reception</text><ellipse cx="222.5" cy="13.5" fill="#E2E2F0" rx="8" ry="8" style="stroke:#181818;stroke-width:0.5;"/><path d="M222.5,21.5 L222.5,48.5 M209.5,29.5 L235.5,29.5 M222.5,48.5 L209.5,63.5 M222.5,48.5 L235.5,63.5 " fill="none" style="stroke:#181818;stroke-width:0.5;"/><text fill="#000000" font-family="sans-serif" font-size="14" lengthAdjust="spacing" textLength="75" x="182" y="591.417">Reception</text><ellipse cx="222.5" cy="603.2188" fill="#E2E2F0" rx="8" ry="8" style="stroke:#181818;stroke-width:0.5;"/><path d="M222.5,611.2188 L222.5,638.2188 M209.5,619.2188 L235.5,619.2188 M222.5,638.2188 L209.5,653.2188 M222.5,638.2188 L235.5,653.2188 " fill="none" style="stroke:#181818;stroke-width:0.5;"/><text fill="#000000" font-family="sans-serif" font-size="14" lengthAdjust="spacing" textLength="163" x="273" y="77.9951">RadiologyTechnologist</text><ellipse cx="357.5" cy="13.5" fill="#E2E2F0" rx="8" ry="8" style="stroke:#181818;stroke-width:0.5;"/><path d="M357.5,21.5 L357.5,48.5 M344.5,29.5 L370.5,29.5 M357.5,48.5 L344.5,63.5 M357.5,48.5 L370.5,63.5 " fill="none" style="stroke:#181818;stroke-width:0.5;"/><text fill="#000000" font-family="sans-serif" font-size="14" lengthAdjust="spacing" textLength="163" x="273" y="591.417">RadiologyTechnologist</text><ellipse cx="357.5" cy="603.2188" fill="#E2E2F0" rx="8" ry="8" style="stroke:#181818;stroke-width:0.5;"/><path d="M357.5,611.2188 L357.5,638.2188 M344.5,619.2188 L370.5,619.2188 M357.5,638.2188 L344.5,653.2188 M357.5,638.2188 L370.5,653.2188 " fill="none" style="stroke:#181818;stroke-width:0.5;"/><text fill="#000000" font-family="sans-serif" font-size="14" lengthAdjust="spacing" textLength="80" x="452" y="77.9951">Radiologist</text><ellipse cx="495" cy="13.5" fill="#E2E2F0" rx="8" ry="8" style="stroke:#181818;stroke-width:0.5;"/><path d="M495,21.5 L495,48.5 M482,29.5 L508,29.5 M495,48.5 L482,63.5 M495,48.5 L508,63.5 " fill="none" style="stroke:#181818;stroke-width:0.5;"/><text fill="#000000" font-family="sans-serif" font-size="14" lengthAdjust="spacing" textLength="80" x="452" y="591.417">Radiologist</text><ellipse cx="495" cy="603.2188" fill="#E2E2F0" rx="8" ry="8" style="stroke:#181818;stroke-width:0.5;"/><path d="M495,611.2188 L495,638.2188 M482,619.2188 L508,619.2188 M495,638.2188 L482,653.2188 M495,638.2188 L508,653.2188 " fill="none" style="stroke:#181818;stroke-width:0.5;"/><text fill="#000000" font-family="sans-serif" font-size="14" lengthAdjust="spacing" textLength="23" x="548" y="77.9951">HIS</text><ellipse cx="562.5" cy="13.5" fill="#E2E2F0" rx="8" ry="8" style="stroke:#181818;stroke-width:0.5;"/><path d="M562.5,21.5 L562.5,48.5 M549.5,29.5 L575.5,29.5 M562.5,48.5 L549.5,63.5 M562.5,48.5 L575.5,63.5 " fill="none" style="stroke:#181818;stroke-width:0.5;"/><text fill="#000000" font-family="sans-serif" font-size="14" lengthAdjust="spacing" textLength="23" x="548" y="591.417">HIS</text><ellipse cx="562.5" cy="603.2188" fill="#E2E2F0" rx="8" ry="8" style="stroke:#181818;stroke-width:0.5;"/><path d="M562.5,611.2188 L562.5,638.2188 M549.5,619.2188 L575.5,619.2188 M562.5,638.2188 L549.5,653.2188 M562.5,638.2188 L575.5,653.2188 " fill="none" style="stroke:#181818;stroke-width:0.5;"/><text fill="#000000" font-family="sans-serif" font-size="14" lengthAdjust="spacing" textLength="48" x="587" y="77.9951">DICOM</text><path d="M596,29 C596,19 614,19 614,19 C614,19 632,19 632,29 L632,55 C632,65 614,65 614,65 C614,65 596,65 596,55 L596,29 " fill="#E2E2F0" style="stroke:#181818;stroke-width:1.5;"/><path d="M596,29 C596,39 614,39 614,39 C614,39 632,39 632,29 " fill="none" style="stroke:#181818;stroke-width:1.5;"/><text fill="#000000" font-family="sans-serif" font-size="14" lengthAdjust="spacing" textLength="48" x="587" y="591.417">DICOM</text><path d="M596,604.7188 C596,594.7188 614,594.7188 614,594.7188 C614,594.7188 632,594.7188 632,604.7188 L632,630.7188 C632,640.7188 614,640.7188 614,640.7188 C614,640.7188 596,640.7188 596,630.7188 L596,604.7188 " fill="#E2E2F0" style="stroke:#181818;stroke-width:1.5;"/><path d="M596,604.7188 C596,614.7188 614,614.7188 614,614.7188 C614,614.7188 632,614.7188 632,604.7188 " fill="none" style="stroke:#181818;stroke-width:1.5;"/><text fill="#000000" font-family="sans-serif" font-size="14" lengthAdjust="spacing" textLength="43" x="651" y="77.9951">Model</text><ellipse cx="675.5" cy="13.5" fill="#E2E2F0" rx="8" ry="8" style="stroke:#181818;stroke-width:0.5;"/><path d="M675.5,21.5 L675.5,48.5 M662.5,29.5 L688.5,29.5 M675.5,48.5 L662.5,63.5 M675.5,48.5 L688.5,63.5 " fill="none" style="stroke:#181818;stroke-width:0.5;"/><text fill="#000000" font-family="sans-serif" font-size="14" lengthAdjust="spacing" textLength="43" x="651" y="591.417">Model</text><ellipse cx="675.5" cy="603.2188" fill="#E2E2F0" rx="8" ry="8" style="stroke:#181818;stroke-width:0.5;"/><path d="M675.5,611.2188 L675.5,638.2188 M662.5,619.2188 L688.5,619.2188 M675.5,638.2188 L662.5,653.2188 M675.5,638.2188 L688.5,653.2188 " fill="none" style="stroke:#181818;stroke-width:0.5;"/><text fill="#000000" font-family="sans-serif" font-size="14" lengthAdjust="spacing" textLength="38" x="1042.5" y="77.9951">PACS</text><ellipse cx="1064.5" cy="13.5" fill="#E2E2F0" rx="8" ry="8" style="stroke:#181818;stroke-width:0.5;"/><path d="M1064.5,21.5 L1064.5,48.5 M1051.5,29.5 L1077.5,29.5 M1064.5,48.5 L1051.5,63.5 M1064.5,48.5 L1077.5,63.5 " fill="none" style="stroke:#181818;stroke-width:0.5;"/><text fill="#000000" font-family="sans-serif" font-size="14" lengthAdjust="spacing" textLength="38" x="1042.5" y="591.417">PACS</text><ellipse cx="1064.5" cy="603.2188" fill="#E2E2F0" rx="8" ry="8" style="stroke:#181818;stroke-width:0.5;"/><path d="M1064.5,611.2188 L1064.5,638.2188 M1051.5,619.2188 L1077.5,619.2188 M1064.5,638.2188 L1051.5,653.2188 M1064.5,638.2188 L1077.5,653.2188 " fill="none" style="stroke:#181818;stroke-width:0.5;"/><text fill="#000000" font-family="sans-serif" font-size="14" lengthAdjust="spacing" textLength="77" x="1096.5" y="77.9951">Oncologist</text><ellipse cx="1138" cy="13.5" fill="#E2E2F0" rx="8" ry="8" style="stroke:#181818;stroke-width:0.5;"/><path d="M1138,21.5 L1138,48.5 M1125,29.5 L1151,29.5 M1138,48.5 L1125,63.5 M1138,48.5 L1151,63.5 " fill="none" style="stroke:#181818;stroke-width:0.5;"/><text fill="#000000" font-family="sans-serif" font-size="14" lengthAdjust="spacing" textLength="77" x="1096.5" y="591.417">Oncologist</text><ellipse cx="1138" cy="603.2188" fill="#E2E2F0" rx="8" ry="8" style="stroke:#181818;stroke-width:0.5;"/><path d="M1138,611.2188 L1138,638.2188 M1125,619.2188 L1151,619.2188 M1138,638.2188 L1125,653.2188 M1138,638.2188 L1151,653.2188 " fill="none" style="stroke:#181818;stroke-width:0.5;"/><text fill="#000000" font-family="sans-serif" font-size="14" lengthAdjust="spacing" textLength="60" x="1355.5" y="77.9951">Provider</text><ellipse cx="1388.5" cy="13.5" fill="#E2E2F0" rx="8" ry="8" style="stroke:#181818;stroke-width:0.5;"/><path d="M1388.5,21.5 L1388.5,48.5 M1375.5,29.5 L1401.5,29.5 M1388.5,48.5 L1375.5,63.5 M1388.5,48.5 L1401.5,63.5 " fill="none" style="stroke:#181818;stroke-width:0.5;"/><text fill="#000000" font-family="sans-serif" font-size="14" lengthAdjust="spacing" textLength="60" x="1355.5" y="591.417">Provider</text><ellipse cx="1388.5" cy="603.2188" fill="#E2E2F0" rx="8" ry="8" style="stroke:#181818;stroke-width:0.5;"/><path d="M1388.5,611.2188 L1388.5,638.2188 M1375.5,619.2188 L1401.5,619.2188 M1388.5,638.2188 L1375.5,653.2188 M1388.5,638.2188 L1401.5,653.2188 " fill="none" style="stroke:#181818;stroke-width:0.5;"/><text fill="#000000" font-family="sans-serif" font-size="14" lengthAdjust="spacing" textLength="111" x="1431.5" y="77.9951">CancerProgram</text><ellipse cx="1490" cy="13.5" fill="#E2E2F0" rx="8" ry="8" style="stroke:#181818;stroke-width:0.5;"/><path d="M1490,21.5 L1490,48.5 M1477,29.5 L1503,29.5 M1490,48.5 L1477,63.5 M1490,48.5 L1503,63.5 " fill="none" style="stroke:#181818;stroke-width:0.5;"/><text fill="#000000" font-family="sans-serif" font-size="14" lengthAdjust="spacing" textLength="111" x="1431.5" y="591.417">CancerProgram</text><ellipse cx="1490" cy="603.2188" fill="#E2E2F0" rx="8" ry="8" style="stroke:#181818;stroke-width:0.5;"/><path d="M1490,611.2188 L1490,638.2188 M1477,619.2188 L1503,619.2188 M1490,638.2188 L1477,653.2188 M1490,638.2188 L1503,653.2188 " fill="none" style="stroke:#181818;stroke-width:0.5;"/><path d="M354,96.2969 L354,121.2969 L557,121.2969 L557,106.2969 L547,96.2969 L354,96.2969 " fill="#FEFFDD" style="stroke:#181818;stroke-width:0.5;"/><path d="M547,96.2969 L547,106.2969 L557,106.2969 L547,96.2969 " fill="#FEFFDD" style="stroke:#181818;stroke-width:0.5;"/><text fill="#000000" font-family="sans-serif" font-size="13" lengthAdjust="spacing" textLength="182" x="360" y="113.3638">Hospital Information System</text><path d="M745,131.4297 L745,156.4297 L1059,156.4297 L1059,141.4297 L1049,131.4297 L745,131.4297 " fill="#FEFFDD" style="stroke:#181818;stroke-width:0.5;"/><path d="M1049,131.4297 L1049,141.4297 L1059,141.4297 L1049,131.4297 " fill="#FEFFDD" style="stroke:#181818;stroke-width:0.5;"/><text fill="#000000" font-family="sans-serif" font-size="13" lengthAdjust="spacing" textLength="293" x="751" y="148.4966">Picture Archiving and Communication System</text><polygon fill="#181818" points="210.5,178.6953,220.5,182.6953,210.5,186.6953,214.5,182.6953" style="stroke:#181818;stroke-width:1.0;"/><line style="stroke:#181818;stroke-width:1.0;" x1="34.5" x2="216.5" y1="182.6953" y2="182.6953"/><text fill="#000000" font-family="sans-serif" font-size="13" lengthAdjust="spacing" textLength="164" x="41.5" y="177.6294">Requests mammography</text><polygon fill="#181818" points="550.5,207.8281,560.5,211.8281,550.5,215.8281,554.5,211.8281" style="stroke:#181818;stroke-width:1.0;"/><line style="stroke:#181818;stroke-width:1.0;" x1="222.5" x2="556.5" y1="211.8281" y2="211.8281"/><text fill="#000000" font-family="sans-serif" font-size="13" lengthAdjust="spacing" textLength="113" x="229.5" y="206.7622">Registers request</text><polygon fill="#181818" points="368.5,236.9609,358.5,240.9609,368.5,244.9609,364.5,240.9609" style="stroke:#181818;stroke-width:1.0;"/><line style="stroke:#181818;stroke-width:1.0;stroke-dasharray:2.0,2.0;" x1="362.5" x2="561.5" y1="240.9609" y2="240.9609"/><text fill="#000000" font-family="sans-serif" font-size="13" lengthAdjust="spacing" textLength="111" x="374.5" y="235.895">Confirms request</text><polygon fill="#181818" points="45.5,266.0938,35.5,270.0938,45.5,274.0938,41.5,270.0938" style="stroke:#181818;stroke-width:1.0;"/><line style="stroke:#181818;stroke-width:1.0;" x1="39.5" x2="356.5" y1="270.0938" y2="270.0938"/><text fill="#000000" font-family="sans-serif" font-size="13" lengthAdjust="spacing" textLength="163" x="51.5" y="265.0278">Performs mammography</text><polygon fill="#181818" points="1052.5,295.2266,1062.5,299.2266,1052.5,303.2266,1056.5,299.2266" style="stroke:#181818;stroke-width:1.0;"/><line style="stroke:#181818;stroke-width:1.0;" x1="357.5" x2="1058.5" y1="299.2266" y2="299.2266"/><text fill="#000000" font-family="sans-serif" font-size="13" lengthAdjust="spacing" textLength="194" x="364.5" y="294.1606">Sends mammography images</text><polygon fill="#181818" points="368.5,324.3594,358.5,328.3594,368.5,332.3594,364.5,328.3594" style="stroke:#181818;stroke-width:1.0;"/><line style="stroke:#181818;stroke-width:1.0;stroke-dasharray:2.0,2.0;" x1="362.5" x2="1063.5" y1="328.3594" y2="328.3594"/><text fill="#000000" font-family="sans-serif" font-size="13" lengthAdjust="spacing" textLength="174" x="374.5" y="323.2935">Confirms receipt of images</text><polygon fill="#181818" points="686.5,353.4922,676.5,357.4922,686.5,361.4922,682.5,357.4922" style="stroke:#181818;stroke-width:1.0;"/><line style="stroke:#181818;stroke-width:1.0;" x1="680.5" x2="1063.5" y1="357.4922" y2="357.4922"/><text fill="#000000" font-family="sans-serif" font-size="13" lengthAdjust="spacing" textLength="365" x="692.5" y="352.4263">Sends patient information (Mammograms or risk factors)</text><polygon fill="#181818" points="1052.5,382.625,1062.5,386.625,1052.5,390.625,1056.5,386.625" style="stroke:#181818;stroke-width:1.0;"/><line style="stroke:#181818;stroke-width:1.0;" x1="675.5" x2="1058.5" y1="386.625" y2="386.625"/><text fill="#000000" font-family="sans-serif" font-size="13" lengthAdjust="spacing" textLength="242" x="682.5" y="381.5591">Saves result (BIRADS and confidence)</text><polygon fill="#181818" points="506,411.7578,496,415.7578,506,419.7578,502,415.7578" style="stroke:#181818;stroke-width:1.0;"/><line style="stroke:#181818;stroke-width:1.0;" x1="500" x2="1063.5" y1="415.7578" y2="415.7578"/><text fill="#000000" font-family="sans-serif" font-size="13" lengthAdjust="spacing" textLength="135" x="512" y="410.6919">Displays Model result</text><polygon fill="#181818" points="1376.5,440.8906,1386.5,444.8906,1376.5,448.8906,1380.5,444.8906" style="stroke:#181818;stroke-width:1.0;"/><line style="stroke:#181818;stroke-width:1.0;stroke-dasharray:2.0,2.0;" x1="1064.5" x2="1382.5" y1="444.8906" y2="444.8906"/><text fill="#000000" font-family="sans-serif" font-size="13" lengthAdjust="spacing" textLength="300" x="1071.5" y="439.8247">Sends images to provider (ordering by priority)</text><polygon fill="#181818" points="506,470.0234,496,474.0234,506,478.0234,502,474.0234" style="stroke:#181818;stroke-width:1.0;"/><line style="stroke:#181818;stroke-width:1.0;" x1="500" x2="1063.5" y1="474.0234" y2="474.0234"/><text fill="#000000" font-family="sans-serif" font-size="13" lengthAdjust="spacing" textLength="219" x="512" y="468.9575">Notifies availability of new images</text><polygon fill="#181818" points="1075.5,499.1563,1065.5,503.1563,1075.5,507.1563,1071.5,503.1563" style="stroke:#181818;stroke-width:1.0;"/><line style="stroke:#181818;stroke-width:1.0;" x1="1069.5" x2="1387.5" y1="503.1563" y2="503.1563"/><text fill="#000000" font-family="sans-serif" font-size="13" lengthAdjust="spacing" textLength="199" x="1081.5" y="498.0903">Reviews and interprets images</text><polygon fill="#181818" points="1478,528.2891,1488,532.2891,1478,536.2891,1482,532.2891" style="stroke:#181818;stroke-width:1.0;"/><line style="stroke:#181818;stroke-width:1.0;" x1="1064.5" x2="1484" y1="532.2891" y2="532.2891"/><text fill="#000000" font-family="sans-serif" font-size="13" lengthAdjust="spacing" textLength="101" x="1071.5" y="527.2231">Displays results</text><polygon fill="#181818" points="45.5,557.4219,35.5,561.4219,45.5,565.4219,41.5,561.4219" style="stroke:#181818;stroke-width:1.0;"/><line style="stroke:#181818;stroke-width:1.0;" x1="39.5" x2="1489" y1="561.4219" y2="561.4219"/><text fill="#000000" font-family="sans-serif" font-size="13" lengthAdjust="spacing" textLength="134" x="51.5" y="556.356">Issues biopsy verdict</text><!--SRC=[ZLDBRkim3Dph55ocYrx0YmAfiwWNUGsINe2HwOHubkHAYWlVlfG_jHsaG5SMVyFXa4OTdOS3HYOR5VRMaJGraPsTR2pPrUxIVP2-slJY4EzYi-UjE2dh8a5DLKnM1cykD1onXi9MpXjCs73gGYIZIenuna2mA_Bt_OYnToNLu_kmpPU0oSpWm3hUFC7MwoktR2-0jeJS6NEph5SD1fHtgzSq3zwrN98VpHoj9Y_EYqUZr2W8FB_CQa0cxyyRXHZ0e34fjRbsQawGR9ctpqkTo0VmGuLA_kU4zaXBgSYThTYRkU1neY1Cr4G4yadEEpQ_rebmKdGYMwugW0rUAAW-_aUAchY9uAfrxSkmjwb7CnBbnT8t-x6nm8ZgdiD_gFeDX2VLLqzK1GLRIit2hOwmUIsEszsfNxDEH4gIXJtzT5xSOGOx3asDNHZuZ13pWDFg9wB3410TD6C4DixB9ztLkHClEy-nUzXDXFdd8bSi2DWYrtZcMfAJEfQ-VXIQaETD7Abb-WhzI6pbMXfFCTnBkZhCnMZ3K46juelxoA08GIu9pkoQq45BlfIVvXi0]--></g></svg>