<?xml version="1.0" encoding="windows-1252" standalone="no"?>
<svg xmlns="http://www.w3.org/2000/svg" xmlns:xlink="http://www.w3.org/1999/xlink" contentStyleType="text/css" height="483px" preserveAspectRatio="none" style="width:522px;height:483px;background:#FFFFFF;" version="1.1" viewBox="0 0 522 483" width="522px" zoomAndPan="magnify"><script xmlns=""/><defs/><g><text fill="#000000" font-family="sans-serif" font-size="14" font-weight="bold" lengthAdjust="spacing" textLength="130" x="197.25" y="27.9951">Replicated Calls</text><rect fill="none" height="104.5313" style="stroke:#000000;stroke-width:1.5;" width="345" x="170.5" y="164.7266"/><line style="stroke:#181818;stroke-width:0.5;stroke-dasharray:5.0,5.0;" x1="29" x2="29" y1="118.5938" y2="402.7891"/><line style="stroke:#181818;stroke-width:0.5;stroke-dasharray:5.0,5.0;" x1="203.5" x2="203.5" y1="118.5938" y2="402.7891"/><line style="stroke:#181818;stroke-width:0.5;stroke-dasharray:5.0,5.0;" x1="270.5" x2="270.5" y1="118.5938" y2="402.7891"/><line style="stroke:#181818;stroke-width:0.5;stroke-dasharray:5.0,5.0;" x1="347.5" x2="347.5" y1="118.5938" y2="402.7891"/><line style="stroke:#181818;stroke-width:0.5;stroke-dasharray:5.0,5.0;" x1="425.5" x2="425.5" y1="118.5938" y2="402.7891"/><line style="stroke:#181818;stroke-width:0.5;stroke-dasharray:5.0,5.0;" x1="487.5" x2="487.5" y1="118.5938" y2="402.7891"/><text fill="#000000" font-family="sans-serif" font-size="14" lengthAdjust="spacing" textLength="43" x="5" y="115.292">Client</text><ellipse cx="29.5" cy="50.7969" fill="#E2E2F0" rx="8" ry="8" style="stroke:#181818;stroke-width:0.5;"/><path d="M29.5,58.7969 L29.5,85.7969 M16.5,66.7969 L42.5,66.7969 M29.5,85.7969 L16.5,100.7969 M29.5,85.7969 L42.5,100.7969 " fill="none" style="stroke:#181818;stroke-width:0.5;"/><text fill="#000000" font-family="sans-serif" font-size="14" lengthAdjust="spacing" textLength="43" x="5" y="414.7842">Client</text><ellipse cx="29.5" cy="426.5859" fill="#E2E2F0" rx="8" ry="8" style="stroke:#181818;stroke-width:0.5;"/><path d="M29.5,434.5859 L29.5,461.5859 M16.5,442.5859 L42.5,442.5859 M29.5,461.5859 L16.5,476.5859 M29.5,461.5859 L42.5,476.5859 " fill="none" style="stroke:#181818;stroke-width:0.5;"/><text fill="#000000" font-family="sans-serif" font-size="14" lengthAdjust="spacing" textLength="40" x="180.5" y="115.292">Proxy</text><ellipse cx="203.5" cy="86.2969" fill="#E2E2F0" rx="12" ry="12" style="stroke:#181818;stroke-width:0.5;"/><line style="stroke:#181818;stroke-width:0.5;" x1="191.5" x2="215.5" y1="100.2969" y2="100.2969"/><text fill="#000000" font-family="sans-serif" font-size="14" lengthAdjust="spacing" textLength="40" x="180.5" y="414.7842">Proxy</text><ellipse cx="203.5" cy="434.0859" fill="#E2E2F0" rx="12" ry="12" style="stroke:#181818;stroke-width:0.5;"/><line style="stroke:#181818;stroke-width:0.5;" x1="191.5" x2="215.5" y1="448.0859" y2="448.0859"/><text fill="#000000" font-family="sans-serif" font-size="14" lengthAdjust="spacing" textLength="62" x="236.5" y="115.292">Replica1</text><path d="M252.5,66.2969 C252.5,56.2969 270.5,56.2969 270.5,56.2969 C270.5,56.2969 288.5,56.2969 288.5,66.2969 L288.5,92.2969 C288.5,102.2969 270.5,102.2969 270.5,102.2969 C270.5,102.2969 252.5,102.2969 252.5,92.2969 L252.5,66.2969 " fill="#E2E2F0" style="stroke:#181818;stroke-width:1.5;"/><path d="M252.5,66.2969 C252.5,76.2969 270.5,76.2969 270.5,76.2969 C270.5,76.2969 288.5,76.2969 288.5,66.2969 " fill="none" style="stroke:#181818;stroke-width:1.5;"/><text fill="#000000" font-family="sans-serif" font-size="14" lengthAdjust="spacing" textLength="62" x="236.5" y="414.7842">Replica1</text><path d="M252.5,428.0859 C252.5,418.0859 270.5,418.0859 270.5,418.0859 C270.5,418.0859 288.5,418.0859 288.5,428.0859 L288.5,454.0859 C288.5,464.0859 270.5,464.0859 270.5,464.0859 C270.5,464.0859 252.5,464.0859 252.5,454.0859 L252.5,428.0859 " fill="#E2E2F0" style="stroke:#181818;stroke-width:1.5;"/><path d="M252.5,428.0859 C252.5,438.0859 270.5,438.0859 270.5,438.0859 C270.5,438.0859 288.5,438.0859 288.5,428.0859 " fill="none" style="stroke:#181818;stroke-width:1.5;"/><text fill="#000000" font-family="sans-serif" font-size="14" lengthAdjust="spacing" textLength="61" x="314.5" y="115.292">Replica2</text><path d="M330,66.2969 C330,56.2969 348,56.2969 348,56.2969 C348,56.2969 366,56.2969 366,66.2969 L366,92.2969 C366,102.2969 348,102.2969 348,102.2969 C348,102.2969 330,102.2969 330,92.2969 L330,66.2969 " fill="#E2E2F0" style="stroke:#181818;stroke-width:1.5;"/><path d="M330,66.2969 C330,76.2969 348,76.2969 348,76.2969 C348,76.2969 366,76.2969 366,66.2969 " fill="none" style="stroke:#181818;stroke-width:1.5;"/><text fill="#000000" font-family="sans-serif" font-size="14" lengthAdjust="spacing" textLength="61" x="314.5" y="414.7842">Replica2</text><path d="M330,428.0859 C330,418.0859 348,418.0859 348,418.0859 C348,418.0859 366,418.0859 366,428.0859 L366,454.0859 C366,464.0859 348,464.0859 348,464.0859 C348,464.0859 330,464.0859 330,454.0859 L330,428.0859 " fill="#E2E2F0" style="stroke:#181818;stroke-width:1.5;"/><path d="M330,428.0859 C330,438.0859 348,438.0859 348,438.0859 C348,438.0859 366,438.0859 366,428.0859 " fill="none" style="stroke:#181818;stroke-width:1.5;"/><text fill="#000000" font-family="sans-serif" font-size="14" lengthAdjust="spacing" textLength="62" x="391.5" y="115.292">Replica3</text><path d="M407.5,66.2969 C407.5,56.2969 425.5,56.2969 425.5,56.2969 C425.5,56.2969 443.5,56.2969 443.5,66.2969 L443.5,92.2969 C443.5,102.2969 425.5,102.2969 425.5,102.2969 C425.5,102.2969 407.5,102.2969 407.5,92.2969 L407.5,66.2969 " fill="#E2E2F0" style="stroke:#181818;stroke-width:1.5;"/><path d="M407.5,66.2969 C407.5,76.2969 425.5,76.2969 425.5,76.2969 C425.5,76.2969 443.5,76.2969 443.5,66.2969 " fill="none" style="stroke:#181818;stroke-width:1.5;"/><text fill="#000000" font-family="sans-serif" font-size="14" lengthAdjust="spacing" textLength="62" x="391.5" y="414.7842">Replica3</text><path d="M407.5,428.0859 C407.5,418.0859 425.5,418.0859 425.5,418.0859 C425.5,418.0859 443.5,418.0859 443.5,428.0859 L443.5,454.0859 C443.5,464.0859 425.5,464.0859 425.5,464.0859 C425.5,464.0859 407.5,464.0859 407.5,454.0859 L407.5,428.0859 " fill="#E2E2F0" style="stroke:#181818;stroke-width:1.5;"/><path d="M407.5,428.0859 C407.5,438.0859 425.5,438.0859 425.5,438.0859 C425.5,438.0859 443.5,438.0859 443.5,428.0859 " fill="none" style="stroke:#181818;stroke-width:1.5;"/><text fill="#000000" font-family="sans-serif" font-size="14" lengthAdjust="spacing" textLength="10" x="479.5" y="115.292">B</text><path d="M469.5,66.2969 C469.5,56.2969 487.5,56.2969 487.5,56.2969 C487.5,56.2969 505.5,56.2969 505.5,66.2969 L505.5,92.2969 C505.5,102.2969 487.5,102.2969 487.5,102.2969 C487.5,102.2969 469.5,102.2969 469.5,92.2969 L469.5,66.2969 " fill="#E2E2F0" style="stroke:#181818;stroke-width:1.5;"/><path d="M469.5,66.2969 C469.5,76.2969 487.5,76.2969 487.5,76.2969 C487.5,76.2969 505.5,76.2969 505.5,66.2969 " fill="none" style="stroke:#181818;stroke-width:1.5;"/><text fill="#000000" font-family="sans-serif" font-size="14" lengthAdjust="spacing" textLength="10" x="479.5" y="414.7842">B</text><path d="M469.5,428.0859 C469.5,418.0859 487.5,418.0859 487.5,418.0859 C487.5,418.0859 505.5,418.0859 505.5,428.0859 L505.5,454.0859 C505.5,464.0859 487.5,464.0859 487.5,464.0859 C487.5,464.0859 469.5,464.0859 469.5,454.0859 L469.5,428.0859 " fill="#E2E2F0" style="stroke:#181818;stroke-width:1.5;"/><path d="M469.5,428.0859 C469.5,438.0859 487.5,438.0859 487.5,438.0859 C487.5,438.0859 505.5,438.0859 505.5,428.0859 " fill="none" style="stroke:#181818;stroke-width:1.5;"/><polygon fill="#181818" points="191.5,145.7266,201.5,149.7266,191.5,153.7266,195.5,149.7266" style="stroke:#181818;stroke-width:1.0;"/><line style="stroke:#181818;stroke-width:1.0;" x1="29.5" x2="197.5" y1="149.7266" y2="149.7266"/><text fill="#000000" font-family="sans-serif" font-size="13" lengthAdjust="spacing" textLength="150" x="36.5" y="144.6606">A.invoke(B, write, data)</text><path d="M170.5,164.7266 L467.5,164.7266 L467.5,171.8594 L457.5,181.8594 L170.5,181.8594 L170.5,164.7266 " fill="#EEEEEE" style="stroke:#000000;stroke-width:1.5;"/><rect fill="none" height="104.5313" style="stroke:#000000;stroke-width:1.5;" width="345" x="170.5" y="164.7266"/><text fill="#000000" font-family="sans-serif" font-size="13" font-weight="bold" lengthAdjust="spacing" textLength="252" x="185.5" y="177.7935">n replicated calls for each replica</text><polygon fill="#181818" points="475.5,198.9922,485.5,202.9922,475.5,206.9922,479.5,202.9922" style="stroke:#181818;stroke-width:1.0;"/><line style="stroke:#181818;stroke-width:1.0;" x1="203.5" x2="481.5" y1="202.9922" y2="202.9922"/><text fill="#000000" font-family="sans-serif" font-size="13" lengthAdjust="spacing" textLength="150" x="210.5" y="197.9263">A.invoke(B, write, data)</text><polygon fill="#181818" points="475.5,228.125,485.5,232.125,475.5,236.125,479.5,232.125" style="stroke:#181818;stroke-width:1.0;"/><line style="stroke:#181818;stroke-width:1.0;" x1="203.5" x2="481.5" y1="232.125" y2="232.125"/><text fill="#000000" font-family="sans-serif" font-size="13" lengthAdjust="spacing" textLength="150" x="210.5" y="227.0591">A.invoke(B, write, data)</text><polygon fill="#181818" points="475.5,257.2578,485.5,261.2578,475.5,265.2578,479.5,261.2578" style="stroke:#181818;stroke-width:1.0;"/><line style="stroke:#181818;stroke-width:1.0;" x1="203.5" x2="481.5" y1="261.2578" y2="261.2578"/><text fill="#000000" font-family="sans-serif" font-size="13" lengthAdjust="spacing" textLength="150" x="210.5" y="256.1919">A.invoke(B, write, data)</text><polygon fill="#181818" points="214.5,293.3906,204.5,297.3906,214.5,301.3906,210.5,297.3906" style="stroke:#181818;stroke-width:1.0;"/><line style="stroke:#181818;stroke-width:1.0;" x1="208.5" x2="486.5" y1="297.3906" y2="297.3906"/><text fill="#000000" font-family="sans-serif" font-size="13" lengthAdjust="spacing" textLength="95" x="220.5" y="292.3247">Send response</text><polygon fill="#181818" points="214.5,322.5234,204.5,326.5234,214.5,330.5234,210.5,326.5234" style="stroke:#181818;stroke-width:1.0;"/><line style="stroke:#181818;stroke-width:1.0;" x1="208.5" x2="486.5" y1="326.5234" y2="326.5234"/><text fill="#000000" font-family="sans-serif" font-size="13" lengthAdjust="spacing" textLength="95" x="220.5" y="321.4575">Send response</text><polygon fill="#181818" points="214.5,351.6563,204.5,355.6563,214.5,359.6563,210.5,355.6563" style="stroke:#181818;stroke-width:1.0;"/><line style="stroke:#181818;stroke-width:1.0;" x1="208.5" x2="486.5" y1="355.6563" y2="355.6563"/><text fill="#000000" font-family="sans-serif" font-size="13" lengthAdjust="spacing" textLength="95" x="220.5" y="350.5903">Send response</text><polygon fill="#181818" points="40.5,380.7891,30.5,384.7891,40.5,388.7891,36.5,384.7891" style="stroke:#181818;stroke-width:1.0;"/><line style="stroke:#181818;stroke-width:1.0;" x1="34.5" x2="202.5" y1="384.7891" y2="384.7891"/><text fill="#000000" font-family="sans-serif" font-size="13" lengthAdjust="spacing" textLength="121" x="46.5" y="379.7231">returns a response</text><!--SRC=[hP112i8m44NtSufPAhI2kkkYO7i1qHECwQZ1a9HaglRsfgssYu8WkCXYNdv-7YDQ3EE1QwCL2LTOaZ41W9GuZwNHR0NYqTBYthjd2nK9dIYCZzOpifcHxKGAWA4rpVk-37ShRU_kneiYmOVNmWbswILSl6jgjEWdEzNPuJcgCQdhvmRwfZGllfJz9yAsWc8qFyOnEeJQsS0_y_TtmpQooANnDY2DYHS0]--></g></svg>