<?xml version="1.0" encoding="UTF-8" standalone="no"?>
<svg xmlns="http://www.w3.org/2000/svg" xmlns:xlink="http://www.w3.org/1999/xlink" contentStyleType="text/css" height="573px" preserveAspectRatio="none" style="width:2001px;height:573px;background:#F9F9F9;" version="1.1" viewBox="0 0 2001 573" width="2001px" zoomAndPan="magnify"><defs/><g><!--MD5=[4f404de55baf87f510f6f29ca86187cc]
cluster Applications--><g id="cluster_Applications"><polygon fill="none" points="795,186,805,176,1257,176,1257,356,1247,366,795,366,795,186" style="stroke:#393939;stroke-width:1.0;"/><line style="stroke:#393939;stroke-width:1.0;" x1="1247" x2="1257" y1="186" y2="176"/><line style="stroke:#393939;stroke-width:1.0;" x1="795" x2="1247" y1="186" y2="186"/><line style="stroke:#393939;stroke-width:1.0;" x1="1247" x2="1247" y1="186" y2="366"/><text fill="#000000" font-family="sans-serif" font-size="14" font-weight="bold" lengthAdjust="spacing" textLength="102" x="971" y="201.9951">Applications</text></g><!--MD5=[780cebf15d39d21b1c0618a7027c2adc]
cluster User interfaces--><g id="cluster_User interfaces"><polygon fill="none" points="835,242,845,232,1225,232,1225,324,1215,334,835,334,835,242" style="stroke:#393939;stroke-width:1.0;"/><line style="stroke:#393939;stroke-width:1.0;" x1="1215" x2="1225" y1="242" y2="232"/><line style="stroke:#393939;stroke-width:1.0;" x1="835" x2="1215" y1="242" y2="242"/><line style="stroke:#393939;stroke-width:1.0;" x1="1215" x2="1215" y1="242" y2="334"/><text fill="#000000" font-family="sans-serif" font-size="14" font-weight="bold" lengthAdjust="spacing" textLength="124" x="964" y="257.9951">User interfaces</text></g><!--MD5=[85148b59cc9b0ab059aeaa71a26fd62b]
cluster Operating system--><g id="cluster_Operating system"><polygon fill="none" points="16,437,26,427,1984,427,1984,546,1974,556,16,556,16,437" style="stroke:#393939;stroke-width:1.0;"/><line style="stroke:#393939;stroke-width:1.0;" x1="1974" x2="1984" y1="437" y2="427"/><line style="stroke:#393939;stroke-width:1.0;" x1="16" x2="1974" y1="437" y2="437"/><line style="stroke:#393939;stroke-width:1.0;" x1="1974" x2="1974" y1="437" y2="556"/><text fill="#000000" font-family="sans-serif" font-size="14" font-weight="bold" lengthAdjust="spacing" textLength="145" x="923.5" y="452.9951">Operating system</text></g><!--MD5=[81eb248ad19e595af57658e74548f0fb]
entity batch--><g id="elem_batch"><rect fill="#F1F1F1" height="46.2969" rx="3.5" ry="3.5" style="stroke:#181818;stroke-width:0.5;" width="82" x="851" y="272"/><rect fill="#F1F1F1" height="10" style="stroke:#181818;stroke-width:0.5;" width="15" x="913" y="277"/><rect fill="#F1F1F1" height="2" style="stroke:#181818;stroke-width:0.5;" width="4" x="911" y="279"/><rect fill="#F1F1F1" height="2" style="stroke:#181818;stroke-width:0.5;" width="4" x="911" y="283"/><text fill="#000000" font-family="sans-serif" font-size="14" lengthAdjust="spacing" textLength="42" x="866" y="304.9951">batch</text></g><!--MD5=[6e5b09e60b7ad420a7f674a15244bae8]
entity command line--><g id="elem_command line"><rect fill="#F1F1F1" height="46.2969" rx="3.5" ry="3.5" style="stroke:#181818;stroke-width:0.5;" width="141" x="968.5" y="272"/><rect fill="#F1F1F1" height="10" style="stroke:#181818;stroke-width:0.5;" width="15" x="1089.5" y="277"/><rect fill="#F1F1F1" height="2" style="stroke:#181818;stroke-width:0.5;" width="4" x="1087.5" y="279"/><rect fill="#F1F1F1" height="2" style="stroke:#181818;stroke-width:0.5;" width="4" x="1087.5" y="283"/><text fill="#000000" font-family="sans-serif" font-size="14" lengthAdjust="spacing" textLength="101" x="983.5" y="304.9951">command line</text></g><!--MD5=[beb5ad5244d3d849df9473931f7c2e5e]
entity GUI--><g id="elem_GUI"><rect fill="#F1F1F1" height="46.2969" rx="3.5" ry="3.5" style="stroke:#181818;stroke-width:0.5;" width="64" x="1145" y="272"/><rect fill="#F1F1F1" height="10" style="stroke:#181818;stroke-width:0.5;" width="15" x="1189" y="277"/><rect fill="#F1F1F1" height="2" style="stroke:#181818;stroke-width:0.5;" width="4" x="1187" y="279"/><rect fill="#F1F1F1" height="2" style="stroke:#181818;stroke-width:0.5;" width="4" x="1187" y="283"/><text fill="#000000" font-family="sans-serif" font-size="14" lengthAdjust="spacing" textLength="24" x="1160" y="304.9951">GUI</text></g><text fill="#191919" font-family="sans-serif" font-size="14" lengthAdjust="spacing" textLength="91" x="993.5" y="405.6982">System Calls</text><rect fill="#F1F1F1" height="12" style="stroke:#181818;stroke-width:1.5;" width="12" x="1033" y="421"/><!--MD5=[70a5a5e3e3d015423c6b70f484b328d8]
entity Process Management--><g id="elem_Process Management"><rect fill="#F1F1F1" height="46.2969" rx="3.5" ry="3.5" style="stroke:#181818;stroke-width:0.5;" width="193" x="288.5" y="494"/><rect fill="#F1F1F1" height="10" style="stroke:#181818;stroke-width:0.5;" width="15" x="461.5" y="499"/><rect fill="#F1F1F1" height="2" style="stroke:#181818;stroke-width:0.5;" width="4" x="459.5" y="501"/><rect fill="#F1F1F1" height="2" style="stroke:#181818;stroke-width:0.5;" width="4" x="459.5" y="505"/><text fill="#000000" font-family="sans-serif" font-size="14" lengthAdjust="spacing" textLength="153" x="303.5" y="526.9951">Process Management</text></g><!--MD5=[fd099c71ad90270c4556a92aa4926348]
entity Storage Management--><g id="elem_Storage Management"><rect fill="#F1F1F1" height="46.2969" rx="3.5" ry="3.5" style="stroke:#181818;stroke-width:0.5;" width="195" x="516.5" y="494"/><rect fill="#F1F1F1" height="10" style="stroke:#181818;stroke-width:0.5;" width="15" x="691.5" y="499"/><rect fill="#F1F1F1" height="2" style="stroke:#181818;stroke-width:0.5;" width="4" x="689.5" y="501"/><rect fill="#F1F1F1" height="2" style="stroke:#181818;stroke-width:0.5;" width="4" x="689.5" y="505"/><text fill="#000000" font-family="sans-serif" font-size="14" lengthAdjust="spacing" textLength="155" x="531.5" y="526.9951">Storage Management</text></g><!--MD5=[5a1e4884c9f368ca7fc3150ec0c6f817]
entity Communication--><g id="elem_Communication"><rect fill="#F1F1F1" height="46.2969" rx="3.5" ry="3.5" style="stroke:#181818;stroke-width:0.5;" width="153" x="746.5" y="494"/><rect fill="#F1F1F1" height="10" style="stroke:#181818;stroke-width:0.5;" width="15" x="879.5" y="499"/><rect fill="#F1F1F1" height="2" style="stroke:#181818;stroke-width:0.5;" width="4" x="877.5" y="501"/><rect fill="#F1F1F1" height="2" style="stroke:#181818;stroke-width:0.5;" width="4" x="877.5" y="505"/><text fill="#000000" font-family="sans-serif" font-size="14" lengthAdjust="spacing" textLength="113" x="761.5" y="526.9951">Communication</text></g><!--MD5=[23fe57a52520005c308d6996a33ee35f]
entity Protection and security--><g id="elem_Protection and security"><rect fill="#F1F1F1" height="46.2969" rx="3.5" ry="3.5" style="stroke:#181818;stroke-width:0.5;" width="208" x="935" y="494"/><rect fill="#F1F1F1" height="10" style="stroke:#181818;stroke-width:0.5;" width="15" x="1123" y="499"/><rect fill="#F1F1F1" height="2" style="stroke:#181818;stroke-width:0.5;" width="4" x="1121" y="501"/><rect fill="#F1F1F1" height="2" style="stroke:#181818;stroke-width:0.5;" width="4" x="1121" y="505"/><text fill="#000000" font-family="sans-serif" font-size="14" lengthAdjust="spacing" textLength="168" x="950" y="526.9951">Protection and security</text></g><!--MD5=[6312dc327542a79b5d6766c7ec229d7c]
entity Resource allocation--><g id="elem_Resource allocation"><rect fill="#F1F1F1" height="46.2969" rx="3.5" ry="3.5" style="stroke:#181818;stroke-width:0.5;" width="180" x="1178" y="494"/><rect fill="#F1F1F1" height="10" style="stroke:#181818;stroke-width:0.5;" width="15" x="1338" y="499"/><rect fill="#F1F1F1" height="2" style="stroke:#181818;stroke-width:0.5;" width="4" x="1336" y="501"/><rect fill="#F1F1F1" height="2" style="stroke:#181818;stroke-width:0.5;" width="4" x="1336" y="505"/><text fill="#000000" font-family="sans-serif" font-size="14" lengthAdjust="spacing" textLength="140" x="1193" y="526.9951">Resource allocation</text></g><!--MD5=[2a7c4b04f6e985f2bcdb20f8dc5863bc]
entity Input/Output Management--><g id="elem_Input/Output Management"><rect fill="#F1F1F1" height="46.2969" rx="3.5" ry="3.5" style="stroke:#181818;stroke-width:0.5;" width="232" x="1393" y="494"/><rect fill="#F1F1F1" height="10" style="stroke:#181818;stroke-width:0.5;" width="15" x="1605" y="499"/><rect fill="#F1F1F1" height="2" style="stroke:#181818;stroke-width:0.5;" width="4" x="1603" y="501"/><rect fill="#F1F1F1" height="2" style="stroke:#181818;stroke-width:0.5;" width="4" x="1603" y="505"/><text fill="#000000" font-family="sans-serif" font-size="14" lengthAdjust="spacing" textLength="192" x="1408" y="526.9951">Input/Output Management</text></g><!--MD5=[967ecd365932dbe4bfe960d9678e76a9]
entity Accounting--><g id="elem_Accounting"><rect fill="#F1F1F1" height="46.2969" rx="3.5" ry="3.5" style="stroke:#181818;stroke-width:0.5;" width="121" x="1660.5" y="494"/><rect fill="#F1F1F1" height="10" style="stroke:#181818;stroke-width:0.5;" width="15" x="1761.5" y="499"/><rect fill="#F1F1F1" height="2" style="stroke:#181818;stroke-width:0.5;" width="4" x="1759.5" y="501"/><rect fill="#F1F1F1" height="2" style="stroke:#181818;stroke-width:0.5;" width="4" x="1759.5" y="505"/><text fill="#000000" font-family="sans-serif" font-size="14" lengthAdjust="spacing" textLength="81" x="1675.5" y="526.9951">Accounting</text></g><!--MD5=[f85070b9701ecad8ff9c69298eb7bc86]
entity Error detection--><g id="elem_Error detection"><rect fill="#F1F1F1" height="46.2969" rx="3.5" ry="3.5" style="stroke:#181818;stroke-width:0.5;" width="151" x="1816.5" y="494"/><rect fill="#F1F1F1" height="10" style="stroke:#181818;stroke-width:0.5;" width="15" x="1947.5" y="499"/><rect fill="#F1F1F1" height="2" style="stroke:#181818;stroke-width:0.5;" width="4" x="1945.5" y="501"/><rect fill="#F1F1F1" height="2" style="stroke:#181818;stroke-width:0.5;" width="4" x="1945.5" y="505"/><text fill="#000000" font-family="sans-serif" font-size="14" lengthAdjust="spacing" textLength="111" x="1831.5" y="526.9951">Error detection</text></g><!--MD5=[fee662a292a0353a69bd162820bae93b]
entity User--><g id="elem_User"><ellipse cx="803" cy="14" fill="#F1F1F1" rx="8" ry="8" style="stroke:#181818;stroke-width:0.5;"/><text fill="#000000" font-family="sans-serif" font-size="14" lengthAdjust="spacing" textLength="31" x="787.5" y="43.9951">User</text></g><g id="elem_GMN1681004"><path d="M348.5,286 L348.5,304.1328 A3.5,3.5 0 0 0 352,307.6328 L764,307.6328 A3.5,3.5 0 0 0 767.5,304.1328 L767.5,292.5 L757.5,282.5 L352,282.5 A3.5,3.5 0 0 0 348.5,286 " fill="#E5E5E5" style="stroke:#181818;stroke-width:1.5;"/><path d="M757.5,282.5 L757.5,290.75 A1.75,1.75 0 0 0 759.25,292.5 L767.5,292.5 L757.5,282.5 " fill="#E5E5E5" style="stroke:#181818;stroke-width:1.0;"/><text fill="#191919" font-family="sans-serif" font-size="13" lengthAdjust="spacing" textLength="398" x="354.5" y="299.5669">For instance, job schedulers. Cron is job scheduler in UNIX-like.</text></g><!--MD5=[69c7523a28e613c22fde8b3671ba6607]
link User to Applications--><g id="link_User_Applications"><path d="M803,23.049 C803,45.564 803,111.5532 803,172.7676 C803,173.7241 803,174.6794 803,175.6334 " fill="none" id="User-to-Applications" style="stroke:#191919;stroke-width:1.0;stroke-dasharray:7.0,7.0;"/><polygon fill="#191919" points="803,175.6334,807,166.6334,803,170.6334,799,166.6334,803,175.6334" style="stroke:#191919;stroke-width:1.0;"/><text fill="#000000" font-family="sans-serif" font-size="13" lengthAdjust="spacing" textLength="23" x="804" y="117.0669">use</text></g><!--MD5=[eafebe1477d12d6141ca1c85cca4940b]
link GMN1681004 to batch--><g id="link_GMN1681004_batch"><path d="M567.266,282.307 C601.122,237.566 721.781,92.434 829.5,140.5 C878.78,162.489 889.428,234.438 891.578,271.883 " fill="none" id="GMN1681004-batch" style="stroke:#191919;stroke-width:1.0;stroke-dasharray:7.0,7.0;"/></g><!--MD5=[0925d4afe4018c07d3ed2229050988d0]
link command line to SystemCalls--><g id="link_command line_SystemCalls"><path d="M1039,318.053 C1039,346.393 1039,394.448 1039,415.544 " fill="none" id="command line-to-SystemCalls" style="stroke:#191919;stroke-width:1.0;"/><polygon fill="#191919" points="1039,420.74,1043,411.74,1039,415.74,1035,411.74,1039,420.74" style="stroke:#191919;stroke-width:1.0;"/></g><!--MD5=[f2bad7c7676a655500749868d9e017d2]
link batch to SystemCalls--><g id="link_batch_SystemCalls"><path d="M903.025,318.098 C913.338,336.995 930.247,363.924 951,382 C974.812,402.741 1010.13,416.472 1027.91,422.501 " fill="none" id="batch-to-SystemCalls" style="stroke:#191919;stroke-width:1.0;"/><polygon fill="#191919" points="1032.83,424.124,1025.5244,417.5188,1028.0789,422.566,1023.0317,425.1205,1032.83,424.124" style="stroke:#191919;stroke-width:1.0;"/></g><!--MD5=[fba6341eb55845a578d03b9a52076a86]
link GUI to SystemCalls--><g id="link_GUI_SystemCalls"><path d="M1168.42,318.151 C1160.18,337.082 1146.14,364.031 1127,382 C1103.98,403.615 1068.31,416.958 1050.27,422.704 " fill="none" id="GUI-to-SystemCalls" style="stroke:#191919;stroke-width:1.0;"/><polygon fill="#191919" points="1045.27,424.244,1055.0486,425.4183,1050.0486,422.7726,1052.6943,417.7726,1045.27,424.244" style="stroke:#191919;stroke-width:1.0;"/></g><!--MD5=[aeb366f6a8fdee92956ef52d1e443405]
link SystemCalls to Process Management--><g id="link_SystemCalls_Process Management"><path d="M1032.81,428.311 C988.63,430.605 716.45,445.945 499,486 C487.125,488.1874 474.669,490.96 462.529,493.9319 " fill="none" id="SystemCalls-Process Management" style="stroke:#191919;stroke-width:1.0;"/></g><!--MD5=[a36578080448fe4a33fb6215fb1f2bad]
link SystemCalls to Storage Management--><g id="link_SystemCalls_Storage Management"><path d="M1032.64,429.02 C1000.224,434.249 850.292,458.868 729,486 C718.127,488.4323 706.724,491.1733 695.498,493.9846 " fill="none" id="SystemCalls-Storage Management" style="stroke:#191919;stroke-width:1.0;"/></g><!--MD5=[c0e4cc608e5af88cd5fe4e785548dd4d]
link SystemCalls to Communication--><g id="link_SystemCalls_Communication"><path d="M1032.77,430.539 C1010.22,439.726 931.342,471.8605 877.01,493.9961 " fill="none" id="SystemCalls-Communication" style="stroke:#191919;stroke-width:1.0;"/></g><!--MD5=[cbb9b3abc0b58609aa091323b3afbb00]
link SystemCalls to Protection and security--><g id="link_SystemCalls_Protection and security"><path d="M1039,433.241 C1039,444.86 1039,473.3541 1039,493.6552 " fill="none" id="SystemCalls-Protection and security" style="stroke:#191919;stroke-width:1.0;"/></g><!--MD5=[ef687fd3db897132f1d96c3e89386f71]
link SystemCalls to Resource allocation--><g id="link_SystemCalls_Resource allocation"><path d="M1045.13,430.354 C1068.35,439.278 1152.59,471.6488 1210.58,493.9336 " fill="none" id="SystemCalls-Resource allocation" style="stroke:#191919;stroke-width:1.0;"/></g><!--MD5=[1d8008e524f4db736fbd914cb479021d]
link SystemCalls to Input/Output Management--><g id="link_SystemCalls_Input/Output Management"><path d="M1045.01,428.915 C1078.21,434 1242.66,459.505 1376,486 C1388.3,488.4449 1401.22,491.1634 1413.95,493.9373 " fill="none" id="SystemCalls-Input/Output Management" style="stroke:#191919;stroke-width:1.0;"/></g><!--MD5=[d5b011c4097ba770c16e08f28f0c61e7]
link SystemCalls to Accounting--><g id="link_SystemCalls_Accounting"><path d="M1045.05,427.962 C1091.88,427.798 1401.02,428.971 1643,486 C1651.76,488.0635 1660.85,490.8871 1669.59,493.9816 " fill="none" id="SystemCalls-Accounting" style="stroke:#191919;stroke-width:1.0;"/></g><!--MD5=[ad21a17ae8972c6f82203bf489a0a560]
link SystemCalls to Error detection--><g id="link_SystemCalls_Error detection"><path d="M1045.17,427.892 C1098.71,427.072 1490.33,423.441 1799,486 C1809.23,488.0725 1819.91,490.8806 1830.23,493.9513 " fill="none" id="SystemCalls-Error detection" style="stroke:#191919;stroke-width:1.0;"/></g><!--MD5=[9142970305651ea4a09f5b6c307f1fd1]
@startuml
!theme mars
User ..-> [Applications]: use
node "Applications" {
  node "User interfaces" {
    [batch] 
    [command line]
    [GUI]
  }
}
note left of batch: For instance, job schedulers. Cron is job scheduler in UNIX-like.

node "Operating system" {
  portin "System Calls" as SystemCalls
  [command line] -down-> SystemCalls
  [batch] -down-> SystemCalls
  [GUI] -down-> SystemCalls
  SystemCalls -down- [Process Management]
  SystemCalls -down- [Storage Management]
  SystemCalls -down- [Communication]
SystemCalls -down- [Protection and security]
SystemCalls -down- [Resource allocation]
SystemCalls -down- [Input/Output Management]
SystemCalls -down- [Accounting]
SystemCalls -down- [Error detection]
}
@enduml

@startuml
skinparam BackgroundColor F9F9F9
skinparam shadowing false
skinparam RoundCorner 7
skinparam ArrowColor 191919
skinparam FontColor 191919
skinparam SequenceLifeLineBorderColor 393939
skinparam SequenceGroupHeaderFontColor 191919
skinparam SequenceGroupFontColor 393939
skinparam SequenceGroupBorderColor 393939
skinparam SequenceGroupBorderThickness 1

skinparam sequenceDivider {
    BorderColor 191919
    BorderThickness 1
    FontColor 191919
}

skinparam participant {
    BackgroundColor E55756
    BorderColor 191919
    FontColor F9F9F9
    BorderThickness 1.5
}

skinparam database {
    BackgroundColor A4DBD8
    BorderColor 191919
    FontColor 191919
}

skinparam entity {
    BackgroundColor EFBABC
    BorderColor 191919
    FontColor 191919
}

skinparam note {
    BackgroundColor e5e5e5
    BorderColor 191919
    FontColor 191919
    BorderThickness 1.5
}

skinparam actor {
    BackgroundColor 191919
    BorderColor 191919
    FontColor 191919
}

skinparam boundary {
    BackgroundColor EFBABC
    BorderColor 191919
    FontColor 191919
}

skinparam control {
    BackgroundColor EFBABC
    BorderColor 191919
    FontColor 191919
}

skinparam collections {
    BackgroundColor E55756
    BorderColor 191919
    FontColor 191919
    BorderThickness 1.5
}

skinparam queue {
    BackgroundColor E55756
    BorderColor 191919
    FontColor FFF
    BorderThickness 1.5
}
User ..-> [Applications]: use
node "Applications" {
  node "User interfaces" {
    [batch] 
    [command line]
    [GUI]
  }
}
note left of batch: For instance, job schedulers. Cron is job scheduler in UNIX-like.

node "Operating system" {
  portin "System Calls" as SystemCalls
  [command line] -down-> SystemCalls
  [batch] -down-> SystemCalls
  [GUI] -down-> SystemCalls
  SystemCalls -down- [Process Management]
  SystemCalls -down- [Storage Management]
  SystemCalls -down- [Communication]
SystemCalls -down- [Protection and security]
SystemCalls -down- [Resource allocation]
SystemCalls -down- [Input/Output Management]
SystemCalls -down- [Accounting]
SystemCalls -down- [Error detection]
}
@enduml

PlantUML version 1.2022.8beta2(Unknown compile time)
(GPL source distribution)
Java Runtime: Java(TM) SE Runtime Environment
JVM: Java HotSpot(TM) 64-Bit Server VM
Default Encoding: UTF-8
Language: en
Country: US
--></g></svg>