<svg width="656" height="595" viewBox="0 0 492 446.25" xmlns="http://www.w3.org/2000/svg" xmlns:xlink="http://www.w3.org/1999/xlink">
<g id="graph0" class="graph" transform="translate(210.2949981689453,325.125) scale(1)">
<title>G</title>
<polygon fill="white" stroke="transparent" points="-4,4 -4,-184 130,-184 130,4 -4,4"/>
<!-- A -->
<g id="node1" class="node">
<title>A</title>
<ellipse fill="rgb(217, 231, 238)" stroke="black" cx="63" cy="-162" rx="27" ry="18"/>
<text text-anchor="middle" x="63" y="-157.8" font-family="Times,serif" font-size="14.00">A</text>
</g>
<!-- B -->
<g id="node2" class="node">
<title>B</title>
<ellipse fill="none" stroke="black" cx="27" cy="-90" rx="27" ry="18"/>
<text text-anchor="middle" x="27" y="-85.8" font-family="Times,serif" font-size="14.00">B</text>
</g>
<!-- A&#45;&gt;B -->
<g id="edge1" class="edge">
<title>A-&gt;B</title>
<path fill="none" stroke="black" d="M54.65,-144.76C50.29,-136.28 44.85,-125.71 39.96,-116.2"/>
<polygon fill="black" stroke="black" points="42.99,-114.44 35.3,-107.15 36.77,-117.64 42.99,-114.44"/>
</g>
<!-- C -->
<g id="node3" class="node">
<title>C</title>
<ellipse fill="none" stroke="black" cx="99" cy="-90" rx="27" ry="18"/>
<text text-anchor="middle" x="99" y="-85.8" font-family="Times,serif" font-size="14.00">C</text>
</g>
<!-- A&#45;&gt;C -->
<g id="edge2" class="edge">
<title>A-&gt;C</title>
<path fill="none" stroke="black" d="M71.35,-144.76C75.71,-136.28 81.15,-125.71 86.04,-116.2"/>
<polygon fill="black" stroke="black" points="89.23,-117.64 90.7,-107.15 83.01,-114.44 89.23,-117.64"/>
</g>
<!-- D -->
<g id="node4" class="node">
<title>D</title>
<ellipse fill="none" stroke="black" cx="63" cy="-18" rx="27" ry="18"/>
<text text-anchor="middle" x="63" y="-13.8" font-family="Times,serif" font-size="14.00">D</text>
</g>
<!-- B&#45;&gt;D -->
<g id="edge4" class="edge">
<title>B-&gt;D</title>
<path fill="none" stroke="black" d="M35.35,-72.76C39.71,-64.28 45.15,-53.71 50.04,-44.2"/>
<polygon fill="black" stroke="black" points="53.23,-45.64 54.7,-35.15 47.01,-42.44 53.23,-45.64"/>
</g>
<!-- C&#45;&gt;D -->
<g id="edge3" class="edge">
<title>C-&gt;D</title>
<path fill="none" stroke="black" d="M90.65,-72.76C86.29,-64.28 80.85,-53.71 75.96,-44.2"/>
<polygon fill="black" stroke="black" points="78.99,-42.44 71.3,-35.15 72.77,-45.64 78.99,-42.44"/>
</g>
</g>
</svg>