<?xml version="1.0" encoding="UTF-8" standalone="no"?>
<svg xmlns="http://www.w3.org/2000/svg" xmlns:xlink="http://www.w3.org/1999/xlink" contentStyleType="text/css" height="337px" preserveAspectRatio="none" style="width:1239px;height:337px;background:#FFFFFF;" version="1.1" viewBox="0 0 1239 337" width="1239px" zoomAndPan="magnify"><script xmlns=""/><script xmlns=""/><defs/><g><line style="stroke:#181818;stroke-width:0.5;stroke-dasharray:5.0,5.0;" x1="115" x2="115" y1="36.2969" y2="302.3594"/><line style="stroke:#181818;stroke-width:0.5;stroke-dasharray:5.0,5.0;" x1="309.5" x2="309.5" y1="36.2969" y2="302.3594"/><line style="stroke:#181818;stroke-width:0.5;stroke-dasharray:5.0,5.0;" x1="783" x2="783" y1="36.2969" y2="302.3594"/><line style="stroke:#181818;stroke-width:0.5;stroke-dasharray:5.0,5.0;" x1="1115.5" x2="1115.5" y1="36.2969" y2="302.3594"/><line style="stroke:#181818;stroke-width:0.5;stroke-dasharray:5.0,5.0;" x1="1215.5" x2="1215.5" y1="36.2969" y2="302.3594"/><rect fill="#E2E2F0" height="30.2969" rx="2.5" ry="2.5" style="stroke:#181818;stroke-width:0.5;" width="221" x="5" y="5"/><text fill="#000000" font-family="sans-serif" font-size="14" lengthAdjust="spacing" textLength="207" x="12" y="24.9951">ExpendienteElectronicoWeb</text><rect fill="#E2E2F0" height="30.2969" rx="2.5" ry="2.5" style="stroke:#181818;stroke-width:0.5;" width="221" x="5" y="301.3594"/><text fill="#000000" font-family="sans-serif" font-size="14" lengthAdjust="spacing" textLength="207" x="12" y="321.3545">ExpendienteElectronicoWeb</text><rect fill="#E2E2F0" height="30.2969" rx="2.5" ry="2.5" style="stroke:#181818;stroke-width:0.5;" width="146" x="236.5" y="5"/><text fill="#000000" font-family="sans-serif" font-size="14" lengthAdjust="spacing" textLength="132" x="243.5" y="24.9951">EstudiosDeRayosX</text><rect fill="#E2E2F0" height="30.2969" rx="2.5" ry="2.5" style="stroke:#181818;stroke-width:0.5;" width="146" x="236.5" y="301.3594"/><text fill="#000000" font-family="sans-serif" font-size="14" lengthAdjust="spacing" textLength="132" x="243.5" y="321.3545">EstudiosDeRayosX</text><rect fill="#E2E2F0" height="30.2969" rx="2.5" ry="2.5" style="stroke:#181818;stroke-width:0.5;" width="193" x="687" y="5"/><text fill="#000000" font-family="sans-serif" font-size="14" lengthAdjust="spacing" textLength="179" x="694" y="24.9951">EstudiosDeRayosXServer</text><rect fill="#E2E2F0" height="30.2969" rx="2.5" ry="2.5" style="stroke:#181818;stroke-width:0.5;" width="193" x="687" y="301.3594"/><text fill="#000000" font-family="sans-serif" font-size="14" lengthAdjust="spacing" textLength="179" x="694" y="321.3545">EstudiosDeRayosXServer</text><rect fill="#E2E2F0" height="30.2969" rx="2.5" ry="2.5" style="stroke:#181818;stroke-width:0.5;" width="146" x="1042.5" y="5"/><text fill="#000000" font-family="sans-serif" font-size="14" lengthAdjust="spacing" textLength="132" x="1049.5" y="24.9951">HospitalServerFTP</text><rect fill="#E2E2F0" height="30.2969" rx="2.5" ry="2.5" style="stroke:#181818;stroke-width:0.5;" width="146" x="1042.5" y="301.3594"/><text fill="#000000" font-family="sans-serif" font-size="14" lengthAdjust="spacing" textLength="132" x="1049.5" y="321.3545">HospitalServerFTP</text><rect fill="#E2E2F0" height="30.2969" rx="2.5" ry="2.5" style="stroke:#181818;stroke-width:0.5;" width="35" x="1198.5" y="5"/><text fill="#000000" font-family="sans-serif" font-size="14" lengthAdjust="spacing" textLength="21" x="1205.5" y="24.9951">DB</text><rect fill="#E2E2F0" height="30.2969" rx="2.5" ry="2.5" style="stroke:#181818;stroke-width:0.5;" width="35" x="1198.5" y="301.3594"/><text fill="#000000" font-family="sans-serif" font-size="14" lengthAdjust="spacing" textLength="21" x="1205.5" y="321.3545">DB</text><polygon fill="#181818" points="297.5,63.4297,307.5,67.4297,297.5,71.4297,301.5,67.4297" style="stroke:#181818;stroke-width:1.0;"/><line style="stroke:#181818;stroke-width:1.0;" x1="115.5" x2="303.5" y1="67.4297" y2="67.4297"/><text fill="#000000" font-family="sans-serif" font-size="13" lengthAdjust="spacing" textLength="170" x="122.5" y="62.3638">iframe /?id=1.2.4.2807152</text><polygon fill="#181818" points="771.5,92.5625,781.5,96.5625,771.5,100.5625,775.5,96.5625" style="stroke:#181818;stroke-width:1.0;"/><line style="stroke:#181818;stroke-width:1.0;stroke-dasharray:2.0,2.0;" x1="309.5" x2="777.5" y1="96.5625" y2="96.5625"/><text fill="#000000" font-family="sans-serif" font-size="13" lengthAdjust="spacing" textLength="96" x="316.5" y="91.4966">/1.2.4.2807152</text><polygon fill="#181818" points="1103.5,121.6953,1113.5,125.6953,1103.5,129.6953,1107.5,125.6953" style="stroke:#181818;stroke-width:1.0;"/><line style="stroke:#181818;stroke-width:1.0;stroke-dasharray:2.0,2.0;" x1="783.5" x2="1109.5" y1="125.6953" y2="125.6953"/><text fill="#000000" font-family="sans-serif" font-size="13" lengthAdjust="spacing" textLength="308" x="790.5" y="120.6294">read directory 1.2.4.2807152 and subdirectories</text><polygon fill="#181818" points="1204,150.8281,1214,154.8281,1204,158.8281,1208,154.8281" style="stroke:#181818;stroke-width:1.0;"/><line style="stroke:#181818;stroke-width:1.0;stroke-dasharray:2.0,2.0;" x1="783.5" x2="1210" y1="154.8281" y2="154.8281"/><text fill="#000000" font-family="sans-serif" font-size="13" lengthAdjust="spacing" textLength="34" x="790.5" y="149.7622">ToDo</text><polygon fill="#181818" points="320.5,179.9609,310.5,183.9609,320.5,187.9609,316.5,183.9609" style="stroke:#181818;stroke-width:1.0;"/><line style="stroke:#181818;stroke-width:1.0;stroke-dasharray:2.0,2.0;" x1="314.5" x2="782.5" y1="183.9609" y2="183.9609"/><text fill="#000000" font-family="sans-serif" font-size="13" lengthAdjust="spacing" textLength="104" x="326.5" y="178.895">{images: [], ...}</text><line style="stroke:#181818;stroke-width:1.0;stroke-dasharray:2.0,2.0;" x1="309.5" x2="351.5" y1="213.0938" y2="213.0938"/><line style="stroke:#181818;stroke-width:1.0;stroke-dasharray:2.0,2.0;" x1="351.5" x2="351.5" y1="213.0938" y2="226.0938"/><line style="stroke:#181818;stroke-width:1.0;stroke-dasharray:2.0,2.0;" x1="310.5" x2="351.5" y1="226.0938" y2="226.0938"/><polygon fill="#181818" points="320.5,222.0938,310.5,226.0938,320.5,230.0938,316.5,226.0938" style="stroke:#181818;stroke-width:1.0;"/><text fill="#000000" font-family="sans-serif" font-size="13" lengthAdjust="spacing" textLength="130" x="316.5" y="208.0278">visualize thumbnails</text><polygon fill="#181818" points="771.5,251.2266,781.5,255.2266,771.5,259.2266,775.5,255.2266" style="stroke:#181818;stroke-width:1.0;"/><line style="stroke:#181818;stroke-width:1.0;stroke-dasharray:2.0,2.0;" x1="309.5" x2="777.5" y1="255.2266" y2="255.2266"/><text fill="#000000" font-family="sans-serif" font-size="13" lengthAdjust="spacing" textLength="450" x="316.5" y="250.1606">visualize /:directory/:subdirectory  example /1.2.4.2807152/2807152.1</text><polygon fill="#181818" points="320.5,280.3594,310.5,284.3594,320.5,288.3594,316.5,284.3594" style="stroke:#181818;stroke-width:1.0;"/><line style="stroke:#181818;stroke-width:1.0;stroke-dasharray:2.0,2.0;" x1="314.5" x2="782.5" y1="284.3594" y2="284.3594"/><text fill="#000000" font-family="sans-serif" font-size="13" lengthAdjust="spacing" textLength="40" x="326.5" y="279.2935">image</text><!--SRC=[bP3TIWCn48Nl-nJd0MpYBeeIK45snKlHWe9uCTkCEf1DbYHRkehlhjJV_b3irS3CcOzpJZtls5jXdxbsFCqnU9c6MsumFaMTScybf8glQGZfpa0U8xKCVIRsf52bEb3byVvHSLXYj2h6U0FXXkECeu5UUXvjbYq8bo5raibzhYucLmQHoS9A_B0Rue1b7-GjKjzyduNJDdfrRZ09LTYcMM_XLLfwucHm_x07fTJR_y8Rp2JrvEI5aP_xjl4aBkrMt2z1cvyAjFcJU01uJctdUALb_JLLiLlQHTXt]--></g></svg>