<?xml version="1.0" encoding="UTF-8" standalone="no"?>
<svg xmlns="http://www.w3.org/2000/svg" xmlns:xlink="http://www.w3.org/1999/xlink" contentStyleType="text/css" height="639px" preserveAspectRatio="none" style="width:923px;height:639px;background:#FFFFFF;" version="1.1" viewBox="0 0 923 639" width="923px" zoomAndPan="magnify"><script xmlns=""/><defs/><g><!--class Type--><g id="elem_Type"><rect codeLine="1" fill="#F1F1F1" height="48" id="Type" rx="2.5" ry="2.5" style="stroke:#181818;stroke-width:0.5;" width="68" x="328" y="7"/><ellipse cx="343" cy="23" fill="#ADD1B2" rx="11" ry="11" style="stroke:#181818;stroke-width:1.0;"/><path d="M345.3438,18.6719 C344.4063,18.2344 343.8125,18.0938 342.9375,18.0938 C340.3125,18.0938 338.3125,20.1719 338.3125,22.8906 L338.3125,24.0156 C338.3125,26.5938 340.4219,28.4844 343.3125,28.4844 C344.5313,28.4844 345.6875,28.1875 346.4375,27.6406 C347.0156,27.2344 347.3438,26.7813 347.3438,26.3906 C347.3438,25.9375 346.9531,25.5469 346.4844,25.5469 C346.2656,25.5469 346.0625,25.625 345.875,25.8125 C345.4219,26.2969 345.4219,26.2969 345.2344,26.3906 C344.8125,26.6563 344.125,26.7813 343.3594,26.7813 C341.3125,26.7813 340.0156,25.6875 340.0156,23.9844 L340.0156,22.8906 C340.0156,21.1094 341.2656,19.7969 343,19.7969 C343.5781,19.7969 344.1875,19.9531 344.6563,20.2031 C345.1406,20.4844 345.3125,20.7031 345.4063,21.1094 C345.4688,21.5156 345.5,21.6406 345.6406,21.7656 C345.7813,21.9063 346.0156,22.0156 346.2344,22.0156 C346.5,22.0156 346.7656,21.875 346.9375,21.6563 C347.0469,21.5 347.0781,21.3125 347.0781,20.8906 L347.0781,19.4688 C347.0781,19.0313 347.0625,18.9063 346.9688,18.75 C346.8125,18.4844 346.5313,18.3438 346.2344,18.3438 C345.9375,18.3438 345.7344,18.4375 345.5156,18.75 L345.3438,18.6719 Z " fill="#000000"/><text fill="#000000" font-family="sans-serif" font-size="14" lengthAdjust="spacing" textLength="36" x="357" y="27.8467">Type</text><line style="stroke:#181818;stroke-width:0.5;" x1="329" x2="395" y1="39" y2="39"/><line style="stroke:#181818;stroke-width:0.5;" x1="329" x2="395" y1="47" y2="47"/></g><!--class Class--><g id="elem_Class"><rect fill="#F1F1F1" height="48" id="Class" rx="2.5" ry="2.5" style="stroke:#181818;stroke-width:0.5;" width="68" x="7" y="116"/><ellipse cx="22" cy="132" fill="#ADD1B2" rx="11" ry="11" style="stroke:#181818;stroke-width:1.0;"/><path d="M24.3438,127.6719 C23.4063,127.2344 22.8125,127.0938 21.9375,127.0938 C19.3125,127.0938 17.3125,129.1719 17.3125,131.8906 L17.3125,133.0156 C17.3125,135.5938 19.4219,137.4844 22.3125,137.4844 C23.5313,137.4844 24.6875,137.1875 25.4375,136.6406 C26.0156,136.2344 26.3438,135.7813 26.3438,135.3906 C26.3438,134.9375 25.9531,134.5469 25.4844,134.5469 C25.2656,134.5469 25.0625,134.625 24.875,134.8125 C24.4219,135.2969 24.4219,135.2969 24.2344,135.3906 C23.8125,135.6563 23.125,135.7813 22.3594,135.7813 C20.3125,135.7813 19.0156,134.6875 19.0156,132.9844 L19.0156,131.8906 C19.0156,130.1094 20.2656,128.7969 22,128.7969 C22.5781,128.7969 23.1875,128.9531 23.6563,129.2031 C24.1406,129.4844 24.3125,129.7031 24.4063,130.1094 C24.4688,130.5156 24.5,130.6406 24.6406,130.7656 C24.7813,130.9063 25.0156,131.0156 25.2344,131.0156 C25.5,131.0156 25.7656,130.875 25.9375,130.6563 C26.0469,130.5 26.0781,130.3125 26.0781,129.8906 L26.0781,128.4688 C26.0781,128.0313 26.0625,127.9063 25.9688,127.75 C25.8125,127.4844 25.5313,127.3438 25.2344,127.3438 C24.9375,127.3438 24.7344,127.4375 24.5156,127.75 L24.3438,127.6719 Z " fill="#000000"/><text fill="#000000" font-family="sans-serif" font-size="14" lengthAdjust="spacing" textLength="36" x="36" y="136.8467">Class</text><line style="stroke:#181818;stroke-width:0.5;" x1="8" x2="74" y1="148" y2="148"/><line style="stroke:#181818;stroke-width:0.5;" x1="8" x2="74" y1="156" y2="156"/></g><!--class AbstractDataType--><g id="elem_AbstractDataType"><rect fill="#F1F1F1" height="48" id="AbstractDataType" rx="2.5" ry="2.5" style="stroke:#181818;stroke-width:0.5;" width="165" x="110.5" y="116"/><ellipse cx="125.5" cy="132" fill="#ADD1B2" rx="11" ry="11" style="stroke:#181818;stroke-width:1.0;"/><path d="M127.8438,127.6719 C126.9063,127.2344 126.3125,127.0938 125.4375,127.0938 C122.8125,127.0938 120.8125,129.1719 120.8125,131.8906 L120.8125,133.0156 C120.8125,135.5938 122.9219,137.4844 125.8125,137.4844 C127.0313,137.4844 128.1875,137.1875 128.9375,136.6406 C129.5156,136.2344 129.8438,135.7813 129.8438,135.3906 C129.8438,134.9375 129.4531,134.5469 128.9844,134.5469 C128.7656,134.5469 128.5625,134.625 128.375,134.8125 C127.9219,135.2969 127.9219,135.2969 127.7344,135.3906 C127.3125,135.6563 126.625,135.7813 125.8594,135.7813 C123.8125,135.7813 122.5156,134.6875 122.5156,132.9844 L122.5156,131.8906 C122.5156,130.1094 123.7656,128.7969 125.5,128.7969 C126.0781,128.7969 126.6875,128.9531 127.1563,129.2031 C127.6406,129.4844 127.8125,129.7031 127.9063,130.1094 C127.9688,130.5156 128,130.6406 128.1406,130.7656 C128.2813,130.9063 128.5156,131.0156 128.7344,131.0156 C129,131.0156 129.2656,130.875 129.4375,130.6563 C129.5469,130.5 129.5781,130.3125 129.5781,129.8906 L129.5781,128.4688 C129.5781,128.0313 129.5625,127.9063 129.4688,127.75 C129.3125,127.4844 129.0313,127.3438 128.7344,127.3438 C128.4375,127.3438 128.2344,127.4375 128.0156,127.75 L127.8438,127.6719 Z " fill="#000000"/><text fill="#000000" font-family="sans-serif" font-size="14" lengthAdjust="spacing" textLength="133" x="139.5" y="136.8467">AbstractDataType</text><line style="stroke:#181818;stroke-width:0.5;" x1="111.5" x2="274.5" y1="148" y2="148"/><line style="stroke:#181818;stroke-width:0.5;" x1="111.5" x2="274.5" y1="156" y2="156"/></g><!--class DataType--><g id="elem_DataType"><rect fill="#F1F1F1" height="48" id="DataType" rx="2.5" ry="2.5" style="stroke:#181818;stroke-width:0.5;" width="102" x="311" y="116"/><ellipse cx="326" cy="132" fill="#ADD1B2" rx="11" ry="11" style="stroke:#181818;stroke-width:1.0;"/><path d="M328.3438,127.6719 C327.4063,127.2344 326.8125,127.0938 325.9375,127.0938 C323.3125,127.0938 321.3125,129.1719 321.3125,131.8906 L321.3125,133.0156 C321.3125,135.5938 323.4219,137.4844 326.3125,137.4844 C327.5313,137.4844 328.6875,137.1875 329.4375,136.6406 C330.0156,136.2344 330.3438,135.7813 330.3438,135.3906 C330.3438,134.9375 329.9531,134.5469 329.4844,134.5469 C329.2656,134.5469 329.0625,134.625 328.875,134.8125 C328.4219,135.2969 328.4219,135.2969 328.2344,135.3906 C327.8125,135.6563 327.125,135.7813 326.3594,135.7813 C324.3125,135.7813 323.0156,134.6875 323.0156,132.9844 L323.0156,131.8906 C323.0156,130.1094 324.2656,128.7969 326,128.7969 C326.5781,128.7969 327.1875,128.9531 327.6563,129.2031 C328.1406,129.4844 328.3125,129.7031 328.4063,130.1094 C328.4688,130.5156 328.5,130.6406 328.6406,130.7656 C328.7813,130.9063 329.0156,131.0156 329.2344,131.0156 C329.5,131.0156 329.7656,130.875 329.9375,130.6563 C330.0469,130.5 330.0781,130.3125 330.0781,129.8906 L330.0781,128.4688 C330.0781,128.0313 330.0625,127.9063 329.9688,127.75 C329.8125,127.4844 329.5313,127.3438 329.2344,127.3438 C328.9375,127.3438 328.7344,127.4375 328.5156,127.75 L328.3438,127.6719 Z " fill="#000000"/><text fill="#000000" font-family="sans-serif" font-size="14" lengthAdjust="spacing" textLength="70" x="340" y="136.8467">DataType</text><line style="stroke:#181818;stroke-width:0.5;" x1="312" x2="412" y1="148" y2="148"/><line style="stroke:#181818;stroke-width:0.5;" x1="312" x2="412" y1="156" y2="156"/></g><!--class Entity--><g id="elem_Entity"><rect fill="#F1F1F1" height="48" id="Entity" rx="2.5" ry="2.5" style="stroke:#181818;stroke-width:0.5;" width="76" x="448" y="116"/><ellipse cx="463" cy="132" fill="#ADD1B2" rx="11" ry="11" style="stroke:#181818;stroke-width:1.0;"/><path d="M465.3438,127.6719 C464.4063,127.2344 463.8125,127.0938 462.9375,127.0938 C460.3125,127.0938 458.3125,129.1719 458.3125,131.8906 L458.3125,133.0156 C458.3125,135.5938 460.4219,137.4844 463.3125,137.4844 C464.5313,137.4844 465.6875,137.1875 466.4375,136.6406 C467.0156,136.2344 467.3438,135.7813 467.3438,135.3906 C467.3438,134.9375 466.9531,134.5469 466.4844,134.5469 C466.2656,134.5469 466.0625,134.625 465.875,134.8125 C465.4219,135.2969 465.4219,135.2969 465.2344,135.3906 C464.8125,135.6563 464.125,135.7813 463.3594,135.7813 C461.3125,135.7813 460.0156,134.6875 460.0156,132.9844 L460.0156,131.8906 C460.0156,130.1094 461.2656,128.7969 463,128.7969 C463.5781,128.7969 464.1875,128.9531 464.6563,129.2031 C465.1406,129.4844 465.3125,129.7031 465.4063,130.1094 C465.4688,130.5156 465.5,130.6406 465.6406,130.7656 C465.7813,130.9063 466.0156,131.0156 466.2344,131.0156 C466.5,131.0156 466.7656,130.875 466.9375,130.6563 C467.0469,130.5 467.0781,130.3125 467.0781,129.8906 L467.0781,128.4688 C467.0781,128.0313 467.0625,127.9063 466.9688,127.75 C466.8125,127.4844 466.5313,127.3438 466.2344,127.3438 C465.9375,127.3438 465.7344,127.4375 465.5156,127.75 L465.3438,127.6719 Z " fill="#000000"/><text fill="#000000" font-family="sans-serif" font-size="14" lengthAdjust="spacing" textLength="44" x="477" y="136.8467">Entity</text><line style="stroke:#181818;stroke-width:0.5;" x1="449" x2="523" y1="148" y2="148"/><line style="stroke:#181818;stroke-width:0.5;" x1="449" x2="523" y1="156" y2="156"/></g><!--class Property--><g id="elem_Property"><rect codeLine="6" fill="#F1F1F1" height="48" id="Property" rx="2.5" ry="2.5" style="stroke:#181818;stroke-width:0.5;" width="174" x="559" y="116"/><ellipse cx="574" cy="132" fill="#ADD1B2" rx="11" ry="11" style="stroke:#181818;stroke-width:1.0;"/><path d="M576.3438,127.6719 C575.4063,127.2344 574.8125,127.0938 573.9375,127.0938 C571.3125,127.0938 569.3125,129.1719 569.3125,131.8906 L569.3125,133.0156 C569.3125,135.5938 571.4219,137.4844 574.3125,137.4844 C575.5313,137.4844 576.6875,137.1875 577.4375,136.6406 C578.0156,136.2344 578.3438,135.7813 578.3438,135.3906 C578.3438,134.9375 577.9531,134.5469 577.4844,134.5469 C577.2656,134.5469 577.0625,134.625 576.875,134.8125 C576.4219,135.2969 576.4219,135.2969 576.2344,135.3906 C575.8125,135.6563 575.125,135.7813 574.3594,135.7813 C572.3125,135.7813 571.0156,134.6875 571.0156,132.9844 L571.0156,131.8906 C571.0156,130.1094 572.2656,128.7969 574,128.7969 C574.5781,128.7969 575.1875,128.9531 575.6563,129.2031 C576.1406,129.4844 576.3125,129.7031 576.4063,130.1094 C576.4688,130.5156 576.5,130.6406 576.6406,130.7656 C576.7813,130.9063 577.0156,131.0156 577.2344,131.0156 C577.5,131.0156 577.7656,130.875 577.9375,130.6563 C578.0469,130.5 578.0781,130.3125 578.0781,129.8906 L578.0781,128.4688 C578.0781,128.0313 578.0625,127.9063 577.9688,127.75 C577.8125,127.4844 577.5313,127.3438 577.2344,127.3438 C576.9375,127.3438 576.7344,127.4375 576.5156,127.75 L576.3438,127.6719 Z " fill="#000000"/><text fill="#000000" font-family="sans-serif" font-size="14" lengthAdjust="spacing" textLength="142" x="588" y="136.8467">Transformation rule</text><line style="stroke:#181818;stroke-width:0.5;" x1="560" x2="732" y1="148" y2="148"/><line style="stroke:#181818;stroke-width:0.5;" x1="560" x2="732" y1="156" y2="156"/></g><!--class Term--><g id="elem_Term"><rect codeLine="7" fill="#F1F1F1" height="56.2656" id="Term" rx="2.5" ry="2.5" style="stroke:#181818;stroke-width:0.5;" width="79" x="606.5" y="225"/><ellipse cx="621.5" cy="245.1328" fill="#ADD1B2" rx="11" ry="11" style="stroke:#181818;stroke-width:1.0;"/><path d="M623.8438,240.8047 C622.9063,240.3672 622.3125,240.2266 621.4375,240.2266 C618.8125,240.2266 616.8125,242.3047 616.8125,245.0234 L616.8125,246.1484 C616.8125,248.7266 618.9219,250.6172 621.8125,250.6172 C623.0313,250.6172 624.1875,250.3203 624.9375,249.7734 C625.5156,249.3672 625.8438,248.9141 625.8438,248.5234 C625.8438,248.0703 625.4531,247.6797 624.9844,247.6797 C624.7656,247.6797 624.5625,247.7578 624.375,247.9453 C623.9219,248.4297 623.9219,248.4297 623.7344,248.5234 C623.3125,248.7891 622.625,248.9141 621.8594,248.9141 C619.8125,248.9141 618.5156,247.8203 618.5156,246.1172 L618.5156,245.0234 C618.5156,243.2422 619.7656,241.9297 621.5,241.9297 C622.0781,241.9297 622.6875,242.0859 623.1563,242.3359 C623.6406,242.6172 623.8125,242.8359 623.9063,243.2422 C623.9688,243.6484 624,243.7734 624.1406,243.8984 C624.2813,244.0391 624.5156,244.1484 624.7344,244.1484 C625,244.1484 625.2656,244.0078 625.4375,243.7891 C625.5469,243.6328 625.5781,243.4453 625.5781,243.0234 L625.5781,241.6016 C625.5781,241.1641 625.5625,241.0391 625.4688,240.8828 C625.3125,240.6172 625.0313,240.4766 624.7344,240.4766 C624.4375,240.4766 624.2344,240.5703 624.0156,240.8828 L623.8438,240.8047 Z " fill="#000000"/><text fill="#000000" font-family="sans-serif" font-size="12" font-style="italic" lengthAdjust="spacing" textLength="51" x="633.5" y="241.1387">«model»</text><text fill="#000000" font-family="sans-serif" font-size="14" lengthAdjust="spacing" textLength="38" x="640" y="256.9639">Term</text><line style="stroke:#181818;stroke-width:0.5;" x1="607.5" x2="684.5" y1="265.2656" y2="265.2656"/><line style="stroke:#181818;stroke-width:0.5;" x1="607.5" x2="684.5" y1="273.2656" y2="273.2656"/></g><!--class Function--><g id="elem_Function"><rect codeLine="8" fill="#F1F1F1" height="48" id="Function" rx="2.5" ry="2.5" style="stroke:#181818;stroke-width:0.5;" width="94" x="444" y="346"/><ellipse cx="459" cy="362" fill="#ADD1B2" rx="11" ry="11" style="stroke:#181818;stroke-width:1.0;"/><path d="M461.3438,357.6719 C460.4063,357.2344 459.8125,357.0938 458.9375,357.0938 C456.3125,357.0938 454.3125,359.1719 454.3125,361.8906 L454.3125,363.0156 C454.3125,365.5938 456.4219,367.4844 459.3125,367.4844 C460.5313,367.4844 461.6875,367.1875 462.4375,366.6406 C463.0156,366.2344 463.3438,365.7813 463.3438,365.3906 C463.3438,364.9375 462.9531,364.5469 462.4844,364.5469 C462.2656,364.5469 462.0625,364.625 461.875,364.8125 C461.4219,365.2969 461.4219,365.2969 461.2344,365.3906 C460.8125,365.6563 460.125,365.7813 459.3594,365.7813 C457.3125,365.7813 456.0156,364.6875 456.0156,362.9844 L456.0156,361.8906 C456.0156,360.1094 457.2656,358.7969 459,358.7969 C459.5781,358.7969 460.1875,358.9531 460.6563,359.2031 C461.1406,359.4844 461.3125,359.7031 461.4063,360.1094 C461.4688,360.5156 461.5,360.6406 461.6406,360.7656 C461.7813,360.9063 462.0156,361.0156 462.2344,361.0156 C462.5,361.0156 462.7656,360.875 462.9375,360.6563 C463.0469,360.5 463.0781,360.3125 463.0781,359.8906 L463.0781,358.4688 C463.0781,358.0313 463.0625,357.9063 462.9688,357.75 C462.8125,357.4844 462.5313,357.3438 462.2344,357.3438 C461.9375,357.3438 461.7344,357.4375 461.5156,357.75 L461.3438,357.6719 Z " fill="#000000"/><text fill="#000000" font-family="sans-serif" font-size="14" lengthAdjust="spacing" textLength="62" x="473" y="366.8467">Function</text><line style="stroke:#181818;stroke-width:0.5;" x1="445" x2="537" y1="378" y2="378"/><line style="stroke:#181818;stroke-width:0.5;" x1="445" x2="537" y1="386" y2="386"/></g><!--class Representation--><g id="elem_Representation"><rect codeLine="10" fill="#F1F1F1" height="56.2656" id="Representation" rx="2.5" ry="2.5" style="stroke:#181818;stroke-width:0.5;" width="145" x="573.5" y="342"/><ellipse cx="588.5" cy="362.1328" fill="#ADD1B2" rx="11" ry="11" style="stroke:#181818;stroke-width:1.0;"/><path d="M590.8438,357.8047 C589.9063,357.3672 589.3125,357.2266 588.4375,357.2266 C585.8125,357.2266 583.8125,359.3047 583.8125,362.0234 L583.8125,363.1484 C583.8125,365.7266 585.9219,367.6172 588.8125,367.6172 C590.0313,367.6172 591.1875,367.3203 591.9375,366.7734 C592.5156,366.3672 592.8438,365.9141 592.8438,365.5234 C592.8438,365.0703 592.4531,364.6797 591.9844,364.6797 C591.7656,364.6797 591.5625,364.7578 591.375,364.9453 C590.9219,365.4297 590.9219,365.4297 590.7344,365.5234 C590.3125,365.7891 589.625,365.9141 588.8594,365.9141 C586.8125,365.9141 585.5156,364.8203 585.5156,363.1172 L585.5156,362.0234 C585.5156,360.2422 586.7656,358.9297 588.5,358.9297 C589.0781,358.9297 589.6875,359.0859 590.1563,359.3359 C590.6406,359.6172 590.8125,359.8359 590.9063,360.2422 C590.9688,360.6484 591,360.7734 591.1406,360.8984 C591.2813,361.0391 591.5156,361.1484 591.7344,361.1484 C592,361.1484 592.2656,361.0078 592.4375,360.7891 C592.5469,360.6328 592.5781,360.4453 592.5781,360.0234 L592.5781,358.6016 C592.5781,358.1641 592.5625,358.0391 592.4688,357.8828 C592.3125,357.6172 592.0313,357.4766 591.7344,357.4766 C591.4375,357.4766 591.2344,357.5703 591.0156,357.8828 L590.8438,357.8047 Z " fill="#000000"/><text fill="#000000" font-family="sans-serif" font-size="12" font-style="italic" lengthAdjust="spacing" textLength="41" x="638.5" y="358.1387">«view»</text><text fill="#000000" font-family="sans-serif" font-size="14" lengthAdjust="spacing" textLength="113" x="602.5" y="373.9639">Representation</text><line style="stroke:#181818;stroke-width:0.5;" x1="574.5" x2="717.5" y1="382.2656" y2="382.2656"/><line style="stroke:#181818;stroke-width:0.5;" x1="574.5" x2="717.5" y1="390.2656" y2="390.2656"/></g><!--class MeasurementUnit--><g id="elem_MeasurementUnit"><rect codeLine="11" fill="#F1F1F1" height="48" id="MeasurementUnit" rx="2.5" ry="2.5" style="stroke:#181818;stroke-width:0.5;" width="163" x="753.5" y="346"/><ellipse cx="768.5" cy="362" fill="#ADD1B2" rx="11" ry="11" style="stroke:#181818;stroke-width:1.0;"/><path d="M770.8438,357.6719 C769.9063,357.2344 769.3125,357.0938 768.4375,357.0938 C765.8125,357.0938 763.8125,359.1719 763.8125,361.8906 L763.8125,363.0156 C763.8125,365.5938 765.9219,367.4844 768.8125,367.4844 C770.0313,367.4844 771.1875,367.1875 771.9375,366.6406 C772.5156,366.2344 772.8438,365.7813 772.8438,365.3906 C772.8438,364.9375 772.4531,364.5469 771.9844,364.5469 C771.7656,364.5469 771.5625,364.625 771.375,364.8125 C770.9219,365.2969 770.9219,365.2969 770.7344,365.3906 C770.3125,365.6563 769.625,365.7813 768.8594,365.7813 C766.8125,365.7813 765.5156,364.6875 765.5156,362.9844 L765.5156,361.8906 C765.5156,360.1094 766.7656,358.7969 768.5,358.7969 C769.0781,358.7969 769.6875,358.9531 770.1563,359.2031 C770.6406,359.4844 770.8125,359.7031 770.9063,360.1094 C770.9688,360.5156 771,360.6406 771.1406,360.7656 C771.2813,360.9063 771.5156,361.0156 771.7344,361.0156 C772,361.0156 772.2656,360.875 772.4375,360.6563 C772.5469,360.5 772.5781,360.3125 772.5781,359.8906 L772.5781,358.4688 C772.5781,358.0313 772.5625,357.9063 772.4688,357.75 C772.3125,357.4844 772.0313,357.3438 771.7344,357.3438 C771.4375,357.3438 771.2344,357.4375 771.0156,357.75 L770.8438,357.6719 Z " fill="#000000"/><text fill="#000000" font-family="sans-serif" font-size="14" lengthAdjust="spacing" textLength="131" x="782.5" y="366.8467">Measurement Unit</text><line style="stroke:#181818;stroke-width:0.5;" x1="754.5" x2="915.5" y1="378" y2="378"/><line style="stroke:#181818;stroke-width:0.5;" x1="754.5" x2="915.5" y1="386" y2="386"/></g><!--class Binary--><g id="elem_Binary"><rect codeLine="12" fill="#F1F1F1" height="48" id="Binary" rx="2.5" ry="2.5" style="stroke:#181818;stroke-width:0.5;" width="138" x="400" y="459"/><ellipse cx="415" cy="475" fill="#ADD1B2" rx="11" ry="11" style="stroke:#181818;stroke-width:1.0;"/><path d="M417.3438,470.6719 C416.4063,470.2344 415.8125,470.0938 414.9375,470.0938 C412.3125,470.0938 410.3125,472.1719 410.3125,474.8906 L410.3125,476.0156 C410.3125,478.5938 412.4219,480.4844 415.3125,480.4844 C416.5313,480.4844 417.6875,480.1875 418.4375,479.6406 C419.0156,479.2344 419.3438,478.7813 419.3438,478.3906 C419.3438,477.9375 418.9531,477.5469 418.4844,477.5469 C418.2656,477.5469 418.0625,477.625 417.875,477.8125 C417.4219,478.2969 417.4219,478.2969 417.2344,478.3906 C416.8125,478.6563 416.125,478.7813 415.3594,478.7813 C413.3125,478.7813 412.0156,477.6875 412.0156,475.9844 L412.0156,474.8906 C412.0156,473.1094 413.2656,471.7969 415,471.7969 C415.5781,471.7969 416.1875,471.9531 416.6563,472.2031 C417.1406,472.4844 417.3125,472.7031 417.4063,473.1094 C417.4688,473.5156 417.5,473.6406 417.6406,473.7656 C417.7813,473.9063 418.0156,474.0156 418.2344,474.0156 C418.5,474.0156 418.7656,473.875 418.9375,473.6563 C419.0469,473.5 419.0781,473.3125 419.0781,472.8906 L419.0781,471.4688 C419.0781,471.0313 419.0625,470.9063 418.9688,470.75 C418.8125,470.4844 418.5313,470.3438 418.2344,470.3438 C417.9375,470.3438 417.7344,470.4375 417.5156,470.75 L417.3438,470.6719 Z " fill="#000000"/><text fill="#000000" font-family="sans-serif" font-size="14" lengthAdjust="spacing" textLength="106" x="429" y="479.8467">Binary Number</text><line style="stroke:#181818;stroke-width:0.5;" x1="401" x2="537" y1="491" y2="491"/><line style="stroke:#181818;stroke-width:0.5;" x1="401" x2="537" y1="499" y2="499"/></g><!--class Roman--><g id="elem_Roman"><rect codeLine="13" fill="#F1F1F1" height="48" id="Roman" rx="2.5" ry="2.5" style="stroke:#181818;stroke-width:0.5;" width="145" x="573.5" y="459"/><ellipse cx="588.5" cy="475" fill="#ADD1B2" rx="11" ry="11" style="stroke:#181818;stroke-width:1.0;"/><path d="M590.8438,470.6719 C589.9063,470.2344 589.3125,470.0938 588.4375,470.0938 C585.8125,470.0938 583.8125,472.1719 583.8125,474.8906 L583.8125,476.0156 C583.8125,478.5938 585.9219,480.4844 588.8125,480.4844 C590.0313,480.4844 591.1875,480.1875 591.9375,479.6406 C592.5156,479.2344 592.8438,478.7813 592.8438,478.3906 C592.8438,477.9375 592.4531,477.5469 591.9844,477.5469 C591.7656,477.5469 591.5625,477.625 591.375,477.8125 C590.9219,478.2969 590.9219,478.2969 590.7344,478.3906 C590.3125,478.6563 589.625,478.7813 588.8594,478.7813 C586.8125,478.7813 585.5156,477.6875 585.5156,475.9844 L585.5156,474.8906 C585.5156,473.1094 586.7656,471.7969 588.5,471.7969 C589.0781,471.7969 589.6875,471.9531 590.1563,472.2031 C590.6406,472.4844 590.8125,472.7031 590.9063,473.1094 C590.9688,473.5156 591,473.6406 591.1406,473.7656 C591.2813,473.9063 591.5156,474.0156 591.7344,474.0156 C592,474.0156 592.2656,473.875 592.4375,473.6563 C592.5469,473.5 592.5781,473.3125 592.5781,472.8906 L592.5781,471.4688 C592.5781,471.0313 592.5625,470.9063 592.4688,470.75 C592.3125,470.4844 592.0313,470.3438 591.7344,470.3438 C591.4375,470.3438 591.2344,470.4375 591.0156,470.75 L590.8438,470.6719 Z " fill="#000000"/><text fill="#000000" font-family="sans-serif" font-size="14" lengthAdjust="spacing" textLength="113" x="602.5" y="479.8467">Roman Numeral</text><line style="stroke:#181818;stroke-width:0.5;" x1="574.5" x2="717.5" y1="491" y2="491"/><line style="stroke:#181818;stroke-width:0.5;" x1="574.5" x2="717.5" y1="499" y2="499"/></g><!--class Arabic--><g id="elem_Arabic"><rect codeLine="14" fill="#F1F1F1" height="48" id="Arabic" rx="2.5" ry="2.5" style="stroke:#181818;stroke-width:0.5;" width="141" x="629.5" y="584"/><ellipse cx="644.5" cy="600" fill="#ADD1B2" rx="11" ry="11" style="stroke:#181818;stroke-width:1.0;"/><path d="M646.8438,595.6719 C645.9063,595.2344 645.3125,595.0938 644.4375,595.0938 C641.8125,595.0938 639.8125,597.1719 639.8125,599.8906 L639.8125,601.0156 C639.8125,603.5938 641.9219,605.4844 644.8125,605.4844 C646.0313,605.4844 647.1875,605.1875 647.9375,604.6406 C648.5156,604.2344 648.8438,603.7813 648.8438,603.3906 C648.8438,602.9375 648.4531,602.5469 647.9844,602.5469 C647.7656,602.5469 647.5625,602.625 647.375,602.8125 C646.9219,603.2969 646.9219,603.2969 646.7344,603.3906 C646.3125,603.6563 645.625,603.7813 644.8594,603.7813 C642.8125,603.7813 641.5156,602.6875 641.5156,600.9844 L641.5156,599.8906 C641.5156,598.1094 642.7656,596.7969 644.5,596.7969 C645.0781,596.7969 645.6875,596.9531 646.1563,597.2031 C646.6406,597.4844 646.8125,597.7031 646.9063,598.1094 C646.9688,598.5156 647,598.6406 647.1406,598.7656 C647.2813,598.9063 647.5156,599.0156 647.7344,599.0156 C648,599.0156 648.2656,598.875 648.4375,598.6563 C648.5469,598.5 648.5781,598.3125 648.5781,597.8906 L648.5781,596.4688 C648.5781,596.0313 648.5625,595.9063 648.4688,595.75 C648.3125,595.4844 648.0313,595.3438 647.7344,595.3438 C647.4375,595.3438 647.2344,595.4375 647.0156,595.75 L646.8438,595.6719 Z " fill="#000000"/><text fill="#000000" font-family="sans-serif" font-size="14" lengthAdjust="spacing" textLength="109" x="658.5" y="604.8467">Arabic Numeral</text><line style="stroke:#181818;stroke-width:0.5;" x1="630.5" x2="769.5" y1="616" y2="616"/><line style="stroke:#181818;stroke-width:0.5;" x1="630.5" x2="769.5" y1="624" y2="624"/></g><!--reverse link Type to Class--><g id="link_Type_Class"><path codeLine="2" d="M308.308,46.814 C253.572,62.369 166.502,88.371 93,116 C87.1787,118.188 81.0733,120.692 75.1762,123.224 " fill="none" id="Type-backto-Class" style="stroke:#181818;stroke-width:1.0;"/><polygon fill="none" points="306.459,40.062,327.607,41.382,310.252,53.539,306.459,40.062" style="stroke:#181818;stroke-width:1.0;"/></g><!--reverse link Type to AbstractDataType--><g id="link_Type_AbstractDataType"><path codeLine="3" d="M310.626,64.527 C284.43,81.112 253.189,100.892 229.488,115.898 " fill="none" id="Type-backto-AbstractDataType" style="stroke:#181818;stroke-width:1.0;"/><polygon fill="none" points="307.158,58.437,327.8,53.653,314.647,70.266,307.158,58.437" style="stroke:#181818;stroke-width:1.0;"/></g><!--reverse link Type to DataType--><g id="link_Type_DataType"><path codeLine="4" d="M362,75.578 C362,89.362 362,104.057 362,115.828 " fill="none" id="Type-backto-DataType" style="stroke:#181818;stroke-width:1.0;"/><polygon fill="none" points="355,75.217,362,55.217,369,75.217,355,75.217" style="stroke:#181818;stroke-width:1.0;"/></g><!--reverse link Type to Entity--><g id="link_Type_Entity"><path codeLine="5" d="M404.07,68.302 C422.286,84.021 443.07,101.955 459.146,115.828 " fill="none" id="Type-backto-Entity" style="stroke:#181818;stroke-width:1.0;"/><polygon fill="none" points="399.475,73.583,388.906,55.217,408.621,62.984,399.475,73.583" style="stroke:#181818;stroke-width:1.0;"/></g><!--reverse link Term to Function--><g id="link_Term_Function"><path codeLine="9" d="M592.866,293.422 C569.336,310.88 542.47,330.813 522.238,345.823 " fill="none" id="Term-backto-Function" style="stroke:#181818;stroke-width:1.0;"/><polygon fill="none" points="589.034,287.549,609.267,281.253,597.376,298.792,589.034,287.549" style="stroke:#181818;stroke-width:1.0;"/></g><!--reverse link Type to Property--><g id="link_Type_Property"><path codeLine="15" d="M408.453,49.502 C456.513,67.609 531.81,95.978 584.72,115.912 " fill="none" id="Type-backto-Property" style="stroke:#181818;stroke-width:1.0;"/><polygon fill="#181818" points="396.257,44.907,400.4617,50.7653,407.4867,49.1372,403.2819,43.2789,396.257,44.907" style="stroke:#181818;stroke-width:1.0;"/></g><!--reverse link Property to Term--><g id="link_Property_Term"><path codeLine="16" d="M646,177.635 C646,193.036 646,210.638 646,224.85 " fill="none" id="Property-backto-Term" style="stroke:#181818;stroke-width:1.0;"/><polygon fill="#181818" points="646,164.269,642,170.269,646,176.269,650,170.269,646,164.269" style="stroke:#181818;stroke-width:1.0;"/></g><!--link Term to MeasurementUnit--><g id="link_Term_MeasurementUnit"><path codeLine="17" d="M685.621,278.108 C716.881,297.129 760.403,323.61 792.408,343.084 " fill="none" id="Term-to-MeasurementUnit" style="stroke:#181818;stroke-width:1.0;"/><polygon fill="#181818" points="797.043,345.905,791.435,337.8087,792.772,343.3053,787.2754,344.6423,797.043,345.905" style="stroke:#181818;stroke-width:1.0;"/></g><!--link Term to Representation--><g id="link_Term_Representation"><path codeLine="18" d="M646,281.253 C646,297.867 646,319.189 646,336.655 " fill="none" id="Term-to-Representation" style="stroke:#181818;stroke-width:1.0;"/><polygon fill="#181818" points="646,341.942,650,332.942,646,336.942,642,332.942,646,341.942" style="stroke:#181818;stroke-width:1.0;"/></g><!--reverse link Representation to Binary--><g id="link_Representation_Binary"><path codeLine="19" d="M585.54,408.916 C559.081,425.509 528.892,444.44 505.871,458.877 " fill="none" id="Representation-backto-Binary" style="stroke:#181818;stroke-width:1.0;"/><polygon fill="none" points="582.038,402.849,602.701,398.154,589.476,414.71,582.038,402.849" style="stroke:#181818;stroke-width:1.0;"/></g><!--reverse link Representation to Roman--><g id="link_Representation_Roman"><path codeLine="20" d="M646,418.404 C646,432.418 646,447.134 646,458.877 " fill="none" id="Representation-backto-Roman" style="stroke:#181818;stroke-width:1.0;"/><polygon fill="none" points="639,418.154,646,398.154,653,418.154,639,418.154" style="stroke:#181818;stroke-width:1.0;"/></g><!--reverse link Representation to Arabic--><g id="link_Representation_Arabic"><path codeLine="21" d="M701.366,411.664 C715.322,425.026 728.468,441.102 736,459 C752.385,497.936 745.9,513.774 733,554 C729.624,564.5279 723.699,575.0803 717.793,583.9663 " fill="none" id="Representation-backto-Arabic" style="stroke:#181818;stroke-width:1.0;"/><polygon fill="none" points="696.531,416.735,686.131,398.273,705.774,406.22,696.531,416.735" style="stroke:#181818;stroke-width:1.0;"/></g><!--link Arabic to Roman--><g id="link_Arabic_Roman"><path codeLine="22" d="M689.889,583.9684 C680.927,563.5561 667.818,533.6964 658.261,511.928 " fill="none" id="Arabic-to-Roman" style="stroke:#181818;stroke-width:1.0;stroke-dasharray:7.0,7.0;"/><polygon fill="#181818" points="656.157,507.135,656.1133,516.9838,658.1674,511.713,663.4381,513.7671,656.157,507.135" style="stroke:#181818;stroke-width:1.0;"/><text fill="#000000" font-family="sans-serif" font-size="13" lengthAdjust="spacing" textLength="47" x="677" y="550.0669">Encode</text></g><!--link Roman to Arabic--><g id="link_Roman_Arabic"><path codeLine="23" d="M621.752,507.29 C610.461,521.04 601.251,538.6952 610,554 C616.276,564.9792 625.812,573.9098 636.366,581.0932 " fill="none" id="Roman-to-Arabic" style="stroke:#181818;stroke-width:1.0;stroke-dasharray:7.0,7.0;"/><polygon fill="#181818" points="640.618,583.8622,635.2592,575.5988,636.4282,581.1336,630.8934,582.3025,640.618,583.8622" style="stroke:#181818;stroke-width:1.0;"/><text fill="#000000" font-family="sans-serif" font-size="13" lengthAdjust="spacing" textLength="49" x="611" y="550.0669">Decode</text></g><!--SRC=[RP7HQeH034NV_OhWOy7zW4M4RRTzQobB-m5nciA0CoEPiKNentTYrBfRNoJUSqbkCgR36A5y6tig0ID8KSW7wf-gWWV1c_zJ6nEZIMTCU6FTaHvzicaip3o3qSVFm0wJ3Hvuw7JaAuUUUECZTfeb5r3NuC87TT0qi-5fy4Ow5Cfbq2gfuq8zKoIVT59kyMNf-wz3-KmO1oQNBV3kRPh6RKJH5k-zzSWZl0ok9PwCgYpy4XnwmSJOJNnI5dnYRAsvuYhfdUvo-lK0Ip6fifskM5NDlt0hkDwrk5rThZFdtKCQTO_C8UVuXqEZtcD-L9FVez2rHLVB4Suau1S0]--></g></svg>