<?xml version="1.0" standalone="no"?>
<!DOCTYPE svg PUBLIC "-//W3C//DTD SVG 20010904//EN"
 "http://www.w3.org/TR/2001/REC-SVG-20010904/DTD/svg10.dtd">
<svg version="1.0" xmlns="http://www.w3.org/2000/svg"
 width="2300.000000pt" height="3138.000000pt" viewBox="0 0 2300.000000 3138.000000"
 preserveAspectRatio="xMidYMid meet">

<g transform="translate(0.000000,3138.000000) scale(0.100000,-0.100000)"
fill="#000000" stroke="none">
<path d="M1910 26961 l0 -3020 -65 -31 c-99 -47 -184 -132 -239 -239 -54 -105
-99 -236 -122 -358 -20 -105 -22 -321 -5 -438 25 -165 106 -418 179 -561 l20
-38 -55 -61 c-138 -152 -240 -357 -294 -594 -29 -124 -37 -420 -16 -556 20
-126 59 -259 82 -285 13 -14 31 -20 61 -20 58 0 88 28 114 110 53 160 168 280
352 364 127 59 224 79 384 80 l140 1 85 -42 c209 -104 365 -294 420 -514 30
-115 23 -317 -16 -464 -73 -281 -175 -524 -605 -1440 -306 -652 -452 -994
-604 -1418 -222 -615 -344 -1120 -402 -1672 -97 -922 122 -2595 481 -3664 l55
-165 -75 -74 c-102 -101 -166 -188 -225 -307 -77 -155 -102 -241 -107 -370 -6
-132 9 -203 69 -317 51 -98 115 -161 161 -156 28 3 39 13 83 81 133 203 300
353 499 449 l84 40 108 -57 c162 -86 246 -148 379 -280 222 -221 339 -449 408
-797 41 -203 49 -382 34 -771 -8 -203 -13 -672 -13 -1157 0 -842 6 -1008 50
-1440 131 -1273 536 -2076 1455 -2886 185 -163 535 -439 670 -528 609 -403
1490 -742 2258 -870 290 -49 413 -59 707 -60 154 -1 318 1 365 4 l85 5 6 -51
c18 -146 95 -227 375 -394 407 -243 863 -415 1364 -514 350 -70 605 -91 1000
-83 352 7 585 33 899 103 120 26 410 106 471 130 19 7 80 29 135 50 194 71
416 173 590 272 137 78 303 191 345 235 52 53 90 132 99 199 l6 53 80 -5 c182
-11 649 -3 790 14 698 86 1379 293 2035 621 349 174 537 295 850 546 475 380
754 654 1014 999 443 587 677 1242 771 2160 44 432 50 598 50 1435 0 474 -5
954 -13 1157 -15 396 -7 573 34 776 69 348 186 576 408 797 133 132 217 194
379 280 l108 57 84 -40 c199 -96 366 -246 499 -449 44 -68 55 -78 83 -81 26
-3 41 5 77 38 52 48 117 167 140 256 67 259 -67 611 -332 869 l-62 60 50 150
c362 1074 584 2754 486 3680 -58 551 -180 1058 -402 1672 -153 426 -299 767
-609 1428 -353 752 -425 915 -520 1177 -94 258 -128 440 -113 614 21 258 197
502 448 623 l75 36 140 -1 c159 -1 257 -21 383 -80 184 -84 299 -204 352 -364
26 -82 56 -110 114 -110 30 0 48 6 61 20 23 26 62 159 82 285 21 136 13 432
-16 556 -54 237 -156 442 -294 594 l-55 61 20 38 c73 143 154 397 179 561 15
102 15 319 0 410 -20 120 -60 245 -116 360 -45 94 -63 120 -119 173 -37 34
-92 73 -126 89 l-60 28 0 3023 0 3022 -9595 0 -9595 0 0 -3019z m18980 -416
l0 -3236 25 -24 c29 -30 45 -31 74 -7 19 15 25 45 51 236 17 121 32 222 35
224 9 10 98 -65 125 -106 66 -100 76 -199 28 -302 -50 -111 -122 -167 -318
-249 -512 -216 -946 -571 -1306 -1070 -411 -568 -656 -1231 -729 -1971 -14
-136 -16 -679 -21 -4405 -3 -2715 -8 -4319 -15 -4440 -83 -1542 -637 -2989
-1603 -4190 -213 -264 -573 -643 -826 -867 -760 -674 -1640 -1183 -2629 -1522
-427 -147 -857 -244 -1349 -307 -166 -21 -194 -31 -231 -84 -26 -39 -121 -343
-121 -389 1 -43 33 -111 63 -131 14 -9 41 -18 60 -22 44 -7 321 25 364 43 53
21 64 57 61 192 l-3 117 -40 0 c-40 0 -40 0 -60 -57 -12 -32 -27 -65 -36 -73
-20 -20 -167 -39 -186 -24 -18 16 -16 30 16 134 l28 90 39 7 c22 4 104 17 184
28 80 11 232 36 338 56 106 20 195 34 198 32 2 -3 -47 -110 -110 -238 -94
-192 -112 -237 -103 -250 7 -9 224 -265 482 -569 259 -303 483 -574 498 -601
39 -68 47 -152 18 -197 -20 -32 -114 -99 -202 -143 -88 -46 -191 -20 -277 68
-27 27 -189 223 -361 436 -172 212 -323 393 -336 402 -14 9 -33 12 -49 8 -31
-7 -66 -48 -66 -76 0 -11 106 -213 235 -449 130 -235 242 -447 250 -470 20
-56 18 -105 -4 -156 -25 -54 -51 -70 -183 -110 -167 -51 -237 -43 -315 36 -48
48 -51 54 -342 663 -117 242 -137 278 -163 289 -38 16 -94 -8 -104 -45 -4 -16
36 -186 110 -473 64 -247 116 -466 116 -487 0 -21 -7 -52 -15 -70 -26 -55 -63
-68 -220 -79 -136 -10 -144 -9 -187 12 -50 24 -90 75 -107 136 -6 21 -29 221
-52 444 -22 223 -46 417 -53 431 -23 51 -109 51 -133 0 -6 -14 -30 -207 -52
-430 -23 -223 -46 -423 -52 -444 -17 -62 -57 -113 -107 -137 -43 -21 -51 -22
-187 -12 -157 11 -194 24 -220 79 -8 18 -15 49 -15 70 0 21 52 240 116 487 74
287 114 457 110 473 -10 37 -66 61 -104 45 -26 -11 -46 -47 -163 -289 -289
-605 -295 -615 -342 -662 -81 -80 -148 -87 -315 -37 -132 40 -158 56 -183 110
-22 51 -24 100 -4 156 8 23 120 235 250 470 129 236 235 438 235 450 0 27 -39
69 -70 76 -18 4 -34 0 -51 -14 -14 -11 -163 -190 -331 -398 -168 -208 -329
-402 -357 -431 -88 -92 -190 -118 -280 -72 -67 33 -174 105 -196 130 -29 33
-27 139 4 199 13 25 238 297 500 605 262 309 481 568 488 576 10 13 -10 59
-103 249 -63 129 -112 236 -110 239 3 2 91 -12 197 -32 105 -20 257 -45 338
-56 80 -11 163 -24 185 -28 l39 -7 28 -90 c32 -104 34 -118 16 -134 -19 -15
-166 4 -186 24 -9 8 -24 41 -36 73 -20 57 -20 57 -60 57 l-40 0 -3 -117 c-3
-135 8 -171 61 -192 43 -18 320 -50 364 -43 19 4 46 13 60 22 30 20 62 88 63
131 0 46 -95 350 -121 389 -37 53 -65 63 -231 84 -492 63 -922 160 -1349 307
-990 339 -1869 848 -2629 1522 -253 224 -613 603 -826 867 -967 1201 -1520
2648 -1603 4190 -7 121 -12 1732 -16 4440 -4 3714 -6 4270 -20 4405 -73 741
-322 1413 -734 1980 -121 166 -216 277 -370 430 -286 285 -575 481 -931 631
-201 85 -267 136 -318 249 -48 103 -38 202 28 302 27 41 116 116 125 106 3 -2
18 -103 35 -224 26 -191 32 -221 51 -236 29 -24 45 -23 74 7 l25 24 0 3236 0
3235 9390 0 9390 0 0 -3235z m-19024 -3567 c38 -20 114 -55 169 -78 660 -273
1285 -933 1613 -1705 108 -253 194 -540 241 -800 69 -386 64 -220 68 -2663 l4
-2204 -88 92 c-178 188 -370 321 -695 482 -185 92 -212 99 -263 69 -171 -100
-782 -704 -773 -763 2 -16 11 -24 28 -26 19 -1 44 15 100 64 218 193 532 424
670 494 l61 31 125 -66 c391 -205 657 -444 769 -689 61 -134 60 -115 60 -886
0 -617 -2 -719 -18 -817 -61 -403 -206 -775 -430 -1108 -82 -123 -51 -141
-251 148 -97 140 -176 257 -176 259 0 3 97 85 216 183 243 202 259 221 252
314 -8 95 -108 301 -220 453 -73 99 -154 135 -247 108 -45 -13 -337 -233 -361
-272 -44 -72 -36 -131 31 -247 36 -62 37 -67 21 -83 -27 -27 -826 -648 -834
-648 -8 0 -93 350 -148 605 -122 570 -198 1063 -236 1530 -20 251 -15 710 11
924 98 832 330 1573 897 2859 409 929 497 1144 588 1442 85 278 105 386 105
585 0 121 -4 178 -18 235 -76 313 -302 580 -567 670 -199 68 -511 42 -735 -59
-89 -40 -168 -95 -247 -170 l-68 -63 1 88 c0 135 7 158 55 193 174 125 501
201 805 187 116 -5 138 -4 149 9 20 24 -2 61 -40 69 -230 45 -612 21 -827 -53
l-84 -29 7 31 c3 18 19 66 35 108 l29 75 93 18 c266 49 523 48 813 -5 85 -15
104 -10 104 30 0 27 -4 31 -52 45 -225 65 -404 90 -650 91 -115 0 -208 4 -208
8 0 11 32 57 87 125 49 61 53 86 24 162 -11 27 -15 50 -9 50 18 0 372 -122
498 -172 69 -28 169 -72 223 -99 53 -27 104 -49 112 -49 22 0 38 36 26 59 -26
48 -291 190 -711 381 -124 56 -226 103 -228 105 -6 6 -33 117 -29 121 2 2 51
-18 108 -45 57 -27 203 -90 324 -141 121 -50 258 -112 304 -136 95 -50 124
-53 129 -13 5 46 -83 103 -463 301 -258 134 -359 194 -418 250 -36 34 -37 38
-37 103 l0 67 54 -49 c29 -27 84 -65 122 -85z m19439 16 c-11 -59 -107 -123
-450 -302 -381 -198 -468 -255 -463 -301 5 -40 34 -37 129 13 46 24 183 86
304 136 121 51 267 114 324 141 57 27 106 47 108 45 4 -4 -23 -115 -29 -121
-2 -2 -104 -49 -228 -105 -420 -191 -685 -333 -711 -381 -12 -23 4 -59 26 -59
8 0 59 22 112 49 54 27 145 68 203 91 117 47 499 180 517 180 7 0 5 -17 -8
-50 -29 -76 -25 -101 24 -162 55 -68 87 -114 87 -125 0 -4 -93 -8 -208 -8
-246 -1 -425 -26 -649 -91 -49 -14 -53 -18 -53 -45 0 -40 19 -45 104 -30 290
53 547 54 813 5 l93 -18 29 -75 c16 -42 32 -90 35 -108 l7 -31 -84 29 c-215
74 -597 98 -827 53 -38 -8 -60 -45 -40 -69 11 -13 33 -14 149 -9 304 14 631
-62 805 -187 48 -35 55 -58 55 -193 l1 -88 -68 63 c-79 75 -158 130 -247 170
-224 101 -536 127 -735 59 -265 -90 -491 -357 -567 -670 -14 -57 -18 -114 -18
-235 0 -199 20 -307 105 -585 91 -294 187 -533 550 -1355 602 -1364 835 -2098
935 -2946 26 -214 31 -673 11 -924 -38 -467 -114 -960 -236 -1530 -55 -255
-140 -605 -148 -605 -8 0 -807 621 -834 648 -16 16 -15 21 21 83 67 116 75
175 31 247 -24 39 -316 259 -361 272 -93 27 -174 -9 -247 -108 -112 -152 -212
-358 -220 -453 -7 -93 9 -113 253 -314 118 -98 215 -180 215 -182 0 -3 -79
-120 -176 -260 -200 -289 -169 -271 -251 -148 -225 335 -368 703 -431 1109
-14 97 -17 202 -17 816 0 771 -1 752 60 886 112 245 378 484 769 689 l125 66
61 -31 c138 -70 452 -301 670 -494 56 -49 81 -65 100 -64 17 2 26 10 28 26 9
59 -602 663 -773 763 -51 30 -78 23 -263 -69 -325 -161 -517 -294 -695 -482
l-88 -92 4 2204 c4 2443 -1 2277 68 2663 169 940 716 1802 1454 2290 145 96
237 145 411 220 168 73 239 114 292 168 l37 38 3 -43 c2 -23 1 -57 -3 -74z
m-18133 -9392 c45 -70 138 -256 138 -276 0 -13 -1243 -1010 -1274 -1022 -9 -3
-18 13 -30 53 l-16 58 32 27 c18 15 252 197 520 405 268 208 487 381 487 386
1 4 -28 62 -64 128 -36 67 -64 126 -63 131 3 9 216 165 228 167 3 0 22 -25 42
-57z m16812 -23 c64 -44 116 -85 116 -89 0 -5 -29 -63 -65 -129 -36 -67 -65
-124 -64 -128 0 -5 219 -178 487 -386 268 -208 502 -390 520 -405 l32 -27 -16
-58 c-12 -40 -21 -56 -30 -53 -32 12 -1274 1009 -1274 1022 0 29 161 333 177
334 1 0 54 -36 117 -81z m-16005 -2513 c63 -750 187 -1345 417 -1995 534
-1509 1577 -2841 2924 -3733 524 -346 1081 -626 1678 -843 84 -31 101 -40 90
-50 -15 -15 -607 -457 -626 -469 -9 -5 -37 15 -86 62 -91 88 -140 106 -217 78
-61 -21 -336 -242 -359 -286 -24 -47 -26 -126 -5 -176 23 -55 152 -221 242
-311 97 -97 148 -127 218 -127 57 0 94 17 177 81 l57 43 24 -42 c49 -87 308
-590 305 -593 -11 -12 -385 -15 -558 -6 -739 42 -1433 231 -2125 579 -155 78
-177 92 -246 161 -142 143 -230 371 -271 701 -24 201 -11 687 21 738 4 6 202
92 441 190 395 162 435 181 435 202 0 12 -7 27 -15 33 -11 6 -155 -26 -500
-113 -267 -67 -492 -126 -501 -130 -70 -38 -114 -295 -113 -660 1 -268 23
-467 75 -654 10 -38 17 -71 16 -72 -5 -5 -318 235 -432 332 -948 797 -1375
1624 -1520 2939 -51 465 -68 1278 -44 2135 17 627 16 839 -5 994 -87 621 -409
1063 -983 1351 -212 106 -412 165 -565 165 -38 0 -68 4 -68 8 0 11 65 72 124
116 56 41 75 43 196 20 289 -54 603 -236 872 -505 71 -71 132 -129 135 -129
12 0 43 33 43 46 0 20 -122 163 -227 265 -205 201 -433 357 -628 430 l-60 23
35 8 c19 4 84 12 143 17 l108 9 67 -37 c254 -140 525 -406 682 -670 49 -82 62
-95 89 -86 36 11 34 40 -10 126 -91 182 -222 366 -371 524 -50 52 -88 95 -85
95 3 0 60 -16 128 -36 l122 -35 73 72 c41 40 76 71 79 68 3 -3 16 -60 29 -126
48 -235 141 -567 168 -600 15 -19 58 -16 65 4 4 9 -8 89 -25 177 -63 318 -104
691 -79 725 6 9 39 50 72 91 l60 73 7 -201 c9 -282 41 -572 69 -624 11 -20 44
-24 54 -7 4 5 8 184 10 397 3 528 18 645 99 814 l51 108 6 -778 c4 -427 12
-835 18 -906z m15176 1419 c29 -143 38 -289 41 -662 1 -210 5 -386 9 -392 10
-17 43 -13 54 7 28 52 60 342 69 624 l7 201 60 -73 c33 -41 65 -81 72 -90 24
-34 -16 -408 -79 -726 -17 -88 -29 -168 -25 -177 7 -20 50 -23 64 -4 32 40
114 336 169 601 13 66 26 122 29 125 3 3 38 -28 79 -68 l73 -72 122 35 c68 20
125 36 128 36 3 0 -35 -43 -85 -95 -149 -158 -280 -342 -371 -524 -44 -86 -46
-115 -10 -126 27 -9 40 4 89 86 157 264 428 530 682 670 l67 37 108 -9 c59 -5
124 -13 143 -17 l35 -8 -58 -22 c-195 -74 -415 -223 -616 -417 -112 -108 -241
-257 -241 -278 0 -12 30 -47 41 -47 4 0 66 58 137 129 269 269 583 451 872
505 121 23 140 21 196 -20 59 -44 124 -105 124 -116 0 -4 -30 -8 -67 -8 -154
0 -354 -59 -566 -165 -573 -288 -890 -721 -982 -1345 -22 -150 -24 -375 -6
-1010 24 -854 7 -1660 -44 -2125 -157 -1424 -647 -2287 -1790 -3153 -87 -67
-160 -120 -162 -119 -1 2 9 45 22 96 72 277 93 685 50 997 -28 200 -50 270
-94 294 -10 5 -235 63 -501 130 -342 86 -489 119 -500 112 -8 -5 -15 -20 -15
-32 0 -21 40 -40 435 -202 239 -98 437 -184 441 -190 32 -51 45 -537 21 -738
-41 -330 -129 -558 -271 -701 -69 -69 -91 -83 -246 -161 -692 -348 -1386 -537
-2125 -579 -176 -10 -546 -6 -558 6 -3 3 251 498 305 593 l24 42 57 -43 c83
-64 120 -81 177 -81 71 0 122 31 220 129 91 92 217 254 240 309 21 50 19 129
-4 175 -23 44 -300 266 -359 287 -78 28 -127 10 -218 -78 -49 -47 -77 -67 -86
-62 -19 12 -611 454 -626 469 -11 10 6 20 90 50 1680 613 3033 1711 3945 3200
529 865 881 1850 1017 2850 63 460 76 725 76 1558 l0 652 51 -100 c29 -59 56
-129 64 -170z m-16033 -67 l187 -271 -67 -74 c-41 -45 -73 -72 -82 -70 -8 3
-68 21 -133 41 -211 65 -324 81 -557 80 -120 0 -224 -5 -250 -11 -24 -7 -46
-10 -48 -8 -4 3 750 585 758 585 3 -1 89 -123 192 -272z m17334 -22 c206 -159
373 -290 370 -293 -2 -2 -30 1 -63 7 -226 42 -552 11 -842 -82 l-94 -30 -67
74 c-37 40 -65 78 -61 84 31 55 368 533 374 531 4 -1 177 -132 383 -291z
m-18314 -1041 c71 -18 78 -28 27 -39 -51 -10 -194 -81 -273 -136 -41 -29 -111
-90 -156 -136 l-81 -84 -16 37 c-35 82 -12 237 44 297 74 80 277 107 455 61z
m19026 10 c113 -27 156 -61 187 -148 24 -65 24 -168 2 -220 l-16 -37 -81 84
c-45 46 -115 107 -156 136 -79 55 -222 126 -273 136 -64 13 -40 25 114 57 46
10 164 6 223 -8z m-11777 -7001 c30 -9 57 -18 62 -21 7 -4 -1187 -883 -1201
-883 -18 0 -253 260 -251 278 0 6 134 120 196 166 l25 19 97 -97 c53 -53 100
-96 104 -96 4 0 206 146 449 325 244 179 448 325 453 325 6 0 36 -7 66 -16z
m4741 -312 c241 -177 441 -322 445 -322 4 0 51 43 104 96 l97 97 25 -19 c62
-46 196 -160 196 -166 2 -18 -233 -278 -251 -278 -12 0 -1198 871 -1198 879 0
11 100 41 125 37 11 -1 217 -147 457 -324z m-4327 -39 c66 -120 121 -223 123
-230 3 -10 -888 -984 -906 -990 -8 -3 -372 649 -371 663 0 11 1009 772 1024
773 6 1 64 -97 130 -216z m4038 -168 c278 -209 506 -384 506 -389 1 -15 -363
-666 -371 -663 -18 6 -909 980 -906 990 9 35 245 447 254 445 7 -2 239 -174
517 -383z"/>
<path d="M2520 26312 l0 -3088 72 -35 c84 -40 204 -116 269 -170 26 -22 50
-39 53 -39 3 0 6 1352 6 3005 l0 3005 8580 0 8580 0 2 -3015 3 -3014 75 60
c94 75 192 140 264 176 l56 27 0 3088 0 3088 -8980 0 -8980 0 0 -3088z"/>
<path d="M11655 28554 c-22 -42 -41 -80 -43 -85 -2 -5 15 -9 37 -9 38 0 43 3
94 73 77 105 76 97 10 97 l-58 0 -40 -76z"/>
<path d="M5092 28390 c-142 -20 -219 -187 -209 -450 7 -188 44 -286 133 -349
29 -21 50 -26 108 -29 67 -4 74 -2 120 30 101 68 141 195 133 418 -5 152 -20
213 -70 286 -51 76 -122 107 -215 94z m86 -155 c11 -14 26 -49 33 -78 17 -67
17 -284 0 -361 -31 -140 -132 -139 -162 2 -16 75 -16 282 0 356 21 97 85 137
129 81z"/>
<path d="M10865 28394 c-6 -1 -27 -5 -48 -9 -48 -8 -111 -63 -141 -124 -39
-77 -51 -147 -51 -291 0 -112 4 -147 23 -207 41 -131 118 -203 220 -203 98 0
152 41 192 146 11 31 19 57 18 59 -2 1 -29 11 -60 23 l-57 21 -10 -36 c-6 -20
-20 -46 -32 -59 -52 -55 -109 -8 -129 104 -15 82 -9 322 9 367 37 93 109 99
146 13 l14 -36 56 20 c30 12 55 27 55 35 0 44 -58 130 -105 156 -22 11 -85 25
-100 21z"/>
<path d="M11640 28390 c-120 -21 -193 -138 -208 -330 -24 -307 68 -499 241
-500 114 0 180 55 228 190 20 57 23 84 23 225 0 140 -3 168 -22 223 -53 148
-141 213 -262 192z m65 -136 c50 -20 80 -198 64 -377 -14 -148 -56 -211 -118
-178 -45 24 -71 132 -71 287 0 78 4 107 25 200 12 54 57 84 100 68z"/>
<path d="M17413 28389 c-137 -24 -211 -151 -172 -294 16 -58 56 -107 142 -175
79 -62 107 -100 107 -145 0 -35 -50 -85 -85 -85 -30 0 -92 24 -116 46 -15 14
-20 10 -49 -41 -27 -46 -30 -58 -19 -71 45 -55 200 -82 283 -50 54 21 111 81
125 133 33 118 0 219 -100 304 -128 109 -139 123 -139 167 0 76 64 103 145 62
21 -11 40 -19 41 -17 1 1 14 26 29 56 21 43 24 56 13 63 -62 42 -136 59 -205
47z"/>
<path d="M4370 27975 l0 -405 75 0 75 0 0 150 0 150 58 0 c71 0 150 35 182 80
74 104 65 285 -19 369 -49 49 -96 61 -245 61 l-126 0 0 -405z m256 242 c28
-32 38 -87 24 -135 -13 -50 -38 -72 -89 -79 l-41 -6 0 128 0 128 42 -6 c28 -4
50 -14 64 -30z"/>
<path d="M5490 27976 l0 -406 75 0 75 0 0 150 0 150 25 0 c26 0 20 14 95 -235
l18 -60 81 -3 c44 -2 81 -1 81 0 0 2 -25 77 -55 167 l-54 164 28 26 c54 50 66
86 66 196 0 92 -2 104 -28 148 -15 26 -47 60 -69 75 -40 26 -48 27 -190 30
l-148 3 0 -405z m250 246 c34 -35 47 -90 31 -141 -14 -49 -40 -71 -90 -78
l-41 -6 0 127 0 126 36 0 c26 0 43 -8 64 -28z"/>
<path d="M6250 27975 l0 -405 175 0 175 0 0 65 0 65 -100 0 -100 0 0 340 0
340 -75 0 -75 0 0 -405z"/>
<path d="M6716 27998 c-44 -211 -81 -393 -84 -405 -4 -22 -2 -23 72 -23 85 0
78 -7 94 95 l7 50 74 3 c50 2 77 -1 82 -9 4 -7 10 -41 14 -75 l7 -64 80 0 80
0 -8 33 c-3 17 -41 199 -84 402 l-77 370 -89 3 -89 3 -79 -383z m199 32 c14
-85 25 -160 25 -167 0 -9 -17 -13 -55 -13 -66 0 -65 -12 -30 190 14 80 25 150
26 155 2 22 10 -16 34 -165z"/>
<path d="M7400 27976 l0 -406 80 0 80 0 0 150 0 150 24 0 c22 0 27 -11 67
-150 l44 -150 82 0 81 0 -55 166 -55 166 36 37 c63 64 84 187 50 288 -20 58
-43 88 -92 122 -35 25 -45 26 -189 29 l-153 4 0 -406z m263 246 c39 -40 39
-155 0 -194 -11 -11 -39 -22 -62 -25 l-41 -6 0 128 0 128 41 -6 c23 -3 51 -14
62 -25z"/>
<path d="M7970 27975 l0 -405 175 0 175 0 0 65 0 65 -100 0 -100 0 0 110 0
110 95 0 95 0 0 65 0 65 -95 0 -95 0 0 100 0 100 100 0 100 0 0 65 0 65 -175
0 -175 0 0 -405z"/>
<path d="M8530 28371 c0 -4 -36 -181 -80 -391 -44 -210 -80 -389 -80 -396 0
-11 18 -14 74 -14 83 0 78 -5 92 98 l7 52 78 0 78 0 12 -75 12 -75 79 0 c71 0
79 2 74 18 -3 9 -39 181 -81 382 -42 200 -78 374 -81 387 -6 22 -11 23 -95 23
-49 0 -89 -4 -89 -9z m149 -508 c1 -9 -16 -13 -52 -13 -30 0 -56 2 -59 5 -3 3
5 67 18 143 39 230 34 227 65 42 15 -91 28 -171 28 -177z"/>
<path d="M8950 27975 l0 -405 175 0 175 0 0 65 0 65 -100 0 -100 0 0 340 0
340 -75 0 -75 0 0 -405z"/>
<path d="M9390 27975 l0 -405 75 0 75 0 0 405 0 405 -75 0 -75 0 0 -405z"/>
<path d="M9640 28315 l0 -64 104 -3 104 -3 -104 -275 c-89 -239 -103 -283
-104 -337 l0 -63 195 0 195 0 0 65 0 65 -103 0 c-57 0 -106 2 -109 5 -3 3 41
129 98 280 90 238 104 282 104 335 l0 60 -190 0 -190 0 0 -65z"/>
<path d="M10156 27997 c-44 -210 -81 -392 -84 -404 -4 -22 -2 -23 72 -23 85 0
78 -7 94 95 l7 50 77 3 c86 3 80 9 94 -95 l7 -53 79 0 c79 0 80 0 74 23 -3 13
-39 187 -81 387 -42 201 -78 373 -81 383 -5 14 -18 17 -92 17 l-87 0 -79 -383z
m198 36 c14 -89 26 -167 26 -173 0 -6 -24 -10 -55 -10 -66 0 -65 -12 -30 190
14 80 25 149 25 154 0 33 11 -20 34 -161z"/>
<path d="M11170 27975 l0 -405 75 0 75 0 0 405 0 405 -75 0 -75 0 0 -405z"/>
<path d="M12030 27975 l0 -405 80 0 80 0 2 225 3 224 79 -224 80 -225 73 0 73
0 0 405 0 405 -80 0 -80 0 -1 -217 c0 -120 -4 -209 -8 -198 -4 11 -38 109 -75
218 l-68 197 -79 0 -79 0 0 -405z"/>
<path d="M12820 27975 l0 -405 75 0 75 0 0 150 0 150 63 0 c111 1 191 59 222
162 40 137 -11 280 -120 329 -32 15 -66 19 -177 19 l-138 0 0 -405z m263 246
c16 -15 22 -36 25 -83 4 -84 -18 -123 -77 -133 -22 -4 -45 -4 -51 0 -6 4 -10
54 -10 127 l0 121 46 -6 c28 -3 54 -13 67 -26z"/>
<path d="M13360 27975 l0 -405 175 0 175 0 0 65 0 65 -100 0 -100 0 0 340 0
340 -75 0 -75 0 0 -405z"/>
<path d="M13810 27975 l0 -405 175 0 175 0 0 65 0 65 -100 0 -100 0 0 110 0
110 95 0 95 0 0 65 0 65 -95 0 -95 0 0 100 0 100 100 0 100 0 0 65 0 65 -175
0 -175 0 0 -405z"/>
<path d="M14270 27975 l0 -405 75 0 75 0 2 228 3 227 80 -225 80 -225 73 -3
72 -3 0 406 0 405 -75 0 -75 0 -2 -222 -3 -223 -76 220 -76 220 -77 3 -76 3 0
-406z"/>
<path d="M14882 27983 c-46 -219 -82 -401 -82 -405 0 -5 33 -8 74 -8 83 0 78
-5 92 98 l7 52 78 0 78 0 12 -75 12 -75 79 0 c71 0 79 2 74 18 -3 9 -39 181
-81 382 -41 201 -77 375 -80 388 -5 21 -10 22 -93 22 l-88 0 -82 -397z m227
-120 c1 -9 -16 -13 -52 -13 -30 0 -56 2 -59 5 -3 3 5 67 18 143 39 230 34 227
65 42 15 -91 28 -171 28 -177z"/>
<path d="M15570 27975 l0 -405 118 0 c150 0 204 15 260 72 138 138 136 533 -3
670 -55 54 -106 68 -252 68 l-123 0 0 -405z m265 242 c45 -45 58 -115 53 -276
-3 -103 -8 -133 -25 -167 -29 -54 -43 -65 -95 -67 l-43 -2 -3 260 c-1 143 0
265 3 272 2 7 21 13 41 13 27 0 44 -8 69 -33z"/>
<path d="M16150 27975 l0 -405 180 0 180 0 0 65 0 64 -102 3 -103 3 0 105 0
105 98 3 97 3 0 64 0 65 -100 0 -100 0 0 100 0 100 105 0 105 0 0 65 0 65
-180 0 -180 0 0 -405z"/>
<path d="M16610 27975 l0 -405 180 0 180 0 0 65 0 65 -100 0 -100 0 0 340 0
340 -80 0 -80 0 0 -405z"/>
<path d="M17740 27975 l0 -405 175 0 175 0 0 65 0 65 -100 0 -100 0 0 110 0
110 100 0 100 0 0 65 0 65 -100 0 -100 0 0 100 0 100 100 0 100 0 0 65 0 65
-175 0 -175 0 0 -405z"/>
<path d="M18200 27975 l0 -405 75 0 75 0 0 150 0 150 28 0 c27 0 29 -3 71
-150 l44 -150 78 0 c44 0 79 3 79 7 0 4 -23 78 -52 165 l-52 158 31 32 c90 93
95 278 10 375 -54 61 -92 73 -249 73 l-138 0 0 -405z m263 246 c16 -15 22 -36
25 -83 4 -84 -18 -123 -77 -133 -22 -4 -45 -4 -51 0 -6 4 -10 54 -10 127 l0
121 46 -6 c28 -3 54 -13 67 -26z"/>
<path d="M5380 18822 c0 -8005 -2 -7597 46 -7981 167 -1344 774 -2587 1734
-3551 501 -504 1029 -881 1665 -1191 703 -342 1415 -534 2220 -600 193 -16
717 -16 910 0 805 66 1517 258 2220 600 841 410 1558 987 2136 1721 690 876
1126 1919 1263 3021 48 384 46 -24 46 7981 l0 7488 -6120 0 -6120 0 0 -7488z
m1630 6278 l0 -270 -30 0 c-24 0 -31 5 -35 28 -23 107 -39 122 -157 133 -116
11 -414 10 -533 -1 -185 -18 -290 -72 -340 -174 -30 -62 -36 -152 -14 -224 26
-90 118 -160 249 -193 63 -16 599 -20 684 -6 59 10 92 41 101 93 13 83 14 84
45 84 l30 0 0 -226 0 -225 -32 3 c-29 3 -33 7 -39 38 -8 50 -26 79 -56 91 -35
13 -290 28 -483 29 -352 0 -502 69 -594 270 -79 173 -43 444 74 560 101 102
181 119 555 121 154 0 322 4 373 7 82 6 96 10 113 31 10 13 19 38 19 55 0 40
6 46 42 46 l28 0 0 -270z m10210 25 l0 -245 -35 0 c-30 0 -35 3 -35 24 0 14
-4 36 -10 50 -14 37 -43 34 -197 -21 l-133 -47 0 -158 0 -157 113 -35 c196
-61 211 -60 225 25 7 40 10 44 40 47 l32 3 0 -206 0 -206 -31 3 c-29 3 -33 8
-44 50 -6 26 -17 54 -24 62 -22 27 -123 68 -625 257 -516 194 -494 183 -511
252 -6 21 8 27 232 104 452 155 788 275 841 300 58 27 92 70 92 116 0 24 3 27
35 27 l35 0 0 -245z m-1643 -7377 l-3 -6523 -21 -140 c-56 -368 -122 -630
-228 -912 -264 -697 -695 -1289 -1280 -1760 -367 -295 -797 -528 -1266 -687
-215 -73 -543 -146 -794 -176 -779 -93 -1572 41 -2270 383 -195 96 -286 148
-475 273 -914 603 -1554 1571 -1755 2649 -9 50 -26 153 -38 230 l-21 140 -3
6523 -3 6522 4080 0 4080 0 -3 -6522z m484 6274 c9 -67 34 -85 132 -94 112 -9
711 -8 820 1 105 9 126 24 134 95 5 45 7 46 39 46 l34 0 0 -266 0 -265 -32 3
c-30 3 -33 6 -40 48 -11 65 -40 87 -130 95 -40 4 -255 5 -478 3 -317 -3 -411
-6 -432 -17 -28 -14 -45 -47 -50 -96 -3 -26 -8 -30 -35 -33 l-33 -3 0 266 0
266 33 -3 c30 -3 32 -6 38 -46z m-9051 -180 l0 -158 -420 -344 c-231 -188
-420 -345 -420 -348 0 -9 623 8 675 18 58 11 82 35 90 88 13 81 14 82 45 82
l30 0 0 -225 0 -225 -29 0 c-30 0 -41 14 -41 55 0 31 -43 81 -77 90 -16 4
-264 10 -553 14 l-525 6 -2 55 -3 55 346 270 c191 149 395 308 453 353 l106
84 -370 -4 c-244 -3 -379 -8 -397 -16 -37 -16 -59 -53 -67 -114 -6 -51 -7 -53
-36 -53 l-30 0 -3 223 -2 222 35 0 c32 0 35 -2 35 -30 0 -43 23 -84 56 -98 56
-26 729 -43 886 -23 37 5 77 17 91 27 28 21 57 74 57 104 0 36 12 50 41 50
l29 0 0 -158z m9051 -512 c8 -50 26 -79 56 -91 47 -18 318 -28 721 -29 l393 0
-3 -57 -3 -57 -455 -351 -455 -350 240 -3 c245 -3 491 9 537 27 29 11 58 73
58 126 0 33 2 35 35 35 l35 0 0 -226 0 -225 -32 3 c-29 3 -33 7 -39 40 -3 20
-13 48 -22 61 -32 50 -58 52 -532 52 l-440 0 -33 -23 c-39 -28 -51 -49 -60
-105 -7 -38 -10 -42 -40 -45 l-32 -3 1 158 0 158 395 320 c216 176 406 330
421 343 l28 23 -335 -3 c-379 -5 -398 -8 -425 -72 -8 -20 -15 -46 -15 -60 0
-42 -10 -56 -41 -56 l-29 0 0 226 0 225 32 -3 c29 -3 33 -7 39 -38z m-10211
-794 c0 -12 5 -38 11 -56 21 -59 28 -60 536 -60 416 0 461 2 493 18 28 13 37
25 44 57 4 22 10 46 12 53 2 6 17 12 34 12 l30 0 -2 -262 -3 -263 -27 -3 c-28
-3 -31 1 -43 71 -12 73 -1 72 -517 75 -303 2 -471 -1 -498 -8 -44 -12 -58 -31
-68 -93 -7 -38 -10 -42 -37 -42 l-30 0 -3 263 -2 262 35 0 c30 0 35 -3 35 -24z
m11380 -578 c0 -86 -24 -191 -55 -244 -35 -59 -123 -120 -304 -210 -82 -40
-157 -84 -165 -96 -9 -12 -16 -39 -16 -60 l0 -38 188 0 c233 0 252 6 266 88 9
50 11 52 43 52 l33 0 0 -260 0 -260 -34 0 c-32 0 -34 1 -39 46 -6 55 -30 82
-83 94 -56 14 -861 13 -923 -1 -59 -12 -69 -23 -79 -80 -7 -41 -10 -44 -41
-47 l-33 -3 4 328 c5 354 9 388 64 474 59 95 210 143 339 108 63 -17 133 -69
175 -131 21 -32 40 -63 43 -70 8 -24 330 152 466 255 31 23 65 59 76 80 16 29
26 37 48 37 27 0 27 -1 27 -62z m-10220 -328 l0 -260 -30 0 c-24 0 -31 5 -35
28 -18 85 -19 87 -56 86 -32 -1 -229 -70 -613 -213 -129 -48 -155 -61 -140
-69 27 -14 618 -209 687 -226 77 -20 104 -10 112 41 12 69 15 73 46 73 l29 0
0 -211 0 -210 -32 3 c-29 3 -33 7 -41 45 -10 53 -46 88 -127 125 -86 39 -618
248 -847 333 l-183 67 0 48 c0 43 3 49 28 58 176 63 972 361 1017 381 69 31
115 80 115 120 0 35 6 41 42 41 l28 0 0 -260z m9805 -824 c198 -64 331 -194
391 -381 73 -229 24 -447 -135 -606 -152 -152 -355 -208 -592 -163 -233 44
-405 188 -481 404 -29 80 -36 264 -13 350 55 210 220 363 450 416 96 22 281
13 380 -20z m-10963 -279 c8 -58 28 -83 77 -97 48 -13 894 -13 942 0 46 13 58
27 67 81 7 40 10 44 40 47 l32 3 0 -410 0 -409 -27 -6 c-16 -3 -83 -8 -150
-12 l-123 -6 0 34 c0 34 2 35 55 48 67 16 108 40 132 77 15 23 18 49 18 163
l0 135 -222 3 -223 2 1 -67 c0 -38 4 -95 8 -127 9 -71 29 -91 101 -101 49 -7
50 -8 50 -41 l0 -34 -205 0 -205 0 0 34 c0 33 1 34 50 41 75 10 92 29 101 111
5 38 8 95 8 127 l1 58 -230 -3 c-291 -4 -274 7 -271 -170 2 -129 6 -157 27
-198 14 -29 83 -69 162 -95 52 -17 53 -18 46 -48 -3 -18 -8 -33 -9 -35 -4 -4
-83 10 -222 39 l-103 22 0 444 0 444 32 -3 c31 -3 33 -6 40 -51z m10438 -1031
c0 -32 -2 -34 -59 -50 -134 -38 -153 -74 -149 -291 l3 -140 234 -3 234 -2 -6
131 c-7 152 -17 175 -74 184 -70 12 -73 14 -73 51 l0 34 198 -2 197 -3 3 -32
c3 -30 1 -32 -35 -38 -56 -10 -93 -25 -103 -46 -6 -10 -10 -76 -10 -148 l0
-131 205 0 c242 0 268 6 284 67 5 21 11 52 13 68 3 26 8 30 36 33 l32 3 0
-275 0 -276 -35 0 c-31 0 -35 3 -35 25 0 14 -6 41 -14 59 -11 27 -22 35 -59
45 -56 13 -882 15 -941 1 -51 -11 -65 -27 -74 -81 -7 -40 -10 -44 -40 -47
l-32 -3 0 440 0 439 73 6 c247 21 227 22 227 -18z m-10438 -46 c9 -54 32 -78
84 -90 57 -14 861 -12 924 1 55 12 69 28 79 89 6 31 10 35 39 38 l32 3 0 -288
c0 -361 -12 -444 -73 -525 -69 -90 -214 -131 -340 -94 -67 19 -151 92 -188
160 -13 26 -27 46 -32 46 -22 0 -232 -118 -362 -203 -101 -66 -150 -109 -171
-149 -11 -21 -22 -28 -45 -28 l-30 0 6 63 c26 258 60 301 353 449 90 46 168
90 172 99 5 9 12 35 16 58 l7 41 -190 0 c-113 0 -203 -4 -222 -11 -36 -13 -61
-53 -61 -99 0 -28 -3 -30 -35 -30 l-35 0 0 261 0 260 32 -3 c30 -3 33 -7 40
-48z m10201 -1047 c3 -10 8 -35 12 -56 12 -73 1 -72 517 -75 303 -2 471 1 498
8 44 12 58 31 68 93 7 38 10 42 37 42 l30 0 3 -262 2 -263 -35 0 c-30 0 -35 3
-35 24 0 12 -5 38 -11 56 -21 59 -28 60 -536 60 -416 0 -461 -2 -493 -18 -28
-13 -37 -25 -44 -57 -4 -22 -10 -46 -12 -52 -2 -7 -17 -13 -34 -13 l-30 0 0
258 c0 142 3 262 7 265 13 14 52 7 56 -10z m-9914 -125 c6 -17 10 -32 9 -33
-2 -2 -37 -18 -78 -37 -173 -81 -254 -216 -205 -343 42 -112 198 -148 312 -72
41 28 56 49 118 165 86 163 142 229 231 273 58 29 75 33 142 32 109 -1 178
-29 252 -103 77 -77 102 -140 107 -275 4 -83 0 -114 -19 -180 l-23 -80 -125
-17 c-69 -10 -131 -16 -137 -13 -7 2 -13 17 -13 33 0 27 5 31 61 52 88 31 153
97 168 169 30 141 -82 248 -220 211 -70 -19 -117 -74 -194 -226 -79 -157 -132
-220 -222 -262 -50 -23 -71 -27 -153 -27 -86 0 -101 3 -160 31 -207 99 -282
348 -182 606 26 69 29 73 67 81 54 12 227 45 242 46 6 1 16 -13 22 -31z
m10946 -534 c66 -13 123 -24 127 -24 5 0 8 -193 8 -430 l0 -430 -34 0 c-33 0
-33 1 -39 51 -7 60 -26 85 -76 99 -49 14 -894 13 -943 0 -42 -12 -59 -36 -67
-95 -6 -36 -9 -40 -38 -43 l-33 -3 0 271 0 271 32 -3 c31 -3 33 -6 40 -53 8
-56 30 -81 81 -90 18 -3 236 -5 484 -3 534 4 493 -7 501 125 2 43 -1 106 -8
138 -16 78 -61 123 -155 156 -72 26 -81 35 -71 74 7 28 -7 29 191 -11z
m-11233 -414 c10 -61 35 -82 105 -91 32 -4 229 -7 438 -7 209 0 406 3 438 7
70 9 98 33 106 93 6 40 8 43 39 46 l32 3 0 -266 0 -266 -32 3 c-31 3 -33 6
-39 46 -9 66 -34 85 -127 94 -107 9 -740 9 -835 -1 -93 -10 -114 -25 -125 -91
-7 -41 -10 -45 -40 -48 l-32 -3 0 266 0 266 32 -3 c30 -3 33 -7 40 -48z
m11368 -826 l0 -245 -32 3 c-29 3 -33 7 -40 42 -9 44 -24 66 -44 66 -8 0 -77
-23 -154 -51 l-140 -52 0 -157 0 -157 119 -37 c195 -61 205 -60 219 25 7 40
10 44 40 47 l32 3 0 -206 0 -206 -31 3 c-29 3 -33 8 -44 50 -14 57 -27 74 -79
100 -23 12 -270 107 -550 213 l-510 192 -12 34 c-7 19 -13 39 -13 46 -1 6 29
21 67 33 249 82 939 327 997 355 74 35 105 71 105 119 0 23 4 26 35 26 l35 0
0 -246z m-11368 89 c10 -62 24 -81 66 -93 25 -8 188 -10 505 -8 l469 3 24 28
c13 15 24 40 24 55 0 38 13 54 41 50 l24 -3 0 -340 c0 -291 -3 -351 -18 -416
-48 -207 -168 -347 -350 -410 -71 -25 -97 -29 -192 -29 -130 0 -212 18 -310
65 -129 62 -230 177 -289 329 -52 130 -58 178 -63 509 l-5 308 33 -3 c31 -3
34 -6 41 -45z m11135 -1103 c156 -43 192 -54 202 -65 5 -6 16 -44 25 -85 45
-209 38 -395 -20 -544 -69 -174 -216 -303 -402 -351 -74 -19 -232 -21 -312 -4
-78 16 -206 78 -267 130 -102 86 -179 212 -215 352 -28 111 -28 284 0 421 12
54 22 100 24 101 5 5 299 38 302 34 2 -2 7 -18 10 -35 7 -29 5 -31 -36 -43
-102 -31 -173 -85 -209 -159 -19 -39 -23 -63 -23 -142 -1 -84 3 -103 28 -157
72 -157 254 -247 496 -245 211 1 362 53 470 160 50 50 62 69 81 131 54 178
-17 323 -211 428 -43 24 -70 44 -70 55 0 18 10 48 16 48 2 0 52 -13 111 -30z
m-11134 -107 c9 -48 41 -83 99 -111 23 -10 268 -104 545 -208 l502 -189 16
-44 c8 -25 15 -46 15 -47 0 -1 -44 -17 -97 -34 -169 -56 -917 -318 -964 -338
-69 -30 -108 -68 -115 -113 -6 -36 -9 -39 -40 -39 l-34 0 0 246 0 245 32 -3
c28 -3 33 -8 42 -47 19 -76 32 -76 254 9 l82 32 0 159 0 158 -112 35 c-197 61
-212 60 -226 -25 -7 -40 -10 -44 -40 -47 l-32 -3 0 206 0 206 32 -3 c29 -3 33
-7 41 -45z m-3 -1309 c8 -59 33 -92 77 -101 21 -4 238 -8 483 -8 349 0 452 3
477 13 31 14 49 44 55 92 2 20 9 26 36 28 l32 3 0 -300 c0 -165 -5 -335 -11
-377 -32 -233 -136 -389 -312 -469 -226 -104 -524 -51 -698 124 -109 110 -175
258 -198 446 -12 99 -15 577 -4 589 4 4 19 6 33 4 21 -3 26 -9 30 -44z m11368
-641 l-3 -248 -29 0 c-28 0 -31 4 -40 50 -10 43 -15 50 -37 53 -14 2 -86 -19
-160 -46 l-134 -49 0 -159 0 -158 105 -34 c58 -18 129 -36 157 -39 50 -5 53
-4 63 21 5 15 10 41 10 57 0 27 3 29 35 29 l35 0 0 -200 0 -200 -34 0 c-32 0
-34 2 -39 41 -7 53 -37 85 -112 119 -33 14 -279 109 -546 209 l-485 182 -11
42 c-13 48 -12 50 42 67 81 25 922 320 979 343 84 34 124 69 132 115 9 50 11
52 45 52 l29 0 -2 -247z m-1157 -1001 c7 -52 24 -71 75 -82 21 -5 226 -10 454
-10 446 -1 527 -7 618 -51 98 -48 190 -158 238 -285 13 -35 24 -66 24 -68 0
-2 -14 -9 -32 -15 -25 -9 -34 -9 -39 1 -49 86 -103 128 -199 155 -59 16 -114
18 -578 18 l-514 0 -24 -28 c-13 -16 -24 -41 -24 -57 0 -46 -10 -60 -41 -60
l-29 0 0 266 0 265 33 -3 c30 -3 32 -6 38 -46z m-10211 -221 c0 -36 36 -90 77
-114 18 -10 267 -107 554 -215 l522 -197 12 -43 c15 -49 16 -48 -75 -77 -204
-65 -924 -322 -964 -343 -60 -33 -86 -66 -93 -119 -5 -36 -9 -42 -36 -47 -17
-3 -31 -5 -33 -4 -3 4 -22 261 -29 396 l-6 112 34 0 c31 0 34 -3 48 -47 19
-66 40 -66 201 -7 l128 47 -2 161 -3 161 -120 37 c-177 55 -199 51 -213 -33
-7 -40 -10 -44 -40 -47 l-32 -3 0 205 0 206 35 0 c32 0 35 -3 35 -29z m11367
-647 c-4 -136 -8 -249 -11 -251 -3 -3 -18 -2 -35 2 -28 6 -31 10 -31 43 0 49
-11 63 -47 64 -29 1 -271 -68 -285 -81 -4 -4 -12 -74 -17 -156 -8 -128 -8
-152 5 -161 8 -6 73 -31 144 -55 150 -51 159 -49 175 27 10 43 14 49 38 52 16
2 29 -2 32 -10 6 -14 -42 -384 -50 -399 -3 -4 -17 -4 -33 0 -24 7 -28 13 -32
59 -9 90 29 68 -670 376 l-415 182 -9 42 c-5 23 -7 44 -5 47 3 2 218 65 479
140 651 186 668 192 690 263 6 20 13 43 15 50 3 6 19 12 36 12 l32 0 -6 -246z
m-10193 -326 c3 -13 10 -72 16 -133 6 -60 20 -162 30 -226 26 -152 26 -149
-10 -149 -25 0 -32 6 -48 43 -28 62 -42 71 -110 64 -72 -7 -553 -157 -648
-202 -141 -68 -214 -161 -214 -273 0 -124 67 -226 172 -262 76 -26 199 -27
299 -1 145 37 553 189 573 213 16 20 18 34 12 94 -6 71 -5 72 21 79 33 8 35 5
67 -114 14 -53 41 -143 61 -200 27 -80 32 -107 22 -113 -25 -16 -46 -7 -68 31
-24 44 -54 61 -106 61 -35 0 -194 -44 -343 -95 -265 -91 -403 -115 -521 -90
-85 17 -141 48 -196 108 -85 92 -134 237 -135 397 -1 130 23 193 106 276 94
94 137 113 546 240 151 47 297 95 323 106 62 27 87 59 87 114 0 24 5 44 13 47
28 12 47 6 51 -15z m9173 -593 c113 -34 178 -119 191 -252 l7 -68 23 36 c30
48 100 112 154 140 64 34 163 32 244 -5 72 -32 145 -102 173 -166 48 -110 37
-231 -41 -465 -49 -145 -136 -387 -142 -393 -2 -1 -15 2 -29 9 -24 11 -25 15
-20 66 10 93 16 90 -512 281 -181 66 -354 125 -383 133 -68 17 -101 5 -127
-44 -20 -37 -38 -45 -65 -27 -13 8 -12 18 9 72 13 35 58 165 100 289 82 244
111 300 186 357 70 54 139 65 232 37z m-8834 -736 c-5 -46 0 -60 105 -271 161
-327 231 -438 320 -509 7 -6 12 -15 10 -21 -2 -5 -71 -45 -155 -89 l-151 -79
-16 26 -17 25 65 61 c37 33 69 71 72 84 4 17 -7 47 -39 106 -25 46 -52 91 -59
101 -12 17 -38 6 -378 -151 -433 -201 -488 -228 -517 -255 -27 -24 -30 -66 -8
-127 8 -23 15 -46 15 -50 0 -7 -51 -33 -55 -28 -11 15 -147 272 -200 377 -63
126 -66 136 -49 148 26 19 42 16 55 -9 6 -13 23 -35 37 -50 38 -41 83 -37 206
16 131 58 766 352 772 359 8 7 -61 139 -91 175 -37 44 -82 56 -159 43 -34 -6
-67 -11 -73 -11 -9 0 -27 45 -24 60 1 3 74 35 164 71 103 42 164 62 169 56 4
-6 4 -32 1 -58z m8044 -821 l122 -81 -20 -28 -20 -28 -55 24 c-71 31 -117 40
-143 26 -28 -16 -181 -219 -181 -242 0 -16 299 -259 319 -259 12 0 120 146
136 184 16 37 4 69 -42 118 -25 26 -25 28 -9 53 10 15 22 23 29 19 7 -4 81
-61 165 -127 l154 -120 -24 -23 -24 -24 -51 27 c-42 23 -56 26 -79 18 -25 -9
-139 -132 -165 -177 -8 -15 14 -35 136 -130 176 -137 221 -163 258 -149 58 22
197 227 197 290 0 25 -42 119 -76 173 -17 26 -17 28 1 47 10 12 22 21 26 21
24 0 213 -226 205 -246 -26 -67 -323 -456 -488 -638 l-53 -58 -24 19 -24 20
27 45 c39 66 35 93 -22 147 -43 42 -515 414 -638 504 -29 20 -68 44 -88 52
-33 14 -40 14 -70 0 -19 -9 -42 -25 -52 -36 -17 -19 -18 -19 -40 2 l-23 22 78
86 c112 123 250 298 342 434 44 64 83 117 87 117 4 0 62 -37 129 -82z m-7036
-390 c98 -67 151 -109 155 -124 10 -39 -38 -109 -71 -102 -8 2 -73 68 -144
148 -105 118 -127 148 -120 163 6 9 14 17 20 17 6 0 78 -46 160 -102z m-450
66 c182 -53 352 -220 410 -404 31 -97 30 -232 -4 -330 -39 -115 -73 -167 -171
-265 -100 -99 -166 -143 -278 -183 -65 -24 -87 -27 -198 -26 -144 0 -196 15
-310 89 -279 182 -367 521 -205 790 81 133 166 210 311 282 147 72 303 88 445
47z m6878 -569 c185 -49 345 -211 418 -423 33 -96 37 -233 9 -327 -40 -135
-139 -276 -276 -389 -101 -84 -414 -316 -427 -316 -4 0 -14 9 -21 21 -12 18
-9 25 22 60 46 50 47 88 5 155 -53 82 -490 674 -529 715 -42 44 -76 50 -135
22 -34 -16 -36 -16 -50 3 -8 10 -15 22 -15 25 0 4 53 41 118 82 64 42 176 119
247 171 143 105 277 178 370 200 78 19 196 19 264 1z m-6081 -112 c59 -47 108
-86 110 -88 3 -3 142 -1051 142 -1074 0 -25 255 390 325 528 19 39 35 80 35
93 0 13 -21 42 -56 76 -54 52 -55 54 -39 78 l16 24 72 -40 c40 -23 122 -66
182 -95 158 -78 148 -71 130 -99 -14 -21 -19 -23 -49 -14 -55 17 -106 2 -151
-45 -54 -56 -164 -222 -385 -577 -101 -162 -186 -299 -190 -303 -4 -5 -30 3
-57 16 l-49 25 -53 529 c-29 290 -56 548 -59 572 l-7 44 -106 -169 c-210 -335
-279 -463 -279 -516 0 -37 21 -73 64 -110 29 -25 30 -26 13 -52 l-17 -26 -73
51 c-150 106 -287 213 -287 224 0 6 6 19 13 29 12 16 15 16 57 -3 67 -30 87
-27 133 22 61 66 356 519 438 675 52 97 50 174 -7 241 -24 29 -24 31 -8 55 19
30 8 36 142 -71z m1483 -768 c304 -79 480 -373 415 -694 -53 -261 -208 -450
-428 -522 -109 -35 -261 -33 -377 6 -184 63 -319 196 -374 370 -18 57 -22 93
-21 195 0 111 3 134 28 205 84 237 255 403 466 450 78 18 200 13 291 -10z
m2673 -68 c103 -150 542 -754 585 -805 58 -69 89 -85 148 -76 33 5 47 3 54 -7
23 -36 10 -46 -123 -96 -156 -59 -328 -117 -333 -112 -2 2 -6 16 -10 31 -6 22
-3 29 11 35 11 3 32 15 47 26 37 25 33 37 -70 178 l-85 116 -146 -43 c-81 -24
-150 -44 -154 -44 -12 0 -9 -275 2 -306 10 -26 13 -27 69 -21 57 5 60 4 66
-20 3 -14 4 -27 2 -30 -10 -10 -343 -83 -378 -83 -14 0 -19 7 -19 30 0 25 6
32 45 49 34 15 49 29 60 56 11 24 27 202 55 592 29 394 44 560 53 565 6 3 21
14 32 22 11 8 25 15 30 15 6 0 32 -32 59 -72z m-1904 -98 c58 -6 122 -14 143
-18 l38 -6 193 -423 c106 -232 195 -424 197 -426 2 -2 76 189 164 424 l160
429 55 6 c30 4 108 13 174 22 99 13 120 13 127 2 18 -29 9 -45 -34 -56 -64
-18 -88 -49 -94 -125 -5 -67 32 -757 47 -872 5 -38 14 -74 20 -80 6 -6 37 -13
68 -16 55 -5 57 -6 60 -36 l3 -31 -143 -17 c-79 -9 -196 -19 -260 -23 l-118
-6 0 31 c0 29 3 31 45 38 66 9 85 38 85 128 1 144 -22 742 -29 759 -4 12 -61
-134 -170 -435 -90 -249 -171 -470 -179 -490 -12 -33 -19 -38 -46 -38 l-31 0
-203 463 -203 462 4 -380 c2 -254 7 -389 15 -407 15 -36 51 -58 109 -66 45 -7
48 -9 48 -37 0 -29 0 -29 -55 -27 -68 4 -258 20 -322 28 -44 5 -48 8 -48 34 0
25 4 28 49 34 72 9 79 23 90 162 17 212 25 743 12 805 -14 68 -52 115 -106
133 -34 12 -40 19 -43 46 -3 33 -3 33 35 27 21 -4 85 -12 143 -18z"/>
<path d="M16512 24787 l-183 -62 178 -59 c98 -32 184 -61 191 -63 9 -4 12 24
12 121 0 69 -3 126 -7 125 -5 0 -90 -28 -191 -62z"/>
<path d="M11230 23745 c-124 -16 -174 -26 -430 -92 -199 -51 -224 -55 -335
-56 -85 0 -156 6 -245 22 -106 20 -145 23 -260 18 -149 -7 -219 -22 -327 -72
-138 -64 -363 -228 -363 -265 0 -11 7 -20 15 -20 9 0 75 29 148 65 173 84 249
105 408 112 95 4 145 1 208 -11 168 -34 380 -116 400 -155 18 -33 13 -95 -9
-119 -26 -28 -48 -28 -192 3 -192 41 -291 49 -375 31 -137 -28 -270 -99 -386
-206 -45 -41 -50 -49 -38 -64 19 -22 23 -21 86 23 31 22 86 52 123 67 58 23
85 28 194 32 150 5 237 -11 347 -63 97 -47 121 -72 121 -128 0 -55 -17 -71
-67 -64 -21 2 -84 10 -140 17 -140 18 -218 6 -338 -54 -49 -24 -103 -58 -120
-75 -27 -29 -28 -33 -13 -47 15 -15 19 -15 55 5 102 56 288 68 405 27 77 -27
151 -68 185 -102 16 -16 23 -35 23 -63 0 -55 -22 -75 -72 -67 -182 29 -300 5
-377 -77 -33 -36 -20 -48 36 -31 100 30 276 12 387 -41 99 -47 129 -98 91
-153 -15 -21 -21 -21 -118 -15 -91 5 -108 3 -151 -15 -68 -31 -61 -54 19 -58
81 -4 142 -32 244 -113 255 -203 543 -345 815 -402 75 -16 136 -22 236 -22
166 1 225 11 225 38 0 17 -13 22 -97 36 -249 43 -443 143 -605 312 -125 131
-207 274 -257 449 -142 495 112 1036 582 1243 90 39 206 72 292 82 63 7 90 18
90 38 0 17 -15 22 -120 35 -104 12 -177 11 -300 -5z"/>
<path d="M11931 23639 c-204 -36 -416 -152 -562 -307 -387 -410 -366 -1055 47
-1442 213 -200 501 -298 792 -269 238 24 433 114 609 282 418 401 414 1077 -9
1473 -122 114 -257 191 -423 240 -77 22 -113 27 -245 30 -85 1 -179 -1 -209
-7z m239 -670 c52 -68 56 -71 90 -65 19 3 59 8 89 12 l54 7 -6 -34 c-3 -19 -9
-59 -12 -89 l-7 -56 64 -49 c34 -26 67 -52 71 -55 5 -4 -24 -27 -63 -51 l-72
-44 7 -75 c4 -41 9 -85 12 -97 6 -28 -4 -28 -97 -8 -36 8 -70 14 -76 15 -6 0
-33 -34 -60 -75 -27 -41 -52 -75 -55 -75 -4 0 -80 98 -110 142 -3 4 -42 1 -87
-8 -45 -10 -84 -15 -87 -12 -3 2 0 31 5 64 17 105 17 106 -60 164 l-69 53 70
51 70 51 -6 69 c-3 38 -8 81 -12 94 -6 25 -5 25 38 19 24 -3 67 -9 94 -12 l50
-7 50 71 c28 39 52 71 55 70 3 0 30 -32 60 -70z"/>
<path d="M8275 22486 c-98 -44 -120 -136 -94 -402 31 -323 95 -535 265 -875
45 -91 139 -289 209 -440 267 -578 466 -914 690 -1164 54 -61 70 -88 110 -190
143 -365 400 -768 652 -1024 l113 -115 14 -86 c32 -181 137 -492 217 -637 37
-68 39 -77 39 -155 0 -98 28 -297 65 -462 24 -108 25 -124 15 -204 -14 -120
-23 -494 -13 -567 7 -52 4 -79 -24 -195 -85 -353 -116 -613 -117 -980 -1 -361
31 -609 145 -1134 154 -711 154 -708 152 -941 0 -147 -8 -247 -32 -442 -24
-195 -31 -293 -31 -427 0 -320 34 -498 249 -1307 63 -235 100 -413 108 -509 8
-101 -7 -202 -78 -534 -88 -408 -91 -484 -29 -612 54 -111 208 -246 366 -321
l79 -38 155 0 155 0 79 38 c158 75 312 210 366 321 61 127 58 205 -29 612 -71
334 -86 434 -78 534 8 100 45 274 107 505 214 804 250 990 250 1311 0 135 -7
231 -31 427 -25 197 -32 294 -32 442 -2 233 -2 231 152 941 59 270 103 520
127 724 22 174 24 588 5 780 -16 165 -64 442 -104 610 -28 116 -31 143 -24
195 10 72 2 434 -13 562 -10 86 -9 101 15 210 37 164 65 363 65 461 0 78 2 87
39 155 80 145 185 456 217 637 l14 86 113 115 c252 256 509 659 652 1024 40
102 56 129 110 190 213 238 435 607 655 1090 45 99 145 308 220 465 197 406
252 577 285 890 29 265 17 353 -53 412 -38 32 -80 42 -138 33 -71 -10 -109
-51 -176 -192 -45 -96 -62 -123 -78 -123 -11 0 -33 -12 -49 -27 -48 -44 -215
-325 -247 -414 -23 -64 -21 -185 3 -240 17 -39 18 -50 8 -97 -7 -29 -29 -87
-50 -130 -42 -84 -99 -145 -382 -410 -229 -214 -381 -419 -545 -737 l-89 -175
-117 -107 c-316 -292 -453 -442 -541 -595 -36 -64 -31 -62 -239 -113 -57 -14
-116 -32 -132 -40 -16 -8 -31 -15 -35 -15 -3 0 -5 25 -5 56 0 39 9 76 30 127
74 173 150 560 150 765 0 290 -195 527 -483 586 -414 86 -777 -188 -777 -586
0 -205 76 -592 150 -765 21 -51 30 -88 30 -127 0 -31 -2 -56 -5 -56 -4 0 -19
7 -35 15 -16 8 -75 26 -132 40 -208 51 -203 49 -239 113 -88 153 -225 303
-541 595 l-117 107 -89 175 c-164 318 -316 523 -545 737 -283 265 -340 326
-382 410 -21 43 -43 101 -50 130 -10 47 -9 58 8 97 24 55 26 176 3 240 -32 89
-199 370 -247 414 -16 15 -38 27 -49 27 -16 0 -32 25 -76 118 -30 64 -69 132
-87 150 -48 49 -130 66 -192 38z m126 -192 c15 -21 46 -93 69 -159 64 -181
112 -266 136 -242 3 3 -9 33 -26 67 -17 34 -30 64 -28 66 12 11 54 -37 78 -90
16 -34 52 -92 80 -131 29 -38 59 -86 68 -105 20 -46 19 -145 -1 -194 -17 -37
-16 -40 13 -129 63 -186 125 -276 334 -487 339 -343 499 -551 662 -866 l78
-149 226 -236 c259 -270 387 -415 449 -511 49 -75 36 -69 266 -144 77 -25 171
-62 209 -82 67 -35 168 -124 213 -187 15 -22 24 -27 32 -19 9 8 3 24 -23 63
-20 29 -41 71 -47 94 -11 41 -8 201 4 213 3 3 32 -15 63 -41 94 -76 103 -79
244 -79 141 0 150 3 244 79 31 26 60 44 63 41 12 -12 15 -172 4 -213 -6 -23
-27 -65 -47 -94 -26 -39 -32 -55 -23 -63 8 -8 17 -3 32 19 45 63 146 152 213
187 38 20 146 62 240 93 94 30 178 61 186 68 8 7 34 41 58 77 67 100 168 216
428 486 l238 249 78 149 c163 315 303 499 657 861 96 99 194 209 218 243 50
74 101 183 130 276 19 62 19 68 4 103 -20 48 -21 147 -1 193 9 19 39 67 68
105 28 39 64 97 80 131 24 53 66 101 78 90 2 -2 -11 -32 -28 -66 -17 -34 -29
-64 -26 -67 24 -24 72 61 136 242 44 124 79 187 117 213 21 13 23 12 33 -14 6
-15 10 -50 8 -77 -3 -49 -4 -51 -43 -61 -53 -15 -69 -49 -104 -217 l-27 -132
-49 -39 c-124 -98 -159 -154 -153 -239 l3 -44 26 55 c17 35 61 91 123 157 l96
101 36 144 c40 158 48 178 69 178 18 0 18 13 0 -145 -32 -275 -47 -321 -261
-812 -266 -611 -646 -1249 -904 -1518 -58 -60 -71 -81 -95 -150 -65 -191 -269
-543 -462 -798 -91 -120 -258 -320 -302 -361 -17 -17 -31 -38 -31 -48 0 -64
-71 -325 -134 -493 -85 -226 -126 -289 -213 -331 -67 -33 -185 -43 -302 -25
-75 12 -105 5 -78 -18 17 -13 258 -51 327 -51 25 0 61 4 79 10 19 5 37 8 39 5
7 -7 -17 -270 -34 -370 -27 -158 -90 -332 -158 -432 -51 -74 -19 -73 62 2 l59
54 6 -82 c12 -143 8 -341 -8 -433 -18 -102 -58 -242 -86 -296 -10 -21 -19 -44
-19 -53 0 -35 31 -10 83 66 30 44 57 77 60 72 12 -22 69 -285 88 -413 19 -124
23 -188 23 -445 1 -316 -5 -395 -54 -780 -39 -297 -77 -527 -135 -798 -25
-120 -52 -262 -60 -315 -27 -173 -29 -393 -9 -667 30 -401 23 -667 -27 -1015
-28 -195 -60 -343 -154 -715 -46 -181 -89 -366 -96 -410 -20 -116 -17 -445 4
-565 10 -52 29 -158 42 -235 14 -77 29 -195 32 -262 6 -118 5 -124 -21 -176
-48 -98 -206 -237 -288 -252 -64 -12 -68 -1 -68 218 0 106 5 332 11 502 12
320 11 335 -32 1045 -15 263 -13 574 7 755 23 206 23 621 0 945 -20 280 -22
474 -5 590 14 104 14 283 -2 410 -17 145 -6 1161 17 1512 l6 96 46 18 c67 25
128 92 209 229 39 66 90 139 112 162 45 46 51 63 23 63 -31 0 -127 -95 -201
-199 -121 -170 -195 -215 -310 -190 -66 14 -120 62 -215 194 -79 108 -168 195
-198 195 -28 0 -22 -17 23 -63 22 -23 73 -96 112 -162 81 -137 142 -204 209
-229 l45 -18 7 -101 c24 -371 34 -1358 16 -1512 -16 -130 -16 -299 -1 -405 17
-116 15 -310 -5 -590 -23 -324 -23 -739 0 -945 23 -215 22 -496 -5 -930 -25
-407 -27 -622 -15 -1165 9 -375 8 -396 -9 -414 -26 -25 -75 -14 -149 37 -82
55 -160 138 -192 204 -26 52 -27 58 -21 176 6 115 13 163 68 467 18 101 23
163 23 320 1 239 -4 267 -109 685 -117 465 -148 623 -180 925 -27 254 -29 408
-9 660 21 276 24 634 5 770 -7 52 -37 214 -67 360 -63 306 -94 488 -134 795
-49 379 -55 464 -54 780 1 256 4 321 23 445 19 128 76 391 88 413 3 5 30 -28
60 -72 52 -76 83 -101 83 -66 0 9 -9 32 -19 53 -28 54 -68 194 -86 296 -16 92
-20 290 -8 433 l6 82 59 -54 c81 -75 113 -76 62 -1 -69 101 -134 279 -159 433
-16 101 -40 362 -33 368 2 3 20 0 39 -5 18 -6 54 -10 79 -10 69 0 310 38 327
51 27 23 -3 30 -78 18 -117 -18 -235 -8 -302 25 -88 43 -127 104 -216 341 -63
166 -131 418 -131 483 0 10 -14 31 -31 48 -44 42 -211 242 -300 359 -212 280
-392 592 -465 801 -23 67 -37 89 -94 149 -259 270 -636 903 -904 1518 -214
490 -229 537 -261 812 -18 158 -18 145 0 145 21 0 29 -20 69 -178 l36 -144 96
-101 c62 -66 106 -122 123 -157 l26 -55 3 44 c6 85 -29 141 -153 239 l-49 39
-27 132 c-35 168 -51 202 -104 217 -39 10 -40 12 -43 61 -2 27 2 62 8 77 10
26 12 27 33 14 12 -8 34 -33 48 -54z m3227 -1849 c168 -40 275 -142 317 -300
36 -138 -1 -500 -75 -737 -32 -105 -173 -302 -248 -350 -27 -17 -49 -20 -122
-20 -105 0 -130 11 -200 94 -150 176 -191 280 -240 616 -46 309 -14 484 109
595 110 100 295 141 459 102z"/>
<path d="M11925 18583 c-95 -16 -134 -28 -195 -58 -55 -28 -93 -67 -88 -91 6
-32 34 -27 102 19 65 43 138 75 223 97 44 11 62 26 47 39 -5 5 -45 2 -89 -6z"/>
<path d="M10980 18580 c0 -12 26 -24 101 -44 60 -17 155 -64 206 -103 36 -28
66 -27 71 1 5 26 -42 70 -107 100 -94 42 -271 72 -271 46z"/>
<path d="M11317 17105 c-42 -29 -65 -70 -109 -193 -39 -110 -69 -171 -102
-201 -14 -14 -26 -30 -26 -38 0 -26 34 -12 76 31 43 45 87 127 144 269 20 47
45 90 65 109 55 51 19 68 -48 23z"/>
<path d="M11607 17123 c-4 -3 8 -21 27 -39 20 -19 46 -64 65 -111 58 -142 102
-224 145 -269 42 -43 76 -57 76 -31 0 8 -12 24 -26 38 -33 30 -63 91 -102 201
-17 48 -40 105 -52 127 -29 58 -109 108 -133 84z"/>
<path d="M11138 19908 c-54 -31 -51 -52 5 -41 51 10 172 6 230 -7 35 -8 44 -7
55 7 7 10 11 22 9 27 -6 17 -99 36 -182 36 -64 0 -88 -5 -117 -22z"/>
<path d="M11610 19916 c-42 -11 -45 -14 -52 -53 -9 -53 4 -203 17 -204 6 0 14
21 19 46 10 46 10 47 40 39 60 -16 142 -11 165 10 25 23 27 51 5 60 -9 3 -49
6 -90 6 -41 0 -74 4 -74 9 0 38 103 61 190 42 65 -14 70 -14 70 2 0 7 -17 23
-39 35 -32 18 -54 22 -122 21 -46 -1 -104 -6 -129 -13z"/>
<path d="M11193 19813 c-7 -2 -13 -13 -13 -22 0 -53 116 -80 178 -42 38 24 40
34 10 55 -22 16 -145 22 -175 9z"/>
<path d="M11404 19489 c-6 -10 35 -28 81 -36 33 -5 102 16 107 32 4 13 -180
17 -188 4z"/>
<path d="M9548 11274 l-88 -44 0 -1240 c0 -682 2 -1240 5 -1240 3 0 36 15 73
34 102 51 236 102 347 132 87 24 119 27 250 27 164 1 225 -10 362 -63 121 -46
233 -121 356 -238 226 -214 415 -302 647 -302 232 0 421 88 647 302 123 117
235 192 356 238 137 53 198 64 362 63 131 0 163 -3 250 -27 111 -30 245 -81
347 -132 37 -19 70 -34 73 -34 3 0 5 558 5 1240 l0 1240 -90 45 c-49 25 -92
45 -95 45 -3 0 -5 -511 -5 -1135 0 -624 -3 -1135 -6 -1135 -3 0 -43 11 -88 25
-126 38 -219 55 -345 61 -142 8 -261 -7 -387 -47 -193 -62 -324 -138 -490
-284 -139 -123 -207 -172 -301 -218 -157 -75 -309 -75 -466 0 -94 46 -162 95
-301 218 -166 146 -297 222 -490 284 -221 71 -467 66 -731 -14 -45 -14 -84
-25 -88 -25 -4 0 -7 511 -7 1135 0 624 -3 1135 -7 1134 -5 0 -47 -20 -95 -45z"/>
<path d="M16275 21609 c-85 -11 -153 -59 -182 -129 -16 -36 -21 -138 -9 -158
5 -9 80 -12 267 -12 l259 0 0 63 c0 39 -7 77 -19 103 -44 97 -175 152 -316
133z"/>
<path d="M16470 20564 c-280 -49 -413 -157 -413 -334 0 -119 59 -201 188 -261
97 -46 205 -62 370 -56 260 9 435 87 505 223 20 40 25 63 25 129 0 70 -4 86
-28 128 -38 64 -105 111 -202 143 -72 24 -98 27 -250 30 -93 1 -181 1 -195 -2z"/>
<path d="M6390 19066 c0 -158 104 -248 285 -248 153 1 247 84 249 222 1 85 20
80 -274 80 l-260 0 0 -54z"/>
<path d="M16525 16174 c-193 -65 -189 -64 -184 -68 2 -2 86 -31 187 -64 l182
-60 0 124 c0 93 -3 124 -12 123 -7 0 -85 -25 -173 -55z"/>
<path d="M5945 16237 c-59 -18 -78 -59 -72 -159 11 -181 129 -309 337 -365 87
-24 308 -24 399 0 141 38 231 109 278 223 38 90 50 264 20 302 -13 17 -903 16
-962 -1z"/>
<path d="M6290 14906 c0 -96 3 -126 13 -126 11 0 314 99 357 116 12 5 -166 70
-352 130 -17 5 -18 -5 -18 -120z"/>
<path d="M5995 13720 c-100 -11 -125 -41 -125 -145 0 -194 148 -348 378 -394
76 -16 255 -13 337 4 151 32 262 116 305 232 26 71 41 184 32 248 -6 41 -11
50 -32 56 -32 9 -816 8 -895 -1z"/>
<path d="M16520 13095 c-101 -34 -180 -64 -175 -67 23 -13 357 -120 361 -115
3 2 3 58 2 124 l-3 120 -185 -62z"/>
<path d="M6290 11715 c0 -69 3 -125 7 -125 16 0 374 122 370 126 -5 6 -359
124 -369 124 -4 0 -8 -56 -8 -125z"/>
<path d="M16525 11269 c-77 -22 -158 -44 -179 -50 l-40 -11 189 -74 c104 -40
190 -73 191 -71 0 1 4 57 8 125 5 112 4 122 -12 121 -9 0 -80 -18 -157 -40z"/>
<path d="M15972 10399 c-49 -25 -73 -55 -96 -123 -15 -43 -15 -51 -3 -64 13
-12 378 -152 397 -152 12 0 40 112 40 156 -1 89 -60 158 -166 190 -66 20 -122
18 -172 -7z"/>
<path d="M16560 10271 c-50 -16 -87 -41 -124 -82 -42 -45 -92 -148 -79 -159 4
-4 97 -38 206 -74 234 -79 277 -83 313 -28 47 68 42 166 -10 235 -61 80 -221
136 -306 108z"/>
<path d="M7790 8607 c-163 -56 -356 -219 -458 -389 -102 -171 -102 -327 2
-436 54 -58 100 -77 191 -77 92 1 144 19 260 93 85 54 268 235 319 316 106
167 112 317 19 426 -76 88 -199 113 -333 67z"/>
<path d="M14470 8038 c-72 -11 -186 -67 -247 -122 -45 -41 -47 -45 -35 -68 24
-43 481 -661 530 -715 40 -45 53 -53 83 -53 71 0 180 95 227 199 32 71 36 205
9 292 -43 136 -191 334 -308 409 -83 54 -167 73 -259 58z"/>
<path d="M10025 7241 c-134 -35 -245 -176 -313 -401 -50 -165 -55 -370 -11
-483 28 -73 82 -135 145 -167 64 -32 170 -34 229 -5 162 79 295 388 295 684 0
183 -50 290 -160 346 -53 27 -137 39 -185 26z"/>
<path d="M12800 6843 c0 -60 -3 -151 -7 -202 l-6 -92 28 7 c16 4 72 21 125 38
l97 31 -111 157 c-61 86 -114 160 -118 164 -5 4 -8 -42 -8 -103z"/>
<path d="M3170 24179 c-8 -14 -10 -170 -7 -532 4 -560 6 -576 68 -738 37 -96
79 -165 258 -424 281 -409 409 -643 471 -868 23 -84 43 -107 98 -114 35 -5 44
-2 67 21 l27 27 -5 567 c-4 613 -4 608 -64 787 -29 90 -91 207 -157 299 -24
33 -130 153 -235 266 -106 112 -216 236 -246 275 -100 131 -156 251 -170 368
-3 31 -13 64 -21 72 -23 22 -71 19 -84 -6z m190 -599 c26 -52 125 -182 263
-347 184 -220 246 -341 282 -552 20 -113 35 -301 34 -426 l0 -100 -22 38 c-12
21 -99 156 -193 300 -212 325 -258 404 -301 520 -50 135 -71 242 -82 427 -6
91 -11 168 -11 173 0 16 11 5 30 -33z"/>
<path d="M19746 24185 c-8 -8 -18 -41 -21 -72 -14 -117 -70 -237 -170 -368
-30 -39 -140 -163 -246 -275 -253 -271 -335 -388 -393 -565 -59 -181 -59 -174
-63 -787 l-5 -567 27 -27 c23 -23 32 -26 67 -21 55 7 75 30 98 114 62 225 190
459 471 868 179 259 221 328 258 424 62 162 64 178 68 738 3 362 1 518 -7 532
-13 25 -61 28 -84 6z m-86 -741 c-12 -189 -33 -295 -83 -431 -42 -112 -93
-201 -255 -448 -69 -104 -156 -239 -194 -299 l-68 -109 0 99 c0 126 16 314 35
425 36 211 98 332 282 552 138 166 237 295 264 348 11 23 22 39 25 36 2 -2 0
-80 -6 -173z"/>
<path d="M11067 4241 c-9 -10 -2 -62 31 -222 67 -326 72 -340 109 -362 48 -28
258 -42 422 -29 139 11 186 27 201 66 4 13 32 136 61 275 40 189 50 257 42
269 -9 15 -48 17 -432 17 -348 0 -425 -2 -434 -14z"/>
<path d="M2940 18929 c-36 -13 -47 -35 -90 -188 -161 -569 -272 -1257 -311
-1921 -10 -171 -10 -211 0 -224 38 -45 67 1 75 119 38 503 183 1238 353 1784
41 132 32 133 114 -12 l50 -89 -30 -96 c-116 -376 -204 -928 -205 -1292 l-1
-165 30 0 c35 0 36 4 55 210 16 159 51 362 101 570 43 179 137 514 149 528 8
9 57 -122 95 -253 l24 -85 -29 -95 c-77 -251 -155 -636 -167 -821 -6 -93 -5
-97 17 -109 36 -19 49 5 70 136 26 158 52 275 94 419 49 168 58 195 66 195 18
0 35 -240 35 -495 0 -265 -5 -331 -42 -547 -18 -106 -11 -132 31 -126 28 4 40
33 76 174 109 436 117 884 24 1328 -38 180 -126 436 -204 594 -108 218 -257
433 -316 458 -18 8 -35 14 -36 13 -2 0 -14 -5 -28 -10z"/>
<path d="M2278 14737 c-70 -30 -114 -65 -154 -126 -42 -63 -57 -112 -56 -192
1 -155 111 -287 266 -319 75 -15 135 -7 213 31 246 118 243 474 -4 596 -80 39
-187 43 -265 10z m200 -187 c42 -26 77 -99 68 -143 -21 -103 -124 -156 -215
-109 -100 50 -106 186 -12 249 44 30 113 31 159 3z"/>
<path d="M19994 18926 c-58 -25 -208 -245 -314 -458 -276 -557 -343 -1273
-180 -1922 36 -141 48 -170 76 -174 42 -6 49 20 31 126 -37 216 -42 282 -42
547 0 255 17 495 35 495 8 0 17 -27 66 -195 42 -144 68 -261 94 -419 21 -131
34 -155 70 -136 22 12 23 16 17 109 -12 185 -90 570 -167 821 l-29 95 24 85
c38 131 87 262 95 253 12 -14 106 -349 149 -528 50 -208 85 -411 101 -570 19
-206 20 -210 55 -210 l30 0 -1 165 c-1 364 -89 916 -205 1292 l-30 96 50 89
c82 145 73 144 114 12 170 -544 315 -1283 353 -1784 8 -118 37 -164 75 -119
32 38 -38 792 -116 1264 -64 380 -204 970 -247 1039 -9 15 -62 45 -72 41 -1
-1 -15 -7 -32 -14z"/>
<path d="M20503 14746 c-284 -89 -317 -487 -50 -615 78 -38 138 -46 213 -31
155 32 265 164 266 319 1 80 -14 129 -56 193 -81 121 -236 176 -373 134z m178
-199 c94 -63 88 -199 -12 -249 -124 -64 -257 59 -201 186 37 83 138 113 213
63z"/>
<path d="M4283 7820 c-42 -25 -60 -62 -94 -192 -75 -284 -103 -554 -88 -832
30 -551 249 -1055 610 -1401 98 -94 215 -185 238 -185 31 0 46 20 42 56 0 5
-39 42 -85 82 -154 130 -287 305 -385 506 -50 102 -122 303 -136 376 -6 33 -2
30 81 -60 133 -143 343 -357 396 -402 51 -42 81 -45 93 -7 5 15 -14 43 -82
121 -278 318 -533 667 -548 752 -3 17 -5 76 -3 131 l3 100 90 -115 c270 -347
670 -810 700 -810 6 0 20 9 30 20 22 24 24 20 -115 190 -184 224 -424 552
-597 815 l-92 140 20 104 c10 57 21 106 23 108 2 2 28 -35 57 -84 228 -381
692 -934 1027 -1224 101 -88 126 -101 150 -77 25 25 12 62 -44 123 -428 466
-833 1072 -1049 1569 -62 143 -81 173 -128 198 -42 23 -75 22 -114 -2z"/>
<path d="M7147 4800 c-166 -42 -278 -213 -247 -379 52 -280 392 -377 580 -164
107 122 107 314 -1 437 -77 87 -222 133 -332 106z m155 -197 c127 -76 73 -273
-75 -273 -78 0 -147 68 -147 145 0 43 30 96 69 122 42 28 110 30 153 6z"/>
<path d="M18603 7822 c-47 -25 -66 -55 -128 -198 -216 -497 -619 -1100 -1049
-1569 -56 -61 -69 -98 -44 -123 24 -24 49 -11 150 77 333 288 801 845 1027
1224 29 49 55 86 57 84 2 -2 13 -51 23 -108 l20 -104 -92 -140 c-174 -264
-447 -636 -624 -848 -107 -129 -110 -133 -88 -157 10 -11 24 -20 30 -20 29 0
420 451 681 785 l109 140 3 -105 c2 -58 -2 -121 -7 -141 -12 -41 -143 -240
-253 -385 -83 -109 -158 -200 -291 -352 -68 -78 -87 -106 -82 -121 13 -40 42
-35 103 17 63 56 251 246 386 392 83 90 87 93 81 60 -14 -73 -86 -274 -136
-376 -98 -201 -231 -376 -385 -506 -46 -40 -85 -77 -85 -82 -4 -36 11 -56 42
-56 23 0 140 91 238 185 361 346 580 850 610 1401 15 278 -13 548 -88 832 -34
130 -52 167 -94 192 -39 24 -72 25 -114 2z"/>
<path d="M15685 4797 c-156 -52 -245 -169 -245 -322 0 -295 359 -445 567 -236
163 164 114 442 -94 538 -64 30 -171 39 -228 20z m166 -200 c39 -26 69 -79 69
-122 0 -77 -69 -145 -147 -145 -148 0 -201 189 -77 271 41 27 112 25 155 -4z"/>
</g>
</svg>
